# 3ds Max Wavefront OBJ Exporter v0.97b - (c)2007 guruware
# File Created: 12.09.2018 17:38:10

mtllib hammer.mtl

#
# object Nemu_0_0_054
#

v  0.0234 0.0000 -0.0150
v  0.0234 -0.0000 0.0150
v  -0.0226 -0.0000 0.0150
v  -0.0226 0.0000 -0.0150
v  -0.0226 0.5070 0.0150
v  -0.0226 0.5070 -0.0150
v  0.0224 0.5070 0.0150
v  0.0224 0.5070 -0.0150
# 8 vertices

vn 0.0000 -1.0000 -0.0000
vn -1.0000 0.0000 -0.0000
vn 0.0000 -0.0000 1.0000
vn 1.0000 0.0020 0.0000
vn 0.0000 0.0000 -1.0000
vn 0.0000 1.0000 0.0000
# 6 vertex normals

g Nemu_0_0_054
usemtl Material__128
s 1
f 1//1 2//1 3//1 
f 1//1 3//1 4//1 
f 5//2 6//2 4//2 
f 5//2 4//2 3//2 
f 2//3 7//3 5//3 
f 2//3 5//3 3//3 
f 1//4 8//4 7//4 
f 1//4 7//4 2//4 
f 4//5 6//5 8//5 
f 4//5 8//5 1//5 
f 7//6 8//6 6//6 
f 7//6 6//6 5//6 
# 0 polygons - 12 triangles

#
# object Nemu_13B2E702_0_068
#

v  0.1504 0.2790 0.0000
v  -0.1496 0.3840 0.1050
v  -0.1496 0.2790 0.0000
v  -0.1496 0.4890 0.0000
v  0.1504 0.3840 0.1050
v  -0.1496 0.3840 -0.1050
v  0.1504 0.4890 0.0000
v  0.1504 0.3840 -0.1050
# 8 vertices

vn 0.0000 -0.7071 0.7071
vn -1.0000 0.0000 -0.0000
vn 0.0000 0.7071 0.7071
vn 0.0000 0.7071 -0.7071
vn 0.0000 -0.7071 -0.7071
vn 1.0000 0.0000 -0.0000
# 6 vertex normals

vt 0.9807 1.0191 0.0000
vt 0.6150 0.4731 0.0000
vt 0.9807 0.4731 0.0000
vt 0.2500 0.4731 0.0000
vt 0.6150 1.0191 0.0000
vt 1.3463 0.4731 0.0000
vt 0.2500 1.0191 0.0000
vt -0.1150 0.4731 0.0000
vt -0.1150 1.0191 0.0000
vt -0.4807 0.4731 0.0000
vt -0.4807 1.0191 0.0000
vt 1.3463 1.0191 0.0000
# 12 texture coords

g Nemu_13B2E702_0_068
usemtl Material__127
s 1
f 9/1/7 10/2/7 11/3/7 
f 12/4/8 11/3/8 10/2/8 
f 13/5/9 12/4/9 10/2/9 
f 12/4/8 14/6/8 11/3/8 
f 13/5/9 15/7/9 12/4/9 
f 9/1/7 13/5/7 10/2/7 
f 14/8/10 15/7/10 16/9/10 
f 14/8/10 12/4/10 15/7/10 
f 11/10/11 16/9/11 9/11/11 
f 11/10/11 14/8/11 16/9/11 
f 9/1/12 16/12/12 15/7/12 
f 9/1/12 15/7/12 13/5/12 
# 0 polygons - 12 triangles

