# 3ds Max Wavefront OBJ Exporter v0.97b - (c)2007 guruware
# File Created: 17.10.2018 19:57:28

mtllib dkpoly.mtl

#
# object Nemu_60999451_0_016
#

v  -0.0948 -0.0000 -0.1212
v  -0.1947 0.0005 -0.1264
v  -0.1904 0.0414 -0.1166
v  -0.1539 0.0815 -0.0356
v  -0.1013 0.0525 -0.1123
v  -0.2507 0.0408 0.0967
v  -0.2612 -0.0006 0.1206
v  -0.0807 0.0765 0.1355
v  -0.0665 -0.0003 0.1810
# 9 vertices

vn 0.0522 0.2281 -0.9722
vn -0.0944 0.9084 -0.4073
vn -0.5548 0.8175 -0.1546
vn 0.0259 0.1689 -0.9853
vn -0.9587 0.0876 -0.2705
vn -0.9533 0.1598 -0.2561
vn 0.3408 0.9326 -0.1185
vn -0.0053 -1.0000 -0.0061
vn 0.9861 0.1380 -0.0922
vn -0.2312 0.9645 0.1273
vn -0.2519 0.5302 0.8096
vn 0.0018 -1.0000 -0.0012
vn 0.9875 0.1263 -0.0945
vn -0.2871 0.4483 0.8465
# 14 vertex normals

vt 0.0041 0.4308 0.0000
vt 0.2967 0.0528 0.0000
vt 0.4267 0.1057 0.0000
vt 0.3779 0.4755 0.0000
vt 0.4430 0.0284 0.0000
vt 0.5242 1.0322 0.0000
vt 0.4674 0.4308 0.0000
vt 0.5690 0.0203 0.0000
vt 0.9388 0.2601 0.0000
vt 0.5283 1.0322 0.0000
vt 0.4674 0.4227 0.0000
# 11 texture coords

g Nemu_60999451_0_016
usemtl Material__25
s 1
f 1/1/1 2/1/1 3/1/1 
f 3/2/2 4/2/2 5/2/2 
f 6/3/3 4/3/3 3/3/3 
f 1/1/4 3/1/4 5/1/4 
f 7/4/5 6/4/5 3/4/5 
f 7/4/6 3/4/6 2/4/6 
f 5/5/7 4/5/7 8/5/7 
f 2/6/8 1/6/8 7/6/8 
f 5/7/9 9/7/9 1/7/9 
f 8/8/10 4/8/10 6/8/10 
f 6/9/11 7/9/11 9/9/11 
f 1/10/12 9/10/12 7/10/12 
f 9/11/13 5/11/13 8/11/13 
f 6/9/14 9/9/14 8/9/14 
# 0 polygons - 14 triangles

#
# object Nemu_60999451_0_015
#

v  -0.0727 0.1916 -0.0549
v  -0.1414 0.1949 -0.0815
v  -0.1411 0.2404 -0.0116
v  -0.1946 0.1250 -0.1439
v  -0.1662 0.0709 -0.0170
v  -0.0653 0.1235 -0.0974
v  -0.1321 0.0246 -0.0585
# 7 vertices

vn 0.2452 0.8120 -0.5296
vn -0.4228 0.7607 -0.4926
vn 0.4806 -0.0990 0.8713
vn -0.9536 0.1325 0.2702
vn 0.3298 0.5255 -0.7843
vn 0.2986 0.4988 -0.8136
vn 0.6082 -0.2331 0.7588
vn -0.8270 -0.5597 -0.0535
vn 0.2854 -0.5114 -0.8106
vn 0.7601 -0.2834 0.5848
# 10 vertex normals

vt 0.0732 0.7681 0.0000
vt 0.1666 0.5811 0.0000
vt 0.5283 0.2560 0.0000
vt 0.5405 0.1422 0.0000
vt 0.2235 0.9266 0.0000
vt 0.5811 0.3454 0.0000
vt 0.8778 0.3576 0.0000
vt 0.7437 0.9794 0.0000
vt 0.5933 0.4633 0.0000
# 9 texture coords

g Nemu_60999451_0_015
usemtl Material__25
s 1
f 10/12/15 11/12/15 12/12/15 
f 13/13/16 12/13/16 11/13/16 
f 14/14/17 10/14/17 12/14/17 
f 12/15/18 13/15/18 14/15/18 
f 11/16/19 10/16/19 15/16/19 
f 11/16/20 15/16/20 13/16/20 
f 16/17/21 10/17/21 14/17/21 
f 13/18/22 16/18/22 14/18/22 
f 15/19/23 16/19/23 13/19/23 
f 10/20/24 16/20/24 15/20/24 
# 0 polygons - 10 triangles

#
# object Nemu_60999451_0_014
#

v  -0.1454 0.3981 -0.1112
v  -0.1460 0.2447 -0.0120
v  -0.1401 0.4129 0.0057
v  -0.0699 0.4523 -0.0616
v  -0.0108 0.3676 -0.0625
v  -0.1431 0.2685 -0.0841
v  -0.0719 0.2608 -0.0555
# 7 vertices

vn -0.9987 0.0303 0.0416
vn -0.5452 0.8344 -0.0807
vn 0.5311 0.3624 0.7659
vn -0.9985 -0.0278 -0.0482
vn 0.4338 -0.1093 0.8944
vn 0.3815 0.2757 -0.8823
vn 0.2956 -0.1904 -0.9362
vn 0.5305 -0.2502 0.8099
vn 0.0235 -0.9497 -0.3124
vn 0.3369 -0.2518 -0.9072
# 10 vertex normals

vt 0.6015 0.2560 0.0000
vt 0.1422 0.3658 0.0000
vt 0.2885 0.2926 0.0000
vt 0.5527 0.2520 0.0000
vt 0.3332 0.9916 0.0000
vt 0.5893 1.0201 0.0000
vt 0.9957 0.7112 0.0000
# 7 texture coords

g Nemu_60999451_0_014
usemtl Material__25
s 1
f 17/21/25 18/21/25 19/21/25 
f 20/22/26 17/22/26 19/22/26 
f 20/23/27 19/23/27 21/23/27 
f 17/21/28 22/21/28 18/21/28 
f 18/24/29 21/24/29 19/24/29 
f 20/25/30 21/25/30 17/25/30 
f 21/26/31 22/26/31 17/26/31 
f 18/24/32 23/24/32 21/24/32 
f 22/27/33 23/27/33 18/27/33 
f 21/26/34 23/26/34 22/26/34 
# 0 polygons - 10 triangles

#
# object Nemu_60999451_0_013
#

v  0.1901 0.0401 -0.1168
v  0.1936 0.0003 -0.1266
v  0.0937 0.0004 -0.1219
v  0.0994 0.0525 -0.1128
v  0.0620 0.0003 0.1811
v  0.1533 0.0818 -0.0362
v  0.0794 0.0748 0.1348
v  0.2614 0.0002 0.1204
v  0.2496 0.0401 0.0976
# 9 vertices

vn -0.0457 0.2354 -0.9708
vn -0.0197 0.1739 -0.9846
vn -0.9865 0.1268 -0.1031
vn -0.3477 0.9309 -0.1120
vn -0.0019 -1.0000 0.0004
vn -0.9808 0.1706 -0.0947
vn -0.0007 -1.0000 -0.0004
vn 0.2262 0.9644 0.1372
vn 0.2466 0.5339 0.8088
vn 0.2777 0.4597 0.8435
vn 0.9537 0.1484 -0.2615
vn 0.9553 0.1312 -0.2649
vn 0.5681 0.8077 -0.1576
vn 0.1043 0.9021 -0.4187
# 14 vertex normals

vt 0.0041 0.4389 0.0000
vt 0.4714 0.4795 0.0000
vt 0.4470 0.0447 0.0000
vt 0.5283 1.0322 0.0000
vt 0.4714 0.4552 0.0000
vt 0.5690 0.0081 0.0000
vt 0.9388 0.2479 0.0000
vt 0.3739 0.4308 0.0000
vt 0.4227 0.0853 0.0000
vt 0.2926 0.0528 0.0000
# 10 texture coords

g Nemu_60999451_0_013
usemtl Material__25
s 1
f 24/28/35 25/28/35 26/28/35 
f 24/28/36 26/28/36 27/28/36 
f 28/29/37 27/29/37 26/29/37 
f 29/30/38 27/30/38 30/30/38 
f 26/31/39 25/31/39 31/31/39 
f 27/32/40 28/32/40 30/32/40 
f 28/31/41 26/31/41 31/31/41 
f 29/33/42 30/33/42 32/33/42 
f 28/34/43 31/34/43 32/34/43 
f 28/34/44 32/34/44 30/34/44 
f 24/35/45 31/35/45 25/35/45 
f 24/35/46 32/35/46 31/35/46 
f 29/36/47 32/36/47 24/36/47 
f 29/37/48 24/37/48 27/37/48 
# 0 polygons - 14 triangles

#
# object Nemu_60999451_0_012
#

v  0.0719 0.1916 -0.0540
v  0.1655 0.0706 -0.0167
v  0.1412 0.2403 -0.0109
v  0.1412 0.1950 -0.0803
v  0.1941 0.1251 -0.1436
v  0.0628 0.1221 -0.0972
v  0.1323 0.0247 -0.0585
# 7 vertices

vn -0.4745 -0.0980 0.8748
vn -0.2411 0.8129 -0.5302
vn -0.2970 0.5074 -0.8089
vn -0.3238 0.5304 -0.7835
vn 0.9545 0.1276 0.2697
vn 0.4132 0.7628 -0.4974
vn -0.7380 -0.2839 0.6122
vn -0.6124 -0.2423 0.7525
vn -0.2746 -0.5178 -0.8102
vn 0.8305 -0.5546 -0.0511
# 10 vertex normals

vt 0.5283 0.2682 0.0000
vt 0.0732 0.7681 0.0000
vt 0.2195 0.9225 0.0000
vt 0.5405 0.1341 0.0000
vt 0.1626 0.5771 0.0000
vt 0.5933 0.4633 0.0000
vt 0.5811 0.3617 0.0000
vt 0.7478 0.9753 0.0000
vt 0.8778 0.3495 0.0000
# 9 texture coords

g Nemu_60999451_0_012
usemtl Material__25
s 1
f 33/38/49 34/38/49 35/38/49 
f 36/39/50 33/39/50 35/39/50 
f 36/40/51 37/40/51 38/40/51 
f 36/40/52 38/40/52 33/40/52 
f 37/41/53 35/41/53 34/41/53 
f 35/42/54 37/42/54 36/42/54 
f 39/43/55 33/43/55 38/43/55 
f 34/44/56 33/44/56 39/44/56 
f 39/45/57 38/45/57 37/45/57 
f 39/46/58 37/46/58 34/46/58 
# 0 polygons - 10 triangles

#
# object Nemu_60999451_0_011
#

v  0.1455 0.3979 -0.1123
v  0.0693 0.4534 -0.0617
v  0.1396 0.4119 0.0055
v  0.0133 0.3666 -0.0633
v  0.0719 0.2608 -0.0539
v  0.1467 0.2450 -0.0104
v  0.1430 0.2683 -0.0833
# 7 vertices

vn 0.5558 0.8283 -0.0703
vn -0.5403 0.3348 0.7720
vn -0.5243 -0.2170 0.8234
vn -0.4469 -0.1037 0.8886
vn 0.9983 0.0378 0.0454
vn -0.3898 0.2678 -0.8811
vn -0.2865 -0.2411 -0.9272
vn 0.9976 -0.0328 -0.0604
vn -0.0239 -0.9526 -0.3032
vn -0.3565 -0.1976 -0.9132
# 10 vertex normals

vt 0.1463 0.3536 0.0000
vt 0.3007 0.3048 0.0000
vt 0.5486 0.2682 0.0000
vt 0.6015 0.2438 0.0000
vt 0.3373 0.9916 0.0000
vt 0.5893 1.0201 0.0000
vt 0.9957 0.7112 0.0000
# 7 texture coords

g Nemu_60999451_0_011
usemtl Material__25
s 1
f 40/47/59 41/47/59 42/47/59 
f 42/48/60 41/48/60 43/48/60 
f 43/49/61 44/49/61 45/49/61 
f 43/49/62 45/49/62 42/49/62 
f 45/50/63 40/50/63 42/50/63 
f 43/51/64 41/51/64 40/51/64 
f 40/52/65 44/52/65 43/52/65 
f 45/50/66 46/50/66 40/50/66 
f 45/53/67 44/53/67 46/53/67 
f 40/52/68 46/52/68 44/52/68 
# 0 polygons - 10 triangles

#
# object Nemu_60999451_0_010
#

v  -0.1516 0.3321 -0.0965
v  -0.3208 0.3411 -0.1024
v  -0.2434 0.4503 -0.0178
v  -0.2434 0.2562 -0.0114
v  -0.2897 0.3003 -0.1926
v  -0.1418 0.3042 -0.1978
# 6 vertices

vn 0.0590 0.5848 -0.8090
vn -0.7516 0.0219 0.6593
vn -0.7569 -0.6527 0.0344
vn 0.6689 0.0241 0.7430
vn 0.0168 -0.9705 -0.2407
vn 0.0622 0.9173 -0.3932
vn 0.7424 -0.6240 0.2440
vn -0.0346 0.9625 -0.2690
# 8 vertex normals

vt 0.2073 0.9306 0.0000
vt 0.5608 0.1382 0.0000
vt 0.9063 0.4755 0.0000
vt 0.4633 0.1666 0.0000
vt 1.0119 0.6543 0.0000
vt 0.0366 0.7071 0.0000
vt 0.7843 0.4348 0.0000
vt 0.0244 0.6380 0.0000
# 8 texture coords

g Nemu_60999451_0_010
usemtl Material__25
s 1
f 47/54/69 48/54/69 49/54/69 
f 48/55/70 50/55/70 49/55/70 
f 50/56/71 48/56/71 51/56/71 
f 50/57/72 47/57/72 49/57/72 
f 51/58/73 52/58/73 50/58/73 
f 47/59/74 51/59/74 48/59/74 
f 47/60/75 50/60/75 52/60/75 
f 51/61/76 47/61/76 52/61/76 
# 0 polygons - 8 triangles

#
# object Nemu_60999451_0_009
#

v  -0.3593 0.4294 -0.0613
v  -0.1545 0.4237 0.0462
v  -0.1697 0.5643 0.0324
v  -0.2788 0.5812 -0.0602
v  -0.2532 0.3621 -0.0625
v  -0.1584 0.5864 -0.1386
v  -0.1239 0.4213 -0.1507
# 7 vertices

vn -0.4634 0.0366 0.8854
vn -0.5879 0.3067 0.7485
vn -0.3806 -0.6120 0.6932
vn 0.0430 0.9905 0.1308
vn 0.9762 0.1971 0.0901
vn 0.9811 0.1209 0.1508
vn -0.3432 0.1883 -0.9202
vn -0.5431 -0.0518 -0.8381
vn -0.3234 -0.4951 -0.8064
vn 0.4610 -0.8836 0.0823
# 10 vertex normals

vt 0.4836 0.1138 0.0000
vt 0.8616 0.1829 0.0000
vt 0.0041 0.4470 0.0000
vt 0.3698 0.4023 0.0000
vt 0.4877 1.0038 0.0000
vt 0.7884 0.9469 0.0000
vt 0.9388 0.4511 0.0000
# 7 texture coords

g Nemu_60999451_0_009
usemtl Material__25
s 1
f 53/62/77 54/62/77 55/62/77 
f 53/62/78 55/62/78 56/62/78 
f 53/63/79 57/63/79 54/63/79 
f 58/64/80 56/64/80 55/64/80 
f 55/65/81 59/65/81 58/65/81 
f 55/65/82 54/65/82 59/65/82 
f 56/66/83 59/66/83 53/66/83 
f 56/66/84 58/66/84 59/66/84 
f 59/67/85 57/67/85 53/67/85 
f 54/68/86 57/68/86 59/68/86 
# 0 polygons - 10 triangles

#
# object Nemu_60999451_0_008
#

v  -0.2302 0.8006 -0.0534
v  -0.1687 0.8515 -0.0535
v  -0.1147 0.8005 -0.1236
v  -0.1190 0.8001 0.0151
v  -0.2456 0.6425 -0.0537
v  -0.1488 0.6298 -0.0100
v  -0.1672 0.6186 -0.1086
# 7 vertices

vn -0.4401 0.5301 -0.7248
vn -0.4415 0.5345 0.7207
vn -0.5236 0.0496 0.8505
vn 0.7023 0.7115 0.0237
vn -0.5185 0.0515 -0.8536
vn -0.4170 -0.0607 0.9069
vn 0.9610 -0.2749 0.0282
vn -0.5531 0.0914 -0.8281
vn -0.1929 -0.9703 0.1459
vn 0.9752 -0.1463 -0.1659
# 10 vertex normals

vt 0.2723 0.9144 0.0000
vt 0.2804 0.1707 0.0000
vt 0.5568 0.0894 0.0000
vt 0.0975 0.4674 0.0000
vt 0.5161 0.9794 0.0000
vt 0.5649 0.4877 0.0000
vt 1.0282 0.4511 0.0000
# 7 texture coords

g Nemu_60999451_0_008
usemtl Material__25
s 1
f 60/69/87 61/69/87 62/69/87 
f 63/70/88 61/70/88 60/70/88 
f 64/71/89 63/71/89 60/71/89 
f 62/72/90 61/72/90 63/72/90 
f 62/73/91 64/73/91 60/73/91 
f 64/71/92 65/71/92 63/71/92 
f 63/74/93 66/74/93 62/74/93 
f 62/73/94 66/73/94 64/73/94 
f 66/75/95 65/75/95 64/75/95 
f 63/74/96 65/74/96 66/74/96 
# 0 polygons - 10 triangles

#
# object Nemu_60999451_0_007
#

v  -0.1413 0.8445 -0.0111
v  -0.1488 0.9732 -0.0111
v  -0.0738 0.8982 -0.1611
v  -0.0000 0.7695 -0.0299
v  -0.1250 0.8620 0.1076
v  0.0737 0.8982 -0.1611
v  -0.0000 0.8107 0.1351
v  -0.0000 1.1145 -0.0099
v  0.1250 0.8620 0.1076
v  0.1425 0.8445 -0.0111
v  0.1487 0.9732 -0.0111
v  -0.0000 0.8970 0.2064
# 12 vertices

vn -0.9035 -0.0526 -0.4254
vn -0.4609 -0.7491 -0.4758
vn -0.4407 -0.8774 0.1896
vn 0.0000 -0.7139 -0.7003
vn -0.4112 -0.8843 0.2211
vn -0.9880 -0.0576 0.1437
vn -0.5598 0.5946 -0.5772
vn 0.0000 0.5731 -0.8195
vn 0.4368 -0.8784 0.1938
vn 0.4112 -0.8843 0.2211
vn 0.5597 0.5843 0.5876
vn 0.5598 0.5946 -0.5772
vn 0.3956 -0.5849 0.7081
vn 0.6168 0.5091 0.6003
vn -0.5367 0.5596 0.6316
vn 0.4575 -0.7496 -0.4783
vn -0.3956 -0.5849 0.7081
vn -0.6039 0.5620 0.5652
vn 0.9871 -0.0479 0.1525
vn 0.9022 -0.0438 -0.4292
# 20 vertex normals

vt 0.0488 0.4877 0.0000
vt 0.2804 0.1300 0.0000
vt 0.2885 0.0610 0.0000
vt 0.5161 0.1463 0.0000
vt 0.3007 0.0610 0.0000
vt 0.0041 0.4877 0.0000
vt 0.2276 0.8250 0.0000
vt 0.5161 0.8128 0.0000
vt 0.7437 0.0610 0.0000
vt 0.7315 0.0610 0.0000
vt 0.8169 0.8047 0.0000
vt 0.8047 0.8250 0.0000
vt 0.7234 0.2154 0.0000
vt 0.2195 0.8047 0.0000
vt 0.7518 0.1300 0.0000
vt 0.3089 0.2154 0.0000
vt 1.0282 0.4877 0.0000
vt 0.9835 0.4917 0.0000
# 18 texture coords

g Nemu_60999451_0_007
usemtl Material__25
s 1
f 67/76/97 68/76/97 69/76/97 
f 67/77/98 69/77/98 70/77/98 
f 70/78/99 71/78/99 67/78/99 
f 69/79/100 72/79/100 70/79/100 
f 71/80/101 70/80/101 73/80/101 
f 68/81/102 67/81/102 71/81/102 
f 68/82/103 74/82/103 69/82/103 
f 69/83/104 74/83/104 72/83/104 
f 75/84/105 70/84/105 76/84/105 
f 70/85/106 75/85/106 73/85/106 
f 77/86/107 74/86/107 78/86/107 
f 74/87/108 77/87/108 72/87/108 
f 73/88/109 75/88/109 78/88/109 
f 77/86/110 78/86/110 75/86/110 
f 71/89/111 74/89/111 68/89/111 
f 70/90/112 72/90/112 76/90/112 
f 71/91/113 73/91/113 78/91/113 
f 71/89/114 78/89/114 74/89/114 
f 76/92/115 77/92/115 75/92/115 
f 77/93/116 76/93/116 72/93/116 
# 0 polygons - 20 triangles

#
# object Nemu_60999451_0_006
#

v  0.3161 0.3402 -0.1000
v  0.1530 0.3325 -0.0951
v  0.2423 0.4502 -0.0172
v  0.2417 0.2561 -0.0119
v  0.1407 0.3054 -0.1974
v  0.2867 0.3034 -0.1955
# 6 vertices

vn -0.0515 0.5780 -0.8144
vn -0.6737 0.0224 0.7386
vn -0.7564 -0.6038 0.2514
vn 0.7565 0.0157 0.6538
vn -0.0545 0.9370 -0.3450
vn 0.0169 0.9659 -0.2584
vn -0.0100 -0.9677 -0.2517
vn 0.7586 -0.6514 0.0180
# 8 vertex normals

vt 0.2073 0.9266 0.0000
vt 0.4674 0.1707 0.0000
vt 0.7721 0.4308 0.0000
vt 0.5608 0.1463 0.0000
vt 0.0284 0.6827 0.0000
vt 0.0203 0.6380 0.0000
vt 1.0119 0.6584 0.0000
vt 0.9022 0.4836 0.0000
# 8 texture coords

g Nemu_60999451_0_006
usemtl Material__25
s 1
f 79/94/117 80/94/117 81/94/117 
f 80/95/118 82/95/118 81/95/118 
f 82/96/119 80/96/119 83/96/119 
f 82/97/120 79/97/120 81/97/120 
f 84/98/121 80/98/121 79/98/121 
f 80/99/122 84/99/122 83/99/122 
f 83/100/123 84/100/123 82/100/123 
f 79/101/124 82/101/124 84/101/124 
# 0 polygons - 8 triangles

#
# object Nemu_60999451_0_005
#

v  0.1232 0.4217 -0.1503
v  0.1541 0.4237 0.0477
v  0.1735 0.5648 0.0333
v  0.2828 0.5816 -0.0598
v  0.1622 0.5872 -0.1370
v  0.3573 0.4289 -0.0599
v  0.2520 0.3620 -0.0611
# 7 vertices

vn -0.9772 0.1496 0.1509
vn -0.0397 0.9904 0.1327
vn 0.4672 0.0259 0.8838
vn -0.9707 0.2213 0.0933
vn -0.4652 -0.8814 0.0819
vn 0.5945 0.2897 0.7501
vn 0.3607 -0.0100 -0.9326
vn 0.5291 0.2581 -0.8084
vn 0.3260 -0.4975 -0.8039
vn 0.3817 -0.6131 0.6917
# 10 vertex normals

vt 0.3536 0.4958 0.0000
vt 0.0041 0.4348 0.0000
vt 0.4917 0.0569 0.0000
vt 0.9388 0.5121 0.0000
vt 0.4958 0.9591 0.0000
vt 0.7884 0.9225 0.0000
vt 0.8616 0.1504 0.0000
# 7 texture coords

g Nemu_60999451_0_005
usemtl Material__25
s 1
f 85/102/125 86/102/125 87/102/125 
f 88/103/126 89/103/126 87/103/126 
f 90/104/127 87/104/127 86/104/127 
f 85/102/128 87/102/128 89/102/128 
f 91/105/129 86/105/129 85/105/129 
f 90/104/130 88/104/130 87/104/130 
f 89/106/131 90/106/131 85/106/131 
f 89/106/132 88/106/132 90/106/132 
f 91/107/133 85/107/133 90/107/133 
f 91/108/134 90/108/134 86/108/134 
# 0 polygons - 10 triangles

#
# object Nemu_60999451_0_004
#

v  0.1695 0.8516 -0.0532
v  0.1192 0.8006 0.0142
v  0.2332 0.8009 -0.0526
v  0.1151 0.8005 -0.1248
v  0.1543 0.6309 -0.0107
v  0.2423 0.6432 -0.0541
v  0.1786 0.6175 -0.1079
# 7 vertices

vn 0.4241 0.5414 0.7260
vn -0.6989 0.7149 0.0200
vn 0.4404 0.0168 0.8976
vn 0.5053 -0.0219 0.8626
vn -0.9450 -0.3258 0.0284
vn 0.4379 0.5396 -0.7191
vn 0.5187 0.1021 -0.8488
vn -0.9617 -0.1672 -0.2174
vn 0.2262 -0.9557 0.1882
vn 0.6343 0.0444 -0.7718
# 10 vertex normals

vt 0.2723 0.1179 0.0000
vt 0.0975 0.5283 0.0000
vt 0.5568 0.0406 0.0000
vt 0.5852 0.5974 0.0000
vt 0.2642 0.8616 0.0000
vt 0.5080 0.9144 0.0000
vt 1.0241 0.4267 0.0000
# 7 texture coords

g Nemu_60999451_0_004
usemtl Material__25
s 1
f 92/109/135 93/109/135 94/109/135 
f 92/110/136 95/110/136 93/110/136 
f 96/111/137 97/111/137 94/111/137 
f 96/111/138 94/111/138 93/111/138 
f 98/112/139 93/112/139 95/112/139 
f 92/113/140 94/113/140 95/113/140 
f 94/114/141 98/114/141 95/114/141 
f 98/112/142 96/112/142 93/112/142 
f 97/115/143 96/115/143 98/115/143 
f 94/114/144 97/114/144 98/114/144 
# 0 polygons - 10 triangles

#
# object Nemu_60999451_0_003
#

v  -0.1438 0.7199 0.0648
v  -0.0975 0.6099 -0.0927
v  -0.0913 0.6099 0.0535
v  -0.1275 0.7449 -0.1777
v  0.1275 0.7449 -0.1777
v  0.0975 0.6099 -0.0927
v  0.0912 0.6099 0.0535
v  -0.1338 0.8686 -0.1252
v  0.1200 0.8686 -0.1252
v  0.1437 0.7199 0.0648
v  -0.1275 0.8836 0.0035
v  0.1275 0.8836 0.0035
v  0.0812 0.6924 0.1373
v  -0.0813 0.6924 0.1373
v  -0.0000 0.8049 0.1173
# 15 vertices

vn -0.9003 -0.4336 0.0385
vn -0.9582 -0.2709 -0.0921
vn 0.0000 -0.5328 -0.8462
vn 0.0000 -1.0000 -0.0000
vn -0.9974 -0.0211 -0.0690
vn 0.0000 0.3905 -0.9206
vn 0.9582 -0.2709 -0.0921
vn 0.0000 0.3906 -0.9206
vn 0.0000 0.9933 -0.1157
vn 0.9003 -0.4336 0.0385
vn 0.0000 -0.7124 0.7018
vn 0.9947 0.0849 -0.0579
vn -0.4256 0.4472 0.7867
vn 0.7611 -0.4143 0.4990
vn 0.0000 0.1750 0.9846
vn 0.9950 0.0738 -0.0666
vn 0.0000 0.8222 0.5692
vn 0.6536 0.3212 0.6853
vn 0.4256 0.4472 0.7867
vn -0.9931 0.1117 0.0352
vn -0.7611 -0.4143 0.4990
vn -0.6536 0.3212 0.6853
# 22 vertex normals

vt 0.0284 0.3454 0.0000
vt 0.5161 0.2398 0.0000
vt 0.5161 0.0000 0.0000
vt 0.0000 0.5080 0.0000
vt 0.5161 0.7153 0.0000
vt 1.0038 0.3454 0.0000
vt 0.5161 1.0322 0.0000
vt 0.5161 0.1463 0.0000
vt 1.0322 0.5527 0.0000
vt 0.2926 0.7478 0.0000
vt 0.9144 0.3048 0.0000
vt 0.5161 0.6015 0.0000
vt 1.0322 0.5568 0.0000
vt 0.5161 0.9428 0.0000
vt 0.8534 0.6827 0.0000
vt 0.7396 0.7478 0.0000
vt 0.0000 0.5730 0.0000
vt 0.1179 0.3048 0.0000
vt 0.1788 0.6827 0.0000
# 19 texture coords

g Nemu_60999451_0_003
usemtl Material__25
s 1
f 99/116/145 100/116/145 101/116/145 
f 99/116/146 102/116/146 100/116/146 
f 103/117/147 104/117/147 100/117/147 
f 103/117/147 100/117/147 102/117/147 
f 100/118/148 105/118/148 101/118/148 
f 99/119/149 106/119/149 102/119/149 
f 107/120/150 102/120/150 106/120/150 
f 100/118/148 104/118/148 105/118/148 
f 104/121/151 103/121/151 108/121/151 
f 107/120/150 103/120/152 102/120/150 
f 106/122/153 109/122/153 110/122/153 
f 104/121/154 108/121/154 105/121/154 
f 105/123/155 111/123/155 112/123/155 
f 106/122/153 110/122/153 107/122/153 
f 105/123/155 112/123/155 101/123/155 
f 107/124/156 108/124/156 103/124/156 
f 112/125/157 113/125/157 109/125/157 
f 105/126/158 108/126/158 111/126/158 
f 112/127/159 111/127/159 113/127/159 
f 108/128/160 107/128/160 110/128/160 
f 113/129/161 110/129/161 109/129/161 
f 111/130/162 108/130/162 110/130/162 
f 113/131/163 111/131/163 110/131/163 
f 106/132/164 99/132/164 109/132/164 
f 99/133/165 101/133/165 112/133/165 
f 112/134/166 109/134/166 99/134/166 
# 0 polygons - 26 triangles

#
# object Nemu_60999451_0_002
#

v  -0.0925 0.3851 0.0452
v  -0.0988 0.5338 -0.0386
v  -0.0463 0.3901 -0.1248
v  -0.0463 0.3213 -0.0136
v  0.0462 0.3213 -0.0136
v  0.0462 0.3901 -0.1248
v  0.0925 0.3851 0.0452
v  0.0987 0.5338 -0.0386
# 8 vertices

vn -0.9463 -0.1878 -0.2630
vn -0.8787 -0.4062 -0.2510
vn 0.0000 -0.8507 -0.5257
vn 0.0000 -0.6777 0.7354
vn 0.0000 0.5145 -0.8575
vn 0.0000 0.4906 0.8714
vn 0.8787 -0.4062 -0.2510
vn 0.9463 -0.1878 -0.2630
# 8 vertex normals

vt 0.0325 0.3820 0.0000
vt 0.5161 0.0772 0.0000
vt 0.5161 0.1666 0.0000
vt 0.5161 0.7843 0.0000
vt 0.5161 0.7721 0.0000
vt 0.9997 0.3820 0.0000
# 6 texture coords

g Nemu_60999451_0_002
usemtl Material__25
s 1
f 114/135/167 115/135/167 116/135/167 
f 114/135/168 116/135/168 117/135/168 
f 118/136/169 116/136/169 119/136/169 
f 118/136/169 117/136/169 116/136/169 
f 117/137/170 118/137/170 120/137/170 
f 117/137/170 120/137/170 114/137/170 
f 121/138/171 116/138/171 115/138/171 
f 121/138/171 119/138/171 116/138/171 
f 114/139/172 120/139/172 121/139/172 
f 114/139/172 121/139/172 115/139/172 
f 119/140/173 120/140/173 118/140/173 
f 119/140/174 121/140/174 120/140/174 
# 0 polygons - 12 triangles

