# 3ds Max Wavefront OBJ Exporter v0.97b - (c)2007 guruware
# File Created: 27.10.2016 13:30:58

mtllib capsule.mtl

#
# object Nemu_3A704C1C_0_063
#

v  0.0587 0.0001 0.0000
v  0.0587 0.1201 0.0000
v  -0.0613 0.1201 0.0000
v  -0.0613 0.0001 0.0000
# 4 vertices

vn 0.0000 -0.0000 1.0000
# 1 vertex normals

vt 1.0000 0.0000 0.0000
vt 0.9990 1.0000 0.0000
vt 0.0000 0.9990 0.0000
vt 0.0000 0.0000 0.0000
# 4 texture coords

g Nemu_3A704C1C_0_063
usemtl Material__366
s 1
f 1/1/1 2/2/1 3/3/1 
f 1/1/1 3/3/1 4/4/1 
# 0 polygons - 2 triangles

#
# object Nemu_62B17B58_0_062
#

v  0.0587 0.0901 0.0000
v  0.0587 0.2101 0.0000
v  -0.0613 0.2101 0.0000
v  -0.0613 0.0901 0.0000
# 4 vertices

vn 0.0000 -0.0000 1.0000
# 1 vertex normals

vt 1.0000 0.0000 0.0000
vt 0.9990 1.0000 0.0000
vt 0.0000 0.9990 0.0000
vt 0.0000 0.0000 0.0000
# 4 texture coords

g Nemu_62B17B58_0_062
usemtl Material__367
s 1
f 5/5/2 6/6/2 7/7/2 
f 5/5/2 7/7/2 8/8/2 
# 0 polygons - 2 triangles

#
# object Nemu_0_0_052
#

v  -0.0013 0.2061 0.0000
v  -0.0223 0.2211 0.0290
v  -0.0353 0.2211 -0.0110
v  -0.0013 0.2211 -0.0360
v  0.0197 0.2211 0.0290
v  0.0327 0.2211 -0.0110
# 6 vertices

vn -0.4377 -0.8878 0.1423
vn -0.2721 -0.8882 -0.3701
vn 0.0000 -0.8882 0.4594
vn 0.2721 -0.8882 -0.3701
vn 0.0000 1.0000 0.0000
vn 0.4377 -0.8878 0.1423
# 6 vertex normals

g Nemu_0_0_052
usemtl Material__369
s 1
f 9//3 10//3 11//3 
f 9//4 11//4 12//4 
f 9//5 13//5 10//5 
f 9//6 12//6 14//6 
f 13//7 11//7 10//7 
f 9//8 14//8 13//8 
f 14//7 12//7 11//7 
f 14//7 11//7 13//7 
# 0 polygons - 8 triangles

#
# object Nemu_746C445D_0_060
#

v  -0.0313 0.1501 -0.0520
v  0.0287 0.0601 -0.0520
v  -0.0313 0.0601 -0.0520
v  -0.0613 0.0601 0.0000
v  -0.0313 0.0601 0.0520
v  -0.0613 0.1501 0.0000
v  -0.0313 0.1501 0.0520
v  0.0287 0.1501 -0.0520
v  0.0287 0.0601 0.0520
v  0.0287 0.1501 0.0520
v  0.0587 0.1501 0.0000
v  0.0587 0.0601 0.0000
# 12 vertices

vn 0.0000 0.0000 -1.0000
vn -0.8662 0.0000 -0.4997
vn -0.8662 -0.0000 0.4997
vn 0.0000 -0.0000 1.0000
vn 0.8662 0.0000 -0.4997
vn 0.8662 -0.0000 0.4997
# 6 vertex normals

vt 1.2500 0.9996 0.0000
vt 0.7500 0.0006 0.0000
vt 1.2500 0.0006 0.0000
vt 1.7500 0.0006 0.0000
vt 2.2500 0.0006 0.0000
vt 1.7500 0.9996 0.0000
vt 2.2500 0.9996 0.0000
vt 0.7500 0.9996 0.0000
vt 2.7500 0.0006 0.0000
vt 2.7500 0.9996 0.0000
vt 0.2500 0.9996 0.0000
vt 0.2500 0.0006 0.0000
vt -0.2490 0.9996 0.0000
vt -0.2490 0.0006 0.0000
# 14 texture coords

g Nemu_746C445D_0_060
usemtl Material__368
s 1
f 15/9/9 16/10/9 17/11/9 
f 18/12/10 15/9/10 17/11/10 
f 19/13/11 20/14/11 18/12/11 
f 18/12/10 20/14/10 15/9/10 
f 19/13/11 21/15/11 20/14/11 
f 15/9/9 22/16/9 16/10/9 
f 23/17/12 24/18/12 21/15/12 
f 23/17/12 21/15/12 19/13/12 
f 16/10/13 25/19/13 26/20/13 
f 16/10/13 22/16/13 25/19/13 
f 26/20/14 24/21/14 23/22/14 
f 26/20/14 25/19/14 24/21/14 
# 0 polygons - 12 triangles

