# 3ds Max Wavefront OBJ Exporter v0.97b - (c)2007 guruware
# File Created: 17.10.2018 19:59:10

mtllib nesspoly.mtl

#
# object Nemu_60999451_0_044
#

v  -0.0028 0.1270 -0.0471
v  -0.1023 0.0736 -0.0126
v  -0.0750 0.1260 -0.0084
v  -0.0060 0.0674 -0.0597
v  -0.0133 0.1291 0.0482
v  -0.0196 0.0674 0.0565
v  -0.0405 0.1501 0.0021
# 7 vertices

vn -0.4538 0.3030 -0.8380
vn -0.4188 0.2081 -0.8839
vn -0.6246 0.1670 0.7629
vn -0.6551 0.2846 0.6999
vn 0.9910 -0.0754 0.1106
vn -0.3300 0.7324 -0.5956
vn 0.5618 0.8262 0.0436
vn 0.9896 -0.0849 0.1159
vn -0.5731 0.5636 0.5949
# 9 vertex normals

vt 0.2946 0.6387 0.0000
vt 0.3187 0.5898 0.0000
vt 0.1312 0.5738 0.0000
vt 0.0920 0.6224 0.0000
vt 1.5747 0.4952 0.0000
vt 0.3758 1.0513 0.0000
vt 0.8309 1.2265 0.0000
vt 1.5747 0.4872 0.0000
vt 0.1848 0.8309 0.0000
# 9 texture coords

g Nemu_60999451_0_044
usemtl Material__25
s 1
f 1/1/1 2/1/1 3/1/1 
f 2/2/2 1/2/2 4/2/2 
f 5/3/3 2/3/3 6/3/3 
f 2/4/4 5/4/4 3/4/4 
f 5/5/5 4/5/5 1/5/5 
f 3/6/6 7/6/6 1/6/6 
f 1/7/7 7/7/7 5/7/7 
f 4/8/8 5/8/8 6/8/8 
f 5/9/9 7/9/9 3/9/9 
# 0 polygons - 9 triangles

#
# object Nemu_60999451_0_043
#

v  -0.1401 0.0000 0.0455
v  -0.0087 0.0302 -0.0409
v  -0.0066 0.0010 -0.0454
v  -0.0988 0.0386 0.0210
v  -0.0725 0.0676 0.0838
v  -0.0111 0.0388 0.0563
v  -0.0126 -0.0004 0.0915
v  -0.0916 0.0012 0.1189
# 8 vertices

vn -0.5609 0.0870 -0.8233
vn -0.5597 0.0765 -0.8252
vn -0.6949 0.7180 -0.0406
vn 0.0331 0.9956 -0.0874
vn 0.9968 0.0663 0.0443
vn 0.1893 0.8589 -0.4758
vn 0.0006 -1.0000 -0.0097
vn 0.9996 -0.0153 0.0256
vn 0.5425 0.5503 0.6347
vn -0.7412 0.4678 0.4815
vn -0.0116 -0.9996 0.0238
vn 0.3108 0.3727 0.8743
# 12 vertex normals

vt 0.2276 0.5364 0.0000
vt 0.6096 0.1707 0.0000
vt 0.4348 0.0081 0.0000
vt 0.3373 0.4714 0.0000
vt 0.2276 0.0894 0.0000
vt 0.5446 1.0322 0.0000
vt 0.6827 0.1788 0.0000
vt 0.8737 0.2763 0.0000
vt 0.5608 1.0282 0.0000
vt 0.8616 0.2723 0.0000
# 10 texture coords

g Nemu_60999451_0_043
usemtl Material__25
s 1
f 8/10/10 9/10/10 10/10/10 
f 8/10/11 11/10/11 9/10/11 
f 8/11/12 12/11/12 11/11/12 
f 9/12/13 11/12/13 13/12/13 
f 9/13/14 14/13/14 10/13/14 
f 11/14/15 12/14/15 13/14/15 
f 14/15/16 8/15/16 10/15/16 
f 9/13/17 13/13/17 14/13/17 
f 12/16/18 14/16/18 13/16/18 
f 12/17/19 8/17/19 15/17/19 
f 8/18/20 14/18/20 15/18/20 
f 14/19/21 12/19/21 15/19/21 
# 0 polygons - 12 triangles

#
# object Nemu_60999451_0_042
#

v  -0.0511 0.0848 -0.0024
v  -0.0438 0.0140 0.0127
v  -0.0379 0.0829 0.0141
v  -0.0217 0.0833 -0.0129
v  -0.0539 0.0147 -0.0031
v  -0.0343 0.0141 -0.0072
# 6 vertices

vn -0.7763 0.0547 0.6279
vn 0.0725 0.9955 0.0608
vn -0.8420 0.0288 0.5387
vn 0.8529 -0.1135 0.5097
vn 0.8996 -0.0859 0.4282
vn -0.2102 -0.0419 -0.9768
vn -0.3351 0.0217 -0.9419
# 7 vertex normals

vt 0.5161 0.2173 0.0000
vt -0.5626 0.5005 0.0000
vt 0.5265 0.3129 0.0000
vt 0.5317 0.1676 0.0000
vt 0.5213 0.2474 0.0000
vt 0.5317 1.5949 0.0000
vt 0.5161 1.5352 0.0000
# 7 texture coords

g Nemu_60999451_0_042
usemtl Material__25
s 1
f 16/20/22 17/20/22 18/20/22 
f 16/21/23 18/21/23 19/21/23 
f 17/22/24 16/22/24 20/22/24 
f 18/23/25 21/23/25 19/23/25 
f 21/24/26 18/24/26 17/24/26 
f 20/25/27 19/25/27 21/25/27 
f 19/26/28 20/26/28 16/26/28 
# 0 polygons - 7 triangles

#
# object Nemu_60999451_0_041
#

v  0.0059 0.0674 -0.0597
v  0.0133 0.1291 0.0482
v  0.0038 0.1270 -0.0471
v  0.1023 0.0736 -0.0126
v  0.0750 0.1249 -0.0084
v  0.0206 0.0663 0.0565
v  0.0405 0.1501 0.0021
# 7 vertices

vn -0.9935 -0.0558 0.0995
vn 0.4198 0.2011 -0.8851
vn 0.4611 0.3125 -0.8305
vn -0.9874 -0.0987 0.1236
vn 0.3459 0.7242 -0.5966
vn -0.5680 0.8222 0.0381
vn 0.6565 0.2916 0.6957
vn 0.6269 0.1744 0.7594
vn 0.5826 0.5530 0.5956
# 9 vertex normals

vt -0.5425 0.4952 0.0000
vt 0.7135 0.5898 0.0000
vt 0.7376 0.6387 0.0000
vt -0.5425 0.4872 0.0000
vt 0.6565 1.0513 0.0000
vt 0.2014 1.2265 0.0000
vt 0.9403 0.6224 0.0000
vt 0.9011 0.5738 0.0000
vt 0.8475 0.8309 0.0000
# 9 texture coords

g Nemu_60999451_0_041
usemtl Material__25
s 1
f 22/27/29 23/27/29 24/27/29 
f 24/28/30 25/28/30 22/28/30 
f 25/29/31 24/29/31 26/29/31 
f 23/30/32 22/30/32 27/30/32 
f 24/31/33 28/31/33 26/31/33 
f 28/32/34 24/32/34 23/32/34 
f 23/33/35 25/33/35 26/33/35 
f 25/34/36 23/34/36 27/34/36 
f 28/35/37 23/35/37 26/35/37 
# 0 polygons - 9 triangles

#
# object Nemu_60999451_0_040
#

v  0.0105 0.0000 0.0912
v  0.0064 0.0383 0.0596
v  0.0075 0.0299 -0.0400
v  0.0062 -0.0002 -0.0451
v  0.0675 0.0671 0.0868
v  0.0955 0.0383 0.0258
v  0.1384 0.0001 0.0448
v  0.0899 0.0010 0.1182
# 8 vertices

vn -0.9943 -0.1064 -0.0015
vn -0.9988 0.0366 0.0312
vn -0.5374 0.5017 0.6779
vn -0.0325 0.9959 -0.0840
vn 0.5655 0.2448 -0.7876
vn 0.5582 0.1161 -0.8215
vn 0.0011 -1.0000 0.0013
vn -0.1858 0.8531 -0.4875
vn 0.7355 0.4781 0.4801
vn 0.6737 0.7380 -0.0386
vn 0.0065 -0.9998 0.0163
vn -0.3084 0.3211 0.8954
# 12 vertex normals

vt 0.3414 0.5161 0.0000
vt 0.7234 0.2195 0.0000
vt 0.4348 0.0041 0.0000
vt 0.2235 0.4714 0.0000
vt 0.5486 1.0322 0.0000
vt 0.2154 0.0935 0.0000
vt 0.8656 0.2601 0.0000
vt 0.5933 0.1463 0.0000
vt 0.5608 1.0322 0.0000
vt 0.8778 0.3089 0.0000
# 10 texture coords

g Nemu_60999451_0_040
usemtl Material__25
s 1
f 29/36/38 30/36/38 31/36/38 
f 29/36/39 31/36/39 32/36/39 
f 29/37/40 33/37/40 30/37/40 
f 34/38/41 31/38/41 30/38/41 
f 31/39/42 34/39/42 35/39/42 
f 31/39/43 35/39/43 32/39/43 
f 35/40/44 29/40/44 32/40/44 
f 30/41/45 33/41/45 34/41/45 
f 35/42/46 33/42/46 36/42/46 
f 33/43/47 35/43/47 34/43/47 
f 29/44/48 35/44/48 36/44/48 
f 33/45/49 29/45/49 36/45/49 
# 0 polygons - 12 triangles

#
# object Nemu_60999451_0_039
#

v  0.0345 0.0139 -0.0076
v  0.0369 0.0831 0.0132
v  0.0219 0.0831 -0.0137
v  0.0505 0.0846 -0.0064
v  0.0438 0.0143 0.0135
v  0.0540 0.0146 -0.0033
# 6 vertices

vn -0.8674 -0.1150 0.4841
vn -0.0619 0.9975 0.0349
vn -0.9102 -0.0896 0.4043
vn 0.8152 0.0836 0.5731
vn 0.8511 0.0655 0.5210
vn 0.2139 -0.0479 -0.9757
vn 0.2497 -0.0299 -0.9679
# 7 vertex normals

vt 0.5344 0.1676 0.0000
vt -0.5626 0.4952 0.0000
vt 0.5239 0.2545 0.0000
vt 0.5187 0.2818 0.0000
vt 0.5213 0.3129 0.0000
vt 0.5265 1.5949 0.0000
vt 0.5213 1.5747 0.0000
# 7 texture coords

g Nemu_60999451_0_039
usemtl Material__25
s 1
f 37/46/50 38/46/50 39/46/50 
f 40/47/51 39/47/51 38/47/51 
f 38/48/52 37/48/52 41/48/52 
f 41/49/53 40/49/53 38/49/53 
f 40/50/54 41/50/54 42/50/54 
f 39/51/55 42/51/55 37/51/55 
f 42/52/56 39/52/56 40/52/56 
# 0 polygons - 7 triangles

#
# object Nemu_60999451_0_038
#

v  -0.0926 0.1568 -0.0004
v  -0.1132 0.1477 0.0021
v  -0.0933 0.1441 0.0156
v  -0.0786 0.1408 -0.0004
v  -0.0947 0.1448 -0.0148
v  -0.0662 0.1138 0.0459
v  -0.1400 0.1183 0.0026
v  -0.1098 0.0899 0.0173
v  -0.0892 0.1097 -0.0295
# 9 vertices

vn -0.2637 0.7605 0.5934
vn 1.0000 0.0000 -0.0000
vn 0.6288 0.5521 -0.5475
vn 0.6579 0.5751 0.4861
vn -0.3897 0.7370 -0.5522
vn -0.4406 0.4164 0.7953
vn -0.4750 0.3718 0.7976
vn -0.5074 -0.0995 0.8560
vn 0.5238 0.7893 0.3203
vn 0.6696 0.3724 -0.6426
vn 0.9559 -0.0544 -0.2885
vn 0.5357 -0.8363 -0.1172
vn -0.6433 0.2054 -0.7375
vn -0.4441 0.3887 -0.8073
vn -0.4462 -0.7367 -0.5081
# 15 vertex normals

vt 0.2520 0.1829 0.0000
vt 0.1179 0.8128 0.0000
vt 0.1016 0.2682 0.0000
vt 0.2845 0.8006 0.0000
vt 0.4430 0.0935 0.0000
vt 0.6909 0.0650 0.0000
vt 0.0244 0.3617 0.0000
vt 0.1747 0.8534 0.0000
vt 0.2967 0.6827 0.0000
vt 0.7640 0.5933 0.0000
vt 0.4836 0.9144 0.0000
vt 0.9672 0.7721 0.0000
# 12 texture coords

g Nemu_60999451_0_038
usemtl Material__25
s 1
f 43/53/57 44/53/57 45/53/57 
f 43/53/58 43/53/58 44/53/58 
f 43/54/59 46/54/59 47/54/59 
f 43/54/58 47/54/58 43/54/58 
f 43/55/60 45/55/60 46/55/60 
f 43/56/61 47/56/61 44/56/61 
f 48/57/62 44/57/62 49/57/62 
f 48/57/63 45/57/63 44/57/63 
f 49/58/64 50/58/64 48/58/64 
f 48/59/65 46/59/65 45/59/65 
f 46/60/66 51/60/66 47/60/66 
f 46/61/67 48/61/67 51/61/67 
f 48/62/68 50/62/68 51/62/68 
f 51/63/69 44/63/69 47/63/69 
f 51/63/70 49/63/70 44/63/70 
f 51/64/71 50/64/71 49/64/71 
# 0 polygons - 16 triangles

#
# object Nemu_60999451_0_037
#

v  -0.1514 0.1578 -0.0261
v  -0.1195 0.1428 0.0449
v  -0.0801 0.1825 0.0258
v  -0.0933 0.1957 -0.0139
v  -0.0761 0.1323 -0.0410
v  -0.0576 0.1750 -0.0213
# 6 vertices

vn -0.5461 0.7357 0.4007
vn -0.5551 0.7166 0.4223
vn 0.7348 -0.5205 0.4348
vn 0.7355 -0.5200 0.4344
vn -0.0542 0.3797 -0.9235
vn 0.0447 0.4025 -0.9143
vn -0.3296 -0.9427 -0.0510
# 7 vertex normals

vt 0.3251 0.2804 0.0000
vt 0.3983 0.2479 0.0000
vt 0.5324 0.3251 0.0000
vt 0.5649 0.3211 0.0000
vt 0.4389 1.0160 0.0000
vt 0.3536 0.9875 0.0000
vt 1.0282 0.5446 0.0000
# 7 texture coords

g Nemu_60999451_0_037
usemtl Material__25
s 1
f 52/65/72 53/65/72 54/66/72 
f 52/65/73 54/66/73 55/66/73 
f 54/67/74 53/68/74 56/68/74 
f 54/67/75 56/68/75 57/67/75 
f 55/69/76 56/70/76 52/70/76 
f 55/69/77 57/69/77 56/70/77 
f 52/71/78 56/71/78 53/71/78 
# 0 polygons - 7 triangles

#
# object Nemu_60999451_0_036
#

v  -0.0933 0.1957 -0.0139
v  -0.0536 0.2146 0.0146
v  -0.0637 0.2284 -0.0103
v  -0.0801 0.1825 0.0258
v  -0.0456 0.2019 -0.0161
v  -0.0576 0.1750 -0.0213
v  -0.0427 0.2241 -0.0008
# 7 vertices

vn -0.6479 0.5229 0.5539
vn -0.6202 0.6594 0.4250
vn 0.7695 -0.4950 0.4036
vn 0.7841 -0.4336 0.4440
vn -0.0271 0.1989 -0.9796
vn -0.0905 0.1912 -0.9774
vn 0.4397 0.4696 -0.7656
vn -0.0483 0.8644 0.5004
vn 0.8525 -0.3670 0.3723
# 9 vertex normals

vt 0.3983 0.2479 0.0000
vt 0.5324 0.3251 0.0000
vt 0.4389 1.0160 0.0000
vt 0.1991 0.9185 0.0000
vt 0.1422 0.2479 0.0000
vt 0.4795 0.3414 0.0000
# 6 texture coords

g Nemu_60999451_0_036
usemtl Material__25
s 1
f 58/72/79 59/72/79 60/72/79 
f 58/72/80 61/72/80 59/72/80 
f 61/73/81 62/73/81 59/73/81 
f 61/73/82 63/73/82 62/73/82 
f 60/74/83 62/74/83 63/74/83 
f 60/74/84 63/74/84 58/74/84 
f 60/75/85 64/75/85 62/75/85 
f 59/76/86 64/76/86 60/76/86 
f 62/77/87 64/77/87 59/77/87 
# 0 polygons - 9 triangles

#
# object Nemu_60999451_0_035
#

v  0.0691 0.2617 0.0000
v  0.1413 0.3465 -0.0188
v  0.0827 0.3203 0.0209
v  -0.1413 0.3465 -0.0188
v  -0.0691 0.2617 0.0000
v  -0.0827 0.3203 0.0209
# 6 vertices

vn 0.6298 -0.3868 0.6736
vn -0.6298 -0.3868 0.6736
# 2 vertex normals

vt 0.8372 0.3211 0.0000
vt 0.1951 0.3211 0.0000
# 2 texture coords

g Nemu_60999451_0_035
usemtl Material__25
s 1
f 65/78/88 66/78/88 67/78/88 
f 68/79/89 69/79/89 70/79/89 
# 0 polygons - 2 triangles

#
# object Nemu_60999451_0_034
#

v  -0.0524 0.2376 0.0052
v  -0.0000 0.2376 -0.0576
v  -0.0000 0.2251 0.0722
v  -0.0712 0.2649 0.0052
v  -0.0021 0.2889 -0.0712
v  -0.0890 0.3193 0.0052
v  -0.0639 0.2617 0.0827
v  -0.0555 0.2984 0.0691
v  -0.0806 0.3706 0.0052
v  -0.0000 0.3329 -0.0942
v  0.0712 0.2649 0.0052
v  -0.0701 0.3476 0.0680
v  0.0523 0.2376 0.0052
v  0.0806 0.3706 0.0052
v  0.0890 0.3193 0.0052
v  -0.0000 0.2617 0.1591
v  0.0639 0.2617 0.0827
v  0.0555 0.2984 0.0691
v  -0.0000 0.3518 0.0890
v  -0.0011 0.4439 -0.1036
v  -0.0000 0.4104 0.0482
v  -0.0000 0.2984 0.0984
v  0.0701 0.3476 0.0680
# 23 vertices

vn -0.1148 -0.9888 -0.0957
vn -0.6783 -0.4696 -0.5652
vn -0.6866 -0.2245 -0.6915
vn -0.6909 -0.2116 -0.6913
vn -0.9610 0.2573 0.1013
vn -0.8210 -0.5684 0.0546
vn -0.7479 0.1221 -0.6525
vn -0.6866 -0.3114 -0.6570
vn -0.8835 -0.2888 0.3688
vn 0.6868 -0.1601 -0.7090
vn -0.4628 -0.8637 0.1996
vn -0.8880 -0.2564 0.3818
vn 0.6783 -0.4696 -0.5652
vn 0.1148 -0.9888 -0.0957
vn 0.7479 0.1221 -0.6525
vn 0.6664 -0.3706 -0.6470
vn -0.4216 -0.8355 0.3523
vn -0.9632 0.1572 0.2182
vn -0.7091 0.3822 0.5925
vn 0.4628 -0.8637 0.1996
vn 0.9610 0.2573 0.1013
vn 0.8210 -0.5684 0.0546
vn -0.2820 -0.0636 0.9573
vn -0.5134 0.8372 0.1883
vn -0.5612 0.7425 0.3658
vn -0.4615 0.1542 0.8736
vn -0.2633 0.8260 0.4984
vn 0.4216 -0.8355 0.3523
vn 0.8880 -0.2564 0.3818
vn 0.8835 -0.2888 0.3688
vn 0.5113 0.8399 0.1818
vn 0.2633 0.8260 0.4984
vn 0.4615 0.1542 0.8736
vn 0.7091 0.3822 0.5925
vn 0.9632 0.1572 0.2182
vn 0.2820 -0.0636 0.9573
vn 0.2688 0.5505 0.7904
vn 0.5612 0.7425 0.3658
vn 0.6690 -0.2187 -0.7104
vn -0.7864 -0.0596 -0.6148
vn -0.2688 0.5505 0.7904
vn 0.7844 -0.0451 -0.6187
# 42 vertex normals

vt 0.4592 0.0041 0.0000
vt 0.1707 0.2682 0.0000
vt 0.1666 0.4064 0.0000
vt 0.1626 0.4105 0.0000
vt 0.0041 0.4430 0.0000
vt 0.1341 0.4714 0.0000
vt 0.0569 0.3779 0.0000
vt 0.8697 0.4308 0.0000
vt 0.2804 0.0650 0.0000
vt 0.8616 0.2682 0.0000
vt 0.5730 0.0041 0.0000
vt 0.8941 0.4592 0.0000
vt 0.3007 0.0813 0.0000
vt 0.0163 0.5974 0.0000
vt 0.1544 0.7193 0.0000
vt 0.7518 0.0650 0.0000
vt 1.0282 0.4430 0.0000
vt 0.3211 0.5364 0.0000
vt 0.2520 0.9510 0.0000
vt 0.2276 0.9022 0.0000
vt 0.3779 0.9428 0.0000
vt 0.7315 0.0813 0.0000
vt 0.9753 0.3779 0.0000
vt 0.7803 0.9510 0.0000
vt 0.6543 0.9428 0.0000
vt 0.7112 0.5364 0.0000
vt 0.8778 0.7193 0.0000
vt 1.0160 0.5974 0.0000
vt 0.6543 0.8006 0.0000
vt 0.8047 0.9022 0.0000
vt 0.8616 0.4064 0.0000
vt 0.1097 0.4917 0.0000
vt 0.3779 0.8006 0.0000
vt 0.9225 0.4958 0.0000
# 34 texture coords

g Nemu_60999451_0_034
usemtl Material__25
s 1
f 71/80/90 72/80/90 73/80/90 
f 74/81/91 72/81/91 71/81/91 
f 75/82/92 74/82/92 76/82/92 
f 72/83/93 74/83/93 75/83/93 
f 77/84/94 78/84/94 74/84/94 
f 77/84/95 74/84/95 71/84/95 
f 76/85/96 79/85/96 80/85/96 
f 76/85/97 80/85/97 75/85/97 
f 78/86/98 76/86/98 74/86/98 
f 81/87/99 72/87/99 75/87/99 
f 71/88/100 73/88/100 77/88/100 
f 78/86/101 82/86/101 76/86/101 
f 83/89/102 72/89/102 81/89/102 
f 72/90/103 83/90/103 73/90/103 
f 80/91/104 84/91/104 85/91/104 
f 80/91/105 85/91/105 75/91/105 
f 77/92/106 73/92/106 86/92/106 
f 82/93/107 79/93/107 76/93/107 
f 86/94/108 78/94/108 77/94/108 
f 87/95/109 73/95/109 83/95/109 
f 81/96/110 88/96/110 87/96/110 
f 81/96/111 87/96/111 83/96/111 
f 78/97/112 89/97/112 82/97/112 
f 90/98/113 79/98/113 91/98/113 
f 82/99/114 91/99/114 79/99/114 
f 78/97/115 92/97/115 89/97/115 
f 78/100/116 86/100/116 92/100/116 
f 86/101/117 73/101/117 87/101/117 
f 85/102/118 93/102/118 88/102/118 
f 85/102/119 88/102/119 81/102/119 
f 84/103/120 90/103/120 91/103/120 
f 86/104/121 88/104/121 92/104/121 
f 88/105/122 89/105/122 92/105/122 
f 88/106/123 86/106/123 87/106/123 
f 84/107/124 93/107/124 85/107/124 
f 88/105/125 93/105/125 89/105/125 
f 93/108/126 91/108/126 89/108/126 
f 93/109/127 84/109/127 91/109/127 
f 75/110/128 85/110/128 81/110/128 
f 80/111/129 79/111/129 90/111/129 
f 91/112/130 82/112/130 89/112/130 
f 84/113/131 80/113/131 90/113/131 
# 0 polygons - 42 triangles

#
# object Nemu_60999451_0_033
#

v  0.0658 0.1141 0.0458
v  0.0785 0.1408 -0.0005
v  0.0892 0.1095 -0.0294
v  0.0931 0.1441 0.0156
v  0.1398 0.1182 0.0029
v  0.0925 0.1568 -0.0005
v  0.0946 0.1447 -0.0149
v  0.1130 0.1477 0.0021
v  0.1095 0.0900 0.0176
# 9 vertices

vn -0.9546 -0.0554 -0.2926
vn -0.5247 0.7915 0.3134
vn 0.4411 0.4062 0.8003
vn -0.6598 0.5784 0.4798
vn -0.6259 0.5495 -0.5535
vn 0.4503 0.4322 0.7813
vn -0.5357 -0.8365 -0.1149
vn 1.0000 0.0000 -0.0000
vn 0.2615 0.7637 0.5902
vn 0.3927 0.7336 -0.5547
vn 0.5033 -0.0950 0.8589
vn -0.6664 0.3692 -0.6478
vn 0.4849 0.2658 -0.8332
vn 0.5512 0.4811 -0.6817
vn 0.4480 -0.7399 -0.5019
# 15 vertex normals

vt 0.2967 0.6827 0.0000
vt 0.0244 0.3617 0.0000
vt 0.4430 0.0935 0.0000
vt 0.1016 0.2682 0.0000
vt 0.1179 0.8128 0.0000
vt 0.7640 0.5933 0.0000
vt 0.2520 0.1829 0.0000
vt 0.2845 0.8006 0.0000
vt 0.6909 0.0650 0.0000
vt 0.1747 0.8534 0.0000
vt 0.4836 0.9144 0.0000
vt 0.9672 0.7721 0.0000
# 12 texture coords

g Nemu_60999451_0_033
usemtl Material__25
s 1
f 94/114/132 95/114/132 96/114/132 
f 95/115/133 94/115/133 97/115/133 
f 98/116/134 97/116/134 94/116/134 
f 97/117/135 99/117/135 95/117/135 
f 100/118/136 95/118/136 99/118/136 
f 98/116/137 101/116/137 97/116/137 
f 102/119/138 94/119/138 96/119/138 
f 100/118/139 99/118/139 99/118/139 
f 101/120/139 99/120/139 99/120/139 
f 101/120/140 99/120/140 97/120/140 
f 100/121/141 99/121/141 101/121/141 
f 102/122/142 98/122/142 94/122/142 
f 96/123/143 95/123/143 100/123/143 
f 100/124/144 98/124/144 96/124/144 
f 100/124/145 101/124/145 98/124/145 
f 102/125/146 96/125/146 98/125/146 
# 0 polygons - 16 triangles

#
# object Nemu_60999451_0_032
#

v  0.0762 0.1321 -0.0410
v  0.1192 0.1430 0.0449
v  0.0801 0.1823 0.0255
v  0.0574 0.1752 -0.0226
v  0.1514 0.1576 -0.0259
v  0.0932 0.1957 -0.0142
# 6 vertices

vn -0.7367 -0.5184 0.4342
vn -0.7471 -0.5089 0.4276
vn 0.5431 0.7391 0.3986
vn 0.5545 0.7148 0.4261
vn 0.0442 0.4088 -0.9115
vn 0.0295 0.3358 -0.9415
vn 0.3292 -0.9432 -0.0441
# 7 vertex normals

vt 0.5649 0.3211 0.0000
vt 0.5324 0.3251 0.0000
vt 0.3983 0.2438 0.0000
vt 0.3251 0.2804 0.0000
vt 0.4348 1.0160 0.0000
vt 0.3536 0.9875 0.0000
vt 1.0282 0.5446 0.0000
# 7 texture coords

g Nemu_60999451_0_032
usemtl Material__25
s 1
f 103/126/147 104/126/147 105/127/147 
f 103/126/148 105/127/148 106/127/148 
f 105/128/149 104/129/149 107/129/149 
f 105/128/150 107/129/150 108/128/150 
f 106/130/151 107/131/151 103/131/151 
f 106/130/152 108/130/152 107/131/152 
f 103/132/153 107/132/153 104/132/153 
# 0 polygons - 7 triangles

#
# object Nemu_60999451_0_031
#

v  0.0456 0.2020 -0.0162
v  0.0801 0.1823 0.0255
v  0.0536 0.2145 0.0146
v  0.0574 0.1752 -0.0226
v  0.0932 0.1957 -0.0142
v  0.0637 0.2285 -0.0102
v  0.0428 0.2242 0.0003
# 7 vertices

vn -0.7691 -0.4969 0.4018
vn -0.7810 -0.4483 0.4347
vn 0.6502 0.5176 0.5562
vn 0.6223 0.6552 0.4284
vn 0.0658 0.1791 -0.9816
vn 0.0761 0.2631 -0.9618
vn -0.4695 0.4897 -0.7347
vn -0.8422 -0.3860 0.3763
vn 0.0830 0.8528 0.5157
# 9 vertex normals

vt 0.5324 0.3251 0.0000
vt 0.3983 0.2438 0.0000
vt 0.4348 1.0160 0.0000
vt 0.1951 0.9144 0.0000
vt 0.4795 0.3414 0.0000
vt 0.1463 0.2438 0.0000
# 6 texture coords

g Nemu_60999451_0_031
usemtl Material__25
s 1
f 109/133/154 110/133/154 111/133/154 
f 109/133/155 112/133/155 110/133/155 
f 111/134/156 113/134/156 114/134/156 
f 111/134/157 110/134/157 113/134/157 
f 109/135/158 114/135/158 113/135/158 
f 109/135/159 113/135/159 112/135/159 
f 115/136/160 114/136/160 109/136/160 
f 115/137/161 109/137/161 111/137/161 
f 115/138/162 111/138/162 114/138/162 
# 0 polygons - 9 triangles

#
# object Nemu_60999451_0_030
#

v  -0.0000 0.1560 -0.0607
v  -0.0000 0.1026 -0.0440
v  -0.0565 0.1026 0.0000
v  -0.0000 0.0796 0.0000
v  -0.0000 0.1026 0.0565
v  -0.0775 0.1570 0.0000
v  -0.0461 0.2293 0.0000
v  -0.0000 0.2293 -0.0471
v  -0.0000 0.1570 0.0754
v  0.0565 0.1026 0.0000
v  0.0775 0.1570 0.0000
v  -0.0000 0.2523 0.0000
v  0.0461 0.2293 0.0000
v  -0.0000 0.2293 0.0461
# 14 vertices

vn -0.5959 -0.2404 -0.7662
vn -0.3395 -0.8332 -0.4365
vn -0.3530 -0.8665 0.3530
vn -0.6021 -0.2316 -0.7641
vn -0.7091 0.1288 -0.6933
vn -0.5938 0.2582 -0.7621
vn -0.6868 -0.2377 0.6868
vn -0.6735 -0.2591 0.6923
vn -0.6674 0.2902 0.6859
vn 0.3530 -0.8665 0.3530
vn 0.6735 -0.2591 0.6923
vn 0.6868 -0.2377 0.6868
vn -0.4098 0.8195 -0.4006
vn 0.6828 0.2969 -0.6676
vn -0.6797 0.2758 0.6797
vn 0.4098 0.8195 -0.4006
vn 0.6092 0.1448 -0.7797
vn 0.6674 0.2902 0.6859
vn -0.4082 0.8165 0.4082
vn 0.4082 0.8165 0.4082
vn 0.6797 0.2758 0.6797
vn 0.6010 -0.2393 -0.7626
vn 0.3395 -0.8332 -0.4365
vn 0.5975 -0.2298 -0.7682
# 24 vertex normals

vt 0.2113 0.3942 0.0000
vt 0.3454 0.0853 0.0000
vt 0.3373 0.0650 0.0000
vt 0.1869 0.6218 0.0000
vt 0.1666 0.3861 0.0000
vt 0.1707 0.6665 0.0000
vt 0.6949 0.0650 0.0000
vt 0.8656 0.3861 0.0000
vt 0.3129 0.9469 0.0000
vt 0.8453 0.6218 0.0000
vt 0.1666 0.6584 0.0000
vt 0.7193 0.9469 0.0000
vt 0.8656 0.6624 0.0000
vt 0.3129 0.9428 0.0000
vt 0.7193 0.9428 0.0000
vt 0.8209 0.3942 0.0000
vt 0.6868 0.0853 0.0000
# 17 texture coords

g Nemu_60999451_0_030
usemtl Material__25
s 1
f 116/139/163 117/139/163 118/139/163 
f 119/140/164 118/140/164 117/140/164 
f 119/141/165 120/141/165 118/141/165 
f 116/139/166 118/139/166 121/139/166 
f 122/142/167 123/142/167 116/142/167 
f 122/142/168 116/142/168 121/142/168 
f 118/143/169 120/143/169 124/143/169 
f 118/143/170 124/143/170 121/143/170 
f 124/144/171 122/144/171 121/144/171 
f 119/145/172 125/145/172 120/145/172 
f 125/146/173 126/146/173 124/146/173 
f 125/146/174 124/146/174 120/146/174 
f 127/147/175 123/147/175 122/147/175 
f 123/148/176 128/148/176 126/148/176 
f 122/149/177 124/149/177 129/149/177 
f 127/150/178 128/150/178 123/150/178 
f 123/148/179 126/148/179 116/148/179 
f 124/151/180 126/151/180 128/151/180 
f 127/152/181 122/152/181 129/152/181 
f 127/153/182 129/153/182 128/153/182 
f 124/151/183 128/151/183 129/151/183 
f 126/154/184 117/154/184 116/154/184 
f 119/155/185 117/155/185 125/155/185 
f 126/154/186 125/154/186 117/154/186 
# 0 polygons - 24 triangles

