# 3ds Max Wavefront OBJ Exporter v0.97b - (c)2007 guruware
# File Created: 27.10.2016 13:25:03

mtllib gun.mtl

#
# object Nemu_2343EBA0_0_064
#

v  0.1946 0.1190 0.0000
v  -0.0764 0.1580 0.0330
v  -0.0554 0.0850 0.0000
v  -0.0764 0.1580 -0.0330
v  0.1946 0.1580 0.0180
v  0.1946 0.1580 -0.0180
# 6 vertices

vn 0.0542 -0.3983 0.9156
vn -0.9610 -0.2765 -0.0000
vn 0.0542 -0.3983 -0.9156
vn 0.0502 -0.4185 0.9068
vn 0.0000 1.0000 0.0000
vn 0.0502 -0.4185 -0.9068
# 6 vertex normals

vt 1.0000 0.4570 0.0000
vt 0.0000 0.9961 0.0000
vt 0.0781 0.0000 0.0000
vt 1.0000 1.0000 0.0000
# 4 texture coords

g Nemu_2343EBA0_0_064
usemtl Material__440
s 1
f 1/1/1 2/2/1 3/3/1 
f 3/3/2 2/2/2 4/2/2 
f 4/2/3 1/1/3 3/3/3 
f 1/1/4 5/4/4 2/2/4 
f 2/2/5 6/4/5 4/2/5 
f 4/2/6 6/4/6 1/1/6 
f 2/2/5 5/4/5 6/4/5 
# 0 polygons - 7 triangles

#
# object Nemu_208C311C_0_063
#

v  -0.0774 0.0230 0.0180
v  -0.0384 0.1580 0.0000
v  -0.0774 0.0230 -0.0180
v  -0.0294 -0.0010 0.0000
# 4 vertices

vn -0.9607 0.2775 0.0000
vn -0.4472 -0.8944 -0.0000
vn 0.3600 0.0204 -0.9327
vn 0.3600 0.0204 0.9327
# 4 vertex normals

vt 1.0983 0.5314 0.0000
vt 1.1315 9.1200 0.0000
vt 0.3307 0.0000 0.0000
# 3 texture coords

g Nemu_208C311C_0_063
usemtl Material__441
s 1
f 7/5/7 8/6/7 9/5/7 
f 10/7/8 7/5/8 9/5/8 
f 9/5/9 8/6/9 10/7/9 
f 8/6/10 7/5/10 10/7/10 
# 0 polygons - 4 triangles

#
# object Nemu_6262EE6D_0_062
#

v  0.0746 0.1580 0.0000
v  0.0746 0.2010 0.0000
v  -0.0924 0.1580 0.0000
v  -0.0914 0.2010 0.0000
# 4 vertices

vn 0.0000 -0.0000 1.0000
# 1 vertex normals

vt 0.9980 9.9844 0.0000
vt 0.0000 10.0000 0.0000
vt 1.0000 0.0000 0.0000
vt 0.0000 0.0156 0.0000
# 4 texture coords

g Nemu_6262EE6D_0_062
usemtl Material__439
s 1
f 11/8/11 12/9/11 13/10/11 
f 13/10/11 12/9/11 14/11/11 
# 0 polygons - 2 triangles

