# 3ds Max Wavefront OBJ Exporter v0.97b - (c)2007 guruware
# File Created: 27.04.2019 22:00:06

mtllib kirbypuff.mtl

#
# object legr_0_0_010
#

v  -0.0751 0.0108 -0.0896
v  -0.1153 0.0539 -0.0306
v  -0.0727 0.0525 -0.0786
v  -0.0401 0.0314 -0.0981
v  -0.0572 0.0872 -0.0073
v  -0.0141 0.0503 -0.0658
v  -0.1138 0.0100 -0.0366
v  -0.0906 -0.0042 -0.0415
v  -0.0131 0.0115 -0.0783
v  -0.1075 0.0416 0.0821
v  -0.1304 0.0206 0.0315
v  -0.0024 0.0499 0.0023
v  -0.0195 -0.0030 -0.0261
v  -0.1068 -0.0040 0.0527
v  -0.0589 0.0407 0.0907
v  -0.0046 0.0071 0.0046
v  -0.1122 0.0200 0.0912
v  -0.0169 0.0165 0.0540
v  -0.0439 -0.0027 0.0672
v  -0.0882 0.0015 0.0833
v  -0.0621 0.0181 0.1011
# 21 vertices

vn -0.7269 0.2144 -0.6524
vn -0.3695 0.2572 -0.8929
vn -0.3582 0.8677 -0.3447
vn 0.1582 0.7913 -0.5907
vn -0.8071 0.0517 -0.5882
vn 0.1322 0.8796 -0.4570
vn -0.5385 -0.7395 -0.4039
vn 0.6829 0.2398 -0.6900
vn -0.5307 0.8377 0.1286
vn -0.9715 -0.0023 -0.2370
vn 0.9826 0.0799 -0.1677
vn 0.0581 -0.9641 -0.2591
vn -0.8024 0.5847 0.1198
vn 0.0757 -0.9589 -0.2734
vn -0.6938 -0.7178 -0.0580
vn -0.5339 -0.8408 -0.0897
vn 0.4725 0.7932 0.3842
vn 0.9930 -0.0556 -0.1043
vn 0.0162 -0.9999 0.0048
vn 0.7010 -0.7049 -0.1086
vn -0.9075 0.3129 0.2802
vn -0.0596 0.9024 0.4267
vn 0.9680 -0.0347 0.2486
vn -0.7941 -0.5597 0.2369
vn 0.3962 -0.9120 0.1065
vn 0.7183 0.4752 0.5081
vn -0.4627 -0.7803 0.4207
vn 0.0191 -0.9998 0.0081
vn -0.1500 0.4306 0.8900
vn -0.1630 0.4111 0.8969
vn -0.0235 -0.9814 0.1907
vn 0.6465 -0.7030 0.2962
vn 0.7092 0.2084 0.6735
vn -0.1805 -0.5744 0.7984
vn 0.1291 -0.8132 0.5675
vn 0.6335 -0.4593 0.6227
vn 0.1518 -0.5873 -0.7950
vn 0.5709 0.8157 -0.0932
# 38 vertex normals

g legr_0_0_010
usemtl Material__1063
s 1
f 1//1 2//1 3//1 
f 4//2 1//2 3//2 
f 2//3 5//3 3//3 
f 4//4 3//4 6//4 
f 2//5 1//5 7//5 
f 6//6 3//6 5//6 
f 1//7 8//7 7//7 
f 6//8 9//8 4//8 
f 5//9 2//9 10//9 
f 2//10 7//10 11//10 
f 12//11 9//11 6//11 
f 1//12 9//12 13//12 
f 2//13 11//13 10//13 
f 1//14 13//14 8//14 
f 7//15 14//15 11//15 
f 14//16 7//16 8//16 
f 12//17 5//17 15//17 
f 9//18 12//18 16//18 
f 13//19 14//19 8//19 
f 13//20 9//20 16//20 
f 10//21 11//21 17//21 
f 10//22 15//22 5//22 
f 16//23 12//23 18//23 
f 11//24 14//24 17//24 
f 16//25 19//25 13//25 
f 15//26 18//26 12//26 
f 20//27 17//27 14//27 
f 13//28 19//28 14//28 
f 10//29 21//29 15//29 
f 10//30 17//30 21//30 
f 20//31 14//31 19//31 
f 19//32 16//32 18//32 
f 18//33 15//33 21//33 
f 17//34 20//34 21//34 
f 19//35 21//35 20//35 
f 21//36 19//36 18//36 
f 9//37 1//37 4//37 
f 12//38 6//38 5//38 
# 0 polygons - 38 triangles

#
# object legl_0_0_009
#

v  0.0141 0.0106 -0.0787
v  0.0140 0.0493 -0.0659
v  0.0406 0.0314 -0.0984
v  0.0022 0.0480 0.0021
v  0.0725 0.0532 -0.0786
v  0.0560 0.0868 -0.0069
v  0.0761 0.0117 -0.0900
v  0.0588 0.0395 0.0906
v  0.0056 0.0052 0.0041
v  0.0175 0.0145 0.0535
v  0.0208 -0.0042 -0.0267
v  0.0920 -0.0033 -0.0420
v  0.1150 0.0554 -0.0304
v  0.1079 -0.0035 0.0522
v  0.0450 -0.0041 0.0667
v  0.1147 0.0115 -0.0369
v  0.1074 0.0418 0.0821
v  0.0892 0.0012 0.0829
v  0.1309 0.0219 0.0313
v  0.1126 0.0202 0.0910
v  0.0626 0.0168 0.1008
# 21 vertices

vn -0.6881 0.2275 -0.6891
vn -0.9841 0.0543 -0.1690
vn -0.1558 0.8800 -0.4487
vn -0.5932 0.8004 -0.0865
vn -0.1340 -0.5835 -0.8010
vn -0.4950 0.7760 0.3909
vn -0.9909 -0.0820 -0.1069
vn -0.1791 0.7922 -0.5833
vn -0.9671 -0.0639 0.2462
vn -0.6809 -0.7230 -0.1169
vn -0.0308 -0.9628 -0.2685
vn 0.3639 0.2759 -0.8896
vn -0.0485 -0.9579 -0.2829
vn 0.3346 0.8806 -0.3356
vn 0.0087 -1.0000 -0.0016
vn 0.0116 -0.9999 -0.0049
vn 0.8064 0.0798 -0.5859
vn 0.5070 0.8509 0.1378
vn 0.0505 -0.9821 0.1813
vn 0.7856 0.6055 0.1271
vn 0.7219 0.2407 -0.6488
vn 0.4835 -0.7712 0.4141
vn 0.5572 -0.8247 -0.0967
vn 0.9716 0.0269 -0.2350
vn -0.7160 0.1822 0.6740
vn 0.7136 -0.6977 -0.0634
vn -0.7322 0.4502 0.5112
vn -0.6273 -0.7235 0.2881
vn 0.0337 0.8995 0.4356
vn -0.3709 -0.9236 0.0968
vn 0.5596 -0.7203 -0.4099
vn -0.6216 -0.4827 0.6169
vn -0.1075 -0.8219 0.5593
vn 0.1363 0.4260 0.8944
vn 0.1950 -0.5769 0.7932
vn 0.1499 0.4067 0.9012
vn 0.8089 -0.5397 0.2332
vn 0.8980 0.3352 0.2851
# 38 vertex normals

g legl_0_0_009
usemtl Material__1062
s 1
f 22//39 23//39 24//39 
f 22//40 25//40 23//40 
f 26//41 23//41 27//41 
f 23//42 25//42 27//42 
f 28//43 22//43 24//43 
f 27//44 25//44 29//44 
f 25//45 22//45 30//45 
f 26//46 24//46 23//46 
f 25//47 30//47 31//47 
f 22//48 32//48 30//48 
f 22//49 28//49 32//49 
f 28//50 24//50 26//50 
f 32//51 28//51 33//51 
f 27//52 34//52 26//52 
f 32//53 35//53 36//53 
f 32//54 33//54 35//54 
f 28//55 34//55 37//55 
f 34//56 27//56 38//56 
f 35//57 39//57 36//57 
f 40//58 34//58 38//58 
f 34//59 28//59 26//59 
f 41//60 39//60 35//60 
f 37//61 35//61 33//61 
f 37//62 34//62 40//62 
f 29//63 31//63 42//63 
f 35//64 37//64 40//64 
f 31//65 29//65 25//65 
f 30//66 36//66 31//66 
f 29//67 38//67 27//67 
f 36//68 30//68 32//68 
f 33//69 28//69 37//69 
f 36//70 42//70 31//70 
f 42//71 36//71 39//71 
f 42//72 38//72 29//72 
f 39//73 41//73 42//73 
f 42//74 41//74 38//74 
f 35//75 40//75 41//75 
f 40//76 38//76 41//76 
# 0 polygons - 38 triangles

#
# object armr_0_0_008
#

v  -0.0977 0.1510 -0.0001
v  -0.1245 0.1658 -0.0463
v  -0.0951 0.1502 -0.0001
v  -0.1244 0.1657 0.0462
v  -0.1581 0.1673 0.0308
v  -0.1417 0.1012 0.0262
v  -0.1152 0.0955 -0.0001
v  -0.1418 0.1013 -0.0264
v  -0.1447 0.0833 -0.0001
v  -0.1581 0.1673 -0.0308
v  -0.1768 0.1672 0.0000
v  -0.1675 0.1021 -0.0000
# 12 vertices

vn -0.2822 -0.9490 -0.1403
vn -0.2819 -0.9493 0.1392
vn -0.4157 -0.1655 0.8943
vn 0.8010 -0.2529 0.5427
vn 0.7997 -0.2519 -0.5451
vn 0.6097 -0.3792 0.6961
vn 0.6080 -0.3778 -0.6982
vn 0.3300 -0.7977 0.5047
vn -0.4179 -0.1637 -0.8936
vn -0.7118 -0.1027 0.6948
vn -0.5458 -0.6634 0.5119
vn 0.3288 -0.7968 -0.5070
vn -0.7135 -0.1013 -0.6933
vn -0.8306 -0.2397 -0.5026
vn -0.8294 -0.2407 0.5042
vn -0.5470 -0.6624 -0.5119
# 16 vertex normals

g armr_0_0_008
usemtl Material__1059
s 1
f 43//77 44//77 45//77 
f 46//78 43//78 45//78 
f 47//79 48//79 46//79 
f 43//80 46//80 49//80 
f 44//81 43//81 49//81 
f 49//82 46//82 48//82 
f 44//83 49//83 50//83 
f 49//84 48//84 51//84 
f 50//85 52//85 44//85 
f 48//86 53//86 54//86 
f 48//87 54//87 51//87 
f 50//88 49//88 51//88 
f 53//89 50//89 54//89 
f 50//90 53//90 52//90 
f 53//91 48//91 47//91 
f 54//92 50//92 51//92 
# 0 polygons - 16 triangles

#
# object armr_0_0_007
#

v  -0.1244 0.1657 0.0462
v  -0.0759 0.2057 0.0226
v  -0.1061 0.2115 0.0317
v  -0.1581 0.1673 0.0308
v  -0.0760 0.2057 -0.0227
v  -0.1047 0.2336 0.0000
v  -0.1312 0.2223 0.0136
v  -0.1062 0.2115 -0.0317
v  -0.1312 0.2224 -0.0136
v  -0.1768 0.1672 0.0000
v  -0.1581 0.1673 -0.0308
v  -0.1245 0.1658 -0.0463
v  -0.0951 0.1502 -0.0001
# 13 vertices

vn 0.3138 0.1703 0.9341
vn -0.3630 0.4096 0.8369
vn 0.6956 0.7184 -0.0001
vn 0.3136 0.7722 0.5525
vn -0.3909 0.4431 0.8068
vn 0.3123 0.7733 -0.5518
vn -0.0565 0.8215 -0.5674
vn -0.3898 0.9209 0.0013
vn -0.7396 0.5017 0.4486
vn -0.7704 0.6375 0.0015
vn -0.3649 0.4112 -0.8353
vn -0.3928 0.4446 -0.8050
vn 0.6662 -0.4667 -0.5818
vn -0.7407 0.5026 -0.4459
vn 0.6675 -0.4678 0.5793
vn 0.9452 -0.3264 -0.0014
vn -0.0552 0.8204 0.5691
vn 0.3115 0.1721 -0.9345
# 18 vertex normals

g armr_0_0_007
usemtl Material__1058
s 1
f 55//93 56//93 57//93 
f 57//94 58//94 55//94 
f 59//95 60//95 56//95 
f 60//96 57//96 56//96 
f 61//97 58//97 57//97 
f 62//98 60//98 59//98 
f 60//99 62//99 63//99 
f 60//100 63//100 61//100 
f 58//101 61//101 64//101 
f 63//102 64//102 61//102 
f 65//103 62//103 66//103 
f 62//104 65//104 63//104 
f 67//105 66//105 59//105 
f 65//106 64//106 63//106 
f 55//107 67//107 56//107 
f 56//108 67//108 59//108 
f 57//109 60//109 61//109 
f 59//110 66//110 62//110 
# 0 polygons - 18 triangles

#
# object arml_0_0_006
#

v  0.0972 0.1506 0.0000
v  0.1240 0.1652 -0.0462
v  0.1151 0.0952 0.0000
v  0.0947 0.1495 0.0000
v  0.1582 0.1662 -0.0308
v  0.1417 0.1007 -0.0263
v  0.1240 0.1652 0.0462
v  0.1445 0.0828 0.0000
v  0.1776 0.1668 0.0000
v  0.1675 0.1014 0.0000
v  0.1417 0.1007 0.0263
v  0.1582 0.1662 0.0308
# 12 vertices

vn -0.7980 -0.2585 -0.5443
vn 0.3909 -0.9182 -0.0635
vn 0.4089 -0.1649 -0.8975
vn 0.3909 -0.9182 0.0635
vn -0.7980 -0.2585 0.5443
vn -0.6084 -0.3822 -0.6955
vn -0.3355 -0.7947 -0.5059
vn 0.8234 -0.2425 -0.5130
vn 0.7117 -0.1101 -0.6938
vn -0.6084 -0.3822 0.6955
vn -0.3355 -0.7947 0.5059
vn 0.4089 -0.1649 0.8975
vn 0.7117 -0.1101 0.6938
vn 0.5413 -0.6671 -0.5119
vn 0.8234 -0.2425 0.5130
vn 0.5413 -0.6671 0.5119
# 16 vertex normals

g arml_0_0_006
usemtl Material__1061
s 1
f 68//111 69//111 70//111 
f 69//112 68//112 71//112 
f 72//113 73//113 69//113 
f 68//114 74//114 71//114 
f 74//115 68//115 70//115 
f 70//116 69//116 73//116 
f 70//117 73//117 75//117 
f 76//118 73//118 72//118 
f 73//119 76//119 77//119 
f 74//120 70//120 78//120 
f 78//121 70//121 75//121 
f 78//122 79//122 74//122 
f 76//123 78//123 77//123 
f 73//124 77//124 75//124 
f 78//125 76//125 79//125 
f 77//126 78//126 75//126 
# 0 polygons - 16 triangles

#
# object arml_0_0_005
#

v  0.1240 0.1652 -0.0462
v  0.0760 0.2055 -0.0227
v  0.1069 0.2120 -0.0317
v  0.0947 0.1495 0.0000
v  0.0754 0.2062 0.0227
v  0.1046 0.2335 0.0000
v  0.1311 0.2224 -0.0136
v  0.1062 0.2114 0.0317
v  0.1582 0.1662 -0.0308
v  0.1240 0.1652 0.0462
v  0.1311 0.2224 0.0136
v  0.1776 0.1668 0.0000
v  0.1582 0.1662 0.0308
# 13 vertices

vn -0.3107 0.1759 -0.9341
vn -0.6714 -0.4597 -0.5812
vn -0.9475 -0.3196 -0.0070
vn -0.3224 0.7728 -0.5467
vn 0.0611 0.8285 -0.5566
vn -0.6907 0.7229 -0.0199
vn -0.2951 0.7775 0.5554
vn 0.3676 0.3950 -0.8420
vn -0.6709 -0.4606 0.5812
vn 0.4083 0.4414 -0.7990
vn 0.0521 0.8212 0.5682
vn 0.3855 0.9227 0.0000
vn 0.7310 0.4957 -0.4690
vn 0.7676 0.6410 0.0000
vn 0.3658 0.4037 0.8386
vn 0.3948 0.4376 0.8079
vn -0.3053 0.1760 0.9359
vn 0.7310 0.4957 0.4690
# 18 vertex normals

g arml_0_0_005
usemtl Material__1060
s 1
f 80//127 81//127 82//127 
f 80//128 83//128 81//128 
f 83//129 84//129 81//129 
f 85//130 82//130 81//130 
f 82//131 85//131 86//131 
f 84//132 85//132 81//132 
f 87//133 85//133 84//133 
f 82//134 88//134 80//134 
f 83//135 89//135 84//135 
f 88//136 82//136 86//136 
f 85//137 87//137 90//137 
f 86//138 85//138 90//138 
f 91//139 88//139 86//139 
f 91//140 86//140 90//140 
f 92//141 87//141 89//141 
f 92//142 90//142 87//142 
f 84//143 89//143 87//143 
f 90//144 92//144 91//144 
# 0 polygons - 18 triangles

#
# object Nemu_0_0_004
#

v  0.1151 0.1921 0.0036
v  0.1187 0.2800 0.0353
v  0.0598 0.2547 0.0372
v  -0.0598 0.2547 0.0372
v  -0.1178 0.2800 0.0353
v  -0.1151 0.1921 0.0045
# 6 vertices

vn 0.1751 -0.3405 0.9238
vn -0.1736 -0.3305 0.9277
# 2 vertex normals

g Nemu_0_0_004
usemtl Material__1064
s 1
f 93//145 94//145 95//145 
f 96//146 97//146 98//146 
# 0 polygons - 2 triangles

#
# object Nemu_0_0_003
#

v  0.0000 0.1377 -0.1305
v  0.0000 0.1967 -0.1205
v  0.0381 0.1794 -0.1205
v  0.0544 0.1377 -0.1205
v  -0.0381 0.1794 -0.1205
v  0.0000 0.2465 -0.0915
v  -0.0707 0.2148 -0.0915
v  -0.0544 0.1377 -0.1205
v  -0.0924 0.2383 -0.0489
v  -0.1314 0.1377 -0.0489
v  -0.1006 0.1377 -0.0915
v  -0.0961 0.2465 0.0009
v  -0.0961 0.2465 0.0018
v  0.0000 0.2855 0.0009
v  -0.0390 0.1042 -0.1196
v  -0.1423 0.1377 0.0009
v  -0.0725 0.0761 -0.0915
v  -0.0942 0.0562 -0.0498
v  -0.1024 0.0498 0.0000
v  0.0000 0.0906 -0.1196
v  0.0000 0.0498 -0.0915
v  0.0000 0.0308 -0.0498
v  0.0000 0.0217 0.0000
v  0.0390 0.1042 -0.1196
v  0.0725 0.0761 -0.0915
v  0.0943 0.0562 -0.0498
v  0.1024 0.0498 0.0000
v  0.1006 0.1377 -0.0915
v  0.0707 0.2148 -0.0915
v  0.1314 0.1377 -0.0489
v  0.0924 0.2383 -0.0489
v  0.0961 0.2465 0.0009
v  0.1423 0.1377 0.0009
v  0.1269 0.1930 0.0480
v  0.0526 0.2701 0.0480
v  0.0526 0.0290 0.0480
v  0.1269 0.0888 0.0480
v  -0.0526 0.0290 0.0480
v  -0.1269 0.0888 0.0480
v  -0.1269 0.1930 0.0480
v  -0.0526 0.2701 0.0489
v  0.0000 0.2737 -0.0489
v  -0.1178 0.2800 0.0353
v  -0.0598 0.2547 0.0372
v  -0.0816 0.2737 0.0381
v  -0.0489 0.2619 -0.0109
v  -0.1223 0.2882 0.0381
v  -0.1106 0.2075 -0.0217
v  -0.0716 0.2483 -0.0408
v  -0.1269 0.2456 0.0218
v  -0.1151 0.1921 0.0045
v  -0.0163 0.3000 0.0390
v  0.0199 0.2782 -0.0082
v  -0.0199 0.2782 -0.0136
v  0.0417 0.2828 0.0616
v  0.0154 0.2982 0.0480
v  -0.0063 0.2936 0.0852
v  -0.0435 0.2764 0.0290
v  -0.0127 0.2664 0.1205
v  0.0199 0.2637 0.1088
v  0.0281 0.2528 0.0725
v  -0.0507 0.2692 0.0888
v  -0.0408 0.2492 0.0807
v  -0.0199 0.2302 0.1133
v  -0.0172 0.2220 0.0943
v  -0.0217 0.2411 0.1196
v  0.0254 0.2456 0.1097
v  0.0272 0.2311 0.1069
v  0.0236 0.2275 0.0906
v  0.0408 0.2383 0.0725
v  0.0489 0.2619 -0.0109
v  0.1233 0.2882 0.0381
v  0.0716 0.2483 -0.0408
v  0.1133 0.2075 -0.0217
v  0.1187 0.2800 0.0353
v  0.1269 0.2456 0.0218
v  0.0834 0.2737 0.0381
v  0.0598 0.2547 0.0372
v  0.1151 0.1921 0.0036
# 79 vertices

vn 0.0753 0.1664 -0.9832
vn 0.1799 0.0704 -0.9812
vn -0.0753 0.1664 -0.9832
vn 0.2218 0.4904 -0.8428
vn -0.2218 0.4904 -0.8428
vn -0.2197 0.4896 -0.8438
vn -0.1799 0.0704 -0.9812
vn -0.3332 0.7426 -0.5810
vn -0.7729 0.3001 -0.5591
vn -0.5204 0.2036 -0.8293
vn -0.9251 0.3584 -0.1259
vn -0.7725 0.2993 -0.5600
vn -0.3759 0.9267 0.0000
vn -0.3700 0.9122 -0.1762
vn -0.1793 -0.1088 -0.9778
vn -0.9023 0.3835 -0.1969
vn -0.4914 -0.2483 -0.8348
vn -0.5165 -0.2355 -0.8232
vn -0.8935 -0.4033 -0.1975
vn -0.7548 -0.3441 -0.5584
vn -0.0782 -0.2242 -0.9714
vn -0.8934 -0.4048 -0.1949
vn -0.1941 -0.5565 -0.8078
vn -0.2032 -0.5604 -0.8029
vn -0.2232 -0.8289 -0.5129
vn -0.3132 -0.8639 -0.3944
vn -0.2606 -0.9499 -0.1727
vn -0.2565 -0.9527 -0.1632
vn 0.1941 -0.5565 -0.8078
vn 0.0782 -0.2242 -0.9714
vn 0.3132 -0.8639 -0.3944
vn 0.2032 -0.5604 -0.8029
vn 0.2561 -0.9511 -0.1729
vn 0.2232 -0.8289 -0.5129
vn 0.1793 -0.1088 -0.9778
vn 0.2610 -0.9513 -0.1638
vn 0.5165 -0.2355 -0.8232
vn 0.4914 -0.2483 -0.8348
vn 0.7729 0.3001 -0.5591
vn 0.5195 0.2017 -0.8303
vn 0.9251 0.3584 -0.1259
vn 0.7725 0.2993 -0.5600
vn 0.8934 -0.4048 -0.1949
vn 0.9023 0.3835 -0.1969
vn 0.8935 -0.4033 -0.1975
vn 0.7617 -0.3409 -0.5510
vn 0.6860 0.6618 0.3023
vn 0.9091 0.3864 -0.1560
vn 0.5984 -0.7435 0.2984
vn 0.9505 -0.0000 0.3107
vn 0.2619 -0.9545 -0.1425
vn 0.3734 0.9204 -0.1156
vn -0.2619 -0.9545 -0.1425
vn 0.0000 -0.9888 0.1493
vn -0.9036 -0.4085 -0.1289
vn -0.5984 -0.7435 0.2984
vn -0.9091 0.3864 -0.1560
vn -0.9505 -0.0000 0.3107
vn 0.4763 -0.8793 -0.0000
vn -0.6884 0.6606 0.2994
vn 0.9036 -0.4085 -0.1289
vn -0.3744 0.9202 -0.1145
vn 0.7548 -0.3441 -0.5584
vn 0.0027 0.9514 0.3081
vn 0.3487 0.9121 -0.2156
vn 0.3700 0.9122 -0.1762
vn -0.3068 0.8023 -0.5121
vn 0.3068 0.8023 -0.5121
vn 0.2197 0.4896 -0.8438
vn 0.3332 0.7426 -0.5810
vn -0.3487 0.9121 -0.2156
vn 0.5204 0.2036 -0.8293
vn -0.7617 -0.3409 -0.5510
vn -0.1022 -0.1635 0.9812
vn -0.5195 0.2017 -0.8303
vn 0.3350 0.9422 -0.0035
vn -0.1351 -0.3801 0.9150
vn -0.6881 0.3647 -0.6273
vn 0.0329 0.9003 -0.4341
vn -0.9607 -0.1332 -0.2437
vn -0.0701 -0.3503 0.9340
vn -0.7816 0.2939 -0.5502
vn -0.1403 -0.3314 0.9330
vn 0.0525 0.9215 -0.3849
vn 0.6428 0.7225 0.2546
vn 0.5782 0.7825 -0.2310
vn 0.1451 0.9361 -0.3205
vn 0.0189 0.9911 0.1319
vn -0.5676 0.7738 -0.2811
vn 0.2837 0.7348 0.6161
vn 0.4169 0.7596 0.4992
vn 0.3537 0.8809 0.3145
vn 0.8501 -0.4716 -0.2343
vn -0.9075 -0.3895 -0.1572
vn -0.4575 0.8623 0.2170
vn -0.3791 0.7651 0.5205
vn -0.8286 -0.5093 0.2323
vn -0.7827 -0.6047 0.1473
vn -0.6198 0.1942 0.7604
vn 0.2258 -0.4625 0.8574
vn 0.3468 0.1503 0.9258
vn 0.1459 -0.9721 0.1836
vn 0.1347 -0.1663 0.9768
vn 0.0716 -0.9130 0.4015
vn 0.5734 -0.8175 0.0542
vn 0.8269 0.2727 0.4918
vn 0.9259 0.0454 0.3750
vn 0.7402 0.6477 0.1805
vn 0.9082 -0.4183 -0.0152
vn 0.2159 -0.1118 0.9700
vn -0.6573 0.7535 0.0117
vn -0.8210 -0.3836 0.4230
vn -0.0326 0.9003 -0.4340
vn 0.6688 0.3877 -0.6343
vn 0.0723 -0.3513 0.9335
vn 0.8352 0.2572 -0.4861
vn -0.6139 0.7481 0.2519
vn 0.1388 -0.3817 0.9138
vn 0.1075 -0.1796 0.9779
vn 0.1138 -0.3414 0.9330
vn 0.9734 -0.1583 -0.1657
vn -0.3417 0.9397 0.0142
# 122 vertex normals

g Nemu_0_0_003
usemtl Material__1057
s 1
f 99//147 100//147 101//147 
f 99//148 101//148 102//148 
f 99//149 103//149 100//149 
f 104//150 101//150 100//150 
f 104//151 100//151 103//151 
f 104//152 103//152 105//152 
f 99//153 106//153 103//153 
f 107//154 104//154 105//154 
f 108//155 105//155 109//155 
f 109//156 103//156 106//156 
f 110//157 107//157 108//157 
f 108//158 107//158 105//158 
f 110//159 111//159 112//159 
f 110//160 112//160 107//160 
f 99//161 113//161 106//161 
f 110//162 108//162 114//162 
f 106//163 113//163 115//163 
f 106//164 115//164 109//164 
f 114//165 116//165 117//165 
f 116//166 109//166 115//166 
f 99//167 118//167 113//167 
f 114//168 108//168 116//168 
f 113//169 118//169 119//169 
f 113//170 119//170 115//170 
f 120//171 116//171 115//171 
f 120//172 115//172 119//172 
f 120//173 121//173 117//173 
f 120//174 117//174 116//174 
f 122//175 119//175 118//175 
f 99//176 122//176 118//176 
f 123//177 120//177 119//177 
f 122//178 123//178 119//178 
f 124//179 121//179 120//179 
f 123//180 124//180 120//180 
f 99//181 102//181 122//181 
f 124//182 125//182 121//182 
f 102//183 126//183 123//183 
f 102//184 123//184 122//184 
f 127//185 128//185 126//185 
f 126//186 101//186 127//186 
f 128//187 129//187 130//187 
f 127//188 129//188 128//188 
f 124//189 128//189 131//189 
f 128//190 130//190 131//190 
f 124//191 131//191 125//191 
f 124//192 126//192 128//192 
f 132//193 130//193 133//193 
f 130//194 132//194 131//194 
f 134//195 125//195 135//195 
f 135//196 131//196 132//196 
f 125//197 134//197 121//197 
f 112//198 133//198 130//198 
f 121//199 136//199 117//199 
f 136//200 121//200 134//200 
f 117//201 137//201 114//201 
f 137//202 117//202 136//202 
f 114//203 138//203 110//203 
f 138//204 114//204 137//204 
f 139//205 111//205 110//205 
f 139//206 110//206 138//206 
f 131//207 135//207 125//207 
f 139//208 112//208 111//208 
f 126//209 124//209 123//209 
f 112//210 139//210 133//210 
f 112//211 129//211 140//211 
f 129//212 112//212 130//212 
f 104//213 107//213 140//213 
f 129//214 104//214 140//214 
f 101//215 104//215 127//215 
f 104//216 129//216 127//216 
f 107//217 112//217 140//217 
f 101//218 126//218 102//218 
f 109//219 116//219 108//219 
f 141//220 142//220 143//220 
f 103//221 109//221 105//221 
f 143//222 144//222 145//222 
f 141//223 143//223 145//223 
f 146//224 145//224 147//224 
f 145//225 144//225 147//225 
f 148//226 146//226 149//226 
f 141//227 145//227 148//227 
f 146//228 148//228 145//228 
f 149//229 141//229 148//229 
f 150//230 151//230 152//230 
f 144//231 143//231 142//231 
f 153//232 151//232 154//232 
f 150//233 154//233 151//233 
f 155//234 154//234 150//234 
f 156//235 150//235 152//235 
f 157//236 158//236 155//236 
f 158//237 153//237 155//237 
f 155//238 153//238 154//238 
f 151//239 153//239 159//239 
f 160//240 156//240 161//240 
f 150//241 160//241 155//241 
f 155//242 160//242 157//242 
f 162//243 160//243 161//243 
f 163//244 162//244 161//244 
f 160//245 164//245 157//245 
f 162//246 165//246 164//246 
f 157//247 165//247 158//247 
f 166//248 163//248 167//248 
f 162//249 166//249 165//249 
f 166//250 162//250 163//250 
f 166//251 167//251 168//251 
f 165//252 153//252 158//252 
f 168//253 165//253 166//253 
f 159//254 165//254 168//254 
f 165//255 159//255 153//255 
f 165//256 157//256 164//256 
f 160//257 150//257 156//257 
f 160//258 162//258 164//258 
f 169//259 170//259 171//259 
f 170//260 172//260 171//260 
f 170//261 173//261 174//261 
f 174//262 172//262 170//262 
f 175//263 169//263 176//263 
f 173//264 170//264 175//264 
f 176//265 173//265 175//265 
f 173//266 177//266 174//266 
f 172//267 174//267 177//267 
f 169//268 175//268 170//268 
# 0 polygons - 122 triangles

#
# object Nemu_34B9100B_0_002
#

v  -0.1269 0.0888 0.0480
v  -0.0707 0.0870 0.0943
v  -0.1006 0.1377 0.0943
v  -0.0526 0.0290 0.0480
v  0.0000 0.0553 0.0943
v  -0.1269 0.1930 0.0480
v  -0.0544 0.1377 0.1223
v  0.0526 0.0290 0.0480
v  -0.0707 0.2148 0.0943
v  -0.0381 0.1097 0.1223
v  0.0707 0.0870 0.0943
v  0.0000 0.0924 0.1223
v  -0.0526 0.2701 0.0489
v  0.0000 0.1377 0.1323
v  0.1269 0.0888 0.0480
v  -0.0381 0.1794 0.1223
v  0.0118 0.1260 0.1287
v  0.0544 0.1377 0.1223
v  0.0000 0.2465 0.0943
v  0.1006 0.1377 0.0943
v  0.0000 0.1967 0.1223
v  0.0381 0.1794 0.1223
v  0.0707 0.2148 0.0943
v  0.1269 0.1930 0.0480
v  0.0526 0.2701 0.0480
# 25 vertices

vn -0.6009 -0.3541 0.7166
vn -0.5060 -0.6287 0.5905
vn -0.2918 -0.6502 0.7015
vn -0.8693 -0.0000 0.4943
vn -0.4967 -0.2927 0.8171
vn 0.0000 -0.8693 0.4943
vn -0.6715 0.2607 0.6936
vn -0.2606 -0.5809 0.7711
vn 0.2918 -0.6502 0.7015
vn -0.5005 -0.2906 0.8155
vn -0.5092 0.1977 0.8377
vn -0.2632 -0.5818 0.7695
vn -0.6325 0.6044 0.4844
vn 0.2612 -0.5822 0.7700
vn -0.1793 -0.1041 0.9783
vn 0.5060 -0.6287 0.5905
vn -0.5072 0.1985 0.8387
vn -0.0967 -0.2139 0.9721
vn -0.1799 0.0704 0.9812
vn 0.3346 -0.2874 0.8975
vn 0.2440 -0.4085 0.8796
vn 0.0853 -0.2141 0.9731
vn -0.2969 0.6617 0.6885
vn -0.2147 0.4785 0.8514
vn 0.1790 -0.1214 0.9763
vn 0.6009 -0.3541 0.7166
vn 0.4967 -0.2927 0.8171
vn -0.0753 0.1664 0.9832
vn 0.0753 0.1664 0.9832
vn -0.2168 0.4793 0.8504
vn 0.2160 0.4775 0.8516
vn 0.8693 -0.0000 0.4943
vn 0.6715 0.2607 0.6936
vn 0.2152 0.4795 0.8507
vn 0.0039 0.8891 0.4577
vn 0.2997 0.6679 0.6813
vn 0.5092 0.1977 0.8377
vn 0.1799 0.0704 0.9812
vn 0.6311 0.6088 0.4807
vn 0.5072 0.1985 0.8387
# 40 vertex normals

vt 0.0949 0.2002 0.0000
vt 0.2735 0.1943 0.0000
vt 0.1794 0.3799 0.0000
vt 0.3332 -0.0176 0.0000
vt 0.5001 0.0786 0.0000
vt 0.0949 0.5815 0.0000
vt 0.3267 0.3799 0.0000
vt 0.6666 -0.0176 0.0000
vt 0.2735 0.6597 0.0000
vt 0.3772 0.2778 0.0000
vt 0.7267 0.1943 0.0000
vt 0.5001 0.2153 0.0000
vt 0.3332 0.8613 0.0000
vt 0.5001 0.3799 0.0000
vt 0.9050 0.2002 0.0000
vt 0.3772 0.5313 0.0000
vt 0.5385 0.3389 0.0000
vt 0.6731 0.3799 0.0000
vt 0.5001 0.7754 0.0000
vt 0.8204 0.3799 0.0000
vt 0.5001 0.5942 0.0000
vt 0.6226 0.5313 0.0000
vt 0.7267 0.6597 0.0000
vt 0.9050 0.5815 0.0000
vt 0.6666 0.8613 0.0000
# 25 texture coords

g Nemu_34B9100B_0_002
usemtl Material__1056
s 1
f 178/1/269 179/2/269 180/3/269 
f 179/2/270 178/1/270 181/4/270 
f 181/4/271 182/5/271 179/2/271 
f 180/3/272 183/6/272 178/1/272 
f 179/2/273 184/7/273 180/3/273 
f 182/5/274 181/4/274 185/8/274 
f 183/6/275 180/3/275 186/9/275 
f 182/5/276 187/10/276 179/2/276 
f 185/8/277 188/11/277 182/5/277 
f 179/2/278 187/10/278 184/7/278 
f 184/7/279 186/9/279 180/3/279 
f 182/5/280 189/12/280 187/10/280 
f 186/9/281 190/13/281 183/6/281 
f 188/11/282 189/12/282 182/5/282 
f 191/14/283 184/7/283 187/10/283 
f 188/11/284 185/8/284 192/15/284 
f 184/7/285 193/16/285 186/9/285 
f 191/14/286 187/10/286 189/12/286 
f 191/14/287 193/16/287 184/7/287 
f 188/11/288 194/17/288 189/12/288 
f 188/11/289 195/18/289 194/17/289 
f 191/14/290 189/12/290 194/17/290 
f 190/13/291 186/9/291 196/19/291 
f 193/16/292 196/19/292 186/9/292 
f 191/14/293 194/17/293 195/18/293 
f 192/15/294 197/20/294 188/11/294 
f 188/11/295 197/20/295 195/18/295 
f 191/14/296 198/21/296 193/16/296 
f 191/14/297 199/22/297 198/21/297 
f 193/16/298 198/21/298 196/19/298 
f 198/21/299 199/22/299 200/23/299 
f 197/20/300 192/15/300 201/24/300 
f 201/24/301 200/23/301 197/20/301 
f 198/21/302 200/23/302 196/19/302 
f 196/19/303 202/25/303 190/13/303 
f 202/25/304 196/19/304 200/23/304 
f 195/18/305 197/20/305 200/23/305 
f 191/14/306 195/18/306 199/22/306 
f 200/23/307 201/24/307 202/25/307 
f 195/18/308 200/23/308 199/22/308 
# 0 polygons - 40 triangles

