# 3ds Max Wavefront OBJ Exporter v0.97b - (c)2007 guruware
# File Created: 17.10.2018 19:58:24

mtllib kirbypoly.mtl

#
# object Nemu_60999451_0_008
#

v  -0.1201 0.0541 -0.0469
v  -0.0612 0.0872 -0.0174
v  -0.0412 0.0617 -0.0841
v  -0.0731 0.0115 -0.1049
v  -0.0107 0.0109 -0.0879
v  -0.1194 0.0058 -0.0526
v  -0.1405 0.0047 0.0165
v  -0.0054 0.0485 -0.0038
v  -0.0962 0.0513 0.0768
v  -0.0116 -0.0052 -0.0014
v  -0.0249 -0.0008 0.0480
v  -0.1266 0.0037 0.0785
v  -0.0764 0.0007 0.0932
# 13 vertices

vn -0.2796 0.8660 -0.4147
vn -0.3983 0.5552 -0.7302
vn 0.2582 0.2252 -0.9395
vn -0.7507 0.0673 -0.6572
vn -0.9564 0.0211 -0.2914
vn 0.5860 0.7999 -0.1293
vn -0.5323 0.8378 0.1215
vn 0.8141 0.5093 -0.2790
vn 0.0399 -0.9825 -0.1817
vn -0.0342 -0.9897 -0.1388
vn 0.9932 -0.1157 -0.0109
vn -0.0819 -0.9958 -0.0399
vn 0.9587 -0.0992 0.2665
vn -0.8238 0.5332 0.1923
vn -0.0437 -0.9989 -0.0156
vn -0.0595 -0.9982 -0.0024
vn 0.5968 0.4497 0.6645
vn -0.2636 0.2024 0.9432
vn -0.8149 0.5542 0.1695
vn 0.5987 0.4554 0.6590
vn 0.4289 0.7797 0.4562
vn -0.0667 -0.9954 0.0693
# 22 vertex normals

vt 0.3251 0.0935 0.0000
vt 0.2032 0.2723 0.0000
vt 0.0041 0.4430 0.0000
vt 0.3129 0.5121 0.0000
vt 0.5283 0.5202 0.0000
vt 0.3251 0.1057 0.0000
vt 0.6258 0.0853 0.0000
vt 0.2276 0.2601 0.0000
vt 0.4552 1.0322 0.0000
vt 0.4958 1.0322 0.0000
vt 0.3495 0.5608 0.0000
vt 0.5486 1.0322 0.0000
vt 0.4999 0.5405 0.0000
vt 0.7193 0.2398 0.0000
vt 0.5608 1.0322 0.0000
vt 0.5690 1.0322 0.0000
vt 0.7193 0.2479 0.0000
vt 1.0119 0.3698 0.0000
vt 0.7112 0.2316 0.0000
vt 0.6340 0.0894 0.0000
vt 0.5974 1.0282 0.0000
# 21 texture coords

g Nemu_60999451_0_008
usemtl Material__25
s 1
f 1/1/1 2/1/1 3/1/1 
f 4/2/2 1/2/2 3/2/2 
f 4/3/3 3/3/3 5/3/3 
f 1/4/4 4/4/4 6/4/4 
f 1/5/5 6/5/5 7/5/5 
f 3/6/6 2/6/6 8/6/6 
f 2/7/7 1/7/7 9/7/7 
f 8/8/8 5/8/8 3/8/8 
f 10/9/9 4/9/9 5/9/9 
f 4/10/10 10/10/10 6/10/10 
f 5/11/11 8/11/11 10/11/11 
f 6/12/12 10/12/12 7/12/12 
f 10/13/13 8/13/13 11/13/13 
f 9/14/14 7/14/14 12/14/14 
f 7/15/15 11/15/15 13/15/15 
f 7/16/16 13/16/16 12/16/16 
f 9/17/17 13/17/17 11/17/17 
f 9/18/18 12/18/18 13/18/18 
f 7/19/19 9/19/19 1/19/19 
f 9/17/20 11/17/20 8/17/20 
f 2/20/21 9/20/21 8/20/21 
f 11/21/22 7/21/22 10/21/22 
# 0 polygons - 22 triangles

#
# object Nemu_60999451_0_007
#

v  0.0611 0.0871 -0.0174
v  0.0412 0.0618 -0.0842
v  0.0053 0.0483 -0.0039
v  0.0107 0.0109 -0.0881
v  0.0117 -0.0053 -0.0016
v  0.0732 0.0117 -0.1051
v  0.1200 0.0542 -0.0469
v  0.0249 -0.0011 0.0478
v  0.0961 0.0511 0.0767
v  0.0764 0.0004 0.0930
v  0.1194 0.0059 -0.0528
v  0.1405 0.0047 0.0163
v  0.1266 0.0036 0.0783
# 13 vertices

vn -0.5875 0.7992 -0.1272
vn -0.8149 0.5086 -0.2778
vn -0.9930 -0.1175 -0.0116
vn -0.2583 0.2273 -0.9389
vn -0.0379 -0.9821 -0.1845
vn 0.2780 0.8677 -0.4121
vn 0.3975 0.5580 -0.7285
vn -0.9586 -0.1018 0.2659
vn -0.5998 0.4524 0.6600
vn -0.4305 0.7776 0.4582
vn -0.5979 0.4467 0.6656
vn 0.7508 0.0705 -0.6567
vn 0.5306 0.8385 0.1241
vn 0.0686 -0.9954 0.0665
vn 0.0362 -0.9893 -0.1416
vn 0.8138 0.5553 0.1714
vn 0.0838 -0.9956 -0.0427
vn 0.0457 -0.9988 -0.0184
vn 0.9564 0.0237 -0.2910
vn 0.8227 0.5343 0.1941
vn 0.2628 0.2002 0.9438
vn 0.0614 -0.9981 -0.0052
# 22 vertex normals

vt 0.3251 0.1057 0.0000
vt 0.2276 0.2601 0.0000
vt 0.3495 0.5608 0.0000
vt 0.0041 0.4430 0.0000
vt 0.4552 1.0322 0.0000
vt 0.3251 0.0935 0.0000
vt 0.2032 0.2723 0.0000
vt 0.4999 0.5405 0.0000
vt 0.7193 0.2479 0.0000
vt 0.6340 0.0894 0.0000
vt 0.3129 0.5121 0.0000
vt 0.6258 0.0853 0.0000
vt 0.5974 1.0282 0.0000
vt 0.4958 1.0322 0.0000
vt 0.7112 0.2316 0.0000
vt 0.5486 1.0322 0.0000
vt 0.5608 1.0322 0.0000
vt 0.5283 0.5202 0.0000
vt 0.7193 0.2398 0.0000
vt 1.0119 0.3698 0.0000
vt 0.5690 1.0322 0.0000
# 21 texture coords

g Nemu_60999451_0_007
usemtl Material__25
s 1
f 14/22/23 15/22/23 16/22/23 
f 17/23/24 16/23/24 15/23/24 
f 16/24/25 17/24/25 18/24/25 
f 15/25/26 19/25/26 17/25/26 
f 19/26/27 18/26/27 17/26/27 
f 14/27/28 20/27/28 15/27/28 
f 20/28/29 19/28/29 15/28/29 
f 16/29/30 18/29/30 21/29/30 
f 21/30/31 22/30/31 16/30/31 
f 22/31/32 14/31/32 16/31/32 
f 21/30/33 23/30/33 22/30/33 
f 19/32/34 20/32/34 24/32/34 
f 20/33/35 14/33/35 22/33/35 
f 25/34/36 21/34/36 18/34/36 
f 18/35/37 19/35/37 24/35/37 
f 22/36/38 25/36/38 20/36/38 
f 18/37/39 24/37/39 25/37/39 
f 21/38/40 25/38/40 23/38/40 
f 24/39/41 20/39/41 25/39/41 
f 25/40/42 22/40/42 26/40/42 
f 26/41/43 22/41/43 23/41/43 
f 23/42/44 25/42/44 26/42/44 
# 0 polygons - 22 triangles

#
# object Nemu_60999451_0_006
#

v  -0.1011 0.1562 0.0000
v  -0.1288 0.1715 -0.0478
v  -0.0984 0.1554 0.0000
v  -0.1288 0.1715 0.0478
v  -0.1829 0.1730 0.0000
v  -0.1466 0.1047 0.0272
v  -0.1466 0.1047 -0.0272
v  -0.1192 0.0988 0.0000
v  -0.1732 0.1057 0.0000
v  -0.1497 0.0862 0.0000
# 10 vertices

vn -0.2821 -0.9492 -0.1397
vn -0.2821 -0.9492 0.1397
vn -0.6619 -0.0537 0.7476
vn -0.6619 -0.0537 -0.7476
vn 0.6089 -0.3785 0.6972
vn 0.8003 -0.2524 0.5439
vn 0.6089 -0.3785 -0.6972
vn 0.8003 -0.2524 -0.5439
vn -0.7127 -0.1020 -0.6940
vn -0.7127 -0.1020 0.6940
vn 0.3293 -0.7972 -0.5059
vn 0.3293 -0.7972 0.5059
vn -0.5464 -0.6629 -0.5119
vn -0.5464 -0.6629 0.5119
# 14 vertex normals

vt 0.4877 0.0610 0.0000
vt 0.3576 0.1544 0.0000
vt 0.5730 0.8290 0.0000
vt 0.5974 0.8372 0.0000
vt 0.6746 0.1747 0.0000
vt 0.5608 0.0650 0.0000
vt 0.6462 0.8656 0.0000
vt 0.8819 0.2601 0.0000
vt 0.9103 0.7234 0.0000
# 9 texture coords

g Nemu_60999451_0_006
usemtl Material__25
s 1
f 27/43/45 28/44/45 29/44/45 
f 30/45/46 27/43/46 29/44/46 
f 31/45/47 32/46/47 30/45/47 
f 31/45/48 28/44/48 33/46/48 
f 34/47/49 30/45/49 32/47/49 
f 27/48/50 30/45/50 34/48/50 
f 28/44/51 34/47/51 33/47/51 
f 28/44/52 27/48/52 34/48/52 
f 31/45/53 33/49/53 35/49/53 
f 32/49/54 31/45/54 35/49/54 
f 33/50/55 34/50/55 36/50/55 
f 34/50/56 32/50/56 36/50/56 
f 35/51/57 33/51/57 36/51/57 
f 32/51/58 35/51/58 36/51/58 
# 0 polygons - 14 triangles

#
# object Nemu_60999451_0_005
#

v  -0.0984 0.1554 0.0000
v  -0.1104 0.2181 -0.0337
v  -0.0764 0.2111 0.0000
v  -0.1288 0.1715 -0.0478
v  -0.1370 0.2299 0.0197
v  -0.1829 0.1730 0.0000
v  -0.1288 0.1715 0.0478
v  -0.1104 0.2181 0.0337
v  -0.1370 0.2299 -0.0197
v  -0.1083 0.2416 0.0000
# 10 vertices

vn 0.6527 -0.2582 -0.7123
vn 0.8114 -0.1485 -0.5653
vn -0.6351 0.2604 0.7272
vn -0.2948 0.3804 0.8766
vn -0.2948 0.3804 -0.8766
vn -0.6351 0.2604 -0.7272
vn 0.8114 -0.1485 0.5653
vn 0.6527 -0.2582 0.7123
vn 0.6064 0.6336 -0.4805
vn 0.6064 0.6336 0.4805
vn 0.0594 0.8169 -0.5737
vn -0.3783 0.9257 0.0000
vn -0.7784 0.6277 0.0000
vn 0.0594 0.8169 0.5737
# 14 vertex normals

vt 0.3576 0.1544 0.0000
vt 0.5730 0.8290 0.0000
vt 0.0610 0.4836 0.0000
vt 0.1626 0.7478 0.0000
vt 0.2560 0.9632 0.0000
vt 0.5161 1.0322 0.0000
# 6 texture coords

g Nemu_60999451_0_005
usemtl Material__25
s 1
f 37/52/59 38/52/59 39/52/59 
f 37/52/60 40/52/60 38/52/60 
f 41/53/61 42/53/61 43/53/61 
f 41/53/62 43/53/62 44/53/62 
f 40/53/63 45/53/63 38/53/63 
f 40/53/64 42/53/64 45/53/64 
f 37/52/65 44/52/65 43/52/65 
f 37/52/66 39/52/66 44/52/66 
f 46/54/67 39/54/67 38/54/67 
f 39/54/68 46/54/68 44/54/68 
f 46/55/69 38/55/69 45/55/69 
f 46/56/70 45/56/70 41/56/70 
f 45/57/71 42/57/71 41/57/71 
f 44/55/72 46/55/72 41/55/72 
# 0 polygons - 14 triangles

#
# object Nemu_60999451_0_004
#

v  0.1005 0.1558 0.0000
v  0.1283 0.1709 0.0478
v  0.0974 0.1554 0.0000
v  0.1283 0.1709 -0.0478
v  0.1466 0.1042 0.0272
v  0.1831 0.1733 0.0000
v  0.1466 0.1042 -0.0272
v  0.1191 0.0985 0.0000
v  0.1730 0.1058 0.0000
v  0.1493 0.0865 0.0000
# 10 vertices

vn 0.1127 -0.9644 0.2394
vn 0.1127 -0.9644 -0.2394
vn 0.6575 -0.0514 0.7517
vn 0.6575 -0.0514 -0.7517
vn -0.6084 -0.3822 -0.6955
vn -0.7980 -0.2585 -0.5443
vn -0.6084 -0.3822 0.6955
vn -0.7980 -0.2585 0.5443
vn 0.7162 -0.1068 0.6897
vn 0.7162 -0.1068 -0.6897
vn -0.3193 -0.8095 0.4926
vn -0.3193 -0.8095 -0.4926
vn 0.5485 -0.6760 0.4921
vn 0.5485 -0.6760 -0.4921
# 14 vertex normals

vt 0.4714 0.0610 0.0000
vt 0.5771 0.8290 0.0000
vt 0.3536 0.1544 0.0000
vt 0.4836 0.0610 0.0000
vt 0.5974 0.8372 0.0000
vt 0.6787 0.1747 0.0000
vt 0.5649 0.0650 0.0000
vt 0.6421 0.8697 0.0000
vt 0.8819 0.2642 0.0000
vt 0.9103 0.7274 0.0000
# 10 texture coords

g Nemu_60999451_0_004
usemtl Material__25
s 1
f 47/58/73 48/59/73 49/60/73 
f 50/60/74 47/61/74 49/60/74 
f 51/62/75 52/59/75 48/59/75 
f 50/60/76 52/59/76 53/62/76 
f 54/63/77 50/60/77 53/63/77 
f 47/64/78 50/60/78 54/64/78 
f 48/59/79 54/63/79 51/63/79 
f 48/59/80 47/64/80 54/64/80 
f 52/59/81 51/65/81 55/65/81 
f 53/65/82 52/59/82 55/65/82 
f 51/66/83 54/66/83 56/66/83 
f 54/66/84 53/66/84 56/66/84 
f 55/67/85 51/67/85 56/67/85 
f 53/67/86 55/67/86 56/67/86 
# 0 polygons - 14 triangles

#
# object Nemu_60999451_0_003
#

v  0.0974 0.1554 0.0000
v  0.0764 0.2108 0.0000
v  0.1104 0.2180 -0.0337
v  0.1283 0.1709 -0.0478
v  0.1370 0.2299 -0.0197
v  0.1831 0.1733 0.0000
v  0.1283 0.1709 0.0478
v  0.1370 0.2299 0.0197
v  0.1104 0.2180 0.0337
v  0.1082 0.2415 0.0000
# 10 vertices

vn -0.6554 -0.2478 -0.7134
vn -0.8113 -0.1371 -0.5684
vn 0.4483 0.0549 -0.8922
vn 0.5837 0.4269 -0.6907
vn 0.6288 0.2568 0.7340
vn 0.2972 0.3746 0.8783
vn -0.0631 0.8166 -0.5737
vn -0.6094 0.6308 -0.4805
vn -0.7595 -0.2872 0.5836
vn -0.6094 0.6308 0.4805
vn 0.3741 0.9274 0.0000
vn -0.6979 -0.0506 0.7144
vn 0.7755 0.6313 0.0000
vn -0.0631 0.8166 0.5737
# 14 vertex normals

vt 0.3536 0.1544 0.0000
vt 0.5771 0.8290 0.0000
vt 0.1626 0.7518 0.0000
vt 0.0610 0.4877 0.0000
vt 0.2601 0.9672 0.0000
vt 0.5202 1.0322 0.0000
# 6 texture coords

g Nemu_60999451_0_003
usemtl Material__25
s 1
f 57/68/87 58/68/87 59/68/87 
f 57/68/88 59/68/88 60/68/88 
f 59/69/89 61/69/89 62/69/89 
f 59/69/90 62/69/90 60/69/90 
f 63/69/91 62/69/91 64/69/91 
f 63/69/92 64/69/92 65/69/92 
f 59/70/93 66/70/93 61/70/93 
f 58/71/94 66/71/94 59/71/94 
f 63/68/95 58/68/95 57/68/95 
f 66/71/96 58/71/96 65/71/96 
f 61/72/97 66/72/97 64/72/97 
f 63/68/98 65/68/98 58/68/98 
f 62/73/99 61/73/99 64/73/99 
f 66/70/100 65/70/100 64/70/100 
# 0 polygons - 14 triangles

#
# object Nemu_60999451_0_002
#

v  -0.0778 0.0047 -0.0019
v  0.0384 0.0047 -0.0684
v  0.0778 0.0047 -0.0019
v  -0.0384 0.0047 -0.0684
v  0.0384 0.0047 0.0656
v  -0.0384 0.0047 0.0656
v  0.1341 0.0619 -0.0019
v  0.0666 0.0619 -0.1181
v  0.0544 0.1388 -0.0891
v  0.1097 0.1388 -0.0009
v  0.0666 0.2166 -0.1181
v  0.1341 0.2166 -0.0019
v  0.0384 0.2728 -0.0684
v  0.0778 0.2728 -0.0019
v  -0.0666 0.0619 -0.1181
v  0.0000 0.1838 -0.0019
v  -0.0544 0.1388 -0.0891
v  -0.0666 0.2166 -0.1181
v  -0.0384 0.2728 -0.0684
v  -0.1341 0.0619 -0.0019
v  -0.1097 0.1388 -0.0009
v  -0.1341 0.2166 -0.0019
v  -0.0778 0.2728 -0.0019
v  -0.0666 0.0619 0.1144
v  -0.0544 0.1388 0.0872
v  -0.0666 0.2166 0.1144
v  -0.0384 0.2728 0.0656
v  0.0666 0.0619 0.1144
v  0.0544 0.1388 0.0872
v  0.0666 0.2166 0.1144
v  0.0384 0.2728 0.0656
v  0.0000 0.3966 0.0000
v  -0.0581 0.3384 0.0806
v  0.0581 0.3384 0.0806
v  -0.0019 0.2400 0.0000
v  0.0947 0.3384 -0.0309
v  0.0000 0.3384 -0.0994
v  -0.0947 0.3384 -0.0309
# 38 vertices

vn 0.0000 -1.0000 -0.0000
vn 0.6569 -0.6461 -0.3886
vn 0.6552 -0.6527 -0.3804
vn 0.8031 0.3179 -0.5040
vn 0.8327 0.2699 -0.4835
vn 0.8229 -0.3074 -0.4778
vn 0.8173 -0.2622 -0.5130
vn 0.6461 0.6607 -0.3822
vn 0.6541 0.6541 -0.3798
vn 0.0000 -0.6559 -0.7549
vn -0.6879 0.6010 0.4069
vn 0.0000 0.3536 -0.9354
vn 0.0000 -0.3499 -0.9368
vn 0.0000 0.6620 -0.7495
vn 0.0000 0.5986 0.8010
vn -0.6587 -0.6479 -0.3825
vn -0.6507 -0.6545 -0.3849
vn -0.8167 0.2652 -0.5126
vn -0.8220 0.3107 -0.4773
vn -0.8334 -0.2669 -0.4839
vn -0.8040 -0.3144 -0.5047
vn -0.6523 0.6523 -0.3859
vn -0.6505 0.6589 -0.3777
vn -0.6583 -0.6475 0.3840
vn 0.6879 0.6010 0.4069
vn -0.8353 0.2589 0.4850
vn -0.6578 -0.6491 0.3820
vn -0.8199 -0.2507 0.5146
vn -0.8062 0.3068 0.5060
vn -0.6541 0.6541 0.3798
vn -0.8258 -0.2969 0.4795
vn 0.6895 0.6024 -0.4022
vn -0.6521 0.6558 0.3804
vn 0.0000 -0.6487 0.7610
vn 0.0000 0.3334 0.9428
vn 0.0000 -0.3298 0.9440
vn 0.0000 0.6549 0.7557
vn 0.6583 -0.6475 0.3840
vn 0.0000 0.6040 -0.7970
vn 0.8249 0.3002 0.4790
vn 0.6578 -0.6491 0.3820
vn 0.8071 -0.3034 0.5066
vn 0.8193 0.2535 0.5143
vn 0.6532 0.6553 0.3793
vn 0.8360 -0.2560 0.4854
vn -0.6895 0.6024 -0.4022
vn 0.6537 0.6537 0.3813
vn 0.0000 0.8112 0.5848
vn 0.0000 -0.6336 0.7736
vn 0.5570 0.8102 0.1825
vn 0.7297 -0.6406 0.2391
vn 0.3428 0.8109 -0.4743
vn 0.4509 -0.6384 -0.6238
vn -0.3428 0.8109 -0.4743
vn -0.4559 -0.6280 -0.6307
vn -0.5570 0.8102 0.1825
vn -0.7427 -0.6238 0.2434
# 57 vertex normals

vt 0.5161 -0.0041 0.0000
vt 0.8534 0.1788 0.0000
vt 0.9428 0.6624 0.0000
vt 0.9428 0.3698 0.0000
vt 0.8534 0.8534 0.0000
vt 0.5161 0.1788 0.0000
vt 0.1585 0.8250 0.0000
vt 0.5161 0.6909 0.0000
vt 0.5161 0.3414 0.0000
vt 0.5161 0.8534 0.0000
vt 0.5161 0.8250 0.0000
vt 0.1788 0.1788 0.0000
vt 0.0894 0.6624 0.0000
vt 0.0894 0.3698 0.0000
vt 0.1788 0.8534 0.0000
vt 0.8737 0.8250 0.0000
vt 0.5161 0.6868 0.0000
vt 0.5161 0.3454 0.0000
vt 0.5161 0.9347 0.0000
vt 0.5161 0.1910 0.0000
vt 0.8047 0.9347 0.0000
vt 0.8941 0.1869 0.0000
vt 0.6909 0.9347 0.0000
vt 0.7518 0.1869 0.0000
vt 0.3414 0.9347 0.0000
vt 0.2804 0.1910 0.0000
vt 0.2276 0.9347 0.0000
vt 0.1300 0.1951 0.0000
# 28 texture coords

g Nemu_60999451_0_002
usemtl Material__25
s 1
f 67/74/101 68/74/101 69/74/101 
f 68/74/101 67/74/101 70/74/101 
f 67/74/101 71/74/101 72/74/101 
f 71/74/101 67/74/101 69/74/101 
f 73/75/102 69/75/102 68/75/102 
f 73/75/103 68/75/103 74/75/103 
f 74/76/104 75/76/104 76/76/104 
f 74/76/105 76/76/105 73/76/105 
f 75/77/106 77/77/106 78/77/106 
f 75/77/107 78/77/107 76/77/107 
f 77/78/108 79/78/108 80/78/108 
f 77/78/109 80/78/109 78/78/109 
f 74/79/110 70/79/110 81/79/110 
f 82/80/111 80/80/111 79/80/111 
f 83/81/112 74/81/112 81/81/112 
f 74/79/110 68/79/110 70/79/110 
f 77/82/113 83/82/113 84/82/113 
f 83/81/112 75/81/112 74/81/112 
f 85/83/114 77/83/114 84/83/114 
f 77/82/113 75/82/113 83/82/113 
f 82/84/115 79/84/115 85/84/115 
f 85/83/114 79/83/114 77/83/114 
f 67/85/116 86/85/116 81/85/116 
f 67/85/117 81/85/117 70/85/117 
f 86/86/118 87/86/118 83/86/118 
f 86/86/119 83/86/119 81/86/119 
f 87/87/120 88/87/120 84/87/120 
f 87/87/121 84/87/121 83/87/121 
f 88/88/122 89/88/122 85/88/122 
f 88/88/123 85/88/123 84/88/123 
f 72/85/124 86/85/124 67/85/124 
f 82/89/125 85/89/125 89/89/125 
f 90/86/126 87/86/126 86/86/126 
f 72/85/127 90/85/127 86/85/127 
f 91/87/128 88/87/128 87/87/128 
f 90/86/129 91/86/129 87/86/129 
f 92/88/130 89/88/130 88/88/130 
f 91/87/131 92/87/131 88/87/131 
f 82/89/132 89/89/132 93/89/132 
f 92/88/133 93/88/133 89/88/133 
f 72/79/134 71/79/134 94/79/134 
f 72/79/134 94/79/134 90/79/134 
f 94/90/135 95/90/135 91/90/135 
f 94/90/135 91/90/135 90/90/135 
f 91/91/136 95/91/136 96/91/136 
f 91/91/136 96/91/136 92/91/136 
f 96/83/137 97/83/137 93/83/137 
f 96/83/137 93/83/137 92/83/137 
f 73/75/138 71/75/138 69/75/138 
f 82/84/139 93/84/139 97/84/139 
f 73/76/140 95/76/140 94/76/140 
f 73/75/141 94/75/141 71/75/141 
f 76/77/142 96/77/142 95/77/142 
f 73/76/143 76/76/143 95/76/143 
f 78/78/144 97/78/144 96/78/144 
f 76/77/145 78/77/145 96/77/145 
f 82/80/146 97/80/146 80/80/146 
f 78/78/147 80/78/147 97/78/147 
f 98/92/148 99/92/148 100/92/148 
f 99/93/149 101/93/149 100/93/149 
f 98/94/150 100/94/150 102/94/150 
f 100/95/151 101/95/151 102/95/151 
f 98/96/152 102/96/152 103/96/152 
f 102/97/153 101/97/153 103/97/153 
f 98/98/154 103/98/154 104/98/154 
f 103/99/155 101/99/155 104/99/155 
f 98/100/156 104/100/156 99/100/156 
f 104/101/157 101/101/157 99/101/157 
# 0 polygons - 68 triangles

