# 3ds Max Wavefront OBJ Exporter v0.97b - (c)2007 guruware
# File Created: 27.04.2019 23:50:11

mtllib kirbysamus.mtl

#
# object legr_0_0_012
#

v  -0.0751 0.0108 -0.0896
v  -0.1154 0.0539 -0.0306
v  -0.0727 0.0525 -0.0786
v  -0.0401 0.0314 -0.0981
v  -0.0572 0.0872 -0.0073
v  -0.0141 0.0503 -0.0658
v  -0.1138 0.0100 -0.0366
v  -0.0907 -0.0042 -0.0415
v  -0.0131 0.0115 -0.0783
v  -0.1075 0.0416 0.0821
v  -0.1304 0.0206 0.0315
v  -0.0025 0.0499 0.0023
v  -0.0195 -0.0030 -0.0261
v  -0.1068 -0.0040 0.0527
v  -0.0589 0.0407 0.0907
v  -0.0046 0.0071 0.0046
v  -0.1122 0.0200 0.0912
v  -0.0169 0.0165 0.0540
v  -0.0439 -0.0027 0.0672
v  -0.0882 0.0015 0.0833
v  -0.0622 0.0181 0.1011
# 21 vertices

vn -0.7269 0.2144 -0.6524
vn -0.3695 0.2572 -0.8929
vn -0.3582 0.8677 -0.3447
vn 0.1582 0.7913 -0.5907
vn -0.8071 0.0517 -0.5882
vn 0.1322 0.8796 -0.4570
vn -0.5385 -0.7395 -0.4039
vn 0.6829 0.2398 -0.6900
vn -0.5307 0.8377 0.1286
vn -0.9715 -0.0023 -0.2370
vn 0.9826 0.0799 -0.1677
vn 0.0581 -0.9641 -0.2591
vn -0.8024 0.5847 0.1198
vn 0.0757 -0.9589 -0.2734
vn -0.6938 -0.7178 -0.0580
vn -0.5339 -0.8408 -0.0897
vn 0.4725 0.7932 0.3842
vn 0.9930 -0.0556 -0.1043
vn 0.0162 -0.9999 0.0048
vn 0.7010 -0.7049 -0.1086
vn -0.9075 0.3129 0.2802
vn -0.0596 0.9024 0.4267
vn 0.9680 -0.0347 0.2486
vn -0.7941 -0.5597 0.2369
vn 0.3962 -0.9120 0.1065
vn 0.7183 0.4752 0.5081
vn -0.4627 -0.7803 0.4207
vn 0.0191 -0.9998 0.0081
vn -0.1500 0.4306 0.8900
vn -0.1630 0.4111 0.8969
vn -0.0235 -0.9814 0.1907
vn 0.6465 -0.7030 0.2962
vn 0.7092 0.2084 0.6735
vn -0.1805 -0.5744 0.7984
vn 0.1291 -0.8132 0.5675
vn 0.6335 -0.4593 0.6227
vn 0.1518 -0.5873 -0.7950
vn 0.5709 0.8157 -0.0932
# 38 vertex normals

g legr_0_0_012
usemtl Material__1102
s 1
f 1//1 2//1 3//1 
f 4//2 1//2 3//2 
f 2//3 5//3 3//3 
f 4//4 3//4 6//4 
f 2//5 1//5 7//5 
f 6//6 3//6 5//6 
f 1//7 8//7 7//7 
f 6//8 9//8 4//8 
f 5//9 2//9 10//9 
f 2//10 7//10 11//10 
f 12//11 9//11 6//11 
f 1//12 9//12 13//12 
f 2//13 11//13 10//13 
f 1//14 13//14 8//14 
f 7//15 14//15 11//15 
f 14//16 7//16 8//16 
f 12//17 5//17 15//17 
f 9//18 12//18 16//18 
f 13//19 14//19 8//19 
f 13//20 9//20 16//20 
f 10//21 11//21 17//21 
f 10//22 15//22 5//22 
f 16//23 12//23 18//23 
f 11//24 14//24 17//24 
f 16//25 19//25 13//25 
f 15//26 18//26 12//26 
f 20//27 17//27 14//27 
f 13//28 19//28 14//28 
f 10//29 21//29 15//29 
f 10//30 17//30 21//30 
f 20//31 14//31 19//31 
f 19//32 16//32 18//32 
f 18//33 15//33 21//33 
f 17//34 20//34 21//34 
f 19//35 21//35 20//35 
f 21//36 19//36 18//36 
f 9//37 1//37 4//37 
f 12//38 6//38 5//38 
# 0 polygons - 38 triangles

#
# object legl_0_0_011
#

v  0.0140 0.0106 -0.0787
v  0.0140 0.0493 -0.0659
v  0.0406 0.0314 -0.0984
v  0.0022 0.0480 0.0021
v  0.0725 0.0532 -0.0786
v  0.0560 0.0868 -0.0069
v  0.0761 0.0117 -0.0900
v  0.0588 0.0395 0.0906
v  0.0055 0.0052 0.0041
v  0.0175 0.0145 0.0535
v  0.0207 -0.0042 -0.0267
v  0.0920 -0.0033 -0.0420
v  0.1150 0.0554 -0.0304
v  0.1079 -0.0035 0.0522
v  0.0450 -0.0041 0.0667
v  0.1147 0.0115 -0.0369
v  0.1073 0.0418 0.0821
v  0.0891 0.0012 0.0829
v  0.1309 0.0219 0.0313
v  0.1126 0.0202 0.0910
v  0.0626 0.0168 0.1008
# 21 vertices

vn -0.6881 0.2275 -0.6891
vn -0.9841 0.0543 -0.1690
vn -0.1558 0.8800 -0.4487
vn -0.5932 0.8004 -0.0865
vn -0.1340 -0.5835 -0.8010
vn -0.4950 0.7760 0.3909
vn -0.9909 -0.0820 -0.1069
vn -0.1791 0.7922 -0.5833
vn -0.9671 -0.0639 0.2462
vn -0.6809 -0.7230 -0.1169
vn -0.0308 -0.9628 -0.2685
vn 0.3639 0.2759 -0.8896
vn -0.0485 -0.9579 -0.2829
vn 0.3346 0.8806 -0.3356
vn 0.0087 -1.0000 -0.0016
vn 0.0116 -0.9999 -0.0049
vn 0.8064 0.0798 -0.5859
vn 0.5070 0.8509 0.1378
vn 0.0505 -0.9821 0.1813
vn 0.7856 0.6055 0.1271
vn 0.7219 0.2407 -0.6488
vn 0.4835 -0.7712 0.4141
vn 0.5572 -0.8247 -0.0967
vn 0.9716 0.0269 -0.2350
vn -0.7160 0.1822 0.6740
vn 0.7136 -0.6977 -0.0634
vn -0.7322 0.4502 0.5112
vn -0.6273 -0.7235 0.2881
vn 0.0337 0.8995 0.4356
vn -0.3709 -0.9236 0.0968
vn 0.5596 -0.7203 -0.4099
vn -0.6216 -0.4827 0.6169
vn -0.1075 -0.8219 0.5593
vn 0.1363 0.4260 0.8944
vn 0.1950 -0.5769 0.7932
vn 0.1499 0.4067 0.9012
vn 0.8089 -0.5397 0.2332
vn 0.8980 0.3352 0.2851
# 38 vertex normals

g legl_0_0_011
usemtl Material__1101
s 1
f 22//39 23//39 24//39 
f 22//40 25//40 23//40 
f 26//41 23//41 27//41 
f 23//42 25//42 27//42 
f 28//43 22//43 24//43 
f 27//44 25//44 29//44 
f 25//45 22//45 30//45 
f 26//46 24//46 23//46 
f 25//47 30//47 31//47 
f 22//48 32//48 30//48 
f 22//49 28//49 32//49 
f 28//50 24//50 26//50 
f 32//51 28//51 33//51 
f 27//52 34//52 26//52 
f 32//53 35//53 36//53 
f 32//54 33//54 35//54 
f 28//55 34//55 37//55 
f 34//56 27//56 38//56 
f 35//57 39//57 36//57 
f 40//58 34//58 38//58 
f 34//59 28//59 26//59 
f 41//60 39//60 35//60 
f 37//61 35//61 33//61 
f 37//62 34//62 40//62 
f 29//63 31//63 42//63 
f 35//64 37//64 40//64 
f 31//65 29//65 25//65 
f 30//66 36//66 31//66 
f 29//67 38//67 27//67 
f 36//68 30//68 32//68 
f 33//69 28//69 37//69 
f 36//70 42//70 31//70 
f 42//71 36//71 39//71 
f 42//72 38//72 29//72 
f 39//73 41//73 42//73 
f 42//74 41//74 38//74 
f 35//75 40//75 41//75 
f 40//76 38//76 41//76 
# 0 polygons - 38 triangles

#
# object armr_0_0_010
#

v  -0.0977 0.1510 -0.0001
v  -0.1245 0.1658 -0.0463
v  -0.0951 0.1502 -0.0001
v  -0.1244 0.1657 0.0462
v  -0.1581 0.1673 0.0308
v  -0.1417 0.1012 0.0262
v  -0.1152 0.0955 -0.0001
v  -0.1418 0.1013 -0.0264
v  -0.1447 0.0833 -0.0001
v  -0.1582 0.1673 -0.0308
v  -0.1768 0.1672 0.0000
v  -0.1675 0.1021 -0.0000
# 12 vertices

vn -0.2822 -0.9490 -0.1403
vn -0.2819 -0.9493 0.1392
vn -0.4157 -0.1655 0.8943
vn 0.8010 -0.2529 0.5427
vn 0.7997 -0.2519 -0.5451
vn 0.6097 -0.3792 0.6961
vn 0.6080 -0.3778 -0.6982
vn 0.3300 -0.7977 0.5047
vn -0.4179 -0.1637 -0.8936
vn -0.7118 -0.1027 0.6948
vn -0.5458 -0.6634 0.5119
vn 0.3288 -0.7968 -0.5070
vn -0.7135 -0.1013 -0.6933
vn -0.8306 -0.2397 -0.5026
vn -0.8294 -0.2407 0.5042
vn -0.5470 -0.6624 -0.5119
# 16 vertex normals

g armr_0_0_010
usemtl Material__1100
s 1
f 43//77 44//77 45//77 
f 46//78 43//78 45//78 
f 47//79 48//79 46//79 
f 43//80 46//80 49//80 
f 44//81 43//81 49//81 
f 49//82 46//82 48//82 
f 44//83 49//83 50//83 
f 49//84 48//84 51//84 
f 50//85 52//85 44//85 
f 48//86 53//86 54//86 
f 48//87 54//87 51//87 
f 50//88 49//88 51//88 
f 53//89 50//89 54//89 
f 50//90 53//90 52//90 
f 53//91 48//91 47//91 
f 54//92 50//92 51//92 
# 0 polygons - 16 triangles

#
# object armr_0_0_009
#

v  -0.1244 0.1657 0.0462
v  -0.0759 0.2057 0.0226
v  -0.1062 0.2115 0.0317
v  -0.1581 0.1673 0.0308
v  -0.0760 0.2057 -0.0227
v  -0.1047 0.2336 0.0000
v  -0.1312 0.2223 0.0136
v  -0.1062 0.2115 -0.0317
v  -0.1312 0.2224 -0.0136
v  -0.1768 0.1672 0.0000
v  -0.1582 0.1673 -0.0308
v  -0.1245 0.1658 -0.0463
v  -0.0951 0.1502 -0.0001
# 13 vertices

vn 0.3138 0.1703 0.9341
vn -0.3630 0.4096 0.8369
vn 0.6956 0.7184 -0.0001
vn 0.3136 0.7722 0.5525
vn -0.3909 0.4431 0.8068
vn 0.3123 0.7733 -0.5518
vn -0.0565 0.8215 -0.5674
vn -0.3898 0.9209 0.0013
vn -0.7396 0.5017 0.4486
vn -0.7704 0.6375 0.0015
vn -0.3649 0.4112 -0.8353
vn -0.3928 0.4446 -0.8050
vn 0.6662 -0.4667 -0.5818
vn -0.7407 0.5026 -0.4459
vn 0.6675 -0.4678 0.5793
vn 0.9452 -0.3264 -0.0014
vn -0.0552 0.8204 0.5691
vn 0.3115 0.1721 -0.9345
# 18 vertex normals

g armr_0_0_009
usemtl Material__1099
s 1
f 55//93 56//93 57//93 
f 57//94 58//94 55//94 
f 59//95 60//95 56//95 
f 60//96 57//96 56//96 
f 61//97 58//97 57//97 
f 62//98 60//98 59//98 
f 60//99 62//99 63//99 
f 60//100 63//100 61//100 
f 58//101 61//101 64//101 
f 63//102 64//102 61//102 
f 65//103 62//103 66//103 
f 62//104 65//104 63//104 
f 67//105 66//105 59//105 
f 65//106 64//106 63//106 
f 55//107 67//107 56//107 
f 56//108 67//108 59//108 
f 57//109 60//109 61//109 
f 59//110 66//110 62//110 
# 0 polygons - 18 triangles

#
# object arml_0_0_008
#

v  0.0972 0.1506 0.0000
v  0.1240 0.1652 -0.0462
v  0.1151 0.0952 0.0000
v  0.0947 0.1495 0.0000
v  0.1582 0.1662 -0.0308
v  0.1417 0.1007 -0.0263
v  0.1240 0.1652 0.0462
v  0.1445 0.0828 0.0000
v  0.1775 0.1668 0.0000
v  0.1674 0.1014 0.0000
v  0.1417 0.1007 0.0263
v  0.1582 0.1662 0.0308
# 12 vertices

vn -0.7980 -0.2585 -0.5443
vn 0.3909 -0.9182 -0.0635
vn 0.4089 -0.1649 -0.8975
vn 0.3909 -0.9182 0.0635
vn -0.7980 -0.2585 0.5443
vn -0.6084 -0.3822 -0.6955
vn -0.3355 -0.7947 -0.5059
vn 0.8234 -0.2425 -0.5130
vn 0.7117 -0.1101 -0.6938
vn -0.6084 -0.3822 0.6955
vn -0.3355 -0.7947 0.5059
vn 0.4089 -0.1649 0.8975
vn 0.7117 -0.1101 0.6938
vn 0.5413 -0.6671 -0.5119
vn 0.8234 -0.2425 0.5130
vn 0.5413 -0.6671 0.5119
# 16 vertex normals

g arml_0_0_008
usemtl Material__1098
s 1
f 68//111 69//111 70//111 
f 69//112 68//112 71//112 
f 72//113 73//113 69//113 
f 68//114 74//114 71//114 
f 74//115 68//115 70//115 
f 70//116 69//116 73//116 
f 70//117 73//117 75//117 
f 76//118 73//118 72//118 
f 73//119 76//119 77//119 
f 74//120 70//120 78//120 
f 78//121 70//121 75//121 
f 78//122 79//122 74//122 
f 76//123 78//123 77//123 
f 73//124 77//124 75//124 
f 78//125 76//125 79//125 
f 77//126 78//126 75//126 
# 0 polygons - 16 triangles

#
# object arml_0_0_007
#

v  0.1240 0.1652 -0.0462
v  0.0760 0.2055 -0.0227
v  0.1069 0.2120 -0.0317
v  0.0947 0.1495 0.0000
v  0.0754 0.2062 0.0227
v  0.1046 0.2335 0.0000
v  0.1311 0.2224 -0.0136
v  0.1062 0.2114 0.0317
v  0.1582 0.1662 -0.0308
v  0.1240 0.1652 0.0462
v  0.1311 0.2224 0.0136
v  0.1775 0.1668 0.0000
v  0.1582 0.1662 0.0308
# 13 vertices

vn -0.3107 0.1759 -0.9341
vn -0.6714 -0.4597 -0.5812
vn -0.9475 -0.3196 -0.0070
vn -0.3224 0.7728 -0.5467
vn 0.0611 0.8285 -0.5566
vn -0.6907 0.7229 -0.0199
vn -0.2951 0.7775 0.5554
vn 0.3676 0.3950 -0.8420
vn -0.6709 -0.4606 0.5812
vn 0.4083 0.4414 -0.7990
vn 0.0521 0.8212 0.5682
vn 0.3855 0.9227 0.0000
vn 0.7310 0.4957 -0.4690
vn 0.7676 0.6410 0.0000
vn 0.3658 0.4037 0.8386
vn 0.3948 0.4376 0.8079
vn -0.3053 0.1760 0.9359
vn 0.7310 0.4957 0.4690
# 18 vertex normals

g arml_0_0_007
usemtl Material__1097
s 1
f 80//127 81//127 82//127 
f 80//128 83//128 81//128 
f 83//129 84//129 81//129 
f 85//130 82//130 81//130 
f 82//131 85//131 86//131 
f 84//132 85//132 81//132 
f 87//133 85//133 84//133 
f 82//134 88//134 80//134 
f 83//135 89//135 84//135 
f 88//136 82//136 86//136 
f 85//137 87//137 90//137 
f 86//138 85//138 90//138 
f 91//139 88//139 86//139 
f 91//140 86//140 90//140 
f 92//141 87//141 89//141 
f 92//142 90//142 87//142 
f 84//143 89//143 87//143 
f 90//144 92//144 91//144 
# 0 polygons - 18 triangles

#
# object unknown_16DA4062_0_008
#

v  0.0136 0.1495 -0.0136
v  -0.0136 0.1495 0.0136
v  0.0136 0.1495 0.0136
# 3 vertices

vn 0.0000 1.0000 0.0000
# 1 vertex normals

vt 1.4067 -1.0869 0.0000
vt -0.4062 -1.0869 0.0000
# 2 texture coords

g unknown_16DA4062_0_008
usemtl Material__1107
s 1
f 93/1/145 94/2/145 95/1/145 
# 0 polygons - 1 triangles

#
# object unknown_0_0_006
#

v  0.0136 0.1495 -0.0136
v  -0.0136 0.1495 0.0136
v  0.0136 0.1495 0.0136
# 3 vertices

vn 0.0000 1.0000 0.0000
# 1 vertex normals

g unknown_0_0_006
usemtl Material__1120
s 1
f 96//146 97//146 98//146 
# 0 polygons - 1 triangles

#
# object body_1DE74530_0_006
#

v  -0.0970 0.0816 0.0970
v  -0.1360 0.1459 0.0000
v  -0.1287 0.0816 0.0000
v  -0.1169 0.0816 0.0000
v  -0.0961 0.1459 0.0961
v  -0.0825 0.0816 0.0825
v  -0.0453 0.0807 0.1106
v  -0.1178 0.2102 0.0000
v  -0.0526 0.0797 0.1269
v  -0.0209 0.0453 0.1396
v  -0.0834 0.2102 0.0834
v  -0.0000 0.0453 0.1432
v  -0.0236 0.0444 0.1577
v  -0.0000 0.1459 0.1359
v  -0.0000 0.0444 0.1631
v  0.0235 0.0444 0.1577
v  0.0525 0.0797 0.1269
v  0.0208 0.0453 0.1396
v  0.0970 0.0816 0.0970
v  0.0453 0.0807 0.1106
v  0.0825 0.0816 0.0825
v  0.1169 0.0816 0.0000
v  0.1287 0.0816 0.0000
v  0.0960 0.1459 0.0961
v  0.1359 0.1459 0.0000
v  0.0834 0.2102 0.0834
v  -0.0000 0.2102 0.1178
v  0.1178 0.2102 0.0000
# 28 vertices

vn -0.9450 -0.1065 0.3091
vn 0.0000 -1.0000 -0.0000
vn -0.9234 0.0184 0.3833
vn -0.0139 -0.9998 -0.0139
vn -0.8938 0.2518 0.3710
vn -0.5579 0.0195 0.8296
vn -0.0026 -0.9984 -0.0566
vn -0.6347 -0.7029 -0.3211
vn -0.8951 0.2494 0.3697
vn 0.0085 -0.9988 -0.0487
vn -0.7020 -0.6982 -0.1402
vn -0.3774 0.1753 0.9093
vn 0.0105 -0.9989 -0.0454
vn -0.0105 -0.9989 -0.0454
vn -0.5068 0.2915 0.8113
vn 0.7020 -0.6982 -0.1402
vn -0.0085 -0.9988 -0.0487
vn 0.0026 -0.9984 -0.0566
vn 0.6347 -0.7029 -0.3211
vn 0.0139 -0.9998 -0.0139
vn 0.9503 0.0178 0.3108
vn 0.5579 0.0195 0.8296
vn 0.9186 -0.1035 0.3813
vn 0.3697 0.2494 0.8951
vn 0.3710 0.2518 0.8938
vn 0.8944 0.2496 0.3712
vn 0.8944 0.2520 0.3694
vn -0.3712 0.2496 0.8944
vn 0.8505 -0.4002 0.3414
vn 0.2176 0.2525 0.9428
vn -0.2176 0.2525 0.9428
vn -0.3694 0.2520 0.8944
vn 0.3685 0.2758 0.8878
# 33 vertex normals

vt 0.1426 0.1953 0.0000
vt 0.0000 0.5791 0.0000
vt 0.0278 0.1953 0.0000
vt 0.0693 0.1953 0.0000
vt 0.1460 0.5791 0.0000
vt 0.1953 0.1953 0.0000
vt 0.3335 0.1914 0.0000
vt 0.0669 0.9639 0.0000
vt 0.3057 0.1895 0.0000
vt 0.4243 -0.0176 0.0000
vt 0.1934 0.9639 0.0000
vt 0.4995 -0.0176 0.0000
vt 0.4116 -0.0205 0.0000
vt 0.5000 0.5791 0.0000
vt 0.4995 -0.0205 0.0000
vt 0.5879 -0.0205 0.0000
vt 0.6938 0.1895 0.0000
vt 0.5752 -0.0176 0.0000
vt 0.8569 0.1953 0.0000
vt 0.6660 0.1914 0.0000
vt 0.8042 0.1953 0.0000
vt 0.9302 0.1953 0.0000
vt 0.9717 0.1953 0.0000
vt 0.8535 0.5791 0.0000
vt 1.0000 0.5791 0.0000
vt 0.8062 0.9639 0.0000
vt 0.5000 0.9639 0.0000
vt 0.9326 0.9639 0.0000
# 28 texture coords

g body_1DE74530_0_006
usemtl Material__1104
s 1
f 99/3/147 100/4/147 101/5/147 
f 102/6/148 99/3/148 101/5/148 
f 99/3/149 103/7/149 100/4/149 
f 102/6/148 104/8/148 99/3/148 
f 105/9/150 99/3/150 104/8/150 
f 103/7/151 106/10/151 100/4/151 
f 107/11/152 103/7/152 99/3/152 
f 105/9/153 107/11/153 99/3/153 
f 108/12/154 107/11/154 105/9/154 
f 103/7/155 109/13/155 106/10/155 
f 110/14/156 111/15/156 108/12/156 
f 108/12/157 111/15/157 107/11/157 
f 107/11/158 112/16/158 103/7/158 
f 110/14/159 113/17/159 111/15/159 
f 114/18/160 113/17/160 110/14/160 
f 111/15/161 112/16/161 107/11/161 
f 115/19/162 114/18/162 116/20/162 
f 114/18/163 110/14/163 116/20/163 
f 117/21/164 115/19/164 118/22/164 
f 115/19/165 116/20/165 118/22/165 
f 117/21/148 119/23/148 120/24/148 
f 117/21/166 118/22/166 119/23/166 
f 121/25/167 122/26/167 117/21/167 
f 117/21/148 120/24/148 121/25/148 
f 115/19/168 117/21/168 122/26/168 
f 121/25/169 123/27/169 122/26/169 
f 122/26/170 124/28/170 125/29/170 
f 122/26/171 125/29/171 112/16/171 
f 123/27/172 124/28/172 122/26/172 
f 123/27/173 126/30/173 124/28/173 
f 112/16/174 109/13/174 103/7/174 
f 115/19/175 122/26/175 114/18/175 
f 114/18/176 112/16/176 113/17/176 
f 111/15/177 113/17/177 112/16/177 
f 112/16/178 125/29/178 109/13/178 
f 114/18/179 122/26/179 112/16/179 
# 0 polygons - 36 triangles

#
# object body_0_0_005
#

v  -0.0000 0.0335 -0.0680
v  -0.0480 0.0335 -0.0480
v  -0.0825 0.0816 -0.0825
v  -0.1169 0.0816 0.0000
v  -0.0680 0.0335 0.0000
v  -0.0000 0.0816 -0.1169
v  -0.0000 0.0163 0.0000
v  0.0825 0.0816 -0.0825
v  -0.0825 0.0816 0.0825
v  0.0480 0.0335 -0.0480
v  -0.0480 0.0335 0.0480
v  -0.0000 0.0335 0.0680
v  0.0680 0.0335 0.0000
v  0.0480 0.0335 0.0480
v  0.1169 0.0816 0.0000
v  0.0825 0.0816 0.0825
v  -0.0000 0.0734 0.1060
v  -0.0000 0.0453 0.1432
v  -0.0453 0.0807 0.1106
v  0.0208 0.0453 0.1396
v  -0.0209 0.0453 0.1396
v  0.0453 0.0807 0.1106
# 22 vertices

vn -0.2797 -0.6838 -0.6739
vn -0.6731 -0.6841 -0.2811
vn -0.6726 -0.6853 -0.2792
vn -0.2807 -0.6850 -0.6723
vn -0.1014 -0.9644 -0.2443
vn -0.2443 -0.9644 -0.1014
vn 0.2807 -0.6850 -0.6723
vn -0.6723 -0.6850 0.2807
vn 0.1014 -0.9644 -0.2443
vn -0.2443 -0.9644 0.1014
vn 0.2797 -0.6838 -0.6739
vn -0.6739 -0.6838 0.2797
vn -0.1014 -0.9644 0.2443
vn 0.2443 -0.9644 -0.1014
vn 0.2443 -0.9644 0.1014
vn -0.2797 -0.6838 0.6739
vn 0.6731 -0.6841 -0.2811
vn 0.1014 -0.9644 0.2443
vn 0.6726 -0.6853 0.2792
vn 0.6726 -0.6853 -0.2792
vn 0.2651 -0.6658 0.6975
vn 0.2797 -0.6838 0.6739
vn -0.1847 -0.7839 -0.5927
vn -0.1410 -0.9778 0.1549
vn -0.1043 -0.7933 -0.5998
vn 0.1410 -0.5678 -0.8110
vn 0.1808 -0.6957 -0.6952
vn 0.6731 -0.6841 0.2811
vn -0.2651 -0.6658 0.6975
vn 0.1410 -0.9778 0.1549
# 30 vertex normals

g body_0_0_005
usemtl Material__1108
s 1
f 127//180 128//180 129//180 
f 128//181 130//181 129//181 
f 128//182 131//182 130//182 
f 127//183 129//183 132//183 
f 133//184 128//184 127//184 
f 133//185 131//185 128//185 
f 134//186 127//186 132//186 
f 131//187 135//187 130//187 
f 133//188 127//188 136//188 
f 133//189 137//189 131//189 
f 134//190 136//190 127//190 
f 131//191 137//191 135//191 
f 133//192 138//192 137//192 
f 133//193 136//193 139//193 
f 133//194 139//194 140//194 
f 138//195 135//195 137//195 
f 141//196 136//196 134//196 
f 133//197 140//197 138//197 
f 141//198 140//198 139//198 
f 141//199 139//199 136//199 
f 138//200 142//200 143//200 
f 138//201 140//201 142//201 
f 144//202 145//202 143//202 
f 143//203 145//203 135//203 
f 143//204 146//204 144//204 
f 144//205 147//205 145//205 
f 143//206 148//206 146//206 
f 141//207 142//207 140//207 
f 138//208 143//208 135//208 
f 148//209 143//209 142//209 
# 0 polygons - 30 triangles

#
# object body_1ABBA5DA_0_004
#

v  -0.0000 0.0816 -0.1169
v  -0.0825 0.0816 -0.0825
v  -0.0906 0.0816 -0.0906
v  -0.1287 0.0816 0.0000
v  -0.0000 0.0816 -0.1287
v  -0.0961 0.1459 -0.0961
v  -0.0000 0.1459 -0.1359
v  -0.1360 0.1459 0.0000
v  -0.0834 0.2103 -0.0834
v  0.0906 0.0816 -0.0906
v  -0.1169 0.0816 0.0000
v  -0.1178 0.2102 0.0000
v  0.0825 0.0816 -0.0825
v  0.1287 0.0816 0.0000
v  0.1169 0.0816 0.0000
v  0.0960 0.1459 -0.0961
v  0.1359 0.1459 0.0000
v  0.0834 0.2103 -0.0834
v  0.1178 0.2102 0.0000
v  -0.0000 0.2103 -0.1178
# 20 vertices

vn 0.0000 -1.0000 -0.0000
vn -0.9164 -0.1100 -0.3849
vn -0.3811 -0.1098 -0.9180
vn -0.3852 -0.1033 -0.9170
vn -0.8944 0.2496 -0.3712
vn -0.9186 -0.1035 -0.3813
vn -0.8944 0.2520 -0.3694
vn -0.3712 0.2496 -0.8944
vn 0.3852 -0.1033 -0.9170
vn 0.9180 -0.1098 -0.3811
vn 0.9170 -0.1033 -0.3852
vn 0.8951 0.2494 -0.3697
vn 0.8938 0.2518 -0.3710
vn 0.3811 -0.1098 -0.9180
vn -0.3694 0.2520 -0.8944
vn 0.3697 0.2494 -0.8951
vn 0.3710 0.2518 -0.8938
# 17 vertex normals

vt 0.5000 -0.0039 0.0000
vt 0.1611 -0.0039 0.0000
vt 0.1577 -0.0049 0.0000
vt -0.1992 -0.0049 0.0000
vt 0.5000 -0.0049 0.0000
vt 0.1563 0.2500 0.0000
vt 0.5000 0.2500 0.0000
vt -0.2021 0.2500 0.0000
vt 0.1606 0.5049 0.0000
vt 0.8418 -0.0049 0.0000
vt -0.1943 -0.0039 0.0000
vt -0.1948 0.5049 0.0000
vt 0.8384 -0.0039 0.0000
vt 1.1992 -0.0049 0.0000
vt 1.1943 -0.0039 0.0000
vt 0.8433 0.2500 0.0000
vt 1.2021 0.2500 0.0000
vt 0.8389 0.5049 0.0000
vt 1.1948 0.5049 0.0000
vt 0.5000 0.5049 0.0000
# 20 texture coords

g body_1ABBA5DA_0_004
usemtl Material__1103
s 1
f 149/31/210 150/32/210 151/33/210 
f 150/32/210 152/34/210 151/33/210 
f 149/31/210 151/33/210 153/35/210 
f 152/34/211 154/36/211 151/33/211 
f 155/37/212 151/33/212 154/36/212 
f 155/37/213 153/35/213 151/33/213 
f 156/38/214 157/39/214 154/36/214 
f 152/34/215 156/38/215 154/36/215 
f 158/40/210 149/31/210 153/35/210 
f 150/32/210 159/41/210 152/34/210 
f 156/38/216 160/42/216 157/39/216 
f 157/39/217 155/37/217 154/36/217 
f 158/40/210 161/43/210 149/31/210 
f 155/37/218 158/40/218 153/35/218 
f 162/44/210 163/45/210 161/43/210 
f 162/44/210 161/43/210 158/40/210 
f 158/40/219 164/46/219 165/47/219 
f 158/40/220 165/47/220 162/44/220 
f 164/46/221 166/48/221 167/49/221 
f 164/46/222 167/49/222 165/47/222 
f 155/37/223 164/46/223 158/40/223 
f 157/39/224 168/50/224 155/37/224 
f 168/50/225 166/48/225 164/46/225 
f 168/50/226 164/46/226 155/37/226 
# 0 polygons - 24 triangles

#
# object body_6013DBF7_0_003
#

v  -0.0834 0.2103 -0.0834
v  -0.0480 0.2574 -0.0480
v  -0.0000 0.2574 -0.0680
v  -0.1178 0.2102 0.0000
v  0.0834 0.2103 -0.0834
v  -0.0000 0.2103 -0.1178
v  -0.0834 0.2102 0.0834
v  -0.0680 0.2574 0.0000
v  -0.0000 0.2746 0.0000
v  0.0480 0.2574 -0.0480
v  -0.0480 0.2574 0.0480
v  0.1178 0.2102 0.0000
v  -0.0000 0.2574 0.0680
v  0.0680 0.2574 0.0000
v  0.0480 0.2574 0.0480
v  0.0834 0.2102 0.0834
v  -0.0000 0.2102 0.1178
# 17 vertices

vn -0.2738 0.7000 -0.6596
vn -0.6603 0.6998 -0.2727
vn 0.2730 0.6990 -0.6609
vn -0.2730 0.6990 -0.6609
vn -0.6609 0.6990 0.2730
vn -0.6607 0.6988 -0.2742
vn -0.1014 0.9644 -0.2443
vn -0.2443 0.9644 -0.1014
vn 0.2738 0.7000 -0.6596
vn -0.6596 0.7000 0.2738
vn -0.2443 0.9644 0.1014
vn 0.1014 0.9644 -0.2443
vn 0.6603 0.6998 -0.2727
vn -0.2738 0.7000 0.6596
vn 0.6607 0.6988 -0.2742
vn 0.2443 0.9644 -0.1014
vn 0.2443 0.9644 0.1014
vn 0.1014 0.9644 0.2443
vn 0.6596 0.7000 0.2738
vn 0.6609 0.6990 0.2730
vn -0.1014 0.9644 0.2443
vn 0.2730 0.6990 0.6609
vn 0.2738 0.7000 0.6596
vn -0.2730 0.6990 0.6609
# 24 vertex normals

vt -0.1123 0.3090 0.0000
vt 0.1465 0.4031 0.0000
vt 0.5000 0.3500 0.0000
vt -0.3652 0.5320 0.0000
vt 1.1123 0.3090 0.0000
vt 0.5000 0.2168 0.0000
vt -0.1123 0.7543 0.0000
vt 0.0000 0.5320 0.0000
vt 0.5000 0.5320 0.0000
vt 0.8535 0.4031 0.0000
vt 0.1465 0.6602 0.0000
vt 1.3652 0.5320 0.0000
vt 0.5000 0.7133 0.0000
vt 1.0000 0.5320 0.0000
vt 0.8535 0.6602 0.0000
vt 1.1123 0.7543 0.0000
vt 0.5000 0.8465 0.0000
# 17 texture coords

g body_6013DBF7_0_003
usemtl Material__1106
s 1
f 169/51/227 170/52/227 171/53/227 
f 172/54/228 170/52/228 169/51/228 
f 171/53/229 173/55/229 174/56/229 
f 169/51/230 171/53/230 174/56/230 
f 175/57/231 176/58/231 172/54/231 
f 172/54/232 176/58/232 170/52/232 
f 177/59/233 171/53/233 170/52/233 
f 177/59/234 170/52/234 176/58/234 
f 171/53/235 178/60/235 173/55/235 
f 175/57/236 179/61/236 176/58/236 
f 177/59/237 176/58/237 179/61/237 
f 177/59/238 178/60/238 171/53/238 
f 178/60/239 180/62/239 173/55/239 
f 175/57/240 181/63/240 179/61/240 
f 178/60/241 182/64/241 180/62/241 
f 177/59/242 182/64/242 178/60/242 
f 177/59/243 183/65/243 182/64/243 
f 177/59/244 181/63/244 183/65/244 
f 182/64/245 183/65/245 184/66/245 
f 182/64/246 184/66/246 180/62/246 
f 177/59/247 179/61/247 181/63/247 
f 181/63/248 185/67/248 184/66/248 
f 181/63/249 184/66/249 183/65/249 
f 175/57/250 185/67/250 181/63/250 
# 0 polygons - 24 triangles

#
# object body_46FC89AF_0_002
#

v  -0.1387 0.1767 0.0000
v  -0.1224 0.1468 0.0218
v  -0.1251 0.1468 0.0381
v  -0.1278 0.1631 0.0000
v  -0.1060 0.0924 0.1006
v  -0.0979 0.0788 0.0952
v  -0.0680 0.0680 0.1305
v  -0.0680 0.0544 0.1169
v  -0.0000 0.0680 0.1223
v  -0.0000 0.0544 0.1088
v  -0.1278 0.1903 0.0000
v  -0.1142 0.1468 0.0544
v  -0.0979 0.1060 0.0952
v  -0.0680 0.0816 0.1169
v  -0.0000 0.0816 0.1088
v  0.0680 0.0680 0.1305
v  0.1060 0.0924 0.1006
v  0.0979 0.1060 0.0952
v  0.0680 0.0816 0.1169
v  0.1250 0.1468 0.0381
v  0.1142 0.1468 0.0544
v  0.1386 0.1767 0.0000
v  0.1278 0.1903 0.0000
v  0.1223 0.1468 0.0218
v  0.0979 0.0788 0.0952
v  0.0680 0.0544 0.1169
v  0.1278 0.1631 0.0000
# 27 vertices

vn -0.8242 -0.5494 -0.1374
vn -0.7532 -0.6026 -0.2636
vn -0.8728 -0.4671 -0.1415
vn -0.8700 -0.4712 -0.1450
vn -0.7377 -0.4774 0.4774
vn -0.6992 -0.5843 0.4119
vn 0.0845 -0.7046 0.7046
vn -0.7634 0.3976 0.5090
vn -0.6188 0.4950 0.6100
vn -0.5110 0.5655 0.6473
vn -0.8123 0.2166 0.5415
vn 0.0641 0.7057 0.7057
vn -0.3073 0.5066 0.8056
vn 0.0845 0.7046 0.7046
vn 0.3073 0.5066 0.8056
vn -0.0641 0.7057 0.7057
vn 0.8123 0.2166 0.5415
vn 0.5110 0.5655 0.6473
vn 0.6412 0.5130 0.5707
vn 0.7907 0.3115 0.5271
vn -0.0845 0.7046 0.7046
vn 0.8728 -0.4671 -0.1415
vn 0.6992 -0.5843 0.4119
vn 0.7377 -0.4774 0.4774
vn 0.8700 -0.4712 -0.1450
vn -0.0845 -0.7046 0.7046
vn 0.7532 -0.6026 -0.2636
vn 0.8242 -0.5494 -0.1374
# 28 vertex normals

vt 1.0000 0.8164 0.0000
vt 0.8560 0.5977 0.0000
vt 0.8101 0.5977 0.0000
vt 0.9551 0.7188 0.0000
vt 0.5112 0.1992 0.0000
vt 0.4971 0.0977 0.0000
vt 0.2500 0.0195 0.0000
vt 0.2979 -0.0781 0.0000
vt 0.0000 0.0195 0.0000
vt 0.0479 -0.0781 0.0000
vt 0.9551 0.9180 0.0000
vt 0.7075 0.5977 0.0000
vt 0.4971 0.2969 0.0000
vt 0.2979 0.1172 0.0000
vt 0.0479 0.1172 0.0000
vt 0.2559 0.0195 0.0000
vt 0.5176 0.1992 0.0000
vt 0.5024 0.2969 0.0000
vt 0.3027 0.1172 0.0000
vt 0.8120 0.5977 0.0000
vt 0.7104 0.5977 0.0000
vt 0.9541 0.9180 0.0000
vt 0.0464 0.1172 0.0000
vt 0.8569 0.5977 0.0000
vt 0.5024 0.0977 0.0000
vt 0.3027 -0.0781 0.0000
vt 0.0464 -0.0781 0.0000
vt 0.9541 0.7188 0.0000
# 28 texture coords

g body_46FC89AF_0_002
usemtl Material__1105
s 1
f 186/68/251 187/69/251 188/70/251 
f 186/68/252 189/71/252 187/69/252 
f 190/72/253 187/69/253 191/73/253 
f 190/72/254 188/70/254 187/69/254 
f 192/74/255 191/73/255 193/75/255 
f 192/74/256 190/72/256 191/73/256 
f 194/76/257 193/75/257 195/77/257 
f 194/76/257 192/74/257 193/75/257 
f 196/78/258 188/70/258 197/79/258 
f 196/78/259 186/68/259 188/70/259 
f 198/80/260 188/70/260 190/72/260 
f 198/80/261 197/79/261 188/70/261 
f 192/74/262 199/81/262 198/80/262 
f 192/74/263 198/80/263 190/72/263 
f 199/81/264 194/76/264 200/82/264 
f 199/81/264 192/74/264 194/76/264 
f 201/83/265 202/84/265 203/85/265 
f 201/83/266 203/85/266 204/86/266 
f 205/87/267 206/88/267 203/85/267 
f 205/87/268 203/85/268 202/84/268 
f 207/68/269 208/89/269 206/88/269 
f 207/68/270 206/88/270 205/87/270 
f 194/76/271 204/86/271 200/90/271 
f 194/76/271 201/83/271 204/86/271 
f 209/91/272 202/84/272 210/92/272 
f 210/92/273 202/84/273 201/83/273 
f 210/92/274 201/83/274 211/93/274 
f 209/91/275 205/87/275 202/84/275 
f 211/93/276 194/76/276 195/94/276 
f 211/93/276 201/83/276 194/76/276 
f 209/91/277 212/95/277 207/68/277 
f 209/91/278 207/68/278 205/87/278 
# 0 polygons - 32 triangles

