# 3ds Max Wavefront OBJ Exporter v0.97b - (c)2007 guruware
# File Created: 27.04.2019 19:56:11

mtllib kirbypika.mtl

#
# object legr_0_0_008
#

v  -0.0751 0.0108 -0.0896
v  -0.1154 0.0539 -0.0306
v  -0.0727 0.0525 -0.0786
v  -0.0401 0.0314 -0.0981
v  -0.0572 0.0872 -0.0073
v  -0.0141 0.0503 -0.0658
v  -0.1138 0.0100 -0.0366
v  -0.0907 -0.0042 -0.0415
v  -0.0131 0.0115 -0.0783
v  -0.1075 0.0416 0.0821
v  -0.1304 0.0206 0.0315
v  -0.0025 0.0499 0.0023
v  -0.0195 -0.0030 -0.0261
v  -0.1068 -0.0040 0.0527
v  -0.0589 0.0407 0.0907
v  -0.0046 0.0071 0.0046
v  -0.1122 0.0200 0.0912
v  -0.0169 0.0165 0.0540
v  -0.0439 -0.0027 0.0672
v  -0.0882 0.0015 0.0833
v  -0.0622 0.0181 0.1011
# 21 vertices

vn -0.7269 0.2144 -0.6524
vn -0.3695 0.2572 -0.8929
vn -0.3582 0.8677 -0.3447
vn 0.1582 0.7913 -0.5907
vn -0.8071 0.0517 -0.5882
vn 0.1322 0.8796 -0.4570
vn -0.5385 -0.7395 -0.4039
vn 0.6829 0.2398 -0.6900
vn -0.5307 0.8377 0.1286
vn -0.9715 -0.0023 -0.2370
vn 0.9826 0.0799 -0.1677
vn 0.0581 -0.9641 -0.2591
vn -0.8024 0.5847 0.1198
vn 0.0757 -0.9589 -0.2734
vn -0.6938 -0.7178 -0.0580
vn -0.5339 -0.8408 -0.0897
vn 0.4725 0.7932 0.3842
vn 0.9930 -0.0556 -0.1043
vn 0.0162 -0.9999 0.0048
vn 0.7010 -0.7049 -0.1086
vn -0.9075 0.3129 0.2802
vn -0.0596 0.9024 0.4267
vn 0.9680 -0.0347 0.2486
vn -0.7941 -0.5597 0.2369
vn 0.3962 -0.9120 0.1065
vn 0.7183 0.4752 0.5081
vn -0.4627 -0.7803 0.4207
vn 0.0191 -0.9998 0.0081
vn -0.1500 0.4306 0.8900
vn -0.1630 0.4111 0.8969
vn -0.0235 -0.9814 0.1907
vn 0.6465 -0.7030 0.2962
vn 0.7092 0.2084 0.6735
vn -0.1805 -0.5744 0.7984
vn 0.1291 -0.8132 0.5675
vn 0.6335 -0.4593 0.6227
vn 0.1518 -0.5873 -0.7950
vn 0.5709 0.8157 -0.0932
# 38 vertex normals

g legr_0_0_008
usemtl Material__944
s 1
f 1//1 2//1 3//1 
f 4//2 1//2 3//2 
f 2//3 5//3 3//3 
f 4//4 3//4 6//4 
f 2//5 1//5 7//5 
f 6//6 3//6 5//6 
f 1//7 8//7 7//7 
f 6//8 9//8 4//8 
f 5//9 2//9 10//9 
f 2//10 7//10 11//10 
f 12//11 9//11 6//11 
f 1//12 9//12 13//12 
f 2//13 11//13 10//13 
f 1//14 13//14 8//14 
f 7//15 14//15 11//15 
f 14//16 7//16 8//16 
f 12//17 5//17 15//17 
f 9//18 12//18 16//18 
f 13//19 14//19 8//19 
f 13//20 9//20 16//20 
f 10//21 11//21 17//21 
f 10//22 15//22 5//22 
f 16//23 12//23 18//23 
f 11//24 14//24 17//24 
f 16//25 19//25 13//25 
f 15//26 18//26 12//26 
f 20//27 17//27 14//27 
f 13//28 19//28 14//28 
f 10//29 21//29 15//29 
f 10//30 17//30 21//30 
f 20//31 14//31 19//31 
f 19//32 16//32 18//32 
f 18//33 15//33 21//33 
f 17//34 20//34 21//34 
f 19//35 21//35 20//35 
f 21//36 19//36 18//36 
f 9//37 1//37 4//37 
f 12//38 6//38 5//38 
# 0 polygons - 38 triangles

#
# object legl_0_0_007
#

v  0.0140 0.0106 -0.0787
v  0.0140 0.0493 -0.0659
v  0.0406 0.0314 -0.0984
v  0.0022 0.0480 0.0021
v  0.0725 0.0532 -0.0786
v  0.0560 0.0868 -0.0069
v  0.0761 0.0117 -0.0900
v  0.0588 0.0395 0.0906
v  0.0055 0.0052 0.0041
v  0.0175 0.0145 0.0535
v  0.0207 -0.0042 -0.0267
v  0.0920 -0.0033 -0.0420
v  0.1150 0.0554 -0.0304
v  0.1079 -0.0035 0.0522
v  0.0450 -0.0041 0.0667
v  0.1147 0.0115 -0.0369
v  0.1073 0.0418 0.0821
v  0.0891 0.0012 0.0829
v  0.1309 0.0219 0.0313
v  0.1126 0.0202 0.0910
v  0.0626 0.0168 0.1008
# 21 vertices

vn -0.6881 0.2275 -0.6891
vn -0.9841 0.0543 -0.1690
vn -0.1558 0.8800 -0.4487
vn -0.5932 0.8004 -0.0865
vn -0.1340 -0.5835 -0.8010
vn -0.4950 0.7760 0.3909
vn -0.9909 -0.0820 -0.1069
vn -0.1791 0.7922 -0.5833
vn -0.9671 -0.0639 0.2462
vn -0.6809 -0.7230 -0.1169
vn -0.0308 -0.9628 -0.2685
vn 0.3639 0.2759 -0.8896
vn -0.0485 -0.9579 -0.2829
vn 0.3346 0.8806 -0.3356
vn 0.0087 -1.0000 -0.0016
vn 0.0116 -0.9999 -0.0049
vn 0.8064 0.0798 -0.5859
vn 0.5070 0.8509 0.1378
vn 0.0505 -0.9821 0.1813
vn 0.7856 0.6055 0.1271
vn 0.7219 0.2407 -0.6488
vn 0.4835 -0.7712 0.4141
vn 0.5572 -0.8247 -0.0967
vn 0.9716 0.0269 -0.2350
vn -0.7160 0.1822 0.6740
vn 0.7136 -0.6977 -0.0634
vn -0.7322 0.4502 0.5112
vn -0.6273 -0.7235 0.2881
vn 0.0337 0.8995 0.4356
vn -0.3709 -0.9236 0.0968
vn 0.5596 -0.7203 -0.4099
vn -0.6216 -0.4827 0.6169
vn -0.1075 -0.8219 0.5593
vn 0.1363 0.4260 0.8944
vn 0.1950 -0.5769 0.7932
vn 0.1499 0.4067 0.9012
vn 0.8089 -0.5397 0.2332
vn 0.8980 0.3352 0.2851
# 38 vertex normals

g legl_0_0_007
usemtl Material__943
s 1
f 22//39 23//39 24//39 
f 22//40 25//40 23//40 
f 26//41 23//41 27//41 
f 23//42 25//42 27//42 
f 28//43 22//43 24//43 
f 27//44 25//44 29//44 
f 25//45 22//45 30//45 
f 26//46 24//46 23//46 
f 25//47 30//47 31//47 
f 22//48 32//48 30//48 
f 22//49 28//49 32//49 
f 28//50 24//50 26//50 
f 32//51 28//51 33//51 
f 27//52 34//52 26//52 
f 32//53 35//53 36//53 
f 32//54 33//54 35//54 
f 28//55 34//55 37//55 
f 34//56 27//56 38//56 
f 35//57 39//57 36//57 
f 40//58 34//58 38//58 
f 34//59 28//59 26//59 
f 41//60 39//60 35//60 
f 37//61 35//61 33//61 
f 37//62 34//62 40//62 
f 29//63 31//63 42//63 
f 35//64 37//64 40//64 
f 31//65 29//65 25//65 
f 30//66 36//66 31//66 
f 29//67 38//67 27//67 
f 36//68 30//68 32//68 
f 33//69 28//69 37//69 
f 36//70 42//70 31//70 
f 42//71 36//71 39//71 
f 42//72 38//72 29//72 
f 39//73 41//73 42//73 
f 42//74 41//74 38//74 
f 35//75 40//75 41//75 
f 40//76 38//76 41//76 
# 0 polygons - 38 triangles

#
# object armr_0_0_006
#

v  -0.0977 0.1510 -0.0001
v  -0.1245 0.1658 -0.0463
v  -0.0951 0.1502 -0.0001
v  -0.1244 0.1657 0.0462
v  -0.1581 0.1673 0.0308
v  -0.1417 0.1012 0.0262
v  -0.1152 0.0955 -0.0001
v  -0.1418 0.1013 -0.0264
v  -0.1447 0.0833 -0.0001
v  -0.1582 0.1673 -0.0308
v  -0.1768 0.1672 0.0000
v  -0.1675 0.1021 -0.0000
# 12 vertices

vn -0.2822 -0.9490 -0.1403
vn -0.2819 -0.9493 0.1392
vn -0.4157 -0.1655 0.8943
vn 0.8010 -0.2529 0.5427
vn 0.7997 -0.2519 -0.5451
vn 0.6097 -0.3792 0.6961
vn 0.6080 -0.3778 -0.6982
vn 0.3300 -0.7977 0.5047
vn -0.4179 -0.1637 -0.8936
vn -0.7118 -0.1027 0.6948
vn -0.5458 -0.6634 0.5119
vn 0.3288 -0.7968 -0.5070
vn -0.7135 -0.1013 -0.6933
vn -0.8306 -0.2397 -0.5026
vn -0.8294 -0.2407 0.5042
vn -0.5470 -0.6624 -0.5119
# 16 vertex normals

g armr_0_0_006
usemtl Material__947
s 1
f 43//77 44//77 45//77 
f 46//78 43//78 45//78 
f 47//79 48//79 46//79 
f 43//80 46//80 49//80 
f 44//81 43//81 49//81 
f 49//82 46//82 48//82 
f 44//83 49//83 50//83 
f 49//84 48//84 51//84 
f 50//85 52//85 44//85 
f 48//86 53//86 54//86 
f 48//87 54//87 51//87 
f 50//88 49//88 51//88 
f 53//89 50//89 54//89 
f 50//90 53//90 52//90 
f 53//91 48//91 47//91 
f 54//92 50//92 51//92 
# 0 polygons - 16 triangles

#
# object armr_0_0_005
#

v  -0.1244 0.1657 0.0462
v  -0.0759 0.2057 0.0226
v  -0.1062 0.2115 0.0317
v  -0.1581 0.1673 0.0308
v  -0.0760 0.2057 -0.0227
v  -0.1047 0.2336 0.0000
v  -0.1312 0.2223 0.0136
v  -0.1062 0.2115 -0.0317
v  -0.1312 0.2224 -0.0136
v  -0.1768 0.1672 0.0000
v  -0.1582 0.1673 -0.0308
v  -0.1245 0.1658 -0.0463
v  -0.0951 0.1502 -0.0001
# 13 vertices

vn 0.3138 0.1703 0.9341
vn -0.3630 0.4096 0.8369
vn 0.6956 0.7184 -0.0001
vn 0.3136 0.7722 0.5525
vn -0.3909 0.4431 0.8068
vn 0.3123 0.7733 -0.5518
vn -0.0565 0.8215 -0.5674
vn -0.3898 0.9209 0.0013
vn -0.7396 0.5017 0.4486
vn -0.7704 0.6375 0.0015
vn -0.3649 0.4112 -0.8353
vn -0.3928 0.4446 -0.8050
vn 0.6662 -0.4667 -0.5818
vn -0.7407 0.5026 -0.4459
vn 0.6675 -0.4678 0.5793
vn 0.9452 -0.3264 -0.0014
vn -0.0552 0.8204 0.5691
vn 0.3115 0.1721 -0.9345
# 18 vertex normals

g armr_0_0_005
usemtl Material__948
s 1
f 55//93 56//93 57//93 
f 57//94 58//94 55//94 
f 59//95 60//95 56//95 
f 60//96 57//96 56//96 
f 61//97 58//97 57//97 
f 62//98 60//98 59//98 
f 60//99 62//99 63//99 
f 60//100 63//100 61//100 
f 58//101 61//101 64//101 
f 63//102 64//102 61//102 
f 65//103 62//103 66//103 
f 62//104 65//104 63//104 
f 67//105 66//105 59//105 
f 65//106 64//106 63//106 
f 55//107 67//107 56//107 
f 56//108 67//108 59//108 
f 57//109 60//109 61//109 
f 59//110 66//110 62//110 
# 0 polygons - 18 triangles

#
# object arml_0_0_004
#

v  0.0972 0.1506 0.0000
v  0.1240 0.1652 -0.0462
v  0.1151 0.0952 0.0000
v  0.0947 0.1495 0.0000
v  0.1582 0.1662 -0.0308
v  0.1417 0.1007 -0.0263
v  0.1240 0.1652 0.0462
v  0.1445 0.0828 0.0000
v  0.1775 0.1668 0.0000
v  0.1674 0.1014 0.0000
v  0.1417 0.1007 0.0263
v  0.1582 0.1662 0.0308
# 12 vertices

vn -0.7980 -0.2585 -0.5443
vn 0.3909 -0.9182 -0.0635
vn 0.4089 -0.1649 -0.8975
vn 0.3909 -0.9182 0.0635
vn -0.7980 -0.2585 0.5443
vn -0.6084 -0.3822 -0.6955
vn -0.3355 -0.7947 -0.5059
vn 0.8234 -0.2425 -0.5130
vn 0.7117 -0.1101 -0.6938
vn -0.6084 -0.3822 0.6955
vn -0.3355 -0.7947 0.5059
vn 0.4089 -0.1649 0.8975
vn 0.7117 -0.1101 0.6938
vn 0.5413 -0.6671 -0.5119
vn 0.8234 -0.2425 0.5130
vn 0.5413 -0.6671 0.5119
# 16 vertex normals

g arml_0_0_004
usemtl Material__946
s 1
f 68//111 69//111 70//111 
f 69//112 68//112 71//112 
f 72//113 73//113 69//113 
f 68//114 74//114 71//114 
f 74//115 68//115 70//115 
f 70//116 69//116 73//116 
f 70//117 73//117 75//117 
f 76//118 73//118 72//118 
f 73//119 76//119 77//119 
f 74//120 70//120 78//120 
f 78//121 70//121 75//121 
f 78//122 79//122 74//122 
f 76//123 78//123 77//123 
f 73//124 77//124 75//124 
f 78//125 76//125 79//125 
f 77//126 78//126 75//126 
# 0 polygons - 16 triangles

#
# object arml_0_0_003
#

v  0.1240 0.1652 -0.0462
v  0.0760 0.2055 -0.0227
v  0.1069 0.2120 -0.0317
v  0.0947 0.1495 0.0000
v  0.0754 0.2062 0.0227
v  0.1046 0.2335 0.0000
v  0.1311 0.2224 -0.0136
v  0.1062 0.2114 0.0317
v  0.1582 0.1662 -0.0308
v  0.1240 0.1652 0.0462
v  0.1311 0.2224 0.0136
v  0.1775 0.1668 0.0000
v  0.1582 0.1662 0.0308
# 13 vertices

vn -0.3107 0.1759 -0.9341
vn -0.6714 -0.4597 -0.5812
vn -0.9475 -0.3196 -0.0070
vn -0.3224 0.7728 -0.5467
vn 0.0611 0.8285 -0.5566
vn -0.6907 0.7229 -0.0199
vn -0.2951 0.7775 0.5554
vn 0.3676 0.3950 -0.8420
vn -0.6709 -0.4606 0.5812
vn 0.4083 0.4414 -0.7990
vn 0.0521 0.8212 0.5682
vn 0.3855 0.9227 0.0000
vn 0.7310 0.4957 -0.4690
vn 0.7676 0.6410 0.0000
vn 0.3658 0.4037 0.8386
vn 0.3948 0.4376 0.8079
vn -0.3053 0.1760 0.9359
vn 0.7310 0.4957 0.4690
# 18 vertex normals

g arml_0_0_003
usemtl Material__945
s 1
f 80//127 81//127 82//127 
f 80//128 83//128 81//128 
f 83//129 84//129 81//129 
f 85//130 82//130 81//130 
f 82//131 85//131 86//131 
f 84//132 85//132 81//132 
f 87//133 85//133 84//133 
f 82//134 88//134 80//134 
f 83//135 89//135 84//135 
f 88//136 82//136 86//136 
f 85//137 87//137 90//137 
f 86//138 85//138 90//138 
f 91//139 88//139 86//139 
f 91//140 86//140 90//140 
f 92//141 87//141 89//141 
f 92//142 90//142 87//142 
f 84//143 89//143 87//143 
f 90//144 92//144 91//144 
# 0 polygons - 18 triangles

#
# object body_149A2902_0_008
#

v  -0.1867 0.2655 -0.1405
v  -0.1939 0.2692 -0.1305
v  -0.1867 0.2728 -0.1359
v  -0.1903 0.2619 -0.1377
v  -0.1577 0.2429 -0.1115
v  -0.1921 0.2737 -0.1314
v  -0.1450 0.2528 -0.1196
v  -0.1640 0.2764 -0.0933
v  -0.1459 0.2755 -0.1097
v  -0.1713 0.2601 -0.0933
v  -0.1033 0.2048 -0.0734
v  -0.0852 0.2275 -0.0807
v  -0.1042 0.2021 -0.0444
v  -0.0480 0.2528 -0.0390
v  -0.0471 0.2356 -0.0091
v  0.1450 0.2528 -0.1196
v  0.1577 0.2429 -0.1115
v  0.1033 0.2048 -0.0734
v  0.1713 0.2601 -0.0933
v  0.1042 0.2021 -0.0444
v  0.1903 0.2619 -0.1377
v  0.1867 0.2655 -0.1405
v  0.0852 0.2275 -0.0807
v  0.1459 0.2755 -0.1097
v  0.0480 0.2528 -0.0390
v  0.1640 0.2764 -0.0933
v  0.0471 0.2356 -0.0091
v  0.1867 0.2728 -0.1359
v  0.1921 0.2737 -0.1314
v  0.1939 0.2692 -0.1305
# 30 vertices

vn -0.6694 0.3938 -0.6300
vn -0.7328 0.2617 -0.6281
vn -0.6622 -0.6689 0.3377
vn -0.6276 0.0966 -0.7725
vn 0.1283 -0.7207 -0.6812
vn 0.1487 -0.6842 -0.7140
vn -0.7494 0.4046 0.5242
vn 0.4551 0.4719 -0.7551
vn 0.0346 0.9872 -0.1559
vn -0.6445 -0.7340 0.2140
vn -0.7640 0.3395 0.5487
vn 0.5028 0.3649 -0.7836
vn -0.6530 -0.7296 0.2033
vn -0.0086 0.9979 -0.0650
vn 0.2568 -0.4748 -0.8418
vn 0.1338 -0.7240 -0.6767
vn 0.6103 0.3394 -0.7158
vn -0.4566 0.2029 0.8662
vn 0.1481 0.9828 0.1100
vn -0.6117 -0.7856 -0.0928
vn -0.5617 0.0895 0.8225
vn 0.6023 0.3197 -0.7314
vn -0.0499 -0.6697 -0.7410
vn -0.0585 0.8644 0.4994
vn 0.6117 -0.7856 -0.0928
vn 0.6530 -0.7296 0.2033
vn -0.1487 -0.6842 -0.7140
vn -0.1283 -0.7207 -0.6812
vn -0.6103 0.3394 -0.7158
vn -0.5028 0.3649 -0.7836
vn -0.1481 0.9828 0.1100
vn -0.6023 0.3197 -0.7314
vn 0.0585 0.8644 0.4994
vn 0.5617 0.0895 0.8225
vn -0.4551 0.4719 -0.7551
vn 0.4566 0.2029 0.8662
vn -0.0346 0.9872 -0.1559
vn 0.6694 0.3938 -0.6300
vn -0.3100 -0.5057 -0.8051
vn 0.0086 0.9979 -0.0650
vn 0.7328 0.2617 -0.6281
vn 0.6622 -0.6689 0.3377
vn 0.6276 0.0966 -0.7725
vn 0.6445 -0.7340 0.2140
vn 0.7640 0.3395 0.5487
vn 0.7494 0.4046 0.5242
# 46 vertex normals

vt 0.8535 0.4336 0.0000
vt 0.8594 0.2188 0.0000
vt 0.8613 0.4141 0.0000
vt 0.8477 0.3320 0.0000
vt 0.6035 0.3516 0.0000
vt 0.8672 0.2773 0.0000
vt 0.6035 0.6992 0.0000
vt 0.6523 0.1914 0.0000
vt 0.6309 0.6602 0.0000
vt 0.6387 0.0000 0.0000
vt 0.1953 0.4297 0.0000
vt 0.2031 0.8945 0.0000
vt 0.1016 0.0000 0.0000
vt 0.0039 1.0000 0.0000
vt -0.1309 0.5352 0.0000
vt 0.5684 0.4570 0.0000
vt 0.5527 0.1953 0.0000
vt 0.1172 0.3594 0.0000
vt 0.6074 0.0000 0.0000
vt 0.0215 0.1172 0.0000
vt 0.8105 0.1055 0.0000
vt 0.8223 0.1836 0.0000
vt 0.1543 0.7344 0.0000
vt 0.6250 0.4922 0.0000
vt 0.0000 1.0000 0.0000
vt 0.6445 0.1680 0.0000
vt -0.1543 0.7148 0.0000
vt 0.8379 0.1914 0.0000
vt 0.8438 0.0977 0.0000
vt 0.8301 0.0469 0.0000
# 30 texture coords

g body_149A2902_0_008
usemtl Material__938
s 1
f 93/1/145 94/2/145 95/3/145 
f 94/2/146 93/1/146 96/4/146 
f 97/5/147 94/2/147 96/4/147 
f 95/3/148 94/2/148 98/6/148 
f 99/7/149 97/5/149 96/4/149 
f 99/7/150 96/4/150 93/1/150 
f 100/8/151 98/6/151 94/2/151 
f 101/9/152 93/1/152 95/3/152 
f 98/6/153 101/9/153 95/3/153 
f 97/5/154 102/10/154 94/2/154 
f 100/8/155 94/2/155 102/10/155 
f 101/9/156 99/7/156 93/1/156 
f 103/11/157 102/10/157 97/5/157 
f 98/6/158 100/8/158 101/9/158 
f 104/12/159 103/11/159 97/5/159 
f 104/12/160 97/5/160 99/7/160 
f 101/9/161 104/12/161 99/7/161 
f 105/13/162 100/8/162 102/10/162 
f 100/8/163 106/14/163 101/9/163 
f 102/10/164 103/11/164 105/13/164 
f 100/8/165 105/13/165 107/15/165 
f 104/12/166 101/9/166 106/14/166 
f 108/16/167 109/17/167 110/18/167 
f 106/14/168 100/8/168 107/15/168 
f 110/18/169 111/19/169 112/20/169 
f 111/19/170 110/18/170 109/17/170 
f 113/21/171 108/16/171 114/22/171 
f 113/21/172 109/17/172 108/16/172 
f 115/23/173 116/24/173 108/16/173 
f 116/24/174 114/22/174 108/16/174 
f 117/25/175 118/26/175 116/24/175 
f 116/24/176 115/23/176 117/25/176 
f 118/26/177 117/25/177 119/27/177 
f 112/20/178 118/26/178 119/27/178 
f 116/24/179 120/28/179 114/22/179 
f 118/26/180 112/20/180 111/19/180 
f 116/24/181 121/29/181 120/28/181 
f 122/30/182 114/22/182 120/28/182 
f 108/16/183 110/18/183 115/23/183 
f 116/24/184 118/26/184 121/29/184 
f 114/22/185 122/30/185 113/21/185 
f 122/30/186 109/17/186 113/21/186 
f 122/30/187 120/28/187 121/29/187 
f 122/30/188 111/19/188 109/17/188 
f 122/30/189 118/26/189 111/19/189 
f 122/30/190 121/29/190 118/26/190 
# 0 polygons - 46 triangles

#
# object body_748522F4_0_007
#

v  -0.1205 0.1033 -0.0816
v  -0.0000 0.1332 0.0145
v  -0.1495 0.1586 -0.0054
v  -0.0000 0.0725 -0.1278
v  -0.1079 0.2193 0.0816
v  0.1205 0.1033 -0.0816
v  -0.0000 0.2438 0.1169
v  0.1495 0.1586 -0.0054
v  0.1078 0.2193 0.0816
# 9 vertices

vn -0.2099 -0.8274 0.5209
vn -0.0843 -0.9165 0.3911
vn -0.2109 -0.7513 0.6254
vn 0.0843 -0.9165 0.3911
vn -0.0859 -0.6770 0.7309
vn 0.2099 -0.8274 0.5209
vn 0.0859 -0.6770 0.7309
vn 0.2109 -0.7513 0.6254
# 8 vertex normals

vt 0.0977 0.1328 0.0000
vt 0.5000 0.2656 0.0000
vt 0.0000 0.3789 0.0000
vt 0.5000 0.0000 0.0000
vt 0.1367 0.6484 0.0000
vt 0.8984 0.1328 0.0000
vt 0.5000 0.7617 0.0000
vt 1.0000 0.3789 0.0000
vt 0.8594 0.6484 0.0000
# 9 texture coords

g body_748522F4_0_007
usemtl Material__941
s 1
f 123/31/191 124/32/191 125/33/191 
f 126/34/192 124/32/192 123/31/192 
f 125/33/193 124/32/193 127/35/193 
f 128/36/194 124/32/194 126/34/194 
f 127/35/195 124/32/195 129/37/195 
f 130/38/196 124/32/196 128/36/196 
f 129/37/197 124/32/197 131/39/197 
f 131/39/198 124/32/198 130/38/198 
# 0 polygons - 8 triangles

#
# object body_748522F4_0_006
#

v  -0.1495 0.1586 -0.0054
v  -0.0915 0.1613 -0.1196
v  -0.1205 0.1033 -0.0816
v  -0.0000 0.0725 -0.1278
v  -0.1296 0.2139 -0.0444
v  -0.0000 0.1396 -0.1504
v  -0.0526 0.2248 -0.1160
v  -0.0000 0.2121 -0.1341
v  0.1205 0.1033 -0.0816
v  -0.0752 0.2547 -0.0734
v  0.0915 0.1613 -0.1196
v  -0.0000 0.2701 -0.0834
v  0.0526 0.2248 -0.1160
v  0.0752 0.2547 -0.0734
v  0.1296 0.2139 -0.0444
v  0.1495 0.1586 -0.0054
# 16 vertices

vn -0.8830 0.1495 -0.4449
vn -0.4118 -0.3470 -0.8426
vn -0.8916 0.0024 -0.4528
vn -0.3674 -0.2977 -0.8812
vn -0.6458 0.4326 -0.6291
vn -0.2649 0.2164 -0.9397
vn -0.2727 0.2112 -0.9386
vn 0.4066 -0.2924 -0.8655
vn -0.6503 0.4143 -0.6368
vn 0.2663 0.2116 -0.9404
vn -0.1001 0.6552 -0.7488
vn 0.3742 -0.3707 -0.8500
vn 0.2702 0.2196 -0.9374
vn -0.2347 0.7324 -0.6391
vn 0.2347 0.7324 -0.6391
vn 0.1001 0.6552 -0.7488
vn 0.6458 0.4326 -0.6291
vn 0.8830 0.1495 -0.4449
vn 0.8916 0.0024 -0.4528
vn 0.6503 0.4143 -0.6368
# 20 vertex normals

vt 0.0000 0.1875 0.0000
vt 0.1914 0.5938 0.0000
vt 0.0977 0.1797 0.0000
vt 0.5000 0.1875 0.0000
vt 0.0664 0.5938 0.0000
vt 0.5000 0.5938 0.0000
vt 0.3203 0.8906 0.0000
vt 0.5000 0.8906 0.0000
vt 0.8984 0.1797 0.0000
vt 0.2461 0.8906 0.0000
vt 0.8047 0.5938 0.0000
vt 0.5000 1.0000 0.0000
vt 0.6758 0.8906 0.0000
vt 0.7500 0.8906 0.0000
vt 0.9297 0.5938 0.0000
vt 1.0000 0.1875 0.0000
# 16 texture coords

g body_748522F4_0_006
usemtl Material__940
s 1
f 132/40/199 133/41/199 134/42/199 
f 133/41/200 135/43/200 134/42/200 
f 132/40/201 136/44/201 133/41/201 
f 133/41/202 137/45/202 135/43/202 
f 136/44/203 138/46/203 133/41/203 
f 138/46/204 137/45/204 133/41/204 
f 138/46/205 139/47/205 137/45/205 
f 137/45/206 140/48/206 135/43/206 
f 136/44/207 141/49/207 138/46/207 
f 139/47/208 142/50/208 137/45/208 
f 143/51/209 139/47/209 138/46/209 
f 137/45/210 142/50/210 140/48/210 
f 139/47/211 144/52/211 142/50/211 
f 143/51/212 138/46/212 141/49/212 
f 143/51/213 145/53/213 144/52/213 
f 143/51/214 144/52/214 139/47/214 
f 144/52/215 146/54/215 142/50/215 
f 142/50/216 147/55/216 140/48/216 
f 142/50/217 146/54/217 147/55/217 
f 144/52/218 145/53/218 146/54/218 
# 0 polygons - 20 triangles

#
# object body_E09B58C_0_005
#

v  -0.1079 0.2193 0.0816
v  -0.0915 0.2664 0.0308
v  -0.1296 0.2139 -0.0444
v  -0.1495 0.1586 -0.0054
v  -0.0526 0.2855 -0.0299
v  -0.0752 0.2547 -0.0734
v  -0.0000 0.2701 -0.0834
v  -0.0000 0.2973 -0.0118
v  0.0526 0.2855 -0.0299
v  0.0752 0.2547 -0.0734
v  0.0915 0.2664 0.0308
v  0.1296 0.2139 -0.0444
v  -0.0000 0.2882 0.0616
v  0.1078 0.2193 0.0816
v  0.1495 0.1586 -0.0054
v  -0.0000 0.2438 0.1169
# 16 vertices

vn -0.8835 0.4492 0.1331
vn -0.8972 0.4200 0.1368
vn -0.6505 0.7370 -0.1833
vn -0.6499 0.7369 -0.1861
vn -0.0868 0.9313 -0.3537
vn -0.2366 0.8467 -0.4765
vn 0.2366 0.8467 -0.4765
vn 0.0868 0.9313 -0.3537
vn 0.2602 0.9564 0.1328
vn 0.6505 0.7370 -0.1833
vn 0.2670 0.9564 0.1181
vn 0.6499 0.7369 -0.1861
vn 0.8972 0.4200 0.1368
vn 0.8835 0.4492 0.1331
vn 0.3662 0.7376 0.5672
vn 0.3570 0.7283 0.5850
vn -0.2602 0.9564 0.1328
vn -0.2670 0.9564 0.1181
vn -0.3570 0.7283 0.5850
vn -0.3662 0.7376 0.5672
# 20 vertex normals

vt 0.0488 0.3511 0.0000
vt 0.1172 0.6396 0.0000
vt -0.0410 0.6396 0.0000
vt -0.1245 0.3511 0.0000
vt 0.2788 0.8511 0.0000
vt 0.1870 0.8511 0.0000
vt 0.5000 0.9282 0.0000
vt 0.5000 0.8511 0.0000
vt 0.7207 0.8511 0.0000
vt 0.8120 0.8511 0.0000
vt 0.8823 0.6396 0.0000
vt 1.0410 0.6396 0.0000
vt 0.5000 0.6396 0.0000
vt 0.9507 0.3511 0.0000
vt 1.1250 0.3511 0.0000
vt 0.5000 0.3511 0.0000
# 16 texture coords

g body_E09B58C_0_005
usemtl Material__942
s 1
f 148/56/219 149/57/219 150/58/219 
f 148/56/220 150/58/220 151/59/220 
f 150/58/221 152/60/221 153/61/221 
f 150/58/222 149/57/222 152/60/222 
f 154/62/223 152/60/223 155/63/223 
f 154/62/224 153/61/224 152/60/224 
f 154/62/225 156/64/225 157/65/225 
f 154/62/226 155/63/226 156/64/226 
f 155/63/227 158/66/227 156/64/227 
f 156/64/228 159/67/228 157/65/228 
f 155/63/229 160/68/229 158/66/229 
f 156/64/230 158/66/230 159/67/230 
f 159/67/231 161/69/231 162/70/231 
f 159/67/232 158/66/232 161/69/232 
f 160/68/233 161/69/233 158/66/233 
f 160/68/234 163/71/234 161/69/234 
f 149/57/235 155/63/235 152/60/235 
f 149/57/236 160/68/236 155/63/236 
f 148/56/237 163/71/237 160/68/237 
f 148/56/238 160/68/238 149/57/238 
# 0 polygons - 20 triangles

#
# object body_123EEBF6_0_004
#

v  -0.0000 0.0816 -0.1223
v  -0.0000 0.2610 -0.2175
v  -0.0000 0.1495 -0.2991
# 3 vertices

vn -1.0000 0.0000 -0.0000
# 1 vertex normals

vt 0.4063 -0.1064 0.0000
vt 1.0439 1.0039 0.0000
vt 0.0449 1.0010 0.0000
# 3 texture coords

g body_123EEBF6_0_004
usemtl Material__937
s 1
f 164/72/239 165/73/239 166/74/239 
# 0 polygons - 1 triangles

#
# object body_34B9100B_0_003
#

v  -0.1269 0.0888 0.0480
v  -0.0707 0.0870 0.0943
v  -0.1006 0.1377 0.0943
v  -0.0526 0.0290 0.0480
v  -0.0000 0.0553 0.0943
v  -0.1160 0.2039 0.0480
v  -0.0544 0.1377 0.1223
v  0.0526 0.0290 0.0480
v  -0.0707 0.2148 0.0943
v  -0.0381 0.1097 0.1223
v  0.0707 0.0870 0.0943
v  -0.0000 0.0924 0.1223
v  -0.0526 0.2728 0.0417
v  -0.0000 0.1377 0.1323
v  0.1269 0.0888 0.0480
v  -0.0381 0.1794 0.1223
v  0.0381 0.1097 0.1223
v  0.0544 0.1377 0.1223
v  0.1006 0.1377 0.0943
v  -0.0000 0.2465 0.0943
v  -0.0000 0.1967 0.1223
v  0.0381 0.1794 0.1223
v  0.0707 0.2148 0.0943
v  0.0526 0.2728 0.0408
v  0.1160 0.2039 0.0480
# 25 vertices

vn -0.6009 -0.3541 0.7166
vn -0.5060 -0.6287 0.5905
vn -0.2918 -0.6502 0.7015
vn -0.9022 0.0852 0.4228
vn -0.4967 -0.2927 0.8171
vn 0.0000 -0.8693 0.4943
vn -0.7178 0.2787 0.6381
vn -0.2606 -0.5809 0.7711
vn 0.2918 -0.6502 0.7015
vn -0.5005 -0.2906 0.8155
vn -0.5092 0.1977 0.8377
vn -0.2632 -0.5818 0.7695
vn -0.6276 0.6213 0.4691
vn 0.2612 -0.5822 0.7700
vn -0.1793 -0.1041 0.9783
vn 0.5060 -0.6287 0.5905
vn -0.5072 0.1985 0.8387
vn -0.0967 -0.2139 0.9721
vn -0.1799 0.0704 0.9812
vn 0.2621 -0.5794 0.7717
vn 0.5005 -0.2906 0.8155
vn 0.0967 -0.2139 0.9721
vn 0.6009 -0.3541 0.7166
vn -0.2147 0.4785 0.8514
vn 0.1793 -0.1041 0.9783
vn -0.0753 0.1664 0.9832
vn -0.2168 0.4793 0.8504
vn 0.4967 -0.2927 0.8171
vn 0.0753 0.1664 0.9832
vn 0.1799 0.0704 0.9812
vn 0.2152 0.4795 0.8507
vn 0.2160 0.4775 0.8516
vn 0.3118 0.6949 0.6480
vn 0.7178 0.2787 0.6381
vn -0.3095 0.6898 0.6545
vn 0.5092 0.1977 0.8377
vn 0.5072 0.1985 0.8387
vn 0.9022 0.0852 0.4228
vn 0.6257 0.6254 0.4663
# 39 vertex normals

vt 0.0932 0.2046 0.0000
vt 0.2733 0.1987 0.0000
vt 0.1788 0.3857 0.0000
vt 0.3337 -0.0151 0.0000
vt 0.5022 0.0820 0.0000
vt 0.1278 0.6289 0.0000
vt 0.3272 0.3857 0.0000
vt 0.6701 -0.0151 0.0000
vt 0.2733 0.6680 0.0000
vt 0.3782 0.2832 0.0000
vt 0.7305 0.1987 0.0000
vt 0.5022 0.2197 0.0000
vt 0.3337 0.8813 0.0000
vt 0.5022 0.3857 0.0000
vt 0.9107 0.2046 0.0000
vt 0.3782 0.5386 0.0000
vt 0.6257 0.2832 0.0000
vt 0.6767 0.3857 0.0000
vt 0.8250 0.3857 0.0000
vt 0.5022 0.7847 0.0000
vt 0.5022 0.6016 0.0000
vt 0.6257 0.5386 0.0000
vt 0.7305 0.6680 0.0000
vt 0.6701 0.8813 0.0000
vt 0.8760 0.6289 0.0000
# 25 texture coords

g body_34B9100B_0_003
usemtl Material__939
s 1
f 167/75/240 168/76/240 169/77/240 
f 168/76/241 167/75/241 170/78/241 
f 170/78/242 171/79/242 168/76/242 
f 169/77/243 172/80/243 167/75/243 
f 168/76/244 173/81/244 169/77/244 
f 171/79/245 170/78/245 174/82/245 
f 172/80/246 169/77/246 175/83/246 
f 171/79/247 176/84/247 168/76/247 
f 174/82/248 177/85/248 171/79/248 
f 168/76/249 176/84/249 173/81/249 
f 173/81/250 175/83/250 169/77/250 
f 171/79/251 178/86/251 176/84/251 
f 175/83/252 179/87/252 172/80/252 
f 177/85/253 178/86/253 171/79/253 
f 180/88/254 173/81/254 176/84/254 
f 177/85/255 174/82/255 181/89/255 
f 173/81/256 182/90/256 175/83/256 
f 180/88/257 176/84/257 178/86/257 
f 180/88/258 182/90/258 173/81/258 
f 177/85/259 183/91/259 178/86/259 
f 177/85/260 184/92/260 183/91/260 
f 180/88/261 178/86/261 183/91/261 
f 181/89/262 185/93/262 177/85/262 
f 182/90/263 186/94/263 175/83/263 
f 180/88/264 183/91/264 184/92/264 
f 180/88/265 187/95/265 182/90/265 
f 182/90/266 187/95/266 186/94/266 
f 177/85/267 185/93/267 184/92/267 
f 180/88/268 188/96/268 187/95/268 
f 180/88/269 184/92/269 188/96/269 
f 187/95/270 189/97/270 186/94/270 
f 187/95/271 188/96/271 189/97/271 
f 190/98/272 186/94/272 189/97/272 
f 191/99/273 189/97/273 185/93/273 
f 179/87/274 175/83/274 186/94/274 
f 184/92/275 185/93/275 189/97/275 
f 184/92/276 189/97/276 188/96/276 
f 185/93/277 181/89/277 191/99/277 
f 189/97/278 191/99/278 190/98/278 
# 0 polygons - 39 triangles

#
# object body_0_0_002
#

v  -0.0000 0.0308 -0.0498
v  -0.0943 0.0562 -0.0498
v  -0.0725 0.0761 -0.0915
v  -0.1314 0.1377 -0.0489
v  -0.1006 0.1377 -0.0915
v  -0.0390 0.1042 -0.1196
v  -0.1024 0.0498 0.0000
v  -0.0000 0.0498 -0.0915
v  -0.1269 0.0888 0.0480
v  -0.0000 0.0906 -0.1196
v  0.0390 0.1042 -0.1196
v  -0.0000 0.0217 0.0000
v  -0.0526 0.0290 0.0480
v  0.0725 0.0761 -0.0915
v  -0.1378 0.1649 0.0009
v  0.0942 0.0562 -0.0498
v  -0.1160 0.2039 0.0480
v  0.1006 0.1377 -0.0915
v  0.0526 0.0290 0.0480
v  0.1024 0.0498 0.0000
v  0.1269 0.0888 0.0480
v  0.1314 0.1377 -0.0489
v  0.1377 0.1649 0.0009
v  0.1160 0.2039 0.0480
# 24 vertices

vn -0.2232 -0.8289 -0.5129
vn -0.7578 -0.3390 -0.5575
vn -0.5045 -0.2300 -0.8322
vn -0.7600 -0.3465 -0.5498
vn -0.2565 -0.9527 -0.1632
vn -0.2032 -0.5604 -0.8029
vn -0.9206 -0.3392 -0.1938
vn -0.3132 -0.8639 -0.3944
vn -0.8984 -0.4075 -0.1637
vn -0.1941 -0.5565 -0.8078
vn 0.1941 -0.5565 -0.8078
vn -0.2606 -0.9499 -0.1727
vn -0.2619 -0.9545 -0.1425
vn -0.5984 -0.7435 0.2984
vn 0.3132 -0.8639 -0.3944
vn -0.9859 -0.1634 -0.0364
vn 0.2561 -0.9511 -0.1729
vn 0.2032 -0.5604 -0.8029
vn -0.9301 0.0879 0.3566
vn 0.2232 -0.8289 -0.5129
vn 0.5045 -0.2300 -0.8322
vn 0.0000 -0.9888 0.1493
vn 0.2619 -0.9545 -0.1425
vn 0.2610 -0.9513 -0.1638
vn 0.5984 -0.7435 0.2984
vn 0.7578 -0.3390 -0.5575
vn 0.8984 -0.4075 -0.1637
vn 0.9206 -0.3392 -0.1938
vn 0.9859 -0.1634 -0.0364
vn 0.7600 -0.3465 -0.5498
vn 0.9301 0.0879 0.3566
# 31 vertex normals

g body_0_0_002
usemtl Material__949
s 1
f 192//279 193//279 194//279 
f 195//280 194//280 193//280 
f 196//281 197//281 194//281 
f 195//282 196//282 194//282 
f 192//283 198//283 193//283 
f 197//284 199//284 194//284 
f 200//285 193//285 198//285 
f 192//286 194//286 199//286 
f 200//287 195//287 193//287 
f 197//288 201//288 199//288 
f 202//289 199//289 201//289 
f 192//290 203//290 198//290 
f 203//291 204//291 198//291 
f 200//292 198//292 204//292 
f 205//293 192//293 199//293 
f 195//294 200//294 206//294 
f 207//295 203//295 192//295 
f 202//296 205//296 199//296 
f 208//297 206//297 200//297 
f 205//298 207//298 192//298 
f 202//299 209//299 205//299 
f 204//300 203//300 210//300 
f 211//301 210//301 203//301 
f 207//302 211//302 203//302 
f 210//303 211//303 212//303 
f 205//304 213//304 207//304 
f 207//305 213//305 212//305 
f 207//306 212//306 211//306 
f 212//307 213//307 214//307 
f 205//308 209//308 213//308 
f 212//309 214//309 215//309 
# 0 polygons - 31 triangles

