# 3ds Max Wavefront OBJ Exporter v0.97b - (c)2007 guruware
# File Created: 15.06.2019 01:26:59

mtllib link.mtl

#
# object intro_33A109D9_0_043
#

v  -0.0450 0.5250 -0.0636
v  -0.0002 0.4976 -0.0959
v  -0.0388 0.5037 -0.0396
v  -0.0002 0.4863 -0.0496
v  -0.0027 0.4828 -0.1491
v  -0.0313 0.5200 -0.0983
v  0.0446 0.5250 -0.0636
v  0.0396 0.5037 -0.0396
v  -0.0549 0.5348 -0.0210
v  0.0371 0.5759 -0.0123
v  0.0010 0.5895 -0.0351
v  -0.0002 0.5946 -0.0098
v  -0.0276 0.5683 -0.0537
v  -0.0375 0.5759 -0.0123
v  0.0545 0.5348 -0.0210
v  0.0297 0.5200 -0.0971
v  0.0272 0.5683 -0.0537
v  -0.0014 0.5596 -0.0909
# 18 vertices

vn -0.6667 -0.6361 -0.3885
vn -0.4472 -0.8687 -0.2128
vn -0.5779 -0.7787 0.2443
vn -0.5734 -0.8118 -0.1102
vn 0.6706 -0.6197 -0.4078
vn -0.9083 -0.4012 -0.1186
vn 0.4328 0.8871 -0.1605
vn 0.4360 -0.8741 -0.2141
vn -0.8230 0.4183 -0.3843
vn -0.4542 0.8506 -0.2649
vn 0.8543 0.4257 -0.2982
vn -0.4273 0.8814 -0.2015
vn 0.8044 0.4192 -0.4210
vn 0.4816 0.8342 -0.2685
vn -0.5229 0.5203 -0.6752
vn 0.5914 0.5552 -0.5848
vn 0.3406 0.8232 -0.4542
vn 0.5161 0.5121 -0.6866
vn -0.8543 0.4257 -0.2982
vn 0.9221 -0.3644 -0.1304
vn -0.3361 0.8372 -0.4315
vn -0.8658 0.4124 -0.2834
vn 0.5883 -0.7956 -0.1446
vn -0.6086 0.5631 -0.5591
vn 0.8658 0.4124 -0.2834
vn 0.5926 -0.7826 0.1907
# 26 vertex normals

vt 0.5750 0.3965 0.0000
vt 0.6828 0.2485 0.0000
vt 0.5801 0.1895 0.0000
vt 0.4902 0.2266 0.0000
vt 0.8704 0.1767 0.0000
vt 0.6913 0.3657 0.0000
vt 0.7422 0.1289 0.0000
vt 0.9570 0.0996 0.0000
vt 0.4746 0.7323 0.0000
vt 1.0547 0.0918 0.0000
vt 0.5412 0.6264 0.0000
vt 0.6913 0.3669 0.0000
vt 0.5403 0.6264 0.0000
vt 0.6659 0.5786 0.0000
# 14 texture coords

g intro_33A109D9_0_043
usemtl Material__103
s 1
f 1/1/1 2/2/1 3/3/1 
f 3/3/2 2/2/2 4/4/2 
f 5/5/3 2/2/3 6/6/3 
f 2/2/4 1/1/4 6/6/4 
f 2/2/5 7/1/5 8/3/5 
f 1/1/6 3/3/6 9/7/6 
f 10/8/7 11/9/7 12/10/7 
f 2/2/8 8/3/8 4/4/8 
f 13/11/9 6/6/9 1/1/9 
f 14/8/10 11/9/10 13/11/10 
f 15/7/11 7/1/11 10/8/11 
f 11/9/12 14/8/12 12/10/12 
f 16/12/13 17/13/13 7/1/13 
f 11/9/14 10/8/14 17/13/14 
f 6/6/15 18/14/15 5/5/15 
f 16/12/16 18/14/16 17/13/16 
f 17/13/17 18/14/17 11/9/17 
f 18/14/18 16/12/18 5/5/18 
f 1/1/19 9/7/19 14/8/19 
f 8/3/20 7/1/20 15/7/20 
f 18/14/21 13/11/21 11/9/21 
f 14/8/22 13/11/22 1/1/22 
f 7/1/23 2/2/23 16/12/23 
f 18/14/24 6/6/24 13/11/24 
f 10/8/25 7/1/25 17/13/25 
f 16/12/26 2/2/26 5/5/26 
# 0 polygons - 26 triangles

#
# object intro_1D733E9_0_051
#

v  -0.0350 0.5062 0.0176
v  -0.0375 0.5187 0.0238
v  -0.0325 0.4714 0.0126
v  -0.0437 0.5149 0.0077
v  -0.0425 0.5224 0.0039
v  -0.0437 0.5535 0.0226
v  -0.0425 0.4876 0.0114
v  -0.0425 0.5162 0.0549
v  -0.0413 0.5510 0.0562
v  -0.0089 0.5672 0.0549
v  -0.0126 0.5548 0.0835
v  -0.0176 0.5448 0.0437
v  0.0384 0.5187 0.0251
v  0.0346 0.5062 0.0176
v  0.0334 0.4714 0.0139
v  0.0433 0.5162 0.0089
v  0.0421 0.5224 0.0039
v  0.0409 0.5473 0.0587
v  0.0446 0.4938 0.0363
v  0.0545 0.5274 0.0251
v  0.0558 0.4888 0.0027
v  0.0446 0.5535 0.0226
v  0.0210 0.5125 0.0686
v  -0.0014 0.5672 0.0549
v  0.0048 0.5548 0.0823
v  0.0085 0.5485 0.0462
v  -0.0002 0.5398 0.0500
v  -0.0039 0.5548 0.0462
# 28 vertices

vn 0.9407 0.0188 0.3387
vn 0.8027 0.1402 -0.5797
vn -0.9129 0.2938 0.2833
vn -0.9016 -0.1873 0.3900
vn -0.9997 -0.0212 0.0140
vn -0.9637 -0.1646 0.2101
vn -0.4420 0.8916 0.0988
vn -0.9965 0.0329 0.0763
vn -0.4144 0.8532 0.3169
vn -0.6911 -0.0011 0.7227
vn 0.4987 0.2520 -0.8294
vn 0.7841 0.1183 -0.6093
vn 0.7654 -0.6403 0.0644
vn 0.7704 -0.5329 0.3502
vn -0.8811 -0.0192 0.4725
vn -0.7567 0.0963 -0.6466
vn 0.9059 0.3599 0.2234
vn 0.9337 -0.1726 0.3138
vn 0.8927 -0.1196 0.4346
vn 0.9283 -0.1638 0.3337
vn 0.9177 0.3646 0.1578
vn 0.7206 -0.2243 0.6560
vn 0.4034 0.8938 0.1958
vn 0.8057 0.2560 -0.5342
vn 0.3825 0.8708 0.3089
vn 0.5371 -0.0667 0.8409
vn 0.4729 -0.8782 -0.0715
vn -0.8168 -0.4802 -0.3199
vn -0.1672 0.4910 -0.8549
vn -0.8342 -0.5131 -0.2021
vn -0.9374 -0.3464 -0.0373
vn 0.9327 0.2876 0.2176
vn -0.3520 -0.8968 0.2682
vn -0.9560 -0.1813 0.2308
vn 0.9490 0.2246 0.2214
vn 0.7336 -0.6529 0.1885
vn -0.9716 0.0302 0.2345
# 37 vertex normals

vt 0.5898 0.4551 0.0000
vt 0.7715 0.3125 0.0000
vt 0.4785 0.8438 0.0000
vt 0.2852 0.3633 0.0000
vt 0.7305 0.2344 0.0000
vt 0.6016 0.2188 0.0000
vt 0.4805 0.3438 0.0000
vt 0.8945 0.5273 0.0000
vt 0.2461 0.0918 0.0000
vt 0.1211 0.5195 0.0000
vt 0.5176 0.7188 0.0000
vt 0.7207 0.8027 0.0000
vt 0.2813 0.9102 0.0000
vt 0.5742 0.6113 0.0000
vt 0.7930 0.3164 0.0000
vt 0.5801 0.4551 0.0000
vt 0.5000 0.8418 0.0000
vt 0.3164 0.3555 0.0000
vt 0.2207 0.7773 0.0000
vt 0.0645 0.7754 0.0000
vt 0.3809 0.6758 0.0000
vt 0.4082 0.3477 0.0000
vt 0.8438 0.7441 0.0000
vt 0.2578 0.6250 0.0000
vt 0.5000 0.9434 0.0000
vt -0.1152 0.5137 0.0000
vt 1.0039 0.4727 0.0000
vt 0.1465 0.2793 0.0000
vt 0.6406 0.1875 0.0000
vt 0.2813 0.4180 0.0000
vt 0.4453 0.6172 0.0000
vt 0.6719 0.6816 0.0000
vt 0.1855 0.3887 0.0000
vt 0.4434 0.4473 0.0000
# 34 texture coords

g intro_1D733E9_0_051
usemtl Material__98
s 1
f 19/15/27 20/16/27 21/17/27 
f 22/18/28 19/15/28 21/17/28 
f 23/19/29 22/20/29 20/21/29 
f 21/17/30 20/16/30 22/18/30 
f 24/22/31 25/23/31 26/24/31 
f 20/21/32 24/22/32 23/19/32 
f 24/22/33 27/25/33 28/26/33 
f 27/25/34 24/22/34 26/24/34 
f 27/25/35 29/27/35 28/26/35 
f 27/25/36 26/24/36 29/27/36 
f 25/23/37 20/21/37 30/28/37 
f 20/21/38 25/23/38 24/22/38 
f 30/28/39 29/27/39 26/24/39 
f 26/24/40 25/23/40 30/28/40 
f 31/29/41 32/30/41 33/31/41 
f 33/31/42 32/30/42 34/32/42 
f 34/33/43 35/34/43 31/35/43 
f 34/32/44 31/29/44 33/31/44 
f 36/36/45 37/37/45 38/38/45 
f 37/37/46 39/39/46 38/38/46 
f 38/38/47 40/40/47 36/36/47 
f 37/37/48 36/36/48 41/41/48 
f 40/40/49 42/42/49 36/36/49 
f 40/40/50 38/38/50 35/34/50 
f 36/36/51 42/42/51 43/43/51 
f 41/41/52 36/36/52 43/43/52 
f 35/34/53 38/38/53 31/35/53 
f 37/37/54 41/41/54 44/44/54 
f 39/39/55 44/44/55 38/38/55 
f 37/37/56 44/44/56 39/39/56 
f 44/44/57 41/41/57 43/43/57 
f 45/45/58 46/46/58 29/27/58 
f 30/28/59 45/45/59 29/27/59 
f 46/47/60 45/48/60 43/43/60 
f 29/27/61 46/46/61 28/26/61 
f 43/43/62 45/48/62 44/44/62 
f 42/42/63 46/47/63 43/43/63 
# 0 polygons - 37 triangles

#
# object intro_1D733E9_0_050
#

v  -0.0213 0.4876 -0.0222
v  -0.0363 0.5000 -0.0322
v  -0.0002 0.4851 -0.0322
v  -0.0350 0.4963 -0.0123
v  0.0371 0.5000 -0.0322
v  0.0222 0.4876 -0.0222
v  -0.0425 0.5224 0.0039
v  0.0346 0.4963 -0.0135
v  0.0421 0.5224 0.0039
# 9 vertices

vn -0.3305 -0.7988 -0.5027
vn -0.5906 -0.7990 -0.1129
vn 0.3180 -0.7949 -0.5167
vn -0.9602 -0.2791 0.0077
vn 0.9475 -0.3132 0.0637
vn 0.6074 -0.7906 -0.0771
# 6 vertex normals

vt -0.1738 0.7949 0.0000
vt 0.4258 -0.3672 0.0000
vt -1.2910 0.2637 0.0000
vt 1.4551 1.0234 0.0000
vt 0.3945 -0.3828 0.0000
vt -0.1875 0.7852 0.0000
vt 5.5137 0.9570 0.0000
vt 1.4277 1.0000 0.0000
vt 5.4863 0.9336 0.0000
# 9 texture coords

g intro_1D733E9_0_050
usemtl Material__97
s 1
f 47/49/64 48/50/64 49/51/64 
f 50/52/65 48/50/65 47/49/65 
f 49/51/66 51/53/66 52/54/66 
f 50/52/67 53/55/67 48/50/67 
f 54/56/68 51/53/68 55/57/68 
f 51/53/69 54/56/69 52/54/69 
# 0 polygons - 6 triangles

#
# object intro_4027A24D_0_049
#

v  -0.0350 0.4963 -0.0123
v  -0.0301 0.4863 0.0201
v  -0.0350 0.5062 0.0176
v  -0.0437 0.5149 0.0077
v  -0.0686 0.5261 -0.0172
v  0.0346 0.5062 0.0176
v  0.0346 0.4963 -0.0135
v  0.0433 0.5162 0.0089
v  0.0297 0.4863 0.0189
v  0.0682 0.5261 -0.0185
# 10 vertices

vn -0.9695 -0.2327 0.0776
vn -0.6512 -0.6746 0.3476
vn 0.8124 -0.5554 0.1777
vn 0.9684 -0.2374 0.0760
vn 0.6513 -0.6750 0.3467
# 5 vertex normals

vt 0.8711 0.1152 0.0000
vt -0.1699 -0.3613 0.0000
vt -0.1934 0.3145 0.0000
vt 0.0996 0.6523 0.0000
vt 0.9121 1.1309 0.0000
vt -0.1836 0.3145 0.0000
vt 0.8828 0.1152 0.0000
vt 0.0625 0.6738 0.0000
vt -0.1602 -0.3594 0.0000
vt 0.9355 1.1348 0.0000
# 10 texture coords

g intro_4027A24D_0_049
usemtl Material__348
s 1
f 56/58/70 57/59/70 58/60/70 
f 59/61/71 60/62/71 56/58/71 
f 61/63/72 62/64/72 63/65/72 
f 62/64/73 61/63/73 64/66/73 
f 63/65/74 62/64/74 65/67/74 
# 0 polygons - 5 triangles

#
# object intro_4027A24D_0_048
#

v  -0.0350 0.5062 0.0176
v  -0.0437 0.5149 0.0077
v  -0.0350 0.4963 -0.0123
# 3 vertices

vn -0.7949 -0.5756 0.1919
# 1 vertex normals

vt -0.1934 0.3145 0.0000
vt 0.0996 0.6523 0.0000
vt 0.8711 0.1152 0.0000
# 3 texture coords

g intro_4027A24D_0_048
usemtl Material__350
s 1
f 66/68/75 67/69/75 68/70/75 
# 0 polygons - 1 triangles

#
# object intro_298AA9E5_0_047
#

v  0.0073 0.4901 0.0500
v  -0.0002 0.4913 0.0711
v  -0.0002 0.4863 0.0487
v  -0.0077 0.4901 0.0500
# 4 vertices

vn 0.4118 -0.8896 0.1977
vn -0.4118 -0.8896 0.1977
# 2 vertex normals

vt -0.0352 0.0918 0.0000
vt 0.5137 1.0508 0.0000
vt 0.5137 0.0234 0.0000
vt 1.0723 0.0957 0.0000
# 4 texture coords

g intro_298AA9E5_0_047
usemtl Material__340
s 1
f 69/71/76 70/72/76 71/73/76 
f 70/72/77 72/74/77 71/73/77 
# 0 polygons - 2 triangles

#
# object intro_581C1289_0_046
#

v  -0.0002 0.5112 0.0462
v  -0.0002 0.4913 0.0711
v  0.0073 0.4901 0.0500
v  -0.0077 0.4901 0.0500
# 4 vertices

vn 0.8849 0.3637 0.2909
vn -0.8849 0.3637 0.2909
# 2 vertex normals

vt 0.9512 0.8105 0.0000
vt -0.3438 0.6992 0.0000
vt 0.3496 -0.1445 0.0000
vt 0.3457 -0.1426 0.0000
# 4 texture coords

g intro_581C1289_0_046
usemtl Material__108
s 1
f 73/75/78 74/76/78 75/77/78 
f 76/78/79 74/76/79 73/75/79 
# 0 polygons - 2 triangles

#
# object intro_572DE0CE_0_045
#

v  -0.0400 0.5037 -0.0060
v  -0.0400 0.5037 -0.0185
v  -0.0400 0.4913 -0.0060
v  -0.0400 0.4913 -0.0185
v  0.0396 0.5037 -0.0060
v  0.0396 0.4913 -0.0060
v  0.0396 0.5037 -0.0185
v  0.0396 0.4913 -0.0185
# 8 vertices

vn -1.0000 0.0000 -0.0000
vn 1.0000 0.0000 -0.0000
# 2 vertex normals

vt 0.9990 0.9990 0.0000
vt 0.0000 0.9990 0.0000
vt 1.0000 0.0000 0.0000
vt 0.0000 0.0000 0.0000
vt 0.9990 1.0000 0.0000
vt 0.9990 0.0000 0.0000
vt 0.0000 1.0000 0.0000
# 7 texture coords

g intro_572DE0CE_0_045
usemtl Material__345
s 1
f 77/79/80 78/80/80 79/81/80 
f 79/81/80 78/80/80 80/82/80 
f 81/83/81 82/84/81 83/85/81 
f 84/82/81 83/85/81 82/84/81 
# 0 polygons - 4 triangles

#
# object intro_15FB1D0E_0_044
#

v  -0.0201 0.4826 -0.0048
v  -0.0226 0.4751 0.0213
v  -0.0350 0.4963 -0.0123
v  -0.0213 0.4876 -0.0222
v  0.0010 0.4677 0.0077
v  -0.0301 0.4863 0.0201
v  -0.0176 0.4776 0.0400
v  -0.0002 0.4614 0.0363
v  0.0222 0.4751 0.0213
v  -0.0226 0.4888 0.0400
v  0.0210 0.4826 -0.0048
v  -0.0201 0.5000 0.0412
v  -0.0350 0.5062 0.0176
v  0.0222 0.4876 -0.0222
v  0.0346 0.4963 -0.0135
v  0.0172 0.4776 0.0388
v  -0.0077 0.4901 0.0500
v  -0.0213 0.5224 0.0425
v  -0.0375 0.5187 0.0238
v  0.0297 0.4863 0.0189
v  -0.0238 0.5299 0.0462
v  0.0222 0.4888 0.0400
v  -0.0002 0.5112 0.0462
v  -0.0176 0.5448 0.0437
v  0.0210 0.5000 0.0412
v  0.0073 0.4901 0.0500
v  0.0346 0.5062 0.0176
v  0.0210 0.5224 0.0425
v  0.0234 0.5299 0.0450
v  -0.0002 0.5199 0.0500
v  -0.0002 0.5398 0.0500
v  0.0384 0.5187 0.0251
v  0.0085 0.5485 0.0462
v  -0.0686 0.5261 -0.0172
v  -0.0425 0.5224 0.0039
v  -0.0437 0.5149 0.0077
v  0.0421 0.5224 0.0039
v  0.0433 0.5162 0.0089
v  0.0682 0.5261 -0.0185
# 39 vertices

vn -0.5712 -0.7733 -0.2753
vn -0.6162 -0.7678 -0.1754
vn -0.4349 -0.8540 -0.2854
vn -0.8290 -0.5575 -0.0440
vn -0.8120 -0.5097 0.2845
vn -0.4034 -0.8904 -0.2111
vn 0.4262 -0.8877 -0.1744
vn -0.8504 -0.3779 0.3661
vn -0.6251 -0.7343 0.2646
vn 0.4681 -0.8435 -0.2633
vn -0.8244 0.1218 0.5527
vn -0.9129 -0.1826 0.3651
vn 0.6415 -0.7485 -0.1680
vn 0.6028 -0.7591 -0.2456
vn 0.6305 -0.7226 0.2834
vn -0.5258 -0.2337 0.8179
vn -0.6312 -0.4442 0.6359
vn -0.8520 -0.0761 0.5180
vn 0.8265 -0.5611 -0.0455
vn -0.5562 0.0313 0.8304
vn -0.5975 -0.5090 0.6196
vn 0.8225 -0.4809 0.3037
vn 0.8425 -0.4129 0.3459
vn -0.3824 0.2898 0.8774
vn -0.8552 0.4093 0.3180
vn -0.2071 -0.0657 0.9761
vn 0.5526 -0.0311 0.8328
vn 0.5082 -0.3149 0.8016
vn 0.8603 0.0391 0.5083
vn 0.3594 0.2837 0.8890
vn 0.2014 -0.0543 0.9780
vn 0.9147 -0.2070 0.3472
vn 0.3609 -0.4010 0.8420
vn 0.8682 -0.0275 0.4954
vn -0.2970 -0.3761 0.8777
vn 0.3382 -0.3707 0.8650
vn -0.1560 0.0000 0.9878
vn -0.4053 -0.5133 0.7565
vn 0.2060 0.0000 0.9785
vn -0.2573 0.2622 0.9301
vn 0.5927 -0.4255 0.6839
vn 0.2624 0.1463 0.9538
vn 0.5738 0.5433 -0.6129
vn 0.5301 -0.5475 0.6475
vn -0.5224 0.4494 0.7247
vn 0.4649 0.6079 0.6437
vn -0.5842 0.5591 -0.5883
# 47 vertex normals

vt 0.3478 0.1528 0.0000
vt 0.3298 0.0867 0.0000
vt 0.2315 0.2794 0.0000
vt 0.3322 0.2021 0.0000
vt 0.5031 0.0110 0.0000
vt 0.2693 0.1911 0.0000
vt 0.3641 0.1105 0.0000
vt 0.4981 -0.0396 0.0000
vt 0.6642 0.0867 0.0000
vt 0.3248 0.2082 0.0000
vt 0.6574 0.1528 0.0000
vt 0.3398 0.3142 0.0000
vt 0.2315 0.3687 0.0000
vt 0.6665 0.2021 0.0000
vt 0.7619 0.2794 0.0000
vt 0.6336 0.1096 0.0000
vt 0.4390 0.2191 0.0000
vt 0.3384 0.5121 0.0000
vt 0.2080 0.4850 0.0000
vt 0.7255 0.1911 0.0000
vt 0.3163 0.5801 0.0000
vt 0.6706 0.2082 0.0000
vt 0.4988 0.4070 0.0000
vt 0.3620 0.7193 0.0000
vt 0.6570 0.3142 0.0000
vt 0.5580 0.2191 0.0000
vt 0.7640 0.3687 0.0000
vt 0.6585 0.5121 0.0000
vt 0.6806 0.5794 0.0000
vt 0.4988 0.4892 0.0000
vt 0.4974 0.6677 0.0000
vt 0.7953 0.4808 0.0000
vt 0.5651 0.7483 0.0000
vt -0.0229 0.5437 0.0000
vt 0.1717 0.5140 0.0000
vt 0.1667 0.4467 0.0000
vt 0.8218 0.5140 0.0000
vt 0.8303 0.4538 0.0000
vt 1.0157 0.5437 0.0000
# 39 texture coords

g intro_15FB1D0E_0_044
usemtl Material__109
s 1
f 85/86/82 86/87/82 87/88/82 
f 85/86/83 87/88/83 88/89/83 
f 89/90/84 86/87/84 85/86/84 
f 87/88/85 86/87/85 90/91/85 
f 90/91/86 86/87/86 91/92/86 
f 89/90/87 92/93/87 86/87/87 
f 92/93/88 89/90/88 93/94/88 
f 90/91/89 91/92/89 94/95/89 
f 86/87/90 92/93/90 91/92/90 
f 95/96/91 93/94/91 89/90/91 
f 96/97/92 97/98/92 94/95/92 
f 90/91/93 94/95/93 97/98/93 
f 95/96/94 98/99/94 99/100/94 
f 95/96/95 99/100/95 93/94/95 
f 92/93/96 93/94/96 100/101/96 
f 94/95/97 91/92/97 101/102/97 
f 97/98/98 102/103/98 103/104/98 
f 102/103/99 97/98/99 96/97/99 
f 93/94/100 99/100/100 104/105/100 
f 96/97/101 94/95/101 101/102/101 
f 102/103/102 105/106/102 103/104/102 
f 104/105/103 100/101/103 93/94/103 
f 100/101/104 104/105/104 106/107/104 
f 96/97/105 101/102/105 107/108/105 
f 105/106/106 108/109/106 103/104/106 
f 102/103/107 96/97/107 107/108/107 
f 109/110/108 110/111/108 106/107/108 
f 110/111/109 100/101/109 106/107/109 
f 106/107/110 111/112/110 109/110/110 
f 109/110/111 107/108/111 110/111/111 
f 112/113/112 107/108/112 109/110/112 
f 104/105/113 111/112/113 106/107/113 
f 107/108/114 112/113/114 113/114/114 
f 112/113/115 109/110/115 111/112/115 
f 107/108/116 114/115/116 105/106/116 
f 114/115/117 107/108/117 113/114/117 
f 114/115/118 115/116/118 105/106/118 
f 102/103/119 107/108/119 105/106/119 
f 115/116/120 114/115/120 113/114/120 
f 115/116/121 108/109/121 105/106/121 
f 113/114/122 112/113/122 116/117/122 
f 117/118/123 115/116/123 113/114/123 
f 87/88/124 118/119/124 119/120/124 
f 112/113/125 111/112/125 116/117/125 
f 118/119/126 120/121/126 119/120/126 
f 121/122/127 122/123/127 123/124/127 
f 123/124/128 99/100/128 121/122/128 
# 0 polygons - 47 triangles

#
# object intro_9D0B196_0_043
#

v  0.0172 0.4776 0.0388
v  -0.0002 0.4789 0.0462
v  -0.0002 0.4614 0.0363
v  -0.0176 0.4776 0.0400
v  0.0073 0.4901 0.0500
v  -0.0077 0.4901 0.0500
# 6 vertices

vn 0.3191 -0.4702 0.8229
vn -0.2648 -0.4784 0.8372
vn 0.0000 -0.3162 0.9487
vn -0.2690 -0.4612 0.8455
vn 0.3156 -0.4827 0.8169
# 5 vertex normals

vt 0.8009 0.6807 0.0000
vt 0.5074 0.7085 0.0000
vt 0.5074 0.1934 0.0000
vt 0.2173 0.6836 0.0000
vt 0.6371 1.0386 0.0000
vt 0.3794 1.0386 0.0000
# 6 texture coords

g intro_9D0B196_0_043
usemtl Material__99
s 1
f 124/125/129 125/126/129 126/127/129 
f 126/127/130 125/126/130 127/128/130 
f 128/129/131 129/130/131 125/126/131 
f 125/126/132 129/130/132 127/128/132 
f 125/126/133 124/125/133 128/129/133 
# 0 polygons - 5 triangles

#
# object intro_33A109D9_0_042
#

v  0.0446 0.5535 0.0226
v  0.0309 0.5784 0.0164
v  -0.0014 0.5672 0.0549
v  -0.0549 0.5348 -0.0210
v  -0.0437 0.5535 0.0226
v  -0.0375 0.5759 -0.0123
v  -0.0002 0.5846 0.0288
# 7 vertices

vn 0.5945 0.4869 0.6399
vn -0.9236 0.3756 0.0765
vn 0.3647 0.7666 0.5285
# 3 vertex normals

vt 0.6935 0.5190 0.0000
vt 0.6747 0.6667 0.0000
vt 0.8135 0.5974 0.0000
vt 0.5368 0.4067 0.0000
vt 0.6953 0.5190 0.0000
vt 0.5678 0.6482 0.0000
vt 0.7160 0.7051 0.0000
# 7 texture coords

g intro_33A109D9_0_042
usemtl Material__102
s 1
f 130/131/134 131/132/134 132/133/134 
f 133/134/135 134/135/135 135/136/135 
f 132/133/136 131/132/136 136/137/136 
# 0 polygons - 3 triangles

#
# object intro_33A109D9_0_041
#

v  -0.0388 0.5037 -0.0396
v  -0.0363 0.5000 -0.0322
v  -0.0549 0.5348 -0.0210
v  -0.0002 0.4863 -0.0496
v  -0.0425 0.5224 0.0039
v  -0.0002 0.4851 -0.0322
v  0.0396 0.5037 -0.0396
v  0.0371 0.5000 -0.0322
v  0.0545 0.5348 -0.0210
v  -0.0437 0.5535 0.0226
v  0.0421 0.5224 0.0039
v  -0.0313 0.5784 0.0176
v  -0.0375 0.5759 -0.0123
v  -0.0089 0.5672 0.0549
v  -0.0002 0.5946 -0.0098
v  -0.0002 0.5846 0.0288
v  0.0446 0.5535 0.0226
v  0.0371 0.5759 -0.0123
v  0.0309 0.5784 0.0164
v  -0.0014 0.5672 0.0549
v  -0.0039 0.5548 0.0462
# 21 vertices

vn -0.8737 -0.4839 0.0493
vn -0.4536 -0.8484 -0.2730
vn -0.8452 -0.5071 0.1690
vn -0.3815 -0.9220 -0.0659
vn 0.4426 -0.8523 -0.2787
vn 0.3706 -0.9264 -0.0662
vn 0.8843 -0.4626 0.0635
vn -0.9111 -0.2383 0.3364
vn 0.8542 -0.4863 0.1840
vn -0.8735 0.4654 0.1432
vn -0.6948 0.4583 0.5543
vn -0.4481 0.8938 0.0189
vn -0.2729 0.9315 0.2404
vn 0.9088 -0.2657 0.3216
vn -0.3272 0.8329 0.4462
vn 0.9231 0.3816 0.0475
vn 0.2817 0.9291 0.2398
vn 0.4482 0.8937 0.0197
vn 0.8521 0.5040 0.1414
vn 0.0000 0.8321 0.5547
vn 0.0000 -0.5735 0.8192
# 21 vertex normals

vt 0.4721 0.2205 0.0000
vt 0.4974 0.2021 0.0000
vt 0.5368 0.4067 0.0000
vt 0.4346 0.1205 0.0000
vt 0.6269 0.3328 0.0000
vt 0.4965 0.1113 0.0000
vt 0.4965 0.2021 0.0000
vt 0.6953 0.5190 0.0000
vt 0.6259 0.3328 0.0000
vt 0.6756 0.6667 0.0000
vt 0.5678 0.6482 0.0000
vt 0.8116 0.6005 0.0000
vt 0.5762 0.7605 0.0000
vt 0.7160 0.7051 0.0000
vt 0.6935 0.5190 0.0000
vt 0.6747 0.6667 0.0000
vt 0.8135 0.5974 0.0000
vt 0.7798 0.5282 0.0000
# 18 texture coords

g intro_33A109D9_0_041
usemtl Material__101
s 1
f 137/138/137 138/139/137 139/140/137 
f 138/139/138 137/138/138 140/141/138 
f 141/142/139 139/140/139 138/139/139 
f 142/143/140 138/139/140 140/141/140 
f 143/138/141 144/144/141 140/141/141 
f 144/144/142 142/143/142 140/141/142 
f 144/144/143 143/138/143 145/140/143 
f 146/145/144 139/140/144 141/142/144 
f 147/146/145 144/144/145 145/140/145 
f 146/145/146 148/147/146 149/148/146 
f 148/147/147 146/145/147 150/149/147 
f 149/148/148 148/147/148 151/150/148 
f 152/151/149 151/150/149 148/147/149 
f 145/140/150 153/152/150 147/146/150 
f 148/147/151 150/149/151 152/151/151 
f 153/152/152 145/140/152 154/148/152 
f 152/151/153 155/153/153 151/150/153 
f 154/148/154 151/150/154 155/153/154 
f 154/148/155 155/153/155 153/152/155 
f 150/149/156 156/154/156 152/151/156 
f 157/155/157 156/154/157 150/149/157 
# 0 polygons - 21 triangles

#
# object intro_E95B21_0_038
#

v  -0.1179 0.3593 -0.0522
v  -0.0264 0.3323 -0.1132
v  -0.0751 0.2427 -0.0820
v  0.0460 0.2703 -0.0522
v  -0.0556 0.4740 -0.0559
v  0.0460 0.4657 -0.1194
v  0.1083 0.3851 -0.0559
# 7 vertices

vn -0.5525 0.0106 -0.8334
vn 0.3099 -0.4575 -0.8334
vn -0.5014 0.2333 -0.8332
vn 0.4688 -0.2933 -0.8332
# 4 vertex normals

vt 1.0000 0.3055 0.0000
vt 0.4971 0.3755 0.0000
vt 0.5000 0.0174 0.0000
vt 0.0000 0.3055 0.0000
vt 0.9985 0.7647 0.0000
vt 0.4971 0.9086 0.0000
vt -0.0015 0.7647 0.0000
# 7 texture coords

g intro_E95B21_0_038
usemtl Material__106
s 1
f 158/156/158 159/157/158 160/158/158 
f 159/157/159 161/159/159 160/158/159 
f 159/157/160 162/160/160 163/161/160 
f 164/162/161 159/157/161 163/161/161 
# 0 polygons - 4 triangles

#
# object intro_E95B21_0_037
#

v  -0.0556 0.4740 -0.0559
v  -0.0264 0.3323 -0.1132
v  -0.1179 0.3593 -0.0522
v  0.1083 0.3851 -0.0559
v  0.0460 0.2703 -0.0522
# 5 vertices

vn -0.4891 0.2382 -0.8391
vn 0.4662 -0.2804 -0.8391
# 2 vertex normals

vt 0.9985 0.7647 0.0000
vt 0.4971 0.3755 0.0000
vt 1.0000 0.3055 0.0000
vt -0.0015 0.7647 0.0000
vt 0.0000 0.3055 0.0000
# 5 texture coords

g intro_E95B21_0_037
usemtl Material__105
s 1
f 165/163/162 166/164/162 167/165/162 
f 166/164/163 168/166/163 169/167/163 
# 0 polygons - 2 triangles

#
# object intro_34B3A6CC_0_036
#

v  -0.0751 0.2427 -0.0820
v  0.1083 0.3851 -0.0559
v  0.0460 0.4657 -0.1194
v  0.0460 0.2703 -0.0522
v  -0.0556 0.4740 -0.0559
v  -0.1179 0.3593 -0.0522
# 6 vertices

vn -0.3979 0.3575 0.8449
vn -0.2739 0.1794 0.9449
vn 0.2997 -0.1320 0.9449
vn 0.5165 -0.1389 0.8449
# 4 vertex normals

vt 0.5000 0.1094 0.0000
vt -0.0010 0.6934 0.0000
vt 0.4971 0.8062 0.0000
vt 0.0000 0.3345 0.0000
vt 0.9980 0.6934 0.0000
vt 1.0000 0.3345 0.0000
# 6 texture coords

g intro_34B3A6CC_0_036
usemtl Material__104
s 1
f 170/168/164 171/169/164 172/170/164 
f 171/169/165 170/168/165 173/171/165 
f 170/168/166 174/172/166 175/173/166 
f 174/172/167 170/168/167 172/170/167 
# 0 polygons - 4 triangles

#
# object intro_733B1EBE_0_035
#

v  0.1316 0.5896 -0.0648
v  0.0787 0.4967 -0.0623
v  0.1175 0.5976 -0.0473
v  0.0679 0.5027 -0.0473
v  0.1456 0.5816 -0.0473
v  0.0906 0.4899 -0.0473
# 6 vertices

vn -0.6448 0.3487 -0.6801
vn -0.6809 0.3566 -0.6397
vn 0.6323 -0.3795 -0.6754
vn 0.6292 -0.3762 -0.6801
vn 0.0000 0.0000 1.0000
vn 0.4946 0.8691 -0.0000
# 6 vertex normals

vt 0.5000 2.0000 0.0000
vt 0.4980 0.0000 0.0000
vt 0.0000 1.9980 0.0000
vt 0.0820 0.0000 0.0000
vt 1.0000 1.9980 0.0000
vt 0.9160 0.0000 0.0000
# 6 texture coords

g intro_733B1EBE_0_035
usemtl Material__107
s 1
f 176/174/168 177/175/168 178/176/168 
f 179/177/169 178/176/169 177/175/169 
f 177/175/170 180/178/170 181/179/170 
f 180/178/171 177/175/171 176/174/171 
f 179/177/172 180/178/172 178/176/172 
f 179/177/172 181/179/172 180/178/172 
f 180/178/173 176/174/173 178/176/173 
# 0 polygons - 7 triangles

#
# object intro_13D26875_0_034
#

v  0.0707 0.4826 -0.0685
v  0.1226 0.4531 -0.0436
v  0.0200 0.5115 -0.0436
v  0.0935 0.5225 -0.0511
# 4 vertices

vn -0.4946 -0.8691 -0.0000
vn -0.1589 0.4689 -0.8688
vn 0.4789 0.1071 -0.8713
vn 0.0792 0.1392 0.9871
# 4 vertex normals

vt 0.9961 0.8125 0.0000
vt 2.2031 0.8125 0.0000
vt -0.2031 0.8125 0.0000
vt 0.9961 -0.0781 0.0000
# 4 texture coords

g intro_13D26875_0_034
usemtl Material__100
s 1
f 182/180/174 183/181/174 184/182/174 
f 185/183/175 182/180/175 184/182/175 
f 182/180/176 185/183/176 183/181/176 
f 183/181/177 185/183/177 184/182/177 
# 0 polygons - 4 triangles

#
# object intro_0_0_009
#

v  -0.0653 0.2845 0.0561
v  -0.0695 0.2991 0.0602
v  -0.0640 0.2876 0.0524
v  -0.0432 0.2813 0.0577
v  -0.0707 0.2960 0.0639
v  -0.0546 0.3079 0.0814
v  -0.0527 0.3126 0.0758
v  -0.0574 0.3281 0.0924
v  -0.0413 0.3100 0.0878
v  -0.0179 0.3126 0.0932
v  -0.0394 0.3146 0.0823
v  -0.0497 0.3292 0.0961
# 12 vertices

vn -0.8924 -0.1370 -0.4300
vn -0.0665 -0.7493 -0.6589
vn -0.7419 0.6170 0.2625
vn -0.9514 0.0337 -0.3060
vn -0.2270 0.7806 0.5823
vn 0.8704 0.1796 0.4584
# 6 vertex normals

vt 0.0000 0.0000 0.0000
# 1 texture coords

g intro_0_0_009
usemtl Material__370
s 1
f 186/184/178 187/184/178 188/184/178 
f 188/184/179 189/184/179 186/184/179 
f 187/184/180 190/184/180 191/184/180 
f 186/184/178 190/184/178 187/184/178 
f 192/184/181 191/184/181 193/184/181 
f 187/184/180 191/184/180 192/184/180 
f 194/184/182 195/184/182 196/184/182 
f 194/184/183 196/184/183 197/184/183 
# 0 polygons - 8 triangles

#
# object intro_2B399230_0_008
#

v  -0.0640 0.2876 0.0524
v  -0.0695 0.2991 0.0602
v  -0.0466 0.2998 0.0588
v  -0.0432 0.2813 0.0577
v  -0.0251 0.2830 0.0655
v  -0.0517 0.2874 0.0733
v  -0.0707 0.2960 0.0639
v  -0.0653 0.2845 0.0561
v  -0.0140 0.3033 0.0766
v  -0.0527 0.3126 0.0758
v  -0.0394 0.3146 0.0823
v  -0.0546 0.3079 0.0814
v  -0.0052 0.2911 0.0794
v  -0.0179 0.2940 0.0875
v  -0.0413 0.3100 0.0878
v  -0.0574 0.3281 0.0924
v  -0.0179 0.3126 0.0932
v  0.0091 0.2985 0.0908
v  -0.0497 0.3292 0.0961
v  0.0025 0.3097 0.0980
# 20 vertices

vn -0.0702 0.5376 -0.8403
vn 0.2736 0.1054 -0.9561
vn -0.0555 -0.9397 0.3375
vn 0.3861 0.1234 -0.9141
vn -0.5563 -0.6334 0.5379
vn -0.1631 -0.9456 0.2815
vn 0.4498 0.2255 -0.8642
vn -0.0636 0.7894 -0.6105
vn 0.1442 0.8173 -0.5579
vn -0.5447 -0.3692 0.7530
vn 0.5161 0.1755 -0.8384
vn -0.0145 -0.8922 0.4514
vn -0.3539 -0.3821 0.8537
vn 0.0690 -0.9009 0.4286
vn 0.1950 0.7435 -0.6397
vn -0.2794 -0.4221 0.8624
vn 0.2905 0.8624 -0.4146
vn -0.3172 -0.4899 0.8120
vn -0.1872 -0.2876 0.9393
vn 0.0911 -0.8845 0.4575
vn 0.2266 0.8716 -0.4347
vn 0.4893 0.6563 -0.5744
vn -0.2532 -0.2834 0.9250
vn -0.0092 -0.5444 0.8388
vn 0.2250 0.7923 -0.5671
vn 0.5410 0.1986 -0.8172
# 26 vertex normals

vt 0.0678 0.2686 0.0000
vt 0.0665 0.3848 0.0000
vt 0.3055 0.3408 0.0000
vt 0.2296 0.1055 0.0000
vt 0.4666 0.0391 0.0000
vt 0.6633 0.3613 0.0000
vt 0.3062 0.6514 0.0000
vt 0.4706 0.6523 0.0000
vt 0.7291 0.1738 0.0000
vt 0.3350 0.9111 0.0000
vt 0.7144 0.5742 0.0000
vt 0.9138 0.2969 0.0000
vt 0.4532 0.9131 0.0000
vt 0.9124 0.4727 0.0000
# 14 texture coords

g intro_2B399230_0_008
usemtl Material__323
s 1
f 198/185/184 199/186/184 200/187/184 
f 198/185/185 200/187/185 201/188/185 
f 202/189/186 203/187/186 201/188/186 
f 200/187/187 202/189/187 201/188/187 
f 204/186/188 205/185/188 203/187/188 
f 203/187/189 205/185/189 201/188/189 
f 202/189/190 200/187/190 206/190/190 
f 207/191/191 200/187/191 199/186/191 
f 208/192/192 200/187/192 207/191/192 
f 204/186/193 203/187/193 209/191/193 
f 202/189/194 206/190/194 210/193/194 
f 202/189/195 211/190/195 203/187/195 
f 203/187/196 212/192/196 209/191/196 
f 211/190/197 202/189/197 210/193/197 
f 213/194/198 208/192/198 207/191/198 
f 211/190/199 212/192/199 203/187/199 
f 206/190/200 208/192/200 214/195/200 
f 212/192/201 213/194/201 209/191/201 
f 211/190/202 214/195/202 212/192/202 
f 215/196/203 211/190/203 210/193/203 
f 212/192/201 216/197/201 213/194/201 
f 213/194/198 216/197/198 208/192/198 
f 217/198/204 206/190/204 214/195/204 
f 206/190/205 217/198/205 215/196/205 
f 211/190/206 217/198/206 214/195/206 
f 217/198/207 211/190/207 215/196/207 
f 208/192/208 206/190/208 200/187/208 
f 206/190/209 215/196/209 210/193/209 
# 0 polygons - 28 triangles

#
# object shield_E95B21_0_031
#

v  -0.2855 0.4456 0.0761
v  -0.2661 0.5071 -0.0162
v  -0.3677 0.4765 -0.0158
v  -0.2867 0.4476 -0.1094
v  -0.1554 0.4488 0.0752
v  -0.1150 0.5127 -0.0172
v  -0.1567 0.4508 -0.1103
# 7 vertices

vn -0.2474 0.8292 0.5012
vn -0.2542 0.8398 -0.4797
vn -0.0273 0.8275 0.5608
vn -0.0349 0.8394 -0.5424
# 4 vertex normals

vt 1.0000 0.3055 0.0000
vt 0.4971 0.3755 0.0000
vt 0.5000 0.0174 0.0000
vt 0.0000 0.3055 0.0000
vt 0.9985 0.7646 0.0000
vt 0.4971 0.9085 0.0000
vt -0.0015 0.7646 0.0000
# 7 texture coords

g shield_E95B21_0_031
usemtl Material__302
s 1
f 218/199/210 219/200/210 220/201/210 
f 219/200/211 221/202/211 220/201/211 
f 219/200/212 222/203/212 223/204/212 
f 224/205/213 219/200/213 223/204/213 
# 0 polygons - 4 triangles

#
# object shield_E95B21_0_030
#

v  -0.1554 0.4488 0.0752
v  -0.2661 0.5071 -0.0162
v  -0.2855 0.4456 0.0761
v  -0.1567 0.4508 -0.1103
v  -0.2867 0.4476 -0.1094
# 5 vertices

vn -0.0171 0.8334 0.5524
vn -0.0246 0.8451 -0.5340
# 2 vertex normals

vt 0.9985 0.7646 0.0000
vt 0.4971 0.3755 0.0000
vt 1.0000 0.3055 0.0000
vt -0.0015 0.7646 0.0000
vt 0.0000 0.3055 0.0000
# 5 texture coords

g shield_E95B21_0_030
usemtl Material__301
s 1
f 225/206/214 226/207/214 227/208/214 
f 226/207/215 228/209/215 229/210/215 
# 0 polygons - 2 triangles

#
# object body_DFA86F8_0_005
#

v  -0.0179 0.2782 -0.0532
v  -0.0389 0.2906 -0.0669
v  0.0713 0.4825 -0.0644
v  -0.0612 0.3042 -0.0532
v  0.0948 0.4689 -0.0495
v  0.0465 0.4962 -0.0495
# 6 vertices

vn 0.4273 -0.2341 -0.8733
vn -0.3959 0.2388 -0.8867
vn 0.4203 -0.2313 -0.8774
vn -0.3985 0.2408 -0.8850
vn -0.0082 -0.0146 0.9999
vn -0.0087 -0.0145 0.9999
# 6 vertex normals

vt 0.9521 -0.0107 0.0000
vt 0.4990 -0.0107 0.0000
vt 0.5000 2.0039 0.0000
vt 0.0420 -0.0107 0.0000
vt 1.0000 2.0039 0.0000
vt 0.0000 2.0039 0.0000
# 6 texture coords

g body_DFA86F8_0_005
usemtl Material__300
s 1
f 230/211/216 231/212/216 232/213/216 
f 232/213/217 231/212/217 233/214/217 
f 230/211/218 232/213/218 234/215/218 
f 235/216/219 232/213/219 233/214/219 
f 230/211/220 234/215/220 235/216/220 
f 230/211/221 235/216/221 233/214/221 
# 0 polygons - 6 triangles

#
# object body_63297E4D_0_004
#

v  -0.0389 0.3463 0.0421
v  -0.0649 0.3996 -0.0211
v  -0.0451 0.3525 -0.0471
v  -0.0575 0.4343 -0.0471
v  -0.0006 0.3179 -0.0074
v  0.0428 0.3525 -0.0471
v  -0.0488 0.4627 -0.0211
v  0.0564 0.4343 -0.0471
v  -0.0526 0.4305 0.0111
v  0.0378 0.3463 0.0421
v  0.0007 0.4652 -0.0409
v  -0.0006 0.4169 0.0409
v  0.0638 0.3996 -0.0211
v  -0.0253 0.4491 0.0037
v  0.0477 0.4627 -0.0211
v  0.0515 0.4305 0.0111
v  0.0255 0.4491 0.0037
# 17 vertices

vn -0.9139 -0.4044 0.0354
vn -0.8906 -0.1349 -0.4344
vn 0.0000 -0.7526 -0.6585
vn -0.6066 -0.7949 -0.0131
vn -0.9677 0.2467 0.0524
vn 0.0000 0.0000 -1.0000
vn -0.9287 -0.0140 0.3706
vn 0.0000 -0.8669 0.4985
vn 0.6129 -0.7899 -0.0208
vn -0.2978 0.6915 -0.6581
vn -0.9603 0.2448 0.1340
vn 0.0000 0.1961 -0.9806
vn -0.4304 0.2493 0.8675
vn 0.9081 -0.4181 0.0214
vn -0.2926 0.6928 0.6591
vn 0.1123 0.9119 0.3948
vn 0.8819 -0.1470 -0.4479
vn 0.3112 0.6907 -0.6528
vn -0.2437 0.6466 0.7229
vn 0.9677 0.2467 0.0524
vn 0.9287 -0.0140 0.3706
vn -0.1182 0.9112 0.3947
vn 0.4304 0.2493 0.8675
vn 0.2485 0.6391 0.7279
vn 0.9603 0.2448 0.1340
vn 0.0000 0.0175 0.9998
vn 0.3061 0.6906 0.6553
# 27 vertex normals

vt 0.7991 0.1641 0.0000
vt 1.0000 0.5645 0.0000
vt 0.8411 0.2158 0.0000
vt 0.9375 0.8174 0.0000
vt 0.4955 -0.0469 0.0000
vt 0.1607 0.2158 0.0000
vt 0.8786 1.0264 0.0000
vt 0.0616 0.8174 0.0000
vt 0.9000 0.7871 0.0000
vt 0.2027 0.1641 0.0000
vt 0.4893 1.0469 0.0000
vt 0.5000 0.6914 0.0000
vt 0.0000 0.5645 0.0000
vt 0.6955 0.9248 0.0000
vt 0.1205 1.0264 0.0000
vt 0.0991 0.7871 0.0000
vt 0.2964 0.9248 0.0000
# 17 texture coords

g body_63297E4D_0_004
usemtl Material__299
s 1
f 236/217/222 237/218/222 238/219/222 
f 239/220/223 238/219/223 237/218/223 
f 240/221/224 238/219/224 241/222/224 
f 236/217/225 238/219/225 240/221/225 
f 237/218/226 242/223/226 239/220/226 
f 243/224/227 238/219/227 239/220/227 
f 243/224/227 241/222/227 238/219/227 
f 237/218/228 236/217/228 244/225/228 
f 236/217/229 240/221/229 245/226/229 
f 241/222/230 245/226/230 240/221/230 
f 246/227/231 239/220/231 242/223/231 
f 242/223/232 237/218/232 244/225/232 
f 246/227/233 243/224/233 239/220/233 
f 244/225/234 236/217/234 247/228/234 
f 248/229/235 245/226/235 241/222/235 
f 242/223/236 244/225/236 249/230/236 
f 249/230/237 246/227/237 242/223/237 
f 248/229/238 241/222/238 243/224/238 
f 250/231/239 243/224/239 246/227/239 
f 244/225/240 247/228/240 249/230/240 
f 248/229/241 243/224/241 250/231/241 
f 251/232/242 245/226/242 248/229/242 
f 246/227/243 252/233/243 250/231/243 
f 245/226/244 251/232/244 247/228/244 
f 247/228/245 251/232/245 252/233/245 
f 248/229/246 250/231/246 251/232/246 
f 247/228/247 236/217/247 245/226/247 
f 252/233/248 251/232/248 250/231/248 
# 0 polygons - 28 triangles

#
# object legr_42229DB7_0_048
#

v  -0.0239 0.1629 0.0087
v  -0.0474 0.2533 0.0054
v  -0.0428 0.1620 -0.0292
v  -0.0127 0.2544 0.0212
v  -0.0234 0.2599 -0.0322
v  -0.0069 0.1620 -0.0263
# 6 vertices

vn -0.8721 -0.2111 0.4415
vn -0.4105 -0.0739 0.9089
vn 0.0801 -0.0464 -0.9957
vn -0.8447 0.1519 -0.5133
vn -0.0027 -0.9997 0.0249
# 5 vertex normals

vt 0.5010 0.0039 0.0000
vt 0.0000 0.9238 0.0000
vt 0.1240 0.0000 0.0000
vt 0.7510 0.9336 0.0000
vt 0.5352 0.9961 0.0000
vt 0.8809 0.0000 0.0000
# 6 texture coords

g legr_42229DB7_0_048
usemtl Material__298
s 1
f 253/234/249 254/235/249 255/236/249 
f 254/235/250 253/234/250 256/237/250 
f 257/238/251 258/239/251 255/236/251 
f 255/236/252 254/235/252 257/238/252 
f 258/239/253 253/234/253 255/236/253 
# 0 polygons - 5 triangles

#
# object legr_42229DB7_0_047
#

v  -0.0069 0.1620 -0.0263
v  -0.0127 0.2544 0.0212
v  -0.0239 0.1629 0.0087
v  -0.0013 0.2610 -0.0164
v  -0.0234 0.2599 -0.0322
# 5 vertices

vn 0.8852 -0.1673 0.4340
vn 0.9577 -0.0817 0.2761
vn 0.5788 0.0487 -0.8140
# 3 vertex normals

vt 0.8809 0.0000 0.0000
vt 0.7510 0.9336 0.0000
vt 0.5010 0.0039 0.0000
vt 1.0000 1.0000 0.0000
vt 0.5352 0.9961 0.0000
# 5 texture coords

g legr_42229DB7_0_047
usemtl Material__297
s 1
f 259/240/254 260/241/254 261/242/254 
f 260/241/255 259/240/255 262/243/255 
f 262/243/256 259/240/256 263/244/256 
# 0 polygons - 3 triangles

#
# object legl_42229DB7_0_046
#

v  0.0168 0.2544 0.0234
v  0.0019 0.1620 -0.0220
v  0.0255 0.1629 0.0089
v  -0.0018 0.2609 -0.0100
v  0.0168 0.2599 -0.0310
v  0.0366 0.1620 -0.0307
v  0.0477 0.2534 0.0011
# 7 vertices

vn -0.7823 -0.1689 0.5996
vn -0.8776 -0.0903 0.4708
vn -0.2421 -0.0524 -0.9688
vn 0.0084 -0.9997 0.0244
vn 0.7271 0.1449 -0.6711
# 5 vertex normals

vt 0.2344 0.9355 0.0000
vt 0.1221 0.0000 0.0000
vt 0.4902 0.0059 0.0000
vt 0.0000 1.0000 0.0000
vt 0.4746 0.9941 0.0000
vt 0.8867 0.0000 0.0000
vt 1.0000 0.9248 0.0000
# 7 texture coords

g legl_42229DB7_0_046
usemtl Material__296
s 1
f 264/245/257 265/246/257 266/247/257 
f 265/246/258 264/245/258 267/248/258 
f 265/246/259 268/249/259 269/250/259 
f 269/250/260 266/247/260 265/246/260 
f 270/251/261 269/250/261 268/249/261 
# 0 polygons - 5 triangles

#
# object legl_42229DB7_0_045
#

v  0.0477 0.2534 0.0011
v  0.0255 0.1629 0.0089
v  0.0366 0.1620 -0.0307
v  0.0168 0.2544 0.0234
v  0.0019 0.1620 -0.0220
v  -0.0018 0.2609 -0.0100
v  0.0168 0.2599 -0.0310
# 7 vertices

vn 0.9403 -0.2084 0.2690
vn 0.5813 -0.0730 0.8104
vn -0.7477 0.0526 -0.6620
# 3 vertex normals

vt 1.0000 0.9248 0.0000
vt 0.4902 0.0059 0.0000
vt 0.8867 0.0000 0.0000
vt 0.2344 0.9355 0.0000
vt 0.1221 0.0000 0.0000
vt 0.0000 1.0000 0.0000
vt 0.4746 0.9941 0.0000
# 7 texture coords

g legl_42229DB7_0_045
usemtl Material__295
s 1
f 271/252/262 272/253/262 273/254/262 
f 272/253/263 271/252/263 274/255/263 
f 275/256/264 276/257/264 277/258/264 
# 0 polygons - 3 triangles

#
# object armr_753D63FC_0_008
#

v  -0.2561 0.4684 0.0093
v  -0.2118 0.4574 -0.0147
v  -0.2478 0.4688 -0.0303
v  -0.2117 0.4226 0.0010
v  -0.2120 0.4229 -0.0311
# 5 vertices

vn 0.2752 0.9590 0.0674
vn 0.5118 0.3535 0.7830
vn 0.4675 0.3779 -0.7992
vn 1.0000 -0.0036 -0.0085
# 4 vertex normals

vt 0.9863 0.8828 0.0000
vt 0.3887 0.1504 0.0000
vt 0.1367 0.8223 0.0000
vt 0.6914 0.0000 0.0000
vt 0.0039 0.0508 0.0000
# 5 texture coords

g armr_753D63FC_0_008
usemtl Material__294
s 1
f 278/259/265 279/260/265 280/261/265 
f 279/260/266 278/259/266 281/262/266 
f 280/261/267 279/260/267 282/263/267 
f 282/263/268 279/260/268 281/262/268 
# 0 polygons - 4 triangles

#
# object armr_753D63FC_0_007
#

v  -0.1674 0.4426 -0.0413
v  -0.2253 0.4550 -0.0159
v  -0.1671 0.4708 -0.0150
v  -0.1682 0.4459 0.0045
v  -0.2253 0.4313 -0.0026
v  -0.1673 0.4176 -0.0156
v  -0.2255 0.4266 -0.0286
# 7 vertices

vn -0.1719 0.6731 -0.7193
vn -0.1786 0.6117 0.7706
vn 0.0462 -0.5783 0.8145
vn -0.2275 0.4786 0.8481
vn -0.1885 -0.9664 0.1750
vn 0.0450 -0.7158 -0.6968
vn -0.2978 0.3918 -0.8705
# 7 vertex normals

vt 3.9473 0.9668 0.0000
vt 1.1016 0.0664 0.0000
vt 1.0586 0.9668 0.0000
vt 1.9727 0.9668 0.0000
vt 1.9688 0.0664 0.0000
vt 2.9395 0.9668 0.0000
vt 2.9199 0.0664 0.0000
vt 3.8945 0.0664 0.0000
# 8 texture coords

g armr_753D63FC_0_007
usemtl Material__293
s 1
f 283/264/269 284/265/269 285/266/269 
f 284/265/270 286/267/270 285/266/270 
f 287/268/271 288/269/271 286/267/271 
f 286/267/272 284/265/272 287/268/272 
f 289/270/273 288/269/273 287/268/273 
f 288/269/274 289/271/274 283/264/274 
f 284/265/275 283/264/275 289/271/275 
# 0 polygons - 7 triangles

#
# object arml_753D63FC_0_006
#

v  0.2612 0.4682 0.0081
v  0.2182 0.4573 -0.0161
v  0.2181 0.4225 -0.0004
v  0.2185 0.4228 -0.0326
v  0.2543 0.4686 -0.0303
# 5 vertices

vn -0.5260 0.3514 0.7745
vn -0.9999 -0.0025 -0.0139
vn -0.2786 0.9585 0.0599
vn -0.4407 0.3834 -0.8116
# 4 vertex normals

vt 0.9961 0.5098 0.0000
vt 0.6973 0.0098 0.0000
vt 0.0000 0.0000 0.0000
vt 0.0156 0.1445 0.0000
vt 1.0000 0.5781 0.0000
# 5 texture coords

g arml_753D63FC_0_006
usemtl Material__292
s 1
f 290/272/276 291/273/276 292/274/276 
f 292/274/277 291/273/277 293/275/277 
f 294/276/278 291/273/278 290/272/278 
f 294/276/279 293/275/279 291/273/279 
# 0 polygons - 4 triangles

#
# object arml_753D63FC_0_005
#

v  0.2250 0.4548 -0.0173
v  0.1665 0.4446 0.0028
v  0.2249 0.4299 -0.0040
v  0.1669 0.4176 -0.0173
v  0.1672 0.4426 -0.0430
v  0.1668 0.4707 -0.0167
v  0.2252 0.4265 -0.0300
# 7 vertices

vn 0.2153 0.4605 0.8612
vn -0.0565 -0.5963 0.8008
vn 0.1765 0.6729 -0.7184
vn 0.1688 0.5879 0.7911
vn 0.1780 -0.9752 0.1311
vn -0.0420 -0.7157 -0.6971
vn 0.3029 0.3915 -0.8689
# 7 vertex normals

vt 3.8965 0.0293 0.0000
vt 3.0254 0.9766 0.0000
vt 3.0293 0.0293 0.0000
vt 2.0586 0.9766 0.0000
vt 1.0508 0.9766 0.0000
vt 3.9395 0.9766 0.0000
vt 2.0781 0.0293 0.0000
vt 1.1035 0.0293 0.0000
# 8 texture coords

g arml_753D63FC_0_005
usemtl Material__291
s 1
f 295/277/280 296/278/280 297/279/280 
f 298/280/281 297/279/281 296/278/281 
f 295/277/282 299/281/282 300/282/282 
f 296/278/283 295/277/283 300/282/283 
f 297/283/284 298/280/284 301/284/284 
f 301/284/285 298/280/285 299/281/285 
f 299/281/286 295/277/286 301/284/286 
# 0 polygons - 7 triangles

#
# object body_753D63FC_0_004
#

v  -0.0625 0.2510 -0.0532
v  -0.0389 0.2906 -0.0669
v  -0.0179 0.2782 -0.0532
v  -0.0612 0.3042 -0.0532
# 4 vertices

vn 0.2787 -0.4560 -0.8452
vn -0.5161 0.0120 -0.8565
vn 0.0000 0.0000 1.0000
# 3 vertex normals

vt 0.7168 0.1152 0.0000
vt 0.5254 1.0352 0.0000
vt 1.0996 1.0352 0.0000
vt -0.0469 1.0352 0.0000
vt 0.3340 0.1152 0.0000
# 5 texture coords

g body_753D63FC_0_004
usemtl Material__290
s 1
f 302/285/287 303/286/287 304/287/287 
f 303/288/288 302/285/288 305/289/288 
f 305/289/289 302/289/289 304/285/289 
# 0 polygons - 3 triangles

#
# object body_753D63FC_0_003
#

v  -0.0427 0.3418 -0.0000
v  -0.0006 0.3455 -0.0371
v  -0.0006 0.3257 -0.0396
v  -0.0427 0.3257 -0.0000
v  0.0416 0.3257 -0.0000
v  -0.0006 0.3170 0.0310
v  0.0416 0.3418 -0.0000
v  -0.0006 0.3393 0.0334
# 8 vertices

vn -0.6634 0.0928 -0.7425
vn -0.6854 0.0000 -0.7282
vn 0.6825 0.0907 -0.7252
vn -0.5924 0.0000 0.8057
vn 0.0000 0.9950 0.0995
vn -0.6227 -0.0864 0.7777
vn 0.6018 -0.0882 0.7938
vn 0.6219 0.0000 0.7831
vn 0.6616 0.0000 -0.7498
vn 0.0000 0.9973 0.0739
# 10 vertex normals

vt 8.1836 1.0703 0.0000
vt 5.0801 1.0684 0.0000
vt 5.0801 -0.1777 0.0000
vt 8.2734 0.0625 0.0000
vt 2.3047 0.0547 0.0000
vt 11.5469 -0.2168 0.0000
vt 2.3789 1.0625 0.0000
vt 11.5469 1.0605 0.0000
vt -0.4512 1.0605 0.0000
vt -0.4512 -0.2168 0.0000
vt 14.3789 1.0625 0.0000
# 11 texture coords

g body_753D63FC_0_003
usemtl Material__289
s 1
f 306/290/290 307/291/290 308/292/290 
f 306/290/291 308/292/291 309/293/291 
f 307/291/292 310/294/292 308/292/292 
f 311/295/293 306/290/293 309/293/293 
f 306/290/294 312/296/294 307/291/294 
f 311/295/295 313/297/295 306/290/295 
f 310/294/296 313/298/296 311/299/296 
f 310/294/297 312/296/297 313/298/297 
f 307/291/298 312/296/298 310/294/298 
f 306/290/299 313/297/299 312/300/299 
# 0 polygons - 10 triangles

#
# object sword_733B1EBE_0_018
#

v  0.2642 0.4346 0.0261
v  0.2354 0.4358 -0.0789
v  0.2676 0.4358 -0.0790
v  0.2515 0.4518 -0.0788
v  0.2518 0.4495 0.0263
v  0.2382 0.4346 0.0262
# 6 vertices

vn -0.0005 -0.9999 -0.0108
vn -0.0030 0.0107 -0.9999
vn -0.7363 0.6762 0.0268
vn 0.7070 0.7071 0.0138
vn -0.7063 0.7077 0.0181
vn 0.7679 0.6398 0.0317
# 6 vertex normals

vt 0.0820 0.0000 0.0000
vt 1.0000 1.9980 0.0000
vt 0.0000 1.9980 0.0000
vt 0.5000 2.0000 0.0000
vt 0.4980 0.0000 0.0000
vt 0.9160 0.0000 0.0000
# 6 texture coords

g sword_733B1EBE_0_018
usemtl Material__288
s 1
f 314/301/300 315/302/300 316/303/300 
f 315/302/301 317/304/301 316/303/301 
f 318/305/302 315/302/302 319/306/302 
f 314/301/300 319/306/300 315/302/300 
f 317/304/303 318/305/303 316/303/303 
f 315/302/304 318/305/304 317/304/304 
f 314/301/305 316/303/305 318/305/305 
# 0 polygons - 7 triangles

#
# object head_581C1289_0_040
#

v  -0.0080 0.4900 0.0498
v  -0.0006 0.4913 0.0708
v  -0.0006 0.5086 0.0461
# 3 vertices

vn -0.8696 0.4045 0.2831
# 1 vertex normals

vt 0.4746 -0.0547 0.0000
vt -0.2617 0.6426 0.0000
vt 0.9941 0.7930 0.0000
# 3 texture coords

g head_581C1289_0_040
usemtl Material__286
s 1
f 320/307/306 321/308/306 322/309/306 
# 0 polygons - 1 triangles

#
# object head_581C1289_0_039
#

v  -0.0006 0.5086 0.0461
v  -0.0006 0.4913 0.0708
v  0.0069 0.4900 0.0498
# 3 vertices

vn 0.8696 0.4045 0.2831
# 1 vertex normals

vt 0.9941 0.7930 0.0000
vt -0.2617 0.6426 0.0000
vt 0.4766 -0.0566 0.0000
# 3 texture coords

g head_581C1289_0_039
usemtl Material__285
s 1
f 323/310/307 324/311/307 325/312/307 
# 0 polygons - 1 triangles

#
# object body_292EE278_0_007
#

v  0.0255 0.4491 0.0037
v  -0.0253 0.4491 0.0037
v  -0.0006 0.4169 0.0409
v  0.0007 0.4652 -0.0409
# 4 vertices

vn 0.0000 0.7557 0.6549
vn 0.0000 0.9406 0.3396
# 2 vertex normals

vt 0.1221 0.8779 0.0000
vt 0.8975 0.8779 0.0000
vt 0.5176 -0.0293 0.0000
vt 0.0625 0.8467 0.0000
# 4 texture coords

g body_292EE278_0_007
usemtl Material__283
s 1
f 326/313/308 327/314/308 328/315/308 
f 326/313/309 329/316/309 327/314/309 
# 0 polygons - 2 triangles

#
# object head_266C7826_0_032
#

v  0.0007 0.4783 0.0134
v  -0.0204 0.4944 0.0011
v  -0.0204 0.4485 -0.0002
v  0.0007 0.4622 -0.0386
v  0.0205 0.4944 0.0011
v  0.0230 0.4485 -0.0002
# 6 vertices

vn -0.5199 -0.0231 0.8539
vn -0.8787 0.0129 -0.4773
vn 0.8724 0.0603 -0.4851
vn 0.0000 -0.4167 0.9091
vn 0.5268 0.0055 0.8500
vn 0.0000 0.7761 -0.6306
# 6 vertex normals

vt 0.4824 0.4875 0.0000
vt 0.0137 0.6249 0.0000
vt 0.0000 -0.0026 0.0000
vt 0.4785 -0.0536 0.0000
vt 0.9482 0.6243 0.0000
vt 1.0000 -0.0105 0.0000
# 6 texture coords

g head_266C7826_0_032
usemtl Material__281
s 1
f 330/317/310 331/318/310 332/319/310 
f 331/318/311 333/320/311 332/319/311 
f 333/320/312 334/321/312 335/322/312 
f 335/322/313 330/317/313 332/319/313 
f 330/317/314 335/322/314 334/321/314 
f 334/321/315 333/320/315 331/318/315 
# 0 polygons - 6 triangles

#
# object head_53D593AC_0_036
#

v  -0.0303 0.4888 0.0300
v  -0.0204 0.4826 -0.0047
v  -0.0006 0.4615 0.0362
v  0.0007 0.4628 -0.0394
v  -0.0377 0.5148 0.0077
v  -0.0327 0.5148 0.0238
v  -0.0080 0.4900 0.0498
v  -0.0006 0.5086 0.0461
v  -0.0179 0.5445 0.0436
v  -0.0006 0.5396 0.0498
v  0.0329 0.5148 0.0250
v  0.0168 0.5445 0.0436
v  0.0069 0.4900 0.0498
v  0.0304 0.4888 0.0300
v  0.0205 0.4826 -0.0047
v  0.0378 0.5160 0.0089
# 16 vertices

vn -0.6679 -0.7419 -0.0584
vn -0.7052 -0.7087 -0.0232
vn -0.9556 -0.0210 0.2940
vn -0.8933 -0.4111 -0.1818
vn -0.4854 0.3540 0.7994
vn -0.6636 0.1129 0.7395
vn -0.3622 -0.1111 0.9254
vn -0.5835 -0.2279 0.7795
vn 0.5485 -0.2089 0.8096
vn 0.3622 -0.1111 0.9254
vn 0.6445 0.0834 0.7601
vn 0.4533 0.3456 0.8216
vn 0.7071 -0.7071 -0.0000
vn 0.6538 -0.7548 -0.0520
vn 0.9559 -0.0355 0.2914
vn 0.9011 -0.3908 -0.1877
# 16 vertex normals

vt 0.9634 0.3164 0.0000
vt 0.7993 0.2329 0.0000
vt 0.5017 -0.0566 0.0000
vt 0.4947 -0.0488 0.0000
vt 1.0731 0.6753 0.0000
vt 1.0019 0.6753 0.0000
vt 0.6189 0.3330 0.0000
vt 0.5005 0.5928 0.0000
vt 0.7712 1.0854 0.0000
vt 0.5032 1.0078 0.0000
vt -0.0096 0.6689 0.0000
vt 0.2393 1.0854 0.0000
vt 0.3833 0.3330 0.0000
vt 0.0398 0.3164 0.0000
vt 0.1865 0.2329 0.0000
vt -0.0696 0.6855 0.0000
# 16 texture coords

g head_53D593AC_0_036
usemtl Material__284
s 1
f 336/323/316 337/324/316 338/325/316 
f 338/325/317 337/324/317 339/326/317 
f 340/327/318 336/323/318 341/328/318 
f 336/323/319 340/327/319 337/324/319 
f 341/328/320 342/329/320 343/330/320 
f 342/329/321 341/328/321 336/323/321 
f 344/331/322 343/330/322 345/332/322 
f 341/328/323 343/330/323 344/331/323 
f 343/330/324 346/333/324 347/334/324 
f 343/330/325 347/334/325 345/332/325 
f 346/333/326 348/335/326 349/336/326 
f 348/335/327 346/333/327 343/330/327 
f 350/337/328 338/325/328 339/326/328 
f 350/337/329 349/336/329 338/325/329 
f 349/336/330 351/338/330 346/333/330 
f 351/338/331 349/336/331 350/337/331 
# 0 polygons - 16 triangles

#
# object shield_34B3A6CC_0_029
#

v  -0.3677 0.4765 -0.0158
v  -0.1567 0.4508 -0.1103
v  -0.1150 0.5127 -0.0172
v  -0.2867 0.4476 -0.1094
v  -0.1554 0.4488 0.0752
v  -0.2855 0.4456 0.0761
# 6 vertices

vn 0.1246 -0.8511 0.5100
vn 0.0258 -0.9485 0.3158
vn 0.0213 -0.9415 -0.3365
vn 0.1175 -0.8399 -0.5299
# 4 vertex normals

vt 0.5000 0.1094 0.0000
vt -0.0010 0.6934 0.0000
vt 0.4971 0.8062 0.0000
vt 0.0000 0.3345 0.0000
vt 0.9980 0.6934 0.0000
vt 1.0000 0.3345 0.0000
# 6 texture coords

g shield_34B3A6CC_0_029
usemtl Material__279
s 1
f 352/339/332 353/340/332 354/341/332 
f 353/340/333 352/339/333 355/342/333 
f 352/339/334 356/343/334 357/344/334 
f 356/343/335 352/339/335 354/341/335 
# 0 polygons - 4 triangles

#
# object head_33A109D9_0_034
#

v  -0.0290 0.5075 -0.0892
v  0.0267 0.5075 -0.0892
v  -0.0006 0.4863 -0.0493
v  -0.0563 0.5346 -0.0208
v  -0.0018 0.5605 -0.0879
v  -0.0030 0.4779 -0.1385
v  -0.0006 0.5889 -0.0337
v  0.0552 0.5346 -0.0208
v  -0.0006 0.5940 -0.0096
# 9 vertices

vn 0.0000 -0.8835 -0.4684
vn -0.6395 -0.7672 0.0498
vn -0.7789 0.4111 -0.4735
vn 0.0000 -0.8575 0.5145
vn 0.6755 0.3775 -0.6334
vn -0.7068 0.3769 -0.5987
vn -0.6980 0.6410 -0.3192
vn 0.6443 -0.7640 0.0349
vn -0.7073 0.6910 -0.1488
vn 0.6944 0.6311 -0.3457
vn 0.7651 0.4221 -0.4862
vn 0.7073 0.6910 -0.1488
# 12 vertex normals

vt 0.2495 0.3259 0.0000
vt 0.2508 0.3259 0.0000
vt 0.0039 0.6719 0.0000
vt 0.2422 0.8125 0.0000
vt 0.2571 0.5935 0.0000
vt 0.0015 0.1754 0.0000
vt 0.5278 0.7382 0.0000
vt 0.2422 0.8105 0.0000
vt 0.5430 0.8672 0.0000
# 9 texture coords

g head_33A109D9_0_034
usemtl Material__278
s 1
f 358/345/336 359/346/336 360/347/336 
f 358/345/337 360/347/337 361/348/337 
f 361/348/338 362/349/338 358/345/338 
f 359/346/339 358/345/339 363/350/339 
f 362/349/340 359/346/340 363/350/340 
f 358/345/341 362/349/341 363/350/341 
f 361/348/342 364/351/342 362/349/342 
f 360/347/343 359/346/343 365/352/343 
f 364/351/344 361/348/344 366/353/344 
f 364/351/345 365/352/345 362/349/345 
f 362/349/346 365/352/346 359/346/346 
f 365/352/347 364/351/347 366/353/347 
# 0 polygons - 12 triangles

#
# object head_33A109D9_0_033
#

v  -0.0563 0.5346 -0.0208
v  -0.0006 0.4851 -0.0480
v  -0.0377 0.5148 0.0077
v  -0.0006 0.4863 -0.0493
v  -0.0439 0.5532 0.0226
v  0.0552 0.5346 -0.0208
v  -0.0006 0.5940 -0.0096
v  0.0378 0.5160 0.0089
v  0.0440 0.5532 0.0226
v  -0.0092 0.5668 0.0547
v  -0.0018 0.5668 0.0547
v  -0.0043 0.5557 0.0461
# 12 vertices

vn -0.6803 -0.7301 -0.0642
vn -0.6978 -0.5065 -0.5065
vn -0.8814 -0.2873 0.3750
vn 0.6978 -0.5065 -0.5065
vn -0.7180 0.6901 -0.0906
vn 0.6795 -0.7311 -0.0606
vn 0.7143 0.6907 -0.1123
vn -0.5528 0.7915 0.2605
vn 0.8952 -0.2772 0.3490
vn 0.4838 0.8026 0.3489
vn 0.0000 -0.6139 0.7894
vn 0.0000 0.9210 0.3896
# 12 vertex normals

vt 0.5378 0.4051 0.0000
vt 0.4374 0.1082 0.0000
vt 0.6419 0.2898 0.0000
vt 0.4346 0.1205 0.0000
vt 0.6953 0.5205 0.0000
vt 0.5350 0.4051 0.0000
vt 0.5762 0.7605 0.0000
vt 0.6456 0.2944 0.0000
vt 0.6935 0.5205 0.0000
vt 0.8116 0.6021 0.0000
vt 0.8135 0.5990 0.0000
vt 0.7798 0.5297 0.0000
# 12 texture coords

g head_33A109D9_0_033
usemtl Material__277
s 1
f 367/354/348 368/355/348 369/356/348 
f 368/355/349 367/354/349 370/357/349 
f 369/356/350 371/358/350 367/354/350 
f 372/359/351 368/355/351 370/357/351 
f 373/360/352 367/354/352 371/358/352 
f 368/355/353 372/359/353 374/361/353 
f 372/359/354 373/360/354 375/362/354 
f 371/358/355 376/363/355 373/360/355 
f 374/361/356 372/359/356 375/362/356 
f 375/362/357 373/360/357 377/364/357 
f 378/365/358 377/364/358 376/363/358 
f 376/363/359 377/364/359 373/360/359 
# 0 polygons - 12 triangles

#
# object armr_17F3DC0A_0_009
#

v  -0.0648 0.4692 -0.0184
v  -0.0476 0.4395 -0.0176
v  -0.0578 0.4374 -0.0472
v  -0.0585 0.4380 0.0085
v  -0.0663 0.4111 -0.0202
v  -0.1082 0.4657 -0.0180
v  -0.1130 0.4382 0.0064
v  -0.1096 0.4187 -0.0210
v  -0.1196 0.4387 -0.0368
# 9 vertices

vn 0.8244 0.4693 -0.3165
vn 0.8021 0.4740 0.3634
vn 0.8197 -0.5180 -0.2443
vn 0.7840 -0.5446 0.2980
vn -0.0248 0.6677 0.7440
vn -0.0472 0.6453 0.7625
vn -0.0246 -0.8163 0.5771
vn -0.0600 0.6625 -0.7466
vn -0.1203 0.6004 -0.7906
vn -0.1089 -0.6955 -0.7102
vn -0.1396 -0.6554 -0.7423
vn -0.1360 -0.7042 0.6969
# 12 vertex normals

vt 0.0000 0.0000 0.0000
vt 0.1035 0.4277 0.0000
vt 0.8828 -0.0254 0.0000
vt 0.9375 0.3184 0.0000
vt 0.1797 -0.0762 0.0000
vt 0.8945 0.5801 0.0000
vt 0.1699 0.4590 0.0000
vt 1.0313 0.3223 0.0000
vt 0.3926 0.8164 0.0000
# 9 texture coords

g armr_17F3DC0A_0_009
usemtl Material__276
s 1
f 379/366/360 380/366/360 381/366/360 
f 380/366/361 379/366/361 382/366/361 
f 380/366/362 383/366/362 381/366/362 
f 383/366/363 380/366/363 382/366/363 
f 382/367/364 384/368/364 385/369/364 
f 384/368/365 382/367/365 379/370/365 
f 386/371/366 382/367/366 385/369/366 
f 381/372/367 384/368/367 379/370/367 
f 384/368/368 381/372/368 387/373/368 
f 386/371/369 381/372/369 383/374/369 
f 381/372/370 386/371/370 387/373/370 
f 382/367/371 386/371/371 383/374/371 
# 0 polygons - 12 triangles

#
# object arml_17F3DC0A_0_008
#

v  0.0652 0.4112 -0.0214
v  0.0465 0.4395 -0.0174
v  0.0552 0.4374 -0.0471
v  0.0589 0.4380 0.0086
v  0.0638 0.4692 -0.0183
v  0.1085 0.4187 -0.0225
v  0.1121 0.4382 0.0049
v  0.1184 0.4387 -0.0383
v  0.1084 0.4656 -0.0183
# 9 vertices

vn -0.8304 -0.5173 -0.2068
vn -0.7657 -0.5506 0.3325
vn -0.8341 0.4758 -0.2792
vn -0.7871 0.4689 0.4009
vn 0.0419 -0.8168 0.5754
vn 0.1427 -0.7217 0.6773
vn 0.1176 -0.6520 -0.7490
vn 0.0996 -0.6770 -0.7292
vn 0.0516 0.6467 0.7610
vn 0.0958 0.6168 -0.7813
vn 0.0495 0.6488 0.7594
vn 0.0539 0.6615 -0.7480
# 12 vertex normals

vt 0.0000 0.0000 0.0000
vt 1.0527 0.4043 0.0000
vt 0.2617 0.2363 0.0000
vt 0.2188 0.5234 0.0000
vt 0.7637 -0.0215 0.0000
vt 0.9863 0.3691 0.0000
vt 0.1250 0.5195 0.0000
vt 0.2734 0.9043 0.0000
vt 0.9766 0.9590 0.0000
# 9 texture coords

g arml_17F3DC0A_0_008
usemtl Material__275
s 1
f 388/375/372 389/375/372 390/375/372 
f 389/375/373 388/375/373 391/375/373 
f 389/375/374 392/375/374 390/375/374 
f 392/375/375 389/375/375 391/375/375 
f 391/376/376 393/377/376 394/378/376 
f 393/377/377 391/376/377 388/379/377 
f 393/377/378 390/380/378 395/381/378 
f 390/380/379 393/377/379 388/379/379 
f 391/376/380 396/382/380 392/383/380 
f 390/380/381 396/382/381 395/381/381 
f 396/382/382 391/376/382 394/378/382 
f 396/382/383 390/380/383 392/383/383 
# 0 polygons - 12 triangles

#
# object sword_13D26875_0_017
#

v  0.1925 0.4320 0.0436
v  0.2517 0.4387 -0.0035
v  0.3101 0.4319 0.0432
v  0.2519 0.4555 0.0437
# 4 vertices

vn -0.0008 -0.9900 -0.1411
vn -0.3484 0.8833 -0.3136
vn 0.3537 0.8808 -0.3149
vn 0.0030 -0.0107 0.9999
# 4 vertex normals

vt 1.0000 0.0000 0.0000
vt 0.4961 1.0000 0.0000
vt 0.0000 0.0000 0.0000
vt 0.4961 0.0039 0.0000
# 4 texture coords

g sword_13D26875_0_017
usemtl Material__274
s 1
f 397/384/384 398/385/384 399/386/384 
f 400/387/385 398/385/385 397/384/385 
f 398/385/386 400/387/386 399/386/386 
f 400/387/387 397/384/387 399/386/387 
# 0 polygons - 4 triangles

#
# object head_9D0B196_0_035
#

v  0.0069 0.4900 0.0498
v  -0.0006 0.4615 0.0362
v  0.0304 0.4888 0.0300
v  -0.0080 0.4900 0.0498
# 4 vertices

vn 0.5530 -0.4725 0.6862
vn 0.0000 -0.4315 0.9021
# 2 vertex normals

vt 0.6312 0.9399 0.0000
vt 0.5019 0.1738 0.0000
vt 1.0065 0.9072 0.0000
vt 0.3741 0.9399 0.0000
# 4 texture coords

g head_9D0B196_0_035
usemtl Material__273
s 1
f 401/388/388 402/389/388 403/390/388 
f 402/389/389 401/388/389 404/391/389 
# 0 polygons - 2 triangles

#
# object head_9D0B196_0_034
#

v  -0.0006 0.4615 0.0362
v  -0.0080 0.4900 0.0498
v  -0.0303 0.4888 0.0300
# 3 vertices

vn -0.5714 -0.4706 0.6723
# 1 vertex normals

vt 0.5019 0.1738 0.0000
vt 0.3741 0.9399 0.0000
vt -0.0022 0.9072 0.0000
# 3 texture coords

g head_9D0B196_0_034
usemtl Material__272
s 1
f 405/392/390 406/393/390 407/394/390 
# 0 polygons - 1 triangles

#
# object legr_7C094CAB_0_049
#

v  -0.0074 0.0007 -0.0420
v  -0.0504 0.0409 -0.0361
v  -0.0048 0.0410 -0.0336
v  -0.0285 0.0479 0.0130
v  -0.0006 0.0007 0.0417
v  -0.0412 0.0008 -0.0448
v  -0.0595 0.0007 0.0381
v  -0.0324 0.0207 0.0680
v  -0.0321 0.0006 0.0776
# 9 vertices

vn 0.0541 0.2016 -0.9780
vn 0.0054 0.9897 -0.1431
vn 0.7381 0.6110 0.2860
vn 0.0811 0.2294 -0.9699
vn -0.7468 0.6188 0.2438
vn 0.9956 -0.0466 -0.0811
vn 0.6913 0.6274 0.3585
vn -0.9618 -0.1735 -0.2117
vn 0.7138 0.3102 0.6279
vn -0.7415 0.6209 0.2542
vn -0.7960 0.2497 0.5515
vn -0.0008 -1.0000 -0.0017
vn -0.0028 -1.0000 -0.0007
vn -0.0008 -1.0000 -0.0016
# 14 vertex normals

vt 0.0020 0.0195 0.0000
vt 0.0762 0.8613 0.0000
vt 0.0801 0.8555 0.0000
vt 0.4785 1.0000 0.0000
vt 0.6934 0.0020 0.0000
vt 0.0000 0.0215 0.0000
vt 0.6895 0.0059 0.0000
vt 0.9238 0.4102 0.0000
vt 1.0000 0.0000 0.0000
# 9 texture coords

g legr_7C094CAB_0_049
usemtl Material__269
s 1
f 408/395/391 409/396/391 410/397/391 
f 411/398/392 410/397/392 409/396/392 
f 411/398/393 412/399/393 410/397/393 
f 408/395/394 413/400/394 409/396/394 
f 414/401/395 411/398/395 409/396/395 
f 410/397/396 412/399/396 408/395/396 
f 415/402/397 412/399/397 411/398/397 
f 409/396/398 413/400/398 414/401/398 
f 412/399/399 415/402/399 416/403/399 
f 414/401/400 415/402/400 411/398/400 
f 415/402/401 414/401/401 416/403/401 
f 414/401/402 412/399/402 416/403/402 
f 412/399/403 413/400/403 408/395/403 
f 412/399/404 414/401/404 413/400/404 
# 0 polygons - 14 triangles

#
# object legl_7C094CAB_0_048
#

v  0.0496 0.0419 -0.0370
v  0.0055 0.0005 -0.0433
v  0.0032 0.0408 -0.0337
v  -0.0013 0.0002 0.0413
v  0.0263 0.0485 0.0125
v  0.0392 0.0012 -0.0459
v  0.0583 0.0000 0.0363
v  0.0299 0.0204 0.0664
v  0.0312 0.0003 0.0758
# 9 vertices

vn -0.0726 0.2253 -0.9716
vn -0.9959 -0.0400 -0.0811
vn -0.7531 0.5965 0.2775
vn -0.0818 0.2346 -0.9686
vn 0.9552 -0.1933 -0.2241
vn -0.0333 0.9884 -0.1483
vn 0.7400 0.6182 0.2650
vn -0.6943 0.6177 0.3693
vn -0.0026 -1.0000 0.0038
vn -0.7018 0.2677 0.6602
vn 0.7873 0.3027 0.5371
vn 0.7354 0.6197 0.2741
vn 0.0191 -0.9996 -0.0186
vn -0.0033 -1.0000 -0.0038
# 14 vertex normals

vt 0.0781 0.8750 0.0000
vt 0.0059 0.0410 0.0000
vt 0.0879 0.8555 0.0000
vt 0.6992 0.0020 0.0000
vt 0.4844 1.0000 0.0000
vt 0.0000 0.0527 0.0000
vt 0.6855 0.0234 0.0000
vt 0.9258 0.4063 0.0000
vt 1.0000 0.0000 0.0000
# 9 texture coords

g legl_7C094CAB_0_048
usemtl Material__268
s 1
f 417/404/405 418/405/405 419/406/405 
f 420/407/406 419/406/406 418/405/406 
f 420/407/407 421/408/407 419/406/407 
f 417/404/408 422/409/408 418/405/408 
f 422/409/409 417/404/409 423/410/409 
f 421/408/410 417/404/410 419/406/410 
f 421/408/411 423/410/411 417/404/411 
f 420/407/412 424/411/412 421/408/412 
f 420/407/413 423/410/413 425/412/413 
f 424/411/414 420/407/414 425/412/414 
f 423/410/415 424/411/415 425/412/415 
f 423/410/416 421/408/416 424/411/416 
f 423/410/417 418/405/417 422/409/417 
f 423/410/418 420/407/418 418/405/418 
# 0 polygons - 14 triangles

#
# object legr_6F09A424_0_048
#

v  -0.0100 0.0564 0.0202
v  0.0002 0.1663 -0.0288
v  -0.0251 0.1667 0.0154
v  -0.0499 0.1665 -0.0327
v  0.0040 0.0514 -0.0420
v  -0.0484 0.0565 0.0178
v  -0.0564 0.0516 -0.0476
v  -0.0288 0.0321 -0.0043
# 8 vertices

vn 0.8607 0.1391 0.4897
vn 0.0042 1.0000 -0.0071
vn 0.9756 0.0078 0.2193
vn 0.0767 0.1163 -0.9903
vn -0.9920 0.0412 0.1192
vn 0.0911 0.1228 -0.9882
vn -0.0624 0.0354 0.9974
vn -0.8722 0.1943 0.4489
vn -0.7064 -0.6940 0.1389
vn -0.0475 -0.6916 0.7207
vn 0.0358 -0.9026 -0.4291
vn 0.6615 -0.7209 0.2069
# 12 vertex normals

vt 0.0732 0.1836 0.0000
vt 0.3398 0.9941 0.0000
vt 0.0098 1.0000 0.0000
vt 0.6357 0.9961 0.0000
vt 0.3730 0.1436 0.0000
vt 0.9004 0.1846 0.0000
vt 0.6162 0.1455 0.0000
vt 1.0732 0.1836 0.0000
vt 1.0098 1.0000 0.0000
vt 0.9678 0.0000 0.0000
vt 1.3730 0.1436 0.0000
vt -0.0313 0.0000 0.0000
# 12 texture coords

g legr_6F09A424_0_048
usemtl Material__267
s 1
f 426/413/419 427/414/419 428/415/419 
f 429/416/420 428/415/420 427/414/420 
f 427/414/421 426/413/421 430/417/421 
f 429/416/422 427/414/422 430/417/422 
f 431/418/423 429/416/423 432/419/423 
f 429/416/424 430/417/424 432/419/424 
f 426/420/425 428/421/425 431/418/425 
f 429/416/426 431/418/426 428/421/426 
f 433/422/427 431/418/427 432/419/427 
f 431/418/428 433/422/428 426/420/428 
f 433/422/429 432/419/429 430/423/429 
f 433/424/430 430/417/430 426/413/430 
# 0 polygons - 12 triangles

#
# object legl_6F09A424_0_047
#

v  0.0515 0.0566 0.0119
v  0.0428 0.1665 -0.0367
v  0.0279 0.1668 0.0141
v  -0.0055 0.1663 -0.0231
v  0.0267 0.0321 -0.0047
v  0.0143 0.0564 0.0230
v  0.0465 0.0517 -0.0526
v  -0.0117 0.0513 -0.0365
# 8 vertices

vn 0.9415 0.1956 0.2746
vn -0.0075 0.9999 -0.0067
vn 0.2125 -0.6870 0.6949
vn 0.2868 0.0422 0.9571
vn -0.2700 0.1235 -0.9549
vn 0.9959 0.0433 -0.0798
vn -0.9165 0.0026 0.4000
vn -0.2650 0.1260 -0.9560
vn -0.6282 -0.7030 0.3334
vn -0.7366 0.1444 0.6607
vn -0.1094 -0.9038 -0.4137
vn 0.7023 -0.7119 0.0002
# 12 vertex normals

vt 0.1016 0.1807 0.0000
vt 0.3545 0.9912 0.0000
vt 0.0107 1.0000 0.0000
vt -0.3486 0.9990 0.0000
vt 0.0303 0.0000 0.0000
vt -0.0693 0.1875 0.0000
vt 0.6504 0.9990 0.0000
vt 0.3838 0.1396 0.0000
vt 0.9297 0.1875 0.0000
vt 0.6270 0.1494 0.0000
vt 1.0303 0.0000 0.0000
vt 1.0107 1.0000 0.0000
# 12 texture coords

g legl_6F09A424_0_047
usemtl Material__266
s 1
f 434/425/431 435/426/431 436/427/431 
f 436/427/432 435/426/432 437/428/432 
f 438/429/433 434/425/433 439/430/433 
f 436/427/434 439/430/434 434/425/434 
f 437/431/435 435/426/435 440/432/435 
f 435/426/436 434/425/436 440/432/436 
f 439/433/437 437/431/437 441/434/437 
f 437/431/438 440/432/438 441/434/438 
f 438/435/439 439/433/439 441/434/439 
f 437/431/440 439/433/440 436/436/440 
f 438/429/441 441/434/441 440/432/441 
f 438/429/442 440/432/442 434/425/442 
# 0 polygons - 12 triangles

#
# object sword_6CFACF9E_0_016
#

v  0.2525 0.4346 0.2549
v  0.2302 0.4421 0.2550
v  0.2210 0.4416 0.0733
v  0.2530 0.4422 0.0089
v  0.2525 0.4482 0.2550
v  0.2829 0.4415 0.0731
v  0.2760 0.4420 0.2549
v  0.2527 0.4416 0.3019
# 8 vertices

vn -0.3161 -0.9485 0.0187
vn -0.0410 -0.9987 -0.0309
vn -0.2669 0.9637 0.0108
vn -0.0704 0.9972 -0.0245
vn 0.3003 -0.9537 0.0141
vn 0.0425 -0.9986 -0.0307
vn 0.2546 0.9670 0.0069
vn 0.0754 0.9969 -0.0242
vn 0.2974 -0.9447 0.1379
vn -0.3124 -0.9397 0.1390
vn -0.2644 0.9547 0.1369
vn 0.2530 0.9579 0.1358
# 12 vertex normals

vt 7.7749 0.0720 0.0000
vt 7.9189 18.2134 0.0000
vt 10.5825 0.0720 0.0000
vt 10.3665 18.2134 0.0000
vt 11.9503 0.5759 0.0000
vt 6.3351 0.5759 0.0000
vt 6.6951 17.9255 0.0000
vt 11.6624 17.8535 0.0000
# 8 texture coords

g sword_6CFACF9E_0_016
usemtl Material__265
s 1
f 442/437/443 443/437/443 444/437/443 
f 442/437/444 444/437/444 445/437/444 
f 444/438/445 443/438/445 446/438/445 
f 444/438/446 446/438/446 445/438/446 
f 447/439/447 448/439/447 442/439/447 
f 447/439/448 442/439/448 445/439/448 
f 446/440/449 448/440/449 447/440/449 
f 446/440/450 447/440/450 445/440/450 
f 449/441/451 442/441/451 448/441/451 
f 449/442/452 443/442/452 442/442/452 
f 446/443/453 443/443/453 449/443/453 
f 449/444/454 448/444/454 446/444/454 
# 0 polygons - 12 triangles

#
# object body_5E6C5AF2_0_002
#

v  -0.0649 0.2811 -0.0000
v  -0.0006 0.3257 -0.0396
v  0.0007 0.2316 -0.0681
v  -0.0687 0.2229 0.0012
v  -0.0006 0.3009 0.0458
v  -0.0006 0.2229 0.0471
v  -0.0427 0.3257 -0.0000
v  0.0638 0.2811 0.0012
v  0.0676 0.2229 0.0012
v  -0.0006 0.3170 0.0310
v  0.0416 0.3257 -0.0000
# 11 vertices

vn -0.6173 0.2204 -0.7552
vn -0.7087 0.0302 -0.7049
vn -0.5581 0.0132 0.8297
vn -0.5900 0.0548 0.8055
vn -0.6127 0.3063 0.7286
vn -0.6484 0.3242 -0.6889
vn 0.7220 0.0461 -0.6904
vn 0.5581 0.0132 0.8297
vn 0.5765 0.0368 0.8163
vn -0.3719 0.6296 0.6821
vn 0.6039 0.3222 0.7291
vn 0.6523 0.3069 -0.6931
vn 0.6307 0.2324 -0.7404
vn 0.3719 0.6296 0.6821
# 14 vertex normals

vt 0.2462 0.5351 0.0000
vt 0.5024 0.8552 0.0000
vt 0.5051 0.0673 0.0000
vt 0.2320 0.0568 0.0000
vt 0.5019 0.7304 0.0000
vt 0.5030 0.0959 0.0000
vt 0.3337 0.8915 0.0000
vt 0.7571 0.5351 0.0000
vt 0.7713 0.0568 0.0000
vt 0.5011 0.8572 0.0000
vt 0.6699 0.8915 0.0000
# 11 texture coords

g body_5E6C5AF2_0_002
usemtl Material__264
s 1
f 450/445/455 451/446/455 452/447/455 
f 450/445/456 452/447/456 453/448/456 
f 454/449/457 453/448/457 455/450/457 
f 453/448/458 454/449/458 450/445/458 
f 454/449/459 456/451/459 450/445/459 
f 451/446/460 450/445/460 456/451/460 
f 452/447/461 457/452/461 458/453/461 
f 458/453/462 454/449/462 455/450/462 
f 454/449/463 458/453/463 457/452/463 
f 456/451/464 454/449/464 459/454/464 
f 460/455/465 454/449/465 457/452/465 
f 457/452/466 451/446/466 460/455/466 
f 451/446/467 457/452/467 452/447/467 
f 454/449/468 460/455/468 459/454/468 
# 0 polygons - 14 triangles

#
# object head_1F5CC19_0_041
#

v  0.0378 0.5160 0.0089
v  0.0267 0.4913 -0.0010
v  0.0676 0.5259 -0.0183
v  -0.0377 0.5148 0.0077
v  -0.0687 0.5259 -0.0171
v  -0.0278 0.4913 0.0003
# 6 vertices

vn 0.6661 -0.5154 0.5392
vn -0.6492 -0.4637 0.6029
# 2 vertex normals

vt 0.0625 0.8477 0.0000
vt 0.8828 0.3047 0.0000
vt 0.9336 1.2969 0.0000
vt 0.0977 0.8242 0.0000
vt 0.9102 1.2930 0.0000
vt 0.8711 0.3008 0.0000
# 6 texture coords

g head_1F5CC19_0_041
usemtl Material__263
s 1
f 461/456/469 462/457/469 463/458/469 
f 464/459/470 465/460/470 466/461/470 
# 0 polygons - 2 triangles

#
# object head_1D733E9_0_038
#

v  0.0378 0.5160 0.0089
v  0.0329 0.5148 0.0250
v  0.0366 0.4714 0.0114
v  -0.0365 0.4714 0.0102
v  -0.0327 0.5148 0.0238
v  -0.0377 0.5148 0.0077
# 6 vertices

vn 0.9560 -0.0103 0.2933
vn -0.9557 -0.0105 0.2941
# 2 vertex normals

vt 0.0684 0.0156 0.0000
vt 1.0117 0.0313 0.0000
vt 0.4316 0.9629 0.0000
vt 0.3867 0.9668 0.0000
vt 0.9688 0.0215 0.0000
vt 0.0098 0.0332 0.0000
# 6 texture coords

g head_1D733E9_0_038
usemtl Material__262
s 1
f 467/462/471 468/463/471 469/464/471 
f 470/465/472 471/466/472 472/467/472 
# 0 polygons - 2 triangles

#
# object head_1D733E9_0_037
#

v  -0.0439 0.5532 0.0226
v  -0.0377 0.5148 0.0077
v  -0.0327 0.5148 0.0238
v  -0.0625 0.4999 0.0139
v  -0.0129 0.5544 0.0832
v  -0.0179 0.5445 0.0436
v  -0.0006 0.5396 0.0498
v  0.0378 0.5160 0.0089
v  0.0552 0.4851 0.0263
v  0.0329 0.5148 0.0250
v  -0.0092 0.5668 0.0547
v  0.0044 0.5544 0.0820
v  0.0168 0.5445 0.0436
v  0.0440 0.5532 0.0226
v  0.0403 0.5470 0.0585
v  -0.0018 0.5668 0.0547
v  -0.0043 0.5557 0.0461
# 17 vertices

vn -0.9232 -0.2589 0.2841
vn 0.2915 0.0538 -0.9551
vn 0.6693 -0.7362 0.1004
vn 0.0000 -0.5547 0.8321
vn -0.8685 0.2316 0.4384
vn -0.3520 -0.8968 0.2682
vn -0.7625 -0.5835 -0.2795
vn -0.5579 0.7852 0.2686
vn -0.8499 -0.5071 -0.1433
vn -0.7807 -0.5753 0.2440
vn 0.7834 0.0947 -0.6143
vn 0.3691 -0.8642 0.3421
vn 0.4740 -0.3140 0.8226
vn 0.9774 0.1670 0.1299
vn 0.3825 0.8708 0.3089
vn 0.4034 0.8938 0.1958
vn 0.9431 0.2417 0.2281
vn 0.9361 0.2685 0.2274
vn -0.9713 0.0326 0.2356
vn -0.9594 -0.1693 0.2257
# 20 vertex normals

vt 1.0547 0.5313 0.0000
vt 0.7266 0.2246 0.0000
vt 0.5352 0.3262 0.0000
vt 0.4531 0.1758 0.0000
vt 0.3652 0.9102 0.0000
vt 0.6953 0.6133 0.0000
vt 0.5508 0.6191 0.0000
vt 0.0000 0.0000 0.0000
vt 0.8613 0.8047 0.0000
vt 0.5430 0.1875 0.0000
vt 0.1387 0.4414 0.0000
vt 0.7676 0.8262 0.0000
vt 0.3164 0.6914 0.0000
vt 0.0723 0.7695 0.0000
vt -0.3105 0.5078 0.0000
vt 0.3203 0.4434 0.0000
vt 0.2793 0.3457 0.0000
vt -0.0137 0.2773 0.0000
vt 0.8047 0.6836 0.0000
vt 0.0273 0.3867 0.0000
# 20 texture coords

g head_1D733E9_0_037
usemtl Material__259
s 1
f 473/468/473 474/469/473 475/470/473 
f 475/470/474 476/471/474 473/468/474 
f 477/472/475 476/471/475 478/473/475 
f 476/471/476 475/470/476 478/473/476 
f 477/472/477 473/468/477 476/471/477 
f 478/473/478 479/474/478 477/472/478 
f 480/475/479 481/475/479 482/475/479 
f 473/468/480 477/472/480 483/476/480 
f 484/477/481 485/478/481 481/479/481 
f 485/478/482 482/480/482 481/479/482 
f 480/481/483 486/482/483 481/479/483 
f 484/477/484 479/483/484 485/478/484 
f 481/479/485 487/484/485 484/477/485 
f 481/479/486 486/482/486 487/484/486 
f 487/484/487 488/485/487 484/477/487 
f 486/482/488 488/485/488 487/484/488 
f 477/472/489 489/486/489 483/476/489 
f 479/474/490 489/486/490 477/472/490 
f 488/485/491 489/487/491 484/477/491 
f 489/487/492 479/483/492 484/477/492 
# 0 polygons - 20 triangles

#
# object armr_1A2E4766_0_018
#

v  -0.1671 0.4708 -0.0150
v  -0.1475 0.4400 -0.0316
v  -0.1674 0.4426 -0.0413
v  -0.1453 0.4608 -0.0153
v  -0.1673 0.4176 -0.0156
v  -0.1455 0.4237 -0.0157
# 6 vertices

vn 0.4092 0.6199 -0.6695
vn 0.2553 0.5787 -0.7745
vn 0.2380 -0.6955 -0.6780
vn 0.1854 -0.6749 -0.7142
# 4 vertex normals

vt 0.0020 0.6738 0.0000
vt 0.5430 0.3291 0.0000
vt 0.5039 0.6738 0.0000
vt 0.2959 0.1904 0.0000
vt 0.9414 0.6738 0.0000
vt 0.2969 0.8242 0.0000
# 6 texture coords

g armr_1A2E4766_0_018
usemtl Material__257
s 1
f 490/488/493 491/489/493 492/490/493 
f 491/489/494 490/488/494 493/491/494 
f 491/489/495 494/492/495 492/490/495 
f 494/492/496 491/489/496 495/493/496 
# 0 polygons - 4 triangles

#
# object armr_1A2E4766_0_017
#

v  -0.1455 0.4237 -0.0157
v  -0.1682 0.4459 0.0045
v  -0.1673 0.4176 -0.0156
# 3 vertices

vn 0.1637 -0.5684 0.8063
# 1 vertex normals

vt 0.5186 0.1357 0.0000
vt 0.5156 0.9268 0.0000
vt 0.0186 0.9268 0.0000
# 3 texture coords

g armr_1A2E4766_0_017
usemtl Material__256
s 1
f 496/494/497 497/495/497 498/496/497 
# 0 polygons - 1 triangles

#
# object armr_1A2E4766_0_016
#

v  -0.1455 0.4237 -0.0157
v  -0.1475 0.4400 -0.0316
v  -0.1455 0.4400 -0.0316
v  -0.1453 0.4608 -0.0153
# 4 vertices

vn -0.0086 -0.6994 -0.7147
vn -0.0045 0.6160 -0.7878
# 2 vertex normals

vt 0.0000 0.0000 0.0000
# 1 texture coords

g armr_1A2E4766_0_016
usemtl Material__258
s 1
f 499/497/498 500/497/498 501/497/498 
f 500/497/499 502/497/499 501/497/499 
# 0 polygons - 2 triangles

#
# object armr_1A2E4766_0_015
#

v  -0.1682 0.4459 0.0045
v  -0.1455 0.4237 -0.0157
v  -0.1329 0.4420 0.0029
# 3 vertices

vn -0.0436 -0.6980 0.7148
# 1 vertex normals

vt 0.5156 0.9268 0.0000
vt 0.5186 0.1357 0.0000
vt 0.2998 0.4609 0.0000
# 3 texture coords

g armr_1A2E4766_0_015
usemtl Material__255
s 1
f 503/498/500 504/499/500 505/500/500 
# 0 polygons - 1 triangles

#
# object armr_1A2E4766_0_014
#

v  -0.1682 0.4459 0.0045
v  -0.1453 0.4608 -0.0153
v  -0.1671 0.4708 -0.0150
v  -0.1329 0.4420 0.0029
# 4 vertices

vn 0.2783 0.5841 0.7625
vn 0.1089 0.7287 0.6761
# 2 vertex normals

vt 0.5156 0.9268 0.0000
vt 0.5176 0.7852 0.0000
vt 0.9805 0.9268 0.0000
vt 0.2998 0.4609 0.0000
# 4 texture coords

g armr_1A2E4766_0_014
usemtl Material__254
s 1
f 506/501/501 507/502/501 508/503/501 
f 507/502/502 506/501/502 509/504/502 
# 0 polygons - 2 triangles

#
# object armr_1A2E4766_0_013
#

v  -0.1196 0.4387 -0.0368
v  -0.1453 0.4608 -0.0153
v  -0.1082 0.4657 -0.0180
v  -0.1455 0.4400 -0.0316
v  -0.1455 0.4237 -0.0157
v  -0.1096 0.4187 -0.0210
v  -0.1130 0.4382 0.0064
v  -0.1329 0.4420 0.0029
# 8 vertices

vn -0.1365 0.6037 -0.7854
vn -0.1258 0.6118 -0.7809
vn -0.1742 -0.6892 -0.7034
vn -0.1996 -0.6664 -0.7184
vn -0.0324 0.6684 0.7431
vn 0.0085 0.6994 0.7147
vn -0.0291 -0.8165 0.5766
vn -0.2499 -0.6010 0.7591
# 8 vertex normals

vt 0.4463 0.8457 0.0000
vt 0.8682 0.3125 0.0000
vt 0.9717 1.0703 0.0000
vt 0.4785 0.3076 0.0000
vt 0.1660 0.3115 0.0000
vt 0.0625 1.0518 0.0000
vt 0.1650 0.1172 0.0000
vt 0.6855 0.6855 0.0000
vt 0.0264 0.7500 0.0000
vt 0.6074 0.3311 0.0000
vt 1.0605 0.1221 0.0000
vt 1.1846 0.7422 0.0000
# 12 texture coords

g armr_1A2E4766_0_013
usemtl Material__252
s 1
f 510/505/503 511/506/503 512/507/503 
f 510/505/504 513/508/504 511/506/504 
f 510/505/505 514/509/505 513/508/505 
f 510/505/506 515/510/506 514/509/506 
f 511/511/507 516/512/507 512/513/507 
f 511/511/508 517/514/508 516/512/508 
f 516/512/509 514/515/509 515/516/509 
f 516/512/510 517/514/510 514/515/510 
# 0 polygons - 8 triangles

#
# object arml_1A2E4766_0_012
#

v  0.1443 0.4595 -0.0170
v  0.1665 0.4446 0.0028
v  0.1668 0.4707 -0.0167
v  0.1319 0.4420 0.0013
# 4 vertices

vn -0.2961 0.5721 0.7649
vn -0.0835 0.7476 0.6588
# 2 vertex normals

vt 0.4570 0.8242 0.0000
vt 0.5264 0.7842 0.0000
vt 1.0400 0.7842 0.0000
vt 0.2822 0.4658 0.0000
# 4 texture coords

g arml_1A2E4766_0_012
usemtl Material__251
s 1
f 518/517/511 519/518/511 520/519/511 
f 519/518/512 518/517/512 521/520/512 
# 0 polygons - 2 triangles

#
# object arml_1A2E4766_0_011
#

v  0.1460 0.4399 -0.0334
v  0.1669 0.4176 -0.0173
v  0.1444 0.4237 -0.0174
v  0.1444 0.4399 -0.0333
v  0.1672 0.4426 -0.0430
v  0.1443 0.4595 -0.0170
v  0.1668 0.4707 -0.0167
# 7 vertices

vn -0.1802 -0.6801 -0.7106
vn -0.0286 -0.6992 -0.7144
vn -0.2213 -0.6976 -0.6815
vn -0.0351 0.6384 -0.7689
vn -0.3108 0.6458 -0.6974
vn -0.3967 0.5671 -0.7218
# 6 vertex normals

vt 0.5430 0.3242 0.0000
vt 0.8887 0.6279 0.0000
vt 0.2959 0.7871 0.0000
vt 0.2988 0.5410 0.0000
vt 0.5078 0.6279 0.0000
vt 0.2949 0.2354 0.0000
vt 0.0713 0.6279 0.0000
# 7 texture coords

g arml_1A2E4766_0_011
usemtl Material__250
s 1
f 522/521/513 523/522/513 524/523/513 
f 522/521/514 524/523/514 525/524/514 
f 522/521/515 526/525/515 523/522/515 
f 527/526/516 522/521/516 525/524/516 
f 527/526/517 528/527/517 526/525/517 
f 527/526/518 526/525/518 522/521/518 
# 0 polygons - 6 triangles

#
# object arml_1A2E4766_0_010
#

v  0.1665 0.4446 0.0028
v  0.1444 0.4237 -0.0174
v  0.1669 0.4176 -0.0173
v  0.1319 0.4420 0.0013
# 4 vertices

vn -0.1658 -0.5899 0.7903
vn 0.0215 -0.7075 0.7063
# 2 vertex normals

vt 0.5264 0.7842 0.0000
vt 0.4580 0.1064 0.0000
vt -0.0225 0.7842 0.0000
vt 0.2822 0.4658 0.0000
# 4 texture coords

g arml_1A2E4766_0_010
usemtl Material__249
s 1
f 529/528/519 530/529/519 531/530/519 
f 530/529/520 529/528/520 532/531/520 
# 0 polygons - 2 triangles

#
# object arml_1A2E4766_0_009
#

v  0.1184 0.4387 -0.0383
v  0.1444 0.4237 -0.0174
v  0.1085 0.4187 -0.0225
v  0.1444 0.4399 -0.0333
v  0.1084 0.4656 -0.0183
v  0.1443 0.4595 -0.0170
v  0.1121 0.4382 0.0049
v  0.1319 0.4420 0.0013
# 8 vertices

vn 0.1940 -0.6666 -0.7197
vn 0.1687 -0.6893 -0.7045
vn 0.1337 0.6335 -0.7621
vn 0.1192 0.6207 -0.7749
vn 0.0322 -0.8165 0.5764
vn 0.2544 -0.6013 0.7574
vn 0.0922 0.6878 0.7200
vn 0.0159 0.6468 0.7625
# 8 vertex normals

vt 0.4561 0.7412 0.0000
vt 0.7637 0.3018 0.0000
vt 0.8760 0.9121 0.0000
vt 0.4219 0.2969 0.0000
vt -0.1357 0.9209 0.0000
vt -0.0166 0.2979 0.0000
vt 0.9238 0.1162 0.0000
vt 0.5820 0.7695 0.0000
vt 1.0479 0.8330 0.0000
vt 0.5039 0.3604 0.0000
vt 0.0840 0.1172 0.0000
vt -0.0381 0.8506 0.0000
# 12 texture coords

g arml_1A2E4766_0_009
usemtl Material__248
s 1
f 533/532/521 534/533/521 535/534/521 
f 533/532/522 536/535/522 534/533/522 
f 537/536/523 538/537/523 536/535/523 
f 537/536/524 536/535/524 533/532/524 
f 534/538/525 539/539/525 535/540/525 
f 534/538/526 540/541/526 539/539/526 
f 540/541/527 538/542/527 537/543/527 
f 540/541/528 537/543/528 539/539/528 
# 0 polygons - 8 triangles

#
# object head_0_0_018
#

v  -0.0080 0.4900 0.0498
v  0.0069 0.4900 0.0498
v  -0.0006 0.4913 0.0708
# 3 vertices

vn 0.0000 -0.9983 0.0587
# 1 vertex normals

vt 0.0000 0.0000 0.0000
# 1 texture coords

g head_0_0_018
usemtl Material__247
s 1
f 541/544/529 542/544/529 543/544/529 
# 0 polygons - 1 triangles

#
# object head_0_0_017
#

v  -0.0377 0.5148 0.0077
v  -0.0006 0.4851 -0.0480
v  -0.0204 0.4826 -0.0047
v  0.0007 0.4628 -0.0394
v  0.0378 0.5160 0.0089
v  0.0205 0.4826 -0.0047
# 6 vertices

vn -0.8594 -0.3050 -0.4103
vn -0.8844 -0.2110 -0.4163
vn 0.8601 -0.2695 -0.4332
vn 0.8901 -0.1214 -0.4393
# 4 vertex normals

vt 0.0000 0.0000 0.0000
# 1 texture coords

g head_0_0_017
usemtl Material__261
s 1
f 544/545/530 545/545/530 546/545/530 
f 546/545/531 545/545/531 547/545/531 
f 545/545/532 548/545/532 549/545/532 
f 545/545/533 549/545/533 547/545/533 
# 0 polygons - 4 triangles

#
# object armr_0_0_016
#

v  -0.2561 0.4684 0.0093
v  -0.2691 0.4195 -0.0381
v  -0.2724 0.4190 0.0089
v  -0.2117 0.4226 0.0010
v  -0.2120 0.4229 -0.0311
v  -0.2478 0.4688 -0.0303
# 6 vertices

vn -0.9477 0.3127 -0.0636
vn 0.1319 -0.0514 0.9899
vn 0.0614 -0.9981 -0.0113
vn -0.8917 0.4139 -0.1833
vn 0.0580 -0.9983 -0.0064
vn 0.1145 0.1063 -0.9877
# 6 vertex normals

vt 0.0000 0.0000 0.0000
# 1 texture coords

g armr_0_0_016
usemtl Material__305
s 1
f 550/546/534 551/546/534 552/546/534 
f 553/546/535 550/546/535 552/546/535 
f 553/546/536 551/546/536 554/546/536 
f 551/546/537 550/546/537 555/546/537 
f 553/546/538 552/546/538 551/546/538 
f 555/546/539 554/546/539 551/546/539 
# 0 polygons - 6 triangles

#
# object arml_0_0_015
#

v  0.2743 0.4193 -0.0380
v  0.2786 0.4188 0.0090
v  0.2181 0.4225 -0.0004
v  0.2185 0.4228 -0.0326
v  0.2612 0.4682 0.0081
v  0.2543 0.4686 -0.0303
# 6 vertices

vn -0.0594 -0.9982 -0.0051
vn -0.0638 -0.9979 -0.0117
vn 0.9403 0.3303 -0.0825
vn -0.1563 -0.0363 0.9870
vn 0.9059 0.3927 -0.1585
vn -0.0892 0.1176 -0.9890
# 6 vertex normals

vt 0.0000 0.0000 0.0000
# 1 texture coords

g arml_0_0_015
usemtl Material__304
s 1
f 556/547/540 557/547/540 558/547/540 
f 556/547/541 558/547/541 559/547/541 
f 556/547/542 560/547/542 557/547/542 
f 560/547/543 558/547/543 557/547/543 
f 560/547/544 556/547/544 561/547/544 
f 559/547/545 561/547/545 556/547/545 
# 0 polygons - 6 triangles

#
# object hookshot_546160C_0_066
#

v  -0.3052 0.4212 -0.0169
v  -0.1931 0.5694 -0.0161
v  -0.3046 0.5698 -0.0153
v  -0.1936 0.4208 -0.0177
# 4 vertices

vn 0.0069 -0.0108 0.9999
vn 0.0000 0.0000 1.0000
# 2 vertex normals

vt 1.0000 0.0000 0.0000
vt 0.0000 0.9900 0.0000
vt 0.0000 0.0000 0.0000
vt 1.0000 0.9900 0.0000
# 4 texture coords

g hookshot_546160C_0_066
usemtl Material__92
s 1
f 562/548/546 563/549/546 564/550/546 
f 565/551/546 563/549/546 562/548/546 
f 565/551/547 565/551/547 563/549/547 
# 0 polygons - 3 triangles

#
# object hookshot_5604AC44_0_068
#

v  -0.0004 0.0748 0.0011
v  -0.0012 0.0003 0.0752
v  -0.0007 -0.0738 0.0007
# 3 vertices

vn 1.0000 -0.0022 0.0084
# 1 vertex normals

vt 1.0000 1.0000 0.0000
vt 0.0000 0.5000 0.0000
vt 1.0000 0.0000 0.0000
# 3 texture coords

g hookshot_5604AC44_0_068
usemtl Material__94
s 1
f 566/552/548 567/553/548 568/554/548 
# 0 polygons - 1 triangles

#
# object hookshot_40A9C366_0_067
#

v  -0.0006 -0.0181 0.0008
v  -0.0083 0.0162 0.9297
v  -0.0084 -0.0209 0.9295
v  -0.0005 0.0191 0.0009
# 4 vertices

vn 1.0000 -0.0022 0.0084
# 1 vertex normals

vt 0.0000 0.0000 0.0000
vt 12.5000 1.0000 0.0000
vt 12.5000 0.0000 0.0000
vt 0.0000 1.0000 0.0000
# 4 texture coords

g hookshot_40A9C366_0_067
usemtl Material__90
s 1
f 569/555/549 570/556/549 571/557/549 
f 569/555/549 572/558/549 570/556/549 
# 0 polygons - 2 triangles

#
# object boomerang_0_0_042
#

v  -0.0005 0.1800 0.1388
v  -0.0005 0.1990 0.1388
v  -0.0005 0.1890 0.1538
# 3 vertices

vn 1.0000 0.0000 -0.0000
# 1 vertex normals

vt 0.0000 0.0000 0.0000
# 1 texture coords

g boomerang_0_0_042
usemtl Material__114
s 1
f 573/559/550 574/559/550 575/559/550 
# 0 polygons - 1 triangles

#
# object boomerang_0_0_043
#

v  -0.0005 0.1990 0.1388
v  -0.0005 0.2800 0.2288
v  -0.0005 0.1890 0.1538
v  -0.0005 0.3240 0.2028
# 4 vertices

vn 1.0000 0.0000 -0.0000
# 1 vertex normals

vt 0.0000 0.0000 0.0000
# 1 texture coords

g boomerang_0_0_043
usemtl Material__114
s 1
f 576/560/551 577/560/551 578/560/551 
f 576/560/551 579/560/551 577/560/551 
# 0 polygons - 2 triangles

#
# object boomerang_0_0_044
#

v  -0.0005 0.3240 0.2028
v  -0.0005 0.2980 0.3428
v  -0.0005 0.2800 0.2288
v  -0.0005 0.3180 0.3438
# 4 vertices

vn 1.0000 0.0000 -0.0000
# 1 vertex normals

vt 0.0000 0.0000 0.0000
# 1 texture coords

g boomerang_0_0_044
usemtl Material__114
s 1
f 580/561/552 581/561/552 582/561/552 
f 580/561/552 583/561/552 581/561/552 
# 0 polygons - 2 triangles

#
# object boomerang_0_0_045
#

v  -0.0005 0.2980 0.3428
v  -0.0005 0.3180 0.3438
v  -0.0005 0.3070 0.3598
# 3 vertices

vn 1.0000 0.0000 -0.0000
# 1 vertex normals

vt 0.0000 0.0000 0.0000
# 1 texture coords

g boomerang_0_0_045
usemtl Material__114
s 1
f 584/562/553 585/562/553 586/562/553 
# 0 polygons - 1 triangles

#
# object boomerang_51FC7192_0_096
#

v  -0.0005 0.1660 0.2578
v  -0.0005 0.4600 0.4228
v  -0.0005 0.1660 0.4228
v  -0.0005 0.4600 0.2578
# 4 vertices

vn 1.0000 0.0000 -0.0000
# 1 vertex normals

vt 1.0000 0.0000 0.0000
vt 0.0000 1.0000 0.0000
vt 1.0000 1.0000 0.0000
vt 0.0000 0.0000 0.0000
# 4 texture coords

g boomerang_51FC7192_0_096
usemtl Material__91
s 1
f 587/563/554 588/564/554 589/565/554 
f 587/563/554 590/566/554 588/564/554 
# 0 polygons - 2 triangles

#
# object boomerang_BE387A4_0_053
#

v  0.2515 0.3911 -0.0683
v  0.2519 0.5234 0.0481
v  0.2516 0.3773 -0.0475
v  0.2515 0.3676 -0.0686
v  0.2518 0.5241 -0.0162
v  0.2517 0.6594 -0.0642
v  0.2517 0.6703 -0.0443
v  0.2517 0.6817 -0.0640
# 8 vertices

vn 1.0000 -0.0004 -0.0030
# 1 vertex normals

vt 0.4785 -2.7500 0.0000
vt 0.9478 0.0859 0.0000
vt 0.5240 -3.4102 0.0000
vt 0.4529 -3.5000 0.0000
vt 0.7669 0.1016 0.0000
vt 0.4774 3.7930 0.0000
vt 0.5236 4.3867 0.0000
vt 0.7672 0.8633 0.0000
vt 0.4529 4.5000 0.0000
vt 0.9478 0.8789 0.0000
# 10 texture coords

g boomerang_BE387A4_0_053
usemtl Material__93
s 1
f 591/567/555 592/568/555 593/569/555 
f 591/567/555 593/569/555 594/570/555 
f 595/571/555 596/572/555 597/573/555 
f 591/567/555 595/574/555 592/568/555 
f 598/575/555 597/573/555 596/572/555 
f 595/571/555 597/573/555 592/576/555 
# 0 polygons - 6 triangles

#
# object bomb_12530077_0_061
#

v  -0.0480 0.1310 -0.0000
v  0.0780 0.1310 -0.0000
v  0.0780 0.2570 -0.0000
v  -0.0480 0.2570 -0.0000
# 4 vertices

vn 0.0000 0.0000 1.0000
# 1 vertex normals

vt 1.0000 0.0000 0.0000
vt 0.0000 0.0000 0.0000
vt 0.0000 1.0000 0.0000
vt 1.0000 1.0000 0.0000
# 4 texture coords

g bomb_12530077_0_061
usemtl Material__112
s 1
f 599/577/556 600/578/556 601/579/556 
f 599/577/556 601/579/556 602/580/556 
# 0 polygons - 2 triangles

#
# object bomb_6B4283A0_0_060
#

v  -0.1130 0.0000 -0.0000
v  0.1130 0.0000 -0.0000
v  0.1130 0.2260 -0.0000
v  -0.1130 0.2260 -0.0000
# 4 vertices

vn 0.0000 0.0000 1.0000
# 1 vertex normals

vt 0.9990 0.0000 0.0000
vt 0.0000 0.0000 0.0000
vt 0.0000 1.0000 0.0000
vt 1.0000 1.0000 0.0000
# 4 texture coords

g bomb_6B4283A0_0_060
usemtl Material__111
s 1
f 603/581/557 604/582/557 605/583/557 
f 603/581/557 605/583/557 606/584/557 
# 0 polygons - 2 triangles

#
# object light_2EA20E54_0_061
#

v  -0.1753 3.3000 -0.1416
v  -0.0240 0.0000 -0.2238
v  -0.1753 0.0000 -0.1416
v  -0.2243 0.0000 0.0234
v  -0.1422 0.0000 0.1746
v  -0.2243 3.3000 0.0234
v  -0.0240 3.3000 -0.2238
v  0.1410 0.0000 -0.1747
v  -0.1422 3.3000 0.1746
v  0.1410 3.3000 -0.1747
v  0.2231 3.3000 -0.0235
v  0.0228 0.0000 0.2237
v  0.0228 3.3000 0.2237
v  0.2231 0.0000 -0.0235
v  0.1741 0.0000 0.1415
v  0.1741 3.3000 0.1415
# 16 vertices

vn -0.4775 0.0000 -0.8787
vn -0.9585 0.0000 -0.2851
vn -0.8787 0.0000 0.4775
vn 0.2851 0.0000 -0.9585
vn 0.8787 0.0000 -0.4775
vn -0.2851 0.0000 0.9585
vn 0.4775 0.0000 0.8787
vn 0.9585 0.0000 0.2851
# 8 vertex normals

vt 3.0000 1.0000 0.0000
vt 2.0000 0.0000 0.0000
vt 3.0000 0.0000 0.0000
vt 4.0000 0.0000 0.0000
vt 5.0000 0.0000 0.0000
vt 4.0000 1.0000 0.0000
vt 2.0000 1.0000 0.0000
vt 1.0000 0.0000 0.0000
vt 5.0000 1.0000 0.0000
vt 1.0000 1.0000 0.0000
vt 0.0000 1.0000 0.0000
vt 6.0000 0.0000 0.0000
vt 6.0000 1.0000 0.0000
vt 0.0000 0.0000 0.0000
vt 7.0000 0.0000 0.0000
vt 7.0000 1.0000 0.0000
vt 8.0000 0.0000 0.0000
vt 8.0000 1.0000 0.0000
# 18 texture coords

g light_2EA20E54_0_061
usemtl Material__113
s 1
f 607/585/558 608/586/558 609/587/558 
f 610/588/559 607/585/559 609/587/559 
f 611/589/560 612/590/560 610/588/560 
f 610/588/559 612/590/559 607/585/559 
f 613/591/561 614/592/561 608/586/561 
f 607/585/558 613/591/558 608/586/558 
f 611/589/560 615/593/560 612/590/560 
f 613/591/561 616/594/561 614/592/561 
f 614/592/562 616/594/562 617/595/562 
f 618/596/563 615/593/563 611/589/563 
f 618/596/563 619/597/563 615/593/563 
f 614/592/562 617/595/562 620/598/562 
f 621/599/564 622/600/564 619/597/564 
f 621/599/564 619/597/564 618/596/564 
f 620/601/565 617/602/565 622/600/565 
f 620/601/565 622/600/565 621/599/565 
# 0 polygons - 16 triangles

#
# object light_47B04B1D_0_060
#

v  0.1740 0.1810 -0.4124
v  -0.1309 0.0000 -0.3217
v  -0.1685 0.1810 -0.4145
v  -0.3197 0.0000 -0.1352
v  -0.4129 0.1810 -0.1747
v  0.1346 0.0000 -0.3192
v  -0.3223 0.0000 0.1302
v  0.3211 0.0000 -0.1303
v  -0.4151 0.1810 0.1678
v  0.4139 0.1810 -0.1679
v  -0.1358 0.0000 0.3191
v  -0.1752 0.1810 0.4123
v  0.1297 0.0000 0.3216
v  0.1673 0.1810 0.4145
v  0.3185 0.0000 0.1351
v  0.4117 0.1810 0.1746
# 16 vertices

vn 0.0057 -0.4557 -0.8901
vn -0.6256 -0.4552 -0.6336
vn -0.6223 -0.4588 -0.6342
vn 0.0084 -0.4593 -0.8882
vn -0.8882 -0.4593 -0.0084
vn 0.6321 -0.4593 -0.6241
vn -0.8901 -0.4557 -0.0057
vn 0.6353 -0.4557 -0.6235
vn -0.6321 -0.4593 0.6241
vn -0.6353 -0.4557 0.6235
vn -0.0057 -0.4557 0.8901
vn -0.0084 -0.4593 0.8882
vn 0.6223 -0.4588 0.6342
vn 0.6256 -0.4552 0.6336
vn 0.8901 -0.4557 0.0057
vn 0.8882 -0.4593 0.0084
# 16 vertex normals

vt 13.5000 1.0000 0.0000
vt 15.7500 0.0000 0.0000
vt 15.7500 1.0000 0.0000
vt 18.0000 0.0000 0.0000
vt 18.0000 1.0000 0.0000
vt 13.5000 0.0000 0.0000
vt 20.2500 0.0000 0.0000
vt 11.2500 0.0000 0.0000
vt 20.2500 1.0000 0.0000
vt 11.2500 1.0000 0.0000
vt 22.5000 0.0000 0.0000
vt 22.5000 1.0000 0.0000
vt 24.7500 0.0000 0.0000
vt 24.7500 1.0000 0.0000
vt 27.0000 0.0000 0.0000
vt 27.0000 1.0000 0.0000
vt 29.2500 0.0000 0.0000
vt 29.2500 1.0000 0.0000
# 18 texture coords

g light_47B04B1D_0_060
usemtl Material__110
s 1
f 623/603/566 624/604/566 625/605/566 
f 626/606/567 625/605/567 624/604/567 
f 626/606/568 627/607/568 625/605/568 
f 623/603/569 628/608/569 624/604/569 
f 629/609/570 627/607/570 626/606/570 
f 623/603/571 630/610/571 628/608/571 
f 629/609/572 631/611/572 627/607/572 
f 623/603/573 632/612/573 630/610/573 
f 629/609/574 633/613/574 634/614/574 
f 629/609/575 634/614/575 631/611/575 
f 635/615/576 636/616/576 634/614/576 
f 635/615/577 634/614/577 633/613/577 
f 637/617/578 638/618/578 636/616/578 
f 637/617/579 636/616/579 635/615/579 
f 630/619/580 632/620/580 638/618/580 
f 630/619/581 638/618/581 637/617/581 
# 0 polygons - 16 triangles

