# 3ds Max Wavefront OBJ Exporter v0.97b - (c)2007 guruware
# File Created: 27.10.2016 13:11:00

mtllib barrel.mtl

#
# object Nemu_5736BA6B_0_062
#

v  0.1412 0.2567 -0.2150
v  -0.1018 0.0207 -0.1790
v  -0.1318 0.2567 -0.2160
v  -0.1688 0.0207 0.0250
v  0.1122 0.0207 -0.1790
v  -0.2158 0.2567 0.0410
v  0.0062 0.2567 0.2000
v  -0.1018 0.4927 -0.1790
v  -0.1688 0.4927 0.0250
v  0.0052 0.0207 0.1510
v  0.1792 0.0207 0.0250
v  0.0052 0.4927 0.1510
v  0.2262 0.2567 0.0430
v  0.1792 0.4927 0.0250
v  0.1122 0.4927 -0.1790
# 15 vertices

vn 0.0036 -0.1544 -0.9880
vn -0.9367 -0.1673 -0.3076
vn 0.0000 -0.1508 -0.9886
vn -0.9373 -0.1659 -0.3064
vn -0.5739 -0.1686 0.8013
vn -0.9371 0.1672 -0.3063
vn -0.9369 0.1657 -0.3077
vn -0.5786 -0.1635 0.7990
vn -0.5739 0.1686 0.8013
vn 0.5782 -0.1682 0.7984
vn -0.5786 0.1635 0.7990
vn 0.5719 -0.1750 0.8014
vn 0.5782 0.1682 0.7984
vn 0.5719 0.1750 0.8014
vn 0.9372 -0.1623 -0.3088
vn 0.0036 0.1544 -0.9880
vn 0.0000 0.1508 -0.9886
vn 0.9373 -0.1632 -0.3079
vn 0.9371 0.1631 -0.3087
vn 0.9375 0.1622 -0.3079
# 20 vertex normals

vt 0.3154 0.5000 0.0000
vt 0.6777 0.0000 0.0000
vt 0.6855 0.5000 0.0000
vt 1.0586 0.0000 0.0000
vt 0.3223 0.0000 0.0000
vt 1.0684 0.5000 0.0000
vt 1.5010 0.5000 0.0000
vt 0.6777 1.0000 0.0000
vt 1.0586 1.0000 0.0000
vt 1.4990 0.0000 0.0000
vt 1.9404 0.0000 0.0000
vt 1.4990 1.0000 0.0000
vt 1.9287 0.5000 0.0000
vt 1.9404 1.0000 0.0000
vt -0.0703 0.5000 0.0000
vt 0.3223 1.0000 0.0000
vt -0.0586 0.0000 0.0000
vt -0.0586 1.0000 0.0000
# 18 texture coords

g Nemu_5736BA6B_0_062
usemtl Material__50
s 1
f 1/1/1 2/2/1 3/3/1 
f 4/4/2 3/3/2 2/2/2 
f 1/1/3 5/5/3 2/2/3 
f 4/4/4 6/6/4 3/3/4 
f 4/4/5 7/7/5 6/6/5 
f 6/6/6 8/8/6 3/3/6 
f 6/6/7 9/9/7 8/8/7 
f 4/4/8 10/10/8 7/7/8 
f 7/7/9 9/9/9 6/6/9 
f 11/11/10 7/7/10 10/10/10 
f 7/7/11 12/12/11 9/9/11 
f 11/11/12 13/13/12 7/7/12 
f 7/7/13 14/14/13 12/12/13 
f 7/7/14 13/13/14 14/14/14 
f 5/5/15 1/1/15 13/15/15 
f 8/8/16 1/1/16 3/3/16 
f 8/8/17 15/16/17 1/1/17 
f 5/5/18 13/15/18 11/17/18 
f 1/1/19 14/18/19 13/15/19 
f 1/1/20 15/16/20 14/18/20 
# 0 polygons - 20 triangles

#
# object Nemu_1CF5C9C9_0_061
#

v  0.1122 0.0207 -0.1790
v  0.0052 0.0207 0.1510
v  -0.1688 0.0207 0.0250
v  -0.1018 0.0207 -0.1790
v  0.0052 0.4927 0.1510
v  0.1122 0.4927 -0.1790
v  -0.1688 0.4927 0.0250
v  0.1792 0.0207 0.0250
v  -0.1018 0.4927 -0.1790
v  0.1792 0.4927 0.0250
# 10 vertices

vn 0.0000 -1.0000 -0.0000
vn 0.0000 1.0000 0.0000
# 2 vertex normals

vt 0.7422 0.0869 0.0000
vt 0.4990 0.8809 0.0000
vt 0.1055 0.5781 0.0000
vt 0.2559 0.0869 0.0000
vt 0.8926 0.5781 0.0000
# 5 texture coords

g Nemu_1CF5C9C9_0_061
usemtl Material__49
s 1
f 16/19/21 17/20/21 18/21/21 
f 16/19/21 18/21/21 19/22/21 
f 20/20/22 21/19/22 22/21/22 
f 17/20/21 16/19/21 23/23/21 
f 22/21/22 21/19/22 24/22/22 
f 21/19/22 20/20/22 25/23/22 
# 0 polygons - 6 triangles

