# 3ds Max Wavefront OBJ Exporter v0.97b - (c)2007 guruware
# File Created: 15.06.2019 21:14:04

mtllib cube.mtl

#
# object Nemu_2952D29C_0_003
#

v  0.0500 -0.0500 -0.0500
v  -0.0500 -0.0500 0.0500
v  -0.0500 -0.0500 -0.0500
v  0.0500 -0.0500 0.0500
v  0.0500 0.0500 0.0500
v  0.0500 0.0500 -0.0500
v  -0.0500 0.0500 -0.0500
v  -0.0500 0.0500 0.0500
# 8 vertices

vn 0.0000 -1.0000 -0.0000
vn 1.0000 0.0000 -0.0000
vn 0.0000 0.0000 -1.0000
vn -1.0000 0.0000 -0.0000
vn 0.0000 0.0000 1.0000
vn 0.0000 1.0000 -0.0000
# 6 vertex normals

vt 1.0000 0.0000 0.0000
vt 0.0000 1.0000 0.0000
vt 0.0000 0.0000 0.0000
vt 1.0000 1.0000 0.0000
vt -0.0000 0.0000 0.0000
vt -0.0000 1.0000 0.0000
# 6 texture coords

g Nemu_2952D29C_0_003
usemtl M_2952D29C_c
s 1
f 1/1/1 2/2/1 3/3/1 
f 2/2/1 1/1/1 4/4/1 
f 1/5/2 5/4/2 4/6/2 
f 5/4/2 1/5/2 6/1/2 
f 1/2/3 7/1/3 6/4/3 
f 7/1/3 1/2/3 3/3/3 
f 3/3/4 8/4/4 7/1/4 
f 8/4/4 3/3/4 2/2/4 
f 2/3/5 5/4/5 8/1/5 
f 5/4/5 2/3/5 4/6/5 
f 5/4/6 7/3/6 8/2/6 
f 7/3/6 5/4/6 6/1/6 
# 0 polygons - 12 triangles

