# 3ds Max Wavefront OBJ Exporter v0.97b - (c)2007 guruware
# File Created: 19.04.2019 22:33:52

mtllib jiggly.mtl

#
# object Nemu_0_0_015
#

v  -0.1224 -0.0002 -0.0099
v  -0.0816 0.0253 -0.0560
v  -0.0804 -0.0002 -0.0765
v  -0.0434 0.0005 -0.0551
v  -0.0858 0.0341 0.0108
v  -0.0529 0.0255 -0.0397
v  -0.1124 0.0232 -0.0035
v  -0.1187 0.0232 0.0453
v  -0.0494 0.0002 0.0324
v  -0.0606 0.0219 0.0260
v  -0.1323 0.0002 0.0598
v  -0.1061 0.0247 0.0739
v  -0.0817 0.0239 0.0666
v  -0.1132 -0.0004 0.0983
v  -0.0805 -0.0001 0.0894
# 15 vertices

vn -0.7885 0.3615 -0.4976
vn 0.3969 0.5866 -0.7060
vn 0.0654 0.9897 -0.1275
vn 0.3970 0.5867 -0.7058
vn -0.3080 0.9404 -0.1444
vn -0.7774 0.4508 -0.4386
vn -0.3574 0.9328 -0.0465
vn 0.0193 -0.9998 -0.0016
vn 0.3871 0.9171 0.0950
vn 0.0033 -1.0000 0.0030
vn 0.9456 0.3187 0.0659
vn -0.8988 0.4185 -0.1304
vn -0.2546 0.9651 0.0619
vn -0.8856 0.4500 -0.1147
vn 0.8656 0.4841 0.1277
vn 0.0838 0.9813 0.1733
vn 0.0021 -1.0000 0.0050
vn 0.3608 0.9217 0.1422
vn -0.6918 0.6301 0.3527
vn 0.7730 0.5101 0.3771
vn -0.7872 0.5287 0.3175
vn 0.2394 0.6404 0.7298
vn 0.1867 0.6807 0.7084
vn -0.0017 -1.0000 -0.0065
vn 0.7837 0.4480 0.4303
vn 0.0036 -0.9999 -0.0158
# 26 vertex normals

vt 0.0000 0.0000 0.0000
# 1 texture coords

g Nemu_0_0_015
usemtl Material__868
s 1
f 1/1/1 2/1/1 3/1/1 
f 4/1/2 3/1/2 2/1/2 
f 2/1/3 5/1/3 6/1/3 
f 4/1/4 2/1/4 6/1/4 
f 7/1/5 5/1/5 2/1/5 
f 1/1/6 7/1/6 2/1/6 
f 8/1/7 5/1/7 7/1/7 
f 3/1/8 4/1/8 9/1/8 
f 5/1/9 10/1/9 6/1/9 
f 3/1/10 9/1/10 1/1/10 
f 6/1/11 9/1/11 4/1/11 
f 11/1/12 7/1/12 1/1/12 
f 5/1/13 8/1/13 12/1/13 
f 11/1/14 8/1/14 7/1/14 
f 6/1/15 10/1/15 9/1/15 
f 5/1/16 12/1/16 13/1/16 
f 9/1/17 11/1/17 1/1/17 
f 10/1/18 5/1/18 13/1/18 
f 14/1/19 8/1/19 11/1/19 
f 13/1/20 9/1/20 10/1/20 
f 14/1/21 12/1/21 8/1/21 
f 14/1/22 13/1/22 12/1/22 
f 14/1/23 15/1/23 13/1/23 
f 9/1/24 15/1/24 11/1/24 
f 13/1/25 15/1/25 9/1/25 
f 11/1/26 15/1/26 14/1/26 
# 0 polygons - 26 triangles

#
# object Nemu_0_0_014
#

v  0.0471 0.0000 0.0322
v  0.0506 0.0254 -0.0399
v  0.0412 0.0005 -0.0554
v  0.0794 0.0253 -0.0562
v  0.0835 0.0340 0.0106
v  0.0782 -0.0001 -0.0767
v  0.0583 0.0217 0.0258
v  0.1101 0.0232 -0.0037
v  0.1201 -0.0001 -0.0101
v  0.0794 0.0237 0.0664
v  0.1039 0.0245 0.0738
v  0.1164 0.0231 0.0451
v  0.0782 -0.0004 0.0892
v  0.1109 -0.0007 0.0980
v  0.1301 0.0000 0.0596
# 15 vertices

vn -0.9462 0.3168 0.0664
vn -0.3978 0.5880 -0.7043
vn -0.0673 0.9899 -0.1247
vn -0.3978 0.5879 -0.7044
vn -0.8666 0.4821 0.1287
vn -0.3889 0.9161 0.0974
vn 0.3062 0.9414 -0.1416
vn -0.0111 -0.9999 0.0063
vn 0.7880 0.3643 -0.4963
vn -0.0045 -1.0000 -0.0053
vn -0.7741 0.5075 0.3783
vn -0.3627 0.9206 0.1447
vn -0.0858 0.9806 0.1761
vn 0.7767 0.4535 -0.4370
vn 0.3556 0.9336 -0.0437
vn -0.7847 0.4453 0.4313
vn -0.0043 -1.0000 -0.0050
vn 0.2527 0.9654 0.0647
vn -0.1882 0.6784 0.7102
vn -0.2409 0.6378 0.7315
vn 0.8848 0.4520 -0.1132
vn 0.8981 0.4205 -0.1289
vn 0.0094 -1.0000 0.0008
vn -0.0017 -0.9998 -0.0186
vn 0.7328 0.5679 0.3748
vn 0.7322 0.6155 0.2916
# 26 vertex normals

vt 0.0000 0.0000 0.0000
# 1 texture coords

g Nemu_0_0_014
usemtl Material__867
s 1
f 16/2/27 17/2/27 18/2/27 
f 19/2/28 18/2/28 17/2/28 
f 20/2/29 19/2/29 17/2/29 
f 19/2/30 21/2/30 18/2/30 
f 16/2/31 22/2/31 17/2/31 
f 22/2/32 20/2/32 17/2/32 
f 20/2/33 23/2/33 19/2/33 
f 18/2/34 21/2/34 24/2/34 
f 19/2/35 24/2/35 21/2/35 
f 18/2/36 24/2/36 16/2/36 
f 16/2/37 25/2/37 22/2/37 
f 20/2/38 22/2/38 25/2/38 
f 26/2/39 20/2/39 25/2/39 
f 19/2/40 23/2/40 24/2/40 
f 20/2/41 27/2/41 23/2/41 
f 16/2/42 28/2/42 25/2/42 
f 24/2/43 28/2/43 16/2/43 
f 27/2/44 20/2/44 26/2/44 
f 29/2/45 25/2/45 28/2/45 
f 29/2/46 26/2/46 25/2/46 
f 23/2/47 27/2/47 30/2/47 
f 23/2/48 30/2/48 24/2/48 
f 24/2/49 30/2/49 28/2/49 
f 28/2/50 30/2/50 29/2/50 
f 26/2/51 29/2/51 30/2/51 
f 26/2/52 30/2/52 27/2/52 
# 0 polygons - 26 triangles

#
# object Nemu_0_0_013
#

v  -0.0413 0.0922 0.1143
v  -0.0695 0.0743 0.1008
v  -0.0391 0.0901 0.1150
v  -0.0513 0.1071 0.1457
v  -0.0713 0.0936 0.1514
v  -0.0479 0.0646 0.1589
v  -0.0374 0.0574 0.1382
v  -0.0584 0.0459 0.1333
v  -0.0837 0.0714 0.1209
v  -0.0881 0.0777 0.1439
v  -0.0656 0.0499 0.1551
v  -0.0442 0.0396 0.1525
# 12 vertices

vn -0.3766 -0.1044 0.9205
vn -0.7076 -0.6986 0.1058
vn 0.0667 0.3025 0.9508
vn 0.9525 0.2365 0.1918
vn 0.5928 -0.4092 -0.6937
vn 0.9011 0.1924 0.3886
vn -0.5070 -0.7277 -0.4620
vn 0.4726 -0.5767 -0.6663
vn -0.3113 0.1240 0.9422
vn 0.8949 0.0179 0.4459
vn 0.4933 -0.6530 -0.5747
vn -0.7210 -0.6911 0.0500
vn -0.7452 -0.6549 -0.1259
vn -0.0056 -0.2500 0.9682
vn -0.3633 -0.0490 0.9304
vn -0.4315 -0.9018 0.0238
# 16 vertex normals

vt 0.0000 0.0000 0.0000
# 1 texture coords

g Nemu_0_0_013
usemtl Material__865
s 1
f 31/3/53 32/3/53 33/3/53 
f 34/3/54 31/3/54 33/3/54 
f 35/3/55 36/3/55 34/3/55 
f 31/3/56 34/3/56 37/3/56 
f 32/3/57 31/3/57 37/3/57 
f 37/3/58 34/3/58 36/3/58 
f 38/3/59 39/3/59 32/3/59 
f 32/3/60 37/3/60 38/3/60 
f 36/3/61 40/3/61 41/3/61 
f 37/3/62 36/3/62 42/3/62 
f 38/3/63 37/3/63 42/3/63 
f 38/3/64 40/3/64 39/3/64 
f 40/3/65 38/3/65 41/3/65 
f 36/3/66 41/3/66 42/3/66 
f 40/3/67 36/3/67 35/3/67 
f 41/3/68 38/3/68 42/3/68 
# 0 polygons - 16 triangles

#
# object Nemu_0_0_012
#

v  -0.0513 0.1071 0.1457
v  -0.0449 0.1265 0.1099
v  -0.0608 0.1246 0.1259
v  -0.0713 0.0936 0.1514
v  -0.0540 0.1101 0.0874
v  -0.0739 0.1273 0.1020
v  -0.0809 0.1176 0.1228
v  -0.0738 0.1012 0.0938
v  -0.0861 0.1083 0.1100
v  -0.0881 0.0777 0.1439
v  -0.0837 0.0714 0.1209
v  -0.0695 0.0743 0.1008
v  -0.0391 0.0901 0.1150
# 13 vertices

vn 0.4016 0.7731 0.4910
vn -0.2460 0.6647 0.7054
vn 0.1930 0.7537 -0.6283
vn -0.0025 0.9931 0.1170
vn -0.3314 0.6645 0.6698
vn -0.4046 0.2708 -0.8735
vn -0.7350 0.1989 -0.6483
vn -0.8491 0.5268 -0.0392
vn -0.9445 0.2701 0.1869
vn -0.6748 0.4372 0.5945
vn -0.7679 -0.2723 -0.5798
vn -0.8196 -0.2119 -0.5323
vn 0.5657 -0.4919 -0.6618
vn -0.9809 -0.1121 -0.1589
vn 0.9443 0.1876 0.2703
vn 0.9008 0.0826 -0.4263
vn -0.3512 0.8880 0.2968
vn -0.1813 -0.2736 -0.9446
# 18 vertex normals

vt 0.0000 0.0000 0.0000
# 1 texture coords

g Nemu_0_0_012
usemtl Material__866
s 1
f 43/4/69 44/4/69 45/4/69 
f 45/4/70 46/4/70 43/4/70 
f 47/4/71 48/4/71 44/4/71 
f 48/4/72 45/4/72 44/4/72 
f 49/4/73 46/4/73 45/4/73 
f 50/4/74 48/4/74 47/4/74 
f 48/4/75 50/4/75 51/4/75 
f 48/4/76 51/4/76 49/4/76 
f 51/4/77 52/4/77 49/4/77 
f 46/4/78 49/4/78 52/4/78 
f 53/4/79 50/4/79 54/4/79 
f 50/4/80 53/4/80 51/4/80 
f 55/4/81 54/4/81 47/4/81 
f 53/4/82 52/4/82 51/4/82 
f 43/4/83 55/4/83 44/4/83 
f 44/4/84 55/4/84 47/4/84 
f 45/4/85 48/4/85 49/4/85 
f 47/4/86 54/4/86 50/4/86 
# 0 polygons - 18 triangles

#
# object Nemu_0_0_011
#

v  0.0400 0.0934 0.1137
v  0.0495 0.1071 0.1456
v  0.0384 0.0895 0.1159
v  0.0678 0.0743 0.1007
v  0.0830 0.0717 0.1210
v  0.0564 0.0460 0.1330
v  0.0355 0.0577 0.1378
v  0.0460 0.0648 0.1587
v  0.0865 0.0778 0.1439
v  0.0706 0.0940 0.1515
v  0.0422 0.0398 0.1522
v  0.0636 0.0500 0.1548
# 12 vertices

vn 0.9015 -0.4244 -0.0845
vn 0.5367 0.2287 0.8122
vn 0.4980 -0.7317 -0.4655
vn -0.5980 -0.3963 -0.6967
vn -0.9540 0.2411 0.1785
vn -0.4733 -0.5741 -0.6682
vn -0.9020 0.1936 0.3860
vn 0.7116 -0.6984 0.0774
vn -0.0778 0.2999 0.9508
vn -0.4942 -0.6487 -0.5787
vn -0.8968 0.0213 0.4419
vn 0.7421 -0.6586 -0.1243
vn 0.3076 0.1196 0.9440
vn 0.4266 -0.9041 0.0232
vn 0.3658 -0.0790 0.9273
vn 0.0000 -0.2527 0.9676
# 16 vertex normals

vt 0.0000 0.0000 0.0000
# 1 texture coords

g Nemu_0_0_011
usemtl Material__864
s 1
f 56/5/87 57/5/87 58/5/87 
f 59/5/88 56/5/88 58/5/88 
f 60/5/89 61/5/89 59/5/89 
f 56/5/90 59/5/90 62/5/90 
f 57/5/91 56/5/91 62/5/91 
f 62/5/92 59/5/92 61/5/92 
f 57/5/93 62/5/93 63/5/93 
f 64/5/94 61/5/94 60/5/94 
f 63/5/95 65/5/95 57/5/95 
f 62/5/96 61/5/96 66/5/96 
f 63/5/97 62/5/97 66/5/97 
f 61/5/98 64/5/98 67/5/98 
f 64/5/99 63/5/99 67/5/99 
f 61/5/100 67/5/100 66/5/100 
f 63/5/101 64/5/101 65/5/101 
f 67/5/102 63/5/102 66/5/102 
# 0 polygons - 16 triangles

#
# object Nemu_0_0_010
#

v  0.0678 0.0743 0.1007
v  0.0521 0.1100 0.0874
v  0.0719 0.1012 0.0937
v  0.0384 0.0895 0.1159
v  0.0429 0.1264 0.1098
v  0.0719 0.1274 0.1019
v  0.0842 0.1083 0.1098
v  0.0588 0.1246 0.1258
v  0.0830 0.0717 0.1210
v  0.0495 0.1071 0.1456
v  0.0790 0.1177 0.1227
v  0.0865 0.0778 0.1439
v  0.0706 0.0940 0.1515
# 13 vertices

vn 0.1801 -0.2739 -0.9448
vn -0.5863 -0.4967 -0.6400
vn -0.9132 0.0457 -0.4049
vn 0.4013 0.2716 -0.8747
vn 0.7326 0.2013 -0.6503
vn -0.1976 0.7522 -0.6286
vn -0.0013 0.9933 0.1159
vn 0.7533 -0.2720 -0.5988
vn 0.8187 -0.1935 -0.5407
vn -0.9524 0.1589 0.2602
vn 0.3483 0.8897 0.2950
vn 0.8468 0.5302 -0.0418
vn 0.9439 0.2742 0.1843
vn 0.9885 -0.0746 -0.1315
vn 0.2243 0.6755 0.7024
vn 0.3322 0.6778 0.6559
vn -0.4036 0.7720 0.4911
vn 0.7065 0.4304 0.5619
# 18 vertex normals

vt 0.0000 0.0000 0.0000
# 1 texture coords

g Nemu_0_0_010
usemtl Material__863
s 1
f 68/6/103 69/6/103 70/6/103 
f 68/6/104 71/6/104 69/6/104 
f 71/6/105 72/6/105 69/6/105 
f 73/6/106 70/6/106 69/6/106 
f 70/6/107 73/6/107 74/6/107 
f 73/6/108 69/6/108 72/6/108 
f 75/6/109 73/6/109 72/6/109 
f 70/6/110 76/6/110 68/6/110 
f 76/6/111 70/6/111 74/6/111 
f 71/6/112 77/6/112 72/6/112 
f 73/6/113 75/6/113 78/6/113 
f 74/6/114 73/6/114 78/6/114 
f 79/6/115 74/6/115 78/6/115 
f 79/6/116 76/6/116 74/6/116 
f 80/6/117 75/6/117 77/6/117 
f 80/6/118 78/6/118 75/6/118 
f 72/6/119 77/6/119 75/6/119 
f 78/6/120 80/6/120 79/6/120 
# 0 polygons - 18 triangles

#
# object Nemu_0_0_009
#

v  -0.1351 0.2293 -0.0241
v  -0.1456 0.2670 0.0325
v  -0.1414 0.3183 0.0429
v  -0.1320 0.2073 0.0042
v  -0.0828 0.2711 -0.0471
v  -0.0985 0.3005 0.0419
v  -0.0577 0.2879 -0.0094
v  -0.0692 0.2816 0.0419
# 8 vertices

vn -0.9552 0.1320 -0.2649
vn -0.9785 -0.2007 -0.0474
vn 0.6429 -0.2032 0.7385
vn -0.6316 0.4374 -0.6401
vn 0.3835 0.9201 0.0799
vn 0.0537 0.8987 -0.4353
vn 0.5276 0.8208 0.2190
vn 0.0682 0.1060 0.9920
# 8 vertex normals

vt 0.0000 0.0000 0.0000
# 1 texture coords

g Nemu_0_0_009
usemtl Material__862
s 1
f 81/7/121 82/7/121 83/7/121 
f 82/7/122 81/7/122 84/7/122 
f 84/7/123 83/7/123 82/7/123 
f 85/7/124 81/7/124 83/7/124 
f 86/7/125 87/7/125 83/7/125 
f 87/7/126 85/7/126 83/7/126 
f 87/7/127 86/7/127 88/7/127 
f 83/7/128 88/7/128 86/7/128 
# 0 polygons - 8 triangles

#
# object Nemu_7C2D0B9B_0_009
#

v  -0.1414 0.3183 0.0429
v  -0.1320 0.2073 0.0042
v  -0.0692 0.2816 0.0419
# 3 vertices

vn -0.1577 -0.3373 0.9281
# 1 vertex normals

vt 0.9512 1.0000 0.0000
vt 0.8457 0.0000 0.0000
vt 0.1309 0.6699 0.0000
# 3 texture coords

g Nemu_7C2D0B9B_0_009
usemtl Material__858
s 1
f 89/8/129 90/9/129 91/10/129 
# 0 polygons - 1 triangles

#
# object Nemu_0_0_008
#

v  0.1433 0.2670 0.0325
v  0.1329 0.2293 -0.0241
v  0.1391 0.3183 0.0429
v  0.1297 0.2073 0.0042
v  0.0805 0.2711 -0.0471
v  0.0554 0.2879 -0.0094
v  0.0962 0.3005 0.0419
v  0.0669 0.2816 0.0419
# 8 vertices

vn 0.9552 0.1320 -0.2649
vn 0.9785 -0.2007 -0.0474
vn -0.0537 0.8987 -0.4353
vn 0.6316 0.4374 -0.6401
vn -0.5276 0.8208 0.2190
vn -0.3835 0.9201 0.0799
vn -0.0682 0.1060 0.9920
vn -0.6429 -0.2032 0.7385
# 8 vertex normals

vt 0.0000 0.0000 0.0000
# 1 texture coords

g Nemu_0_0_008
usemtl Material__861
s 1
f 92/11/130 93/11/130 94/11/130 
f 93/11/131 92/11/131 95/11/131 
f 96/11/132 97/11/132 94/11/132 
f 93/11/133 96/11/133 94/11/133 
f 98/11/134 97/11/134 99/11/134 
f 97/11/135 98/11/135 94/11/135 
f 99/11/136 94/11/136 98/11/136 
f 94/11/137 95/11/137 92/11/137 
# 0 polygons - 8 triangles

#
# object Nemu_7C2D0B9B_0_008
#

v  0.1297 0.2073 0.0042
v  0.1391 0.3183 0.0429
v  0.0669 0.2816 0.0419
# 3 vertices

vn 0.1577 -0.3373 0.9281
# 1 vertex normals

vt 0.8457 0.0000 0.0000
vt 0.9512 1.0000 0.0000
vt 0.1309 0.6699 0.0000
# 3 texture coords

g Nemu_7C2D0B9B_0_008
usemtl Material__857
s 1
f 100/12/138 101/13/138 102/14/138 
# 0 polygons - 1 triangles

#
# object Nemu_0_0_007
#

v  0.1036 0.0251 -0.0178
v  0.0544 -0.0031 -0.0094
v  0.0355 -0.0031 -0.0429
v  -0.0011 -0.0136 -0.0000
v  0.0669 0.0251 -0.0806
v  0.1391 0.0691 -0.0241
v  0.0910 0.0691 -0.1089
v  0.1590 0.1235 -0.0283
v  0.1036 0.1235 -0.1246
v  0.1590 0.1801 -0.0283
v  0.1036 0.1801 -0.1246
v  0.1391 0.2345 -0.0241
v  0.0910 0.2345 -0.1089
v  0.1036 0.2785 -0.0178
v  0.0355 0.3067 -0.0429
v  0.0669 0.2785 -0.0806
v  -0.0011 0.3172 -0.0000
v  0.0544 0.3067 -0.0094
v  -0.0011 -0.0031 -0.0565
v  -0.0011 0.0251 -0.1057
v  -0.0011 0.0691 -0.1424
v  -0.0011 0.1235 -0.1623
v  -0.0011 0.1801 -0.1623
v  -0.0011 0.2345 -0.1424
v  -0.0011 0.2785 -0.1057
v  -0.0011 0.3067 -0.0565
v  -0.0692 0.0251 -0.0817
v  -0.0378 -0.0031 -0.0429
v  -0.0933 0.0691 -0.1099
v  -0.1058 0.1235 -0.1246
v  -0.1058 0.1801 -0.1246
v  -0.0933 0.2345 -0.1099
v  -0.0692 0.2785 -0.0817
v  -0.0378 0.3067 -0.0429
v  -0.1414 0.2345 -0.0251
v  -0.1613 0.1801 -0.0283
v  -0.1613 0.1235 -0.0283
v  -0.1414 0.0691 -0.0251
v  -0.1058 0.0251 -0.0188
v  -0.0566 -0.0031 -0.0094
v  -0.1058 0.2785 -0.0188
v  -0.0566 0.3067 -0.0094
v  -0.0503 -0.0031 0.0283
v  -0.0933 0.0251 0.0523
v  -0.1247 0.0691 0.0712
v  -0.1425 0.1235 0.0806
v  -0.1425 0.1801 0.0806
v  -0.1247 0.2345 0.0712
v  -0.0933 0.2785 0.0523
v  -0.0503 0.3067 0.0283
v  -0.0210 -0.0031 0.0534
v  -0.0378 0.0251 0.0995
v  -0.0503 0.0691 0.1340
v  -0.0503 0.2345 0.1340
v  -0.0378 0.2785 0.0995
v  -0.0210 0.3067 0.0534
v  0.0177 0.3067 0.0534
v  0.0910 0.2785 0.0534
v  0.0481 0.3067 0.0283
v  0.0345 0.2785 0.0995
v  0.1224 0.2345 0.0712
v  0.0470 0.2345 0.1340
v  0.1391 0.1801 0.0817
v  0.1391 0.1235 0.0817
v  0.1224 0.0691 0.0712
v  0.0910 0.0251 0.0534
v  0.0345 0.0251 0.0995
v  0.0177 -0.0031 0.0534
v  0.0470 0.0691 0.1340
v  0.0481 -0.0031 0.0283
v  -0.0011 0.1801 0.1528
v  -0.0482 0.2293 0.1298
v  -0.0535 0.2868 0.0785
v  -0.0231 0.3067 0.0450
v  -0.0608 0.2481 0.1403
v  -0.0221 0.2000 0.1455
v  -0.0242 0.2083 0.1706
v  -0.0200 0.3078 0.0921
v  -0.0430 0.2774 0.1424
v  -0.0231 0.2188 0.1832
v  0.0292 0.2062 0.1581
v  0.0250 0.3067 0.0492
v  0.0229 0.2052 0.1424
v  0.0470 0.2177 0.1193
v  -0.0147 0.2502 0.1790
v  0.0156 0.2073 0.1235
v  0.0167 0.3078 0.1015
v  -0.0106 0.2921 0.1434
v  0.0282 0.2240 0.1685
v  0.0313 0.2303 0.1235
v  0.0502 0.2764 0.1183
v  0.0229 0.2471 0.1665
v  0.0324 0.2816 0.1277
# 93 vertices

vn 0.4493 -0.8569 -0.2527
vn 0.1690 -0.9810 -0.0950
vn 0.6840 -0.6107 -0.3990
vn 0.4514 -0.8526 -0.2633
vn 0.8193 -0.3351 -0.4653
vn 0.6811 -0.6217 -0.3868
vn 0.8665 0.0000 -0.4992
vn 0.8194 -0.3253 -0.4720
vn 0.8166 0.3345 -0.4704
vn 0.6875 0.6123 -0.3904
vn 0.8225 0.3245 -0.4671
vn 0.4514 0.8526 -0.2633
vn 0.6755 0.6232 -0.3940
vn 0.1690 0.9810 -0.0950
vn 0.4493 0.8569 -0.2527
vn 0.1809 -0.8528 -0.4899
vn 0.0675 -0.9810 -0.1817
vn 0.2729 -0.6159 -0.7391
vn 0.1815 -0.8533 -0.4887
vn 0.3232 -0.3248 -0.8888
vn 0.2680 -0.6205 -0.7370
vn 0.3387 0.0000 -0.9409
vn 0.3197 -0.3300 -0.8882
vn 0.3232 0.3248 -0.8888
vn 0.2729 0.6159 -0.7391
vn 0.3197 0.3300 -0.8882
vn 0.1809 0.8528 -0.4899
vn 0.2680 0.6205 -0.7370
vn 0.0675 0.9810 -0.1817
vn 0.1815 0.8533 -0.4887
vn -0.1736 -0.8539 -0.4906
vn -0.0675 -0.9810 -0.1817
vn -0.2609 -0.6191 -0.7407
vn -0.1788 -0.8581 -0.4813
vn -0.3215 -0.3146 -0.8931
vn -0.2623 -0.6178 -0.7413
vn -0.3387 0.0000 -0.9409
vn -0.3141 -0.3258 -0.8917
vn -0.3215 0.3146 -0.8931
vn -0.3141 0.3258 -0.8917
vn -0.2623 0.6178 -0.7413
vn -0.2609 0.6191 -0.7407
vn -0.1788 0.8581 -0.4813
vn -0.1736 0.8539 -0.4906
vn -0.6811 0.6217 -0.3868
vn -0.0675 0.9810 -0.1817
vn -0.8218 0.3171 -0.4734
vn -0.8217 0.3272 -0.4666
vn -0.8665 0.0000 -0.4992
vn -0.8249 -0.3165 -0.4684
vn -0.8190 -0.3265 -0.4718
vn -0.6755 -0.6232 -0.3940
vn -0.6875 -0.6123 -0.3904
vn -0.4457 -0.8594 -0.2507
vn -0.4476 -0.8552 -0.2611
vn -0.6840 0.6107 -0.3990
vn -0.1690 -0.9810 -0.0950
vn -0.4457 0.8594 -0.2507
vn -0.4476 0.8552 -0.2611
vn -0.1905 -0.9812 0.0318
vn -0.1690 0.9810 -0.0950
vn -0.5140 -0.8535 0.0857
vn -0.5090 -0.8561 0.0898
vn -0.7779 -0.6136 0.1353
vn -0.7794 -0.6113 0.1375
vn -0.9296 -0.3317 0.1609
vn -0.9299 -0.3304 0.1617
vn -0.9854 0.0000 0.1705
vn -0.9294 0.3318 0.1616
vn -0.9300 0.3305 0.1610
vn -0.7773 0.6140 0.1372
vn -0.7795 0.6116 0.1356
vn -0.5140 0.8535 0.0857
vn -0.5090 0.8561 0.0898
vn -0.1250 -0.9814 0.1459
vn -0.1905 0.9812 0.0318
vn -0.3391 -0.8518 0.3994
vn -0.3396 -0.8531 0.3962
vn -0.5078 -0.6173 0.6009
vn -0.5081 -0.6194 0.5984
vn -0.5078 0.6173 0.6009
vn -0.5081 0.6194 0.5984
vn -0.3396 0.8531 0.3962
vn -0.3391 0.8518 0.3994
vn 0.0000 0.9813 0.1924
vn -0.1250 0.9814 0.1459
vn 0.3300 0.8556 0.3988
vn 0.1232 0.9811 0.1489
vn 0.5017 0.6076 0.6157
vn 0.3292 0.8535 0.4040
vn 0.7790 0.6119 0.1370
vn 0.5032 0.6182 0.6038
vn 0.9325 0.3194 0.1687
vn 0.9306 0.3274 0.1636
vn 0.9840 0.0000 0.1781
vn 0.9335 -0.3188 0.1641
vn 0.9300 -0.3269 0.1683
vn 0.7789 -0.6120 0.1374
vn 0.7794 -0.6114 0.1370
vn 0.3292 -0.8535 0.4040
vn 0.5017 -0.6076 0.6157
vn 0.0000 -0.8523 0.5230
vn 0.0000 -0.6178 0.7863
vn 0.0000 -0.9813 0.1924
vn 0.1232 -0.9811 0.1489
vn 0.5032 -0.6182 0.6038
vn 0.3300 -0.8556 0.3988
vn 0.5075 -0.8570 0.0896
vn 0.1905 -0.9812 0.0318
vn 0.7794 0.6113 0.1375
vn 0.5126 -0.8544 0.0854
vn 0.5126 0.8544 0.0854
vn 0.5075 0.8570 0.0896
vn 0.0000 0.6178 0.7863
vn 0.1905 0.9812 0.0318
vn 0.0000 0.3271 0.9450
vn -0.3372 -0.6431 -0.6875
vn -0.8585 -0.3825 -0.3417
vn -0.7748 -0.6163 0.1409
vn -0.7818 -0.6050 0.1508
vn -0.5348 0.8448 0.0169
vn -0.8421 0.4962 0.2113
vn -0.5783 0.7881 0.2111
vn -0.8045 -0.4216 0.4184
vn -0.5988 0.3109 0.7381
vn 0.0379 -0.9471 0.3188
vn 0.0019 0.9997 -0.0223
vn 0.1168 -0.9930 0.0195
vn 0.3882 -0.9167 -0.0942
vn 0.1181 -0.7677 0.6299
vn -0.6557 0.2689 0.7056
vn 0.2831 -0.9349 -0.2140
vn 0.0049 0.9998 -0.0192
vn -0.3968 0.8548 0.3345
vn 0.6417 0.7522 0.1497
vn 0.2863 -0.4732 0.8331
vn 0.8027 -0.3806 -0.4591
vn 0.9139 -0.1645 0.3710
vn -0.3091 0.6337 0.7092
vn 0.2690 0.0565 0.9615
vn 0.9260 -0.3774 0.0119
vn -0.0784 0.9491 0.3050
vn 0.3241 0.1584 0.9327
vn 0.6568 0.7487 0.0901
vn 0.3790 0.7581 0.5307
vn 0.2974 0.6009 0.7419
vn 0.5081 0.5777 0.6388
vn 0.4683 0.7493 0.4683
vn 0.3973 0.6347 0.6628
vn 0.7805 0.2302 0.5813
# 150 vertex normals

vt 0.0000 0.0000 0.0000
# 1 texture coords

g Nemu_0_0_007
usemtl Material__860
s 1
f 103/15/139 104/15/139 105/15/139 
f 106/15/140 105/15/140 104/15/140 
f 107/15/141 108/15/141 103/15/141 
f 103/15/142 105/15/142 107/15/142 
f 109/15/143 110/15/143 108/15/143 
f 107/15/144 109/15/144 108/15/144 
f 111/15/145 112/15/145 110/15/145 
f 109/15/146 111/15/146 110/15/146 
f 113/15/147 114/15/147 112/15/147 
f 111/15/145 113/15/145 112/15/145 
f 115/15/148 116/15/148 114/15/148 
f 113/15/149 115/15/149 114/15/149 
f 117/15/150 116/15/150 118/15/150 
f 115/15/151 118/15/151 116/15/151 
f 119/15/152 120/15/152 117/15/152 
f 117/15/153 120/15/153 116/15/153 
f 107/15/154 121/15/154 122/15/154 
f 106/15/155 121/15/155 105/15/155 
f 123/15/156 107/15/156 122/15/156 
f 107/15/157 105/15/157 121/15/157 
f 124/15/158 109/15/158 123/15/158 
f 123/15/159 109/15/159 107/15/159 
f 125/15/160 111/15/160 124/15/160 
f 124/15/161 111/15/161 109/15/161 
f 115/15/162 125/15/162 126/15/162 
f 125/15/160 113/15/160 111/15/160 
f 118/15/163 126/15/163 127/15/163 
f 115/15/164 113/15/164 125/15/164 
f 128/15/165 118/15/165 127/15/165 
f 118/15/166 115/15/166 126/15/166 
f 119/15/167 117/15/167 128/15/167 
f 128/15/168 117/15/168 118/15/168 
f 121/15/169 129/15/169 122/15/169 
f 106/15/170 130/15/170 121/15/170 
f 123/15/171 129/15/171 131/15/171 
f 121/15/172 130/15/172 129/15/172 
f 124/15/173 131/15/173 132/15/173 
f 123/15/174 122/15/174 129/15/174 
f 133/15/175 124/15/175 132/15/175 
f 124/15/176 123/15/176 131/15/176 
f 134/15/177 125/15/177 133/15/177 
f 133/15/175 125/15/175 124/15/175 
f 134/15/178 126/15/178 125/15/178 
f 135/15/179 127/15/179 126/15/179 
f 135/15/180 126/15/180 134/15/180 
f 135/15/181 136/15/181 128/15/181 
f 135/15/182 128/15/182 127/15/182 
f 137/15/183 135/15/183 134/15/183 
f 119/15/184 128/15/184 136/15/184 
f 138/15/185 134/15/185 133/15/185 
f 138/15/186 137/15/186 134/15/186 
f 139/15/187 133/15/187 132/15/187 
f 139/15/187 138/15/187 133/15/187 
f 140/15/188 132/15/188 131/15/188 
f 140/15/189 139/15/189 132/15/189 
f 141/15/190 131/15/190 129/15/190 
f 141/15/191 140/15/191 131/15/191 
f 130/15/192 142/15/192 141/15/192 
f 130/15/193 141/15/193 129/15/193 
f 137/15/194 143/15/194 135/15/194 
f 106/15/195 142/15/195 130/15/195 
f 143/15/196 144/15/196 136/15/196 
f 143/15/197 136/15/197 135/15/197 
f 106/15/198 145/15/198 142/15/198 
f 119/15/199 136/15/199 144/15/199 
f 142/15/200 145/15/200 146/15/200 
f 142/15/201 146/15/201 141/15/201 
f 146/15/202 147/15/202 140/15/202 
f 146/15/203 140/15/203 141/15/203 
f 147/15/204 148/15/204 139/15/204 
f 147/15/205 139/15/205 140/15/205 
f 148/15/206 149/15/206 138/15/206 
f 148/15/206 138/15/206 139/15/206 
f 149/15/207 150/15/207 137/15/207 
f 149/15/208 137/15/208 138/15/208 
f 150/15/209 151/15/209 143/15/209 
f 150/15/210 143/15/210 137/15/210 
f 151/15/211 152/15/211 144/15/211 
f 151/15/212 144/15/212 143/15/212 
f 106/15/213 153/15/213 145/15/213 
f 119/15/214 144/15/214 152/15/214 
f 153/15/215 154/15/215 146/15/215 
f 153/15/216 146/15/216 145/15/216 
f 154/15/217 155/15/217 147/15/217 
f 154/15/218 147/15/218 146/15/218 
f 150/15/219 156/15/219 157/15/219 
f 150/15/220 157/15/220 151/15/220 
f 151/15/221 158/15/221 152/15/221 
f 151/15/222 157/15/222 158/15/222 
f 119/15/223 158/15/223 159/15/223 
f 119/15/224 152/15/224 158/15/224 
f 159/15/225 160/15/225 161/15/225 
f 119/15/226 159/15/226 161/15/226 
f 162/15/227 163/15/227 160/15/227 
f 159/15/228 162/15/228 160/15/228 
f 114/15/229 160/15/229 163/15/229 
f 162/15/230 164/15/230 163/15/230 
f 112/15/231 163/15/231 165/15/231 
f 112/15/232 114/15/232 163/15/232 
f 110/15/233 165/15/233 166/15/233 
f 110/15/233 112/15/233 165/15/233 
f 108/15/234 166/15/234 167/15/234 
f 108/15/235 110/15/235 166/15/235 
f 103/15/236 167/15/236 168/15/236 
f 103/15/237 108/15/237 167/15/237 
f 168/15/238 169/15/238 170/15/238 
f 167/15/239 169/15/239 168/15/239 
f 170/15/240 154/15/240 153/15/240 
f 170/15/240 169/15/240 154/15/240 
f 154/15/241 169/15/241 171/15/241 
f 106/15/242 170/15/242 153/15/242 
f 106/15/243 172/15/243 170/15/243 
f 154/15/241 171/15/241 155/15/241 
f 167/15/244 171/15/244 169/15/244 
f 168/15/245 170/15/245 172/15/245 
f 168/15/246 104/15/246 103/15/246 
f 106/15/247 104/15/247 172/15/247 
f 114/15/248 116/15/248 160/15/248 
f 168/15/249 172/15/249 104/15/249 
f 120/15/250 161/15/250 160/15/250 
f 120/15/251 160/15/251 116/15/251 
f 156/15/252 164/15/252 162/15/252 
f 119/15/253 161/15/253 120/15/253 
f 164/15/254 156/15/254 173/15/254 
f 174/15/255 175/15/255 176/15/255 
f 175/15/256 174/15/256 177/15/256 
f 174/15/257 178/15/257 179/15/257 
f 179/15/258 177/15/258 174/15/258 
f 175/15/259 180/15/259 176/15/259 
f 181/15/260 175/15/260 177/15/260 
f 175/15/261 181/15/261 180/15/261 
f 177/15/262 179/15/262 182/15/262 
f 182/15/263 181/15/263 177/15/263 
f 183/15/264 179/15/264 178/15/264 
f 180/15/265 184/15/265 176/15/265 
f 183/15/266 178/15/266 185/15/266 
f 186/15/267 183/15/267 185/15/267 
f 183/15/268 182/15/268 179/15/268 
f 181/15/269 182/15/269 187/15/269 
f 188/15/270 186/15/270 185/15/270 
f 180/15/271 189/15/271 184/15/271 
f 190/15/272 180/15/272 181/15/272 
f 191/15/273 186/15/273 192/15/273 
f 182/15/274 183/15/274 191/15/274 
f 192/15/275 184/15/275 193/15/275 
f 186/15/276 191/15/276 183/15/276 
f 190/15/277 181/15/277 187/15/277 
f 191/15/278 187/15/278 182/15/278 
f 191/15/279 192/15/279 193/15/279 
f 190/15/280 189/15/280 180/15/280 
f 187/15/281 191/15/281 194/15/281 
f 189/15/282 193/15/282 184/15/282 
f 190/15/283 195/15/283 189/15/283 
f 190/15/284 187/15/284 194/15/284 
f 193/15/285 195/15/285 194/15/285 
f 193/15/286 189/15/286 195/15/286 
f 190/15/287 194/15/287 195/15/287 
f 193/15/288 194/15/288 191/15/288 
# 0 polygons - 158 triangles

#
# object Nemu_167ABEF_0_006
#

v  0.0470 0.0691 0.1340
v  0.0261 0.1235 0.1528
v  -0.0294 0.1235 0.1528
v  -0.0503 0.0691 0.1340
v  -0.0011 0.1801 0.1528
# 5 vertices

vn 0.0000 -0.3271 0.9450
vn 0.0000 0.0000 1.0000
# 2 vertex normals

vt 1.0850 -0.1074 0.0000
vt 0.8311 0.5195 0.0000
vt 0.1641 0.5195 0.0000
vt -0.0889 -0.1074 0.0000
vt 0.4980 1.1865 0.0000
# 5 texture coords

g Nemu_167ABEF_0_006
usemtl Material__859
s 1
f 196/16/289 197/17/289 198/18/289 
f 196/16/289 198/18/289 199/19/289 
f 197/17/290 200/20/290 198/18/290 
# 0 polygons - 3 triangles

#
# object Nemu_1B4F50D4_0_005
#

v  -0.1247 0.0691 0.0712
v  -0.0503 0.0691 0.1340
v  -0.0566 0.1235 0.1528
v  -0.1425 0.1235 0.0806
v  -0.0294 0.1235 0.1528
v  -0.1425 0.1801 0.0806
v  -0.0011 0.1801 0.1528
v  -0.0566 0.1801 0.1528
v  -0.1247 0.2345 0.0712
v  -0.0503 0.2345 0.1340
# 10 vertices

vn -0.6113 -0.3209 0.7234
vn -0.6090 -0.3244 0.7238
vn 0.0000 -0.3271 0.9450
vn -0.6438 0.0000 0.7652
vn 0.0000 0.0000 1.0000
vn -0.6090 0.3244 0.7238
vn 0.0000 0.3271 0.9450
vn -0.6113 0.3209 0.7234
# 8 vertex normals

vt 0.2341 0.3477 0.0000
vt 0.5691 0.3477 0.0000
vt 0.5741 0.5464 0.0000
vt 0.1931 0.5464 0.0000
vt 0.6645 0.5464 0.0000
vt 0.1931 0.7578 0.0000
vt 0.7553 0.7578 0.0000
vt 0.5741 0.7578 0.0000
vt 0.2341 0.9570 0.0000
vt 0.5691 0.9570 0.0000
# 10 texture coords

g Nemu_1B4F50D4_0_005
usemtl Material__63
s 1
f 201/21/291 202/22/291 203/23/291 
f 201/21/292 203/23/292 204/24/292 
f 202/22/293 205/25/293 203/23/293 
f 203/23/294 206/26/294 204/24/294 
f 203/23/295 207/27/295 208/28/295 
f 203/23/295 205/25/295 207/27/295 
f 203/23/294 208/28/294 206/26/294 
f 208/28/296 209/29/296 206/26/296 
f 207/27/297 210/30/297 208/28/297 
f 208/28/298 210/30/298 209/29/298 
# 0 polygons - 10 triangles

#
# object Nemu_1B4F50D4_0_004
#

v  0.0261 0.1235 0.1528
v  0.0470 0.0691 0.1340
v  0.0544 0.1235 0.1528
v  0.1224 0.0691 0.0712
v  0.0544 0.1801 0.1528
v  0.1391 0.1235 0.0817
v  0.1391 0.1801 0.0817
v  0.1224 0.2345 0.0712
v  0.0470 0.2345 0.1340
v  -0.0011 0.1801 0.1528
# 10 vertices

vn 0.0000 -0.3271 0.9450
vn 0.6038 -0.3321 0.7246
vn 0.0000 0.0000 1.0000
vn 0.6078 -0.3262 0.7240
vn 0.6430 0.0000 0.7659
vn 0.6038 0.3321 0.7246
vn 0.6078 0.3262 0.7240
vn 0.0000 0.3271 0.9450
# 8 vertex normals

vt 0.3391 0.5405 0.0000
vt 0.4390 0.3423 0.0000
vt 0.4221 0.5405 0.0000
vt 0.7867 0.3447 0.0000
vt 0.4212 0.7524 0.0000
vt 0.8173 0.5435 0.0000
vt 0.8163 0.7549 0.0000
vt 0.7835 0.9541 0.0000
vt 0.4358 0.9517 0.0000
vt 0.2542 0.7524 0.0000
# 10 texture coords

g Nemu_1B4F50D4_0_004
usemtl Material__64
s 1
f 211/31/299 212/32/299 213/33/299 
f 214/34/300 213/33/300 212/32/300 
f 211/31/301 213/33/301 215/35/301 
f 214/34/302 216/36/302 213/33/302 
f 216/36/303 217/37/303 215/35/303 
f 216/36/303 215/35/303 213/33/303 
f 215/35/304 218/38/304 219/39/304 
f 215/35/305 217/37/305 218/38/305 
f 219/39/306 220/40/306 215/35/306 
f 211/31/301 215/35/301 220/40/301 
# 0 polygons - 10 triangles

#
# object Nemu_5B89B767_0_003
#

v  -0.1686 0.1382 -0.1989
v  0.0805 0.2711 -0.1172
v  -0.1236 0.2649 -0.1026
v  -0.1446 0.3926 -0.1549
# 4 vertices

vn 0.0751 -0.6203 0.7807
vn -0.9139 0.0164 0.4056
vn 0.0542 0.3863 0.9208
vn 0.2382 0.1435 -0.9605
# 4 vertex normals

vt 0.6982 -0.2650 0.0000
vt -0.5049 0.4999 0.0000
vt 0.4775 0.4631 0.0000
vt 0.5781 1.2007 0.0000
# 4 texture coords

g Nemu_5B89B767_0_003
usemtl Material__856
s 1
f 221/41/307 222/42/307 223/43/307 
f 223/43/308 224/44/308 221/41/308 
f 223/43/309 222/42/309 224/44/309 
f 224/44/310 222/42/310 221/41/310 
# 0 polygons - 4 triangles

#
# object Nemu_5B89B767_0_002
#

v  -0.0828 0.2711 -0.1172
v  0.1423 0.3926 -0.1549
v  0.1664 0.1382 -0.1989
v  0.1214 0.2649 -0.1026
# 4 vertices

vn -0.2382 0.1435 -0.9605
vn -0.0751 -0.6203 0.7807
vn 0.9139 0.0164 0.4056
vn -0.0542 0.3863 0.9208
# 4 vertex normals

vt -0.5049 0.4999 0.0000
vt 0.5781 1.2007 0.0000
vt 0.6982 -0.2650 0.0000
vt 0.4775 0.4631 0.0000
# 4 texture coords

g Nemu_5B89B767_0_002
usemtl Material__855
s 1
f 225/45/311 226/46/311 227/47/311 
f 225/45/312 227/47/312 228/48/312 
f 226/46/313 228/48/313 227/47/313 
f 225/45/314 228/48/314 226/46/314 
# 0 polygons - 4 triangles

#
# object Nemu_4A8A0A50_0_059
#

v  -0.0799 0.0782 0.0001
v  0.0776 0.0782 0.0001
v  0.0776 0.2357 0.0001
v  -0.0799 0.2357 0.0001
# 4 vertices

vn -0.0000 0.0000 1.0000
# 1 vertex normals

vt 0.0000 0.0000 0.0000
vt 1.0000 0.0000 0.0000
vt 1.0000 1.0000 0.0000
vt 0.0000 1.0000 0.0000
# 4 texture coords

g Nemu_4A8A0A50_0_059
usemtl Material__214
s 1
f 229/49/315 230/50/315 231/51/315 
f 229/49/315 231/51/315 232/52/315 
# 0 polygons - 2 triangles

#
# object Nemu_65988D95_0_058
#

v  -0.0799 0.0782 0.0001
v  0.0776 0.0782 0.0001
v  0.0776 0.2357 0.0001
v  -0.0799 0.2357 0.0001
# 4 vertices

vn -0.0000 0.0000 1.0000
# 1 vertex normals

vt 0.0000 0.0000 0.0000
vt 1.0000 0.0000 0.0000
vt 1.0000 1.0000 0.0000
vt 0.0000 1.0000 0.0000
# 4 texture coords

g Nemu_65988D95_0_058
usemtl Material__216
s 1
f 233/53/316 234/54/316 235/55/316 
f 233/53/316 235/55/316 236/56/316 
# 0 polygons - 2 triangles

#
# object Nemu_4EC2CD09_0_057
#

v  -0.0799 0.0782 0.0001
v  0.0776 0.0782 0.0001
v  0.0776 0.2357 0.0001
v  -0.0799 0.2357 0.0001
# 4 vertices

vn -0.0000 0.0000 1.0000
# 1 vertex normals

vt 0.0000 0.0000 0.0000
vt 1.0000 0.0000 0.0000
vt 1.0000 1.0000 0.0000
vt 0.0000 1.0000 0.0000
# 4 texture coords

g Nemu_4EC2CD09_0_057
usemtl Material__215
s 1
f 237/57/317 238/58/317 239/59/317 
f 237/57/317 239/59/317 240/60/317 
# 0 polygons - 2 triangles

#
# object Nemu_4365FAF5_0_056
#

v  -0.3161 -0.1580 0.0001
v  0.3139 -0.1580 0.0001
v  0.3139 0.4720 0.0001
v  -0.3161 0.4720 0.0001
# 4 vertices

vn -0.0000 0.0000 1.0000
# 1 vertex normals

vt 0.0000 0.0000 0.0000
vt 1.0000 0.0000 0.0000
vt 1.0000 1.0000 0.0000
vt 0.0000 1.0000 0.0000
# 4 texture coords

g Nemu_4365FAF5_0_056
usemtl Material__213
s 1
f 241/61/318 242/62/318 243/63/318 
f 241/61/318 243/63/318 244/64/318 
# 0 polygons - 2 triangles

