# Wavefront OBJ exported by MilkShape 3D

mtllib legs.mtl

v -0.076954 0.159069 -0.405921
v -0.222438 0.248689 -0.437577
v -0.075782 0.249260 -0.416135
v -0.076954 0.159069 -0.405921
v -0.223610 0.158498 -0.427363
v -0.222438 0.248689 -0.437577
v -0.079472 0.122411 -0.393193
v -0.223610 0.158498 -0.427363
v -0.076954 0.159069 -0.405921
v -0.076954 0.159069 -0.405921
v -0.075782 0.249260 -0.416135
v -0.041051 0.196707 -0.462678
v -0.076954 0.159069 -0.405921
v -0.041051 0.196707 -0.462678
v -0.049682 0.142382 -0.407680
v -0.079472 0.122411 -0.393193
v -0.226137 0.123249 -0.414565
v -0.223610 0.158498 -0.427363
v -0.079472 0.122411 -0.393193
v -0.076954 0.159069 -0.405921
v -0.049682 0.142382 -0.407680
v 0.194270 0.144230 0.561077
v 0.044981 0.192129 0.490993
v 0.190876 0.201325 0.491983
v 0.194270 0.144230 0.561077
v 0.048364 0.135095 0.559097
v 0.044981 0.192129 0.490993
v 0.195385 0.127202 0.594834
v 0.048364 0.135095 0.559097
v 0.194270 0.144230 0.561077
v 0.194270 0.144230 0.561077
v 0.190876 0.201325 0.491983
v 0.223309 0.129982 0.491309
v 0.194270 0.144230 0.561077
v 0.223309 0.129982 0.491309
v 0.221955 0.129191 0.567828
v 0.195385 0.127202 0.594834
v 0.049490 0.118006 0.593844
v 0.048364 0.135095 0.559097
v 0.195385 0.127202 0.594834
v 0.194270 0.144230 0.561077
v 0.221955 0.129191 0.567828
v -0.087124 0.044067 -0.337861
v -0.226137 0.123249 -0.414565
v -0.079472 0.122411 -0.393193
v -0.087124 0.044067 -0.337861
v -0.233779 0.043496 -0.359303
v -0.226137 0.123249 -0.414565
v -0.087632 0.006420 -0.333434
v -0.234288 0.005849 -0.354876
v -0.233779 0.043496 -0.359303
v -0.087632 0.006420 -0.333434
v -0.233779 0.043496 -0.359303
v -0.087124 0.044067 -0.337861
v -0.079472 0.122411 -0.393193
v -0.049682 0.142382 -0.407680
v -0.047541 0.033379 -0.416412
v -0.079472 0.122411 -0.393193
v -0.047541 0.033379 -0.416412
v -0.087124 0.044067 -0.337861
v -0.032980 0.136784 -0.520627
v -0.047541 0.033379 -0.416412
v -0.041051 0.196707 -0.462678
v -0.041051 0.196707 -0.462678
v -0.047541 0.033379 -0.416412
v -0.049682 0.142382 -0.407680
v -0.047541 0.033379 -0.416412
v -0.056684 0.113278 -0.548057
v -0.071554 0.005507 -0.441266
v -0.047541 0.033379 -0.416412
v -0.032980 0.136784 -0.520627
v -0.056684 0.113278 -0.548057
v -0.202674 0.114396 -0.574998
v -0.218210 0.004936 -0.462708
v -0.071554 0.005507 -0.441266
v -0.202674 0.114396 -0.574998
v -0.071554 0.005507 -0.441266
v -0.056684 0.113278 -0.548057
v -0.047541 0.033379 -0.416412
v -0.087632 0.006420 -0.333434
v -0.087124 0.044067 -0.337861
v -0.218210 0.004936 -0.462708
v -0.085241 -0.022254 -0.352986
v -0.071554 0.005507 -0.441266
v -0.234288 0.005849 -0.354876
v -0.085241 -0.022254 -0.352986
v -0.231897 -0.022825 -0.374428
v -0.085241 -0.022254 -0.352986
v -0.047541 0.033379 -0.416412
v -0.071554 0.005507 -0.441266
v -0.047541 0.033379 -0.416412
v -0.085241 -0.022254 -0.352986
v -0.087632 0.006420 -0.333434
v -0.218210 0.004936 -0.462708
v -0.231897 -0.022825 -0.374428
v -0.085241 -0.022254 -0.352986
v -0.234288 0.005849 -0.354876
v -0.087632 0.006420 -0.333434
v -0.085241 -0.022254 -0.352986
v 0.195061 0.108425 0.688153
v 0.049490 0.118006 0.593844
v 0.195385 0.127202 0.594834
v 0.195061 0.108425 0.688153
v 0.049167 0.099229 0.687162
v 0.049490 0.118006 0.593844
v 0.196467 0.084744 0.716534
v 0.050572 0.075548 0.715544
v 0.049167 0.099229 0.687162
v 0.196467 0.084744 0.716534
v 0.049167 0.099229 0.687162
v 0.195061 0.108425 0.688153
v 0.195385 0.127202 0.594834
v 0.221955 0.129191 0.567828
v 0.226679 0.045263 0.635288
v 0.195385 0.127202 0.594834
v 0.226679 0.045263 0.635288
v 0.195061 0.108425 0.688153
v 0.228382 0.048298 0.490301
v 0.226679 0.045263 0.635288
v 0.223309 0.129982 0.491309
v 0.223309 0.129982 0.491309
v 0.226679 0.045263 0.635288
v 0.221955 0.129191 0.567828
v 0.226679 0.045263 0.635288
v 0.203256 0.013102 0.489438
v 0.201606 0.009764 0.639377
v 0.226679 0.045263 0.635288
v 0.228382 0.048298 0.490301
v 0.203256 0.013102 0.489438
v 0.057504 0.000234 0.483253
v 0.055711 0.000568 0.638387
v 0.201606 0.009764 0.639377
v 0.057504 0.000234 0.483253
v 0.201606 0.009764 0.639377
v 0.203256 0.013102 0.489438
v 0.226679 0.045263 0.635288
v 0.196467 0.084744 0.716534
v 0.195061 0.108425 0.688153
v 0.055711 0.000568 0.638387
v 0.199220 0.050520 0.722393
v 0.201606 0.009764 0.639377
v 0.050572 0.075548 0.715544
v 0.199220 0.050520 0.722393
v 0.052332 0.041274 0.721410
v 0.199220 0.050520 0.722393
v 0.226679 0.045263 0.635288
v 0.201606 0.009764 0.639377
v 0.226679 0.045263 0.635288
v 0.199220 0.050520 0.722393
v 0.196467 0.084744 0.716534
v 0.055711 0.000568 0.638387
v 0.052332 0.041274 0.721410
v 0.199220 0.050520 0.722393
v 0.050572 0.075548 0.715544
v 0.196467 0.084744 0.716534
v 0.199220 0.050520 0.722393
v -0.174301 0.294607 -0.702717
v -0.229447 0.283859 -0.578280
v -0.215653 0.261924 -0.675405
v -0.174301 0.294607 -0.702717
v -0.182476 0.370027 -0.644005
v -0.229447 0.283859 -0.578280
v -0.028668 0.284375 -0.548828
v -0.053499 0.369924 -0.625459
v -0.045324 0.294504 -0.684171
v -0.174301 0.294607 -0.702717
v -0.215653 0.261924 -0.675405
v -0.183473 0.236566 -0.701074
v -0.028668 0.284375 -0.548828
v -0.014864 0.261031 -0.646023
v -0.041051 0.196707 -0.462678
v -0.028668 0.284375 -0.548828
v -0.045324 0.294504 -0.684171
v -0.014864 0.261031 -0.646023
v -0.014864 0.261031 -0.646023
v -0.056684 0.113278 -0.548057
v -0.032980 0.136784 -0.520627
v -0.041051 0.196707 -0.462678
v -0.014864 0.261031 -0.646023
v -0.032980 0.136784 -0.520627
v -0.045324 0.294504 -0.684171
v -0.037884 0.236397 -0.679091
v -0.014864 0.261031 -0.646023
v -0.014864 0.261031 -0.646023
v -0.037884 0.236397 -0.679091
v -0.056684 0.113278 -0.548057
v -0.108864 0.260246 -0.713454
v -0.183473 0.236566 -0.701074
v -0.056684 0.113278 -0.548057
v -0.108864 0.260246 -0.713454
v -0.056684 0.113278 -0.548057
v -0.037884 0.236397 -0.679091
v -0.183473 0.236566 -0.701074
v -0.202674 0.114396 -0.574998
v -0.056684 0.113278 -0.548057
v 0.065724 0.040997 0.266902
v 0.023708 0.120628 0.368593
v 0.029428 0.037358 0.312802
v 0.065724 0.040997 0.266902
v 0.059952 0.135213 0.258732
v 0.023708 0.120628 0.368593
v 0.224180 0.133500 0.370219
v 0.188966 0.143561 0.259851
v 0.194737 0.049346 0.268021
v 0.065724 0.040997 0.266902
v 0.029428 0.037358 0.312802
v 0.059092 0.001051 0.309300
v 0.224180 0.133500 0.370219
v 0.229900 0.050230 0.314428
v 0.223309 0.129982 0.491309
v 0.224180 0.133500 0.370219
v 0.194737 0.049346 0.268021
v 0.229900 0.050230 0.314428
v 0.229900 0.050230 0.314428
v 0.203256 0.013102 0.489438
v 0.228382 0.048298 0.490301
v 0.223309 0.129982 0.491309
v 0.229900 0.050230 0.314428
v 0.228382 0.048298 0.490301
v 0.194737 0.049346 0.268021
v 0.204987 0.010247 0.310291
v 0.229900 0.050230 0.314428
v 0.229900 0.050230 0.314428
v 0.204987 0.010247 0.310291
v 0.203256 0.013102 0.489438
v 0.130244 0.006580 0.277062
v 0.059092 0.001051 0.309300
v 0.203256 0.013102 0.489438
v 0.130244 0.006580 0.277062
v 0.203256 0.013102 0.489438
v 0.204987 0.010247 0.310291
v 0.059092 0.001051 0.309300
v 0.057504 0.000234 0.483253
v 0.203256 0.013102 0.489438
v -0.075999 0.281661 -0.414541
v -0.211176 0.364851 -0.514650
v -0.064511 0.364013 -0.493278
v -0.075999 0.281661 -0.414541
v -0.222655 0.281090 -0.435983
v -0.211176 0.364851 -0.514650
v -0.075999 0.281661 -0.414541
v -0.064511 0.364013 -0.493278
v -0.035168 0.324467 -0.503717
v -0.222438 0.248689 -0.437577
v -0.222655 0.281090 -0.435983
v -0.075999 0.281661 -0.414541
v -0.066429 0.380619 -0.543660
v -0.028668 0.284375 -0.548828
v -0.035168 0.324467 -0.503717
v -0.066429 0.380619 -0.543660
v -0.035168 0.324467 -0.503717
v -0.064511 0.364013 -0.493278
v -0.222438 0.248689 -0.437577
v -0.075999 0.281661 -0.414541
v -0.075782 0.249260 -0.416135
v -0.066429 0.380619 -0.543660
v -0.053499 0.369924 -0.625459
v -0.028668 0.284375 -0.548828
v -0.028668 0.284375 -0.548828
v -0.041051 0.196707 -0.462678
v -0.035168 0.324467 -0.503717
v -0.075999 0.281661 -0.414541
v -0.035168 0.324467 -0.503717
v -0.041051 0.196707 -0.462678
v -0.075999 0.281661 -0.414541
v -0.041051 0.196707 -0.462678
v -0.075782 0.249260 -0.416135
v 0.189507 0.225516 0.471586
v 0.044469 0.221341 0.357550
v 0.190364 0.230537 0.358541
v 0.189507 0.225516 0.471586
v 0.043612 0.216320 0.470595
v 0.044469 0.221341 0.357550
v 0.184198 0.207137 0.311461
v 0.220244 0.193017 0.374848
v 0.190364 0.230537 0.358541
v 0.189507 0.225516 0.471586
v 0.190364 0.230537 0.358541
v 0.220244 0.193017 0.374848
v 0.184198 0.207137 0.311461
v 0.188966 0.143561 0.259851
v 0.224180 0.133500 0.370219
v 0.184198 0.207137 0.311461
v 0.224180 0.133500 0.370219
v 0.220244 0.193017 0.374848
v 0.043612 0.216320 0.470595
v 0.190876 0.201325 0.491983
v 0.044981 0.192129 0.490993
v 0.043612 0.216320 0.470595
v 0.189507 0.225516 0.471586
v 0.190876 0.201325 0.491983
v 0.224180 0.133500 0.370219
v 0.223309 0.129982 0.491309
v 0.220244 0.193017 0.374848
v 0.189507 0.225516 0.471586
v 0.220244 0.193017 0.374848
v 0.223309 0.129982 0.491309
v 0.189507 0.225516 0.471586
v 0.223309 0.129982 0.491309
v 0.190876 0.201325 0.491983
v -0.116264 0.396733 -0.661505
v -0.174301 0.294607 -0.702717
v -0.108089 0.321313 -0.720217
v -0.116264 0.396733 -0.661505
v -0.182476 0.370027 -0.644005
v -0.174301 0.294607 -0.702717
v -0.174301 0.294607 -0.702717
v -0.183473 0.236566 -0.701074
v -0.108864 0.260246 -0.713454
v -0.174301 0.294607 -0.702717
v -0.108864 0.260246 -0.713454
v -0.108089 0.321313 -0.720217
v -0.108089 0.321313 -0.720217
v -0.037884 0.236397 -0.679091
v -0.045324 0.294504 -0.684171
v -0.108089 0.321313 -0.720217
v -0.108864 0.260246 -0.713454
v -0.037884 0.236397 -0.679091
v -0.045324 0.294504 -0.684171
v -0.116264 0.396733 -0.661505
v -0.108089 0.321313 -0.720217
v -0.045324 0.294504 -0.684171
v -0.053499 0.369924 -0.625459
v -0.116264 0.396733 -0.661505
v 0.123167 0.139592 0.222532
v 0.065724 0.040997 0.266902
v 0.128938 0.045376 0.230702
v 0.123167 0.139592 0.222532
v 0.059952 0.135213 0.258732
v 0.065724 0.040997 0.266902
v 0.065724 0.040997 0.266902
v 0.059092 0.001051 0.309300
v 0.130244 0.006580 0.277062
v 0.065724 0.040997 0.266902
v 0.130244 0.006580 0.277062
v 0.128938 0.045376 0.230702
v 0.128938 0.045376 0.230702
v 0.204987 0.010247 0.310291
v 0.194737 0.049346 0.268021
v 0.128938 0.045376 0.230702
v 0.130244 0.006580 0.277062
v 0.204987 0.010247 0.310291
v 0.194737 0.049346 0.268021
v 0.188966 0.143561 0.259851
v 0.123167 0.139592 0.222532
v 0.194737 0.049346 0.268021
v 0.123167 0.139592 0.222532
v 0.128938 0.045376 0.230702
v -0.128207 0.407428 -0.579585
v -0.194339 0.381462 -0.562746
v -0.182476 0.370027 -0.644005
v -0.211176 0.364851 -0.514650
v -0.194339 0.381462 -0.562746
v -0.128207 0.407428 -0.579585
v -0.128207 0.407428 -0.579585
v -0.064511 0.364013 -0.493278
v -0.211176 0.364851 -0.514650
v -0.128207 0.407428 -0.579585
v -0.182476 0.370027 -0.644005
v -0.116264 0.396733 -0.661505
v -0.053499 0.369924 -0.625459
v -0.066429 0.380619 -0.543660
v -0.128207 0.407428 -0.579585
v -0.053499 0.369924 -0.625459
v -0.128207 0.407428 -0.579585
v -0.116264 0.396733 -0.661505
v -0.128207 0.407428 -0.579585
v -0.066429 0.380619 -0.543660
v -0.064511 0.364013 -0.493278
v 0.118339 0.204222 0.273212
v 0.056128 0.199832 0.310395
v 0.059952 0.135213 0.258732
v 0.044469 0.221341 0.357550
v 0.056128 0.199832 0.310395
v 0.118339 0.204222 0.273212
v 0.118339 0.204222 0.273212
v 0.190364 0.230537 0.358541
v 0.044469 0.221341 0.357550
v 0.118339 0.204222 0.273212
v 0.059952 0.135213 0.258732
v 0.123167 0.139592 0.222532
v 0.188966 0.143561 0.259851
v 0.184198 0.207137 0.311461
v 0.118339 0.204222 0.273212
v 0.188966 0.143561 0.259851
v 0.118339 0.204222 0.273212
v 0.123167 0.139592 0.222532
v 0.118339 0.204222 0.273212
v 0.184198 0.207137 0.311461
v 0.190364 0.230537 0.358541
v -0.246100 0.510936 -0.175925
v -0.263163 0.609588 -0.072281
v -0.214697 0.603487 -0.058546
v -0.282121 0.550511 -0.218836
v -0.296886 0.650975 -0.122499
v -0.263163 0.609588 -0.072281
v -0.282121 0.550511 -0.218836
v -0.263163 0.609588 -0.072281
v -0.246100 0.510936 -0.175925
v -0.287773 0.694727 -0.186845
v -0.296886 0.650975 -0.122499
v -0.282121 0.550511 -0.218836
v -0.287773 0.694727 -0.186845
v -0.282121 0.550511 -0.218836
v -0.263272 0.601812 -0.262755
v -0.246100 0.510936 -0.175925
v -0.214697 0.603487 -0.058546
v -0.197634 0.504835 -0.162190
v -0.197088 0.739667 -0.251830
v -0.287773 0.694727 -0.186845
v -0.263272 0.601812 -0.262755
v -0.197634 0.504835 -0.162190
v -0.214697 0.603487 -0.058546
v -0.150538 0.632552 -0.081024
v -0.206506 0.292862 -0.419007
v -0.282121 0.550511 -0.218836
v -0.246100 0.510936 -0.175925
v -0.197634 0.504835 -0.162190
v -0.150538 0.632552 -0.081024
v -0.135772 0.532088 -0.177361
v -0.263272 0.601812 -0.262755
v -0.282121 0.550511 -0.218836
v -0.246373 0.322032 -0.474979
v -0.135772 0.532088 -0.177361
v -0.150538 0.632552 -0.081024
v -0.114816 0.672955 -0.137829
v -0.197088 0.739667 -0.251830
v -0.263272 0.601812 -0.262755
v -0.190170 0.661866 -0.306821
v -0.153288 0.286163 -0.403926
v -0.246100 0.510936 -0.175925
v -0.197634 0.504835 -0.162190
v -0.206506 0.292862 -0.419007
v -0.246373 0.322032 -0.474979
v -0.282121 0.550511 -0.218836
v -0.153288 0.286163 -0.403926
v -0.197634 0.504835 -0.162190
v -0.135772 0.532088 -0.177361
v -0.190170 0.661866 -0.306821
v -0.263272 0.601812 -0.262755
v -0.235687 0.368746 -0.547243
v -0.153288 0.286163 -0.403926
v -0.206506 0.292862 -0.419007
v -0.246100 0.510936 -0.175925
v -0.135772 0.532088 -0.177361
v -0.114816 0.672955 -0.137829
v -0.116924 0.583389 -0.221280
v -0.263272 0.601812 -0.262755
v -0.246373 0.322032 -0.474979
v -0.235687 0.368746 -0.547243
v -0.145771 0.733207 -0.237287
v -0.197088 0.739667 -0.251830
v -0.190170 0.661866 -0.306821
v -0.116924 0.583389 -0.221280
v -0.114816 0.672955 -0.137829
v -0.145771 0.733207 -0.237287
v -0.116924 0.583389 -0.221280
v -0.145771 0.733207 -0.237287
v -0.141704 0.655765 -0.293086
v -0.145771 0.733207 -0.237287
v -0.190170 0.661866 -0.306821
v -0.141704 0.655765 -0.293086
v -0.246373 0.322032 -0.474979
v -0.206506 0.292862 -0.419007
v -0.217519 0.255889 -0.462580
v -0.085770 0.301815 -0.429464
v -0.135772 0.532088 -0.177361
v -0.116924 0.583389 -0.221280
v -0.153288 0.286163 -0.403926
v -0.135772 0.532088 -0.177361
v -0.085770 0.301815 -0.429464
v -0.246373 0.322032 -0.474979
v -0.217519 0.255889 -0.462580
v -0.245207 0.278825 -0.512819
v -0.235687 0.368746 -0.547243
v -0.246373 0.322032 -0.474979
v -0.245207 0.278825 -0.512819
v -0.133892 0.245361 -0.438880
v -0.217519 0.255889 -0.462580
v -0.206506 0.292862 -0.419007
v -0.235687 0.368746 -0.547243
v -0.245207 0.278825 -0.512819
v -0.223021 0.332584 -0.589483
v -0.045624 0.344820 -0.493379
v -0.116924 0.583389 -0.221280
v -0.141704 0.655765 -0.293086
v -0.151746 0.421987 -0.606828
v -0.235687 0.368746 -0.547243
v -0.223021 0.332584 -0.589483
v -0.085770 0.301815 -0.429464
v -0.116924 0.583389 -0.221280
v -0.045624 0.344820 -0.493379
v -0.151746 0.421987 -0.606828
v -0.223021 0.332584 -0.589483
v -0.147374 0.387527 -0.659479
v -0.045624 0.344820 -0.493379
v -0.141704 0.655765 -0.293086
v -0.074770 0.412297 -0.585014
v -0.190170 0.661866 -0.306821
v -0.074770 0.412297 -0.585014
v -0.141704 0.655765 -0.293086
v -0.133892 0.245361 -0.438880
v -0.206506 0.292862 -0.419007
v -0.153288 0.286163 -0.403926
v -0.133892 0.245361 -0.438880
v -0.153288 0.286163 -0.403926
v -0.085770 0.301815 -0.429464
v -0.190170 0.661866 -0.306821
v -0.235687 0.368746 -0.547243
v -0.151746 0.421987 -0.606828
v -0.190170 0.661866 -0.306821
v -0.151746 0.421987 -0.606828
v -0.074770 0.412297 -0.585014
v -0.133892 0.245361 -0.438880
v -0.085770 0.301815 -0.429464
v -0.077001 0.257651 -0.465150
v -0.077001 0.257651 -0.465150
v -0.045624 0.344820 -0.493379
v -0.042461 0.309854 -0.538312
v -0.077001 0.257651 -0.465150
v -0.085770 0.301815 -0.429464
v -0.045624 0.344820 -0.493379
v -0.151746 0.421987 -0.606828
v -0.058995 0.376401 -0.634433
v -0.074770 0.412297 -0.585014
v -0.042461 0.309854 -0.538312
v -0.045624 0.344820 -0.493379
v -0.074770 0.412297 -0.585014
v -0.042461 0.309854 -0.538312
v -0.074770 0.412297 -0.585014
v -0.058995 0.376401 -0.634433
v -0.151746 0.421987 -0.606828
v -0.147374 0.387527 -0.659479
v -0.058995 0.376401 -0.634433
v -0.245207 0.278825 -0.512819
v -0.147374 0.387527 -0.659479
v -0.223021 0.332584 -0.589483
v -0.245207 0.278825 -0.512819
v -0.217519 0.255889 -0.462580
v -0.147374 0.387527 -0.659479
v -0.217519 0.255889 -0.462580
v -0.133892 0.245361 -0.438880
v -0.058995 0.376401 -0.634433
v -0.217519 0.255889 -0.462580
v -0.058995 0.376401 -0.634433
v -0.147374 0.387527 -0.659479
v -0.058995 0.376401 -0.634433
v -0.077001 0.257651 -0.465150
v -0.042461 0.309854 -0.538312
v -0.058995 0.376401 -0.634433
v -0.133892 0.245361 -0.438880
v -0.077001 0.257651 -0.465150
v -0.287773 0.694727 -0.186845
v -0.274918 1.035617 -0.133558
v -0.302011 1.015572 -0.046786
v -0.287773 0.694727 -0.186845
v -0.302011 1.015572 -0.046786
v -0.296886 0.650975 -0.122499
v -0.274918 1.035617 -0.133558
v -0.253605 1.359599 -0.066109
v -0.280697 1.339554 0.020664
v -0.274918 1.035617 -0.133558
v -0.280697 1.339554 0.020664
v -0.302011 1.015572 -0.046786
v -0.250127 0.997241 0.015657
v -0.280697 1.339554 0.020664
v -0.228531 1.321332 0.082159
v -0.250127 0.997241 0.015657
v -0.302011 1.015572 -0.046786
v -0.280697 1.339554 0.020664
v -0.250127 0.997241 0.015657
v -0.162009 1.312959 0.101011
v -0.183605 0.988867 0.034510
v -0.250127 0.997241 0.015657
v -0.228531 1.321332 0.082159
v -0.162009 1.312959 0.101011
v -0.170068 1.065486 -0.236783
v -0.253605 1.359599 -0.066109
v -0.274918 1.035617 -0.133558
v -0.183605 0.988867 0.034510
v -0.162009 1.312959 0.101011
v -0.083032 1.314672 0.076682
v -0.183605 0.988867 0.034510
v -0.083032 1.314672 0.076682
v -0.104346 0.990689 0.009232
v -0.170068 1.065486 -0.236783
v -0.144208 1.388369 -0.185861
v -0.253605 1.359599 -0.066109
v -0.083032 1.314672 0.076682
v -0.055939 1.334716 -0.010091
v -0.077253 1.010734 -0.077540
v -0.083032 1.314672 0.076682
v -0.077253 1.010734 -0.077540
v -0.104346 0.990689 0.009232
v -0.103546 1.057112 -0.217931
v -0.170068 1.065486 -0.236783
v -0.197088 0.739667 -0.251830
v -0.263163 0.609588 -0.072281
v -0.250127 0.997241 0.015657
v -0.183605 0.988867 0.034510
v -0.150538 0.632552 -0.081024
v -0.183605 0.988867 0.034510
v -0.104346 0.990689 0.009232
v -0.103546 1.057112 -0.217931
v -0.197088 0.739667 -0.251830
v -0.145771 0.733207 -0.237287
v -0.150538 0.632552 -0.081024
v -0.214697 0.603487 -0.058546
v -0.183605 0.988867 0.034510
v -0.263163 0.609588 -0.072281
v -0.183605 0.988867 0.034510
v -0.214697 0.603487 -0.058546
v -0.055939 1.334716 -0.010091
v -0.103546 1.057112 -0.217931
v -0.077253 1.010734 -0.077540
v -0.055939 1.334716 -0.010091
v -0.077686 1.379995 -0.167009
v -0.103546 1.057112 -0.217931
v -0.077686 1.379995 -0.167009
v -0.144208 1.388369 -0.185861
v -0.170068 1.065486 -0.236783
v -0.077686 1.379995 -0.167009
v -0.170068 1.065486 -0.236783
v -0.103546 1.057112 -0.217931
v -0.104346 0.990689 0.009232
v -0.114816 0.672955 -0.137829
v -0.150538 0.632552 -0.081024
v -0.104346 0.990689 0.009232
v -0.077253 1.010734 -0.077540
v -0.114816 0.672955 -0.137829
v -0.197088 0.739667 -0.251830
v -0.274918 1.035617 -0.133558
v -0.287773 0.694727 -0.186845
v -0.197088 0.739667 -0.251830
v -0.170068 1.065486 -0.236783
v -0.274918 1.035617 -0.133558
v -0.296886 0.650975 -0.122499
v -0.302011 1.015572 -0.046786
v -0.250127 0.997241 0.015657
v -0.077253 1.010734 -0.077540
v -0.145771 0.733207 -0.237287
v -0.114816 0.672955 -0.137829
v -0.077253 1.010734 -0.077540
v -0.103546 1.057112 -0.217931
v -0.145771 0.733207 -0.237287
v -0.296886 0.650975 -0.122499
v -0.250127 0.997241 0.015657
v -0.263163 0.609588 -0.072281
v 0.097544 0.602065 0.443757
v 0.096754 0.701503 0.440779
v 0.147461 0.701881 0.440031
v 0.046164 0.597892 0.397693
v 0.045181 0.712414 0.389430
v 0.096754 0.701503 0.440779
v 0.030084 0.715562 0.312776
v 0.045181 0.712414 0.389430
v 0.046164 0.597892 0.397693
v 0.046164 0.597892 0.397693
v 0.096754 0.701503 0.440779
v 0.097544 0.602065 0.443757
v 0.030084 0.715562 0.312776
v 0.046164 0.597892 0.397693
v 0.045164 0.591688 0.327959
v 0.097544 0.602065 0.443757
v 0.147461 0.701881 0.440031
v 0.148251 0.602444 0.443009
v 0.092184 0.716625 0.209966
v 0.030084 0.715562 0.312776
v 0.045164 0.591688 0.327959
v 0.148251 0.602444 0.443009
v 0.147461 0.701881 0.440031
v 0.198296 0.713556 0.387170
v 0.098331 0.272949 0.464319
v 0.046164 0.597892 0.397693
v 0.097544 0.602065 0.443757
v 0.148251 0.602444 0.443009
v 0.198296 0.713556 0.387170
v 0.199278 0.599034 0.395434
v 0.045164 0.591688 0.327959
v 0.046164 0.597892 0.397693
v 0.041144 0.252686 0.420921
v 0.199278 0.599034 0.395434
v 0.198296 0.713556 0.387170
v 0.211038 0.716912 0.310106
v 0.092184 0.716625 0.209966
v 0.045164 0.591688 0.327959
v 0.094568 0.584400 0.236566
v 0.154009 0.273364 0.463497
v 0.097544 0.602065 0.443757
v 0.148251 0.602444 0.443009
v 0.098331 0.272949 0.464319
v 0.041144 0.252686 0.420921
v 0.046164 0.597892 0.397693
v 0.154009 0.273364 0.463497
v 0.148251 0.602444 0.443009
v 0.199278 0.599034 0.395434
v 0.094568 0.584400 0.236566
v 0.045164 0.591688 0.327959
v 0.025243 0.223669 0.340895
v 0.154009 0.273364 0.463497
v 0.098331 0.272949 0.464319
v 0.097544 0.602065 0.443757
v 0.199278 0.599034 0.395434
v 0.211038 0.716912 0.310106
v 0.198278 0.592830 0.325699
v 0.045164 0.591688 0.327959
v 0.041144 0.252686 0.420921
v 0.025243 0.223669 0.340895
v 0.145873 0.717026 0.209173
v 0.092184 0.716625 0.209966
v 0.094568 0.584400 0.236566
v 0.198278 0.592830 0.325699
v 0.211038 0.716912 0.310106
v 0.145873 0.717026 0.209173
v 0.198278 0.592830 0.325699
v 0.145873 0.717026 0.209173
v 0.145275 0.584778 0.235818
v 0.145873 0.717026 0.209173
v 0.094568 0.584400 0.236566
v 0.145275 0.584778 0.235818
v 0.041144 0.252686 0.420921
v 0.098331 0.272949 0.464319
v 0.080946 0.217718 0.471147
v 0.209172 0.253939 0.418441
v 0.199278 0.599034 0.395434
v 0.198278 0.592830 0.325699
v 0.154009 0.273364 0.463497
v 0.199278 0.599034 0.395434
v 0.209172 0.253939 0.418441
v 0.041144 0.252686 0.420921
v 0.080946 0.217718 0.471147
v 0.037761 0.196434 0.432484
v 0.025243 0.223669 0.340895
v 0.041144 0.252686 0.420921
v 0.037761 0.196434 0.432484
v 0.168439 0.218371 0.469856
v 0.080946 0.217718 0.471147
v 0.098331 0.272949 0.464319
v 0.025243 0.223669 0.340895
v 0.037761 0.196434 0.432484
v 0.030656 0.165767 0.341349
v 0.224092 0.225152 0.337960
v 0.198278 0.592830 0.325699
v 0.145275 0.584778 0.235818
v 0.081651 0.197622 0.242961
v 0.025243 0.223669 0.340895
v 0.030656 0.165767 0.341349
v 0.209172 0.253939 0.418441
v 0.198278 0.592830 0.325699
v 0.224092 0.225152 0.337960
v 0.081651 0.197622 0.242961
v 0.030656 0.165767 0.341349
v 0.076088 0.134776 0.238485
v 0.224092 0.225152 0.337960
v 0.145275 0.584778 0.235818
v 0.162185 0.198223 0.241773
v 0.094568 0.584400 0.236566
v 0.162185 0.198223 0.241773
v 0.145275 0.584778 0.235818
v 0.168439 0.218371 0.469856
v 0.098331 0.272949 0.464319
v 0.154009 0.273364 0.463497
v 0.168439 0.218371 0.469856
v 0.154009 0.273364 0.463497
v 0.209172 0.253939 0.418441
v 0.094568 0.584400 0.236566
v 0.025243 0.223669 0.340895
v 0.081651 0.197622 0.242961
v 0.094568 0.584400 0.236566
v 0.081651 0.197622 0.242961
v 0.162185 0.198223 0.241773
v 0.168439 0.218371 0.469856
v 0.209172 0.253939 0.418441
v 0.213743 0.197746 0.429887
v 0.213743 0.197746 0.429887
v 0.224092 0.225152 0.337960
v 0.219563 0.167176 0.338562
v 0.213743 0.197746 0.429887
v 0.209172 0.253939 0.418441
v 0.224092 0.225152 0.337960
v 0.081651 0.197622 0.242961
v 0.168553 0.135465 0.237120
v 0.162185 0.198223 0.241773
v 0.219563 0.167176 0.338562
v 0.224092 0.225152 0.337960
v 0.162185 0.198223 0.241773
v 0.219563 0.167176 0.338562
v 0.162185 0.198223 0.241773
v 0.168553 0.135465 0.237120
v 0.081651 0.197622 0.242961
v 0.076088 0.134776 0.238485
v 0.168553 0.135465 0.237120
v 0.037761 0.196434 0.432484
v 0.076088 0.134776 0.238485
v 0.030656 0.165767 0.341349
v 0.037761 0.196434 0.432484
v 0.080946 0.217718 0.471147
v 0.076088 0.134776 0.238485
v 0.076088 0.134776 0.238485
v 0.168439 0.218371 0.469856
v 0.168553 0.135465 0.237120
v 0.076088 0.134776 0.238485
v 0.080946 0.217718 0.471147
v 0.168439 0.218371 0.469856
v 0.168553 0.135465 0.237120
v 0.213743 0.197746 0.429887
v 0.219563 0.167176 0.338562
v 0.168553 0.135465 0.237120
v 0.168439 0.218371 0.469856
v 0.213743 0.197746 0.429887
v 0.030084 0.715562 0.312776
v 0.011795 1.033680 0.180716
v 0.012912 1.062186 0.269396
v 0.030084 0.715562 0.312776
v 0.012912 1.062186 0.269396
v 0.045181 0.712414 0.389430
v 0.012912 1.062186 0.269396
v 0.008837 1.373556 0.153346
v 0.077998 1.388982 0.196921
v 0.011795 1.033680 0.180716
v 0.008837 1.373556 0.153346
v 0.012912 1.062186 0.269396
v 0.012912 1.062186 0.269396
v 0.077998 1.388982 0.196921
v 0.082072 1.077612 0.312970
v 0.011795 1.033680 0.180716
v 0.007744 1.344556 0.065983
v 0.008837 1.373556 0.153346
v 0.082072 1.077612 0.312970
v 0.147595 1.389502 0.195893
v 0.151670 1.078131 0.311943
v 0.082072 1.077612 0.312970
v 0.077998 1.388982 0.196921
v 0.147595 1.389502 0.195893
v 0.151670 1.078131 0.311943
v 0.215641 1.375099 0.150295
v 0.219716 1.063728 0.266344
v 0.151670 1.078131 0.311943
v 0.147595 1.389502 0.195893
v 0.215641 1.375099 0.150295
v 0.215641 1.375099 0.150295
v 0.214548 1.346098 0.062931
v 0.218599 1.035223 0.177664
v 0.215641 1.375099 0.150295
v 0.218599 1.035223 0.177664
v 0.219716 1.063728 0.266344
v 0.198296 0.713556 0.387170
v 0.151670 1.078131 0.311943
v 0.219716 1.063728 0.266344
v 0.096754 0.701503 0.440779
v 0.082072 1.077612 0.312970
v 0.151670 1.078131 0.311943
v 0.198296 0.713556 0.387170
v 0.147461 0.701881 0.440031
v 0.151670 1.078131 0.311943
v 0.096754 0.701503 0.440779
v 0.151670 1.078131 0.311943
v 0.147461 0.701881 0.440031
v 0.148289 1.002786 0.048938
v 0.078692 1.002267 0.049965
v 0.092184 0.716625 0.209966
v 0.148289 1.002786 0.048938
v 0.092184 0.716625 0.209966
v 0.145873 0.717026 0.209173
v 0.078692 1.002267 0.049965
v 0.007744 1.344556 0.065983
v 0.011795 1.033680 0.180716
v 0.078692 1.002267 0.049965
v 0.074525 1.302881 -0.077596
v 0.007744 1.344556 0.065983
v 0.045181 0.712414 0.389430
v 0.012912 1.062186 0.269396
v 0.082072 1.077612 0.312970
v 0.214548 1.346098 0.062931
v 0.144122 1.303400 -0.078623
v 0.148289 1.002786 0.048938
v 0.144122 1.303400 -0.078623
v 0.078692 1.002267 0.049965
v 0.148289 1.002786 0.048938
v 0.214548 1.346098 0.062931
v 0.148289 1.002786 0.048938
v 0.218599 1.035223 0.177664
v 0.092184 0.716625 0.209966
v 0.078692 1.002267 0.049965
v 0.011795 1.033680 0.180716
v 0.144122 1.303400 -0.078623
v 0.074525 1.302881 -0.077596
v 0.078692 1.002267 0.049965
v 0.092184 0.716625 0.209966
v 0.011795 1.033680 0.180716
v 0.030084 0.715562 0.312776
v 0.045181 0.712414 0.389430
v 0.082072 1.077612 0.312970
v 0.096754 0.701503 0.440779
v 0.218599 1.035223 0.177664
v 0.148289 1.002786 0.048938
v 0.145873 0.717026 0.209173
v 0.219716 1.063728 0.266344
v 0.218599 1.035223 0.177664
v 0.211038 0.716912 0.310106
v 0.219716 1.063728 0.266344
v 0.211038 0.716912 0.310106
v 0.198296 0.713556 0.387170
v 0.218599 1.035223 0.177664
v 0.145873 0.717026 0.209173
v 0.211038 0.716912 0.310106
v -0.235947 0.323950 -0.533168
v -0.211176 0.364851 -0.514650
v -0.222655 0.281090 -0.435983
v -0.194339 0.381462 -0.562746
v -0.211176 0.364851 -0.514650
v -0.235947 0.323950 -0.533168
v -0.229447 0.283859 -0.578280
v -0.182476 0.370027 -0.644005
v -0.194339 0.381462 -0.562746
v -0.229447 0.283859 -0.578280
v -0.194339 0.381462 -0.562746
v -0.235947 0.323950 -0.533168
v -0.241830 0.196191 -0.492129
v -0.222655 0.281090 -0.435983
v -0.222438 0.248689 -0.437577
v -0.241830 0.196191 -0.492129
v -0.235947 0.323950 -0.533168
v -0.222655 0.281090 -0.435983
v -0.223610 0.158498 -0.427363
v -0.250461 0.141866 -0.437132
v -0.241830 0.196191 -0.492129
v -0.241830 0.196191 -0.492129
v -0.222438 0.248689 -0.437577
v -0.223610 0.158498 -0.427363
v -0.248241 0.033602 -0.446525
v -0.250461 0.141866 -0.437132
v -0.226137 0.123249 -0.414565
v -0.250461 0.141866 -0.437132
v -0.223610 0.158498 -0.427363
v -0.226137 0.123249 -0.414565
v -0.231897 -0.022825 -0.374428
v -0.248241 0.033602 -0.446525
v -0.233779 0.043496 -0.359303
v -0.248241 0.033602 -0.446525
v -0.226137 0.123249 -0.414565
v -0.233779 0.043496 -0.359303
v -0.231897 -0.022825 -0.374428
v -0.218210 0.004936 -0.462708
v -0.248241 0.033602 -0.446525
v -0.231897 -0.022825 -0.374428
v -0.233779 0.043496 -0.359303
v -0.234288 0.005849 -0.354876
v -0.202674 0.114396 -0.574998
v -0.215653 0.261924 -0.675405
v -0.248241 0.033602 -0.446525
v -0.202674 0.114396 -0.574998
v -0.248241 0.033602 -0.446525
v -0.218210 0.004936 -0.462708
v -0.202674 0.114396 -0.574998
v -0.183473 0.236566 -0.701074
v -0.215653 0.261924 -0.675405
v 0.019723 0.181140 0.373283
v 0.044469 0.221341 0.357550
v 0.043612 0.216320 0.470595
v 0.056128 0.199832 0.310395
v 0.044469 0.221341 0.357550
v 0.019723 0.181140 0.373283
v 0.023708 0.120628 0.368593
v 0.059952 0.135213 0.258732
v 0.056128 0.199832 0.310395
v 0.023708 0.120628 0.368593
v 0.056128 0.199832 0.310395
v 0.019723 0.181140 0.373283
v 0.022838 0.117110 0.489683
v 0.043612 0.216320 0.470595
v 0.044981 0.192129 0.490993
v 0.022838 0.117110 0.489683
v 0.019723 0.181140 0.373283
v 0.043612 0.216320 0.470595
v 0.048364 0.135095 0.559097
v 0.022476 0.116369 0.566194
v 0.022838 0.117110 0.489683
v 0.022838 0.117110 0.489683
v 0.044981 0.192129 0.490993
v 0.048364 0.135095 0.559097
v 0.027200 0.032441 0.633655
v 0.022476 0.116369 0.566194
v 0.049490 0.118006 0.593844
v 0.022476 0.116369 0.566194
v 0.048364 0.135095 0.559097
v 0.049490 0.118006 0.593844
v 0.052332 0.041274 0.721410
v 0.027200 0.032441 0.633655
v 0.049167 0.099229 0.687162
v 0.027200 0.032441 0.633655
v 0.049490 0.118006 0.593844
v 0.049167 0.099229 0.687162
v 0.052332 0.041274 0.721410
v 0.055711 0.000568 0.638387
v 0.027200 0.032441 0.633655
v 0.052332 0.041274 0.721410
v 0.049167 0.099229 0.687162
v 0.050572 0.075548 0.715544
v 0.057504 0.000234 0.483253
v 0.029428 0.037358 0.312802
v 0.027200 0.032441 0.633655
v 0.057504 0.000234 0.483253
v 0.027200 0.032441 0.633655
v 0.055711 0.000568 0.638387
v 0.057504 0.000234 0.483253
v 0.059092 0.001051 0.309300
v 0.029428 0.037358 0.312802
# 1008 vertices

vt 0.704590 0.104492
vt 0.999512 0.531250
vt 0.437012 0.004883
vt 0.995605 0.000000
vt 0.695313 0.005859
vt 0.271484 0.955078
vt 0.542969 0.999023
vt 0.149414 0.757813
vt 0.505859 0.368164
vt 0.655762 0.999023
vt 0.993652 0.369141
vt 0.993164 0.996094
vt 0.437500 0.176758
vt 0.977539 0.150391
vt 0.999512 0.124023
vt 0.109375 0.505859
vt 0.843750 0.407227
vt 0.666016 0.404297
vt 0.484375 0.986328
vt 0.822266 1.000000
vt 0.767090 0.369141
vt 0.684570 0.093750
vt 0.000000 0.979492
vt 0.587891 0.393555
vt 0.000488 0.409180
vt 0.015625 0.200195
vt 0.042480 0.175781
vt 0.791504 0.431641
vt 0.639648 0.404297
vt 0.175781 0.876953
vt 0.612793 0.937500
vt 0.459473 0.520508
vt 0.001953 0.609375
vt 0.782715 0.769531
vt 0.482422 0.007813
vt 0.812500 0.024414
vt 0.000000 0.000000
vt 0.485352 0.022461
vt 0.495605 0.729492
vt 0.104004 0.821289
vt 0.083496 0.027344
vt 0.494629 0.999023
vt 0.000000 0.998047
vt 0.898438 0.824219
vt 1.000000 0.977539
vt 0.882813 0.027344
vt 0.509766 0.000000
vt 0.510742 0.586914
vt 0.073730 0.785156
vt 0.074707 0.080078
vt 0.499512 0.920898
vt 0.000000 0.992188
vt 0.928711 0.785156
vt 1.000000 1.000000
vt 0.926758 0.782227
vt 0.904785 0.080078
vt 0.503418 0.297852
vt 0.071777 0.804688
vt 0.073730 0.290039
vt 0.000000 0.027344
vt 1.000000 0.000000
vt 0.517090 0.999023
vt 0.949219 0.780273
vt 0.951172 0.265625
vt 0.503418 0.647461
vt 0.087402 0.716797
vt 0.073730 0.365234
vt 0.000000 0.017578
vt 0.964844 0.699219
vt 0.951172 0.347656
vt 0.000000 0.666504
vt 1.999023 0.000000
vt 0.231445 0.666504
vt 1.999023 0.115234
vt 1.999023 0.326660
vt 0.654297 0.666504
vt 1.999023 0.483887
vt 0.000000 0.146484
vt 0.231445 0.146484
vt 0.885742 0.666504
vt 0.654297 0.146484
vt 0.231445 0.000000
vt 0.654297 0.000000
vt 1.000000 0.146484
vt 0.231445 1.000000
vt 0.654297 1.000000
vt 0.000000 1.000000
vt 0.968750 1.000000
# 88 texture coordinates

vn -0.144169 0.113204 0.983057
vn -0.137666 0.333304 0.932715
vn 0.827852 0.052490 0.558486
vn 0.418106 0.612618 0.670736
vn -0.133316 0.346659 0.928469
vn 0.244787 0.302975 0.921024
vn -0.052768 0.768517 0.637649
vn -0.056558 0.764053 0.642670
vn -0.061863 0.890310 0.451132
vn 0.874079 0.394687 0.283210
vn 0.473968 0.880368 0.017488
vn -0.059415 0.894998 0.442096
vn 0.355504 0.839188 0.411559
vn -0.114161 0.580538 0.806190
vn -0.120732 0.573171 0.810493
vn -0.144114 0.117490 0.982562
vn 0.469468 -0.061339 0.880816
vn 0.884522 0.208382 0.417370
vn 0.990409 -0.000216 0.138168
vn 0.986890 0.006466 0.161262
vn 0.840103 -0.435861 -0.322881
vn 0.829346 -0.450239 -0.330861
vn 0.103234 -0.719349 -0.686935
vn 0.123097 -0.707035 -0.696383
vn 0.894492 0.040293 0.445265
vn 0.046568 -0.954953 -0.293080
vn -0.117093 -0.566137 0.815952
vn 0.786185 -0.613881 -0.071152
vn 0.907198 -0.182746 0.378940
vn -0.063009 0.978446 0.196658
vn -0.052601 0.765486 0.641299
vn 0.585860 0.527498 0.615234
vn 0.916936 0.390566 0.081771
vn 0.998002 0.061821 0.013017
vn 0.997313 0.070910 0.018381
vn 0.816591 -0.577204 -0.003864
vn 0.813914 -0.580980 -0.002601
vn 0.062887 -0.998016 0.002875
vn 0.088817 -0.995822 -0.021192
vn 0.932971 0.297767 0.202235
vn 0.053467 -0.895763 0.441305
vn -0.017159 0.167811 0.985670
vn 0.798336 -0.531185 0.283727
vn 0.948271 0.126150 0.291321
vn -0.696768 0.672047 -0.250735
vn -0.902060 0.199978 -0.382487
vn 0.976351 0.188390 -0.106057
vn -0.587731 0.070059 -0.806017
vn 0.990019 -0.001351 0.140930
vn 0.764327 0.643191 -0.045927
vn 0.829001 -0.452521 -0.328607
vn 0.990074 -0.002538 0.140522
vn 0.801612 0.050560 -0.595703
vn 0.859406 -0.428350 -0.279172
vn 0.116888 -0.723805 -0.680032
vn 0.081388 -0.732158 -0.676255
vn 0.120207 -0.722023 -0.681346
vn -0.753067 0.329737 -0.569353
vn -0.942719 -0.085709 -0.322390
vn 0.953036 0.032263 -0.301134
vn -0.664998 -0.488868 -0.564612
vn 0.998003 0.062528 0.008995
vn 0.719456 0.420024 -0.553139
vn 0.813879 -0.581035 0.000642
vn 0.733959 -0.400570 -0.548496
vn 0.847836 -0.529998 0.016639
vn 0.079025 -0.996867 0.003446
vn 0.041755 -0.998995 0.016324
vn 0.088107 -0.996103 -0.003874
vn -0.099810 0.694853 0.712192
vn -0.107554 0.688415 0.717298
vn 0.740048 0.407976 0.534682
vn -0.144301 -0.049588 0.988291
vn 0.909358 0.367277 -0.195385
vn 0.812511 0.562140 0.154350
vn 0.928076 0.358771 0.099795
vn 0.989801 0.000181 0.142458
vn 0.883985 0.105588 0.455435
vn 0.787453 -0.025027 0.615866
vn -0.063143 0.997043 0.043806
vn 0.801296 0.487264 -0.347128
vn 0.774562 0.631587 0.033925
vn 0.920096 0.286142 -0.267481
vn 0.874288 0.094844 -0.476051
vn -0.045686 0.642440 0.764973
vn 0.997826 0.065283 0.009074
vn 0.917308 0.359783 0.170593
vn 0.839006 0.377718 0.391661
vn -0.410350 0.532068 -0.740619
vn -0.163023 -0.002168 -0.986620
vn -0.214384 -0.104826 -0.971108
vn 0.493867 -0.012776 -0.869444
vn 0.404293 -0.105745 -0.908496
vn 0.580686 0.538363 -0.610712
vn -0.488704 -0.105040 -0.866104
vn -0.256711 -0.683087 -0.683734
vn -0.297084 -0.736374 -0.607860
vn 0.416879 -0.614656 -0.669634
vn 0.309178 -0.725017 -0.615434
vn 0.494893 -0.044938 -0.867791
vn -0.399578 0.897902 -0.184689
vn -0.310055 0.926878 0.211575
vn -0.065963 0.871006 0.486823
vn -0.407942 0.895800 -0.176423
vn 0.422615 0.904845 -0.051502
vn 0.419703 0.905865 -0.057077
vn 0.229666 0.926920 0.296771
vn -0.460216 0.537625 -0.706513
vn -0.332036 0.824511 -0.458184
vn -0.059260 0.966903 -0.248167
vn -0.448624 0.530489 -0.719248
vn 0.381924 0.599577 -0.703307
vn 0.371102 0.590007 -0.717059
vn 0.227438 0.859822 -0.457141
vn -0.271781 -0.719020 0.639645
vn -0.880558 -0.389011 0.270718
vn -0.843263 -0.451787 0.291199
vn -0.989457 -0.006686 -0.144676
vn -0.934837 0.041585 -0.352633
vn -0.655108 0.366861 -0.660489
vn 0.491548 -0.588944 0.641503
vn -0.841169 -0.463410 0.278722
vn 0.428216 -0.591879 0.682869
vn -0.957840 0.134656 -0.253791
vn 0.889595 -0.241191 0.387876
vn -0.685708 0.378481 -0.621736
vn -0.268290 -0.738383 0.618717
vn -0.810612 -0.488627 0.322724
vn 0.434707 -0.626749 0.646696
vn -0.710773 0.508783 -0.485738
vn 0.963100 -0.195259 0.185238
vn -0.991638 0.034444 -0.124371
vn 0.289694 0.569486 -0.769262
vn 0.965701 0.164475 -0.200923
vn 0.971706 0.169528 -0.164460
vn -0.844738 -0.283403 0.453983
vn 0.952566 -0.105629 0.285413
vn 0.397501 -0.636889 0.660580
vn -0.883637 -0.321717 0.340122
vn -0.992374 0.064963 -0.104752
vn -0.275292 -0.697587 0.661504
vn -0.959349 -0.006446 -0.282150
vn 0.951653 0.306562 -0.019417
vn -0.688198 0.436173 -0.579772
vn 0.885294 -0.209141 0.415349
vn -0.751980 0.521208 -0.403569
vn 0.942702 0.328577 -0.057888
vn 0.261854 0.769858 -0.582023
vn 0.405515 -0.475839 0.780471
vn -0.688547 0.520823 -0.504625
vn 0.449307 -0.505816 0.736392
vn 0.932143 -0.251023 0.260955
vn 0.882661 -0.176673 0.435541
vn 0.249340 0.819645 -0.515764
vn 0.961149 0.246519 -0.124180
vn 0.943030 0.326524 0.063849
vn 0.087528 -0.827348 -0.554828
vn 0.197676 -0.846004 -0.495178
vn 0.048405 -0.838233 -0.543159
vn 0.026982 -0.819709 -0.572145
vn -0.091970 -0.810565 -0.578383
vn -0.956604 0.079878 -0.280229
vn -0.991251 0.013336 -0.131316
vn -0.955253 0.119199 -0.270710
vn -0.771551 -0.078138 0.631351
vn -0.777981 -0.078595 0.623352
vn -0.288720 -0.173945 0.941480
vn -0.715725 0.187160 -0.672837
vn 0.291955 -0.210877 0.932895
vn 0.301304 -0.213306 0.929363
vn -0.747628 0.161474 -0.644188
vn 0.955248 -0.119205 0.270722
vn 0.275107 0.021574 -0.961171
vn -0.290526 -0.202382 0.935220
vn 0.298242 -0.269244 0.915729
vn 0.417536 -0.244973 0.875016
vn 0.981111 -0.024600 -0.191873
vn 0.986757 -0.054962 -0.152613
vn 0.285215 0.126984 -0.950015
vn 0.888449 -0.216573 0.404665
vn 0.952841 -0.152763 0.262217
vn -0.622508 0.143730 -0.769302
vn -0.711710 0.091189 -0.696529
vn -0.781299 -0.137416 0.608842
vn 0.945225 -0.047472 -0.322949
vn 0.969147 -0.113258 -0.218921
vn -0.858425 -0.085850 0.505704
vn 0.014522 0.030045 0.999443
vn -0.699997 0.045414 0.712701
vn -0.981093 0.005537 0.193456
vn -0.668205 0.016966 0.743783
vn -0.992727 -0.117821 0.024721
vn -0.843431 -0.165329 -0.511165
vn 0.717594 0.026545 0.695955
vn -0.668882 0.044759 0.742020
vn 0.682854 0.058404 0.728217
vn -0.999797 0.015412 0.012969
vn 0.986259 0.020288 0.163955
vn -0.878030 -0.109556 -0.465898
vn 0.014253 0.062380 0.997951
vn -0.617153 0.061756 0.784416
vn 0.682858 0.057291 0.728301
vn -0.878252 0.030765 -0.477208
vn 0.994676 -0.102929 -0.005106
vn -0.982992 0.059318 0.173807
vn -0.013005 -0.197430 -0.980231
vn 0.830182 -0.152749 -0.536159
vn 0.860745 -0.104277 -0.498242
vn -0.641614 0.289760 0.710191
vn 0.999480 0.027537 -0.016782
vn 0.645575 0.069214 0.760554
vn -0.704332 0.183326 0.685791
vn -0.982504 0.092333 0.161740
vn 0.013767 0.118414 0.992869
vn -0.989910 -0.091691 0.108030
vn 0.858873 0.043281 -0.510357
vn -0.873028 -0.085376 -0.480138
vn 0.984954 0.074354 0.156001
vn -0.896546 0.109922 -0.429096
vn 0.836945 0.028193 -0.546560
vn -0.014629 -0.016042 -0.999764
vn 0.663966 0.255484 0.702763
vn -0.863985 0.020536 -0.503098
vn 0.697520 0.197067 0.688934
vn 0.993082 -0.076655 0.088947
vn 0.983637 0.109201 0.143292
vn -0.015252 0.072391 -0.997260
vn 0.847740 -0.071681 -0.525546
vn 0.870500 0.123648 -0.476383
vn 0.064208 -0.947325 0.313770
vn 0.164643 -0.930164 0.328158
vn 0.011972 -0.941946 0.335550
vn -0.037053 -0.948340 0.315085
vn -0.131711 -0.933829 0.332588
vn -0.998564 -0.046043 0.027378
vn -0.981047 -0.024546 0.192211
vn -0.555665 0.283965 0.781409
vn -0.999859 -0.007494 0.015003
vn 0.011221 0.349346 0.936927
vn 0.574295 0.292490 0.764614
vn 0.999859 0.007494 -0.014997
vn 0.574935 0.235230 0.783656
vn 0.011567 0.322132 0.946624
vn 0.675327 0.230898 0.700442
vn -0.009225 -0.489011 -0.872229
vn -0.893516 -0.165672 -0.417351
vn -0.911391 -0.171399 -0.374151
vn -0.554791 0.223812 0.801321
vn 0.902256 -0.157778 -0.401299
vn -0.010669 -0.390725 -0.920446
vn 0.883023 -0.152329 -0.443921
vn -0.883537 -0.259962 -0.389592
vn -0.826317 -0.255802 -0.501763
vn -0.665377 0.216772 0.714341
vn 0.875948 -0.241553 -0.417574
vn 0.999664 -0.025565 -0.004374
vn 0.986625 -0.004126 0.162952
vn 0.815728 -0.238618 -0.526924
vn -0.870806 0.394663 0.293153
vn -0.830024 0.548481 -0.101139
vn -0.915206 0.358497 -0.184059
vn -0.819125 0.365061 -0.442453
vn -0.934548 -0.023725 0.355044
vn -0.978475 0.102576 0.179065
vn -0.577900 0.624137 0.525817
vn -0.954351 0.045825 0.295152
vn -0.708597 -0.075400 0.701574
vn -0.495577 0.327590 0.804418
vn -0.983077 -0.066796 0.170579
vn -0.971837 0.189855 0.139602
vn -0.738400 -0.602052 -0.303808
vn -0.992734 -0.000727 -0.120328
vn -0.736131 -0.423888 -0.527665
vn -0.716017 -0.447775 -0.535553
vn -0.744637 -0.419083 -0.519505
vn -0.848475 0.528960 0.017063
vn -0.846811 0.372772 -0.379410
vn -0.941784 0.174187 -0.287578
vn -0.863023 -0.017704 -0.504855
vn -0.894426 0.257622 0.365558
vn -0.961018 0.230585 0.152559
vn -0.585167 0.810897 0.005085
vn -0.924604 0.268188 0.270524
vn -0.650934 0.453001 0.609159
vn -0.461000 0.790298 0.403618
vn -0.958881 0.103742 0.264170
vn -0.960250 0.274280 0.051865
vn -0.736761 -0.618478 0.273253
vn -0.998721 -0.049958 0.007757
vn -0.762674 -0.646604 -0.015205
vn -0.744773 -0.667279 -0.007171
vn -0.774828 -0.632092 -0.010043
# 292 normals

g shoes
usemtl Material08
s 1
f 43/6/14 45/7/14 44/7/14
f 46/6/15 48/7/15 47/6/15
f 49/8/16 51/6/16 50/8/16
f 52/8/16 54/6/16 53/6/16
f 55/7/17 57/9/17 56/10/17
f 58/7/18 60/6/18 59/9/18
f 61/11/19 63/12/19 62/9/19
f 64/12/20 66/10/20 65/9/20
f 67/9/21 69/13/21 68/14/21
f 70/9/22 72/14/22 71/11/22
f 73/15/23 75/13/23 74/13/23
f 76/15/24 78/14/24 77/13/24
f 79/9/25 81/6/25 80/8/25
f 82/13/26 84/13/26 83/16/26
f 85/8/27 87/16/27 86/16/27
f 88/16/28 90/13/28 89/9/28
f 91/9/29 93/8/29 92/16/29
f 94/13/26 96/16/26 95/16/26
f 97/8/27 99/16/27 98/8/27
f 100/6/30 102/7/30 101/7/30
f 103/6/30 105/7/30 104/6/30
f 106/8/31 108/6/31 107/8/31
f 109/8/31 111/6/31 110/6/31
f 112/7/32 114/9/32 113/10/32
f 115/7/33 117/6/33 116/9/33
f 118/11/34 120/12/34 119/9/34
f 121/12/35 123/10/35 122/9/35
f 124/9/36 126/13/36 125/14/36
f 127/9/37 129/14/37 128/11/37
f 130/15/38 132/13/38 131/13/38
f 133/15/39 135/14/39 134/13/39
f 136/9/40 138/6/40 137/8/40
f 139/13/41 141/13/41 140/16/41
f 142/8/42 144/16/42 143/16/42
f 145/16/43 147/13/43 146/9/43
f 148/9/44 150/8/44 149/16/44
f 151/13/41 153/16/41 152/16/41
f 154/8/42 156/16/42 155/8/42
# 38 triangles in group

g shoes_2
usemtl Material09
f 157/17/45 159/18/45 158/19/45
f 160/17/46 162/19/46 161/20/46
f 163/19/47 165/21/47 164/20/47
f 166/17/48 168/22/48 167/18/48
f 169/19/49 171/23/49 170/24/49
f 172/19/50 174/24/50 173/21/50
f 175/24/51 177/25/51 176/26/51
f 178/23/52 180/25/52 179/24/52
f 181/21/53 183/24/53 182/22/53
f 184/24/54 186/26/54 185/22/54
f 187/27/55 189/22/55 188/27/55
f 190/27/56 192/22/56 191/22/56
f 193/27/57 195/22/57 194/27/57
f 196/28/58 198/29/58 197/19/58
f 199/28/59 201/19/59 200/20/59
f 202/19/60 204/28/60 203/20/60
f 205/28/61 207/22/61 206/29/61
f 208/19/62 210/23/62 209/29/62
f 211/19/63 213/29/63 212/28/63
f 214/29/64 216/25/64 215/26/64
f 217/23/62 219/25/62 218/29/62
f 220/28/65 222/29/65 221/22/65
f 223/29/66 225/26/66 224/22/66
f 226/27/67 228/22/67 227/27/67
f 229/27/68 231/22/68 230/22/68
f 232/27/69 234/22/69 233/27/69
# 26 triangles in group

g shoes_3
usemtl Material10
f 301/38/89 303/39/89 302/40/89
f 304/38/89 306/40/89 305/41/89
f 307/40/90 309/42/90 308/43/90
f 310/40/91 312/39/91 311/42/91
f 313/39/92 315/44/92 314/45/92
f 316/39/93 318/45/93 317/42/93
f 319/44/94 321/39/94 320/38/94
f 322/44/94 324/38/94 323/46/94
f 325/47/95 327/48/95 326/49/95
f 328/47/95 330/49/95 329/50/95
f 331/49/96 333/51/96 332/52/96
f 334/49/97 336/48/97 335/51/97
f 337/48/98 339/53/98 338/54/98
f 340/48/99 342/54/99 341/51/99
f 343/55/100 345/47/100 344/56/100
f 346/55/100 348/48/100 347/47/100
# 16 triangles in group

g shoes_4
usemtl Material11
f 1/1/1 3/2/1 2/2/1
f 4/1/1 6/2/1 5/1/1
f 7/3/2 9/1/2 8/1/2
f 10/1/3 12/4/3 11/2/3
f 13/1/4 15/5/4 14/4/4
f 16/3/5 18/1/5 17/3/5
f 19/3/6 21/5/6 20/1/6
f 22/1/7 24/2/7 23/2/7
f 25/1/8 27/2/8 26/1/8
f 28/3/9 30/1/9 29/1/9
f 31/1/10 33/4/10 32/2/10
f 34/1/11 36/5/11 35/4/11
f 37/3/12 39/1/12 38/3/12
f 40/3/13 42/5/13 41/1/13
# 14 triangles in group

g shoes_5
usemtl Material12
f 235/30/70 237/31/70 236/31/70
f 238/30/71 240/31/71 239/30/71
f 241/30/72 243/32/72 242/31/72
f 244/33/73 246/30/73 245/30/73
f 247/34/74 249/32/74 248/35/74
f 250/34/75 252/31/75 251/32/75
f 253/33/73 255/33/73 254/30/73
f 256/34/76 258/35/76 257/36/76
f 259/35/77 261/32/77 260/37/77
f 262/30/78 264/37/78 263/32/78
f 265/30/79 267/33/79 266/37/79
f 268/30/80 270/31/80 269/31/80
f 271/30/80 273/31/80 272/30/80
f 274/34/81 276/31/81 275/32/81
f 277/30/82 279/32/82 278/31/82
f 280/34/83 282/35/83 281/36/83
f 283/34/84 285/32/84 284/35/84
f 286/30/85 288/33/85 287/33/85
f 289/30/85 291/33/85 290/30/85
f 292/35/86 294/32/86 293/37/86
f 295/30/87 297/37/87 296/32/87
f 298/30/88 300/33/88 299/37/88
# 22 triangles in group

g shoes_6
usemtl Material13
f 349/57/101 351/58/101 350/59/101
f 352/60/102 354/57/102 353/59/102
f 355/57/103 357/60/103 356/61/103
f 358/57/104 360/62/104 359/58/104
f 361/63/105 363/57/105 362/64/105
f 364/63/106 366/62/106 365/57/106
f 367/57/107 369/61/107 368/64/107
f 370/65/108 372/66/108 371/67/108
f 373/68/109 375/65/109 374/67/109
f 376/65/110 378/68/110 377/61/110
f 379/65/111 381/62/111 380/66/111
f 382/69/112 384/65/112 383/70/112
f 385/69/113 387/62/113 386/65/113
f 388/65/114 390/61/114 389/70/114
# 14 triangles in group

g pants
usemtl Material14
f 391/71/115 393/72/115 392/72/115
f 394/73/116 396/72/116 395/74/116
f 397/73/117 399/71/117 398/72/117
f 400/75/118 402/73/118 401/74/118
f 403/75/119 405/76/119 404/73/119
f 406/71/115 408/71/115 407/72/115
f 409/77/120 411/76/120 410/75/120
f 412/71/121 414/74/121 413/72/121
f 415/78/122 417/71/122 416/73/122
f 418/71/123 420/73/123 419/74/123
f 421/76/124 423/79/124 422/73/124
f 424/73/125 426/75/125 425/74/125
f 427/77/126 429/80/126 428/76/126
f 430/78/127 432/71/127 431/71/127
f 433/78/128 435/73/128 434/79/128
f 436/78/129 438/73/129 437/71/129
f 439/80/130 441/81/130 440/76/130
f 442/78/127 444/71/127 443/78/127
f 445/73/131 447/76/131 446/75/131
f 448/76/132 450/81/132 449/79/132
f 451/77/133 453/80/133 452/77/133
f 454/76/134 456/77/134 455/75/134
f 457/76/135 459/80/135 458/77/135
f 460/77/133 462/80/133 461/80/133
f 463/79/136 465/37/136 464/78/136
f 466/79/137 468/76/137 467/73/137
f 469/78/138 471/79/138 470/73/138
f 472/79/139 474/82/139 473/37/139
f 475/81/140 477/82/140 476/79/140
f 478/37/141 480/78/141 479/37/141
f 481/81/142 483/83/142 482/82/142
f 484/81/143 486/80/143 485/76/143
f 487/84/144 489/83/144 488/81/144
f 490/79/145 492/81/145 491/76/145
f 493/84/146 495/61/146 494/83/146
f 496/81/147 498/84/147 497/80/147
f 499/80/148 501/80/148 500/84/148
f 502/37/141 504/78/141 503/78/141
f 505/37/149 507/79/149 506/78/149
f 508/80/150 510/84/150 509/81/150
f 511/80/148 513/84/148 512/84/148
f 514/37/151 516/82/151 515/79/151
f 517/82/152 519/83/152 518/81/152
f 520/82/153 522/81/153 521/79/153
f 523/84/154 525/84/154 524/61/154
f 526/83/155 528/84/155 527/81/155
f 529/83/156 531/61/156 530/84/156
f 532/84/154 534/61/154 533/61/154
f 535/82/157 537/83/157 536/61/157
f 538/82/158 540/61/158 539/37/158
f 541/37/159 543/61/159 542/37/159
f 544/37/159 546/61/159 545/61/159
f 547/61/160 549/83/160 548/82/160
f 550/61/161 552/82/161 551/37/161
f 553/81/162 555/73/162 554/76/162
f 556/81/163 558/79/163 557/73/163
f 559/76/164 561/85/164 560/86/164
f 562/76/164 564/73/164 563/85/164
f 565/71/165 567/87/165 566/85/165
f 568/71/166 570/85/166 569/73/166
f 571/71/167 573/71/167 572/87/167
f 574/71/167 576/87/167 575/87/167
f 577/80/168 579/76/168 578/86/168
f 580/71/169 582/85/169 581/87/169
f 583/71/170 585/73/170 584/85/170
f 586/80/171 588/86/171 587/88/171
f 589/85/172 591/76/172 590/86/172
f 592/85/172 594/73/172 593/76/172
f 595/80/173 597/84/173 596/80/173
f 598/78/174 600/71/174 599/71/174
f 601/79/175 603/73/175 602/71/175
f 604/80/173 606/84/173 605/84/173
f 607/79/176 609/71/176 608/78/176
f 610/78/174 612/78/174 611/71/174
f 613/86/177 615/76/177 614/80/177
f 616/86/178 618/80/178 617/88/178
f 619/88/179 621/80/179 620/88/179
f 622/88/179 624/80/179 623/80/179
f 625/73/180 627/79/180 626/81/180
f 628/73/181 630/81/181 629/76/181
f 631/84/182 633/81/182 632/76/182
f 634/84/183 636/76/183 635/80/183
f 637/79/184 639/71/184 638/73/184
f 640/76/185 642/81/185 641/84/185
f 643/76/186 645/84/186 644/80/186
f 646/79/187 648/78/187 647/71/187
f 649/71/188 651/72/188 650/72/188
f 652/73/189 654/72/189 653/74/189
f 655/75/190 657/73/190 656/74/190
f 658/73/191 660/71/191 659/72/191
f 661/75/192 663/76/192 662/73/192
f 664/71/188 666/71/188 665/72/188
f 667/77/193 669/76/193 668/75/193
f 670/71/194 672/74/194 671/72/194
f 673/78/195 675/71/195 674/73/195
f 676/71/196 678/73/196 677/74/196
f 679/76/197 681/79/197 680/73/197
f 682/73/198 684/75/198 683/74/198
f 685/77/199 687/80/199 686/76/199
f 688/78/200 690/71/200 689/71/200
f 691/78/201 693/73/201 692/79/201
f 694/78/202 696/73/202 695/71/202
f 697/80/203 699/81/203 698/76/203
f 700/78/200 702/71/200 701/78/200
f 703/73/204 705/76/204 704/75/204
f 706/76/205 708/81/205 707/79/205
f 709/77/206 711/80/206 710/77/206
f 712/76/207 714/77/207 713/75/207
f 715/76/208 717/80/208 716/77/208
f 718/77/206 720/80/206 719/80/206
f 721/79/209 723/37/209 722/78/209
f 724/79/210 726/76/210 725/73/210
f 727/78/211 729/79/211 728/73/211
f 730/79/212 732/82/212 731/37/212
f 733/81/213 735/82/213 734/79/213
f 736/37/214 738/78/214 737/37/214
f 739/81/215 741/83/215 740/82/215
f 742/81/216 744/80/216 743/76/216
f 745/84/217 747/83/217 746/81/217
f 748/79/218 750/81/218 749/76/218
f 751/84/219 753/61/219 752/83/219
f 754/81/220 756/84/220 755/80/220
f 757/80/221 759/80/221 758/84/221
f 760/37/214 762/78/214 761/78/214
f 763/37/222 765/79/222 764/78/222
f 766/80/223 768/84/223 767/81/223
f 769/80/221 771/84/221 770/84/221
f 772/37/224 774/82/224 773/79/224
f 775/82/225 777/83/225 776/81/225
f 778/82/226 780/81/226 779/79/226
f 781/84/227 783/84/227 782/61/227
f 784/83/228 786/84/228 785/81/228
f 787/83/229 789/61/229 788/84/229
f 790/84/227 792/61/227 791/61/227
f 793/82/230 795/83/230 794/61/230
f 796/82/231 798/61/231 797/37/231
f 799/61/232 801/61/232 800/37/232
f 802/61/232 804/37/232 803/37/232
f 805/61/233 807/83/233 806/82/233
f 808/61/234 810/82/234 809/37/234
f 811/81/235 813/73/235 812/76/235
f 814/81/236 816/79/236 815/73/236
f 817/73/237 819/87/237 818/85/237
f 820/76/238 822/73/238 821/85/238
f 823/73/237 825/71/237 824/87/237
f 826/76/238 828/85/238 827/86/238
f 829/71/239 831/71/239 830/87/239
f 832/71/239 834/87/239 833/87/239
f 835/71/240 837/73/240 836/85/240
f 838/71/240 840/85/240 839/87/240
f 841/85/241 843/76/241 842/86/241
f 844/85/241 846/73/241 845/76/241
f 847/79/242 849/73/242 848/71/242
f 850/78/243 852/71/243 851/71/243
f 853/79/244 855/71/244 854/78/244
f 856/78/243 858/78/243 857/71/243
f 859/80/245 861/84/245 860/80/245
f 862/80/245 864/84/245 863/84/245
f 865/80/246 867/76/246 866/86/246
f 868/80/247 870/86/247 869/88/247
f 871/79/248 873/71/248 872/73/248
f 874/86/249 876/80/249 875/88/249
f 877/88/250 879/80/250 878/80/250
f 880/86/251 882/76/251 881/80/251
f 883/84/252 885/76/252 884/80/252
f 886/88/250 888/80/250 887/88/250
f 889/84/253 891/81/253 890/76/253
f 892/79/254 894/78/254 893/71/254
f 895/76/255 897/84/255 896/80/255
f 898/73/256 900/81/256 899/76/256
f 901/73/257 903/79/257 902/81/257
f 904/76/258 906/81/258 905/84/258
# 172 triangles in group

g Regroup07
f 907/87/259 909/87/259 908/87/259
f 910/87/260 912/87/260 911/87/260
f 913/87/261 915/87/261 914/87/261
f 916/87/262 918/87/262 917/87/262
f 919/87/263 921/87/263 920/87/263
f 922/87/264 924/87/264 923/87/264
f 925/87/265 927/87/265 926/87/265
f 928/87/266 930/87/266 929/87/266
f 931/87/267 933/87/267 932/87/267
f 934/87/268 936/87/268 935/87/268
f 937/87/269 939/87/269 938/87/269
f 940/87/270 942/87/270 941/87/270
f 943/87/271 945/87/271 944/87/271
f 946/87/272 948/87/272 947/87/272
f 949/87/273 951/87/273 950/87/273
f 952/87/274 954/87/274 953/87/274
f 955/87/275 957/87/275 956/87/275
f 958/87/276 960/87/276 959/87/276
f 961/87/277 963/87/277 962/87/277
f 964/87/278 966/87/278 965/87/278
f 967/87/279 969/87/279 968/87/279
f 970/87/280 972/87/280 971/87/280
f 973/87/281 975/87/281 974/87/281
f 976/87/282 978/87/282 977/87/282
f 979/87/283 981/87/283 980/87/283
f 982/87/284 984/87/284 983/87/284
f 985/87/285 987/87/285 986/87/285
f 988/87/286 990/87/286 989/87/286
f 991/87/287 993/87/287 992/87/287
f 994/87/288 996/87/288 995/87/288
f 997/87/289 999/87/289 998/87/289
f 1000/87/290 1002/87/290 1001/87/290
f 1003/87/291 1005/87/291 1004/87/291
f 1006/87/292 1008/87/292 1007/87/292
# 34 triangles in group

# 336 triangles total

