# 3ds Max Wavefront OBJ Exporter v0.97b - (c)2007 guruware
# File Created: 28.09.2018 19:50:25

mtllib revival.mtl

#
# object Nemu_220A67BA_0_080
#

v  -0.2420 0.1500 0.0000
v  -0.1210 0.3300 -0.2090
v  -0.1210 0.1500 -0.2090
v  -0.2420 0.3300 0.0000
# 4 vertices

vn -0.8654 0.0000 -0.5010
# 1 vertex normals

vt 0.0000 0.0000 0.0000
vt 0.2461 0.9900 0.0000
vt 0.2461 0.0000 0.0000
vt 0.0000 0.9900 0.0000
# 4 texture coords

g Nemu_220A67BA_0_080
usemtl Material__361
s 1
f 1/1/1 2/2/1 3/3/1 
f 1/1/1 4/4/1 2/2/1 
# 0 polygons - 2 triangles

#
# object Nemu_220A67BA_0_079
#

v  -0.1210 0.3300 -0.2090
v  0.1210 0.1500 -0.2090
v  -0.1210 0.1500 -0.2090
v  0.1210 0.3300 -0.2090
# 4 vertices

vn 0.0000 0.0000 -1.0000
# 1 vertex normals

vt 0.2461 0.9900 0.0000
vt 0.7500 0.0000 0.0000
vt 0.2461 0.0000 0.0000
vt 0.7500 0.9900 0.0000
# 4 texture coords

g Nemu_220A67BA_0_079
usemtl Material__361
s 1
f 5/5/2 6/6/2 7/7/2 
f 5/5/2 8/8/2 6/6/2 
# 0 polygons - 2 triangles

#
# object Nemu_220A67BA_0_078
#

v  -0.1210 0.1500 0.2090
v  -0.2420 0.3300 0.0000
v  -0.2420 0.1500 0.0000
v  -0.1210 0.3300 0.2090
# 4 vertices

vn -0.8654 -0.0000 0.5010
# 1 vertex normals

vt 0.2500 0.0000 0.0000
vt 0.0000 0.9900 0.0000
vt 0.0000 0.0000 0.0000
vt 0.2500 0.9900 0.0000
# 4 texture coords

g Nemu_220A67BA_0_078
usemtl Material__361
s 1
f 9/9/3 10/10/3 11/11/3 
f 9/9/3 12/12/3 10/10/3 
# 0 polygons - 2 triangles

#
# object Nemu_220A67BA_0_077
#

v  0.1210 0.1500 0.2090
v  -0.1210 0.3300 0.2090
v  -0.1210 0.1500 0.2090
v  0.1210 0.3300 0.2090
# 4 vertices

vn 0.0000 -0.0000 1.0000
# 1 vertex normals

vt 0.7500 0.0000 0.0000
vt 0.2500 0.9900 0.0000
vt 0.2500 0.0000 0.0000
vt 0.7500 0.9900 0.0000
# 4 texture coords

g Nemu_220A67BA_0_077
usemtl Material__361
s 1
f 13/13/4 14/14/4 15/15/4 
f 13/13/4 16/16/4 14/14/4 
# 0 polygons - 2 triangles

#
# object Nemu_220A67BA_0_076
#

v  0.1210 0.1500 -0.2090
v  0.2420 0.3300 0.0000
v  0.2420 0.1500 0.0000
v  0.1210 0.3300 -0.2090
# 4 vertices

vn 0.8654 0.0000 -0.5010
# 1 vertex normals

vt 0.7500 0.0000 0.0000
vt 1.0000 0.9900 0.0000
vt 1.0000 0.0000 0.0000
vt 0.7500 0.9900 0.0000
# 4 texture coords

g Nemu_220A67BA_0_076
usemtl Material__361
s 1
f 17/17/5 18/18/5 19/19/5 
f 17/17/5 20/20/5 18/18/5 
# 0 polygons - 2 triangles

#
# object Nemu_220A67BA_0_075
#

v  0.2420 0.1500 0.0000
v  0.1210 0.3300 0.2090
v  0.1210 0.1500 0.2090
v  0.2420 0.3300 0.0000
# 4 vertices

vn 0.8654 -0.0000 0.5010
# 1 vertex normals

vt 1.0000 0.0000 0.0000
vt 0.7500 0.9900 0.0000
vt 0.7500 0.0000 0.0000
vt 1.0000 0.9900 0.0000
# 4 texture coords

g Nemu_220A67BA_0_075
usemtl Material__361
s 1
f 21/21/6 22/22/6 23/23/6 
f 21/21/6 24/24/6 22/22/6 
# 0 polygons - 2 triangles

#
# object Nemu_3907B058_0_073
#

v  0.1380 0.0900 0.0000
v  0.3100 0.0310 0.0680
v  0.3100 0.0900 0.0000
v  0.1380 0.0310 0.0680
# 4 vertices

vn 0.0000 0.7553 0.6554
# 1 vertex normals

vt 0.0000 1.0000 0.0000
vt 0.9766 0.0000 0.0000
vt 0.9766 1.0000 0.0000
vt 0.0000 0.0000 0.0000
# 4 texture coords

g Nemu_3907B058_0_073
usemtl Material__363
s 1
f 25/25/7 26/26/7 27/27/7 
f 25/25/7 28/28/7 26/26/7 
# 0 polygons - 2 triangles

#
# object Nemu_3907B058_0_072
#

v  -0.0680 0.0310 0.3100
v  0.0000 0.0900 0.1380
v  -0.0680 0.0310 0.1380
v  0.0000 0.0900 0.3100
# 4 vertices

vn -0.6554 0.7553 0.0000
# 1 vertex normals

vt 0.9766 0.0000 0.0000
vt 0.0000 1.0000 0.0000
vt 0.0000 0.0000 0.0000
vt 0.9766 0.9980 0.0000
# 4 texture coords

g Nemu_3907B058_0_072
usemtl Material__363
s 1
f 29/29/8 30/30/8 31/31/8 
f 29/29/8 32/32/8 30/30/8 
# 0 polygons - 2 triangles

#
# object Nemu_3907B058_0_071
#

v  -0.3100 0.0900 0.0000
v  -0.1380 0.0310 -0.0680
v  -0.3100 0.0310 -0.0680
v  -0.1380 0.0900 0.0000
# 4 vertices

vn 0.0000 0.7553 -0.6554
# 1 vertex normals

vt 0.9766 1.0000 0.0000
vt 0.0000 0.0000 0.0000
vt 0.9766 0.0000 0.0000
vt 0.0000 1.0000 0.0000
# 4 texture coords

g Nemu_3907B058_0_071
usemtl Material__363
s 1
f 33/33/9 34/34/9 35/35/9 
f 33/33/9 36/36/9 34/34/9 
# 0 polygons - 2 triangles

#
# object Nemu_3907B058_0_070
#

v  0.0000 0.0900 -0.3100
v  0.0680 0.0310 -0.1380
v  0.0680 0.0310 -0.3100
v  0.0000 0.0900 -0.1380
# 4 vertices

vn 0.6554 0.7553 0.0000
# 1 vertex normals

vt 0.9766 1.0000 0.0000
vt 0.0000 0.0000 0.0000
vt 0.9766 0.0000 0.0000
vt 0.0000 0.9980 0.0000
# 4 texture coords

g Nemu_3907B058_0_070
usemtl Material__363
s 1
f 37/37/10 38/38/10 39/39/10 
f 37/37/10 40/40/10 38/38/10 
# 0 polygons - 2 triangles

#
# object Nemu_454FC21C_0_069
#

v  0.0000 0.1500 0.0000
v  -0.2400 0.1500 0.0000
v  -0.1200 0.1500 0.2080
# 3 vertices

vn 0.0000 1.0000 0.0000
# 1 vertex normals

vt 0.5000 0.5000 0.0000
vt 0.0649 0.5000 0.0000
vt 0.2822 0.9346 0.0000
# 3 texture coords

g Nemu_454FC21C_0_069
usemtl Material__362
s 1
f 41/41/11 42/42/11 43/43/11 
# 0 polygons - 1 triangles

#
# object Nemu_454FC21C_0_068
#

v  0.0000 0.1500 0.0000
v  -0.1200 0.1500 -0.2080
v  -0.2400 0.1500 0.0000
# 3 vertices

vn 0.0000 1.0000 0.0000
# 1 vertex normals

vt 0.5000 0.5000 0.0000
vt 0.2822 0.0649 0.0000
vt 0.0649 0.5000 0.0000
# 3 texture coords

g Nemu_454FC21C_0_068
usemtl Material__362
s 1
f 44/44/12 45/45/12 46/46/12 
# 0 polygons - 1 triangles

#
# object Nemu_454FC21C_0_067
#

v  0.0000 0.1500 0.0000
v  -0.1200 0.1500 0.2080
v  0.1200 0.1500 0.2080
# 3 vertices

vn 0.0000 1.0000 0.0000
# 1 vertex normals

vt 0.5000 0.5000 0.0000
vt 0.2822 0.9346 0.0000
vt 0.7173 0.9346 0.0000
# 3 texture coords

g Nemu_454FC21C_0_067
usemtl Material__362
s 1
f 47/47/13 48/48/13 49/49/13 
# 0 polygons - 1 triangles

#
# object Nemu_454FC21C_0_066
#

v  0.0000 0.1500 0.0000
v  0.1200 0.1500 -0.2080
v  -0.1200 0.1500 -0.2080
# 3 vertices

vn 0.0000 1.0000 0.0000
# 1 vertex normals

vt 0.5000 0.5000 0.0000
vt 0.7173 0.0649 0.0000
vt 0.2822 0.0649 0.0000
# 3 texture coords

g Nemu_454FC21C_0_066
usemtl Material__362
s 1
f 50/50/14 51/51/14 52/52/14 
# 0 polygons - 1 triangles

#
# object Nemu_454FC21C_0_065
#

v  0.0000 0.1500 0.0000
v  0.1200 0.1500 0.2080
v  0.2400 0.1500 0.0000
# 3 vertices

vn 0.0000 1.0000 0.0000
# 1 vertex normals

vt 0.5000 0.5000 0.0000
vt 0.7173 0.9346 0.0000
vt 0.9346 0.5000 0.0000
# 3 texture coords

g Nemu_454FC21C_0_065
usemtl Material__362
s 1
f 53/53/15 54/54/15 55/55/15 
# 0 polygons - 1 triangles

#
# object Nemu_454FC21C_0_064
#

v  0.0000 0.1500 0.0000
v  0.2400 0.1500 0.0000
v  0.1200 0.1500 -0.2080
# 3 vertices

vn 0.0000 1.0000 0.0000
# 1 vertex normals

vt 0.5000 0.5000 0.0000
vt 0.9346 0.5000 0.0000
vt 0.7173 0.0649 0.0000
# 3 texture coords

g Nemu_454FC21C_0_064
usemtl Material__362
s 1
f 56/56/16 57/57/16 58/58/16 
# 0 polygons - 1 triangles

#
# object Nemu_4BB15F_0_063
#

v  -0.1380 0.0900 0.2390
v  -0.2400 0.1500 0.0000
v  -0.2760 0.0900 0.0000
v  -0.1200 0.1500 0.2080
# 4 vertices

vn -0.7685 0.4611 0.4437
vn -0.7691 0.4600 0.4437
# 2 vertex normals

vt 26.6641 0.0000 0.0000
vt 20.0000 1.0000 0.0000
vt 20.0000 0.0000 0.0000
vt 26.6641 1.0000 0.0000
# 4 texture coords

g Nemu_4BB15F_0_063
usemtl Material__360
s 1
f 59/59/17 60/60/17 61/61/17 
f 59/59/18 62/62/18 60/60/18 
# 0 polygons - 2 triangles

#
# object Nemu_4BB15F_0_062
#

v  0.1380 0.0900 0.2390
v  -0.1200 0.1500 0.2080
v  -0.1380 0.0900 0.2390
v  0.1200 0.1500 0.2080
# 4 vertices

vn 0.0000 0.4590 0.8884
# 1 vertex normals

vt 33.3320 0.0000 0.0000
vt 26.6641 1.0000 0.0000
vt 26.6641 0.0000 0.0000
vt 33.3320 1.0000 0.0000
# 4 texture coords

g Nemu_4BB15F_0_062
usemtl Material__360
s 1
f 63/63/19 64/64/19 65/65/19 
f 63/63/19 66/66/19 64/64/19 
# 0 polygons - 2 triangles

#
# object Nemu_4BB15F_0_061
#

v  -0.2760 0.0900 0.0000
v  -0.1200 0.1500 -0.2080
v  -0.1380 0.0900 -0.2390
v  -0.2400 0.1500 0.0000
# 4 vertices

vn -0.7689 0.4601 -0.4440
vn -0.7686 0.4612 -0.4434
# 2 vertex normals

vt 20.0000 0.0000 0.0000
vt 13.3320 1.0000 0.0000
vt 13.3320 0.0000 0.0000
vt 20.0000 1.0000 0.0000
# 4 texture coords

g Nemu_4BB15F_0_061
usemtl Material__360
s 1
f 67/67/20 68/68/20 69/69/20 
f 67/67/21 70/70/21 68/68/21 
# 0 polygons - 2 triangles

#
# object Nemu_4BB15F_0_060
#

v  -0.1200 0.1500 -0.2080
v  0.1380 0.0900 -0.2390
v  -0.1380 0.0900 -0.2390
v  0.1200 0.1500 -0.2080
# 4 vertices

vn 0.0000 0.4590 -0.8884
# 1 vertex normals

vt 13.3320 1.0000 0.0000
vt 6.6641 0.0000 0.0000
vt 13.3320 0.0000 0.0000
vt 6.6641 1.0000 0.0000
# 4 texture coords

g Nemu_4BB15F_0_060
usemtl Material__360
s 1
f 71/71/22 72/72/22 73/73/22 
f 71/71/22 74/74/22 72/72/22 
# 0 polygons - 2 triangles

#
# object Nemu_4BB15F_0_059
#

v  0.2760 0.0900 0.0000
v  0.1200 0.1500 0.2080
v  0.1380 0.0900 0.2390
v  0.2400 0.1500 0.0000
# 4 vertices

vn 0.7689 0.4601 0.4440
vn 0.7686 0.4612 0.4434
# 2 vertex normals

vt 40.0000 0.0000 0.0000
vt 33.3320 1.0000 0.0000
vt 33.3320 0.0000 0.0000
vt 40.0000 1.0000 0.0000
# 4 texture coords

g Nemu_4BB15F_0_059
usemtl Material__360
s 1
f 75/75/23 76/76/23 77/77/23 
f 75/75/24 78/78/24 76/76/24 
# 0 polygons - 2 triangles

#
# object Nemu_4BB15F_0_058
#

v  0.1380 0.0900 -0.2390
v  0.2400 0.1500 0.0000
v  0.2760 0.0900 0.0000
v  0.1200 0.1500 -0.2080
# 4 vertices

vn 0.7685 0.4611 -0.4437
vn 0.7691 0.4600 -0.4437
# 2 vertex normals

vt 6.6641 0.0000 0.0000
vt 0.0000 1.0000 0.0000
vt 0.0000 0.0000 0.0000
vt 6.6641 1.0000 0.0000
# 4 texture coords

g Nemu_4BB15F_0_058
usemtl Material__360
s 1
f 79/79/25 80/80/25 81/81/25 
f 79/79/26 82/82/26 80/80/26 
# 0 polygons - 2 triangles

#
# object Nemu_2284075_0_057
#

v  -0.0690 0.0300 0.1200
v  0.0870 0.0900 0.1480
v  -0.0870 0.0900 0.1480
v  0.0690 0.0300 0.1200
# 4 vertices

vn 0.0000 -0.4229 0.9062
# 1 vertex normals

vt 1.8750 0.0000 0.0000
vt 3.2813 0.9922 0.0000
vt 1.7148 0.9922 0.0000
vt 3.1250 0.0000 0.0000
# 4 texture coords

g Nemu_2284075_0_057
usemtl Material__364
s 1
f 83/83/27 84/84/27 85/85/27 
f 83/83/27 86/86/27 84/84/27 
# 0 polygons - 2 triangles

#
# object Nemu_2284075_0_056
#

v  -0.0690 0.0300 0.1200
v  -0.1730 0.0900 0.0000
v  -0.1380 0.0300 0.0000
v  -0.0870 0.0900 0.1480
# 4 vertices

vn -0.7736 -0.4513 0.4448
vn -0.7752 -0.4428 0.4505
# 2 vertex normals

vt 1.8750 0.0000 0.0000
vt 0.9297 0.9922 0.0000
vt 1.2500 0.0000 0.0000
vt 1.7148 0.9922 0.0000
# 4 texture coords

g Nemu_2284075_0_056
usemtl Material__364
s 1
f 87/87/28 88/88/28 89/89/28 
f 87/87/29 90/90/29 88/88/29 
# 0 polygons - 2 triangles

#
# object Nemu_2284075_0_055
#

v  -0.1380 0.0300 0.0000
v  -0.0870 0.0900 -0.1480
v  -0.0690 0.0300 -0.1200
v  -0.1730 0.0900 0.0000
# 4 vertices

vn -0.7776 -0.4420 -0.4471
vn -0.7720 -0.4503 -0.4486
# 2 vertex normals

vt 1.2500 0.0000 0.0000
vt 1.7148 0.9922 0.0000
vt 1.8750 0.0000 0.0000
vt 0.9297 0.9922 0.0000
# 4 texture coords

g Nemu_2284075_0_055
usemtl Material__364
s 1
f 91/91/30 92/92/30 93/93/30 
f 91/91/31 94/94/31 92/92/31 
# 0 polygons - 2 triangles

#
# object Nemu_2284075_0_054
#

v  0.0690 0.0300 -0.1200
v  0.1730 0.0900 0.0000
v  0.1380 0.0300 0.0000
v  0.0870 0.0900 -0.1480
v  0.0870 0.0900 0.1480
v  0.0690 0.0300 0.1200
# 6 vertices

vn 0.7736 -0.4513 -0.4448
vn 0.7752 -0.4428 -0.4505
vn 0.7776 -0.4420 0.4471
vn 0.7720 -0.4503 0.4486
# 4 vertex normals

vt 3.1250 0.0000 0.0000
vt 4.0664 0.9922 0.0000
vt 3.7500 0.0000 0.0000
vt 3.2813 0.9922 0.0000
# 4 texture coords

g Nemu_2284075_0_054
usemtl Material__364
s 1
f 95/95/32 96/96/32 97/97/32 
f 95/95/33 98/98/33 96/96/33 
f 97/97/34 99/98/34 100/95/34 
f 97/97/35 96/96/35 99/98/35 
# 0 polygons - 4 triangles

#
# object Nemu_0_0_051
#

v  0.0000 0.0000 0.0000
v  0.0690 0.0300 0.1200
v  -0.0690 0.0300 0.1200
# 3 vertices

vn 0.0000 -0.9701 0.2425
# 1 vertex normals

g Nemu_0_0_051
usemtl Material__365
s 1
f 101//36 102//36 103//36 
# 0 polygons - 1 triangles

#
# object Nemu_0_0_050
#

v  0.0000 0.0000 0.0000
v  -0.0690 0.0300 0.1200
v  -0.1380 0.0300 0.0000
# 3 vertices

vn -0.2109 -0.9700 0.1212
# 1 vertex normals

g Nemu_0_0_050
usemtl Material__365
s 1
f 104//37 105//37 106//37 
# 0 polygons - 1 triangles

#
# object Nemu_0_0_049
#

v  0.0000 0.0000 0.0000
v  -0.1380 0.0300 0.0000
v  -0.0690 0.0300 -0.1200
# 3 vertices

vn -0.2109 -0.9700 -0.1212
# 1 vertex normals

g Nemu_0_0_049
usemtl Material__365
s 1
f 107//38 108//38 109//38 
# 0 polygons - 1 triangles

#
# object Nemu_0_0_048
#

v  0.0000 0.0000 0.0000
v  0.1380 0.0300 0.0000
v  0.0690 0.0300 0.1200
# 3 vertices

vn 0.2109 -0.9700 0.1212
# 1 vertex normals

g Nemu_0_0_048
usemtl Material__365
s 1
f 110//39 111//39 112//39 
# 0 polygons - 1 triangles

#
# object Nemu_0_0_047
#

v  0.0000 0.0000 0.0000
v  0.0690 0.0300 -0.1200
v  0.1380 0.0300 0.0000
# 3 vertices

vn 0.2109 -0.9700 -0.1212
# 1 vertex normals

g Nemu_0_0_047
usemtl Material__365
s 1
f 113//40 114//40 115//40 
# 0 polygons - 1 triangles

