# 3ds Max Wavefront OBJ Exporter v0.97b - (c)2007 guruware
# File Created: 17.10.2018 19:58:48

mtllib pikapoly.mtl

#
# object Nemu_60999451_0_022
#

v  -0.0721 0.0695 -0.0420
v  -0.0361 0.0505 -0.1151
v  -0.0256 0.0192 -0.1341
v  -0.0513 0.0088 -0.0316
v  0.0532 0.0088 -0.0325
v  0.0266 0.0192 -0.1350
v  0.0740 0.0695 -0.0430
v  -0.0000 0.0838 -0.1142
v  0.0370 0.0505 -0.1151
v  0.0009 0.0828 -0.2300
# 10 vertices

vn -0.8999 -0.0366 -0.4346
vn -0.8984 -0.3536 -0.2606
vn -0.0018 -0.9949 -0.1009
vn -0.0009 -0.9948 -0.1016
vn 0.8959 -0.3541 -0.2683
vn -0.5936 0.6577 -0.4638
vn 0.5818 0.6618 -0.4727
vn 0.8904 -0.0072 -0.4550
vn 0.6679 0.7443 -0.0006
vn -0.6773 0.7356 -0.0116
vn 0.9397 -0.1064 -0.3250
vn -0.9365 -0.1104 -0.3329
vn -0.0101 -0.8320 -0.5547
# 13 vertex normals

vt 0.0650 0.3983 0.0000
vt 0.0447 0.3698 0.0000
vt 0.5161 0.0366 0.0000
vt 0.5161 0.0000 0.0000
vt 0.9875 0.3698 0.0000
vt 0.8616 0.4145 0.0000
vt 0.9713 0.3983 0.0000
vt 0.1951 0.5405 0.0000
vt 0.2032 0.8494 0.0000
vt 0.8209 0.8534 0.0000
vt 0.8290 0.5446 0.0000
vt 0.8697 0.8941 0.0000
vt 0.1626 0.8941 0.0000
vt 0.9997 0.4592 0.0000
vt 0.0284 0.4592 0.0000
vt 0.5161 0.0853 0.0000
# 16 texture coords

g Nemu_60999451_0_022
usemtl Material__25
s 1
f 1/1/1 2/2/1 3/2/1 
f 1/1/2 3/2/2 4/1/2 
f 5/3/3 3/4/3 6/4/3 
f 5/3/4 4/3/4 3/4/4 
f 6/5/5 7/6/5 5/7/5 
f 8/8/6 2/9/6 1/1/6 
f 9/10/7 8/11/7 7/6/7 
f 6/5/8 9/5/8 7/6/8 
f 8/11/9 9/12/9 10/12/9 
f 2/13/10 8/8/10 10/13/10 
f 9/14/11 6/14/11 10/14/11 
f 3/15/12 2/15/12 10/15/12 
f 6/16/13 3/16/13 10/16/13 
# 0 polygons - 13 triangles

#
# object Nemu_60999451_0_021
#

v  -0.0809 0.0007 0.0841
v  -0.0529 0.0290 -0.0311
v  -0.0743 0.0023 -0.0609
v  -0.0269 0.0016 -0.0588
v  -0.0624 0.0000 0.0893
# 5 vertices

vn -0.7653 0.6430 -0.0279
vn 0.0402 0.7291 -0.6832
vn -0.0298 0.9723 0.2317
vn -0.0138 -0.9998 -0.0140
vn 0.8031 0.5619 0.1983
vn -0.0325 -0.9994 -0.0125
# 6 vertex normals

vt 0.5405 0.1504 0.0000
vt 0.0732 0.2885 0.0000
vt 0.4470 0.0041 0.0000
vt 0.6990 0.9997 0.0000
vt 0.3292 0.2845 0.0000
# 5 texture coords

g Nemu_60999451_0_021
usemtl Material__25
s 1
f 11/17/14 12/17/14 13/17/14 
f 13/18/15 12/18/15 14/18/15 
f 15/19/16 12/19/16 11/19/16 
f 15/20/17 13/20/17 14/20/17 
f 15/21/18 14/21/18 12/21/18 
f 13/20/19 15/20/19 11/20/19 
# 0 polygons - 6 triangles

#
# object Nemu_60999451_0_020
#

v  -0.0686 0.0217 0.0191
v  -0.0303 0.0529 0.0526
v  -0.0858 0.0612 0.0447
v  -0.1062 0.0293 -0.0094
v  -0.0412 0.0171 0.0225
v  -0.0546 0.0233 -0.0278
v  -0.0523 0.0053 -0.0305
# 7 vertices

vn -0.1992 -0.5925 0.7806
vn -0.5547 -0.6088 0.5671
vn 0.9616 -0.0692 -0.2656
vn -0.1961 -0.5950 0.7794
vn -0.3352 -0.9217 0.1951
vn -0.3242 0.0969 -0.9410
vn -0.1911 -0.9488 0.2515
vn 0.9585 0.1589 -0.2367
# 8 vertex normals

vt 0.2682 0.0691 0.0000
vt 0.1951 0.5039 0.0000
vt 0.9144 0.1910 0.0000
vt 0.4145 0.7518 0.0000
vt 0.3292 0.1260 0.0000
vt 0.7559 0.5161 0.0000
vt 0.6990 0.9672 0.0000
vt 0.5974 0.0610 0.0000
vt 0.8819 0.8006 0.0000
vt 0.5933 0.0244 0.0000
vt 0.6827 0.6218 0.0000
# 11 texture coords

g Nemu_60999451_0_020
usemtl Material__25
s 1
f 16/22/20 17/23/20 18/24/20 
f 19/25/21 16/26/21 18/24/21 
f 20/27/22 21/28/22 17/23/22 
f 17/23/23 16/22/23 20/22/23 
f 16/29/24 19/25/24 22/29/24 
f 22/30/25 19/25/25 21/28/25 
f 20/31/26 16/31/26 22/31/26 
f 21/28/27 20/32/27 22/32/27 
# 0 polygons - 8 triangles

#
# object Nemu_60999451_0_019
#

v  -0.0858 0.0612 0.0447
v  -0.0711 0.1111 0.0367
v  -0.1050 0.0991 0.0353
v  -0.0727 0.0685 -0.0887
v  -0.1062 0.0293 -0.0094
v  -0.1152 0.0683 -0.0285
v  -0.0489 0.0289 -0.0700
v  -0.0546 0.0233 -0.0278
v  -0.0303 0.0529 0.0526
v  -0.1047 0.1210 -0.0189
# 10 vertices

vn -0.1074 0.1884 0.9762
vn -0.7380 -0.4263 -0.5231
vn -0.1686 -0.9738 -0.1526
vn 0.7966 0.4477 -0.4062
vn -0.7889 0.2583 -0.5575
vn -0.9807 0.1830 0.0694
vn 0.6359 0.7283 -0.2554
vn -0.3252 0.8778 0.3518
vn 0.8777 0.4504 -0.1639
vn -0.9693 -0.1207 0.2143
vn -0.5805 -0.6051 -0.5449
vn -0.8237 -0.2956 0.4838
vn -0.1101 0.1891 0.9758
vn 0.9862 0.0783 0.1457
# 14 vertex normals

vt 0.9144 0.1910 0.0000
vt 0.4145 0.7518 0.0000
vt 0.6990 0.9672 0.0000
vt 0.1951 0.5039 0.0000
vt 0.2276 0.4511 0.0000
vt 0.5242 0.3129 0.0000
vt 0.1991 0.3292 0.0000
vt 0.4592 0.0041 0.0000
vt 0.3007 0.4552 0.0000
vt 0.6706 0.4186 0.0000
vt 0.4470 0.8534 0.0000
vt 0.8372 0.4470 0.0000
vt 0.9103 0.1869 0.0000
vt 0.5242 0.5486 0.0000
# 14 texture coords

g Nemu_60999451_0_019
usemtl Material__25
s 1
f 23/33/28 24/33/28 25/33/28 
f 26/34/29 27/34/29 28/34/29 
f 27/35/30 29/35/30 30/35/30 
f 30/36/31 24/36/31 31/36/31 
f 28/37/32 32/37/32 26/37/32 
f 25/38/33 32/38/33 28/38/33 
f 26/39/34 32/39/34 24/39/34 
f 24/40/35 32/40/35 25/40/35 
f 24/41/36 29/41/36 26/41/36 
f 27/42/37 25/42/37 28/42/37 
f 27/43/38 26/43/38 29/43/38 
f 25/44/39 27/44/39 23/44/39 
f 24/45/40 23/45/40 31/45/40 
f 24/46/41 30/46/41 29/46/41 
# 0 polygons - 14 triangles

#
# object Nemu_60999451_0_018
#

v  0.0781 0.0047 -0.0612
v  0.0610 -0.0018 0.0891
v  0.0306 0.0007 -0.0598
v  0.0533 0.0290 -0.0305
v  0.0804 -0.0004 0.0843
# 5 vertices

vn 0.0824 -0.9960 -0.0340
vn -0.0813 0.7489 -0.6576
vn 0.7078 0.7063 0.0136
vn 0.0658 -0.9972 -0.0360
vn -0.8503 0.4937 0.1821
vn -0.0108 0.9681 0.2503
# 6 vertex normals

vt 0.6949 0.9997 0.0000
vt 0.0610 0.2804 0.0000
vt 0.5080 0.1422 0.0000
vt 0.3820 0.2926 0.0000
vt 0.4552 0.0041 0.0000
# 5 texture coords

g Nemu_60999451_0_018
usemtl Material__25
s 1
f 33/47/42 34/47/42 35/47/42 
f 36/48/43 33/48/43 35/48/43 
f 36/49/44 37/49/44 33/49/44 
f 34/47/45 33/47/45 37/47/45 
f 35/50/46 34/50/46 36/50/46 
f 36/51/47 34/51/47 37/51/47 
# 0 polygons - 6 triangles

#
# object Nemu_60999451_0_017
#

v  0.0706 0.0217 0.0192
v  0.0323 0.0530 0.0526
v  0.0432 0.0171 0.0226
v  0.0878 0.0613 0.0447
v  0.1081 0.0293 -0.0094
v  0.0566 0.0232 -0.0277
v  0.0542 0.0052 -0.0303
# 7 vertices

vn 0.1976 -0.5937 0.7801
vn 0.2007 -0.5911 0.7812
vn 0.5560 -0.6075 0.5673
vn -0.9619 -0.0703 -0.2642
vn -0.9589 0.1578 -0.2356
vn 0.3228 0.0956 -0.9416
vn 0.1922 -0.9483 0.2527
vn 0.3362 -0.9211 0.1961
# 8 vertex normals

vt 0.2682 0.0691 0.0000
vt 0.1951 0.5039 0.0000
vt 0.8372 0.4470 0.0000
vt 0.3292 0.1260 0.0000
vt 0.4145 0.7518 0.0000
vt 0.6990 0.9672 0.0000
vt 0.7559 0.5161 0.0000
vt 0.6827 0.6218 0.0000
vt 0.8819 0.8006 0.0000
vt 0.5933 0.0244 0.0000
vt 0.5974 0.0610 0.0000
# 11 texture coords

g Nemu_60999451_0_017
usemtl Material__25
s 1
f 38/52/48 39/53/48 40/52/48 
f 39/53/49 38/52/49 41/54/49 
f 38/55/50 42/56/50 41/54/50 
f 43/57/51 40/58/51 39/53/51 
f 40/59/52 43/57/52 44/59/52 
f 42/56/53 44/60/53 43/57/53 
f 38/61/54 40/61/54 44/61/54 
f 42/56/55 38/62/55 44/62/55 
# 0 polygons - 8 triangles

#
# object Nemu_60999451_0_016
#

v  0.1081 0.0293 -0.0094
v  0.0745 0.0684 -0.0887
v  0.1171 0.0684 -0.0285
v  0.0731 0.1112 0.0366
v  0.0566 0.0232 -0.0277
v  0.0323 0.0530 0.0526
v  0.0507 0.0288 -0.0699
v  0.1069 0.0993 0.0352
v  0.0878 0.0613 0.0447
v  0.1066 0.1210 -0.0191
# 10 vertices

vn 0.7376 -0.4266 -0.5234
vn -0.7975 0.4465 -0.4058
vn 0.1692 -0.9739 -0.1513
vn 0.8246 -0.2943 0.4832
vn 0.3250 0.8785 0.3500
vn -0.6368 0.7274 -0.2557
vn 0.7880 0.2580 -0.5590
vn -0.8782 0.4495 -0.1634
vn 0.1085 0.1900 0.9758
vn 0.9806 0.1838 0.0678
vn -0.9861 0.0778 0.1469
vn 0.1112 0.1907 0.9753
vn 0.9697 -0.1196 0.2132
vn 0.5802 -0.6055 -0.5447
# 14 vertex normals

vt 0.4145 0.7518 0.0000
vt 0.1951 0.5039 0.0000
vt 0.6990 0.9672 0.0000
vt 0.8372 0.4470 0.0000
vt 0.4592 0.0041 0.0000
vt 0.1991 0.3292 0.0000
vt 0.2276 0.4511 0.0000
vt 0.3007 0.4552 0.0000
vt 0.9144 0.1910 0.0000
vt 0.5242 0.3129 0.0000
vt 0.5242 0.5486 0.0000
vt 0.9103 0.1869 0.0000
vt 0.6706 0.4186 0.0000
vt 0.4470 0.8534 0.0000
# 14 texture coords

g Nemu_60999451_0_016
usemtl Material__25
s 1
f 45/63/56 46/63/56 47/63/56 
f 48/64/57 49/64/57 50/64/57 
f 51/65/58 45/65/58 49/65/58 
f 45/66/59 52/66/59 53/66/59 
f 54/67/60 48/67/60 52/67/60 
f 54/68/61 46/68/61 48/68/61 
f 54/69/62 47/69/62 46/69/62 
f 51/70/63 48/70/63 46/70/63 
f 48/71/64 53/71/64 52/71/64 
f 54/72/65 52/72/65 47/72/65 
f 49/73/66 48/73/66 51/73/66 
f 53/74/67 48/74/67 50/74/67 
f 52/75/68 45/75/68 47/75/68 
f 46/76/69 45/76/69 51/76/69 
# 0 polygons - 14 triangles

#
# object Nemu_60999451_0_015
#

v  -0.0474 0.1182 0.1032
v  -0.0831 0.1044 0.0685
v  -0.0591 0.1317 0.0483
v  -0.0843 0.1440 0.0735
v  -0.0580 0.1101 0.0948
# 5 vertices

vn 0.5879 -0.7478 -0.3085
vn 0.5157 0.8510 0.0996
vn 0.7214 -0.3056 -0.6214
vn -0.7075 -0.1083 0.6983
vn -0.6236 0.0095 0.7817
# 5 vertex normals

vt 0.6177 0.2967 0.0000
vt 0.6746 0.9997 0.0000
vt 0.5161 0.0366 0.0000
vt 0.6665 0.1951 0.0000
vt 0.5771 0.9875 0.0000
vt 0.5730 0.9916 0.0000
# 6 texture coords

g Nemu_60999451_0_015
usemtl Material__25
s 1
f 55/77/70 56/78/70 57/79/70 
f 58/78/71 55/80/71 57/79/71 
f 55/77/72 59/77/72 56/78/72 
f 59/81/73 58/78/73 56/78/73 
f 58/78/74 59/82/74 55/82/74 
# 0 polygons - 5 triangles

#
# object Nemu_60999451_0_014
#

v  -0.0762 0.1167 0.0072
v  -0.0547 0.1773 0.0251
v  -0.0591 0.1317 0.0483
v  -0.1048 0.1543 0.0345
v  -0.0831 0.1044 0.0685
v  -0.0843 0.1440 0.0735
# 6 vertices

vn 0.9238 -0.2402 -0.2981
vn -0.8906 -0.0827 0.4473
vn -0.3203 0.8605 0.3961
vn 0.7426 0.2456 0.6231
vn 0.7285 -0.6829 -0.0549
vn -0.3335 0.3738 -0.8655
vn -0.8436 -0.5006 -0.1942
# 7 vertex normals

vt 0.5161 0.0366 0.0000
vt 0.6746 0.9997 0.0000
vt 0.4064 0.6706 0.0000
vt 0.7518 0.1504 0.0000
vt 0.7396 0.1626 0.0000
vt 0.0244 0.6340 0.0000
vt 0.5364 0.9591 0.0000
# 7 texture coords

g Nemu_60999451_0_014
usemtl Material__25
s 1
f 60/83/75 61/83/75 62/83/75 
f 63/84/76 64/84/76 65/84/76 
f 61/85/77 63/85/77 65/85/77 
f 61/86/78 65/86/78 62/86/78 
f 60/87/79 62/87/79 64/87/79 
f 63/88/80 61/88/80 60/88/80 
f 64/89/81 63/89/81 60/89/81 
# 0 polygons - 7 triangles

#
# object Nemu_60999451_0_013
#

v  0.0570 0.1869 0.0312
v  -0.0294 0.2347 0.0390
v  -0.0541 0.1869 0.0321
v  0.0009 0.2818 -0.0504
v  -0.0721 0.2144 -0.0286
v  -0.0513 0.2631 -0.0094
v  0.0740 0.2144 -0.0296
v  0.0532 0.2631 -0.0094
v  0.0342 0.2347 0.0390
v  -0.0218 0.3172 0.0115
v  0.0228 0.3172 0.0115
v  0.0009 0.3609 0.0162
v  -0.0209 0.2442 0.1482
v  -0.0541 0.2726 0.0409
v  -0.0247 0.3097 0.0656
v  -0.0085 0.2821 0.0893
v  0.0266 0.3097 0.0656
v  0.0009 0.3296 0.0286
v  0.0123 0.2821 0.0884
v  0.0560 0.2726 0.0409
v  0.0228 0.2442 0.1482
# 21 vertices

vn 0.0085 -0.1466 0.9892
vn -0.6381 0.5034 -0.5826
vn 0.6367 0.5117 -0.5769
vn -0.8968 0.2371 0.3737
vn 0.9018 0.2372 0.3611
vn 0.0000 -0.1616 0.9869
vn -0.6282 0.5529 -0.5474
vn -0.7766 0.3236 0.5406
vn 0.6264 0.5607 -0.5415
vn 0.8115 0.3056 0.4980
vn 0.7468 0.4287 -0.5085
vn -0.7325 0.4388 -0.5205
vn -0.8205 0.2473 0.5155
vn -0.8305 -0.5455 0.1124
vn -0.4449 -0.2461 -0.8611
vn 0.8281 0.2767 0.4875
vn -0.7958 0.6040 0.0429
vn 0.0000 0.6529 0.7574
vn 0.0000 0.8805 0.4741
vn 0.7423 0.1555 0.6518
vn 0.0354 0.6262 0.7788
vn 0.0000 0.8403 0.5421
vn 0.7921 0.6096 0.0300
vn 0.5373 0.8396 0.0801
vn 0.0242 0.8459 0.5328
vn 0.0000 -0.9962 0.0866
vn -0.7346 0.1415 0.6636
vn -0.5485 0.7503 0.3691
vn 0.4617 -0.2225 -0.8587
vn -0.5262 0.8455 0.0910
vn 0.6831 0.2677 0.6795
vn -0.6675 0.2729 0.6928
vn 0.5633 0.7385 0.3705
vn 0.8564 -0.4990 0.1328
# 34 vertex normals

vt 0.5161 0.7153 0.0000
vt 0.5161 0.4430 0.0000
vt 0.2195 0.7193 0.0000
vt 0.1869 0.7762 0.0000
vt 0.8087 0.7193 0.0000
vt 0.8453 0.7803 0.0000
vt 0.0610 0.6584 0.0000
vt 0.0528 0.6380 0.0000
vt 0.0081 0.5568 0.0000
vt 0.9835 0.6380 0.0000
vt 0.9753 0.6584 0.0000
vt 0.1910 0.8006 0.0000
vt 0.1097 0.6787 0.0000
vt 0.8412 0.8006 0.0000
vt 0.9388 0.6706 0.0000
vt 0.8941 0.7437 0.0000
vt 0.1341 0.7396 0.0000
vt 0.0894 0.6462 0.0000
vt 0.0813 0.2398 0.0000
vt 0.2845 0.3942 0.0000
vt 0.9469 0.6543 0.0000
vt 0.1057 0.8290 0.0000
vt 0.5161 0.8494 0.0000
vt 0.5161 0.9713 0.0000
vt 0.8981 0.5974 0.0000
vt 0.5161 0.9550 0.0000
vt 0.9225 0.8331 0.0000
vt 0.7843 0.9550 0.0000
vt 0.5161 0.0000 0.0000
vt 0.1382 0.5811 0.0000
vt 0.2398 0.9103 0.0000
vt 0.7518 0.4023 0.0000
vt 0.2479 0.9550 0.0000
vt 0.8656 0.6584 0.0000
vt 0.1707 0.6543 0.0000
vt 0.8006 0.9022 0.0000
vt 0.9591 0.2560 0.0000
# 37 texture coords

g Nemu_60999451_0_013
usemtl Material__25
s 1
f 66/90/82 67/91/82 68/90/82 
f 69/92/83 70/92/83 71/93/83 
f 72/94/84 69/94/84 73/95/84 
f 68/96/85 71/97/85 70/98/85 
f 73/99/86 66/100/86 72/100/86 
f 66/90/87 74/91/87 67/91/87 
f 75/101/88 69/92/88 71/101/88 
f 71/102/89 68/96/89 67/102/89 
f 69/94/90 76/103/90 73/103/90 
f 66/100/91 73/104/91 74/104/91 
f 76/105/92 69/94/92 77/105/92 
f 69/92/93 75/106/93 77/106/93 
f 67/107/94 75/107/94 71/107/94 
f 67/108/95 78/108/95 79/108/95 
f 75/109/96 67/109/96 79/109/96 
f 76/110/97 74/110/97 73/110/97 
f 75/111/98 79/111/98 80/111/98 
f 81/112/99 82/112/99 80/112/99 
f 83/113/100 80/113/100 82/113/100 
f 84/114/101 85/114/101 82/114/101 
f 81/112/102 84/112/102 82/112/102 
f 81/115/103 78/115/103 86/115/103 
f 85/116/104 76/116/104 82/116/104 
f 83/117/105 82/117/105 76/117/105 
f 81/115/106 86/115/106 84/115/106 
f 86/118/107 67/118/107 74/118/107 
f 79/119/108 81/119/108 80/119/108 
f 81/120/109 79/120/109 78/120/109 
f 86/118/107 78/118/107 67/118/107 
f 74/121/110 76/121/110 85/121/110 
f 83/122/111 75/122/111 80/122/111 
f 83/123/112 76/123/112 77/123/112 
f 83/124/113 77/124/113 75/124/113 
f 85/125/114 84/125/114 86/125/114 
f 86/126/115 74/126/115 85/126/115 
# 0 polygons - 35 triangles

#
# object Nemu_60999451_0_012
#

v  0.0493 0.1182 0.1032
v  0.0862 0.1440 0.0735
v  0.0609 0.1317 0.0483
v  0.0850 0.1044 0.0685
v  0.0599 0.1101 0.0948
# 5 vertices

vn -0.5157 0.8510 0.0996
vn -0.5879 -0.7478 -0.3085
vn -0.7214 -0.3056 -0.6214
vn 0.7075 -0.1083 0.6983
vn 0.6236 0.0095 0.7817
# 5 vertex normals

vt 0.5283 0.1707 0.0000
vt 0.6746 0.9997 0.0000
vt 0.5161 0.0366 0.0000
vt 0.7721 0.3211 0.0000
vt 0.5283 1.0079 0.0000
vt 0.5486 0.9875 0.0000
# 6 texture coords

g Nemu_60999451_0_012
usemtl Material__25
s 1
f 87/127/116 88/128/116 89/129/116 
f 90/128/117 87/130/117 89/129/117 
f 90/128/118 91/130/118 87/130/118 
f 88/128/119 91/131/119 90/128/119 
f 91/132/120 88/128/120 87/132/120 
# 0 polygons - 5 triangles

#
# object Nemu_60999451_0_011
#

v  0.0566 0.1773 0.0251
v  0.0781 0.1167 0.0072
v  0.0609 0.1317 0.0483
v  0.0850 0.1044 0.0685
v  0.1067 0.1543 0.0345
v  0.0862 0.1440 0.0735
# 6 vertices

vn -0.9238 -0.2402 -0.2981
vn 0.8906 -0.0827 0.4473
vn 0.8436 -0.5006 -0.1942
vn -0.7285 -0.6829 -0.0549
vn 0.3203 0.8605 0.3961
vn -0.7426 0.2456 0.6231
vn 0.3335 0.3738 -0.8655
# 7 vertex normals

vt 0.5161 0.0366 0.0000
vt 0.6746 0.9997 0.0000
vt 0.5364 0.9591 0.0000
vt 0.7396 0.1626 0.0000
vt 0.4064 0.6706 0.0000
vt 0.7518 0.1504 0.0000
vt 0.0244 0.6340 0.0000
# 7 texture coords

g Nemu_60999451_0_011
usemtl Material__25
s 1
f 92/133/121 93/133/121 94/133/121 
f 95/134/122 96/134/122 97/134/122 
f 96/135/123 95/135/123 93/135/123 
f 94/136/124 93/136/124 95/136/124 
f 96/137/125 92/137/125 97/137/125 
f 97/138/126 92/138/126 94/138/126 
f 92/139/127 96/139/127 93/139/127 
# 0 polygons - 7 triangles

#
# object Nemu_60999451_0_010
#

v  -0.0627 0.1217 0.0586
v  -0.0721 0.2144 -0.0286
v  -0.0835 0.1217 -0.0458
v  -0.0000 0.2182 -0.0846
v  -0.0000 0.1492 -0.1094
v  0.0009 0.2818 -0.0504
v  -0.0541 0.1869 0.0321
v  0.0740 0.2144 -0.0296
v  0.0655 0.1217 0.0586
v  0.0845 0.1217 -0.0468
v  0.0570 0.1869 0.0312
# 11 vertices

vn -0.9771 0.0838 0.1954
vn -0.6377 0.2606 -0.7248
vn -0.5766 0.3934 -0.7161
vn -0.8819 0.2719 0.3850
vn 0.9812 0.0777 0.1768
vn 0.0000 0.3762 0.9266
vn 0.5635 0.3845 -0.7312
vn 0.0079 0.3885 0.9214
vn 0.8867 0.2731 0.3731
vn 0.6285 0.2631 -0.7319
vn 0.5902 0.2110 -0.7792
vn -0.6058 0.2165 -0.7656
# 12 vertex normals

vt 0.0163 0.4186 0.0000
vt 0.0081 0.5568 0.0000
vt 0.1951 0.5405 0.0000
vt 0.1869 0.6502 0.0000
vt 0.2195 0.7193 0.0000
vt 0.0610 0.6584 0.0000
vt 1.0241 0.5568 0.0000
vt 1.0160 0.4186 0.0000
vt 0.8290 0.5446 0.0000
vt 0.5161 0.4186 0.0000
vt 0.5161 0.7153 0.0000
vt 0.8087 0.7193 0.0000
vt 0.9753 0.6584 0.0000
vt 0.8412 0.6543 0.0000
vt 0.8250 0.6299 0.0000
vt 0.2032 0.6258 0.0000
# 16 texture coords

g Nemu_60999451_0_010
usemtl Material__25
s 1
f 98/140/128 99/141/128 100/142/128 
f 100/142/129 101/143/129 102/142/129 
f 99/144/130 103/144/130 101/144/130 
f 99/145/131 98/140/131 104/145/131 
f 105/146/132 106/147/132 107/148/132 
f 106/149/133 104/150/133 98/149/133 
f 103/151/134 105/151/134 101/151/134 
f 106/149/135 108/150/135 104/150/135 
f 106/147/136 105/152/136 108/152/136 
f 101/153/137 107/148/137 102/148/137 
f 107/148/138 101/154/138 105/154/138 
f 101/155/139 100/142/139 99/155/139 
# 0 polygons - 12 triangles

#
# object Nemu_60999451_0_009
#

v  -0.0835 0.1217 -0.0458
v  -0.0000 0.0838 -0.1142
v  -0.0721 0.0695 -0.0420
v  -0.0304 0.0306 0.0206
v  -0.0513 0.0088 -0.0316
v  -0.0541 0.0695 0.0491
v  -0.0627 0.1217 0.0586
v  0.0332 0.0306 0.0206
v  0.0532 0.0088 -0.0325
v  0.0740 0.0695 -0.0430
v  0.0570 0.0695 0.0482
v  0.0655 0.1217 0.0586
v  0.0845 0.1217 -0.0468
v  -0.0000 0.1492 -0.1094
# 14 vertices

vn -0.6731 -0.1987 -0.7123
vn -0.8693 -0.2230 0.4410
vn -0.9623 -0.1924 0.1925
vn -0.9619 -0.1960 0.1904
vn 0.0035 -0.9246 0.3810
vn 0.0000 -0.9226 0.3858
vn 0.8769 -0.2288 0.4228
vn -0.7885 -0.5950 0.1561
vn 0.0000 -0.5775 0.8164
vn 0.0069 -0.5877 0.8090
vn 0.0000 -0.1789 0.9839
vn 0.7940 -0.5894 0.1489
vn 0.0084 -0.1974 0.9803
vn 0.9657 -0.1928 0.1740
vn 0.9668 -0.1802 0.1813
vn -0.6166 0.0569 -0.7852
vn 0.6624 -0.1853 -0.7259
vn 0.6067 0.0575 -0.7929
# 18 vertex normals

vt 0.1666 0.4145 0.0000
vt 0.0650 0.3983 0.0000
vt 0.0163 0.4186 0.0000
vt 0.5161 0.0366 0.0000
vt 0.9713 0.3983 0.0000
vt 0.1057 0.2113 0.0000
vt 0.5161 0.2154 0.0000
vt 0.5161 0.4186 0.0000
vt 0.9266 0.2113 0.0000
vt 1.0160 0.4186 0.0000
vt 0.1951 0.5405 0.0000
vt 0.8616 0.4145 0.0000
vt 0.8290 0.5446 0.0000
# 13 texture coords

g Nemu_60999451_0_009
usemtl Material__25
s 1
f 109/156/140 110/156/140 111/156/140 
f 112/157/141 111/157/141 113/157/141 
f 114/158/142 115/158/142 109/158/142 
f 114/158/143 109/158/143 111/158/143 
f 116/159/144 113/159/144 117/159/144 
f 116/159/145 112/159/145 113/159/145 
f 118/160/146 116/160/146 117/160/146 
f 111/161/147 112/161/147 114/161/147 
f 112/162/148 116/162/148 119/162/148 
f 112/162/149 119/162/149 114/162/149 
f 114/163/150 120/163/150 115/163/150 
f 116/164/151 118/164/151 119/164/151 
f 114/163/152 119/163/152 120/163/152 
f 121/165/153 120/165/153 119/165/153 
f 121/165/154 119/165/154 118/165/154 
f 110/166/155 109/166/155 122/166/155 
f 110/167/156 121/167/156 118/167/156 
f 121/168/157 110/168/157 122/168/157 
# 0 polygons - 18 triangles

