# 3ds Max Wavefront OBJ Exporter v0.97b - (c)2007 guruware
# File Created: 12.09.2018 18:25:54

mtllib sword.mtl

#
# object Nemu_285619DE_0_058
#

v  0.1400 0.1470 0.0000
v  0.1400 0.8440 0.0000
v  -0.1400 0.8440 0.0000
v  -0.1400 0.1470 0.0000
# 4 vertices

vn 0.0000 -0.0000 1.0000
# 1 vertex normals

vt 1.0000 0.2189 0.0000
vt 1.0000 0.9500 0.0000
vt 0.0000 0.9500 0.0000
vt 0.0000 0.2189 0.0000
# 4 texture coords

g Nemu_285619DE_0_058
usemtl Material__156
s 1
f 1/1/1 2/2/1 3/3/1 
f 1/1/1 3/3/1 4/4/1 
# 0 polygons - 2 triangles

#
# object Nemu_0_0_033
#

v  -0.0190 0.0000 -0.0090
v  0.0160 0.1280 -0.0090
v  0.0190 0.0000 -0.0090
v  -0.0000 0.0000 0.0110
v  -0.0160 0.1280 -0.0090
v  -0.0000 0.1280 0.0090
v  -0.0000 0.0920 -0.0040
v  -0.0000 0.1480 0.0160
v  -0.0710 0.1480 -0.0140
v  0.0720 0.1480 -0.0130
# 10 vertices

vn 0.0000 0.0000 -1.0000
vn 0.0000 -1.0000 -0.0000
vn -0.7473 0.0175 0.6643
vn 0.7250 0.0108 0.6887
vn -0.7250 0.0108 0.6887
vn -0.3697 -0.3125 0.8750
vn 0.7473 0.0175 0.6643
vn 0.0000 1.0000 0.0000
vn 0.0069 -0.1673 -0.9859
vn 0.3547 -0.3145 0.8805
# 10 vertex normals

g Nemu_0_0_033
usemtl Material__157
s 1
f 5//2 6//2 7//2 
f 7//3 8//3 5//3 
f 9//4 5//4 10//4 
f 5//2 9//2 6//2 
f 7//5 10//5 8//5 
f 8//6 10//6 5//6 
f 11//7 12//7 13//7 
f 10//8 7//8 6//8 
f 12//9 14//9 13//9 
f 14//10 11//10 13//10 
f 12//11 11//11 14//11 
# 0 polygons - 11 triangles

