# 3ds Max Wavefront OBJ Exporter v0.97b - (c)2007 guruware
# File Created: 27.10.2016 13:27:29

mtllib rod.mtl

#
# object Nemu_42556B75_0_061
#

v  -0.0968 0.2235 0.0000
v  0.0832 0.2235 0.0000
v  0.0832 0.4035 0.0000
v  -0.0968 0.4035 0.0000
# 4 vertices

vn 0.0000 -0.0000 1.0000
# 1 vertex normals

vt 0.0000 0.0000 0.0000
vt 1.0000 0.0000 0.0000
vt 1.0000 1.0000 0.0000
vt 0.0000 1.0000 0.0000
# 4 texture coords

g Nemu_42556B75_0_061
usemtl Material__424
s 1
f 1/1/1 2/2/1 3/3/1 
f 1/1/1 3/3/1 4/4/1 
# 0 polygons - 2 triangles

#
# object Nemu_3E0E760E_0_060
#

v  -0.0198 0.2461 -0.0230
v  0.0192 0.0051 0.0000
v  -0.0198 0.0051 -0.0230
v  -0.0198 0.0051 0.0230
v  0.0192 0.2461 0.0000
v  -0.0198 0.2461 0.0230
# 6 vertices

vn 0.5080 0.0000 -0.8614
vn -1.0000 0.0000 -0.0000
vn 0.5080 -0.0000 0.8614
# 3 vertex normals

vt 0.3633 2.0000 0.0000
vt 0.0000 0.0000 0.0000
vt 0.3633 0.0000 0.0000
vt 0.6348 0.0000 0.0000
vt 0.0000 2.0000 0.0000
vt 0.6348 2.0000 0.0000
vt 1.0000 0.0000 0.0000
vt 1.0000 2.0000 0.0000
# 8 texture coords

g Nemu_3E0E760E_0_060
usemtl Material__425
s 1
f 5/5/2 6/6/2 7/7/2 
f 8/8/3 5/5/3 7/7/3 
f 5/5/2 9/9/2 6/6/2 
f 8/8/3 10/10/3 5/5/3 
f 6/11/4 9/12/4 10/10/4 
f 6/11/4 10/10/4 8/8/4 
# 0 polygons - 6 triangles

