# 3ds Max Wavefront OBJ Exporter v0.97b - (c)2007 guruware
# File Created: 27.10.2016 13:18:58

mtllib bat.mtl

#
# object Nemu_25B7E006_0_061
#

v  0.0025 0.0245 0.0000
v  0.0505 0.4425 0.0000
v  -0.0395 0.4425 0.0540
v  -0.0395 0.4425 -0.0540
# 4 vertices

vn 0.5136 -0.0590 0.8560
vn -0.9950 -0.1000 -0.0000
vn 0.5136 -0.0590 -0.8560
# 3 vertex normals

vt 1.0000 0.4844 0.0000
vt 0.0000 0.8789 0.0000
vt 0.0000 -0.1172 0.0000
vt 0.0000 0.0000 0.0000
vt 0.0000 1.0000 0.0000
vt 1.0000 0.5000 0.0000
vt 0.0000 0.8828 0.0000
vt 1.0000 0.4883 0.0000
vt 0.0000 -0.1133 0.0000
# 9 texture coords

g Nemu_25B7E006_0_061
usemtl Material__366
s 1
f 1/1/1 2/2/1 3/3/1 
f 3/4/2 4/5/2 1/6/2 
f 2/7/3 1/8/3 4/9/3 
# 0 polygons - 3 triangles

#
# object Nemu_47394CA5_0_060
#

v  -0.0395 0.4425 -0.0540
v  -0.0395 0.4425 0.0540
v  0.0505 0.4425 0.0000
# 3 vertices

vn 0.0000 1.0000 0.0000
# 1 vertex normals

vt 0.8828 0.2383 0.0000
vt 0.1152 0.2383 0.0000
vt 0.5000 1.0059 0.0000
# 3 texture coords

g Nemu_47394CA5_0_060
usemtl Material__365
s 1
f 5/10/4 6/11/4 7/12/4 
# 0 polygons - 1 triangles

#
# object Nemu_47394CA5_0_061
#

v  0.0025 0.0062 0.0320
v  0.0025 0.0062 -0.0310
v  0.0025 0.0642 -0.0310
v  0.0025 0.0642 0.0320
# 4 vertices

vn 1.0000 0.0000 -0.0000
# 1 vertex normals

vt 0.9980 0.0000 0.0000
vt 1.0000 1.0000 0.0000
vt 0.0000 1.0000 0.0000
vt 0.0000 0.0000 0.0000
# 4 texture coords

g Nemu_47394CA5_0_061
usemtl Material__365
s 1
f 8/13/5 9/14/5 10/15/5 
f 8/13/5 10/15/5 11/16/5 
# 0 polygons - 2 triangles

