# 3ds Max Wavefront OBJ Exporter v0.97b - (c)2007 guruware
# File Created: 02.05.2019 22:35:21

mtllib symbols.mtl

#
# object mario03
#

v  -0.3245 0.0759 0.0000
v  -0.3041 0.1218 0.0000
v  -0.3296 0.0878 0.0000
v  -0.3160 0.0725 0.0000
v  -0.3313 0.1048 0.0000
v  -0.3092 0.0759 0.0000
v  -0.3296 0.1218 0.0000
v  -0.3041 0.0878 0.0000
v  -0.3245 0.1354 0.0000
v  -0.3024 0.1048 0.0000
v  -0.3160 0.1388 0.0000
v  -0.3092 0.1354 0.0000
# 12 vertices

vn 0.0000 -0.0000 1.0000
# 1 vertex normals

g mario03
usemtl Material__293
s 1
f 1//1 2//1 3//1 
f 4//1 2//1 1//1 
f 3//1 2//1 5//1 
f 6//1 2//1 4//1 
f 5//1 2//1 7//1 
f 8//1 2//1 6//1 
f 7//1 2//1 9//1 
f 10//1 2//1 8//1 
f 11//1 2//1 12//1 
f 9//1 2//1 11//1 
# 0 polygons - 10 triangles

#
# object mario02
#

v  -0.3891 0.1524 0.0000
v  -0.1222 0.2595 0.0000
v  -0.4231 0.1473 0.0000
v  -0.4537 0.1371 0.0000
v  -0.3160 0.1524 0.0000
v  -0.3517 0.1541 0.0000
v  -0.2514 0.1371 0.0000
v  -0.2820 0.1473 0.0000
v  -0.2106 0.0980 0.0000
v  -0.2276 0.1218 0.0000
v  -0.2089 0.0419 0.0000
v  -0.2055 0.0640 0.0000
v  -0.1834 0.3683 0.0000
v  -0.1460 0.3173 0.0000
v  -0.2888 0.4312 0.0000
v  -0.2310 0.4057 0.0000
v  -0.4163 0.4312 0.0000
v  -0.3517 0.4397 0.0000
v  -0.5217 0.3683 0.0000
v  -0.4724 0.4057 0.0000
v  -0.5829 0.2595 0.0000
v  -0.5591 0.3173 0.0000
v  -0.5897 0.1626 0.0000
v  -0.5914 0.1932 0.0000
v  -0.5710 0.1184 0.0000
v  -0.5812 0.1371 0.0000
v  -0.5370 0.0946 0.0000
v  -0.5557 0.1048 0.0000
v  -0.1902 0.0895 0.0000
v  -0.1137 0.1932 0.0000
v  -0.1154 0.1626 0.0000
v  -0.1222 0.1371 0.0000
v  -0.1341 0.1184 0.0000
v  -0.1494 0.1048 0.0000
v  -0.1868 0.0725 0.0000
v  -0.1681 0.0946 0.0000
v  -0.1885 0.0861 0.0000
v  -0.1885 0.0810 0.0000
v  -0.2429 -0.0040 -0.0000
v  -0.1868 0.0776 0.0000
v  -0.1868 0.0691 0.0000
v  -0.1868 0.0640 0.0000
v  -0.1936 0.0317 0.0000
v  -0.2140 0.0096 0.0000
v  -0.2429 0.0164 0.0000
v  -0.2225 0.0266 0.0000
v  -0.3075 0.0062 0.0000
v  -0.2718 0.0096 0.0000
v  -0.3976 0.0062 0.0000
v  -0.3517 0.0045 0.0000
v  -0.4911 0.0096 0.0000
v  -0.2786 -0.0108 -0.0000
v  -0.3160 -0.0142 -0.0000
v  -0.3517 -0.0142 -0.0000
v  -0.3891 -0.0142 -0.0000
v  -0.4265 -0.0108 -0.0000
v  -0.4333 0.0096 0.0000
v  -0.4622 -0.0040 -0.0000
v  -0.4826 0.0266 0.0000
v  -0.4622 0.0164 0.0000
v  -0.4945 0.0419 0.0000
v  -0.4996 0.0640 0.0000
v  -0.5149 0.0895 0.0000
v  -0.5115 0.0317 0.0000
v  -0.5183 0.0640 0.0000
v  -0.5183 0.0691 0.0000
v  -0.5183 0.0725 0.0000
v  -0.5166 0.0776 0.0000
v  -0.5166 0.0810 0.0000
v  -0.4928 0.0980 0.0000
v  -0.5149 0.0861 0.0000
v  -0.4775 0.1218 0.0000
# 72 vertices

vn 0.0000 -0.0000 1.0000
vn 0.0000 0.0000 -1.0000
# 2 vertex normals

g mario02
usemtl Material__293
s 1
f 13//2 14//2 15//2 
f 15//2 14//2 16//2 
f 17//2 14//2 18//2 
f 18//2 14//2 13//2 
f 19//2 14//2 20//2 
f 20//2 14//2 17//2 
f 21//2 14//2 22//2 
f 22//2 14//2 19//2 
f 23//2 14//2 24//2 
f 24//2 14//2 21//2 
f 25//2 16//2 26//2 
f 26//2 16//2 14//2 
f 27//2 16//2 28//2 
f 28//2 16//2 25//2 
f 29//2 16//2 30//2 
f 30//2 16//2 27//2 
f 31//2 16//2 32//2 
f 32//2 16//2 29//2 
f 33//2 16//2 34//2 
f 34//2 16//2 31//2 
f 35//2 16//2 36//2 
f 36//2 16//2 33//2 
f 37//2 16//2 38//2 
f 38//2 16//2 35//2 
f 39//2 16//2 40//2 
f 40//2 16//2 37//2 
f 14//2 41//2 42//2 
f 23//3 41//3 14//3 
f 43//2 41//2 44//2 
f 42//2 41//2 43//2 
f 45//2 41//2 46//2 
f 44//2 41//2 45//2 
f 23//2 47//2 41//2 
f 46//2 41//2 48//2 
f 49//3 47//3 50//3 
f 41//2 47//2 49//2 
f 23//3 51//3 47//3 
f 50//2 47//2 52//2 
f 53//2 51//2 54//2 
f 47//2 51//2 53//2 
f 55//2 51//2 56//2 
f 54//2 51//2 55//2 
f 57//2 51//2 58//2 
f 58//2 51//2 23//2 
f 59//2 51//2 60//2 
f 60//2 51//2 57//2 
f 61//2 51//2 62//2 
f 62//2 51//2 59//2 
f 51//2 63//2 64//2 
f 61//2 63//2 51//2 
f 65//2 63//2 66//2 
f 64//2 63//2 65//2 
f 67//2 63//2 68//2 
f 66//2 63//2 67//2 
f 69//2 63//2 61//2 
f 68//2 63//2 70//2 
f 71//2 63//2 72//2 
f 72//2 63//2 69//2 
f 73//2 63//2 71//2 
f 63//2 74//2 75//2 
f 74//2 63//2 73//2 
f 76//2 75//2 77//2 
f 63//2 75//2 76//2 
f 78//2 75//2 79//2 
f 77//2 75//2 78//2 
f 80//2 75//2 81//2 
f 79//3 75//3 80//3 
f 75//2 74//2 82//2 
f 81//3 75//3 83//3 
f 75//2 84//2 39//2 
f 75//2 82//2 84//2 
f 39//2 84//2 16//2 
# 0 polygons - 72 triangles

#
# object mario01
#

v  -0.3959 0.0759 0.0000
v  -0.3755 0.1218 0.0000
v  -0.4010 0.0878 0.0000
v  -0.3874 0.0725 0.0000
v  -0.4027 0.1048 0.0000
v  -0.3806 0.0759 0.0000
v  -0.4010 0.1218 0.0000
v  -0.3755 0.0878 0.0000
v  -0.3959 0.1354 0.0000
v  -0.3738 0.1048 0.0000
v  -0.3874 0.1388 0.0000
v  -0.3806 0.1354 0.0000
# 12 vertices

vn 0.0000 -0.0000 1.0000
# 1 vertex normals

g mario01
usemtl Material__293
s 1
f 85//4 86//4 87//4 
f 88//4 86//4 85//4 
f 87//4 86//4 89//4 
f 90//4 86//4 88//4 
f 89//4 86//4 91//4 
f 92//4 86//4 90//4 
f 91//4 86//4 93//4 
f 94//4 86//4 92//4 
f 95//4 86//4 96//4 
f 93//4 86//4 95//4 
# 0 polygons - 10 triangles

#
# object dk02
#

v  -0.2089 0.1082 0.0000
v  -0.2072 0.3309 0.0000
v  -0.2106 0.0402 0.0000
v  -0.2089 0.0504 0.0000
v  -0.2021 0.1167 0.0000
v  -0.2072 0.1150 0.0000
v  -0.2089 0.3377 0.0000
v  -0.1970 0.1133 0.0000
v  -0.2174 0.0334 0.0000
v  -0.2259 0.0317 0.0000
v  -0.2922 0.0317 0.0000
v  -0.3024 0.0334 0.0000
v  -0.3075 0.0402 0.0000
v  -0.3109 0.0504 0.0000
v  -0.3109 0.3955 0.0000
v  -0.3075 0.4057 0.0000
v  -0.1545 0.2306 0.0000
v  -0.3024 0.4108 0.0000
v  -0.1545 0.2204 0.0000
v  -0.1494 0.2102 0.0000
v  -0.0338 0.0572 0.0000
v  -0.0406 0.0521 0.0000
v  -0.1188 0.0385 0.0000
v  -0.1290 0.0385 0.0000
v  -0.1392 0.0419 0.0000
v  -0.1477 0.0487 0.0000
v  -0.0355 0.0708 0.0000
v  -0.1494 0.2391 0.0000
v  -0.2922 0.4142 0.0000
v  -0.0321 0.0640 0.0000
v  -0.2021 0.3309 0.0000
v  -0.1970 0.3343 0.0000
v  -0.2259 0.4142 0.0000
v  -0.2174 0.4125 0.0000
v  -0.2106 0.4057 0.0000
v  -0.2089 0.3955 0.0000
v  -0.1392 0.4074 0.0000
v  -0.1307 0.4142 0.0000
v  -0.1205 0.4176 0.0000
v  -0.1103 0.4159 0.0000
v  -0.0491 0.3972 0.0000
v  -0.0423 0.3921 0.0000
v  -0.0406 0.3853 0.0000
v  -0.0440 0.3768 0.0000
# 44 vertices

vn 0.0000 -0.0000 1.0000
# 1 vertex normals

g dk02
usemtl Material__293
s 1
f 97//5 98//5 99//5 
f 97//5 99//5 100//5 
f 101//5 98//5 102//5 
f 102//5 98//5 97//5 
f 99//5 98//5 103//5 
f 104//5 98//5 101//5 
f 105//5 103//5 106//5 
f 99//5 103//5 105//5 
f 107//5 103//5 108//5 
f 106//5 103//5 107//5 
f 109//5 103//5 110//5 
f 108//5 103//5 109//5 
f 111//5 103//5 112//5 
f 110//5 103//5 111//5 
f 113//5 98//5 104//5 
f 112//5 103//5 114//5 
f 115//5 104//5 116//5 
f 113//5 104//5 115//5 
f 117//5 104//5 118//5 
f 116//5 104//5 117//5 
f 119//5 104//5 120//5 
f 118//5 104//5 119//5 
f 121//5 104//5 122//5 
f 120//5 104//5 121//5 
f 116//5 117//5 123//5 
f 98//5 113//5 124//5 
f 114//5 103//5 125//5 
f 123//5 117//5 126//5 
f 127//5 124//5 128//5 
f 98//5 124//5 127//5 
f 129//5 103//5 130//5 
f 125//5 103//5 129//5 
f 131//5 103//5 132//5 
f 130//5 103//5 131//5 
f 133//5 124//5 134//5 
f 128//5 124//5 133//5 
f 135//5 124//5 136//5 
f 134//5 124//5 135//5 
f 137//5 124//5 138//5 
f 136//5 124//5 137//5 
f 139//5 124//5 140//5 
f 138//5 124//5 139//5 
# 0 polygons - 42 triangles

#
# object dk01
#

v  -0.4945 -0.0142 -0.0000
v  -0.6526 0.3071 0.0000
v  -0.5064 -0.0125 -0.0000
v  -0.5115 -0.0074 -0.0000
v  -0.4656 -0.0074 -0.0000
v  -0.4843 -0.0125 -0.0000
v  -0.3976 0.0283 0.0000
v  -0.4248 0.0113 0.0000
v  -0.4503 0.1218 0.0000
v  -0.4537 0.1252 0.0000
v  -0.4469 0.1218 0.0000
v  -0.4401 0.1252 0.0000
v  -0.4299 0.1371 0.0000
v  -0.4248 0.1490 0.0000
v  -0.4214 0.1558 0.0000
v  -0.5183 0.2697 0.0000
v  -0.4214 0.1660 0.0000
v  -0.4214 0.1796 0.0000
v  -0.5166 0.2748 0.0000
v  -0.5183 0.2731 0.0000
v  -0.4962 0.2782 0.0000
v  -0.5030 0.2782 0.0000
v  -0.4401 0.3734 0.0000
v  -0.4809 0.2748 0.0000
v  -0.6526 0.3139 0.0000
v  -0.6441 0.3309 0.0000
v  -0.6305 0.3428 0.0000
v  -0.6084 0.3547 0.0000
v  -0.5846 0.3649 0.0000
v  -0.4027 0.3530 0.0000
v  -0.4333 0.2221 0.0000
v  -0.4503 0.2527 0.0000
v  -0.4707 0.2714 0.0000
v  -0.5540 0.3751 0.0000
v  -0.5183 0.3819 0.0000
v  -0.3670 0.3173 0.0000
v  -0.4792 0.3819 0.0000
v  -0.3364 0.2663 0.0000
v  -0.3177 0.2085 0.0000
v  -0.3160 0.1592 0.0000
v  -0.3245 0.1167 0.0000
v  -0.3449 0.0810 0.0000
v  -0.3704 0.0504 0.0000
# 43 vertices

vn 0.0000 -0.0000 1.0000
vn 0.0000 0.0000 -1.0000
# 2 vertex normals

g dk01
usemtl Material__293
s 1
f 141//6 142//6 143//6 
f 143//6 142//6 144//6 
f 145//6 142//6 146//6 
f 146//6 142//6 141//6 
f 147//6 142//6 148//6 
f 148//6 142//6 145//6 
f 147//6 149//6 150//6 
f 147//6 150//6 142//6 
f 151//6 147//6 152//6 
f 149//6 147//6 151//6 
f 153//6 147//6 154//6 
f 152//6 147//6 153//6 
f 154//6 147//6 155//6 
f 142//6 150//6 156//6 
f 157//6 147//6 158//6 
f 155//6 147//6 157//6 
f 159//6 142//6 160//6 
f 160//6 142//6 156//6 
f 161//6 142//6 162//6 
f 162//6 142//6 159//6 
f 158//6 147//6 163//6 
f 164//7 142//7 161//7 
f 165//6 163//6 166//6 
f 142//6 163//6 165//6 
f 164//6 163//6 142//6 
f 166//6 163//6 167//6 
f 168//6 163//6 169//6 
f 167//6 163//6 168//6 
f 163//6 147//6 170//6 
f 158//6 163//6 171//6 
f 171//6 163//6 172//6 
f 172//6 163//6 173//6 
f 173//6 163//6 164//6 
f 174//6 163//6 175//6 
f 169//6 163//6 174//6 
f 170//6 147//6 176//6 
f 175//6 163//6 177//6 
f 178//6 147//6 179//6 
f 176//6 147//6 178//6 
f 180//6 147//6 181//6 
f 179//6 147//6 180//6 
f 182//6 147//6 183//6 
f 181//6 147//6 182//6 
# 0 polygons - 43 triangles

#
# object zelda03
#

v  -0.6033 -0.0533 -0.0000
v  -0.3466 -0.0533 -0.0000
v  -0.4741 0.1677 0.0000
# 3 vertices

vn 0.0000 -0.0000 1.0000
# 1 vertex normals

g zelda03
usemtl Material__293
s 1
f 184//8 185//8 186//8 
# 0 polygons - 1 triangles

#
# object zelda02
#

v  -0.3466 -0.0533 -0.0000
v  -0.0916 -0.0533 -0.0000
v  -0.2191 0.1677 0.0000
# 3 vertices

vn 0.0000 -0.0000 1.0000
# 1 vertex normals

g zelda02
usemtl Material__293
s 1
f 187//9 188//9 189//9 
# 0 polygons - 1 triangles

#
# object zelda01
#

v  -0.2191 0.1677 0.0000
v  -0.3466 0.3887 0.0000
v  -0.4741 0.1677 0.0000
# 3 vertices

vn 0.0000 -0.0000 1.0000
# 1 vertex normals

g zelda01
usemtl Material__293
s 1
f 190//10 191//10 192//10 
# 0 polygons - 1 triangles

#
# object metroid
#

v  -0.4282 -0.0108 -0.0000
v  -0.2140 0.1201 0.0000
v  -0.4826 -0.0108 -0.0000
v  -0.5489 -0.0652 -0.0000
v  -0.3500 -0.0227 -0.0000
v  -0.3874 -0.0193 -0.0000
v  -0.2650 -0.0057 -0.0000
v  -0.3058 -0.0176 -0.0000
v  -0.1919 0.0419 0.0000
v  -0.2259 0.0147 0.0000
v  -0.1647 0.0759 0.0000
v  -0.1443 0.1150 0.0000
v  -0.1919 0.3581 0.0000
v  -0.2174 0.3802 0.0000
v  -0.1647 0.3241 0.0000
v  -0.2327 0.3989 0.0000
v  -0.1324 0.2442 0.0000
v  -0.1443 0.2850 0.0000
v  -0.1324 0.1558 0.0000
v  -0.1273 0.2000 0.0000
v  -0.1511 0.4652 0.0000
v  -0.2718 0.4125 0.0000
v  -0.4826 0.0198 0.0000
v  -0.3619 0.1354 0.0000
v  -0.4860 0.2765 0.0000
v  -0.5081 0.3581 0.0000
v  -0.5081 0.0419 0.0000
v  -0.5353 0.3241 0.0000
v  -0.5353 0.0759 0.0000
v  -0.5540 0.1150 0.0000
v  -0.5557 0.2850 0.0000
v  -0.5676 0.1558 0.0000
v  -0.5676 0.2442 0.0000
v  -0.5727 0.2000 0.0000
v  -0.4741 0.3853 0.0000
v  -0.3942 0.4176 0.0000
v  -0.4350 0.4057 0.0000
v  -0.3126 0.4193 0.0000
v  -0.3500 0.4227 0.0000
v  -0.3381 0.2663 0.0000
# 40 vertices

vn 0.0000 -0.0000 1.0000
# 1 vertex normals

g metroid
usemtl Material__293
s 1
f 193//11 194//11 195//11 
f 193//11 195//11 196//11 
f 197//11 194//11 198//11 
f 198//11 194//11 193//11 
f 199//11 194//11 200//11 
f 200//11 194//11 197//11 
f 201//11 194//11 202//11 
f 202//11 194//11 199//11 
f 201//11 203//11 204//11 
f 201//11 204//11 194//11 
f 194//11 205//11 206//11 
f 204//11 205//11 194//11 
f 204//11 207//11 205//11 
f 194//11 206//11 208//11 
f 204//11 209//11 210//11 
f 204//11 210//11 207//11 
f 211//11 212//11 209//11 
f 211//11 209//11 204//11 
f 208//11 213//11 214//11 
f 208//11 206//11 213//11 
f 215//11 195//11 216//11 
f 195//11 215//11 196//11 
f 215//11 217//11 218//11 
f 215//11 216//11 217//11 
f 219//11 218//11 220//11 
f 215//11 218//11 219//11 
f 221//11 220//11 222//11 
f 219//11 220//11 221//11 
f 222//11 223//11 224//11 
f 222//11 220//11 223//11 
f 224//11 225//11 226//11 
f 224//11 223//11 225//11 
f 208//11 227//11 217//11 
f 217//11 227//11 218//11 
f 208//11 228//11 229//11 
f 208//11 229//11 227//11 
f 208//11 230//11 231//11 
f 208//11 231//11 228//11 
f 194//11 208//11 232//11 
f 208//11 214//11 230//11 
# 0 polygons - 40 triangles

#
# object yoshi
#

v  -0.5693 0.1796 0.0000
v  -0.5710 0.2510 0.0000
v  -0.5880 0.2153 0.0000
v  -0.5965 0.1813 0.0000
v  -0.5608 0.2085 0.0000
v  -0.5540 0.2255 0.0000
v  -0.5897 0.0827 0.0000
v  -0.5982 0.1150 0.0000
v  -0.5727 0.1541 0.0000
v  -0.5999 0.1473 0.0000
v  -0.5761 0.0538 0.0000
v  -0.5710 0.1286 0.0000
v  -0.5574 0.0266 0.0000
v  -0.5659 0.1031 0.0000
v  -0.5353 0.0028 0.0000
v  -0.5574 0.0776 0.0000
v  -0.5217 0.0266 0.0000
v  -0.5421 0.0504 0.0000
v  -0.5098 -0.0193 -0.0000
v  -0.4962 0.0045 0.0000
v  -0.4792 -0.0380 -0.0000
v  -0.4673 -0.0125 -0.0000
v  -0.4452 -0.0516 -0.0000
v  -0.4469 -0.0227 -0.0000
v  -0.4095 -0.0618 -0.0000
v  -0.4265 -0.0295 -0.0000
v  -0.4078 0.0045 0.0000
v  -0.4163 -0.0125 -0.0000
v  -0.3755 -0.0669 -0.0000
v  -0.4010 0.0232 0.0000
v  -0.2497 0.1133 0.0000
v  -0.3959 0.0657 0.0000
v  -0.3704 0.3326 0.0000
v  -0.3976 0.0912 0.0000
v  -0.4010 0.3275 0.0000
v  -0.4027 0.1150 0.0000
v  -0.4129 0.1388 0.0000
v  -0.4265 0.1592 0.0000
v  -0.4282 0.3309 0.0000
v  -0.4418 0.1779 0.0000
v  -0.4605 0.1949 0.0000
v  -0.4639 0.3479 0.0000
v  -0.4605 0.3870 0.0000
v  -0.4809 0.2068 0.0000
v  -0.4945 0.3564 0.0000
v  -0.5030 0.2170 0.0000
v  -0.5234 0.3241 0.0000
v  -0.5285 0.2238 0.0000
v  -0.5506 0.2884 0.0000
v  -0.4350 0.3717 0.0000
v  -0.4044 0.3904 0.0000
v  -0.4248 0.4108 0.0000
v  -0.3687 0.4074 0.0000
v  -0.3857 0.4295 0.0000
v  -0.3449 0.3445 0.0000
v  -0.3466 0.4397 0.0000
v  -0.3398 0.4159 0.0000
v  -0.3075 0.4431 0.0000
v  -0.3126 0.4176 0.0000
v  -0.3228 0.3632 0.0000
v  -0.2956 0.4142 0.0000
v  -0.3058 0.3870 0.0000
v  -0.2514 0.1354 0.0000
v  -0.2684 0.4346 0.0000
v  -0.2480 0.1660 0.0000
v  -0.2327 0.4159 0.0000
v  -0.2208 0.2187 0.0000
v  -0.2378 0.1949 0.0000
v  -0.2004 0.2391 0.0000
v  -0.2038 0.3887 0.0000
v  -0.1749 0.2544 0.0000
v  -0.1817 0.3547 0.0000
v  -0.1528 0.2748 0.0000
v  -0.1647 0.3156 0.0000
v  -0.1698 0.1966 0.0000
v  -0.1715 0.2340 0.0000
v  -0.1647 0.0623 0.0000
v  -0.1698 0.1575 0.0000
v  -0.1783 0.1031 0.0000
v  -0.1800 0.0283 0.0000
v  -0.1936 0.0572 0.0000
v  -0.1987 0.0011 0.0000
v  -0.2038 0.0368 0.0000
v  -0.2208 0.0521 0.0000
v  -0.2225 -0.0227 -0.0000
v  -0.2327 0.0708 0.0000
v  -0.2480 -0.0414 -0.0000
v  -0.2429 0.0912 0.0000
v  -0.2769 -0.0550 -0.0000
v  -0.3075 -0.0635 -0.0000
v  -0.3415 -0.0686 -0.0000
v  -0.1528 0.0997 0.0000
v  -0.1460 0.1405 0.0000
v  -0.1460 0.2289 0.0000
v  -0.1443 0.1847 0.0000
# 95 vertices

vn 0.0000 -0.0000 1.0000
# 1 vertex normals

g yoshi
usemtl Material__293
s 1
f 233//12 234//12 235//12 
f 233//12 235//12 236//12 
f 237//12 238//12 234//12 
f 237//12 234//12 233//12 
f 239//12 236//12 240//12 
f 239//12 233//12 236//12 
f 239//12 241//12 233//12 
f 240//12 236//12 242//12 
f 243//12 244//12 241//12 
f 243//12 241//12 239//12 
f 245//12 246//12 244//12 
f 245//12 244//12 243//12 
f 247//12 248//12 245//12 
f 245//12 248//12 246//12 
f 247//12 249//12 250//12 
f 247//12 250//12 248//12 
f 251//12 252//12 249//12 
f 251//12 249//12 247//12 
f 253//12 254//12 252//12 
f 253//12 252//12 251//12 
f 255//12 256//12 254//12 
f 255//12 254//12 253//12 
f 257//12 258//12 255//12 
f 255//12 258//12 256//12 
f 257//12 259//12 260//12 
f 257//12 260//12 258//12 
f 261//12 262//12 259//12 
f 261//12 259//12 257//12 
f 261//12 263//12 264//12 
f 261//12 264//12 262//12 
f 263//12 265//12 266//12 
f 264//12 263//12 266//12 
f 266//12 267//12 268//12 
f 266//12 265//12 267//12 
f 269//12 267//12 270//12 
f 268//12 267//12 269//12 
f 270//12 271//12 272//12 
f 270//12 267//12 271//12 
f 273//12 271//12 274//12 
f 272//12 271//12 273//12 
f 274//12 275//12 276//12 
f 273//12 274//12 276//12 
f 276//12 277//12 278//12 
f 276//12 275//12 277//12 
f 278//12 279//12 280//12 
f 278//12 277//12 279//12 
f 280//12 281//12 238//12 
f 280//12 279//12 281//12 
f 282//12 275//12 274//12 
f 238//12 281//12 234//12 
f 282//12 283//12 284//12 
f 282//12 284//12 275//12 
f 285//12 286//12 283//12 
f 283//12 286//12 284//12 
f 263//12 287//12 265//12 
f 285//12 288//12 286//12 
f 289//12 290//12 288//12 
f 289//12 288//12 285//12 
f 291//12 290//12 289//12 
f 263//12 292//12 287//12 
f 263//12 293//12 294//12 
f 263//12 294//12 292//12 
f 295//12 296//12 293//12 
f 293//12 263//12 295//12 
f 293//12 290//12 291//12 
f 293//12 296//12 290//12 
f 297//12 298//12 295//12 
f 295//12 298//12 296//12 
f 299//12 298//12 300//12 
f 300//12 298//12 297//12 
f 301//12 302//12 299//12 
f 299//12 302//12 298//12 
f 303//12 304//12 301//12 
f 301//12 304//12 302//12 
f 303//12 305//12 306//12 
f 303//12 306//12 304//12 
f 307//12 305//12 308//12 
f 308//12 305//12 303//12 
f 309//12 307//12 310//12 
f 309//12 305//12 307//12 
f 309//12 311//12 312//12 
f 309//12 310//12 311//12 
f 312//12 313//12 314//12 
f 312//12 311//12 313//12 
f 314//12 315//12 316//12 
f 314//12 313//12 315//12 
f 317//12 316//12 318//12 
f 314//12 316//12 317//12 
f 319//12 320//12 263//12 
f 317//12 318//12 320//12 
f 321//12 263//12 322//12 
f 319//12 263//12 321//12 
f 323//12 263//12 261//12 
f 322//12 263//12 323//12 
f 324//12 305//12 309//12 
f 317//12 320//12 319//12 
f 325//12 326//12 305//12 
f 325//12 305//12 324//12 
f 325//12 327//12 326//12 
# 0 polygons - 99 triangles

#
# object kirby
#

v  -0.4860 -0.0227 -0.0000
v  -0.4843 0.0963 0.0000
v  -0.4860 0.0419 0.0000
v  -0.4877 -0.0023 -0.0000
v  -0.4826 -0.0380 -0.0000
v  -0.4826 0.1303 0.0000
v  -0.4741 -0.0465 -0.0000
v  -0.4571 0.3003 0.0000
v  -0.4469 -0.0414 -0.0000
v  -0.4622 -0.0482 -0.0000
v  -0.4894 0.2918 0.0000
v  -0.4486 0.3343 0.0000
v  -0.5115 0.1473 0.0000
v  -0.5421 0.2765 0.0000
v  -0.5574 0.1779 0.0000
v  -0.5846 0.2646 0.0000
v  -0.5931 0.2017 0.0000
v  -0.6033 0.2561 0.0000
v  -0.6101 0.2153 0.0000
v  -0.6169 0.2476 0.0000
v  -0.6203 0.2272 0.0000
v  -0.6237 0.2391 0.0000
v  -0.4299 -0.0312 -0.0000
v  -0.4350 0.3887 0.0000
v  -0.3942 -0.0057 -0.0000
v  -0.4231 0.4312 0.0000
v  -0.4078 0.4652 0.0000
v  -0.4163 0.4516 0.0000
v  -0.3857 0.4686 0.0000
v  -0.3976 0.4720 0.0000
v  -0.3500 0.0283 0.0000
v  -0.3738 0.4584 0.0000
v  -0.3347 0.4057 0.0000
v  -0.3602 0.4431 0.0000
v  -0.3228 0.0504 0.0000
v  -0.3024 0.3598 0.0000
v  -0.2922 0.0385 0.0000
v  -0.2837 0.3309 0.0000
v  -0.2378 0.0232 0.0000
v  -0.2497 0.3343 0.0000
v  -0.2021 0.1796 0.0000
v  -0.1953 0.3377 0.0000
v  -0.1953 0.0113 0.0000
v  -0.1885 0.1490 0.0000
v  -0.1766 0.0062 0.0000
v  -0.1681 0.0980 0.0000
v  -0.1596 0.0062 0.0000
v  -0.1528 0.0572 0.0000
v  -0.1494 0.0113 0.0000
v  -0.1460 0.0385 0.0000
v  -0.1800 0.2051 0.0000
v  -0.1443 0.0215 0.0000
v  -0.1477 0.2493 0.0000
v  -0.1511 0.3394 0.0000
v  -0.1222 0.2850 0.0000
v  -0.1307 0.3394 0.0000
v  -0.1103 0.3020 0.0000
v  -0.1154 0.3377 0.0000
v  -0.1052 0.3173 0.0000
v  -0.1069 0.3292 0.0000
# 60 vertices

vn 0.0000 -0.0000 1.0000
# 1 vertex normals

g kirby
usemtl Material__293
s 1
f 328//13 329//13 330//13 
f 328//13 330//13 331//13 
f 332//13 333//13 329//13 
f 332//13 329//13 328//13 
f 334//13 335//13 333//13 
f 334//13 333//13 332//13 
f 336//13 335//13 337//13 
f 337//13 335//13 334//13 
f 333//13 335//13 338//13 
f 336//13 339//13 335//13 
f 340//13 338//13 341//13 
f 333//13 338//13 340//13 
f 342//13 341//13 343//13 
f 340//13 341//13 342//13 
f 344//13 343//13 345//13 
f 342//13 343//13 344//13 
f 346//13 345//13 347//13 
f 344//13 345//13 346//13 
f 348//13 347//13 349//13 
f 346//13 347//13 348//13 
f 350//13 351//13 336//13 
f 336//13 351//13 339//13 
f 352//13 353//13 350//13 
f 350//13 353//13 351//13 
f 352//13 354//13 355//13 
f 352//13 355//13 353//13 
f 352//13 356//13 357//13 
f 352//13 357//13 354//13 
f 358//13 359//13 356//13 
f 358//13 356//13 352//13 
f 358//13 360//13 361//13 
f 358//13 361//13 359//13 
f 362//13 363//13 360//13 
f 362//13 360//13 358//13 
f 364//13 365//13 363//13 
f 364//13 363//13 362//13 
f 366//13 367//13 365//13 
f 366//13 365//13 364//13 
f 368//13 369//13 366//13 
f 366//13 369//13 367//13 
f 370//13 371//13 368//13 
f 370//13 368//13 366//13 
f 372//13 373//13 371//13 
f 372//13 371//13 370//13 
f 374//13 375//13 373//13 
f 374//13 373//13 372//13 
f 376//13 377//13 375//13 
f 376//13 375//13 374//13 
f 378//13 369//13 368//13 
f 376//13 379//13 377//13 
f 380//13 381//13 378//13 
f 378//13 381//13 369//13 
f 382//13 383//13 380//13 
f 380//13 383//13 381//13 
f 384//13 385//13 382//13 
f 382//13 385//13 383//13 
f 384//13 386//13 387//13 
f 384//13 387//13 385//13 
# 0 polygons - 58 triangles

#
# object starfox
#

v  -0.6101 0.1201 0.0000
v  -0.5999 0.1405 0.0000
v  -0.6118 0.1422 0.0000
v  -0.6169 0.1337 0.0000
v  -0.5897 0.1133 0.0000
v  -0.5829 0.1473 0.0000
v  -0.5574 0.1116 0.0000
v  -0.5540 0.1728 0.0000
v  -0.5268 0.1133 0.0000
v  -0.5421 0.1915 0.0000
v  -0.5285 0.2476 0.0000
v  -0.5302 0.2017 0.0000
v  -0.5030 0.1201 0.0000
v  -0.5047 0.2119 0.0000
v  -0.4894 0.1252 0.0000
v  -0.4928 0.1966 0.0000
v  -0.4673 0.1150 0.0000
v  -0.4707 0.1915 0.0000
v  -0.4282 0.1966 0.0000
v  -0.5319 0.2391 0.0000
v  -0.4214 0.0691 0.0000
v  -0.4435 0.0946 0.0000
v  -0.4095 0.0096 0.0000
v  -0.4163 0.2068 0.0000
v  -0.4129 0.4363 0.0000
v  -0.4384 0.2289 0.0000
v  -0.3908 0.2221 0.0000
v  -0.3721 0.4499 0.0000
v  -0.3891 -0.0091 -0.0000
v  -0.3925 0.0215 0.0000
v  -0.3704 -0.0125 -0.0000
v  -0.3840 0.0130 0.0000
v  -0.3602 -0.0006 -0.0000
v  -0.3687 0.0113 0.0000
v  -0.3891 0.0623 0.0000
v  -0.3789 0.2102 0.0000
v  -0.3585 0.0827 0.0000
v  -0.2990 0.2102 0.0000
v  -0.3160 0.1048 0.0000
v  -0.3313 0.1133 0.0000
v  -0.2973 0.0623 0.0000
v  -0.3109 0.0742 0.0000
v  -0.2616 0.0827 0.0000
v  -0.2599 0.2204 0.0000
v  -0.2514 0.0453 0.0000
v  -0.2429 0.0691 0.0000
v  -0.2497 0.0028 0.0000
v  -0.2565 0.0266 0.0000
v  -0.2769 -0.0244 -0.0000
v  -0.2939 -0.0108 -0.0000
v  -0.2939 -0.0380 -0.0000
v  -0.3126 -0.0074 -0.0000
v  -0.3211 -0.0380 -0.0000
v  -0.3296 -0.0261 -0.0000
v  -0.2242 0.0334 0.0000
v  -0.2276 0.0674 0.0000
v  -0.2174 0.0453 0.0000
v  -0.2174 0.0606 0.0000
v  -0.2480 0.0997 0.0000
v  -0.2157 0.2153 0.0000
v  -0.2072 0.1303 0.0000
v  -0.2242 0.1150 0.0000
v  -0.1987 0.1541 0.0000
v  -0.2055 0.2000 0.0000
v  -0.1987 0.2051 0.0000
v  -0.2055 0.2221 0.0000
v  -0.1545 0.2000 0.0000
v  -0.1647 0.2561 0.0000
v  -0.1137 0.2017 0.0000
v  -0.1290 0.2782 0.0000
v  -0.0610 0.2085 0.0000
v  -0.0967 0.2850 0.0000
v  -0.0321 0.2867 0.0000
v  -0.0644 0.2867 0.0000
v  -0.0185 0.2340 0.0000
v  0.0053 0.2969 0.0000
v  0.0155 0.2731 0.0000
v  0.0393 0.3139 0.0000
v  -0.3704 0.2731 0.0000
v  -0.3874 0.2459 0.0000
v  -0.3432 0.2901 0.0000
v  -0.3160 0.4516 0.0000
v  -0.2905 0.2952 0.0000
v  -0.2582 0.4516 0.0000
v  -0.2480 0.3037 0.0000
v  -0.2038 0.4635 0.0000
v  -0.1698 0.3530 0.0000
v  -0.2089 0.3241 0.0000
v  -0.1460 0.3853 0.0000
v  -0.1562 0.4907 0.0000
v  -0.1290 0.4244 0.0000
v  -0.1137 0.5281 0.0000
v  -0.4775 0.2935 0.0000
v  -0.4741 0.3683 0.0000
v  -0.4809 0.3275 0.0000
v  -0.4571 0.2561 0.0000
v  -0.4486 0.4091 0.0000
# 97 vertices

vn 0.0000 -0.0000 1.0000
# 1 vertex normals

g starfox
usemtl Material__293
s 1
f 388//14 389//14 390//14 
f 388//14 390//14 391//14 
f 392//14 393//14 389//14 
f 392//14 389//14 388//14 
f 394//14 395//14 393//14 
f 394//14 393//14 392//14 
f 396//14 397//14 395//14 
f 396//14 395//14 394//14 
f 396//14 398//14 399//14 
f 396//14 399//14 397//14 
f 400//14 401//14 396//14 
f 396//14 401//14 398//14 
f 402//14 403//14 400//14 
f 400//14 403//14 401//14 
f 404//14 405//14 402//14 
f 402//14 405//14 403//14 
f 404//14 406//14 405//14 
f 399//14 398//14 407//14 
f 408//14 406//14 409//14 
f 409//14 406//14 404//14 
f 410//14 411//14 408//14 
f 408//14 411//14 406//14 
f 411//14 412//14 413//14 
f 410//14 412//14 411//14 
f 414//14 415//14 410//14 
f 410//14 415//14 412//14 
f 416//14 417//14 410//14 
f 417//14 414//14 410//14 
f 418//14 419//14 416//14 
f 416//14 419//14 417//14 
f 418//14 420//14 421//14 
f 418//14 421//14 419//14 
f 422//14 423//14 414//14 
f 422//14 414//14 417//14 
f 424//14 425//14 423//14 
f 424//14 423//14 422//14 
f 426//14 425//14 427//14 
f 427//14 425//14 424//14 
f 428//14 425//14 429//14 
f 429//14 425//14 426//14 
f 430//14 431//14 428//14 
f 428//14 431//14 425//14 
f 432//14 433//14 430//14 
f 432//14 430//14 428//14 
f 434//14 432//14 435//14 
f 434//14 433//14 432//14 
f 436//14 435//14 437//14 
f 434//14 435//14 436//14 
f 438//14 437//14 439//14 
f 436//14 437//14 438//14 
f 440//14 439//14 441//14 
f 438//14 439//14 440//14 
f 442//14 443//14 433//14 
f 442//14 433//14 434//14 
f 442//14 444//14 445//14 
f 442//14 445//14 443//14 
f 446//14 447//14 431//14 
f 446//14 431//14 430//14 
f 448//14 447//14 449//14 
f 449//14 447//14 446//14 
f 448//14 450//14 451//14 
f 448//14 451//14 447//14 
f 452//14 453//14 451//14 
f 451//14 453//14 447//14 
f 454//14 455//14 452//14 
f 452//14 455//14 453//14 
f 456//14 457//14 454//14 
f 454//14 457//14 455//14 
f 458//14 459//14 456//14 
f 456//14 459//14 457//14 
f 458//14 460//14 461//14 
f 458//14 461//14 459//14 
f 462//14 463//14 460//14 
f 462//14 460//14 458//14 
f 464//14 465//14 463//14 
f 464//14 463//14 462//14 
f 466//14 415//14 467//14 
f 467//14 415//14 414//14 
f 468//14 469//14 466//14 
f 466//14 469//14 415//14 
f 470//14 471//14 469//14 
f 470//14 469//14 468//14 
f 472//14 473//14 471//14 
f 472//14 471//14 470//14 
f 474//14 473//14 475//14 
f 475//14 473//14 472//14 
f 476//14 477//14 474//14 
f 474//14 477//14 473//14 
f 476//14 478//14 479//14 
f 476//14 479//14 477//14 
f 480//14 481//14 482//14 
f 483//14 481//14 480//14 
f 413//14 484//14 483//14 
f 483//14 484//14 481//14 
f 413//14 412//14 484//14 
# 0 polygons - 95 triangles

#
# object pokemon02
#

v  -0.4282 0.1745 0.0000
v  -0.4163 0.2476 0.0000
v  -0.4282 0.2255 0.0000
v  -0.4316 0.2000 0.0000
v  -0.4163 0.1524 0.0000
v  -0.3976 0.2663 0.0000
v  -0.3976 0.1337 0.0000
v  -0.3755 0.2782 0.0000
v  -0.3755 0.1218 0.0000
v  -0.3500 0.2816 0.0000
v  -0.3500 0.1184 0.0000
v  -0.3245 0.2782 0.0000
v  -0.3245 0.1218 0.0000
v  -0.3024 0.2663 0.0000
v  -0.3024 0.1337 0.0000
v  -0.2837 0.2476 0.0000
v  -0.2837 0.1524 0.0000
v  -0.2718 0.2255 0.0000
v  -0.2718 0.1745 0.0000
v  -0.2684 0.2000 0.0000
# 20 vertices

vn 0.0000 -0.0000 1.0000
# 1 vertex normals

g pokemon02
usemtl Material__293
s 1
f 485//15 486//15 487//15 
f 485//15 487//15 488//15 
f 489//15 490//15 486//15 
f 489//15 486//15 485//15 
f 491//15 492//15 490//15 
f 491//15 490//15 489//15 
f 493//15 494//15 492//15 
f 493//15 492//15 491//15 
f 495//15 496//15 494//15 
f 495//15 494//15 493//15 
f 497//15 498//15 496//15 
f 497//15 496//15 495//15 
f 499//15 500//15 498//15 
f 499//15 498//15 497//15 
f 501//15 502//15 500//15 
f 501//15 500//15 499//15 
f 503//15 504//15 502//15 
f 503//15 502//15 501//15 
# 0 polygons - 18 triangles

#
# object pokemon01
#

v  -0.5302 0.0198 0.0000
v  -0.4809 0.1711 0.0000
v  -0.5557 0.0504 0.0000
v  -0.4996 -0.0057 -0.0000
v  -0.5761 0.0844 0.0000
v  -0.4656 -0.0261 -0.0000
v  -0.5931 0.1218 0.0000
v  -0.5999 0.1456 0.0000
v  -0.4775 0.1592 0.0000
v  -0.6016 0.1711 0.0000
v  -0.4282 -0.0431 -0.0000
v  -0.4588 0.1201 0.0000
v  -0.3908 0.0725 0.0000
v  -0.4299 0.0912 0.0000
v  -0.3891 -0.0516 -0.0000
v  -0.3500 0.0657 0.0000
v  -0.3500 -0.0550 -0.0000
v  -0.3092 0.0725 0.0000
v  -0.2718 -0.0431 -0.0000
v  -0.3109 -0.0516 -0.0000
v  -0.2344 -0.0261 -0.0000
v  -0.2701 0.0912 0.0000
v  -0.2225 0.1592 0.0000
v  -0.2412 0.1201 0.0000
v  -0.2004 -0.0057 -0.0000
v  -0.2191 0.1711 0.0000
v  -0.1698 0.0198 0.0000
v  -0.0984 0.1694 0.0000
v  -0.1239 0.0844 0.0000
v  -0.1443 0.0504 0.0000
v  -0.1069 0.1218 0.0000
v  -0.1001 0.1456 0.0000
v  -0.4809 0.2289 0.0000
v  -0.5931 0.2782 0.0000
v  -0.5999 0.2544 0.0000
v  -0.6016 0.2289 0.0000
v  -0.5557 0.3496 0.0000
v  -0.5761 0.3156 0.0000
v  -0.4996 0.4057 0.0000
v  -0.5302 0.3802 0.0000
v  -0.4775 0.2408 0.0000
v  -0.4656 0.4261 0.0000
v  -0.4588 0.2799 0.0000
v  -0.4282 0.4431 0.0000
v  -0.3908 0.3275 0.0000
v  -0.4299 0.3088 0.0000
v  -0.3500 0.3343 0.0000
v  -0.3891 0.4516 0.0000
v  -0.3109 0.4516 0.0000
v  -0.3500 0.4550 0.0000
v  -0.3092 0.3275 0.0000
v  -0.2718 0.4431 0.0000
v  -0.2701 0.3088 0.0000
v  -0.2344 0.4261 0.0000
v  -0.2225 0.2408 0.0000
v  -0.2412 0.2799 0.0000
v  -0.2191 0.2289 0.0000
v  -0.2004 0.4057 0.0000
v  -0.0984 0.2289 0.0000
v  -0.1698 0.3802 0.0000
v  -0.1239 0.3156 0.0000
v  -0.1443 0.3496 0.0000
v  -0.1001 0.2544 0.0000
v  -0.1069 0.2782 0.0000
# 64 vertices

vn 0.0000 -0.0000 1.0000
# 1 vertex normals

g pokemon01
usemtl Material__293
s 1
f 505//16 506//16 507//16 
f 508//16 506//16 505//16 
f 507//16 506//16 509//16 
f 510//16 506//16 508//16 
f 511//16 506//16 512//16 
f 509//16 506//16 511//16 
f 510//16 513//16 506//16 
f 512//16 506//16 514//16 
f 515//16 516//16 510//16 
f 510//16 516//16 513//16 
f 515//16 517//16 518//16 
f 515//16 518//16 516//16 
f 519//16 520//16 517//16 
f 519//16 517//16 515//16 
f 521//16 522//16 520//16 
f 521//16 520//16 519//16 
f 523//16 522//16 524//16 
f 524//16 522//16 521//16 
f 525//16 526//16 523//16 
f 523//16 526//16 522//16 
f 525//16 527//16 528//16 
f 525//16 528//16 526//16 
f 529//16 530//16 527//16 
f 529//16 527//16 525//16 
f 531//16 532//16 529//16 
f 529//16 532//16 530//16 
f 533//16 532//16 534//16 
f 534//16 532//16 531//16 
f 535//16 536//16 532//16 
f 535//16 532//16 533//16 
f 537//16 538//16 539//16 
f 537//16 539//16 540//16 
f 537//16 541//16 542//16 
f 537//16 542//16 538//16 
f 537//16 543//16 544//16 
f 537//16 544//16 541//16 
f 545//16 546//16 537//16 
f 537//16 546//16 543//16 
f 547//16 548//16 546//16 
f 547//16 546//16 545//16 
f 549//16 548//16 550//16 
f 550//16 548//16 547//16 
f 551//16 552//16 549//16 
f 549//16 552//16 548//16 
f 551//16 553//16 554//16 
f 551//16 554//16 552//16 
f 555//16 556//16 553//16 
f 555//16 553//16 551//16 
f 557//16 558//16 556//16 
f 557//16 556//16 555//16 
f 559//16 558//16 560//16 
f 560//16 558//16 557//16 
f 561//16 562//16 559//16 
f 559//16 562//16 558//16 
f 563//16 564//16 562//16 
f 563//16 562//16 561//16 
f 563//16 565//16 566//16 
f 563//16 566//16 564//16 
f 563//16 567//16 568//16 
f 563//16 568//16 565//16 
# 0 polygons - 60 triangles

#
# object fzero
#

v  -0.6084 0.1609 0.0000
v  -0.5098 0.3955 0.0000
v  -0.6271 0.2493 0.0000
v  -0.6560 0.2255 0.0000
v  -0.5268 0.1150 0.0000
v  -0.5761 0.1796 0.0000
v  -0.6560 0.3258 0.0000
v  -0.5948 0.1490 0.0000
v  -0.6628 0.2391 0.0000
v  -0.6900 0.3105 0.0000
v  -0.6951 0.3309 0.0000
v  -0.7070 0.3921 0.0000
v  -0.5098 0.3734 0.0000
v  -0.7138 0.4499 0.0000
v  -0.4962 0.1388 0.0000
v  -0.5081 0.3513 0.0000
v  -0.4979 0.3122 0.0000
v  -0.5047 0.3326 0.0000
v  -0.4605 0.1031 0.0000
v  -0.4877 0.2952 0.0000
v  -0.4724 0.2816 0.0000
v  -0.5064 0.1099 0.0000
v  -0.4095 0.1065 0.0000
v  -0.4503 0.2697 0.0000
v  -0.4435 0.2680 0.0000
v  -0.4503 0.2816 0.0000
v  -0.3925 0.2595 0.0000
v  -0.4197 0.2612 0.0000
v  -0.4027 0.0283 0.0000
v  -0.4197 0.0708 0.0000
v  -0.4282 0.0079 0.0000
v  -0.4571 0.0062 0.0000
v  -0.3857 0.0470 0.0000
v  -0.4588 0.0164 0.0000
v  -0.3755 -0.0006 -0.0000
v  -0.3738 0.3428 0.0000
v  -0.3891 0.0249 0.0000
v  -0.3925 -0.0006 -0.0000
v  -0.3653 0.0113 0.0000
v  -0.3959 0.0045 0.0000
v  -0.3568 0.0300 0.0000
v  -0.3313 0.3513 0.0000
v  -0.3449 0.0300 0.0000
v  -0.3500 0.0470 0.0000
v  -0.3262 -0.0006 -0.0000
v  -0.3347 0.0113 0.0000
v  -0.3160 0.0470 0.0000
v  -0.3092 0.2595 0.0000
v  -0.3075 -0.0006 -0.0000
v  -0.3109 0.0249 0.0000
v  -0.2990 0.0283 0.0000
v  -0.3058 0.0062 0.0000
v  -0.2905 0.1065 0.0000
v  -0.2854 0.2629 0.0000
v  -0.2718 0.0079 0.0000
v  -0.2820 0.0708 0.0000
v  -0.2446 0.0062 0.0000
v  -0.2412 0.0164 0.0000
v  -0.2395 0.1031 0.0000
v  -0.3942 0.3343 0.0000
v  -0.3959 0.2663 0.0000
v  -0.4061 0.3122 0.0000
v  -0.4180 0.2714 0.0000
v  -0.4231 0.3054 0.0000
v  -0.4452 0.2918 0.0000
v  -0.4061 0.3190 0.0000
v  -0.2378 0.2765 0.0000
v  -0.2633 0.2680 0.0000
v  -0.2038 0.1388 0.0000
v  -0.1953 0.1099 0.0000
v  -0.2021 0.3122 0.0000
v  -0.2174 0.2901 0.0000
v  -0.1732 0.1150 0.0000
v  -0.1953 0.3394 0.0000
v  0.0121 0.4499 0.0000
v  -0.1919 0.3666 0.0000
v  -0.1256 0.1796 0.0000
v  -0.1069 0.1490 0.0000
v  -0.0746 0.2493 0.0000
v  -0.0457 0.3258 0.0000
v  -0.0933 0.1609 0.0000
v  -0.0457 0.2255 0.0000
v  -0.0389 0.2391 0.0000
v  -0.0117 0.3105 0.0000
v  -0.0066 0.3309 0.0000
v  -0.1919 0.3955 0.0000
v  -0.2888 0.3020 0.0000
v  -0.2990 0.3666 0.0000
v  0.0070 0.3921 0.0000
v  -0.2752 0.3887 0.0000
v  -0.2803 0.3428 0.0000
# 91 vertices

vn 0.0000 -0.0000 1.0000
vn 1.0000 0.0000 -0.0000
# 2 vertex normals

g fzero
usemtl Material__293
s 1
f 569//17 570//17 571//17 
f 569//17 571//17 572//17 
f 573//17 570//17 574//17 
f 574//17 570//17 569//17 
f 571//17 570//17 575//17 
f 573//17 574//17 576//17 
f 577//17 575//17 578//17 
f 571//17 575//17 577//17 
f 579//17 570//17 580//17 
f 575//17 570//17 579//17 
f 573//17 581//17 570//17 
f 580//17 570//17 582//17 
f 583//17 584//17 581//17 
f 583//17 581//17 573//17 
f 583//17 585//17 586//17 
f 583//17 586//17 584//17 
f 587//17 588//17 583//17 
f 583//17 588//17 585//17 
f 587//17 589//17 588//17 
f 587//17 583//17 590//17 
f 591//17 592//17 587//17 
f 587//17 592//17 589//17 
f 591//17 593//17 594//17 
f 591//17 594//17 592//17 
f 591//17 595//17 596//17 
f 591//17 596//17 593//17 
f 597//17 591//17 598//17 
f 597//17 595//17 591//17 
f 599//17 598//17 600//17 
f 597//17 598//17 599//17 
f 601//17 595//17 597//17 
f 600//17 598//17 602//17 
f 603//17 604//17 601//17 
f 601//17 604//17 595//17 
f 603//17 605//17 606//17 
f 603//17 601//17 605//17 
f 607//17 604//17 603//17 
f 606//17 605//17 608//17 
f 609//17 610//17 607//17 
f 607//17 610//17 604//17 
f 611//17 610//17 612//17 
f 612//17 610//17 609//17 
f 613//17 610//17 614//17 
f 614//17 610//17 611//17 
f 615//17 616//17 613//17 
f 613//17 616//17 610//17 
f 617//17 618//17 615//17 
f 617//17 615//17 613//17 
f 619//17 616//17 615//17 
f 617//17 620//17 618//17 
f 621//17 622//17 619//17 
f 619//17 622//17 616//17 
f 623//17 624//17 621//17 
f 623//17 621//17 619//17 
f 623//17 625//17 626//17 
f 623//17 626//17 624//17 
f 627//17 622//17 621//17 
f 621//18 622//18 621//18 
f 595//17 604//17 628//17 
f 629//17 628//17 630//17 
f 595//17 628//17 629//17 
f 631//17 630//17 632//17 
f 629//17 630//17 631//17 
f 593//17 632//17 633//17 
f 593//17 631//17 632//17 
f 630//17 628//17 634//17 
f 593//17 633//17 594//17 
f 627//17 635//17 636//17 
f 627//17 636//17 622//17 
f 637//17 627//17 638//17 
f 637//17 635//17 627//17 
f 637//17 639//17 640//17 
f 637//17 640//17 635//17 
f 641//17 642//17 639//17 
f 641//17 639//17 637//17 
f 641//17 643//17 644//17 
f 641//17 644//17 642//17 
f 645//17 641//17 646//17 
f 645//17 643//17 641//17 
f 647//17 648//17 645//17 
f 648//17 643//17 645//17 
f 649//17 650//17 647//17 
f 649//17 647//17 645//17 
f 651//17 652//17 648//17 
f 651//17 648//17 647//17 
f 653//17 643//17 648//17 
f 644//17 643//17 654//17 
f 655//17 656//17 616//17 
f 653//17 657//17 643//17 
f 655//17 658//17 656//17 
f 616//17 656//17 610//17 
f 655//17 659//17 658//17 
# 0 polygons - 92 triangles

#
# object earthbound
#

v  -0.5523 0.2816 0.0000
v  -0.5540 0.3547 0.0000
v  -0.5744 0.3207 0.0000
v  -0.5914 0.2850 0.0000
v  -0.5387 0.2765 0.0000
v  -0.5285 0.3836 0.0000
v  -0.5200 0.3088 0.0000
v  -0.5149 0.3275 0.0000
v  -0.4945 0.2765 0.0000
v  -0.4996 0.3173 0.0000
v  -0.4605 0.3071 0.0000
v  -0.4605 0.3394 0.0000
v  -0.4384 0.3088 0.0000
v  -0.4452 0.3360 0.0000
v  -0.5064 0.3649 0.0000
v  -0.4996 0.4091 0.0000
v  -0.4707 0.4125 0.0000
v  -0.4656 0.4295 0.0000
v  -0.3500 0.4465 0.0000
v  -0.4299 0.4465 0.0000
v  -0.3500 0.4584 0.0000
v  -0.3908 0.4550 0.0000
v  -0.2786 0.4346 0.0000
v  -0.3092 0.4550 0.0000
v  -0.2072 0.3989 0.0000
v  -0.2701 0.4465 0.0000
v  -0.2004 0.4091 0.0000
v  -0.2344 0.4295 0.0000
v  -0.1562 0.3428 0.0000
v  -0.1715 0.3836 0.0000
v  -0.1171 0.2680 0.0000
v  -0.1460 0.3547 0.0000
v  -0.1103 0.2850 0.0000
v  -0.1256 0.3207 0.0000
v  -0.0967 0.2051 0.0000
v  -0.1188 0.2680 0.0000
v  -0.1511 0.2255 0.0000
v  -0.1545 0.2714 0.0000
v  -0.1630 0.2340 0.0000
v  -0.1749 0.2374 0.0000
v  -0.1766 0.3071 0.0000
v  -0.1834 0.3156 0.0000
v  -0.1936 0.2289 0.0000
v  -0.1936 0.2833 0.0000
v  -0.2327 0.2833 0.0000
v  -0.2038 0.2901 0.0000
v  -0.2480 0.2527 0.0000
v  -0.2650 0.3071 0.0000
v  -0.2701 0.2867 0.0000
v  -0.2786 0.2714 0.0000
v  -0.2769 0.3139 0.0000
v  -0.3262 0.2867 0.0000
v  -0.2378 0.2510 0.0000
v  -0.2803 0.2884 0.0000
v  -0.2259 0.2221 0.0000
v  -0.2548 0.2306 0.0000
v  -0.1970 0.2425 0.0000
v  -0.2769 0.2408 0.0000
v  -0.1596 0.2102 0.0000
v  -0.1001 0.2459 0.0000
v  -0.1800 0.1932 0.0000
v  -0.1749 0.2119 0.0000
v  -0.2259 0.1796 0.0000
v  -0.2310 0.1949 0.0000
v  -0.2361 0.1898 0.0000
v  -0.2463 0.1796 0.0000
v  -0.2514 0.1575 0.0000
v  -0.2531 0.1422 0.0000
v  -0.2480 0.1847 0.0000
v  -0.2582 0.1626 0.0000
v  -0.2021 0.1388 0.0000
v  -0.2157 0.1388 0.0000
v  -0.1902 0.1388 0.0000
v  -0.2004 0.1337 0.0000
v  -0.1749 0.1133 0.0000
v  -0.1834 0.1218 0.0000
v  -0.1579 0.1898 0.0000
v  -0.1936 0.1133 0.0000
v  -0.1205 0.1286 0.0000
v  -0.1885 0.0963 0.0000
v  -0.2259 0.0725 0.0000
v  -0.3024 0.0096 0.0000
v  -0.2531 0.0742 0.0000
v  -0.2820 0.0742 0.0000
v  -0.3058 0.0419 0.0000
v  -0.3177 0.0504 0.0000
v  -0.2497 0.0827 0.0000
v  -0.3228 0.0385 0.0000
v  -0.2293 0.0929 0.0000
v  -0.2514 0.0929 0.0000
v  -0.2616 0.1065 0.0000
v  -0.2718 0.0878 0.0000
v  -0.2191 0.1014 0.0000
v  -0.2225 0.1235 0.0000
v  -0.2021 0.1014 0.0000
v  -0.2106 0.1150 0.0000
v  -0.1477 0.1966 0.0000
v  -0.1103 0.1252 0.0000
v  -0.1256 0.0895 0.0000
v  -0.1460 0.0555 0.0000
v  -0.1613 0.0623 0.0000
v  -0.1715 0.0266 0.0000
v  -0.2004 0.0011 0.0000
v  -0.2123 0.0113 0.0000
v  -0.2344 -0.0193 -0.0000
v  -0.2701 -0.0346 -0.0000
v  -0.2735 -0.0193 -0.0000
v  -0.3092 -0.0448 -0.0000
v  -0.3500 -0.0346 -0.0000
v  -0.3500 -0.0482 -0.0000
v  -0.3908 -0.0448 -0.0000
v  -0.4231 -0.0193 -0.0000
v  -0.1001 0.1643 0.0000
v  -0.4299 -0.0346 -0.0000
v  -0.4197 0.0453 0.0000
v  -0.4469 0.0045 0.0000
v  -0.4384 0.0538 0.0000
v  -0.4537 0.0249 0.0000
v  -0.4537 0.0334 0.0000
v  -0.4758 0.0334 0.0000
v  -0.4826 0.0419 0.0000
v  -0.4792 0.0232 0.0000
v  -0.4979 0.0470 0.0000
v  -0.4996 0.0011 0.0000
v  -0.5064 0.0759 0.0000
v  -0.5285 0.0266 0.0000
v  -0.5302 0.1014 0.0000
v  -0.5472 0.1116 0.0000
v  -0.5540 0.0555 0.0000
v  -0.4656 -0.0193 -0.0000
v  -0.4843 0.0538 0.0000
v  -0.5523 0.1524 0.0000
v  -0.5744 0.0895 0.0000
v  -0.5914 0.1252 0.0000
v  -0.5999 0.1643 0.0000
v  -0.5999 0.2459 0.0000
v  -0.6033 0.2051 0.0000
v  -0.5149 0.1320 0.0000
v  -0.4690 0.1796 0.0000
v  -0.5149 0.0997 0.0000
v  -0.5217 0.1201 0.0000
v  -0.4877 0.0708 0.0000
v  -0.4894 0.0929 0.0000
v  -0.4741 0.0657 0.0000
v  -0.4554 0.0742 0.0000
v  -0.4656 0.1932 0.0000
v  -0.4384 0.2493 0.0000
v  -0.4656 0.2306 0.0000
v  -0.4758 0.2731 0.0000
v  -0.4877 0.2459 0.0000
v  -0.5149 0.2680 0.0000
v  -0.4078 0.0742 0.0000
v  -0.4231 0.2629 0.0000
v  -0.4095 0.3309 0.0000
v  -0.4384 0.2867 0.0000
v  -0.4061 0.2374 0.0000
v  -0.4639 0.2612 0.0000
v  -0.4061 0.2901 0.0000
v  -0.4061 0.2986 0.0000
v  -0.4010 0.2731 0.0000
v  -0.3993 0.3275 0.0000
v  -0.3925 0.0606 0.0000
v  -0.4061 0.1303 0.0000
v  -0.3942 0.0895 0.0000
v  -0.3857 0.1167 0.0000
v  -0.3670 0.1014 0.0000
v  -0.3789 0.1218 0.0000
v  -0.3415 0.1133 0.0000
v  -0.3721 0.1133 0.0000
v  -0.3432 0.0827 0.0000
v  -0.3483 0.0878 0.0000
v  -0.3415 0.0555 0.0000
v  -0.3585 0.0589 0.0000
v  -0.3687 0.0470 0.0000
v  -0.3653 0.0419 0.0000
v  -0.3517 0.0232 0.0000
v  -0.3959 0.0470 0.0000
v  -0.3092 0.0062 0.0000
v  -0.3364 0.0198 0.0000
v  -0.3517 0.0470 0.0000
v  -0.3364 0.0283 0.0000
v  -0.3500 0.0317 0.0000
v  -0.3313 0.0334 0.0000
v  -0.3381 0.0708 0.0000
v  -0.3262 0.0759 0.0000
v  -0.3840 0.0742 0.0000
v  -0.3262 0.0895 0.0000
v  -0.3755 0.0589 0.0000
v  -0.3772 0.0691 0.0000
v  -0.3925 0.2289 0.0000
v  -0.3636 0.0895 0.0000
v  -0.3636 0.1388 0.0000
v  -0.3942 0.1439 0.0000
v  -0.3143 0.2340 0.0000
v  -0.3228 0.1473 0.0000
v  -0.3500 0.1320 0.0000
v  -0.3126 0.1694 0.0000
v  -0.3058 0.2034 0.0000
v  -0.2990 0.1796 0.0000
v  -0.2905 0.1932 0.0000
v  -0.2718 0.1932 0.0000
v  -0.2531 0.1949 0.0000
v  -0.2616 0.1847 0.0000
v  -0.2871 0.1745 0.0000
# 204 vertices

vn 0.0000 -0.0000 1.0000
# 1 vertex normals

g earthbound
usemtl Material__293
s 1
f 660//19 661//19 662//19 
f 660//19 662//19 663//19 
f 664//19 665//19 660//19 
f 660//19 665//19 661//19 
f 666//19 667//19 665//19 
f 666//19 665//19 664//19 
f 668//19 669//19 667//19 
f 668//19 667//19 666//19 
f 670//19 671//19 668//19 
f 668//19 671//19 669//19 
f 672//19 673//19 671//19 
f 672//19 671//19 670//19 
f 674//19 675//19 667//19 
f 667//19 675//19 665//19 
f 676//19 677//19 675//19 
f 676//19 675//19 674//19 
f 678//19 679//19 677//19 
f 678//19 677//19 676//19 
f 678//19 680//19 681//19 
f 678//19 681//19 679//19 
f 682//19 683//19 678//19 
f 678//19 683//19 680//19 
f 684//19 685//19 682//19 
f 682//19 685//19 683//19 
f 684//19 686//19 687//19 
f 684//19 687//19 685//19 
f 688//19 689//19 686//19 
f 688//19 686//19 684//19 
f 690//19 691//19 688//19 
f 688//19 691//19 689//19 
f 690//19 692//19 693//19 
f 690//19 693//19 691//19 
f 694//19 690//19 695//19 
f 694//19 692//19 690//19 
f 696//19 695//19 697//19 
f 694//19 695//19 696//19 
f 698//19 697//19 699//19 
f 696//19 697//19 698//19 
f 699//19 700//19 701//19 
f 699//19 697//19 700//19 
f 702//19 701//19 703//19 
f 699//19 701//19 702//19 
f 704//19 705//19 701//19 
f 703//19 701//19 705//19 
f 706//19 704//19 707//19 
f 704//19 701//19 707//19 
f 706//19 708//19 709//19 
f 706//19 707//19 708//19 
f 708//19 707//19 710//19 
f 706//19 709//19 711//19 
f 706//19 712//19 704//19 
f 708//19 710//19 713//19 
f 714//19 706//19 715//19 
f 714//19 712//19 706//19 
f 714//19 716//19 712//19 
f 715//19 706//19 717//19 
f 702//19 703//19 716//19 
f 702//19 716//19 714//19 
f 699//19 718//19 698//19 
f 694//19 719//19 692//19 
f 720//19 718//19 721//19 
f 718//19 699//19 721//19 
f 722//19 721//19 723//19 
f 720//19 721//19 722//19 
f 722//19 724//19 725//19 
f 722//19 723//19 724//19 
f 722//19 726//19 727//19 
f 722//19 725//19 726//19 
f 726//19 728//19 729//19 
f 726//19 725//19 728//19 
f 730//19 720//19 731//19 
f 731//19 720//19 722//19 
f 732//19 720//19 733//19 
f 733//19 720//19 730//19 
f 734//19 720//19 735//19 
f 735//19 720//19 732//19 
f 734//19 736//19 720//19 
f 734//19 735//19 737//19 
f 738//19 734//19 739//19 
f 738//19 736//19 734//19 
f 738//19 740//19 741//19 
f 738//19 739//19 740//19 
f 741//19 742//19 743//19 
f 740//19 742//19 741//19 
f 741//19 744//19 745//19 
f 741//19 743//19 744//19 
f 740//19 746//19 742//19 
f 741//19 745//19 747//19 
f 746//19 748//19 749//19 
f 740//19 748//19 746//19 
f 746//19 750//19 751//19 
f 746//19 749//19 750//19 
f 752//19 753//19 740//19 
f 740//19 753//19 748//19 
f 740//19 739//19 754//19 
f 752//19 755//19 753//19 
f 738//19 694//19 756//19 
f 738//19 756//19 736//19 
f 757//19 694//19 738//19 
f 756//19 694//19 696//19 
f 758//19 738//19 759//19 
f 757//19 738//19 758//19 
f 759//19 760//19 761//19 
f 759//19 738//19 760//19 
f 762//19 760//19 763//19 
f 761//19 760//19 762//19 
f 764//19 763//19 765//19 
f 762//19 763//19 764//19 
f 765//19 766//19 767//19 
f 765//19 763//19 766//19 
f 767//19 768//19 769//19 
f 767//19 766//19 768//19 
f 770//19 768//19 771//19 
f 769//19 768//19 770//19 
f 757//19 772//19 694//19 
f 770//19 771//19 773//19 
f 773//19 774//19 775//19 
f 771//19 774//19 773//19 
f 775//19 774//19 776//19 
f 777//19 776//19 778//19 
f 775//19 776//19 777//19 
f 779//19 778//19 780//19 
f 777//19 778//19 779//19 
f 781//19 780//19 782//19 
f 780//19 781//19 779//19 
f 783//19 782//19 784//19 
f 781//19 782//19 783//19 
f 785//19 784//19 786//19 
f 783//19 784//19 785//19 
f 785//19 787//19 788//19 
f 785//19 786//19 787//19 
f 789//19 781//19 783//19 
f 782//19 780//19 790//19 
f 773//19 775//19 789//19 
f 789//19 775//19 781//19 
f 791//19 660//19 788//19 
f 788//19 787//19 791//19 
f 792//19 660//19 793//19 
f 788//19 660//19 792//19 
f 793//19 663//19 794//19 
f 793//19 660//19 663//19 
f 794//19 795//19 796//19 
f 794//19 663//19 795//19 
f 797//19 798//19 791//19 
f 791//19 798//19 660//19 
f 799//19 797//19 800//19 
f 799//19 798//19 797//19 
f 801//19 798//19 802//19 
f 802//19 798//19 799//19 
f 803//19 798//19 801//19 
f 804//19 805//19 798//19 
f 804//19 798//19 803//19 
f 805//19 806//19 807//19 
f 804//19 806//19 805//19 
f 805//19 808//19 809//19 
f 805//19 807//19 808//19 
f 776//19 806//19 804//19 
f 805//19 809//19 810//19 
f 811//19 812//19 776//19 
f 776//19 812//19 806//19 
f 812//19 813//19 814//19 
f 811//19 813//19 812//19 
f 814//19 672//19 670//19 
f 814//19 813//19 672//19 
f 811//19 815//19 813//19 
f 814//19 670//19 816//19 
f 813//19 817//19 818//19 
f 815//19 817//19 813//19 
f 815//19 819//19 817//19 
f 813//19 818//19 820//19 
f 821//19 822//19 811//19 
f 822//19 815//19 811//19 
f 823//19 824//19 822//19 
f 821//19 823//19 822//19 
f 825//19 826//19 824//19 
f 825//19 824//19 823//19 
f 825//19 827//19 828//19 
f 825//19 828//19 826//19 
f 829//19 827//19 830//19 
f 830//19 827//19 825//19 
f 831//19 830//19 832//19 
f 831//19 829//19 830//19 
f 832//19 833//19 834//19 
f 832//19 830//19 833//19 
f 835//19 834//19 836//19 
f 834//19 833//19 836//19 
f 837//19 835//19 774//19 
f 835//19 836//19 774//19 
f 835//19 837//19 838//19 
f 837//19 774//19 771//19 
f 835//19 839//19 834//19 
f 835//19 838//19 840//19 
f 839//19 841//19 842//19 
f 839//19 835//19 841//19 
f 829//19 843//19 844//19 
f 829//19 831//19 843//19 
f 821//19 845//19 823//19 
f 829//19 846//19 827//19 
f 845//19 847//19 848//19 
f 847//19 845//19 821//19 
f 822//19 849//19 815//19 
f 845//19 848//19 850//19 
f 851//19 849//19 852//19 
f 852//19 849//19 822//19 
f 851//19 853//19 849//19 
f 854//19 853//19 855//19 
f 855//19 853//19 851//19 
f 856//19 857//19 853//19 
f 856//19 853//19 854//19 
f 858//19 859//19 857//19 
f 858//19 857//19 856//19 
f 860//19 715//19 859//19 
f 859//19 715//19 857//19 
f 861//19 715//19 862//19 
f 862//19 715//19 860//19 
f 724//19 714//19 861//19 
f 861//19 714//19 715//19 
f 858//19 863//19 859//19 
f 724//19 723//19 714//19 
# 0 polygons - 219 triangles

