# 3ds Max Wavefront OBJ Exporter v0.97b - (c)2007 guruware
# File Created: 17.10.2018 19:58:58

mtllib jigglypoly.mtl

#
# object Nemu_60999451_0_029
#

v  -0.1212 -0.0002 -0.0099
v  -0.1113 0.0232 -0.0035
v  -0.0666 0.0254 -0.0480
v  -0.0607 0.0006 -0.0658
v  -0.0482 0.0002 0.0324
v  -0.0847 0.0341 0.0108
v  -0.1050 0.0247 0.0739
v  -0.1120 -0.0004 0.0983
v  -0.0594 0.0219 0.0260
# 9 vertices

vn -0.6430 0.4442 -0.6239
vn -0.6400 0.3416 -0.6882
vn 0.0081 -1.0000 -0.0055
vn -0.2658 0.9383 -0.2214
vn -0.3854 0.9227 0.0134
vn 0.0064 -1.0000 -0.0025
vn -0.9409 0.3315 0.0696
vn -0.9247 0.3723 0.0792
vn 0.6412 0.5021 0.5804
vn 0.3048 0.9228 0.2358
vn 0.4361 0.8999 0.0000
vn 0.6465 0.4297 0.6304
vn 0.8946 0.4419 -0.0658
vn 0.9436 0.3091 -0.1186
# 14 vertex normals

vt 0.2845 0.3454 0.0000
vt 0.5527 1.0322 0.0000
vt 0.4105 0.0447 0.0000
vt 0.5486 0.0447 0.0000
vt 0.6868 0.3292 0.0000
vt 0.6909 0.2520 0.0000
vt 0.5405 0.0284 0.0000
vt 0.4105 0.0488 0.0000
vt 0.3007 0.3292 0.0000
# 9 texture coords

g Nemu_60999451_0_029
usemtl Material__25
s 1
f 1/1/1 2/1/1 3/1/1 
f 1/1/2 3/1/2 4/1/2 
f 5/2/3 1/2/3 4/2/3 
f 2/3/4 6/3/4 3/3/4 
f 2/4/5 7/4/5 6/4/5 
f 8/2/6 1/2/6 5/2/6 
f 8/5/7 7/5/7 2/5/7 
f 8/5/8 2/5/8 1/5/8 
f 7/6/9 5/6/9 9/6/9 
f 9/7/10 6/7/10 7/7/10 
f 6/8/11 9/8/11 3/8/11 
f 7/6/12 8/6/12 5/6/12 
f 3/9/13 9/9/13 5/9/13 
f 3/9/14 5/9/14 4/9/14 
# 0 polygons - 14 triangles

#
# object Nemu_60999451_0_028
#

v  0.0483 -0.0000 0.0322
v  0.0594 0.0217 0.0258
v  0.0666 0.0254 -0.0482
v  0.0608 0.0007 -0.0660
v  0.1213 -0.0001 -0.0101
v  0.0846 0.0340 0.0106
v  0.1113 0.0232 -0.0037
v  0.1121 -0.0007 0.0980
v  0.1050 0.0245 0.0738
# 9 vertices

vn -0.8954 0.4404 -0.0649
vn -0.9441 0.3077 -0.1180
vn 0.6396 0.3448 -0.6871
vn -0.4379 0.8990 0.0024
vn 0.2640 0.9394 -0.2186
vn 0.6424 0.4471 -0.6224
vn -0.0045 -1.0000 -0.0053
vn -0.0062 -0.9999 -0.0083
vn -0.6475 0.4267 0.6314
vn -0.6423 0.4992 0.5815
vn 0.9402 0.3331 0.0708
vn -0.3067 0.9215 0.2383
vn 0.3836 0.9234 0.0161
vn 0.9240 0.3738 0.0805
# 14 vertex normals

vt 0.3007 0.3292 0.0000
vt 0.2845 0.3454 0.0000
vt 0.4105 0.0488 0.0000
vt 0.4105 0.0447 0.0000
vt 0.5527 1.0322 0.0000
vt 0.6909 0.2520 0.0000
vt 0.6868 0.3292 0.0000
vt 0.5405 0.0284 0.0000
vt 0.5486 0.0447 0.0000
# 9 texture coords

g Nemu_60999451_0_028
usemtl Material__25
s 1
f 10/10/15 11/10/15 12/10/15 
f 10/10/16 12/10/16 13/10/16 
f 12/11/17 14/11/17 13/11/17 
f 11/12/18 15/12/18 12/12/18 
f 15/13/19 16/13/19 12/13/19 
f 12/11/20 16/11/20 14/11/20 
f 14/14/21 17/14/21 10/14/21 
f 14/14/22 10/14/22 13/14/22 
f 10/15/23 17/15/23 18/15/23 
f 10/15/24 18/15/24 11/15/24 
f 16/16/25 18/16/25 17/16/25 
f 15/17/26 11/17/26 18/17/26 
f 16/18/27 15/18/27 18/18/27 
f 16/16/28 17/16/28 14/16/28 
# 0 polygons - 14 triangles

#
# object Nemu_60999451_0_027
#

v  -0.0405 0.0931 0.1139
v  -0.0684 0.0743 0.1008
v  -0.0391 0.0896 0.1158
v  -0.0501 0.1071 0.1457
v  -0.0870 0.0777 0.1439
v  -0.0564 0.0553 0.1724
v  -0.0668 0.0366 0.1467
v  -0.0463 0.0490 0.1511
v  -0.0744 0.0415 0.1680
v  -0.0527 0.0303 0.1659
# 10 vertices

vn -0.5382 0.2346 0.8095
vn -0.9031 -0.4202 -0.0885
vn -0.4017 0.4576 0.7932
vn -0.8396 -0.4333 -0.3277
vn 0.6281 -0.5483 -0.5521
vn 0.9634 0.0876 0.2534
vn 0.5127 -0.6549 -0.5551
vn 0.9093 0.0981 0.4044
vn -0.8725 -0.4415 -0.2092
vn -0.4755 0.3657 0.8001
vn 0.5074 -0.6373 -0.5800
vn 0.9052 0.0249 0.4242
vn -0.4529 -0.8905 0.0431
vn -0.0392 -0.2544 0.9663
# 14 vertex normals

vt 0.4511 0.0610 0.0000
vt 0.4105 0.1666 0.0000
vt 0.4105 0.1138 0.0000
vt 0.5161 0.9063 0.0000
vt 0.7681 0.1300 0.0000
vt 0.5405 0.8941 0.0000
vt 0.4145 0.8575 0.0000
vt 0.4430 0.8575 0.0000
vt 0.7356 0.1138 0.0000
vt 0.7234 0.1057 0.0000
vt 0.7681 0.1991 0.0000
vt 0.7518 0.1951 0.0000
vt 0.4592 0.8941 0.0000
vt 0.4308 0.8941 0.0000
vt 0.7478 0.1951 0.0000
vt 0.8290 0.7803 0.0000
vt 0.8412 0.7721 0.0000
# 17 texture coords

g Nemu_60999451_0_027
usemtl Material__25
s 1
f 19/19/29 20/20/29 21/21/29 
f 22/22/30 19/23/30 21/21/30 
f 22/22/31 23/24/31 24/25/31 
f 25/26/32 23/24/32 20/20/32 
f 20/20/33 19/27/33 26/27/33 
f 19/28/34 22/22/34 26/28/34 
f 20/20/35 26/29/35 25/29/35 
f 26/30/36 22/22/36 24/30/36 
f 23/24/37 25/31/37 27/31/37 
f 24/32/38 23/24/38 27/32/38 
f 25/33/39 26/33/39 28/33/39 
f 26/29/40 24/29/40 28/29/40 
f 27/34/41 25/34/41 28/34/41 
f 24/35/42 27/35/42 28/35/42 
# 0 polygons - 14 triangles

#
# object Nemu_60999451_0_026
#

v  -0.0598 0.1506 0.1029
v  -0.0870 0.0777 0.1439
v  -0.0501 0.1071 0.1457
v  -0.0486 0.1435 0.0763
v  -0.0391 0.0896 0.1158
v  -0.0826 0.1381 0.0940
v  -0.0684 0.0743 0.1008
v  -0.0725 0.1278 0.0716
v  -0.0730 0.1525 0.0796
# 9 vertices

vn -0.4776 0.5598 0.6772
vn 0.9393 0.2945 0.1758
vn -0.8983 -0.2393 -0.3684
vn -0.5461 0.5566 0.6260
vn 0.4256 -0.4077 -0.8079
vn -0.9216 -0.2380 -0.3067
vn 0.8648 0.4362 0.2485
vn 0.3315 0.9370 -0.1100
vn -0.8798 0.1289 -0.4576
vn -0.0162 0.3073 -0.9515
vn -0.5516 0.7442 0.3767
vn 0.5772 -0.4143 -0.7037
# 12 vertex normals

vt 0.5161 0.9063 0.0000
vt 0.4105 0.1138 0.0000
vt 0.5405 0.8941 0.0000
vt 0.4105 0.1666 0.0000
vt 0.3779 0.1829 0.0000
vt 0.0935 0.4674 0.0000
vt 0.3454 0.9144 0.0000
vt 0.4389 0.1057 0.0000
# 8 texture coords

g Nemu_60999451_0_026
usemtl Material__25
s 1
f 29/36/43 30/36/43 31/36/43 
f 32/37/44 31/37/44 33/37/44 
f 34/38/45 35/38/45 30/38/45 
f 29/36/46 34/36/46 30/36/46 
f 32/39/47 35/39/47 36/39/47 
f 34/38/48 36/38/48 35/38/48 
f 31/40/49 32/40/49 29/40/49 
f 32/41/50 37/41/50 29/41/50 
f 36/42/51 34/42/51 37/42/51 
f 37/41/52 32/41/52 36/41/52 
f 37/42/53 34/42/53 29/42/53 
f 35/43/54 32/43/54 33/43/54 
# 0 polygons - 12 triangles

#
# object Nemu_60999451_0_025
#

v  0.0412 0.0933 0.1136
v  0.0507 0.1070 0.1456
v  0.0396 0.0894 0.1158
v  0.0690 0.0743 0.1007
v  0.0877 0.0778 0.1438
v  0.0524 0.0555 0.1714
v  0.0629 0.0369 0.1458
v  0.0419 0.0485 0.1506
v  0.0700 0.0408 0.1676
v  0.0479 0.0303 0.1662
# 10 vertices

vn 0.9021 -0.4231 -0.0849
vn 0.5364 0.2288 0.8123
vn 0.3757 0.4258 0.8231
vn 0.8067 -0.5040 -0.3086
vn -0.9632 0.1618 0.2146
vn -0.6240 -0.5026 -0.5984
vn -0.9032 0.1682 0.3948
vn -0.4902 -0.6366 -0.5953
vn 0.4509 0.3195 0.8334
vn 0.8371 -0.5163 -0.1809
vn -0.9015 0.0705 0.4271
vn -0.4948 -0.6548 -0.5713
vn 0.0384 -0.2104 0.9769
vn 0.4271 -0.9039 0.0228
# 14 vertex normals

vt 0.7721 0.1300 0.0000
vt 0.5161 0.9022 0.0000
vt 0.4105 0.1138 0.0000
vt 0.4105 0.1666 0.0000
vt 0.4511 0.0610 0.0000
vt 0.5405 0.8941 0.0000
vt 0.4348 0.8575 0.0000
vt 0.4836 0.8534 0.0000
vt 0.6827 0.0894 0.0000
vt 0.7071 0.1016 0.0000
vt 0.7153 0.1829 0.0000
vt 0.7518 0.1951 0.0000
vt 0.4552 0.8941 0.0000
vt 0.5039 0.8941 0.0000
vt 0.7681 0.1991 0.0000
vt 0.7478 0.1951 0.0000
vt 0.8412 0.7721 0.0000
vt 0.8290 0.7803 0.0000
# 18 texture coords

g Nemu_60999451_0_025
usemtl Material__25
s 1
f 38/44/55 39/45/55 40/46/55 
f 41/47/56 38/48/56 40/46/56 
f 42/49/57 39/45/57 43/50/57 
f 42/49/58 44/51/58 41/47/58 
f 39/45/59 38/52/59 45/52/59 
f 38/53/60 41/47/60 45/53/60 
f 39/45/61 45/54/61 43/54/61 
f 45/55/62 41/47/62 44/55/62 
f 42/49/63 43/56/63 46/56/63 
f 44/57/64 42/49/64 46/57/64 
f 43/58/65 45/58/65 47/58/65 
f 45/59/66 44/59/66 47/59/66 
f 46/60/67 43/60/67 47/60/67 
f 44/61/68 46/61/68 47/61/68 
# 0 polygons - 14 triangles

#
# object Nemu_60999451_0_024
#

v  0.0507 0.1070 0.1456
v  0.0487 0.1434 0.0762
v  0.0396 0.0894 0.1158
v  0.0690 0.0743 0.1007
v  0.0727 0.1278 0.0715
v  0.0600 0.1505 0.1028
v  0.0877 0.0778 0.1438
v  0.0829 0.1382 0.0939
v  0.0732 0.1526 0.0795
# 9 vertices

vn -0.9405 0.2894 0.1780
vn -0.4253 -0.4102 -0.8067
vn 0.5446 0.5597 0.6246
vn 0.4762 0.5626 0.6758
vn 0.9244 -0.1965 -0.3269
vn 0.8931 -0.2620 -0.3658
vn -0.3369 0.9352 -0.1094
vn 0.0122 0.3071 -0.9516
vn -0.5767 -0.4176 -0.7022
vn 0.8779 0.1336 -0.4598
vn 0.5484 0.7473 0.3751
vn -0.8666 0.4315 0.2505
# 12 vertex normals

vt 0.4105 0.1138 0.0000
vt 0.4105 0.1666 0.0000
vt 0.5161 0.9022 0.0000
vt 0.5405 0.8941 0.0000
vt 0.0935 0.4674 0.0000
vt 0.4348 0.1057 0.0000
vt 0.3454 0.9144 0.0000
vt 0.3739 0.1869 0.0000
# 8 texture coords

g Nemu_60999451_0_024
usemtl Material__25
s 1
f 48/62/69 49/62/69 50/62/69 
f 51/63/70 49/63/70 52/63/70 
f 53/64/71 54/64/71 55/64/71 
f 53/64/72 48/64/72 54/64/72 
f 52/65/73 55/65/73 54/65/73 
f 52/65/74 54/65/74 51/65/74 
f 56/66/75 49/66/75 53/66/75 
f 49/66/76 56/66/76 52/66/76 
f 49/67/77 51/67/77 50/67/77 
f 55/68/78 52/68/78 56/68/78 
f 55/68/79 56/68/79 53/68/79 
f 49/69/80 48/69/80 53/69/80 
# 0 polygons - 12 triangles

#
# object Nemu_60999451_0_023
#

v  0.0000 0.3203 0.0000
v  0.0838 0.1633 0.0000
v  0.0000 0.1633 -0.0837
v  0.0000 0.1633 0.0838
v  -0.0837 0.1633 0.0000
v  0.0785 0.2303 -0.1110
v  0.0597 0.1518 -0.1455
v  0.0429 0.1937 -0.1455
v  0.0000 0.1518 -0.1570
v  0.1455 0.1518 -0.0597
v  0.1110 0.1518 -0.1110
v  0.0597 0.1518 0.1455
v  0.0785 0.2303 0.1110
v  0.0429 0.1937 0.1455
v  0.1110 0.2628 0.0000
v  0.1455 0.1518 0.0597
v  0.1570 0.1518 0.0000
v  0.0000 0.1518 0.1570
v  0.1110 0.1518 0.1110
v  0.0000 0.1863 -0.0911
v  -0.0429 0.1937 -0.1455
v  0.0000 0.1863 0.0911
v  -0.1110 0.2628 0.0000
v  -0.0785 0.2303 0.1110
v  -0.0785 0.2303 -0.1110
v  -0.0597 0.1518 -0.1455
v  -0.0429 0.1937 0.1455
v  -0.1110 0.1518 -0.1110
v  -0.1455 0.1518 -0.0597
v  -0.1570 0.1518 0.0000
v  -0.0597 0.1518 0.1455
v  -0.1110 0.1518 0.1110
v  -0.1455 0.1518 0.0597
v  -0.0785 0.0733 -0.1110
v  -0.0429 0.1089 -0.1455
v  -0.1026 0.0492 -0.0597
v  -0.1110 0.0408 0.0000
v  -0.1026 0.0492 0.0597
v  -0.0785 0.0733 0.1110
v  -0.0429 0.1089 0.1455
v  0.0000 0.0408 -0.1110
v  0.0000 0.0911 -0.1455
v  0.0000 0.0063 -0.0597
v  0.0000 -0.0052 -0.0000
v  0.0000 0.0063 0.0597
v  0.0000 0.0408 0.1110
v  0.0000 0.0911 0.1455
v  0.0429 0.1089 -0.1455
v  0.0785 0.0733 -0.1110
v  0.1026 0.0492 -0.0597
v  0.1110 0.0408 0.0000
v  0.1026 0.0492 0.0597
v  0.0785 0.0733 0.1110
v  0.0429 0.1089 0.1455
# 54 vertices

vn 0.6616 0.3529 -0.6616
vn 0.6616 0.3529 0.6616
vn -0.6616 0.3529 -0.6616
vn -0.6616 0.3529 0.6616
vn 0.5525 0.2210 -0.8037
vn 0.1889 0.0756 -0.9791
vn 0.7846 0.3243 -0.5284
vn 0.5443 0.2250 -0.8082
vn 0.5525 0.2210 0.8037
vn 0.9093 0.3774 0.1755
vn 0.1889 0.0756 0.9791
vn 0.5443 0.2250 0.8082
vn -0.5057 0.8566 -0.1026
vn -0.5947 0.7122 -0.3730
vn 0.5947 0.7122 -0.3730
vn -0.5947 0.7122 0.3730
vn 0.5057 0.8566 0.1026
vn 0.5230 0.7958 -0.3052
vn -0.1889 0.0756 -0.9791
vn 0.5230 0.7958 0.3052
vn -0.5525 0.2210 -0.8037
vn -0.5443 0.2250 -0.8082
vn -0.9093 0.3774 -0.1755
vn -0.5443 0.2250 0.8082
vn -0.9093 0.3774 0.1755
vn -0.1889 0.0756 0.9791
vn -0.5525 0.2210 0.8037
vn -0.5443 -0.2250 -0.8082
vn -0.1890 -0.0737 -0.9792
vn -0.7861 -0.3289 -0.5234
vn -0.5587 -0.2180 -0.8002
vn -0.9084 -0.3771 -0.1804
vn -0.7846 -0.3243 -0.5284
vn -0.9084 -0.3771 0.1804
vn -0.9082 -0.3800 -0.1753
vn -0.7861 -0.3289 0.5234
vn -0.9082 -0.3800 0.1753
vn -0.5587 -0.2180 0.8002
vn -0.7846 -0.3243 0.5284
vn -0.1890 -0.0737 0.9792
vn -0.5443 -0.2250 0.8082
vn -0.2278 -0.5512 -0.8027
vn -0.0770 -0.1858 -0.9796
vn -0.3243 -0.7846 -0.5284
vn -0.2287 -0.5515 -0.8022
vn -0.3800 -0.9082 -0.1753
vn -0.3289 -0.7861 -0.5234
vn -0.3774 -0.9093 0.1755
vn -0.3771 -0.9084 -0.1804
vn -0.3278 -0.7836 0.5277
vn -0.3796 -0.9073 0.1806
vn -0.2280 -0.5516 0.8023
vn -0.3257 -0.7879 0.5227
vn -0.0770 -0.1858 0.9796
vn -0.2284 -0.5508 0.8028
vn 0.2287 -0.5515 -0.8022
vn 0.0770 -0.1858 -0.9796
vn 0.3243 -0.7846 -0.5284
vn 0.2278 -0.5512 -0.8027
vn 0.3800 -0.9082 -0.1753
vn 0.3289 -0.7861 -0.5234
vn 0.3774 -0.9093 0.1755
vn 0.3771 -0.9084 -0.1804
vn 0.3278 -0.7836 0.5277
vn 0.3796 -0.9073 0.1806
vn 0.2284 -0.5508 0.8028
vn 0.3257 -0.7879 0.5227
vn 0.0770 -0.1858 0.9796
vn 0.2280 -0.5516 0.8023
vn 0.5587 -0.2180 -0.8002
vn 0.1890 -0.0737 -0.9792
vn 0.7861 -0.3289 -0.5234
vn 0.5443 -0.2250 -0.8082
vn 0.9084 -0.3771 -0.1804
vn 0.7846 -0.3243 -0.5284
vn 0.9084 -0.3771 0.1804
vn 0.9082 -0.3800 -0.1753
vn 0.7861 -0.3289 0.5234
vn 0.9082 -0.3800 0.1753
vn 0.5443 -0.2250 0.8082
vn 0.7846 -0.3243 0.5284
vn 0.1890 -0.0737 0.9792
vn 0.5587 -0.2180 0.8002
vn 0.9093 0.3774 -0.1755
vn 0.7846 0.3243 0.5284
vn -0.7846 0.3243 0.5284
vn -0.7846 0.3243 -0.5284
vn -0.8121 0.4516 0.3696
vn -0.8121 0.4516 -0.3696
vn 0.8121 0.4516 0.3696
vn -0.5057 0.8566 0.1026
vn 0.8121 0.4516 -0.3696
vn 0.5057 0.8566 -0.1026
vn -0.5672 0.8236 0.0000
vn -0.5230 0.7958 0.3052
vn 0.5672 0.8236 0.0000
vn -0.5230 0.7958 -0.3052
vn 0.5947 0.7122 0.3730
# 98 vertex normals

vt 0.8575 0.6990 0.0000
vt 0.1747 0.6990 0.0000
vt 0.7965 0.6299 0.0000
vt 0.6137 0.5568 0.0000
vt 0.9225 0.6827 0.0000
vt 0.9875 0.7112 0.0000
vt 0.2560 0.9632 0.0000
vt 0.2073 0.8819 0.0000
vt 0.8250 0.8819 0.0000
vt 0.7762 0.9632 0.0000
vt 0.7843 0.9306 0.0000
vt 0.4186 0.5568 0.0000
vt 0.2357 0.6299 0.0000
vt 0.0447 0.7112 0.0000
vt 0.2357 0.4023 0.0000
vt 0.4186 0.4755 0.0000
vt 0.1097 0.3495 0.0000
vt 0.0447 0.3211 0.0000
vt 0.4023 0.2357 0.0000
vt 0.4755 0.4186 0.0000
vt 0.3495 0.1097 0.0000
vt 0.3211 0.0447 0.0000
vt 0.6299 0.2357 0.0000
vt 0.5568 0.4186 0.0000
vt 0.6827 0.1097 0.0000
vt 0.7112 0.0447 0.0000
vt 0.7965 0.4023 0.0000
vt 0.6137 0.4755 0.0000
vt 0.9225 0.3495 0.0000
vt 0.9875 0.3211 0.0000
vt 0.1097 0.6827 0.0000
vt 0.0935 0.7478 0.0000
vt 0.9388 0.7478 0.0000
vt 0.2235 0.9428 0.0000
vt 0.2479 0.9306 0.0000
vt 0.8087 0.9428 0.0000
# 36 texture coords

g Nemu_60999451_0_023
usemtl Material__25
s 1
f 57/70/81 58/70/81 59/70/81 
f 57/70/82 60/70/82 58/70/82 
f 57/71/83 59/71/83 61/71/83 
f 57/71/84 61/71/84 60/71/84 
f 62/72/85 63/72/85 64/72/85 
f 65/73/86 64/73/86 63/73/86 
f 62/74/87 66/74/87 67/74/87 
f 62/72/88 67/72/88 63/72/88 
f 68/72/89 69/72/89 70/72/89 
f 71/75/90 72/75/90 73/75/90 
f 74/73/91 68/73/91 70/73/91 
f 69/72/92 68/72/92 75/72/92 
f 76/76/93 71/76/93 62/76/93 
f 76/77/94 64/77/94 65/77/94 
f 77/78/95 76/78/95 65/78/95 
f 74/77/96 70/77/96 78/77/96 
f 78/79/97 79/79/97 80/79/97 
f 76/80/98 77/80/98 81/80/98 
f 65/81/99 82/81/99 77/81/99 
f 83/80/100 78/80/100 80/80/100 
f 81/82/101 77/82/101 82/82/101 
f 81/82/102 82/82/102 84/82/102 
f 79/83/103 85/83/103 86/83/103 
f 87/82/104 80/82/104 88/82/104 
f 89/83/105 79/83/105 86/83/105 
f 74/81/106 83/81/106 87/81/106 
f 80/82/107 87/82/107 83/82/107 
f 82/84/108 90/84/108 84/84/108 
f 65/85/109 91/85/109 82/85/109 
f 85/86/110 90/86/110 92/86/110 
f 82/84/111 91/84/111 90/84/111 
f 86/87/112 92/87/112 93/87/112 
f 85/86/113 84/86/113 90/86/113 
f 94/87/114 86/87/114 93/87/114 
f 86/87/115 85/87/115 92/87/115 
f 95/86/116 89/86/116 94/86/116 
f 94/87/117 89/87/117 86/87/117 
f 87/84/118 95/84/118 96/84/118 
f 89/86/119 95/86/119 88/86/119 
f 74/85/120 87/85/120 96/85/120 
f 95/84/121 87/84/121 88/84/121 
f 91/88/122 97/88/122 90/88/122 
f 65/89/123 98/89/123 91/89/123 
f 99/90/124 90/90/124 97/90/124 
f 91/88/125 98/88/125 97/88/125 
f 100/91/126 92/91/126 99/91/126 
f 99/90/127 92/90/127 90/90/127 
f 101/91/128 93/91/128 100/91/128 
f 100/91/129 93/91/129 92/91/129 
f 102/90/130 94/90/130 101/90/130 
f 101/91/131 94/91/131 93/91/131 
f 103/88/132 95/88/132 102/88/132 
f 102/90/133 95/90/133 94/90/133 
f 74/89/134 96/89/134 103/89/134 
f 95/88/135 103/88/135 96/88/135 
f 104/92/136 97/92/136 98/92/136 
f 65/93/137 104/93/137 98/93/137 
f 105/94/138 99/94/138 97/94/138 
f 104/92/139 105/92/139 97/92/139 
f 106/95/140 100/95/140 99/95/140 
f 105/94/141 106/94/141 99/94/141 
f 107/95/142 101/95/142 100/95/142 
f 106/95/143 107/95/143 100/95/143 
f 108/94/144 102/94/144 101/94/144 
f 107/95/145 108/95/145 101/95/145 
f 103/92/146 109/92/146 110/92/146 
f 108/94/147 109/94/147 102/94/147 
f 74/93/148 103/93/148 110/93/148 
f 109/92/149 103/92/149 102/92/149 
f 63/96/150 105/96/150 104/96/150 
f 65/97/151 63/97/151 104/97/151 
f 105/98/152 66/98/152 106/98/152 
f 63/96/153 67/96/153 105/96/153 
f 106/99/154 73/99/154 107/99/154 
f 105/98/155 67/98/155 66/98/155 
f 73/99/156 108/99/156 107/99/156 
f 106/99/157 66/99/157 73/99/157 
f 72/98/158 109/98/158 108/98/158 
f 73/99/159 72/99/159 108/99/159 
f 68/96/160 109/96/160 75/96/160 
f 72/98/161 75/98/161 109/98/161 
f 74/97/162 110/97/162 68/97/162 
f 109/96/163 68/96/163 110/96/163 
f 66/75/164 71/75/164 73/75/164 
f 72/74/165 69/74/165 75/74/165 
f 80/100/166 89/100/166 88/100/166 
f 85/100/167 81/100/167 84/100/167 
f 89/101/168 80/101/168 79/101/168 
f 81/101/169 85/101/169 79/101/169 
f 69/102/170 72/102/170 71/102/170 
f 71/76/171 78/76/171 69/76/171 
f 66/102/172 62/102/172 71/102/172 
f 79/79/173 76/79/173 81/79/173 
f 71/103/174 76/103/174 78/103/174 
f 78/104/175 70/104/175 69/104/175 
f 76/105/176 79/105/176 78/105/176 
f 64/104/177 76/104/177 62/104/177 
f 74/78/178 78/78/178 83/78/178 
# 0 polygons - 98 triangles

