# 3ds Max Wavefront OBJ Exporter v0.97b - (c)2007 guruware
# File Created: 27.04.2019 19:25:27

mtllib kirbyfox.mtl

#
# object legr_0_0_019
#

v  -0.0759 0.0102 -0.0903
v  -0.1163 0.0536 -0.0310
v  -0.0735 0.0521 -0.0792
v  -0.0408 0.0309 -0.0989
v  -0.0579 0.0869 -0.0076
v  -0.0146 0.0499 -0.0664
v  -0.1147 0.0094 -0.0371
v  -0.0915 -0.0048 -0.0420
v  -0.0136 0.0109 -0.0789
v  -0.1085 0.0412 0.0821
v  -0.1314 0.0200 0.0313
v  -0.0029 0.0495 0.0019
v  -0.0200 -0.0036 -0.0265
v  -0.1077 -0.0046 0.0526
v  -0.0597 0.0403 0.0907
v  -0.0051 0.0065 0.0043
v  -0.1131 0.0195 0.0912
v  -0.0175 0.0160 0.0539
v  -0.0445 -0.0033 0.0672
v  -0.0891 0.0009 0.0833
v  -0.0629 0.0176 0.1012
# 21 vertices

vn -0.7269 0.2144 -0.6524
vn -0.3695 0.2572 -0.8929
vn -0.3582 0.8677 -0.3447
vn 0.1582 0.7913 -0.5907
vn -0.8071 0.0517 -0.5882
vn 0.1322 0.8796 -0.4570
vn -0.5385 -0.7395 -0.4039
vn 0.6829 0.2398 -0.6900
vn -0.5307 0.8377 0.1286
vn -0.9715 -0.0023 -0.2370
vn 0.9826 0.0799 -0.1677
vn 0.0581 -0.9641 -0.2591
vn -0.8024 0.5847 0.1198
vn 0.0757 -0.9589 -0.2734
vn -0.6938 -0.7178 -0.0580
vn -0.5339 -0.8408 -0.0897
vn 0.4725 0.7932 0.3842
vn 0.9930 -0.0556 -0.1043
vn 0.0162 -0.9999 0.0048
vn 0.7010 -0.7049 -0.1086
vn -0.9075 0.3129 0.2802
vn -0.0596 0.9024 0.4267
vn 0.9680 -0.0347 0.2486
vn -0.7941 -0.5597 0.2369
vn 0.3962 -0.9120 0.1065
vn 0.7183 0.4752 0.5081
vn -0.4627 -0.7803 0.4207
vn 0.0191 -0.9998 0.0081
vn -0.1500 0.4306 0.8900
vn -0.1630 0.4111 0.8969
vn -0.0235 -0.9814 0.1907
vn 0.6465 -0.7030 0.2962
vn 0.7092 0.2084 0.6735
vn -0.1805 -0.5744 0.7984
vn 0.1291 -0.8132 0.5675
vn 0.6335 -0.4593 0.6227
vn 0.1518 -0.5873 -0.7950
vn 0.5709 0.8157 -0.0932
# 38 vertex normals

vt 0.0000 0.0000 0.0000
# 1 texture coords

g legr_0_0_019
usemtl Material__304
s 1
f 1/1/1 2/1/1 3/1/1 
f 4/1/2 1/1/2 3/1/2 
f 2/1/3 5/1/3 3/1/3 
f 4/1/4 3/1/4 6/1/4 
f 2/1/5 1/1/5 7/1/5 
f 6/1/6 3/1/6 5/1/6 
f 1/1/7 8/1/7 7/1/7 
f 6/1/8 9/1/8 4/1/8 
f 5/1/9 2/1/9 10/1/9 
f 2/1/10 7/1/10 11/1/10 
f 12/1/11 9/1/11 6/1/11 
f 1/1/12 9/1/12 13/1/12 
f 2/1/13 11/1/13 10/1/13 
f 1/1/14 13/1/14 8/1/14 
f 7/1/15 14/1/15 11/1/15 
f 14/1/16 7/1/16 8/1/16 
f 12/1/17 5/1/17 15/1/17 
f 9/1/18 12/1/18 16/1/18 
f 13/1/19 14/1/19 8/1/19 
f 13/1/20 9/1/20 16/1/20 
f 10/1/21 11/1/21 17/1/21 
f 10/1/22 15/1/22 5/1/22 
f 16/1/23 12/1/23 18/1/23 
f 11/1/24 14/1/24 17/1/24 
f 16/1/25 19/1/25 13/1/25 
f 15/1/26 18/1/26 12/1/26 
f 20/1/27 17/1/27 14/1/27 
f 13/1/28 19/1/28 14/1/28 
f 10/1/29 21/1/29 15/1/29 
f 10/1/30 17/1/30 21/1/30 
f 20/1/31 14/1/31 19/1/31 
f 19/1/32 16/1/32 18/1/32 
f 18/1/33 15/1/33 21/1/33 
f 17/1/34 20/1/34 21/1/34 
f 19/1/35 21/1/35 20/1/35 
f 21/1/36 19/1/36 18/1/36 
f 9/1/37 1/1/37 4/1/37 
f 12/1/38 6/1/38 5/1/38 
# 0 polygons - 38 triangles

#
# object legl_0_0_018
#

v  0.0136 0.0100 -0.0794
v  0.0135 0.0489 -0.0665
v  0.0403 0.0310 -0.0991
v  0.0017 0.0476 0.0018
v  0.0723 0.0529 -0.0792
v  0.0557 0.0866 -0.0073
v  0.0759 0.0112 -0.0907
v  0.0585 0.0390 0.0906
v  0.0051 0.0046 0.0038
v  0.0171 0.0139 0.0534
v  0.0203 -0.0048 -0.0271
v  0.0919 -0.0039 -0.0425
v  0.1150 0.0550 -0.0309
v  0.1079 -0.0041 0.0521
v  0.0447 -0.0047 0.0666
v  0.1147 0.0109 -0.0374
v  0.1073 0.0413 0.0821
v  0.0890 0.0006 0.0829
v  0.1310 0.0214 0.0311
v  0.1126 0.0197 0.0910
v  0.0624 0.0163 0.1009
# 21 vertices

vn -0.6881 0.2275 -0.6891
vn -0.9841 0.0543 -0.1690
vn -0.1558 0.8800 -0.4487
vn -0.5932 0.8004 -0.0865
vn -0.1340 -0.5835 -0.8010
vn -0.4950 0.7760 0.3909
vn -0.9909 -0.0820 -0.1069
vn -0.1791 0.7922 -0.5833
vn -0.9671 -0.0639 0.2462
vn -0.6809 -0.7230 -0.1169
vn -0.0308 -0.9628 -0.2685
vn 0.3639 0.2759 -0.8896
vn -0.0485 -0.9579 -0.2829
vn 0.3346 0.8806 -0.3356
vn 0.0087 -1.0000 -0.0016
vn 0.0116 -0.9999 -0.0049
vn 0.8064 0.0798 -0.5859
vn 0.5070 0.8509 0.1378
vn 0.0505 -0.9821 0.1813
vn 0.7856 0.6055 0.1271
vn 0.7219 0.2407 -0.6488
vn 0.4835 -0.7712 0.4141
vn 0.5572 -0.8247 -0.0967
vn 0.9716 0.0269 -0.2350
vn -0.7160 0.1822 0.6740
vn 0.7136 -0.6977 -0.0634
vn -0.7322 0.4502 0.5112
vn -0.6273 -0.7235 0.2881
vn 0.0337 0.8995 0.4356
vn -0.3709 -0.9236 0.0968
vn 0.5596 -0.7203 -0.4099
vn -0.6216 -0.4827 0.6169
vn -0.1075 -0.8219 0.5593
vn 0.1363 0.4260 0.8944
vn 0.1950 -0.5769 0.7932
vn 0.1499 0.4067 0.9012
vn 0.8089 -0.5397 0.2332
vn 0.8980 0.3352 0.2851
# 38 vertex normals

vt 0.0000 0.0000 0.0000
# 1 texture coords

g legl_0_0_018
usemtl Material__303
s 1
f 22/2/39 23/2/39 24/2/39 
f 22/2/40 25/2/40 23/2/40 
f 26/2/41 23/2/41 27/2/41 
f 23/2/42 25/2/42 27/2/42 
f 28/2/43 22/2/43 24/2/43 
f 27/2/44 25/2/44 29/2/44 
f 25/2/45 22/2/45 30/2/45 
f 26/2/46 24/2/46 23/2/46 
f 25/2/47 30/2/47 31/2/47 
f 22/2/48 32/2/48 30/2/48 
f 22/2/49 28/2/49 32/2/49 
f 28/2/50 24/2/50 26/2/50 
f 32/2/51 28/2/51 33/2/51 
f 27/2/52 34/2/52 26/2/52 
f 32/2/53 35/2/53 36/2/53 
f 32/2/54 33/2/54 35/2/54 
f 28/2/55 34/2/55 37/2/55 
f 34/2/56 27/2/56 38/2/56 
f 35/2/57 39/2/57 36/2/57 
f 40/2/58 34/2/58 38/2/58 
f 34/2/59 28/2/59 26/2/59 
f 41/2/60 39/2/60 35/2/60 
f 37/2/61 35/2/61 33/2/61 
f 37/2/62 34/2/62 40/2/62 
f 29/2/63 31/2/63 42/2/63 
f 35/2/64 37/2/64 40/2/64 
f 31/2/65 29/2/65 25/2/65 
f 30/2/66 36/2/66 31/2/66 
f 29/2/67 38/2/67 27/2/67 
f 36/2/68 30/2/68 32/2/68 
f 33/2/69 28/2/69 37/2/69 
f 36/2/70 42/2/70 31/2/70 
f 42/2/71 36/2/71 39/2/71 
f 42/2/72 38/2/72 29/2/72 
f 39/2/73 41/2/73 42/2/73 
f 42/2/74 41/2/74 38/2/74 
f 35/2/75 40/2/75 41/2/75 
f 40/2/76 38/2/76 41/2/76 
# 0 polygons - 38 triangles

#
# object armr_0_0_017
#

v  -0.0986 0.1510 -0.0004
v  -0.1255 0.1659 -0.0468
v  -0.0960 0.1502 -0.0004
v  -0.1254 0.1658 0.0460
v  -0.1592 0.1674 0.0306
v  -0.1428 0.1010 0.0260
v  -0.1162 0.0953 -0.0004
v  -0.1429 0.1011 -0.0268
v  -0.1458 0.0831 -0.0004
v  -0.1593 0.1674 -0.0313
v  -0.1780 0.1673 -0.0003
v  -0.1687 0.1020 -0.0004
# 12 vertices

vn -0.2822 -0.9490 -0.1403
vn -0.2819 -0.9493 0.1392
vn -0.4157 -0.1655 0.8943
vn 0.8010 -0.2529 0.5427
vn 0.7997 -0.2519 -0.5451
vn 0.6097 -0.3792 0.6961
vn 0.6080 -0.3778 -0.6982
vn 0.3300 -0.7977 0.5047
vn -0.4179 -0.1637 -0.8936
vn -0.7118 -0.1027 0.6948
vn -0.5458 -0.6634 0.5119
vn 0.3288 -0.7968 -0.5070
vn -0.7135 -0.1013 -0.6933
vn -0.8306 -0.2397 -0.5026
vn -0.8294 -0.2407 0.5042
vn -0.5470 -0.6624 -0.5119
# 16 vertex normals

vt 0.0000 0.0000 0.0000
# 1 texture coords

g armr_0_0_017
usemtl Material__302
s 1
f 43/3/77 44/3/77 45/3/77 
f 46/3/78 43/3/78 45/3/78 
f 47/3/79 48/3/79 46/3/79 
f 43/3/80 46/3/80 49/3/80 
f 44/3/81 43/3/81 49/3/81 
f 49/3/82 46/3/82 48/3/82 
f 44/3/83 49/3/83 50/3/83 
f 49/3/84 48/3/84 51/3/84 
f 50/3/85 52/3/85 44/3/85 
f 48/3/86 53/3/86 54/3/86 
f 48/3/87 54/3/87 51/3/87 
f 50/3/88 49/3/88 51/3/88 
f 53/3/89 50/3/89 54/3/89 
f 50/3/90 53/3/90 52/3/90 
f 53/3/91 48/3/91 47/3/91 
f 54/3/92 50/3/92 51/3/92 
# 0 polygons - 16 triangles

#
# object armr_0_0_016
#

v  -0.1254 0.1658 0.0460
v  -0.0767 0.2060 0.0224
v  -0.1071 0.2117 0.0315
v  -0.1592 0.1674 0.0306
v  -0.0768 0.2060 -0.0231
v  -0.1056 0.2339 -0.0003
v  -0.1322 0.2227 0.0134
v  -0.1072 0.2118 -0.0322
v  -0.1322 0.2227 -0.0139
v  -0.1780 0.1673 -0.0003
v  -0.1593 0.1674 -0.0313
v  -0.1255 0.1659 -0.0468
v  -0.0960 0.1502 -0.0004
# 13 vertices

vn 0.3138 0.1703 0.9341
vn -0.3629 0.4096 0.8370
vn 0.6956 0.7184 -0.0001
vn 0.3136 0.7722 0.5525
vn -0.3909 0.4431 0.8068
vn 0.3123 0.7733 -0.5518
vn -0.0565 0.8215 -0.5674
vn -0.3898 0.9209 0.0013
vn -0.7396 0.5017 0.4486
vn -0.7704 0.6375 0.0015
vn -0.3649 0.4112 -0.8353
vn -0.3928 0.4446 -0.8050
vn 0.6662 -0.4667 -0.5818
vn -0.7407 0.5026 -0.4459
vn 0.6675 -0.4678 0.5793
vn 0.9452 -0.3264 -0.0014
vn -0.0552 0.8204 0.5691
vn 0.3115 0.1721 -0.9345
# 18 vertex normals

vt 0.0000 0.0000 0.0000
# 1 texture coords

g armr_0_0_016
usemtl Material__301
s 1
f 55/4/93 56/4/93 57/4/93 
f 57/4/94 58/4/94 55/4/94 
f 59/4/95 60/4/95 56/4/95 
f 60/4/96 57/4/96 56/4/96 
f 61/4/97 58/4/97 57/4/97 
f 62/4/98 60/4/98 59/4/98 
f 60/4/99 62/4/99 63/4/99 
f 60/4/100 63/4/100 61/4/100 
f 58/4/101 61/4/101 64/4/101 
f 63/4/102 64/4/102 61/4/102 
f 65/4/103 62/4/103 66/4/103 
f 62/4/104 65/4/104 63/4/104 
f 67/4/105 66/4/105 59/4/105 
f 65/4/106 64/4/106 63/4/106 
f 55/4/107 67/4/107 56/4/107 
f 56/4/108 67/4/108 59/4/108 
f 57/4/109 60/4/109 61/4/109 
f 59/4/110 66/4/110 62/4/110 
# 0 polygons - 18 triangles

#
# object arml_0_0_015
#

v  0.0971 0.1506 -0.0003
v  0.1240 0.1653 -0.0467
v  0.1151 0.0950 -0.0003
v  0.0946 0.1496 -0.0003
v  0.1583 0.1663 -0.0313
v  0.1418 0.1005 -0.0267
v  0.1240 0.1653 0.0461
v  0.1446 0.0825 -0.0003
v  0.1778 0.1669 -0.0003
v  0.1676 0.1012 -0.0003
v  0.1418 0.1005 0.0261
v  0.1583 0.1663 0.0306
# 12 vertices

vn -0.7980 -0.2585 -0.5443
vn 0.3909 -0.9182 -0.0635
vn 0.4089 -0.1649 -0.8975
vn 0.3909 -0.9182 0.0635
vn -0.7980 -0.2585 0.5443
vn -0.6084 -0.3822 -0.6955
vn -0.3355 -0.7947 -0.5059
vn 0.8234 -0.2425 -0.5130
vn 0.7117 -0.1101 -0.6938
vn -0.6084 -0.3822 0.6955
vn -0.3355 -0.7947 0.5059
vn 0.4089 -0.1649 0.8975
vn 0.7117 -0.1101 0.6938
vn 0.5413 -0.6671 -0.5119
vn 0.8234 -0.2425 0.5130
vn 0.5413 -0.6671 0.5119
# 16 vertex normals

vt 0.0000 0.0000 0.0000
# 1 texture coords

g arml_0_0_015
usemtl Material__300
s 1
f 68/5/111 69/5/111 70/5/111 
f 69/5/112 68/5/112 71/5/112 
f 72/5/113 73/5/113 69/5/113 
f 68/5/114 74/5/114 71/5/114 
f 74/5/115 68/5/115 70/5/115 
f 70/5/116 69/5/116 73/5/116 
f 70/5/117 73/5/117 75/5/117 
f 76/5/118 73/5/118 72/5/118 
f 73/5/119 76/5/119 77/5/119 
f 74/5/120 70/5/120 78/5/120 
f 78/5/121 70/5/121 75/5/121 
f 78/5/122 79/5/122 74/5/122 
f 76/5/123 78/5/123 77/5/123 
f 73/5/124 77/5/124 75/5/124 
f 78/5/125 76/5/125 79/5/125 
f 77/5/126 78/5/126 75/5/126 
# 0 polygons - 16 triangles

#
# object arml_0_0_014
#

v  0.1240 0.1653 -0.0467
v  0.0758 0.2058 -0.0231
v  0.1068 0.2123 -0.0322
v  0.0946 0.1496 -0.0003
v  0.0752 0.2065 0.0224
v  0.1045 0.2339 -0.0003
v  0.1312 0.2227 -0.0140
v  0.1061 0.2117 0.0315
v  0.1583 0.1663 -0.0313
v  0.1240 0.1653 0.0461
v  0.1312 0.2227 0.0133
v  0.1778 0.1669 -0.0003
v  0.1583 0.1663 0.0306
# 13 vertices

vn -0.3107 0.1759 -0.9341
vn -0.6714 -0.4597 -0.5812
vn -0.9475 -0.3196 -0.0070
vn -0.3224 0.7728 -0.5467
vn 0.0611 0.8285 -0.5566
vn -0.6907 0.7229 -0.0199
vn -0.2951 0.7775 0.5554
vn 0.3676 0.3950 -0.8420
vn -0.6709 -0.4606 0.5812
vn 0.4083 0.4414 -0.7990
vn 0.0521 0.8212 0.5682
vn 0.3855 0.9227 -0.0000
vn 0.7310 0.4957 -0.4690
vn 0.7676 0.6410 -0.0000
vn 0.3658 0.4037 0.8386
vn 0.3948 0.4376 0.8079
vn -0.3053 0.1760 0.9359
vn 0.7310 0.4957 0.4690
# 18 vertex normals

vt 0.0000 0.0000 0.0000
# 1 texture coords

g arml_0_0_014
usemtl Material__299
s 1
f 80/6/127 81/6/127 82/6/127 
f 80/6/128 83/6/128 81/6/128 
f 83/6/129 84/6/129 81/6/129 
f 85/6/130 82/6/130 81/6/130 
f 82/6/131 85/6/131 86/6/131 
f 84/6/132 85/6/132 81/6/132 
f 87/6/133 85/6/133 84/6/133 
f 82/6/134 88/6/134 80/6/134 
f 83/6/135 89/6/135 84/6/135 
f 88/6/136 82/6/136 86/6/136 
f 85/6/137 87/6/137 90/6/137 
f 86/6/138 85/6/138 90/6/138 
f 91/6/139 88/6/139 86/6/139 
f 91/6/140 86/6/140 90/6/140 
f 92/6/141 87/6/141 89/6/141 
f 92/6/142 90/6/142 87/6/142 
f 84/6/143 89/6/143 87/6/143 
f 90/6/144 92/6/144 91/6/144 
# 0 polygons - 18 triangles

#
# object body_0_0_013
#

v  -0.1051 0.2105 -0.0513
v  -0.0997 0.2105 -0.0850
v  -0.1024 0.1805 -0.1032
v  -0.0715 0.1787 -0.1186
v  -0.0005 0.1732 -0.0913
v  -0.1106 0.1759 -0.0622
v  -0.0669 0.2415 -0.0995
v  -0.0005 0.2415 -0.1050
v  -0.0005 0.1732 -0.1314
v  -0.0687 0.2487 -0.0540
v  0.0714 0.1787 -0.1186
v  0.0668 0.2415 -0.0995
v  -0.0442 0.2824 -0.0513
v  0.0996 0.2105 -0.0840
v  0.1014 0.1805 -0.1032
v  0.1087 0.1759 -0.0613
v  0.0432 0.2824 -0.0504
v  0.1042 0.2105 -0.0504
v  0.0678 0.2487 -0.0531
v  -0.0433 0.2788 0.0488
v  -0.0342 0.3088 0.0798
v  0.0468 0.2615 0.0679
v  -0.0478 0.2615 0.0679
v  0.0332 0.3088 0.0798
v  0.0423 0.2788 0.0488
# 25 vertices

vn -0.9703 0.1836 -0.1574
vn -0.3614 0.5071 -0.7825
vn -0.0567 -0.9910 -0.1214
vn -0.9637 0.2058 -0.1699
vn -0.5943 0.2733 -0.7564
vn -0.0689 -0.9974 -0.0204
vn -0.0783 0.2955 -0.9521
vn -0.0767 -0.9971 -0.0000
vn -0.7233 0.6805 -0.1173
vn -0.1383 0.3572 -0.9237
vn 0.1366 0.3573 -0.9240
vn -0.7119 0.6885 -0.1386
vn 0.0772 0.2954 -0.9522
vn -0.0519 0.7732 -0.6320
vn 0.3677 0.5150 -0.7743
vn 0.6083 0.2711 -0.7460
vn 0.0572 -0.9914 -0.1177
vn 0.0693 -0.9975 -0.0171
vn 0.0507 0.7791 -0.6249
vn 0.0063 0.7976 -0.6032
vn 0.9807 0.1438 -0.1325
vn 0.9730 0.1754 -0.1501
vn 0.7241 0.6827 -0.0979
vn 0.7114 0.6920 -0.1225
vn -0.9620 0.2723 0.0186
vn 0.0021 0.9803 -0.1976
vn 0.0000 -0.2425 0.9701
vn -0.9619 0.2730 0.0180
vn 0.9621 0.2722 0.0188
vn 0.0000 0.9800 -0.1988
vn 0.9619 0.2730 0.0180
vn -0.7964 0.5914 -0.1265
vn 0.0757 -0.9971 -0.0000
vn 0.7988 0.5917 -0.1085
# 34 vertex normals

vt 0.0000 0.0000 0.0000
# 1 texture coords

g body_0_0_013
usemtl Material__310
s 1
f 93/7/145 94/7/145 95/7/145 
f 94/7/146 96/7/146 95/7/146 
f 97/7/147 98/7/147 95/7/147 
f 93/7/148 95/7/148 98/7/148 
f 96/7/149 94/7/149 99/7/149 
f 97/7/150 95/7/150 96/7/150 
f 100/7/151 96/7/151 99/7/151 
f 101/7/152 97/7/152 96/7/152 
f 102/7/153 94/7/153 93/7/153 
f 96/7/154 100/7/154 101/7/154 
f 100/7/155 103/7/155 101/7/155 
f 94/7/156 102/7/156 99/7/156 
f 103/7/157 100/7/157 104/7/157 
f 105/7/158 100/7/158 99/7/158 
f 103/7/159 106/7/159 107/7/159 
f 106/7/160 103/7/160 104/7/160 
f 97/7/161 107/7/161 108/7/161 
f 107/7/162 97/7/162 103/7/162 
f 100/7/163 109/7/163 104/7/163 
f 100/7/164 105/7/164 109/7/164 
f 107/7/165 106/7/165 110/7/165 
f 107/7/166 110/7/166 108/7/166 
f 106/7/167 111/7/167 110/7/167 
f 111/7/168 106/7/168 104/7/168 
f 112/7/169 113/7/169 105/7/169 
f 113/7/170 109/7/170 105/7/170 
f 114/7/171 113/7/171 115/7/171 
f 113/7/172 112/7/172 115/7/172 
f 116/7/173 117/7/173 109/7/173 
f 113/7/174 116/7/174 109/7/174 
f 117/7/175 116/7/175 114/7/175 
f 114/7/171 116/7/171 113/7/171 
f 99/7/176 102/7/176 105/7/176 
f 103/7/177 97/7/177 101/7/177 
f 111/7/178 104/7/178 109/7/178 
# 0 polygons - 35 triangles

#
# object body_0_0_012
#

v  -0.1425 0.2560 -0.0058
v  -0.1170 0.2123 0.0279
v  -0.0642 0.2624 0.0552
v  -0.1461 0.2952 -0.0322
v  0.1160 0.2123 0.0279
v  0.1415 0.2560 -0.0058
v  0.0632 0.2624 0.0552
v  -0.1042 0.3397 -0.0085
v  0.1451 0.2952 -0.0313
v  0.1032 0.3397 -0.0085
# 10 vertices

vn -0.6098 0.2292 0.7587
vn -0.5792 0.4181 0.6998
vn 0.6098 0.2292 0.7587
vn -0.6605 0.2431 0.7104
vn 0.6540 0.2496 0.7141
vn 0.5822 0.4049 0.7050
# 6 vertex normals

vt 0.0000 0.0000 0.0000
# 1 texture coords

g body_0_0_012
usemtl Material__307
s 1
f 118/8/179 119/8/179 120/8/179 
f 118/8/180 120/8/180 121/8/180 
f 122/8/181 123/8/181 124/8/181 
f 121/8/182 120/8/182 125/8/182 
f 124/8/183 126/8/183 127/8/183 
f 124/8/184 123/8/184 126/8/184 
# 0 polygons - 6 triangles

#
# object body_0_0_011
#

v  -0.1425 0.2560 -0.0058
v  -0.1033 0.2105 -0.0513
v  -0.1170 0.2123 0.0279
v  -0.0587 0.2360 -0.0941
v  -0.1461 0.2952 -0.0322
v  -0.0442 0.2824 -0.0513
v  -0.1042 0.3397 -0.0085
v  -0.0433 0.2788 0.0488
v  0.1415 0.2560 -0.0058
v  0.0587 0.2360 -0.0941
v  0.1451 0.2952 -0.0313
v  -0.0642 0.2624 0.0552
v  0.0432 0.2824 -0.0504
v  0.1032 0.3397 -0.0085
v  0.0423 0.2788 0.0488
v  0.0632 0.2624 0.0552
v  0.1032 0.2105 -0.0504
v  0.1160 0.2123 0.0279
# 18 vertices

vn -0.8112 -0.5709 -0.1267
vn -0.7138 0.0817 -0.6955
vn -0.0505 0.6853 -0.7265
vn -0.6983 -0.4438 -0.5617
vn 0.6976 0.7162 0.0197
vn -0.0913 0.5323 -0.8416
vn 0.7045 -0.4321 -0.5630
vn -0.1947 0.5615 0.8042
vn 0.0939 0.5210 -0.8484
vn 0.0482 0.6930 -0.7193
vn 0.1947 0.5615 0.8042
vn -0.6976 0.7163 0.0199
vn 0.8148 -0.5674 -0.1194
vn 0.7190 0.0734 -0.6911
# 14 vertex normals

vt 0.0000 0.0000 0.0000
# 1 texture coords

g body_0_0_011
usemtl Material__309
s 1
f 128/9/185 129/9/185 130/9/185 
f 129/9/186 128/9/186 131/9/186 
f 132/9/187 133/9/187 131/9/187 
f 131/9/188 128/9/188 132/9/188 
f 134/9/189 135/9/189 133/9/189 
f 133/9/190 132/9/190 134/9/190 
f 136/9/191 137/9/191 138/9/191 
f 139/9/192 135/9/192 134/9/192 
f 138/9/193 140/9/193 141/9/193 
f 140/9/194 138/9/194 137/9/194 
f 142/9/195 143/9/195 141/9/195 
f 142/9/196 141/9/196 140/9/196 
f 144/9/197 136/9/197 145/9/197 
f 136/9/198 144/9/198 137/9/198 
# 0 polygons - 14 triangles

#
# object body_0_0_010
#

v  -0.0005 0.0303 -0.0504
v  -0.0951 0.0558 -0.0504
v  -0.0733 0.0758 -0.0922
v  -0.1324 0.1377 -0.0495
v  -0.0551 0.1377 -0.1214
v  -0.1015 0.1377 -0.0922
v  -0.0396 0.1041 -0.1204
v  -0.0005 0.0495 -0.0922
v  -0.1033 0.0495 -0.0003
v  -0.1434 0.1377 0.0006
v  -0.0005 0.1377 -0.1314
v  -0.0005 0.0904 -0.1204
v  -0.0005 0.0212 -0.0003
v  -0.1279 0.0886 0.0479
v  0.0386 0.1041 -0.1204
v  -0.0715 0.2151 -0.0922
v  -0.0387 0.1796 -0.1214
v  -0.0533 0.0285 0.0479
v  0.0723 0.0758 -0.0922
v  -0.0005 0.1787 -0.1250
v  0.0541 0.1377 -0.1214
v  -0.1015 0.2469 0.0006
v  -0.0933 0.2387 -0.0495
v  0.0941 0.0558 -0.0504
v  -0.1279 0.1932 0.0479
v  0.0523 0.0285 0.0479
v  0.1005 0.1377 -0.0922
v  0.1023 0.0495 -0.0003
v  0.1315 0.1377 -0.0495
v  -0.0533 0.2760 0.0488
v  0.1269 0.0886 0.0479
v  0.1424 0.1377 0.0006
v  0.1005 0.2469 0.0006
v  0.1269 0.1932 0.0479
v  0.0705 0.2151 -0.0922
v  0.0923 0.2387 -0.0495
v  0.0377 0.1796 -0.1214
v  0.0523 0.2760 0.0479
v  -0.0005 0.2851 0.0006
# 39 vertices

vn -0.2232 -0.8289 -0.5129
vn -0.7578 -0.3390 -0.5575
vn -0.5165 -0.2355 -0.8232
vn -0.7600 -0.3465 -0.5498
vn -0.2032 -0.5604 -0.8029
vn -0.4914 -0.2483 -0.8348
vn -0.3132 -0.8639 -0.3944
vn -0.2565 -0.9527 -0.1632
vn -0.8934 -0.4048 -0.1949
vn -0.8935 -0.4033 -0.1975
vn -0.1793 -0.1088 -0.9778
vn -0.1941 -0.5565 -0.8078
vn -0.2606 -0.9499 -0.1727
vn -0.0782 -0.2242 -0.9714
vn -0.9036 -0.4085 -0.1289
vn 0.1941 -0.5565 -0.8078
vn -0.5205 0.2021 -0.8296
vn -0.7729 0.3001 -0.5591
vn -0.1799 0.0704 -0.9812
vn -0.5984 -0.7435 0.2984
vn 0.3132 -0.8639 -0.3944
vn -0.2619 -0.9545 -0.1425
vn -0.5185 0.2029 -0.8306
vn 0.0782 -0.2242 -0.9714
vn -0.0901 0.1531 -0.9841
vn 0.2032 -0.5604 -0.8029
vn 0.1793 -0.1088 -0.9778
vn -0.9150 0.3507 -0.1996
vn -0.7725 0.2993 -0.5600
vn 0.2561 -0.9511 -0.1729
vn 0.2232 -0.8289 -0.5129
vn -0.9505 0.0000 0.3107
vn 0.0000 -0.9888 0.1493
vn 0.4914 -0.2483 -0.8348
vn -0.9277 0.3556 -0.1139
vn -0.9123 0.3534 -0.2071
vn 0.5165 -0.2355 -0.8232
vn 0.2610 -0.9513 -0.1638
vn 0.7578 -0.3390 -0.5575
vn 0.2619 -0.9545 -0.1425
vn -0.7047 0.6315 0.3235
vn 0.7600 -0.3465 -0.5498
vn 0.5984 -0.7435 0.2984
vn 0.8935 -0.4033 -0.1975
vn 0.8934 -0.4048 -0.1949
vn 0.9277 0.3556 -0.1139
vn 0.9505 0.0000 0.3107
vn 0.9150 0.3507 -0.1996
vn 0.9036 -0.4085 -0.1289
vn 0.7725 0.2993 -0.5600
vn 0.9123 0.3534 -0.2071
vn 0.5205 0.2021 -0.8296
vn 0.7729 0.3001 -0.5591
vn 0.1799 0.0704 -0.9812
vn 0.5185 0.2029 -0.8306
vn 0.7022 0.6328 0.3263
vn 0.0901 0.1531 -0.9841
vn 0.0016 0.9823 0.1871
# 58 vertex normals

vt 0.0000 0.0000 0.0000
# 1 texture coords

g body_0_0_010
usemtl Material__305
s 1
f 146/10/199 147/10/199 148/10/199 
f 149/10/200 148/10/200 147/10/200 
f 150/10/201 148/10/201 151/10/201 
f 149/10/202 151/10/202 148/10/202 
f 152/10/203 153/10/203 148/10/203 
f 150/10/204 152/10/204 148/10/204 
f 146/10/205 148/10/205 153/10/205 
f 146/10/206 154/10/206 147/10/206 
f 155/10/207 149/10/207 147/10/207 
f 155/10/208 147/10/208 154/10/208 
f 156/10/209 152/10/209 150/10/209 
f 152/10/210 157/10/210 153/10/210 
f 146/10/211 158/10/211 154/10/211 
f 156/10/212 157/10/212 152/10/212 
f 154/10/213 159/10/213 155/10/213 
f 160/10/214 153/10/214 157/10/214 
f 161/10/215 150/10/215 151/10/215 
f 149/10/216 161/10/216 151/10/216 
f 156/10/217 150/10/217 162/10/217 
f 159/10/218 154/10/218 163/10/218 
f 164/10/219 146/10/219 153/10/219 
f 158/10/220 163/10/220 154/10/220 
f 161/10/221 162/10/221 150/10/221 
f 156/10/222 160/10/222 157/10/222 
f 156/10/223 162/10/223 165/10/223 
f 160/10/224 164/10/224 153/10/224 
f 156/10/225 166/10/225 160/10/225 
f 167/10/226 149/10/226 155/10/226 
f 149/10/227 168/10/227 161/10/227 
f 169/10/228 158/10/228 146/10/228 
f 164/10/229 169/10/229 146/10/229 
f 170/10/230 155/10/230 159/10/230 
f 163/10/231 158/10/231 171/10/231 
f 166/10/232 164/10/232 160/10/232 
f 155/10/233 170/10/233 167/10/233 
f 167/10/234 168/10/234 149/10/234 
f 166/10/235 172/10/235 164/10/235 
f 169/10/236 173/10/236 158/10/236 
f 164/10/237 174/10/237 169/10/237 
f 173/10/238 171/10/238 158/10/238 
f 175/10/239 167/10/239 170/10/239 
f 164/10/240 172/10/240 174/10/240 
f 171/10/241 173/10/241 176/10/241 
f 169/10/242 177/10/242 173/10/242 
f 169/10/243 174/10/243 177/10/243 
f 178/10/244 179/10/244 177/10/244 
f 176/10/245 177/10/245 179/10/245 
f 174/10/246 178/10/246 177/10/246 
f 177/10/247 176/10/247 173/10/247 
f 180/10/248 181/10/248 174/10/248 
f 174/10/249 181/10/249 178/10/249 
f 180/10/250 172/10/250 166/10/250 
f 180/10/251 174/10/251 172/10/251 
f 156/10/252 182/10/252 166/10/252 
f 180/10/253 166/10/253 182/10/253 
f 179/10/254 178/10/254 183/10/254 
f 156/10/255 165/10/255 182/10/255 
f 183/10/256 184/10/256 175/10/256 
# 0 polygons - 58 triangles

#
# object body_34B84CAB_0_009
#

v  -0.1279 0.0886 0.0479
v  -0.0715 0.0868 0.0943
v  -0.1015 0.1377 0.0943
v  -0.0533 0.0285 0.0479
v  -0.0005 0.0549 0.0943
v  -0.1279 0.1932 0.0479
v  -0.0551 0.1377 0.1225
v  0.0523 0.0285 0.0479
v  -0.0715 0.2151 0.0943
v  -0.0387 0.1095 0.1225
v  0.0705 0.0868 0.0943
v  -0.0005 0.0922 0.1225
v  -0.0533 0.2760 0.0488
v  -0.0005 0.1377 0.1325
v  0.1269 0.0886 0.0479
v  -0.0387 0.1796 0.1225
v  0.0377 0.1095 0.1225
v  0.0541 0.1377 0.1225
v  0.1005 0.1377 0.0943
v  -0.0005 0.2469 0.0943
v  -0.0005 0.1969 0.1225
v  0.1269 0.1932 0.0479
v  0.0377 0.1796 0.1225
v  0.0705 0.2151 0.0943
v  0.0523 0.2760 0.0479
# 25 vertices

vn -0.6009 -0.3541 0.7166
vn -0.5060 -0.6287 0.5905
vn -0.2918 -0.6502 0.7015
vn -0.8693 0.0000 0.4943
vn -0.4967 -0.2927 0.8171
vn 0.0000 -0.8693 0.4943
vn -0.6715 0.2607 0.6936
vn -0.2606 -0.5809 0.7711
vn 0.2918 -0.6502 0.7015
vn -0.5005 -0.2906 0.8155
vn -0.5092 0.1977 0.8377
vn -0.2632 -0.5818 0.7695
vn -0.6416 0.5725 0.5105
vn 0.2612 -0.5822 0.7700
vn -0.1793 -0.1041 0.9783
vn 0.5060 -0.6287 0.5905
vn -0.5072 0.1985 0.8387
vn -0.0967 -0.2139 0.9721
vn -0.1799 0.0704 0.9812
vn 0.2621 -0.5794 0.7717
vn 0.5005 -0.2906 0.8155
vn 0.0967 -0.2139 0.9721
vn 0.6009 -0.3541 0.7166
vn -0.2147 0.4785 0.8514
vn 0.1793 -0.1041 0.9783
vn -0.0753 0.1664 0.9832
vn -0.2168 0.4793 0.8504
vn 0.4967 -0.2927 0.8171
vn 0.8693 0.0000 0.4943
vn 0.0753 0.1664 0.9832
vn 0.2160 0.4775 0.8516
vn 0.0046 0.8447 0.5352
vn 0.6715 0.2607 0.6936
vn 0.2152 0.4795 0.8507
vn -0.2811 0.6265 0.7270
vn 0.2840 0.6330 0.7202
vn 0.5092 0.1977 0.8377
vn 0.1799 0.0704 0.9812
vn 0.6404 0.5770 0.5069
vn 0.5072 0.1985 0.8387
# 40 vertex normals

vt 0.0975 0.1948 0.0000
vt 0.2761 0.1890 0.0000
vt 0.1823 0.3765 0.0000
vt 0.3353 -0.0249 0.0000
vt 0.5020 0.0718 0.0000
vt 0.0975 0.5801 0.0000
vt 0.3289 0.3765 0.0000
vt 0.6683 -0.0249 0.0000
vt 0.2761 0.6587 0.0000
vt 0.3795 0.2734 0.0000
vt 0.7280 0.1890 0.0000
vt 0.5020 0.2100 0.0000
vt 0.3353 0.8828 0.0000
vt 0.5020 0.3765 0.0000
vt 0.9061 0.1948 0.0000
vt 0.3795 0.5293 0.0000
vt 0.6241 0.2734 0.0000
vt 0.6747 0.3765 0.0000
vt 0.8213 0.3765 0.0000
vt 0.5020 0.7759 0.0000
vt 0.5020 0.5928 0.0000
vt 0.9061 0.5801 0.0000
vt 0.6241 0.5293 0.0000
vt 0.7280 0.6587 0.0000
vt 0.6683 0.8828 0.0000
# 25 texture coords

g body_34B84CAB_0_009
usemtl Material__298
s 1
f 185/11/257 186/12/257 187/13/257 
f 186/12/258 185/11/258 188/14/258 
f 188/14/259 189/15/259 186/12/259 
f 187/13/260 190/16/260 185/11/260 
f 186/12/261 191/17/261 187/13/261 
f 189/15/262 188/14/262 192/18/262 
f 190/16/263 187/13/263 193/19/263 
f 189/15/264 194/20/264 186/12/264 
f 192/18/265 195/21/265 189/15/265 
f 186/12/266 194/20/266 191/17/266 
f 191/17/267 193/19/267 187/13/267 
f 189/15/268 196/22/268 194/20/268 
f 193/19/269 197/23/269 190/16/269 
f 195/21/270 196/22/270 189/15/270 
f 198/24/271 191/17/271 194/20/271 
f 195/21/272 192/18/272 199/25/272 
f 191/17/273 200/26/273 193/19/273 
f 198/24/274 194/20/274 196/22/274 
f 198/24/275 200/26/275 191/17/275 
f 195/21/276 201/27/276 196/22/276 
f 195/21/277 202/28/277 201/27/277 
f 198/24/278 196/22/278 201/27/278 
f 199/25/279 203/29/279 195/21/279 
f 200/26/280 204/30/280 193/19/280 
f 198/24/281 201/27/281 202/28/281 
f 198/24/282 205/31/282 200/26/282 
f 200/26/283 205/31/283 204/30/283 
f 195/21/284 203/29/284 202/28/284 
f 203/29/285 199/25/285 206/32/285 
f 198/24/286 207/33/286 205/31/286 
f 205/31/287 207/33/287 208/34/287 
f 204/30/288 209/35/288 197/23/288 
f 206/32/289 208/34/289 203/29/289 
f 205/31/290 208/34/290 204/30/290 
f 197/23/291 193/19/291 204/30/291 
f 209/35/292 204/30/292 208/34/292 
f 202/28/293 203/29/293 208/34/293 
f 198/24/294 202/28/294 207/33/294 
f 208/34/295 206/32/295 209/35/295 
f 202/28/296 208/34/296 207/33/296 
# 0 polygons - 40 triangles

#
# object blaster_1CE30812_0_023
#

v  -0.1700 0.0792 0.0543
v  -0.1600 0.1117 0.0652
v  -0.1812 0.1163 0.0652
v  -0.1859 0.0827 0.0544
v  -0.1702 0.0793 -0.0544
v  -0.1861 0.0828 -0.0544
v  -0.1815 0.1163 -0.0544
v  -0.1664 0.0958 0.0299
v  -0.1543 0.1508 0.0489
v  -0.1701 0.1543 0.0489
v  -0.1823 0.0992 0.0299
v  -0.1603 0.1117 -0.0544
v  -0.1666 0.1708 0.0190
v  -0.1812 0.1047 -0.0000
v  -0.1507 0.1673 0.0190
v  -0.1653 0.1013 -0.0000
# 16 vertices

vn -0.0635 -0.2993 0.9521
vn -0.2148 -0.9767 0.0004
vn -0.9907 0.1361 0.0025
vn -0.0664 -0.3127 0.9475
vn 0.2148 0.9767 -0.0004
vn 0.9563 -0.2923 -0.0024
vn -0.9766 0.2149 0.0024
vn 0.9766 -0.2149 -0.0024
vn 0.1883 0.8502 0.4916
vn 0.0558 0.2648 -0.9627
vn -0.0025 0.0002 -1.0000
# 11 vertex normals

vt 1.0000 0.9082 0.0000
vt 0.0000 1.0000 0.0000
vt 1.0000 0.0000 0.0000
vt 0.0000 0.0000 0.0000
vt 0.9727 0.3291 0.0000
vt 1.0000 0.2217 0.0000
vt 0.0000 0.2109 0.0000
vt 0.0762 0.3369 0.0000
# 8 texture coords

g blaster_1CE30812_0_023
usemtl Material__206
s 1
f 210/36/297 211/37/297 212/37/297 
f 210/36/297 212/37/297 213/36/297 
f 214/38/298 213/36/298 215/38/298 
f 214/38/298 210/36/298 213/36/298 
f 216/39/299 215/38/299 213/36/299 
f 216/39/299 213/36/299 212/37/299 
f 217/40/300 218/41/300 219/41/300 
f 217/40/300 219/41/300 220/40/300 
f 211/37/301 221/39/301 216/39/301 
f 211/37/301 216/39/301 212/37/301 
f 210/36/302 214/38/302 221/39/302 
f 210/36/302 221/39/302 211/37/302 
f 222/42/303 223/43/303 220/40/303 
f 222/42/303 220/40/303 219/41/303 
f 217/40/304 224/42/304 218/41/304 
f 217/40/304 225/43/304 224/42/304 
f 218/41/305 224/42/305 222/42/305 
f 218/41/305 222/42/305 219/41/305 
f 223/43/306 222/42/306 224/42/306 
f 223/43/306 224/42/306 225/43/306 
f 215/38/307 216/39/307 221/39/307 
f 215/38/307 221/39/307 214/38/307 
# 0 polygons - 22 triangles

