# 3ds Max Wavefront OBJ Exporter v0.97b - (c)2007 guruware
# File Created: 27.10.2016 21:34:41

mtllib link.mtl

#
# object Nemu_60999451_0_063
#

v  -0.0276 0.0701 -0.0312
v  -0.0314 0.0006 0.0776
v  0.0008 0.0011 -0.0451
v  -0.0663 0.0002 -0.0495
# 4 vertices

vn 0.9133 0.3283 0.2408
vn 0.0602 0.2206 -0.9735
vn 0.0130 -0.9999 -0.0001
vn -0.8749 0.4213 0.2388
# 4 vertex normals

vt 0.5974 0.0203 0.0000
vt 0.0081 0.4714 0.0000
vt 0.5242 0.7965 0.0000
vt 0.6706 0.7640 0.0000
# 4 texture coords

g Nemu_60999451_0_063
usemtl Material__32
s 1
f 1/1/1 2/1/1 3/1/1 
f 3/2/2 4/2/2 1/2/2 
f 4/3/3 3/3/3 2/3/3 
f 1/4/4 4/4/4 2/4/4 
# 0 polygons - 4 triangles

#
# object Nemu_60999451_0_062
#

v  -0.0491 0.1665 -0.0327
v  -0.0287 0.0490 0.0177
v  -0.0238 0.1886 0.0372
v  0.0009 0.1663 -0.0288
v  0.0045 0.0440 -0.0434
v  -0.0557 0.0442 -0.0477
# 6 vertices

vn -0.9384 -0.0152 0.3451
vn 0.0274 0.9502 -0.3105
vn 0.0767 0.1200 -0.9898
vn -0.9244 0.0028 0.3814
vn 0.8769 -0.0311 0.4796
vn 0.0717 0.1179 -0.9904
vn 0.9236 -0.0848 0.3739
vn -0.0091 -0.9969 0.0777
# 8 vertex normals

vt 0.5202 0.4430 0.0000
vt 0.0284 0.6827 0.0000
vt 0.4633 1.0119 0.0000
vt 0.5161 0.4227 0.0000
vt 0.5242 0.1829 0.0000
vt 0.5527 0.2276 0.0000
vt 1.0322 0.4714 0.0000
# 7 texture coords

g Nemu_60999451_0_062
usemtl Material__32
s 1
f 5/5/5 6/5/5 7/5/5 
f 5/6/6 7/6/6 8/6/6 
f 5/7/7 8/7/7 9/7/7 
f 6/8/8 5/8/8 10/8/8 
f 8/9/9 6/9/9 9/9/9 
f 5/7/10 9/7/10 10/7/10 
f 6/10/11 8/10/11 7/10/11 
f 10/11/12 9/11/12 6/11/12 
# 0 polygons - 8 triangles

#
# object Nemu_60999451_0_061
#

v  -0.0013 0.2599 -0.0327
v  -0.0421 0.1620 -0.0292
v  -0.0472 0.2571 -0.0033
v  -0.0231 0.1629 0.0087
v  -0.0120 0.2544 0.0212
v  -0.0062 0.1620 -0.0263
# 6 vertices

vn -0.5373 0.1946 -0.8207
vn -0.5724 -0.0419 0.8189
vn 0.0800 -0.0688 -0.9944
vn -0.8799 -0.1680 0.4444
# 4 vertex normals

vt 0.4227 0.9916 0.0000
vt 0.5283 0.1666 0.0000
vt 0.5527 1.0160 0.0000
vt 0.5974 0.3901 0.0000
# 4 texture coords

g Nemu_60999451_0_061
usemtl Material__32
s 1
f 11/12/13 12/12/13 13/12/13 
f 13/13/14 14/13/14 15/13/14 
f 12/14/15 11/14/15 16/14/15 
f 14/15/16 13/15/16 12/15/16 
# 0 polygons - 4 triangles

#
# object Nemu_60999451_0_060
#

v  -0.0062 0.1620 -0.0263
v  -0.0120 0.2544 0.0212
v  -0.0231 0.1629 0.0087
v  -0.0013 0.2599 -0.0327
v  -0.0421 0.1620 -0.0292
# 5 vertices

vn 0.8852 -0.1673 0.4340
vn 0.9810 -0.0362 0.1904
vn -0.0027 -0.9997 0.0249
# 3 vertex normals

vt 0.6015 0.2073 0.0000
vt 0.5364 0.3170 0.0000
vt 1.0322 0.5121 0.0000
# 3 texture coords

g Nemu_60999451_0_060
usemtl Material__32
s 1
f 17/16/17 18/16/17 19/16/17 
f 18/17/18 17/17/18 20/17/18 
f 17/18/19 19/18/19 21/18/19 
# 0 polygons - 3 triangles

#
# object Nemu_60999451_0_059
#

v  0.0277 0.0692 -0.0323
v  0.0001 0.0012 -0.0460
v  0.0323 0.0003 0.0765
v  0.0663 0.0003 -0.0500
# 4 vertices

vn -0.9150 0.3219 0.2433
vn -0.0558 0.2191 -0.9741
vn 0.8721 0.4294 0.2347
vn -0.0142 -0.9999 -0.0041
# 4 vertex normals

vt 0.6137 0.0122 0.0000
vt 0.0081 0.4633 0.0000
vt 0.6502 0.8087 0.0000
vt 0.5242 0.7518 0.0000
# 4 texture coords

g Nemu_60999451_0_059
usemtl Material__32
s 1
f 22/19/20 23/19/20 24/19/20 
f 25/20/21 23/20/21 22/20/21 
f 22/21/22 24/21/22 25/21/22 
f 23/22/23 25/22/23 24/22/23 
# 0 polygons - 4 triangles

#
# object Nemu_60999451_0_058
#

v  -0.0005 0.1663 -0.0289
v  0.0290 0.0490 0.0177
v  0.0241 0.1886 0.0372
v  0.0495 0.1665 -0.0326
v  -0.0041 0.0440 -0.0434
v  0.0561 0.0442 -0.0477
# 6 vertices

vn -0.9242 -0.0848 0.3725
vn -0.0269 0.9502 -0.3106
vn -0.8777 -0.0311 0.4782
vn 0.9379 -0.0152 0.3465
vn -0.0702 0.1199 -0.9903
vn -0.0752 0.1176 -0.9902
vn 0.0090 -0.9969 0.0777
vn 0.9238 0.0028 0.3828
# 8 vertex normals

vt 0.5527 0.2276 0.0000
vt 0.0284 0.6827 0.0000
vt 0.5242 0.1829 0.0000
vt 0.5202 0.4430 0.0000
vt 0.4633 1.0119 0.0000
vt 1.0322 0.4714 0.0000
vt 0.5161 0.4227 0.0000
# 7 texture coords

g Nemu_60999451_0_058
usemtl Material__32
s 1
f 26/23/24 27/23/24 28/23/24 
f 28/24/25 29/24/25 26/24/25 
f 27/25/26 26/25/26 30/25/26 
f 27/26/27 29/26/27 28/26/27 
f 26/27/28 31/27/28 30/27/28 
f 26/27/29 29/27/29 31/27/29 
f 30/28/30 31/28/30 27/28/30 
f 29/29/31 27/29/31 31/29/31 
# 0 polygons - 8 triangles

#
# object Nemu_60999451_0_057
#

v  0.0123 0.2544 0.0211
v  0.0066 0.1620 -0.0263
v  0.0235 0.1629 0.0087
v  0.0015 0.2599 -0.0315
v  0.0423 0.1620 -0.0280
v  0.0476 0.2571 -0.0033
# 6 vertices

vn -0.8859 -0.1673 0.4326
vn -0.9796 -0.0405 0.1970
vn 0.0016 -0.9997 0.0254
vn 0.5214 0.1870 -0.8326
# 4 vertex normals

vt 0.6015 0.2073 0.0000
vt 0.5364 0.3170 0.0000
vt 1.0322 0.5080 0.0000
vt 0.4227 0.9916 0.0000
# 4 texture coords

g Nemu_60999451_0_057
usemtl Material__32
s 1
f 32/30/32 33/30/32 34/30/32 
f 33/31/33 32/31/33 35/31/33 
f 36/32/34 34/32/34 33/32/34 
f 37/33/35 36/33/35 35/33/35 
# 0 polygons - 4 triangles

#
# object Nemu_60999451_0_056
#

v  0.0423 0.1620 -0.0280
v  0.0066 0.1620 -0.0263
v  0.0015 0.2599 -0.0315
v  0.0235 0.1629 0.0087
v  0.0476 0.2571 -0.0033
v  0.0123 0.2544 0.0211
# 6 vertices

vn -0.0454 -0.0552 -0.9974
vn 0.5711 -0.0419 0.8198
vn 0.8759 -0.1662 0.4529
# 3 vertex normals

vt 0.5527 1.0119 0.0000
vt 0.5283 0.1666 0.0000
vt 0.5974 0.3901 0.0000
# 3 texture coords

g Nemu_60999451_0_056
usemtl Material__32
s 1
f 38/34/36 39/34/36 40/34/36 
f 41/35/37 42/35/37 43/35/37 
f 42/36/38 41/36/38 38/36/38 
# 0 polygons - 3 triangles

#
# object Nemu_60999451_0_055
#

v  -0.0382 0.4826 -0.0134
v  -0.0407 0.5309 0.0027
v  0.0002 0.5408 -0.0443
v  0.0002 0.4752 -0.0654
v  0.0386 0.4826 -0.0134
v  0.0002 0.4591 0.0300
v  0.0411 0.5309 0.0027
v  0.0002 0.5643 0.0448
# 8 vertices

vn -0.7615 0.1695 -0.6256
vn -0.7762 0.1926 -0.6004
vn 0.7762 0.1926 -0.6004
vn 0.0000 -0.9899 0.1414
vn 0.0000 -0.8789 -0.4771
vn 0.7615 0.1695 -0.6256
vn -0.4671 0.8550 -0.2256
vn 0.7872 -0.2310 0.5718
vn 0.4671 0.8550 -0.2256
vn 0.6713 -0.1036 0.7339
vn -0.7872 -0.2310 0.5718
vn -0.6713 -0.1036 0.7339
# 12 vertex normals

vt -0.0821 0.5769 0.0000
vt 1.1144 0.5769 0.0000
vt 0.5161 -0.5425 0.0000
vt 0.5161 -0.2719 0.0000
vt 0.2883 1.2724 0.0000
vt 1.1411 0.4322 0.0000
vt 0.7440 1.2724 0.0000
vt 0.9609 0.4817 0.0000
vt -0.1088 0.4322 0.0000
vt 0.0713 0.4817 0.0000
# 10 texture coords

g Nemu_60999451_0_055
usemtl Material__32
s 1
f 44/37/39 45/37/39 46/37/39 
f 44/37/40 46/37/40 47/37/40 
f 46/38/41 48/38/41 47/38/41 
f 47/39/42 48/39/42 44/39/42 
f 44/40/43 48/40/43 49/40/43 
f 46/38/44 50/38/44 48/38/44 
f 51/41/45 46/41/45 45/41/45 
f 49/42/46 48/42/46 50/42/46 
f 51/43/47 50/43/47 46/43/47 
f 51/44/48 49/44/48 50/44/48 
f 44/45/49 49/45/49 45/45/49 
f 51/46/50 45/46/50 49/46/50 
# 0 polygons - 12 triangles

#
# object Nemu_60999451_0_054
#

v  -0.0171 0.4981 -0.0200
v  0.0175 0.4981 -0.0200
v  0.0311 0.4560 -0.0373
v  -0.0308 0.4560 -0.0373
v  -0.0122 0.4882 0.0085
v  -0.0209 0.4448 0.0048
v  0.0212 0.4448 0.0048
v  0.0126 0.4882 0.0085
# 8 vertices

vn 0.0000 0.3807 -0.9247
vn -0.9486 0.2090 0.2377
vn -0.9490 0.1669 0.2675
vn 0.0000 -0.0854 0.9963
vn 0.9490 0.1669 0.2675
vn 0.9486 0.2090 0.2377
# 6 vertex normals

vt 0.5161 0.7153 0.0000
vt 0.0244 0.6055 0.0000
vt 0.5161 0.4714 0.0000
vt 1.0079 0.6055 0.0000
# 4 texture coords

g Nemu_60999451_0_054
usemtl Material__32
s 1
f 52/47/51 53/47/51 54/47/51 
f 52/47/51 54/47/51 55/47/51 
f 56/48/52 52/48/52 55/48/52 
f 56/48/53 55/48/53 57/48/53 
f 58/49/54 59/49/54 56/49/54 
f 58/49/54 56/49/54 57/49/54 
f 54/50/55 59/50/55 58/50/55 
f 54/50/56 53/50/56 59/50/56 
# 0 polygons - 8 triangles

#
# object Nemu_60999451_0_053
#

v  -0.2399 0.4604 -0.0735
v  -0.2480 0.5080 -0.0164
v  -0.3271 0.4738 -0.0161
v  -0.2391 0.4606 0.0398
v  -0.1641 0.5065 -0.0182
# 5 vertices

vn 0.3088 -0.7093 0.6336
vn -0.3088 0.7093 -0.6336
vn 0.3030 -0.7045 -0.6418
vn -0.3030 0.7045 0.6418
vn 0.0000 0.7688 -0.6395
vn -0.0000 -0.7688 0.6395
vn 0.0279 0.7664 0.6418
vn -0.0279 -0.7664 -0.6418
# 8 vertex normals

vt 0.8534 0.6746 0.0000
vt 0.1788 0.3576 0.0000
vt 0.1869 0.6706 0.0000
vt 0.8453 0.3617 0.0000
vt 0.1788 0.5161 0.0000
vt 0.8534 0.5161 0.0000
vt 0.8453 0.5202 0.0000
vt 0.1869 0.5121 0.0000
# 8 texture coords

g Nemu_60999451_0_053
usemtl Material__32
s 1
f 60/51/57 61/51/57 62/51/57 
f 61/52/58 60/52/58 62/52/58 
f 61/53/59 63/53/59 62/53/59 
f 63/54/60 61/54/60 62/54/60 
f 64/55/61 60/55/61 61/55/61 
f 60/56/62 64/56/62 61/56/62 
f 64/57/63 61/57/63 63/57/63 
f 61/58/64 64/58/64 63/58/64 
# 0 polygons - 8 triangles

#
# object Nemu_60999451_0_052
#

v  -0.2185 0.4574 -0.0159
v  -0.2544 0.4676 -0.0303
v  -0.2615 0.4685 0.0093
v  -0.2184 0.4227 -0.0001
v  -0.2187 0.4230 -0.0323
v  -0.2791 0.4191 0.0090
v  -0.2757 0.4195 -0.0367
# 7 vertices

vn 0.2622 0.9647 0.0250
vn 0.5383 0.3480 0.7676
vn 0.4352 0.3839 -0.8144
vn 1.0000 -0.0036 -0.0085
vn 0.0574 -0.9983 -0.0097
vn 0.1522 -0.0601 0.9865
vn -0.9404 0.3338 -0.0654
vn 0.0609 -0.9981 -0.0045
vn -0.8927 0.4176 -0.1691
vn 0.0722 0.1011 -0.9923
# 10 vertex normals

vt 0.4176 0.5031 0.0000
vt 0.2326 -0.0821 0.0000
vt 0.3187 1.2117 0.0000
vt -0.5626 0.5161 0.0000
vt 0.4926 0.5135 0.0000
vt 0.4645 -0.5425 0.0000
vt 1.4594 0.5397 0.0000
vt 1.3706 0.5769 0.0000
vt 0.4899 1.5747 0.0000
# 9 texture coords

g Nemu_60999451_0_052
usemtl Material__32
s 1
f 65/59/65 66/59/65 67/59/65 
f 68/60/66 65/60/66 67/60/66 
f 69/61/67 66/61/67 65/61/67 
f 69/62/68 65/62/68 68/62/68 
f 70/63/69 69/63/69 68/63/69 
f 68/64/70 67/64/70 70/64/70 
f 67/65/71 71/65/71 70/65/71 
f 70/63/72 71/63/72 69/63/72 
f 71/66/73 67/66/73 66/66/73 
f 66/67/74 69/67/74 71/67/74 
# 0 polygons - 10 triangles

#
# object Nemu_60999451_0_051
#

v  -0.2258 0.4550 -0.0172
v  -0.1625 0.4049 0.0251
v  -0.1613 0.4820 -0.0175
v  -0.1404 0.4411 -0.0168
v  -0.1632 0.4044 -0.0602
v  -0.2257 0.4263 0.0048
v  -0.2249 0.4267 -0.0397
# 7 vertices

vn -0.1954 0.4766 0.8571
vn 0.6677 0.3524 0.6557
vn 0.6846 0.3392 -0.6452
vn -0.0480 0.6082 0.7923
vn -0.3168 -0.9484 -0.0148
vn 0.8514 -0.5245 -0.0045
vn -0.0350 0.6225 -0.7818
vn -0.3378 -0.9412 0.0078
vn -0.2033 0.4766 -0.8553
# 9 vertex normals

vt 0.6055 0.0813 0.0000
vt 0.1747 0.1747 0.0000
vt 0.1707 0.8575 0.0000
vt 0.6868 0.5161 0.0000
vt 0.0772 0.5161 0.0000
vt 0.5974 0.9550 0.0000
# 6 texture coords

g Nemu_60999451_0_051
usemtl Material__32
s 1
f 72/68/75 73/68/75 74/68/75 
f 73/69/76 75/69/76 74/69/76 
f 74/70/77 75/70/77 76/70/77 
f 72/68/78 77/68/78 73/68/78 
f 73/71/79 77/71/79 78/71/79 
f 76/72/80 75/72/80 73/72/80 
f 76/73/81 78/73/81 72/73/81 
f 73/71/82 78/71/82 76/71/82 
f 76/73/83 72/73/83 74/73/83 
# 0 polygons - 9 triangles

#
# object Nemu_60999451_0_050
#

v  -0.1075 0.4632 -0.0181
v  -0.0540 0.4193 0.0243
v  -0.0801 0.4903 -0.0181
v  -0.0480 0.4618 -0.0186
v  -0.0547 0.4201 -0.0585
v  -0.1074 0.4209 0.0050
v  -0.1078 0.4201 -0.0395
v  -0.1521 0.4584 -0.0178
v  -0.1520 0.4273 0.0005
v  -0.1523 0.4277 -0.0378
# 10 vertices

vn -0.3700 0.3725 0.8511
vn 0.5188 0.5710 0.6363
vn 0.4886 0.5614 -0.6679
vn -0.2900 0.4589 0.8398
vn -0.3605 0.3641 -0.8588
vn 0.9888 -0.1492 -0.0097
vn -0.0369 -0.9991 0.0188
vn -0.3048 0.4259 -0.8519
vn -0.0449 0.4792 0.8765
vn -0.0037 -1.0000 -0.0092
vn -0.1410 -0.9900 -0.0079
vn -0.0147 0.5065 0.8621
vn -0.0544 0.4448 -0.8940
vn -0.1668 -0.9858 0.0197
vn -1.0000 0.0036 0.0085
vn 0.0611 0.5453 -0.8360
# 16 vertex normals

vt 0.6909 0.0813 0.0000
vt 0.2438 0.1910 0.0000
vt 0.2560 0.8575 0.0000
vt 0.6787 0.9632 0.0000
vt 0.0041 0.5161 0.0000
vt 0.5202 0.5161 0.0000
vt 0.5364 0.0691 0.0000
vt 0.5933 0.5161 0.0000
vt 0.5161 0.9713 0.0000
vt 1.0322 0.5161 0.0000
# 10 texture coords

g Nemu_60999451_0_050
usemtl Material__32
s 1
f 79/74/84 80/74/84 81/74/84 
f 80/75/85 82/75/85 81/75/85 
f 81/76/86 82/76/86 83/76/86 
f 79/74/87 84/74/87 80/74/87 
f 83/77/88 79/77/88 81/77/88 
f 83/78/89 82/78/89 80/78/89 
f 80/79/90 84/79/90 85/79/90 
f 83/77/91 85/77/91 79/77/91 
f 86/80/92 84/80/92 79/80/92 
f 80/79/93 85/79/93 83/79/93 
f 84/81/94 87/81/94 88/81/94 
f 86/80/95 87/80/95 84/80/95 
f 85/82/96 86/82/96 79/82/96 
f 84/81/97 88/81/97 85/81/97 
f 86/83/98 88/83/98 87/83/98 
f 85/82/99 88/82/99 86/82/99 
# 0 polygons - 16 triangles

#
# object Nemu_60999451_0_049
#

v  0.2612 0.4424 0.0389
v  0.2451 0.4424 0.0389
v  0.2375 0.4426 -0.1021
v  0.2684 0.4427 -0.1021
# 4 vertices

vn 0.0022 -1.0000 -0.0020
# 1 vertex normals

vt 0.5161 0.0000 0.0000
# 1 texture coords

g Nemu_60999451_0_049
usemtl Material__32
s 1
f 89/84/100 90/84/100 91/84/100 
f 89/84/100 91/84/100 92/84/100 
# 0 polygons - 2 triangles

#
# object Nemu_60999451_0_048
#

v  0.2529 0.4419 0.3146
v  0.2723 0.4426 0.0215
v  0.2314 0.4660 0.0218
v  0.2315 0.4190 0.0213
# 4 vertices

vn 0.4964 0.8674 0.0350
vn -0.9973 -0.0030 0.0730
vn 0.5000 -0.8655 0.0310
# 3 vertex normals

vt 0.7762 0.9632 0.0000
vt 0.0000 0.5161 0.0000
vt 0.7721 0.0691 0.0000
# 3 texture coords

g Nemu_60999451_0_048
usemtl Material__32
s 1
f 93/85/101 94/85/101 95/85/101 
f 93/86/102 95/86/102 96/86/102 
f 93/87/103 96/87/103 94/87/103 
# 0 polygons - 3 triangles

#
# object Nemu_60999451_0_047
#

v  0.2764 0.4198 -0.0364
v  0.2189 0.4228 -0.0002
v  0.2194 0.4232 -0.0323
v  0.2189 0.4576 -0.0159
v  0.2618 0.4687 0.0096
v  0.2794 0.4193 0.0094
v  0.2550 0.4679 -0.0301
# 7 vertices

vn -0.0598 -0.9981 -0.0117
vn -0.9999 -0.0051 -0.0156
vn -0.1591 -0.0619 0.9853
vn -0.0566 -0.9984 -0.0067
vn -0.4299 0.3846 -0.8169
vn -0.5441 0.3459 0.7644
vn -0.0653 0.1026 -0.9926
vn 0.9403 0.3354 -0.0582
vn 0.8933 0.4193 -0.1622
vn -0.2638 0.9643 0.0247
# 10 vertex normals

vt 0.4926 0.5135 0.0000
vt -0.5626 0.5161 0.0000
vt 0.4674 -0.5425 0.0000
vt 0.3129 1.1971 0.0000
vt 0.2401 -0.0821 0.0000
vt 0.4872 1.5747 0.0000
vt 1.4594 0.5424 0.0000
vt 1.3706 0.5769 0.0000
vt 0.4176 0.5031 0.0000
# 9 texture coords

g Nemu_60999451_0_047
usemtl Material__32
s 1
f 97/88/104 98/88/104 99/88/104 
f 100/89/105 99/89/105 98/89/105 
f 101/90/106 98/90/106 102/90/106 
f 97/88/107 102/88/107 98/88/107 
f 103/91/108 99/91/108 100/91/108 
f 100/92/109 98/92/109 101/92/109 
f 99/93/110 103/93/110 97/93/110 
f 97/94/111 101/94/111 102/94/111 
f 101/95/112 97/95/112 103/95/112 
f 103/96/113 100/96/113 101/96/113 
# 0 polygons - 10 triangles

#
# object Nemu_60999451_0_046
#

v  0.1403 0.4412 -0.0173
v  0.1634 0.4050 0.0260
v  0.1624 0.4821 -0.0177
v  0.1635 0.4046 -0.0606
v  0.2255 0.4265 0.0049
v  0.2257 0.4552 -0.0171
v  0.2262 0.4270 -0.0396
# 7 vertices

vn -0.6607 0.3638 0.6566
vn -0.8441 -0.5362 0.0008
vn 0.2417 0.5887 0.7714
vn 0.1223 0.4904 0.8629
vn 0.3264 -0.9452 -0.0052
vn 0.3347 -0.9423 0.0038
vn 0.2652 0.6051 -0.7506
vn -0.6681 0.3534 -0.6548
vn 0.1187 0.4821 -0.8680
# 9 vertex normals

vt 0.1788 0.1707 0.0000
vt 0.0772 0.5121 0.0000
vt 0.6096 0.0853 0.0000
vt 0.6868 0.5161 0.0000
vt 0.5933 0.9550 0.0000
vt 0.1707 0.8534 0.0000
# 6 texture coords

g Nemu_60999451_0_046
usemtl Material__32
s 1
f 104/97/114 105/97/114 106/97/114 
f 104/98/115 107/98/115 105/98/115 
f 108/99/116 109/99/116 106/99/116 
f 108/99/117 106/99/117 105/99/117 
f 110/100/118 108/100/118 105/100/118 
f 110/100/119 105/100/119 107/100/119 
f 106/101/120 109/101/120 110/101/120 
f 104/102/121 106/102/121 107/102/121 
f 106/101/122 110/101/122 107/101/122 
# 0 polygons - 9 triangles

#
# object Nemu_60999451_0_045
#

v  0.1081 0.4202 -0.0397
v  0.1080 0.4210 0.0048
v  0.0547 0.4192 0.0244
v  0.0484 0.4617 -0.0184
v  0.0549 0.4201 -0.0584
v  0.0804 0.4903 -0.0180
v  0.1078 0.4633 -0.0182
v  0.1525 0.4274 0.0001
v  0.1526 0.4278 -0.0383
v  0.1524 0.4585 -0.0181
# 10 vertices

vn 0.0386 -0.9991 0.0171
vn -0.9885 -0.1508 -0.0048
vn 0.3040 0.4047 0.8625
vn 0.0052 -0.9999 -0.0107
vn -0.5163 0.5692 0.6399
vn 0.4331 0.4324 0.7909
vn 0.3053 0.3894 -0.8690
vn -0.4929 0.5617 -0.6645
vn 0.0238 0.4783 0.8779
vn 0.4004 0.4114 -0.8188
vn 0.1426 -0.9897 -0.0102
vn 0.0515 0.5047 0.8618
vn -0.0471 0.4458 -0.8939
vn 0.1684 -0.9856 0.0173
vn 1.0000 0.0052 0.0033
vn 0.0596 0.5474 -0.8347
# 16 vertex normals

vt 0.5202 0.5161 0.0000
vt 0.0041 0.5161 0.0000
vt 0.6909 0.0813 0.0000
vt 0.2438 0.1910 0.0000
vt 0.6787 0.9632 0.0000
vt 0.2560 0.8575 0.0000
vt 0.5364 0.0691 0.0000
vt 0.5933 0.5161 0.0000
vt 0.5161 0.9713 0.0000
vt 1.0322 0.5161 0.0000
# 10 texture coords

g Nemu_60999451_0_045
usemtl Material__32
s 1
f 111/103/123 112/103/123 113/103/123 
f 114/104/124 115/104/124 113/104/124 
f 112/105/125 116/105/125 113/105/125 
f 111/103/126 113/103/126 115/103/126 
f 114/106/127 113/106/127 116/106/127 
f 112/105/128 117/105/128 116/105/128 
f 116/107/129 111/107/129 115/107/129 
f 114/108/130 116/108/130 115/108/130 
f 118/109/131 117/109/131 112/109/131 
f 116/107/132 117/107/132 111/107/132 
f 119/110/133 118/110/133 112/110/133 
f 118/109/134 120/109/134 117/109/134 
f 117/111/135 119/111/135 111/111/135 
f 119/110/136 112/110/136 111/110/136 
f 119/112/137 120/112/137 118/112/137 
f 117/111/138 120/111/138 119/111/138 
# 0 polygons - 16 triangles

#
# object Nemu_60999451_0_044
#

v  -0.0642 0.4033 0.0272
v  -0.0431 0.3562 -0.0347
v  -0.0407 0.3562 0.0235
v  -0.0568 0.4132 -0.0731
v  0.0572 0.4132 -0.0731
v  0.0435 0.3562 -0.0347
v  0.0411 0.3562 0.0235
v  -0.0592 0.4665 -0.0495
v  0.0534 0.4665 -0.0495
v  0.0646 0.4033 0.0272
v  -0.0568 0.4491 0.0111
v  0.0572 0.4491 0.0111
v  -0.0357 0.3909 0.0582
v  0.0002 0.4268 0.0458
v  0.0361 0.3909 0.0582
# 15 vertices

vn -0.8926 -0.4493 0.0380
vn -0.9505 -0.2943 -0.0995
vn 0.0000 -0.5589 -0.8293
vn 0.0000 -1.0000 -0.0000
vn -0.9971 -0.0132 -0.0752
vn 0.0000 0.4042 -0.9147
vn 0.9505 -0.2943 -0.0995
vn 0.0000 0.9615 0.2747
vn 0.8926 -0.4493 0.0380
vn -0.2704 0.5443 0.7941
vn 0.0000 -0.7071 0.7071
vn 0.0000 0.3260 0.9454
vn 0.9932 0.0975 -0.0639
vn 0.7463 -0.4143 0.5209
vn 0.0000 0.8412 0.5408
vn 0.9879 0.1544 -0.0164
vn 0.2704 0.5443 0.7941
vn -0.7463 -0.4143 0.5209
vn 0.6164 0.3481 0.7063
vn -0.9769 0.1917 0.0946
vn -0.6164 0.3481 0.7063
# 21 vertex normals

vt 0.0325 0.3373 0.0000
vt 0.5161 0.2276 0.0000
vt 0.5161 0.0000 0.0000
vt 0.0000 0.5080 0.0000
vt 0.5161 0.7193 0.0000
vt 0.9997 0.3373 0.0000
vt 0.5161 1.0160 0.0000
vt 0.3739 0.7925 0.0000
vt 0.5161 0.1504 0.0000
vt 0.5161 0.6706 0.0000
vt 1.0322 0.5568 0.0000
vt 0.9022 0.2967 0.0000
vt 0.5161 0.9510 0.0000
vt 1.0282 0.5974 0.0000
vt 0.6584 0.7925 0.0000
vt 0.1300 0.2967 0.0000
vt 0.8372 0.6949 0.0000
vt 0.0081 0.6137 0.0000
vt 0.1951 0.6949 0.0000
# 19 texture coords

g Nemu_60999451_0_044
usemtl Material__32
s 1
f 121/113/139 122/113/139 123/113/139 
f 121/113/140 124/113/140 122/113/140 
f 125/114/141 126/114/141 122/114/141 
f 125/114/141 122/114/141 124/114/141 
f 122/115/142 127/115/142 123/115/142 
f 121/116/143 128/116/143 124/116/143 
f 129/117/144 124/117/144 128/117/144 
f 122/115/142 126/115/142 127/115/142 
f 126/118/145 125/118/145 130/118/145 
f 129/117/144 125/117/144 124/117/144 
f 128/119/146 131/119/146 132/119/146 
f 126/118/147 130/118/147 127/118/147 
f 133/120/148 134/120/148 131/120/148 
f 128/119/146 132/119/146 129/119/146 
f 127/121/149 133/121/149 123/121/149 
f 127/121/149 135/121/149 133/121/149 
f 133/122/150 135/122/150 134/122/150 
f 129/123/151 130/123/151 125/123/151 
f 127/124/152 130/124/152 135/124/152 
f 134/125/153 132/125/153 131/125/153 
f 130/126/154 129/126/154 132/126/154 
f 134/127/155 135/127/155 132/127/155 
f 121/128/156 123/128/156 133/128/156 
f 135/129/157 130/129/157 132/129/157 
f 128/130/158 121/130/158 131/130/158 
f 133/131/159 131/131/159 121/131/159 
# 0 polygons - 26 triangles

#
# object Nemu_60999451_0_043
#

v  -0.0642 0.2972 0.0000
v  0.0002 0.2972 -0.0582
v  0.0014 0.1981 -0.0867
v  -0.0815 0.2155 0.0012
v  0.0002 0.2229 0.0471
v  0.0002 0.2972 0.0446
v  -0.0419 0.3306 0.0000
v  0.0002 0.3306 -0.0371
v  0.0002 0.3319 0.0359
v  0.0423 0.3306 0.0000
v  0.0658 0.2972 0.0000
v  0.0819 0.2155 0.0012
# 12 vertices

vn -0.6569 0.2007 -0.7268
vn -0.7063 0.1393 -0.6940
vn -0.5690 0.0274 0.8219
vn -0.4937 0.1178 0.8616
vn -0.5983 0.4269 -0.6781
vn -0.6122 0.4081 -0.6773
vn -0.6408 0.1862 0.7448
vn -0.5322 0.3548 0.7687
vn 0.6012 0.4231 -0.6779
vn 0.5983 0.4269 -0.6781
vn 0.5962 0.4195 0.6845
vn 0.5502 0.2025 0.8101
vn 0.7182 0.1311 -0.6834
vn 0.6475 0.2180 -0.7302
vn 0.5617 0.0276 0.8269
vn 0.4936 0.1103 0.8626
vn 0.0000 0.9994 -0.0345
vn 0.0000 1.0000 0.0000
# 18 vertex normals

vt 0.1626 0.6015 0.0000
vt 0.2479 0.5527 0.0000
vt 0.2032 0.7274 0.0000
vt 0.2154 0.6624 0.0000
vt 0.8290 0.7274 0.0000
vt 0.8128 0.6624 0.0000
vt 0.8737 0.6055 0.0000
vt 0.7843 0.5527 0.0000
vt 0.5161 1.0322 0.0000
# 9 texture coords

g Nemu_60999451_0_043
usemtl Material__32
s 1
f 136/132/160 137/132/160 138/132/160 
f 136/132/161 138/132/161 139/132/161 
f 140/133/162 141/133/162 136/133/162 
f 140/133/163 136/133/163 139/133/163 
f 142/134/164 143/134/164 137/134/164 
f 142/134/165 137/134/165 136/134/165 
f 141/135/166 144/135/166 142/135/166 
f 141/135/167 142/135/167 136/135/167 
f 145/136/168 146/136/168 137/136/168 
f 145/136/169 137/136/169 143/136/169 
f 146/137/170 145/137/170 144/137/170 
f 146/137/171 144/137/171 141/137/171 
f 146/138/172 147/138/172 138/138/172 
f 146/138/173 138/138/173 137/138/173 
f 140/139/174 146/139/174 141/139/174 
f 140/139/175 147/139/175 146/139/175 
f 142/140/176 144/140/176 145/140/176 
f 142/140/177 145/140/177 143/140/177 
# 0 polygons - 18 triangles

