# 3ds Max Wavefront OBJ Exporter v0.97b - (c)2007 guruware
# File Created: 04.05.2019 22:40:53

mtllib rttf.mtl

#
# object Nemu_38A14237_0_124
#

v  -2.9193 2.5380 -0.2300
v  -2.9193 2.5380 0.2300
v  -3.3793 2.5387 0.2300
v  -3.3793 2.5387 -0.2300
# 4 vertices

vn -0.0015 -1.0000 -0.0000
# 1 vertex normals

vt 1.0000 0.0000 0.0000
vt 1.0000 1.0000 0.0000
vt 0.0000 1.0000 0.0000
vt 0.0000 0.0000 0.0000
# 4 texture coords

g Nemu_38A14237_0_124
usemtl Material__424
s 1
f 1/1/1 2/2/1 3/3/1 
f 1/1/1 3/3/1 4/4/1 
# 0 polygons - 2 triangles

#
# object Nemu_1F92E031_0_121
#

v  3.5180 -3.7420 0.5820
v  3.5180 -2.0590 0.4000
v  -3.5180 -2.0590 0.4000
v  -3.5180 -3.7420 0.5820
# 4 vertices

vn 0.0000 0.1075 0.9942
# 1 vertex normals

vt 1.0000 0.0000 0.0000
vt 1.0000 1.0000 0.0000
vt 0.0000 1.0000 0.0000
vt 0.0000 0.0000 0.0000
# 4 texture coords

g Nemu_1F92E031_0_121
usemtl Material__408
s 1
f 5/5/2 6/6/2 7/7/2 
f 5/5/2 7/7/2 8/8/2 
# 0 polygons - 2 triangles

#
# object Nemu_1F92E031_0_120
#

v  7.3140 -6.9690 0.4991
v  7.3140 -4.0860 0.3761
v  4.3860 -4.0860 0.3761
v  4.3860 -6.9690 0.4991
# 4 vertices

vn 0.0000 0.0426 0.9991
# 1 vertex normals

vt 1.0000 0.0000 0.0000
vt 1.0000 1.0000 0.0000
vt 0.0000 1.0000 0.0000
vt 0.0000 0.0000 0.0000
# 4 texture coords

g Nemu_1F92E031_0_120
usemtl Material__408
s 1
f 9/9/3 10/10/3 11/11/3 
f 9/9/3 11/11/3 12/12/3 
# 0 polygons - 2 triangles

#
# object Nemu_1F92E031_0_119
#

v  -4.8380 4.8810 0.8060
v  -4.8380 7.1640 0.4610
v  -7.1620 7.1640 0.4610
v  -7.1620 4.8810 0.8060
# 4 vertices

vn 0.0000 0.1494 0.9888
# 1 vertex normals

vt 1.0000 0.0000 0.0000
vt 1.0000 1.0000 0.0000
vt 0.0000 1.0000 0.0000
vt 0.0000 0.0000 0.0000
# 4 texture coords

g Nemu_1F92E031_0_119
usemtl Material__408
s 1
f 13/13/4 14/14/4 15/15/4 
f 13/13/4 15/15/4 16/16/4 
# 0 polygons - 2 triangles

#
# object Nemu_1F92E031_0_118
#

v  -2.0780 2.3350 0.3960
v  -2.0780 4.3400 0.2320
v  -4.2220 4.3400 0.2320
v  -4.2220 2.3350 0.3960
# 4 vertices

vn 0.0000 0.0815 0.9967
# 1 vertex normals

vt 1.0000 0.0000 0.0000
vt 1.0000 1.0000 0.0000
vt 0.0000 1.0000 0.0000
vt 0.0000 0.0000 0.0000
# 4 texture coords

g Nemu_1F92E031_0_118
usemtl Material__408
s 1
f 17/17/5 18/18/5 19/19/5 
f 17/17/5 19/19/5 20/20/5 
# 0 polygons - 2 triangles

#
# object Nemu_0_0_108
#

v  -3.2410 2.7605 0.0000
v  -3.2602 2.5845 -0.2080
v  -3.3712 2.6307 0.0000
v  -3.1951 2.6494 -0.2080
v  -3.2602 2.5845 0.2080
v  -3.1951 2.6494 0.2080
v  -3.1955 2.4274 -0.2080
v  -3.2416 2.3165 0.0000
v  -3.3714 2.4467 0.0000
v  -3.2604 2.4925 -0.2080
v  -3.1955 2.4274 0.2080
v  -3.2604 2.4925 0.2080
v  -3.1031 2.6493 -0.2080
v  -3.0570 2.7602 0.0000
v  -2.9272 2.6300 0.0000
v  -3.0382 2.5842 -0.2080
v  -3.1031 2.6493 0.2080
v  -3.0382 2.5842 0.2080
v  -3.0384 2.4922 -0.2080
v  -2.9274 2.4460 0.0000
v  -3.0576 2.3162 0.0000
v  -3.1035 2.4273 -0.2080
v  -3.0384 2.4922 0.2080
v  -3.1035 2.4273 0.2080
# 24 vertices

vn -0.6229 0.6248 -0.4708
vn -0.6229 0.6248 0.4708
vn -0.6248 -0.6229 -0.4708
vn -0.6248 -0.6229 -0.4709
vn -0.6248 -0.6229 0.4708
vn 0.6248 0.6229 -0.4708
vn 0.6248 0.6229 0.4708
vn 0.6229 -0.6248 -0.4708
vn 0.6229 -0.6248 -0.4709
vn 0.6229 -0.6248 0.4709
vn 0.6229 -0.6248 0.4708
# 11 vertex normals

g Nemu_0_0_108
usemtl Material__430
s 1
f 21//6 22//6 23//6 
f 21//6 24//6 22//6 
f 25//7 26//7 21//7 
f 25//7 21//7 23//7 
f 27//8 28//8 29//8 
f 27//9 29//9 30//9 
f 28//10 31//10 32//10 
f 28//10 32//10 29//10 
f 33//11 34//11 35//11 
f 33//11 35//11 36//11 
f 37//12 38//12 35//12 
f 37//12 35//12 34//12 
f 39//13 40//13 41//13 
f 39//14 41//14 42//14 
f 41//15 43//15 44//15 
f 41//16 40//16 43//16 
# 0 polygons - 16 triangles

#
# object Nemu_102EDAD0_0_107
#

v  -3.1972 2.5864 0.2040
v  -3.1974 2.4904 0.2040
v  -3.1014 2.4903 0.2040
v  -3.1012 2.5862 0.2040
# 4 vertices

vn 0.0000 -0.0000 1.0000
# 1 vertex normals

vt 0.0000 1.0000 0.0000
vt 0.0000 0.0000 0.0000
vt 1.0000 0.0000 0.0000
vt 1.0000 1.0000 0.0000
# 4 texture coords

g Nemu_102EDAD0_0_107
usemtl Material__426
s 1
f 45/21/17 46/22/17 47/23/17 
f 45/21/17 47/23/17 48/24/17 
# 0 polygons - 2 triangles

#
# object Nemu_26458792_0_104
#

v  -2.7300 -3.7800 -0.0000
v  -2.3700 -3.7800 -0.0000
v  -2.3700 -3.4200 -0.0000
v  -2.7300 -3.4200 -0.0000
# 4 vertices

vn 0.0000 -0.0000 1.0000
# 1 vertex normals

vt 0.0000 0.0000 0.0000
vt 1.0000 0.0000 0.0000
vt 1.0000 1.0000 0.0000
vt 0.0000 1.0000 0.0000
# 4 texture coords

g Nemu_26458792_0_104
usemtl Material__428
s 1
f 49/25/18 50/26/18 51/27/18 
f 49/25/18 51/27/18 52/28/18 
# 0 polygons - 2 triangles

#
# object Nemu_26458792_0_103
#

v  -1.2300 -2.7300 -0.0000
v  -0.8700 -2.7300 -0.0000
v  -0.8700 -2.3700 -0.0000
v  -1.2300 -2.3700 -0.0000
# 4 vertices

vn 0.0000 -0.0000 1.0000
# 1 vertex normals

vt 0.0000 0.0000 0.0000
vt 1.0000 0.0000 0.0000
vt 1.0000 1.0000 0.0000
vt 0.0000 1.0000 0.0000
# 4 texture coords

g Nemu_26458792_0_103
usemtl Material__428
s 1
f 53/29/19 54/30/19 55/31/19 
f 53/29/19 55/31/19 56/32/19 
# 0 polygons - 2 triangles

#
# object Nemu_26458792_0_102
#

v  -0.1800 -3.8857 -0.0000
v  0.1800 -3.8857 -0.0000
v  0.1800 -3.5257 -0.0000
v  -0.1800 -3.5257 -0.0000
# 4 vertices

vn 0.0000 -0.0000 1.0000
# 1 vertex normals

vt 0.0000 0.0000 0.0000
vt 1.0000 0.0000 0.0000
vt 1.0000 1.0000 0.0000
vt 0.0000 1.0000 0.0000
# 4 texture coords

g Nemu_26458792_0_102
usemtl Material__428
s 1
f 57/33/20 58/34/20 59/35/20 
f 57/33/20 59/35/20 60/36/20 
# 0 polygons - 2 triangles

#
# object Nemu_26458792_0_101
#

v  0.7200 -2.7300 -0.0000
v  1.0800 -2.7300 -0.0000
v  1.0800 -2.3700 -0.0000
v  0.7200 -2.3700 -0.0000
# 4 vertices

vn 0.0000 -0.0000 1.0000
# 1 vertex normals

vt 0.0000 0.0000 0.0000
vt 1.0000 0.0000 0.0000
vt 1.0000 1.0000 0.0000
vt 0.0000 1.0000 0.0000
# 4 texture coords

g Nemu_26458792_0_101
usemtl Material__428
s 1
f 61/37/21 62/38/21 63/39/21 
f 61/37/21 63/39/21 64/40/21 
# 0 polygons - 2 triangles

#
# object Nemu_78C5FE3E_0_038
#

v  -4.5000 -7.2000 -0.4500
v  -4.5000 -4.2000 -0.4500
v  -4.8000 -4.2000 -0.9000
v  -4.8000 -7.2000 -0.9000
v  -3.9000 -4.2000 -0.4500
v  -3.9000 -7.2000 -0.4500
v  -4.5000 -1.2000 -0.4500
v  -4.8000 -1.2000 -0.9000
v  -3.9000 -1.2000 -0.4500
v  -3.6000 -1.2000 -0.9000
v  -3.6000 -4.2000 -0.9000
v  -4.5000 2.4000 -0.4500
v  -4.8000 1.4950 -0.9000
v  -3.9000 2.3400 -0.4500
v  -4.8000 2.4000 -0.9000
v  -3.6000 2.3400 -0.9000
v  4.5000 -7.2000 -0.4500
v  4.5000 -4.2000 -0.4500
v  3.9000 -4.2000 -0.4500
v  3.9000 -7.2000 -0.4500
v  3.6000 -4.2000 -0.9000
v  3.6000 -7.2000 -0.9000
v  4.8000 -4.2000 -0.9000
v  4.8000 -7.2000 -0.9000
v  -4.5000 4.3500 -0.4500
v  -4.8000 4.3500 -0.9000
v  -3.9000 4.3500 -0.4500
v  -3.6000 4.3500 -0.9000
v  3.9000 -1.2000 -0.4500
v  3.6000 -1.2000 -0.9000
v  4.5000 -1.2000 -0.4500
v  4.8000 -1.2000 -0.9000
v  -4.8000 7.2000 -0.9000
v  -3.9000 7.2000 -0.4500
v  -4.5000 7.2000 -0.4500
v  3.6000 1.9770 -0.9000
v  3.9000 1.9770 -0.4500
v  3.6000 4.3500 -0.9000
v  4.5000 1.9170 -0.4500
v  3.9000 4.3500 -0.4500
v  4.8000 4.3500 -0.9000
v  4.8000 1.9170 -0.9000
v  4.5000 4.3500 -0.4500
v  3.9000 7.2000 -0.4500
v  3.6000 7.2000 -0.9000
v  4.5000 7.2000 -0.4500
v  -3.6000 -7.2000 -0.9000
v  -3.6000 7.2000 -0.9000
v  4.8000 7.2000 -0.9000
# 49 vertices

vn -0.8321 -0.0000 0.5547
vn 0.0000 -0.0000 1.0000
vn 0.8321 -0.0000 0.5547
# 3 vertex normals

vt 0.2500 0.0000 0.0000
vt 0.2500 1.0415 0.0000
vt 0.0000 1.0415 0.0000
vt 0.0000 0.0000 0.0000
vt 0.7500 1.0415 0.0000
vt 0.7500 0.0000 0.0000
vt 7.7500 1.0415 0.0000
vt 7.7500 2.0830 0.0000
vt 8.0000 2.0830 0.0000
vt 8.0000 1.0415 0.0000
vt 7.2500 1.0415 0.0000
vt 7.2500 2.0830 0.0000
vt 7.0000 2.0830 0.0000
vt 7.0000 1.0415 0.0000
vt 0.2500 2.0830 0.0000
vt 0.2500 3.3330 0.0000
vt 0.0000 3.0190 0.0000
vt 0.0000 2.0830 0.0000
vt 0.7500 2.0830 0.0000
vt 0.7500 3.3120 0.0000
vt 0.0000 3.3330 0.0000
vt 1.0000 3.3120 0.0000
vt 1.0000 2.0830 0.0000
vt 7.7500 0.0000 0.0000
vt 7.2500 0.0000 0.0000
vt 7.0000 0.0000 0.0000
vt 8.0000 0.0000 0.0000
vt 7.7500 3.3330 0.0000
vt 7.7500 4.0103 0.0000
vt 8.0000 4.0103 0.0000
vt 8.0000 3.3330 0.0000
vt 7.2500 4.0103 0.0000
vt 7.2500 3.3120 0.0000
vt 7.0000 4.0103 0.0000
vt 7.0000 3.3120 0.0000
vt 1.0000 1.0415 0.0000
vt 0.2500 4.0103 0.0000
vt 0.0000 5.0000 0.0000
vt 0.0000 4.0103 0.0000
vt 0.7500 4.0103 0.0000
vt 0.7500 5.0000 0.0000
vt 0.2500 5.0000 0.0000
vt 7.0000 3.1865 0.0000
vt 7.2500 3.1865 0.0000
vt 0.7500 3.1865 0.0000
vt 1.0000 4.0103 0.0000
vt 1.0000 3.1865 0.0000
vt 7.7500 3.1655 0.0000
vt 0.2500 3.1655 0.0000
vt 0.0000 3.1655 0.0000
vt 7.2500 5.0000 0.0000
vt 7.0000 5.0000 0.0000
vt 7.7500 5.0000 0.0000
vt 1.0000 0.0000 0.0000
vt 1.0000 5.0000 0.0000
vt 8.0000 5.0000 0.0000
vt 8.0000 3.1655 0.0000
# 57 texture coords

g Nemu_78C5FE3E_0_038
usemtl Material__425
s 1
f 65/41/22 66/42/22 67/43/22 
f 65/41/22 67/43/22 68/44/22 
f 65/41/23 69/45/23 66/42/23 
f 65/41/23 70/46/23 69/45/23 
f 66/47/22 71/48/22 72/49/22 
f 66/47/22 72/49/22 67/50/22 
f 66/47/23 69/51/23 73/52/23 
f 66/47/23 73/52/23 71/48/23 
f 74/53/24 73/52/24 69/51/24 
f 74/53/24 69/51/24 75/54/24 
f 71/55/22 76/56/22 77/57/22 
f 71/55/22 77/57/22 72/58/22 
f 71/55/23 73/59/23 78/60/23 
f 77/57/22 76/56/22 79/61/22 
f 80/62/24 78/60/24 73/59/24 
f 71/55/23 78/60/23 76/56/23 
f 80/62/24 73/59/24 74/63/24 
f 81/64/23 82/47/23 83/51/23 
f 81/64/23 83/51/23 84/65/23 
f 84/65/22 85/54/22 86/66/22 
f 84/65/22 83/51/22 85/54/22 
f 87/50/24 81/64/24 88/67/24 
f 87/50/24 82/47/24 81/64/24 
f 76/68/22 89/69/22 90/70/22 
f 76/68/22 90/70/22 79/71/22 
f 76/68/23 91/72/23 89/69/23 
f 76/68/23 78/73/23 91/72/23 
f 92/74/24 91/72/24 78/73/24 
f 92/74/24 78/73/24 80/75/24 
f 83/45/22 93/59/22 94/63/22 
f 83/45/22 94/63/22 85/76/22 
f 82/42/23 95/55/23 93/59/23 
f 82/42/23 93/59/23 83/45/23 
f 96/58/24 95/55/24 82/42/24 
f 96/58/24 82/42/24 87/43/24 
f 89/77/22 97/78/22 90/79/22 
f 89/77/23 91/80/23 98/81/23 
f 89/77/22 99/82/22 97/78/22 
f 93/52/22 100/83/22 94/53/22 
f 89/77/23 98/81/23 99/82/23 
f 95/48/23 101/84/23 93/52/23 
f 93/52/22 101/84/22 100/83/22 
f 101/85/22 102/86/22 100/87/22 
f 95/48/23 103/88/23 101/84/23 
f 103/89/23 104/80/23 101/85/23 
f 101/85/22 104/80/22 102/86/22 
f 105/79/24 103/89/24 106/90/24 
f 103/89/23 107/77/23 104/80/23 
f 107/69/23 108/91/23 104/72/23 
f 105/79/24 107/77/24 103/89/24 
f 104/72/22 109/92/22 102/74/22 
f 107/69/23 110/93/23 108/91/23 
f 104/72/22 108/91/22 109/92/22 
f 75/76/24 69/45/24 70/46/24 
f 75/76/24 70/46/24 111/94/24 
f 112/95/24 98/81/24 91/80/24 
f 112/95/24 91/80/24 92/86/24 
f 113/96/24 107/69/24 105/70/24 
f 113/96/24 110/93/24 107/69/24 
f 106/97/24 103/88/24 95/48/24 
f 106/97/24 95/48/24 96/49/24 
# 0 polygons - 61 triangles

#
# object Nemu_6D9AA876_0_037
#

v  0.4790 -2.2810 -0.0000
v  0.4790 -2.0830 -0.0000
v  -0.4790 -2.0830 -0.0000
v  -0.4790 -2.2810 -0.0000
# 4 vertices

vn 0.0000 -0.0000 1.0000
# 1 vertex normals

vt 1.0000 0.0000 0.0000
vt 1.0000 1.0000 0.0000
vt 0.0000 1.0000 0.0000
vt 0.0000 0.0000 0.0000
# 4 texture coords

g Nemu_6D9AA876_0_037
usemtl Material__413
s 1
f 114/98/25 115/99/25 116/100/25 
f 114/98/25 116/100/25 117/101/25 
# 0 polygons - 2 triangles

#
# object Nemu_6D9AA876_0_036
#

v  5.9210 -4.4190 0.3491
v  5.9210 -4.0830 0.3491
v  5.7790 -4.0830 0.3491
v  5.7790 -4.4190 0.3491
# 4 vertices

vn 0.0000 -0.0000 1.0000
# 1 vertex normals

vt 1.0000 0.0000 0.0000
vt 1.0000 1.0000 0.0000
vt 0.0000 1.0000 0.0000
vt 0.0000 0.0000 0.0000
# 4 texture coords

g Nemu_6D9AA876_0_036
usemtl Material__413
s 1
f 118/102/26 119/103/26 120/104/26 
f 118/102/26 120/104/26 121/105/26 
# 0 polygons - 2 triangles

#
# object Nemu_6D9AA876_0_035
#

v  -5.9240 6.8310 0.4560
v  -5.9240 7.2070 0.4560
v  -6.0760 7.2070 0.4560
v  -6.0760 6.8310 0.4560
# 4 vertices

vn 0.0000 -0.0000 1.0000
# 1 vertex normals

vt 1.0000 0.0000 0.0000
vt 1.0000 1.0000 0.0000
vt 0.0000 1.0000 0.0000
vt 0.0000 0.0000 0.0000
# 4 texture coords

g Nemu_6D9AA876_0_035
usemtl Material__413
s 1
f 122/106/27 123/107/27 124/108/27 
f 122/106/27 124/108/27 125/109/27 
# 0 polygons - 2 triangles

#
# object Nemu_32C9D0EF_0_027
#

v  -2.6050 7.2000 0.9000
v  -7.2000 7.2000 -0.9000
v  -2.6050 7.2000 -0.9000
v  -7.2000 7.2000 0.9000
v  2.2920 7.2000 0.9000
v  2.2920 7.2000 -0.9000
v  6.9000 7.2000 -0.9000
v  6.9000 7.2000 0.9000
v  2.2920 7.6510 0.9000
v  -2.6050 7.6510 0.9000
v  -7.5010 7.6510 0.9000
v  7.1890 7.6510 0.9000
# 12 vertices

vn 0.0000 -1.0000 -0.0000
vn 0.0000 -0.0000 1.0000
# 2 vertex normals

vt 6.6660 0.0000 0.0000
vt 0.4102 1.0000 0.0000
vt 6.6660 1.0000 0.0000
vt 0.4102 0.0000 0.0000
vt 13.3320 0.0000 0.0000
vt 13.3320 1.0000 0.0000
vt 19.6055 1.0000 0.0000
vt 19.6055 0.0000 0.0000
vt 0.0000 1.0000 0.0000
vt 20.0000 1.0000 0.0000
# 10 texture coords

g Nemu_32C9D0EF_0_027
usemtl Material__421
s 1
f 126/110/28 127/111/28 128/112/28 
f 126/110/28 129/113/28 127/111/28 
f 130/114/28 128/112/28 131/115/28 
f 130/114/28 126/110/28 128/112/28 
f 132/116/28 133/117/28 130/114/28 
f 132/116/28 130/114/28 131/115/28 
f 126/110/29 130/114/29 134/115/29 
f 126/110/29 134/115/29 135/112/29 
f 129/113/29 135/112/29 136/118/29 
f 129/113/29 126/110/29 135/112/29 
f 130/114/29 133/117/29 137/119/29 
f 130/114/29 137/119/29 134/115/29 
# 0 polygons - 12 triangles

#
# object Nemu_32C9D0EF_0_026
#

v  -7.2000 -7.2000 -0.9000
v  -3.9550 -7.2000 0.9000
v  -3.9550 -7.2000 -0.9000
v  -7.2000 -7.2000 0.9000
v  3.9420 -7.2000 0.9000
v  3.9420 -7.2000 -0.9000
v  6.9000 -7.2000 0.9000
v  6.9000 -7.2000 -0.9000
v  6.9000 -4.2000 0.9000
v  6.9000 -4.2000 -0.9000
v  -7.5010 -1.5000 0.9000
v  -7.2000 4.3500 0.9000
v  -7.5010 4.3500 0.9000
v  -7.2000 -1.5000 0.9000
v  -7.2000 7.2000 0.9000
v  -7.5010 7.6510 0.9000
v  -7.5010 -7.2000 0.9000
v  7.1890 -4.2000 0.9000
v  7.1890 -7.2000 0.9000
v  7.1890 1.5000 0.9000
v  6.9000 1.5000 0.9000
v  7.1890 7.6510 0.9000
v  6.9000 7.2000 0.9000
v  6.9000 1.5000 -0.9000
v  6.9000 7.2000 -0.9000
v  -7.2000 -1.5000 -0.9000
v  -7.2000 4.3500 -0.9000
v  -7.2000 7.2000 -0.9000
# 28 vertices

vn 0.0000 1.0000 0.0000
vn -1.0000 0.0000 -0.0000
vn 0.0000 -0.0000 1.0000
vn 1.0000 0.0000 -0.0000
# 4 vertex normals

vt 0.4102 0.3965 0.0000
vt 4.8281 0.3965 0.0000
vt 15.5781 0.3965 0.0000
vt 19.6055 0.3965 0.0000
vt 19.6055 4.3555 0.0000
vt 0.0000 7.9199 0.0000
vt 0.4102 15.6426 0.0000
vt 0.0000 15.6426 0.0000
vt 0.4102 7.9199 0.0000
vt 0.4102 19.4043 0.0000
vt 0.0000 20.0000 0.0000
vt 0.0000 0.3965 0.0000
vt 20.0000 4.3555 0.0000
vt 20.0000 0.3965 0.0000
vt 20.0000 11.8809 0.0000
vt 19.6055 11.8809 0.0000
vt 20.0000 20.0000 0.0000
vt 19.6055 19.4043 0.0000
# 18 texture coords

g Nemu_32C9D0EF_0_026
usemtl Material__421
s 1
f 138/120/30 139/121/30 140/121/30 
f 138/120/30 141/120/30 139/121/30 
f 140/121/30 142/122/30 143/122/30 
f 140/121/30 139/121/30 142/122/30 
f 142/122/30 144/123/30 145/123/30 
f 142/122/30 145/123/30 143/122/30 
f 144/123/31 146/124/31 147/124/31 
f 144/123/31 147/124/31 145/123/31 
f 148/125/32 149/126/32 150/127/32 
f 148/125/32 151/128/32 149/126/32 
f 150/127/32 152/129/32 153/130/32 
f 150/127/32 149/126/32 152/129/32 
f 154/131/32 141/120/32 151/128/32 
f 154/131/32 151/128/32 148/125/32 
f 144/123/32 155/132/32 146/124/32 
f 144/123/32 156/133/32 155/132/32 
f 155/132/32 157/134/32 158/135/32 
f 155/132/32 158/135/32 146/124/32 
f 157/134/32 159/136/32 160/137/32 
f 157/134/32 160/137/32 158/135/32 
f 146/124/31 158/135/31 161/135/31 
f 146/124/31 161/135/31 147/124/31 
f 158/135/31 162/137/31 161/135/31 
f 138/120/33 151/128/33 141/120/33 
f 158/135/31 160/137/31 162/137/31 
f 163/128/33 149/126/33 151/128/33 
f 138/120/33 163/128/33 151/128/33 
f 164/126/33 152/129/33 149/126/33 
f 163/128/33 164/126/33 149/126/33 
f 164/126/33 165/129/33 152/129/33 
# 0 polygons - 30 triangles

#
# object Nemu_1CB22346_0_022
#

v  -3.9550 -7.5010 0.9000
v  -3.9550 -7.2000 0.9000
v  -7.2000 -7.2000 0.9000
v  -7.5010 -7.5010 0.9000
v  3.9420 -7.5010 0.9000
v  3.9420 -7.2000 0.9000
v  7.1890 -7.5010 0.9000
v  6.9000 -7.2000 0.9000
v  -7.5010 -7.2000 0.9000
v  7.1890 -7.2000 0.9000
# 10 vertices

vn 0.0000 -0.0000 1.0000
# 1 vertex normals

vt 4.8281 0.0000 0.0000
vt 4.8281 0.9883 0.0000
vt 0.4102 0.9883 0.0000
vt 0.0000 0.0000 0.0000
vt 15.5781 0.0000 0.0000
vt 15.5781 0.9883 0.0000
vt 20.0000 0.0000 0.0000
vt 19.6055 0.9883 0.0000
vt 0.0000 0.9883 0.0000
vt 20.0000 0.9883 0.0000
# 10 texture coords

g Nemu_1CB22346_0_022
usemtl Material__407
s 1
f 166/138/34 167/139/34 168/140/34 
f 166/138/34 168/140/34 169/141/34 
f 166/138/34 170/142/34 171/143/34 
f 166/138/34 171/143/34 167/139/34 
f 170/142/34 172/144/34 173/145/34 
f 170/142/34 173/145/34 171/143/34 
f 168/140/34 174/146/34 169/141/34 
f 175/147/34 173/145/34 172/144/34 
# 0 polygons - 8 triangles

#
# object Nemu_14E3AB93_0_031
#

v  -3.4500 3.9000 0.6000
v  -3.4500 4.3500 0.6000
v  -3.7500 4.3500 0.1500
v  -3.7500 3.9000 0.1500
v  -2.8500 3.9000 0.6000
v  -2.8500 4.3500 0.6000
v  -2.5500 3.9000 0.1500
v  -2.5500 4.3500 0.1500
# 8 vertices

vn -0.8321 -0.0000 0.5547
vn 0.0000 -0.0000 1.0000
vn 0.8321 -0.0000 0.5547
# 3 vertex normals

vt 0.2480 0.0000 0.0000
vt 0.2480 2.0000 0.0000
vt 0.0000 2.0000 0.0000
vt 0.0000 0.0000 0.0000
vt 0.7500 0.0000 0.0000
vt 0.7500 2.0000 0.0000
vt 1.0000 0.0000 0.0000
vt 1.0000 2.0000 0.0000
# 8 texture coords

g Nemu_14E3AB93_0_031
usemtl Material__417
s 1
f 176/148/35 177/149/35 178/150/35 
f 176/148/35 178/150/35 179/151/35 
f 180/152/36 181/153/36 177/149/36 
f 180/152/36 177/149/36 176/148/36 
f 182/154/37 183/155/37 181/153/37 
f 182/154/37 181/153/37 180/152/37 
# 0 polygons - 6 triangles

#
# object Nemu_32C9D0EF_0_025
#

v  -3.6000 -1.5000 0.9000
v  -7.2000 -1.5000 -0.9000
v  -3.6000 -1.5000 -0.9000
v  -7.2000 -1.5000 0.9000
v  -7.2000 -1.2000 -0.9000
v  -3.6000 -1.2000 0.9000
v  -3.6000 -1.2000 -0.9000
v  -7.2000 -1.2000 0.9000
v  -1.3500 -1.2000 0.9000
v  -1.3500 -1.2000 -0.9000
v  1.5000 -1.2000 0.9000
v  1.5000 -1.2000 -0.9000
v  3.0000 -1.2000 0.9000
v  3.0000 -1.2000 -0.9000
v  4.5000 -1.2000 0.9000
v  4.5000 -1.2000 -0.9000
v  -1.3500 -1.8000 0.9000
v  -3.6000 -1.8000 -0.9000
v  -1.3500 -1.8000 -0.9000
v  -3.6000 -1.8000 0.9000
v  -1.3500 -1.5000 0.9000
v  1.5000 -1.8000 0.9000
v  1.5000 -1.5000 0.9000
v  3.0000 -1.8000 0.9000
v  3.0000 -1.5000 0.9000
v  -1.3500 -2.1000 0.9000
v  1.5000 -2.1000 0.9000
v  -1.3500 -2.1000 -0.9000
v  1.5000 -2.1000 -0.9000
v  3.0000 -1.8000 -0.9000
v  1.5000 -1.8000 -0.9000
v  4.5000 -1.5000 -0.9000
v  4.5000 -1.5000 0.9000
v  3.0000 -1.5000 -0.9000
# 34 vertices

vn 0.0000 -1.0000 -0.0000
vn 0.0000 1.0000 0.0000
vn 0.0000 -0.0000 1.0000
# 3 vertex normals

vt 4.9219 0.9980 0.0000
vt 0.0000 0.0000 0.0000
vt 4.9219 0.0000 0.0000
vt 0.0000 0.9980 0.0000
vt 8.0000 0.9980 0.0000
vt 8.0000 0.0000 0.0000
vt 11.8965 0.9980 0.0000
vt 11.8965 0.0000 0.0000
vt 13.9473 0.9980 0.0000
vt 13.9473 0.0000 0.0000
vt 16.0000 0.9980 0.0000
vt 16.0000 0.0000 0.0000
vt 4.9219 0.0039 0.0000
vt 8.0000 0.0039 0.0000
vt 11.8965 0.0039 0.0000
vt 13.9473 0.0039 0.0000
vt 8.0000 0.0020 0.0000
vt 11.8965 0.0020 0.0000
vt 11.8965 1.0000 0.0000
vt 8.0000 1.0000 0.0000
# 20 texture coords

g Nemu_32C9D0EF_0_025
usemtl Material__421
s 1
f 184/156/38 185/157/38 186/158/38 
f 184/156/38 187/159/38 185/157/38 
f 188/157/39 189/156/39 190/158/39 
f 188/157/39 191/159/39 189/156/39 
f 190/158/39 192/160/39 193/161/39 
f 190/158/39 189/156/39 192/160/39 
f 193/161/39 194/162/39 195/163/39 
f 193/161/39 192/160/39 194/162/39 
f 194/162/39 196/164/39 197/165/39 
f 194/162/39 197/165/39 195/163/39 
f 196/164/39 198/166/39 199/167/39 
f 196/164/39 199/167/39 197/165/39 
f 200/160/38 201/158/38 202/161/38 
f 200/160/38 203/156/38 201/158/38 
f 203/168/40 200/169/40 204/160/40 
f 203/168/40 204/160/40 184/156/40 
f 200/169/40 205/170/40 206/162/40 
f 200/169/40 206/162/40 204/160/40 
f 205/170/40 207/171/40 208/164/40 
f 205/170/40 208/164/40 206/162/40 
f 209/172/40 210/173/40 205/162/40 
f 209/172/40 205/162/40 200/160/40 
f 210/174/38 211/161/38 212/163/38 
f 210/174/38 209/175/38 211/161/38 
f 213/165/38 207/164/38 205/162/38 
f 213/165/38 205/162/38 214/163/38 
f 215/167/38 216/166/38 208/164/38 
f 215/167/38 208/164/38 217/165/38 
# 0 polygons - 28 triangles

#
# object Nemu_32C9D0EF_0_024
#

v  4.5000 -1.2000 0.9000
v  4.5000 -0.3000 0.9000
v  4.5000 -0.3000 -0.9000
v  4.5000 -1.2000 -0.9000
v  4.8000 -1.2000 -0.9000
v  4.8000 -0.3000 0.9000
v  4.8000 -1.2000 0.9000
v  4.8000 -0.3000 -0.9000
v  4.5000 -1.5000 0.9000
v  4.8000 -1.5000 0.9000
# 10 vertices

vn -1.0000 0.0000 -0.0000
vn 1.0000 0.0000 -0.0000
vn 0.0000 1.0000 0.0000
vn 0.0000 -0.0000 1.0000
# 4 vertex normals

vt 0.9980 0.0000 0.0000
vt 0.9980 1.0000 0.0000
vt 0.0000 1.0000 0.0000
vt 0.0000 0.0000 0.0000
# 4 texture coords

g Nemu_32C9D0EF_0_024
usemtl Material__421
s 1
f 218/176/41 219/177/41 220/178/41 
f 218/176/41 220/178/41 221/179/41 
f 222/179/42 223/177/42 224/176/42 
f 222/179/42 225/178/42 223/177/42 
f 219/177/43 225/178/43 220/178/43 
f 219/177/43 223/177/43 225/178/43 
f 226/179/44 227/176/44 224/177/44 
f 226/179/44 224/177/44 218/178/44 
# 0 polygons - 8 triangles

#
# object Nemu_32C9D0EF_0_023
#

v  -3.6000 -1.8000 0.9000
v  -3.6000 -1.5000 0.9000
v  -3.6000 -1.5000 -0.9000
v  -3.6000 -1.8000 -0.9000
v  -1.3500 -2.1000 0.9000
v  -1.3500 -1.8000 0.9000
v  -1.3500 -1.8000 -0.9000
v  -1.3500 -2.1000 -0.9000
v  1.5000 -2.1000 -0.9000
v  1.5000 -1.8000 0.9000
v  1.5000 -2.1000 0.9000
v  1.5000 -1.8000 -0.9000
v  3.0000 -1.8000 -0.9000
v  3.0000 -1.5000 0.9000
v  3.0000 -1.8000 0.9000
v  3.0000 -1.5000 -0.9000
v  4.8000 -1.5000 -0.9000
v  4.5000 -1.5000 0.9000
v  4.5000 -1.5000 -0.9000
v  4.8000 -1.5000 0.9000
v  4.8000 -1.2000 -0.9000
v  4.8000 -1.2000 0.9000
# 22 vertices

vn -1.0000 0.0000 -0.0000
vn 1.0000 0.0000 -0.0000
vn 0.0000 -1.0000 -0.0000
# 3 vertex normals

vt 1.0000 1.0000 0.0000
vt 1.0000 2.0000 0.0000
vt 0.0000 2.0000 0.0000
vt 0.0000 1.0000 0.0000
vt 0.9980 0.0000 0.0000
vt 0.9980 1.0000 0.0000
vt 0.0000 0.0000 0.0000
vt 0.9980 2.0000 0.0000
vt 0.0000 3.0000 0.0000
vt 0.9980 3.0000 0.0000
# 10 texture coords

g Nemu_32C9D0EF_0_023
usemtl Material__421
s 1
f 228/180/45 229/181/45 230/182/45 
f 228/180/45 230/182/45 231/183/45 
f 232/184/45 233/185/45 234/183/45 
f 232/184/45 234/183/45 235/186/45 
f 236/186/46 237/185/46 238/184/46 
f 236/186/46 239/183/46 237/185/46 
f 240/183/46 241/187/46 242/185/46 
f 240/183/46 243/182/46 241/187/46 
f 244/182/47 245/187/47 246/182/47 
f 244/182/47 247/187/47 245/187/47 
f 248/188/46 249/189/46 247/187/46 
f 248/188/46 247/187/46 244/182/46 
# 0 polygons - 12 triangles

#
# object Nemu_1CB22346_0_021
#

v  -7.2000 -1.5000 0.9000
v  -3.6000 -1.5000 0.9000
v  -3.6000 -1.2000 0.9000
v  -7.2000 -1.2000 0.9000
v  -1.3500 -1.5000 0.9000
v  -1.3500 -1.2000 0.9000
v  1.5000 -1.5000 0.9000
v  1.5000 -1.2000 0.9000
v  3.0000 -1.5000 0.9000
v  3.0000 -1.2000 0.9000
v  4.5000 -1.5000 0.9000
v  4.5000 -1.2000 0.9000
# 12 vertices

vn 0.0000 -0.0000 1.0000
# 1 vertex normals

vt 0.0000 0.0000 0.0000
vt 4.9219 0.0000 0.0000
vt 4.9219 1.0000 0.0000
vt 0.0000 1.0000 0.0000
vt 8.0000 0.0000 0.0000
vt 8.0000 1.0000 0.0000
vt 11.8965 0.0000 0.0000
vt 11.8965 1.0000 0.0000
vt 13.9473 0.0000 0.0000
vt 13.9473 1.0000 0.0000
vt 16.0000 0.0000 0.0000
vt 16.0000 1.0000 0.0000
# 12 texture coords

g Nemu_1CB22346_0_021
usemtl Material__407
s 1
f 250/190/48 251/191/48 252/192/48 
f 250/190/48 252/192/48 253/193/48 
f 251/191/48 254/194/48 255/195/48 
f 251/191/48 255/195/48 252/192/48 
f 254/194/48 256/196/48 257/197/48 
f 254/194/48 257/197/48 255/195/48 
f 256/196/48 258/198/48 259/199/48 
f 256/196/48 259/199/48 257/197/48 
f 258/198/48 260/200/48 261/201/48 
f 258/198/48 261/201/48 259/199/48 
# 0 polygons - 10 triangles

#
# object Nemu_1CB22346_0_020
#

v  4.8000 -1.2000 0.9000
v  4.8000 -0.3000 0.9000
v  4.5000 -0.3000 0.9000
v  4.5000 -1.2000 0.9000
# 4 vertices

vn 0.0000 -0.0000 1.0000
# 1 vertex normals

vt 0.9980 1.0000 0.0000
vt 0.0000 1.0000 0.0000
vt 0.0000 0.0000 0.0000
vt 0.9980 0.0000 0.0000
# 4 texture coords

g Nemu_1CB22346_0_020
usemtl Material__407
s 1
f 262/202/49 263/203/49 264/204/49 
f 262/202/49 264/204/49 265/205/49 
# 0 polygons - 2 triangles

#
# object Nemu_32C9D0EF_0_022
#

v  -1.1000 -4.2000 -0.9000
v  -1.1000 -4.2000 0.9000
v  -4.8000 -4.2000 0.9000
v  -4.8000 -4.2000 -0.9000
v  2.9000 -4.2000 -0.9000
v  2.9000 -4.2000 0.9000
v  6.9000 -4.2000 -0.9000
v  6.9000 -4.2000 0.9000
v  -4.8000 -3.9000 0.9000
v  -1.1000 -3.9000 0.9000
v  -1.1000 -3.9000 -0.9000
v  -4.8000 -3.9000 -0.9000
v  2.9000 -3.9000 0.9000
v  2.9000 -3.9000 -0.9000
v  6.9000 -3.9000 0.9000
v  6.9000 -3.9000 -0.9000
# 16 vertices

vn 0.0000 -1.0000 -0.0000
vn 0.0000 1.0000 0.0000
# 2 vertex normals

vt 10.9395 1.0000 0.0000
vt 10.9395 0.0000 0.0000
vt 16.0000 0.0000 0.0000
vt 16.0000 1.0000 0.0000
vt 5.4688 1.0000 0.0000
vt 5.4688 0.0000 0.0000
vt 0.0000 1.0000 0.0000
vt 0.0000 0.0000 0.0000
# 8 texture coords

g Nemu_32C9D0EF_0_022
usemtl Material__421
s 1
f 266/206/50 267/207/50 268/208/50 
f 266/206/50 268/208/50 269/209/50 
f 270/210/50 271/211/50 267/207/50 
f 270/210/50 267/207/50 266/206/50 
f 272/212/50 273/213/50 271/211/50 
f 272/212/50 271/211/50 270/210/50 
f 274/208/51 275/207/51 276/206/51 
f 274/208/51 276/206/51 277/209/51 
f 275/207/51 278/211/51 279/210/51 
f 275/207/51 279/210/51 276/206/51 
f 278/211/51 280/213/51 281/212/51 
f 278/211/51 281/212/51 279/210/51 
# 0 polygons - 12 triangles

#
# object Nemu_32C9D0EF_0_021
#

v  -4.8000 -4.2000 -0.9000
v  -4.8000 -4.2000 0.9000
v  -5.1000 -4.2000 0.9000
v  -5.1000 -4.2000 -0.9000
v  -5.1000 -3.9000 0.9000
v  -5.1000 -3.9000 -0.9000
v  -5.1000 -3.0000 0.9000
v  -5.1000 -3.0000 -0.9000
v  -4.8000 -3.9000 -0.9000
v  -4.8000 -3.0000 0.9000
v  -4.8000 -3.9000 0.9000
v  -4.8000 -3.0000 -0.9000
# 12 vertices

vn 0.0000 -1.0000 -0.0000
vn -1.0000 0.0000 -0.0000
vn 1.0000 0.0000 -0.0000
vn 0.0000 1.0000 0.0000
vn 0.0000 -0.0000 1.0000
# 5 vertex normals

vt 0.9980 0.0000 0.0000
vt 0.0000 0.0000 0.0000
vt 0.0000 1.0000 0.0000
vt 0.9980 1.0000 0.0000
# 4 texture coords

g Nemu_32C9D0EF_0_021
usemtl Material__421
s 1
f 282/214/52 283/215/52 284/215/52 
f 282/214/52 284/215/52 285/214/52 
f 286/216/53 287/217/53 285/214/53 
f 286/216/53 285/214/53 284/215/53 
f 286/215/53 288/216/53 289/217/53 
f 286/215/53 289/217/53 287/214/53 
f 290/214/54 291/216/54 292/215/54 
f 290/214/54 293/217/54 291/216/54 
f 288/216/55 291/216/55 293/217/55 
f 288/216/55 293/217/55 289/217/55 
f 284/214/56 283/215/56 292/216/56 
f 284/214/56 292/216/56 286/217/56 
# 0 polygons - 12 triangles

#
# object Nemu_1CB22346_0_019
#

v  -4.8000 -4.2000 0.9000
v  -1.1000 -4.2000 0.9000
v  -1.1000 -3.9000 0.9000
v  -4.8000 -3.9000 0.9000
v  2.9000 -4.2000 0.9000
v  2.9000 -3.9000 0.9000
v  6.9000 -4.2000 0.9000
v  6.9000 -3.9000 0.9000
# 8 vertices

vn 0.0000 -0.0000 1.0000
# 1 vertex normals

vt 16.0000 0.0000 0.0000
vt 10.9395 0.0000 0.0000
vt 10.9395 1.0000 0.0000
vt 16.0000 1.0000 0.0000
vt 5.4688 0.0000 0.0000
vt 5.4688 1.0000 0.0000
vt 0.0000 0.0000 0.0000
vt 0.0000 1.0000 0.0000
# 8 texture coords

g Nemu_1CB22346_0_019
usemtl Material__407
s 1
f 294/218/57 295/219/57 296/220/57 
f 294/218/57 296/220/57 297/221/57 
f 295/219/57 298/222/57 299/223/57 
f 295/219/57 299/223/57 296/220/57 
f 298/222/57 300/224/57 301/225/57 
f 298/222/57 301/225/57 299/223/57 
# 0 polygons - 6 triangles

#
# object Nemu_1CB22346_0_018
#

v  -5.1000 -3.9000 0.9000
v  -4.8000 -3.0000 0.9000
v  -5.1000 -3.0000 0.9000
v  -4.8000 -3.9000 0.9000
# 4 vertices

vn 0.0000 -0.0000 1.0000
# 1 vertex normals

vt 0.9629 1.0000 0.0000
vt -0.0352 0.0000 0.0000
vt -0.0352 1.0000 0.0000
vt 0.9629 0.0000 0.0000
# 4 texture coords

g Nemu_1CB22346_0_018
usemtl Material__407
s 1
f 302/226/58 303/227/58 304/228/58 
f 302/226/58 305/229/58 303/227/58 
# 0 polygons - 2 triangles

#
# object Nemu_32C9D0EF_0_020
#

v  -4.8000 2.1000 0.9000
v  -4.8000 2.4000 0.9000
v  -4.8000 2.4000 -0.9000
v  -4.8000 2.1000 -0.9000
# 4 vertices

vn -1.0000 0.0000 -0.0000
# 1 vertex normals

vt 1.0000 0.0000 0.0000
vt 1.0000 1.0000 0.0000
vt 0.0000 1.0000 0.0000
vt 0.0000 0.0000 0.0000
# 4 texture coords

g Nemu_32C9D0EF_0_020
usemtl Material__421
s 1
f 306/230/59 307/231/59 308/232/59 
f 306/230/59 308/232/59 309/233/59 
# 0 polygons - 2 triangles

#
# object Nemu_32C9D0EF_0_019
#

v  -0.9000 1.9050 0.9000
v  -4.8000 2.1000 -0.9000
v  -0.9000 1.9050 -0.9000
v  -4.8000 2.1000 0.9000
v  3.0000 1.7100 0.9000
v  3.0000 1.7100 -0.9000
v  6.9000 1.5150 -0.9000
v  6.9000 1.5150 0.9000
v  -4.8000 2.4000 -0.9000
v  -0.9000 2.2050 0.9000
v  -0.9000 2.2050 -0.9000
v  -4.8000 2.4000 0.9000
v  3.0000 2.0100 0.9000
v  3.0000 2.0100 -0.9000
v  6.9000 1.8150 0.9000
v  6.9000 1.8150 -0.9000
# 16 vertices

vn -0.0499 -0.9988 -0.0000
vn 0.0499 0.9988 0.0000
# 2 vertex normals

vt 5.3477 1.0000 0.0000
vt 0.0215 0.0000 0.0000
vt 5.3477 0.0000 0.0000
vt 0.0215 1.0000 0.0000
vt 10.6738 1.0000 0.0000
vt 10.6738 0.0000 0.0000
vt 16.0000 0.0000 0.0000
vt 16.0000 1.0000 0.0000
vt 0.0000 0.0000 0.0000
vt 5.3242 1.0000 0.0000
vt 5.3242 0.0000 0.0000
vt 0.0000 1.0000 0.0000
vt 10.6504 1.0000 0.0000
vt 10.6504 0.0000 0.0000
vt 15.9766 1.0000 0.0000
vt 15.9766 0.0000 0.0000
# 16 texture coords

g Nemu_32C9D0EF_0_019
usemtl Material__421
s 1
f 310/234/60 311/235/60 312/236/60 
f 310/234/60 313/237/60 311/235/60 
f 314/238/60 312/236/60 315/239/60 
f 314/238/60 310/234/60 312/236/60 
f 316/240/60 317/241/60 314/238/60 
f 316/240/60 314/238/60 315/239/60 
f 318/242/61 319/243/61 320/244/61 
f 318/242/61 321/245/61 319/243/61 
f 320/244/61 322/246/61 323/247/61 
f 320/244/61 319/243/61 322/246/61 
f 322/246/61 324/248/61 325/249/61 
f 322/246/61 325/249/61 323/247/61 
# 0 polygons - 12 triangles

#
# object Nemu_1CB22346_0_017
#

v  -4.8000 2.1000 0.9000
v  -0.9000 1.9050 0.9000
v  -0.9000 2.2050 0.9000
v  -4.8000 2.4000 0.9000
v  3.0000 1.7100 0.9000
v  3.0000 2.0100 0.9000
v  6.9000 1.5150 0.9000
v  6.9000 1.8150 0.9000
# 8 vertices

vn 0.0000 -0.0000 1.0000
# 1 vertex normals

vt 0.0195 0.0000 0.0000
vt 5.3457 0.0273 0.0000
vt 5.3262 0.9414 0.0000
vt 0.0000 0.9141 0.0000
vt 10.6719 0.0566 0.0000
vt 10.6523 0.9707 0.0000
vt 16.0000 0.0840 0.0000
vt 15.9785 1.0000 0.0000
# 8 texture coords

g Nemu_1CB22346_0_017
usemtl Material__407
s 1
f 326/250/62 327/251/62 328/252/62 
f 326/250/62 328/252/62 329/253/62 
f 327/251/62 330/254/62 331/255/62 
f 327/251/62 331/255/62 328/252/62 
f 330/254/62 332/256/62 333/257/62 
f 330/254/62 333/257/62 331/255/62 
# 0 polygons - 6 triangles

#
# object Nemu_32C9D0EF_0_018
#

v  -3.2000 4.3500 0.9000
v  -7.2000 4.3500 -0.9000
v  -3.2000 4.3500 -0.9000
v  -7.2000 4.3500 0.9000
v  0.8000 4.3500 0.9000
v  0.8000 4.3500 -0.9000
v  4.5000 4.3500 -0.9000
v  4.5000 4.3500 0.9000
v  -7.2000 4.6500 -0.9000
v  -3.2000 4.6500 0.9000
v  -3.2000 4.6500 -0.9000
v  -7.2000 4.6500 0.9000
v  0.8000 4.6500 0.9000
v  0.8000 4.6500 -0.9000
v  4.5000 4.6500 0.9000
v  4.5000 4.6500 -0.9000
# 16 vertices

vn 0.0000 -1.0000 -0.0000
vn 0.0000 1.0000 0.0000
# 2 vertex normals

vt 5.4688 1.0000 0.0000
vt 0.0000 0.0000 0.0000
vt 5.4688 0.0000 0.0000
vt 0.0000 1.0000 0.0000
vt 10.9395 1.0000 0.0000
vt 10.9395 0.0000 0.0000
vt 16.0000 0.0000 0.0000
vt 16.0000 1.0000 0.0000
# 8 texture coords

g Nemu_32C9D0EF_0_018
usemtl Material__421
s 1
f 334/258/63 335/259/63 336/260/63 
f 334/258/63 337/261/63 335/259/63 
f 338/262/63 336/260/63 339/263/63 
f 338/262/63 334/258/63 336/260/63 
f 340/264/63 341/265/63 338/262/63 
f 340/264/63 338/262/63 339/263/63 
f 342/259/64 343/258/64 344/260/64 
f 342/259/64 345/261/64 343/258/64 
f 344/260/64 346/262/64 347/263/64 
f 344/260/64 343/258/64 346/262/64 
f 346/262/64 348/265/64 349/264/64 
f 346/262/64 349/264/64 347/263/64 
# 0 polygons - 12 triangles

#
# object Nemu_32C9D0EF_0_017
#

v  4.8000 4.3500 -0.9000
v  4.8000 4.3500 0.9000
v  4.5000 4.3500 0.9000
v  4.5000 4.3500 -0.9000
v  4.8000 4.6500 -0.9000
v  4.8000 4.6500 0.9000
v  4.5000 4.6500 0.9000
v  4.5000 5.5500 0.9000
v  4.5000 5.5500 -0.9000
v  4.5000 4.6500 -0.9000
v  4.8000 5.5500 0.9000
v  4.8000 5.5500 -0.9000
# 12 vertices

vn 0.0000 -1.0000 -0.0000
vn 1.0000 0.0000 -0.0000
vn -1.0000 0.0000 -0.0000
vn 0.0000 -0.0000 1.0000
vn 0.0000 1.0000 0.0000
# 5 vertex normals

vt 0.0000 0.0000 0.0000
vt 0.9980 0.0000 0.0000
vt 0.0000 1.0000 0.0000
vt 0.9980 1.0000 0.0000
# 4 texture coords

g Nemu_32C9D0EF_0_017
usemtl Material__421
s 1
f 350/266/65 351/267/65 352/267/65 
f 350/266/65 352/267/65 353/266/65 
f 354/268/66 355/269/66 351/267/66 
f 354/268/66 351/267/66 350/266/66 
f 356/267/67 357/269/67 358/268/67 
f 356/267/67 358/268/67 359/266/67 
f 354/266/66 360/269/66 355/267/66 
f 354/266/66 361/268/66 360/269/66 
f 352/266/68 351/267/68 355/269/68 
f 352/266/68 355/269/68 356/268/68 
f 357/269/69 360/269/69 361/268/69 
f 357/269/69 361/268/69 358/268/69 
# 0 polygons - 12 triangles

#
# object Nemu_1CB22346_0_016
#

v  -7.2000 4.3500 0.9000
v  -3.2000 4.3500 0.9000
v  -3.2000 4.6500 0.9000
v  -7.2000 4.6500 0.9000
v  0.8000 4.3500 0.9000
v  0.8000 4.6500 0.9000
v  4.5000 4.3500 0.9000
v  4.5000 4.6500 0.9000
# 8 vertices

vn 0.0000 -0.0000 1.0000
# 1 vertex normals

vt 0.0000 0.0000 0.0000
vt 5.4688 0.0000 0.0000
vt 5.4688 1.0000 0.0000
vt 0.0000 1.0000 0.0000
vt 10.9395 0.0000 0.0000
vt 10.9395 1.0000 0.0000
vt 16.0000 0.0000 0.0000
vt 16.0000 1.0000 0.0000
# 8 texture coords

g Nemu_1CB22346_0_016
usemtl Material__407
s 1
f 362/270/70 363/271/70 364/272/70 
f 362/270/70 364/272/70 365/273/70 
f 363/271/70 366/274/70 367/275/70 
f 363/271/70 367/275/70 364/272/70 
f 366/274/70 368/276/70 369/277/70 
f 366/274/70 369/277/70 367/275/70 
# 0 polygons - 6 triangles

#
# object Nemu_1CB22346_0_015
#

v  4.8000 4.6500 0.9000
v  4.8000 5.5500 0.9000
v  4.5000 5.5500 0.9000
v  4.5000 4.6500 0.9000
# 4 vertices

vn 0.0000 -0.0000 1.0000
# 1 vertex normals

vt 1.0000 1.0000 0.0000
vt 0.0000 1.0000 0.0000
vt 0.0000 0.0000 0.0000
vt 1.0000 0.0000 0.0000
# 4 texture coords

g Nemu_1CB22346_0_015
usemtl Material__407
s 1
f 370/278/71 371/279/71 372/280/71 
f 370/278/71 372/280/71 373/281/71 
# 0 polygons - 2 triangles

#
# object Nemu_3ED958D1_0_014
#

v  6.3000 5.4000 -0.7500
v  6.3000 6.0590 -0.7500
v  5.7000 6.0590 -0.7500
v  5.7000 5.4000 -0.7500
# 4 vertices

vn 0.0000 -0.0000 1.0000
# 1 vertex normals

vt 1.0000 0.0000 0.0000
vt 1.0000 1.0000 0.0000
vt 0.0000 1.0000 0.0000
vt 0.0000 0.0000 0.0000
# 4 texture coords

g Nemu_3ED958D1_0_014
usemtl Material__411
s 1
f 374/282/72 375/283/72 376/284/72 
f 374/282/72 376/284/72 377/285/72 
# 0 polygons - 2 triangles

#
# object Nemu_26A2127_0_013
#

v  6.2750 2.7810 -0.7500
v  6.2750 3.4170 -0.7500
v  5.7250 3.4170 -0.7500
v  5.7250 2.7810 -0.7500
# 4 vertices

vn 0.0000 -0.0000 1.0000
# 1 vertex normals

vt 1.0000 0.0000 0.0000
vt 1.0000 1.0000 0.0000
vt 0.0000 1.0000 0.0000
vt 0.0000 0.0000 0.0000
# 4 texture coords

g Nemu_26A2127_0_013
usemtl Material__419
s 1
f 378/286/73 379/287/73 380/288/73 
f 378/286/73 380/288/73 381/289/73 
# 0 polygons - 2 triangles

#
# object Nemu_26A2127_0_012
#

v  -5.7250 2.5482 -0.7500
v  -5.7250 3.1842 -0.7500
v  -6.2750 3.1842 -0.7500
v  -6.2750 2.5482 -0.7500
# 4 vertices

vn 0.0000 -0.0000 1.0000
# 1 vertex normals

vt 1.0000 0.0000 0.0000
vt 1.0000 1.0000 0.0000
vt 0.0000 1.0000 0.0000
vt 0.0000 0.0000 0.0000
# 4 texture coords

g Nemu_26A2127_0_012
usemtl Material__418
s 1
f 382/290/74 383/291/74 384/292/74 
f 382/290/74 384/292/74 385/293/74 
# 0 polygons - 2 triangles

#
# object Nemu_10FD00B3_0_011
#

v  -5.7250 -0.1503 -0.7500
v  -5.7250 0.4857 -0.7500
v  -6.2750 0.4857 -0.7500
v  -6.2750 -0.1503 -0.7500
# 4 vertices

vn 0.0000 -0.0000 1.0000
# 1 vertex normals

vt 1.0000 0.0000 0.0000
vt 1.0000 1.0000 0.0000
vt 0.0000 1.0000 0.0000
vt 0.0000 0.0000 0.0000
# 4 texture coords

g Nemu_10FD00B3_0_011
usemtl Material__415
s 1
f 386/294/75 387/295/75 388/296/75 
f 386/294/75 388/296/75 389/297/75 
# 0 polygons - 2 triangles

#
# object Nemu_10FD00B3_0_010
#

v  6.2750 0.0151 -0.7500
v  6.2750 0.6511 -0.7500
v  5.7250 0.6511 -0.7500
v  5.7250 0.0151 -0.7500
# 4 vertices

vn 0.0000 -0.0000 1.0000
# 1 vertex normals

vt 1.0000 0.0000 0.0000
vt 1.0000 1.0000 0.0000
vt 0.0000 1.0000 0.0000
vt 0.0000 0.0000 0.0000
# 4 texture coords

g Nemu_10FD00B3_0_010
usemtl Material__416
s 1
f 390/298/76 391/299/76 392/300/76 
f 390/298/76 392/300/76 393/301/76 
# 0 polygons - 2 triangles

#
# object Nemu_3A60B2EA_0_009
#

v  6.2750 -2.9873 -0.7500
v  6.2750 -2.3513 -0.7500
v  5.7250 -2.3513 -0.7500
v  5.7250 -2.9873 -0.7500
# 4 vertices

vn 0.0000 -0.0000 1.0000
# 1 vertex normals

vt 1.0000 0.0000 0.0000
vt 1.0000 1.0000 0.0000
vt 0.0000 1.0000 0.0000
vt 0.0000 0.0000 0.0000
# 4 texture coords

g Nemu_3A60B2EA_0_009
usemtl Material__410
s 1
f 394/302/77 395/303/77 396/304/77 
f 394/302/77 396/304/77 397/305/77 
# 0 polygons - 2 triangles

#
# object Nemu_3A60B2EA_0_008
#

v  -5.7250 -3.0600 -0.7500
v  -5.7250 -2.4240 -0.7500
v  -6.2750 -2.4240 -0.7500
v  -6.2750 -3.0600 -0.7500
# 4 vertices

vn 0.0000 -0.0000 1.0000
# 1 vertex normals

vt 1.0000 0.0000 0.0000
vt 1.0000 1.0000 0.0000
vt 0.0000 1.0000 0.0000
vt 0.0000 0.0000 0.0000
# 4 texture coords

g Nemu_3A60B2EA_0_008
usemtl Material__409
s 1
f 398/306/78 399/307/78 400/308/78 
f 398/306/78 400/308/78 401/309/78 
# 0 polygons - 2 triangles

#
# object Nemu_26C7205B_0_007
#

v  -5.7250 -5.9731 -0.7500
v  -5.7250 -5.3371 -0.7500
v  -6.2750 -5.3371 -0.7500
v  -6.2750 -5.9731 -0.7500
# 4 vertices

vn 0.0000 -0.0000 1.0000
# 1 vertex normals

vt 1.0000 0.0000 0.0000
vt 1.0000 1.0000 0.0000
vt 0.0000 1.0000 0.0000
vt 0.0000 0.0000 0.0000
# 4 texture coords

g Nemu_26C7205B_0_007
usemtl Material__420
s 1
f 402/310/79 403/311/79 404/312/79 
f 402/310/79 404/312/79 405/313/79 
# 0 polygons - 2 triangles

#
# object Nemu_603188CA_0_006
#

v  6.4250 -7.1873 -0.7500
v  6.4250 -5.3513 -0.7500
v  5.2750 -5.3513 -0.7500
v  5.2750 -7.1873 -0.7500
# 4 vertices

vn 0.0000 -0.0000 1.0000
# 1 vertex normals

vt 1.0000 0.0000 0.0000
vt 1.0000 1.0000 0.0000
vt 0.0000 1.0000 0.0000
vt 0.0000 0.0000 0.0000
# 4 texture coords

g Nemu_603188CA_0_006
usemtl Material__427
s 1
f 406/314/80 407/315/80 408/316/80 
f 406/314/80 408/316/80 409/317/80 
# 0 polygons - 2 triangles

#
# object Nemu_6D0AF68E_0_005
#

v  -3.6000 -4.2000 -0.9000
v  3.6000 -4.2000 -0.9000
v  3.6000 -1.2000 -0.9000
v  -3.6000 -1.2000 -0.9000
# 4 vertices

vn 0.0000 -0.0000 1.0000
# 1 vertex normals

vt 1.5000 1.0415 0.0000
vt 4.5000 1.0415 0.0000
vt 4.5000 2.0830 0.0000
vt 1.5000 2.0830 0.0000
# 4 texture coords

g Nemu_6D0AF68E_0_005
usemtl Material__432
s 1
f 410/318/81 411/319/81 412/320/81 
f 410/318/81 412/320/81 413/321/81 
# 0 polygons - 2 triangles

#
# object Nemu_36B5F0BF_0_004
#

v  -7.2000 4.3500 -0.9000
v  -4.8000 7.2000 -0.9000
v  -7.2000 7.2000 -0.9000
v  -4.8000 4.3500 -0.9000
v  -3.6000 4.3500 -0.9000
v  3.6000 4.3500 -0.9000
v  3.6000 7.2000 -0.9000
v  -3.6000 7.2000 -0.9000
# 8 vertices

vn 0.0000 -0.0000 1.0000
# 1 vertex normals

vt 0.0000 4.0103 0.0000
vt 2.0000 5.0000 0.0000
vt 0.0000 5.0000 0.0000
vt 2.0000 4.0103 0.0000
vt 3.0000 4.0103 0.0000
vt 9.0000 4.0103 0.0000
vt 9.0000 5.0000 0.0000
vt 3.0000 5.0000 0.0000
# 8 texture coords

g Nemu_36B5F0BF_0_004
usemtl Material__422
s 1
f 414/322/82 415/323/82 416/324/82 
f 414/322/82 417/325/82 415/323/82 
f 418/326/82 419/327/82 420/328/82 
f 418/326/82 420/328/82 421/329/82 
# 0 polygons - 4 triangles

#
# object Nemu_7F74DCA4_0_003
#

v  7.2000 4.3500 -0.9000
v  7.2000 7.2000 -0.9000
v  4.8000 7.2000 -0.9000
v  4.8000 4.3500 -0.9000
v  7.2000 1.8000 -0.9000
v  4.8000 1.9170 -0.9000
v  -7.2000 1.4950 -0.9000
v  -4.8000 1.4950 -0.9000
v  -4.8000 2.4000 -0.9000
v  -7.2000 2.5500 -0.9000
v  -4.8000 4.3500 -0.9000
v  -7.2000 4.3500 -0.9000
v  -7.2000 -1.2000 -0.9000
v  -4.8000 -1.2000 -0.9000
v  7.2000 -1.2000 -0.9000
v  4.8000 -1.2000 -0.9000
v  7.2000 -4.2000 -0.9000
v  4.8000 -4.2000 -0.9000
v  -7.2000 -4.2000 -0.9000
v  -4.8000 -4.2000 -0.9000
v  -7.2000 -7.2000 -0.9000
v  -4.8000 -7.2000 -0.9000
# 22 vertices

vn 0.0000 -0.0000 1.0000
# 1 vertex normals

vt 0.9995 0.0000 0.0000
vt 0.9995 1.0000 0.0000
vt 0.0000 1.0000 0.0000
vt 0.0000 0.0000 0.0000
vt 0.0000 0.9541 0.0000
vt 0.9995 0.3169 0.0000
vt 0.0000 0.3691 0.0000
vt 0.9995 0.9624 0.0000
vt 0.0000 0.9995 0.0000
vt 0.9995 0.9995 0.0000
# 10 texture coords

g Nemu_7F74DCA4_0_003
usemtl Material__414
s 1
f 422/330/83 423/331/83 424/332/83 
f 422/330/83 424/332/83 425/333/83 
f 426/331/83 422/330/83 425/333/83 
f 426/331/83 425/333/83 427/334/83 
f 428/333/83 429/330/83 430/335/83 
f 428/333/83 430/335/83 431/336/83 
f 431/336/83 432/331/83 433/332/83 
f 431/336/83 430/335/83 432/331/83 
f 434/332/83 429/330/83 428/333/83 
f 434/332/83 435/331/83 429/330/83 
f 436/330/83 426/337/83 427/338/83 
f 436/330/83 427/338/83 437/333/83 
f 438/339/83 436/330/83 437/333/83 
f 438/339/83 437/333/83 439/338/83 
f 440/333/83 435/339/83 434/338/83 
f 440/333/83 441/330/83 435/339/83 
f 442/332/83 441/330/83 440/333/83 
f 442/332/83 443/331/83 441/330/83 
# 0 polygons - 18 triangles

#
# object Nemu_FC77335_0_002
#

v  4.8000 -7.2000 -0.9000
v  7.2000 -4.2000 -0.9000
v  4.8000 -4.2000 -0.9000
v  7.2000 -7.2000 -0.9000
v  -3.6000 2.3400 -0.9000
v  3.6000 1.9770 -0.9000
v  3.6000 4.3500 -0.9000
v  -3.6000 4.3500 -0.9000
v  -3.6000 -1.2000 -0.9000
v  3.6000 -1.2000 -0.9000
# 10 vertices

vn 0.0000 -0.0000 1.0000
# 1 vertex normals

vt 5.0000 0.0000 0.0000
vt 6.0000 1.0415 0.0000
vt 5.0000 1.0415 0.0000
vt 6.0000 0.0000 0.0000
vt 1.5000 3.3120 0.0000
vt 4.5000 3.1865 0.0000
vt 4.5000 4.0103 0.0000
vt 1.5000 4.0103 0.0000
vt 1.5000 2.0830 0.0000
vt 4.5000 2.0830 0.0000
# 10 texture coords

g Nemu_FC77335_0_002
usemtl Material__429
s 1
f 444/340/84 445/341/84 446/342/84 
f 444/340/84 447/343/84 445/341/84 
f 448/344/84 449/345/84 450/346/84 
f 448/344/84 450/346/84 451/347/84 
f 452/348/84 449/345/84 448/344/84 
f 452/348/84 453/349/84 449/345/84 
# 0 polygons - 6 triangles

#
# object Nemu_6D0AF68E_0_006
#

v  -3.6000 -7.2000 -0.9000
v  3.6000 -7.2000 -0.9000
v  3.6000 -4.2000 -0.9000
v  -3.6000 -4.2000 -0.9000
# 4 vertices

vn 0.0000 -0.0000 1.0000
# 1 vertex normals

vt 1.5000 0.0000 0.0000
vt 4.5000 0.0000 0.0000
vt 4.5000 1.0415 0.0000
vt 1.5000 1.0415 0.0000
# 4 texture coords

g Nemu_6D0AF68E_0_006
usemtl Material__412
s 1
f 454/350/85 455/351/85 456/352/85 
f 454/350/85 456/352/85 457/353/85 
# 0 polygons - 2 triangles

