# 3ds Max Wavefront OBJ Exporter v0.97b - (c)2007 guruware
# File Created: 27.04.2019 23:06:29

mtllib kirbyyoshi.mtl

#
# object legr_0_0_037
#

v  -0.0751 0.0108 -0.0896
v  -0.1154 0.0539 -0.0306
v  -0.0727 0.0525 -0.0786
v  -0.0401 0.0314 -0.0981
v  -0.0572 0.0872 -0.0073
v  -0.0141 0.0503 -0.0658
v  -0.1138 0.0100 -0.0366
v  -0.0907 -0.0042 -0.0415
v  -0.0131 0.0115 -0.0783
v  -0.1075 0.0416 0.0821
v  -0.1304 0.0206 0.0315
v  -0.0024 0.0499 0.0023
v  -0.0195 -0.0030 -0.0261
v  -0.1068 -0.0040 0.0527
v  -0.0589 0.0407 0.0907
v  -0.0046 0.0071 0.0046
v  -0.1122 0.0200 0.0912
v  -0.0169 0.0165 0.0540
v  -0.0439 -0.0027 0.0672
v  -0.0882 0.0015 0.0833
v  -0.0622 0.0181 0.1011
# 21 vertices

vn -0.7269 0.2144 -0.6524
vn -0.3695 0.2572 -0.8929
vn -0.3582 0.8677 -0.3447
vn 0.1582 0.7913 -0.5907
vn -0.8071 0.0517 -0.5882
vn 0.1322 0.8796 -0.4570
vn -0.5385 -0.7395 -0.4039
vn 0.6829 0.2398 -0.6900
vn -0.5307 0.8377 0.1286
vn -0.9715 -0.0023 -0.2370
vn 0.9826 0.0799 -0.1677
vn 0.0581 -0.9641 -0.2591
vn -0.8024 0.5847 0.1198
vn 0.0757 -0.9589 -0.2734
vn -0.6938 -0.7178 -0.0580
vn -0.5339 -0.8408 -0.0897
vn 0.4725 0.7932 0.3842
vn 0.9930 -0.0556 -0.1043
vn 0.0162 -0.9999 0.0048
vn 0.7010 -0.7049 -0.1086
vn -0.9075 0.3129 0.2802
vn -0.0596 0.9024 0.4267
vn 0.9680 -0.0347 0.2486
vn -0.7941 -0.5597 0.2369
vn 0.3962 -0.9120 0.1065
vn 0.7183 0.4752 0.5081
vn -0.4627 -0.7803 0.4207
vn 0.0191 -0.9998 0.0081
vn -0.1500 0.4306 0.8900
vn -0.1630 0.4111 0.8969
vn -0.0235 -0.9814 0.1907
vn 0.6465 -0.7030 0.2962
vn 0.7092 0.2084 0.6735
vn -0.1805 -0.5744 0.7984
vn 0.1291 -0.8132 0.5675
vn 0.6335 -0.4593 0.6227
vn 0.1518 -0.5873 -0.7950
vn 0.5709 0.8157 -0.0932
# 38 vertex normals

g legr_0_0_037
usemtl Material__780
s 1
f 1//1 2//1 3//1 
f 4//2 1//2 3//2 
f 2//3 5//3 3//3 
f 4//4 3//4 6//4 
f 2//5 1//5 7//5 
f 6//6 3//6 5//6 
f 1//7 8//7 7//7 
f 6//8 9//8 4//8 
f 5//9 2//9 10//9 
f 2//10 7//10 11//10 
f 12//11 9//11 6//11 
f 1//12 9//12 13//12 
f 2//13 11//13 10//13 
f 1//14 13//14 8//14 
f 7//15 14//15 11//15 
f 14//16 7//16 8//16 
f 12//17 5//17 15//17 
f 9//18 12//18 16//18 
f 13//19 14//19 8//19 
f 13//20 9//20 16//20 
f 10//21 11//21 17//21 
f 10//22 15//22 5//22 
f 16//23 12//23 18//23 
f 11//24 14//24 17//24 
f 16//25 19//25 13//25 
f 15//26 18//26 12//26 
f 20//27 17//27 14//27 
f 13//28 19//28 14//28 
f 10//29 21//29 15//29 
f 10//30 17//30 21//30 
f 20//31 14//31 19//31 
f 19//32 16//32 18//32 
f 18//33 15//33 21//33 
f 17//34 20//34 21//34 
f 19//35 21//35 20//35 
f 21//36 19//36 18//36 
f 9//37 1//37 4//37 
f 12//38 6//38 5//38 
# 0 polygons - 38 triangles

#
# object legl_0_0_036
#

v  0.0140 0.0106 -0.0787
v  0.0140 0.0493 -0.0659
v  0.0406 0.0314 -0.0984
v  0.0022 0.0480 0.0021
v  0.0725 0.0532 -0.0786
v  0.0560 0.0868 -0.0069
v  0.0761 0.0117 -0.0900
v  0.0588 0.0395 0.0906
v  0.0055 0.0052 0.0041
v  0.0175 0.0145 0.0535
v  0.0207 -0.0042 -0.0267
v  0.0920 -0.0033 -0.0420
v  0.1150 0.0554 -0.0304
v  0.1079 -0.0035 0.0522
v  0.0450 -0.0041 0.0667
v  0.1147 0.0115 -0.0369
v  0.1073 0.0418 0.0821
v  0.0891 0.0012 0.0829
v  0.1309 0.0219 0.0313
v  0.1126 0.0202 0.0910
v  0.0626 0.0168 0.1008
# 21 vertices

vn -0.6881 0.2275 -0.6891
vn -0.9841 0.0543 -0.1690
vn -0.1558 0.8800 -0.4487
vn -0.5932 0.8004 -0.0865
vn -0.1340 -0.5835 -0.8010
vn -0.4950 0.7760 0.3909
vn -0.9909 -0.0820 -0.1069
vn -0.1791 0.7922 -0.5833
vn -0.9671 -0.0639 0.2462
vn -0.6809 -0.7230 -0.1169
vn -0.0308 -0.9628 -0.2685
vn 0.3639 0.2759 -0.8896
vn -0.0485 -0.9579 -0.2829
vn 0.3346 0.8806 -0.3356
vn 0.0087 -1.0000 -0.0016
vn 0.0116 -0.9999 -0.0049
vn 0.8064 0.0798 -0.5859
vn 0.5070 0.8509 0.1378
vn 0.0505 -0.9821 0.1813
vn 0.7856 0.6055 0.1271
vn 0.7219 0.2407 -0.6488
vn 0.4835 -0.7712 0.4141
vn 0.5572 -0.8247 -0.0967
vn 0.9716 0.0269 -0.2350
vn -0.7160 0.1822 0.6740
vn 0.7136 -0.6977 -0.0634
vn -0.7322 0.4502 0.5112
vn -0.6273 -0.7235 0.2881
vn 0.0337 0.8995 0.4356
vn -0.3709 -0.9236 0.0968
vn 0.5596 -0.7203 -0.4099
vn -0.6216 -0.4827 0.6169
vn -0.1075 -0.8219 0.5593
vn 0.1363 0.4260 0.8944
vn 0.1950 -0.5769 0.7932
vn 0.1499 0.4067 0.9012
vn 0.8089 -0.5397 0.2332
vn 0.8980 0.3352 0.2851
# 38 vertex normals

g legl_0_0_036
usemtl Material__779
s 1
f 22//39 23//39 24//39 
f 22//40 25//40 23//40 
f 26//41 23//41 27//41 
f 23//42 25//42 27//42 
f 28//43 22//43 24//43 
f 27//44 25//44 29//44 
f 25//45 22//45 30//45 
f 26//46 24//46 23//46 
f 25//47 30//47 31//47 
f 22//48 32//48 30//48 
f 22//49 28//49 32//49 
f 28//50 24//50 26//50 
f 32//51 28//51 33//51 
f 27//52 34//52 26//52 
f 32//53 35//53 36//53 
f 32//54 33//54 35//54 
f 28//55 34//55 37//55 
f 34//56 27//56 38//56 
f 35//57 39//57 36//57 
f 40//58 34//58 38//58 
f 34//59 28//59 26//59 
f 41//60 39//60 35//60 
f 37//61 35//61 33//61 
f 37//62 34//62 40//62 
f 29//63 31//63 42//63 
f 35//64 37//64 40//64 
f 31//65 29//65 25//65 
f 30//66 36//66 31//66 
f 29//67 38//67 27//67 
f 36//68 30//68 32//68 
f 33//69 28//69 37//69 
f 36//70 42//70 31//70 
f 42//71 36//71 39//71 
f 42//72 38//72 29//72 
f 39//73 41//73 42//73 
f 42//74 41//74 38//74 
f 35//75 40//75 41//75 
f 40//76 38//76 41//76 
# 0 polygons - 38 triangles

#
# object armr_0_0_035
#

v  -0.0977 0.1510 -0.0001
v  -0.1245 0.1658 -0.0463
v  -0.0951 0.1502 -0.0001
v  -0.1244 0.1657 0.0462
v  -0.1581 0.1673 0.0308
v  -0.1417 0.1012 0.0262
v  -0.1152 0.0955 -0.0001
v  -0.1418 0.1013 -0.0264
v  -0.1447 0.0833 -0.0001
v  -0.1582 0.1673 -0.0308
v  -0.1768 0.1672 0.0000
v  -0.1675 0.1021 -0.0000
# 12 vertices

vn -0.2822 -0.9490 -0.1403
vn -0.2819 -0.9493 0.1392
vn -0.4157 -0.1655 0.8943
vn 0.8010 -0.2529 0.5427
vn 0.7997 -0.2519 -0.5451
vn 0.6097 -0.3792 0.6961
vn 0.6080 -0.3778 -0.6982
vn 0.3300 -0.7977 0.5047
vn -0.4179 -0.1637 -0.8936
vn -0.7118 -0.1027 0.6948
vn -0.5458 -0.6634 0.5119
vn 0.3288 -0.7968 -0.5070
vn -0.7135 -0.1013 -0.6933
vn -0.8306 -0.2397 -0.5026
vn -0.8294 -0.2407 0.5042
vn -0.5470 -0.6624 -0.5119
# 16 vertex normals

g armr_0_0_035
usemtl Material__790
s 1
f 43//77 44//77 45//77 
f 46//78 43//78 45//78 
f 47//79 48//79 46//79 
f 43//80 46//80 49//80 
f 44//81 43//81 49//81 
f 49//82 46//82 48//82 
f 44//83 49//83 50//83 
f 49//84 48//84 51//84 
f 50//85 52//85 44//85 
f 48//86 53//86 54//86 
f 48//87 54//87 51//87 
f 50//88 49//88 51//88 
f 53//89 50//89 54//89 
f 50//90 53//90 52//90 
f 53//91 48//91 47//91 
f 54//92 50//92 51//92 
# 0 polygons - 16 triangles

#
# object armr_0_0_034
#

v  -0.1244 0.1657 0.0462
v  -0.0759 0.2057 0.0226
v  -0.1062 0.2115 0.0317
v  -0.1581 0.1673 0.0308
v  -0.0760 0.2057 -0.0227
v  -0.1047 0.2336 0.0000
v  -0.1312 0.2223 0.0136
v  -0.1062 0.2115 -0.0317
v  -0.1312 0.2224 -0.0136
v  -0.1768 0.1672 0.0000
v  -0.1582 0.1673 -0.0308
v  -0.1245 0.1658 -0.0463
v  -0.0951 0.1502 -0.0001
# 13 vertices

vn 0.3138 0.1703 0.9341
vn -0.3630 0.4096 0.8369
vn 0.6956 0.7184 -0.0001
vn 0.3136 0.7722 0.5525
vn -0.3909 0.4431 0.8068
vn 0.3123 0.7733 -0.5518
vn -0.0565 0.8215 -0.5674
vn -0.3898 0.9209 0.0013
vn -0.7396 0.5017 0.4486
vn -0.7704 0.6375 0.0015
vn -0.3649 0.4112 -0.8353
vn -0.3928 0.4446 -0.8050
vn 0.6662 -0.4667 -0.5818
vn -0.7407 0.5026 -0.4459
vn 0.6675 -0.4678 0.5793
vn 0.9452 -0.3264 -0.0014
vn -0.0552 0.8204 0.5691
vn 0.3115 0.1721 -0.9345
# 18 vertex normals

g armr_0_0_034
usemtl Material__791
s 1
f 55//93 56//93 57//93 
f 57//94 58//94 55//94 
f 59//95 60//95 56//95 
f 60//96 57//96 56//96 
f 61//97 58//97 57//97 
f 62//98 60//98 59//98 
f 60//99 62//99 63//99 
f 60//100 63//100 61//100 
f 58//101 61//101 64//101 
f 63//102 64//102 61//102 
f 65//103 62//103 66//103 
f 62//104 65//104 63//104 
f 67//105 66//105 59//105 
f 65//106 64//106 63//106 
f 55//107 67//107 56//107 
f 56//108 67//108 59//108 
f 57//109 60//109 61//109 
f 59//110 66//110 62//110 
# 0 polygons - 18 triangles

#
# object arml_0_0_033
#

v  0.0972 0.1506 0.0000
v  0.1240 0.1652 -0.0462
v  0.1151 0.0952 0.0000
v  0.0947 0.1495 0.0000
v  0.1582 0.1662 -0.0308
v  0.1417 0.1007 -0.0263
v  0.1240 0.1652 0.0462
v  0.1445 0.0828 0.0000
v  0.1776 0.1668 0.0000
v  0.1674 0.1014 0.0000
v  0.1417 0.1007 0.0263
v  0.1582 0.1662 0.0308
# 12 vertices

vn -0.7980 -0.2585 -0.5443
vn 0.3909 -0.9182 -0.0635
vn 0.4089 -0.1649 -0.8975
vn 0.3909 -0.9182 0.0635
vn -0.7980 -0.2585 0.5443
vn -0.6084 -0.3822 -0.6955
vn -0.3355 -0.7947 -0.5059
vn 0.8234 -0.2425 -0.5130
vn 0.7117 -0.1101 -0.6938
vn -0.6084 -0.3822 0.6955
vn -0.3355 -0.7947 0.5059
vn 0.4089 -0.1649 0.8975
vn 0.7117 -0.1101 0.6938
vn 0.5413 -0.6671 -0.5119
vn 0.8234 -0.2425 0.5130
vn 0.5413 -0.6671 0.5119
# 16 vertex normals

g arml_0_0_033
usemtl Material__788
s 1
f 68//111 69//111 70//111 
f 69//112 68//112 71//112 
f 72//113 73//113 69//113 
f 68//114 74//114 71//114 
f 74//115 68//115 70//115 
f 70//116 69//116 73//116 
f 70//117 73//117 75//117 
f 76//118 73//118 72//118 
f 73//119 76//119 77//119 
f 74//120 70//120 78//120 
f 78//121 70//121 75//121 
f 78//122 79//122 74//122 
f 76//123 78//123 77//123 
f 73//124 77//124 75//124 
f 78//125 76//125 79//125 
f 77//126 78//126 75//126 
# 0 polygons - 16 triangles

#
# object arml_0_0_032
#

v  0.1240 0.1652 -0.0462
v  0.0760 0.2055 -0.0227
v  0.1069 0.2120 -0.0317
v  0.0947 0.1495 0.0000
v  0.0754 0.2062 0.0227
v  0.1046 0.2335 0.0000
v  0.1311 0.2224 -0.0136
v  0.1062 0.2114 0.0317
v  0.1582 0.1662 -0.0308
v  0.1240 0.1652 0.0462
v  0.1311 0.2224 0.0136
v  0.1776 0.1668 0.0000
v  0.1582 0.1662 0.0308
# 13 vertices

vn -0.3107 0.1759 -0.9341
vn -0.6714 -0.4597 -0.5812
vn -0.9475 -0.3196 -0.0070
vn -0.3224 0.7728 -0.5467
vn 0.0611 0.8285 -0.5566
vn -0.6907 0.7229 -0.0199
vn -0.2951 0.7775 0.5554
vn 0.3676 0.3950 -0.8420
vn -0.6709 -0.4606 0.5812
vn 0.4083 0.4414 -0.7990
vn 0.0521 0.8212 0.5682
vn 0.3855 0.9227 0.0000
vn 0.7310 0.4957 -0.4690
vn 0.7676 0.6410 0.0000
vn 0.3658 0.4037 0.8386
vn 0.3948 0.4376 0.8079
vn -0.3053 0.1760 0.9359
vn 0.7310 0.4957 0.4690
# 18 vertex normals

g arml_0_0_032
usemtl Material__789
s 1
f 80//127 81//127 82//127 
f 80//128 83//128 81//128 
f 83//129 84//129 81//129 
f 85//130 82//130 81//130 
f 82//131 85//131 86//131 
f 84//132 85//132 81//132 
f 87//133 85//133 84//133 
f 82//134 88//134 80//134 
f 83//135 89//135 84//135 
f 88//136 82//136 86//136 
f 85//137 87//137 90//137 
f 86//138 85//138 90//138 
f 91//139 88//139 86//139 
f 91//140 86//140 90//140 
f 92//141 87//141 89//141 
f 92//142 90//142 87//142 
f 84//143 89//143 87//143 
f 90//144 92//144 91//144 
# 0 polygons - 18 triangles

#
# object body_0_0_031
#

v  -0.1269 0.2148 -0.0870
v  -0.0426 0.1840 -0.1495
v  -0.0589 0.1423 -0.0843
v  -0.0000 0.1151 -0.1223
v  -0.0915 0.1912 -0.0544
v  -0.0435 0.1169 -0.0707
v  -0.0915 0.2864 -0.0879
v  -0.0662 0.2664 -0.0163
v  -0.0000 0.2556 -0.1550
v  -0.0000 0.3272 -0.1087
v  -0.0789 0.3471 -0.0698
v  -0.0915 0.2963 -0.0634
v  0.0897 0.2864 -0.0879
v  0.0580 0.1423 -0.0843
v  0.0408 0.1840 -0.1495
v  0.0906 0.1912 -0.0544
v  0.0426 0.1169 -0.0707
v  0.1260 0.2148 -0.0870
v  -0.0000 0.3471 -0.0924
v  0.0453 0.2664 -0.0163
v  -0.0308 0.3643 -0.0616
v  -0.0045 0.3408 -0.0553
v  0.0308 0.3643 -0.0616
v  0.0643 0.3471 -0.0698
v  0.0906 0.2963 -0.0634
v  -0.1069 0.1840 -0.0779
v  -0.1142 0.2139 0.0825
v  -0.1060 0.2737 0.0544
v  -0.0000 0.2465 -0.1522
v  -0.0634 0.1803 0.0480
v  -0.0634 0.2039 0.0924
v  -0.0000 0.2402 0.1314
v  0.0625 0.2039 0.0924
v  0.1133 0.2139 0.0825
v  0.1060 0.1840 -0.0779
v  0.0625 0.1803 0.0480
v  0.1042 0.2737 0.0544
v  -0.0000 0.3090 0.1015
# 38 vertices

vn -0.6088 -0.5906 -0.5296
vn -0.6127 -0.5876 -0.5286
vn -0.7029 -0.6479 0.2935
vn -0.6054 -0.6289 -0.4878
vn -0.5182 0.2454 -0.8193
vn -0.8434 -0.5355 -0.0438
vn -0.7128 -0.1101 0.6927
vn -0.5177 0.2458 -0.8195
vn -0.3973 0.4977 -0.7710
vn -0.8182 0.4091 0.4039
vn -0.9686 0.2304 -0.0939
vn -0.8733 -0.4513 0.1838
vn 0.4041 0.4961 -0.7685
vn -0.3483 0.3342 -0.8758
vn 0.6197 -0.5769 -0.5321
vn 0.5275 0.2386 -0.8154
vn 0.8434 -0.5355 -0.0438
vn 0.6107 -0.6287 -0.4815
vn 0.7029 -0.6479 0.2935
vn 0.6059 -0.5881 -0.5357
vn -0.2171 0.6181 -0.7555
vn 0.5128 0.2493 -0.8215
vn 0.6684 0.0265 0.7433
vn -0.1746 0.7748 -0.6076
vn 0.6255 0.7528 0.2048
vn 0.3873 0.5838 -0.7136
vn 0.3779 0.4063 -0.8319
vn 0.7352 0.3794 0.5617
vn 0.1954 0.7040 -0.6828
vn -0.5435 0.8359 0.0764
vn 0.8790 0.4293 -0.2074
vn 0.6996 -0.6704 0.2472
vn -0.9924 0.1051 -0.0644
vn -0.6575 0.6257 -0.4197
vn -0.2567 -0.8538 0.4530
vn -0.4779 -0.8672 0.1401
vn -0.2574 -0.4619 0.8488
vn 0.2578 -0.4655 0.8467
vn 0.0000 -0.7322 0.6811
vn 0.4779 -0.8672 0.1401
vn 0.2567 -0.8538 0.4530
vn 0.6602 0.6258 -0.4153
vn 0.9907 0.1187 -0.0669
vn 0.4890 0.4304 0.7587
vn 0.4390 0.3578 0.8241
vn -0.4374 0.4305 0.7895
vn -0.4754 0.3504 0.8070
# 47 vertex normals

g body_0_0_031
usemtl Material__783
s 1
f 93//145 94//145 95//145 
f 96//146 95//146 94//146 
f 95//147 97//147 93//147 
f 95//148 96//148 98//148 
f 94//149 93//149 99//149 
f 97//150 95//150 98//150 
f 93//151 97//151 100//151 
f 99//152 101//152 94//152 
f 101//153 99//153 102//153 
f 100//154 99//154 93//154 
f 103//155 99//155 104//155 
f 99//156 100//156 104//156 
f 105//157 101//157 102//157 
f 99//158 103//158 102//158 
f 106//159 96//159 107//159 
f 105//160 107//160 101//160 
f 108//161 109//161 106//161 
f 96//162 106//162 109//162 
f 110//163 108//163 106//163 
f 107//164 110//164 106//164 
f 103//165 111//165 102//165 
f 110//166 107//166 105//166 
f 108//167 110//167 112//167 
f 103//168 113//168 111//168 
f 113//169 114//169 111//169 
f 115//170 102//170 111//170 
f 102//171 116//171 105//171 
f 105//172 112//172 110//172 
f 116//173 102//173 115//173 
f 114//174 115//174 111//174 
f 105//175 116//175 117//175 
f 112//176 105//176 117//176 
f 118//177 119//177 120//177 
f 118//178 120//178 121//178 
f 119//179 122//179 123//179 
f 118//180 122//180 119//180 
f 123//181 124//181 119//181 
f 124//182 125//182 126//182 
f 125//183 124//183 123//183 
f 127//184 126//184 128//184 
f 128//185 126//185 125//185 
f 129//186 127//186 121//186 
f 126//187 127//187 129//187 
f 126//188 129//188 130//188 
f 126//189 130//189 124//189 
f 124//190 120//190 119//190 
f 124//191 130//191 120//191 
# 0 polygons - 47 triangles

#
# object body_0_0_030
#

v  0.0408 0.1840 -0.1495
v  -0.0000 0.1151 -0.1223
v  -0.0000 0.1967 -0.2112
v  -0.0426 0.1840 -0.1495
v  -0.0000 0.2556 -0.1550
# 5 vertices

vn 0.6213 -0.5771 -0.5300
vn -0.6047 -0.5866 -0.5387
vn 0.7945 0.4192 -0.4395
vn -0.7815 0.4306 -0.4515
# 4 vertex normals

g body_0_0_030
usemtl Material__793
s 1
f 131//192 132//192 133//192 
f 132//193 134//193 133//193 
f 135//194 131//194 133//194 
f 134//195 135//195 133//195 
# 0 polygons - 4 triangles

#
# object body_3A73D1C_0_009
#

v  0.1042 0.2737 0.0544
v  -0.0000 0.2465 -0.1522
v  -0.0009 0.3362 0.0363
v  -0.1060 0.2737 0.0544
v  -0.0000 0.3090 0.1015
# 5 vertices

vn 0.5217 0.7713 -0.3646
vn -0.5213 0.7696 -0.3688
vn 0.4365 0.8326 0.3409
vn -0.4330 0.8299 0.3518
# 4 vertex normals

vt 0.9065 -0.0273 0.0000
vt 0.1444 0.7305 0.0000
vt 0.9097 1.3945 0.0000
vt 1.1116 0.4141 0.0000
# 4 texture coords

g body_3A73D1C_0_009
usemtl Material__774
s 1
f 136/1/196 137/2/196 138/3/196 
f 138/3/197 137/2/197 139/1/197 
f 138/3/198 140/4/198 136/1/198 
f 140/4/199 138/3/199 139/1/199 
# 0 polygons - 4 triangles

#
# object body_7266ACF0_0_011
#

v  0.0453 0.2664 -0.0163
v  0.0308 0.3643 -0.0616
v  -0.0064 0.3054 -0.0208
v  -0.0045 0.3408 -0.0553
v  0.0906 0.2963 -0.0634
v  0.0643 0.3471 -0.0698
# 6 vertices

vn 0.2540 0.4371 0.8628
vn -0.3255 0.6684 0.6688
vn 0.5388 0.3734 0.7551
vn 0.4164 0.4320 0.7999
# 4 vertex normals

vt 0.6172 -0.0576 0.0000
vt 0.5684 0.5127 0.0000
vt 0.4463 0.1445 0.0000
vt 0.4536 0.3809 0.0000
vt 0.7671 0.1650 0.0000
vt 0.6807 0.4346 0.0000
# 6 texture coords

g body_7266ACF0_0_011
usemtl Material__778
s 1
f 141/5/200 142/6/200 143/7/200 
f 143/7/201 142/6/201 144/8/201 
f 141/5/202 145/9/202 146/10/202 
f 141/5/203 146/10/203 142/6/203 
# 0 polygons - 4 triangles

#
# object body_7266ACF0_0_010
#

v  -0.0789 0.3471 -0.0698
v  -0.0662 0.2664 -0.0163
v  -0.0308 0.3643 -0.0616
v  -0.0915 0.2963 -0.0634
v  -0.0064 0.3054 -0.0208
v  -0.0045 0.3408 -0.0553
# 6 vertices

vn -0.3137 0.4899 0.8134
vn -0.7688 0.2649 0.5821
vn 0.4025 0.6282 0.6659
vn -0.2486 0.4794 0.8416
# 4 vertex normals

vt 0.7271 0.4346 0.0000
vt 0.6870 -0.0576 0.0000
vt 0.5703 0.5127 0.0000
vt 0.7705 0.1650 0.0000
vt 0.4902 0.1445 0.0000
vt 0.4829 0.3809 0.0000
# 6 texture coords

g body_7266ACF0_0_010
usemtl Material__778
s 1
f 147/11/204 148/12/204 149/13/204 
f 150/14/205 148/12/205 147/11/205 
f 149/13/206 151/15/206 152/16/206 
f 149/13/207 148/12/207 151/15/207 
# 0 polygons - 4 triangles

#
# object body_34B9100B_0_006
#

v  -0.1269 0.0888 0.0480
v  -0.0707 0.0870 0.0943
v  -0.1006 0.1377 0.0943
v  -0.0526 0.0290 0.0480
v  -0.0000 0.0553 0.0943
v  -0.1269 0.1930 0.0480
v  -0.0544 0.1377 0.1223
v  0.0526 0.0290 0.0480
v  -0.0707 0.2148 0.0943
v  -0.0381 0.1097 0.1223
v  -0.0000 0.0924 0.1223
v  0.0707 0.0870 0.0943
v  0.1269 0.0888 0.0480
v  -0.0526 0.2755 0.0489
v  -0.0000 0.1377 0.1323
v  0.0381 0.1097 0.1223
v  -0.0381 0.1794 0.1223
v  -0.0000 0.2465 0.0943
v  0.0544 0.1377 0.1223
v  -0.0000 0.1967 0.1223
v  0.1006 0.1377 0.0943
v  0.0381 0.1794 0.1223
v  0.0707 0.2148 0.0943
v  0.1269 0.1930 0.0480
v  0.0526 0.2755 0.0480
# 25 vertices

vn -0.6009 -0.3541 0.7166
vn -0.5060 -0.6287 0.5905
vn -0.2918 -0.6502 0.7015
vn -0.8693 -0.0000 0.4943
vn -0.4967 -0.2927 0.8171
vn 0.0000 -0.8693 0.4943
vn -0.6715 0.2607 0.6936
vn -0.2606 -0.5809 0.7711
vn -0.2632 -0.5818 0.7695
vn -0.5005 -0.2906 0.8155
vn 0.2612 -0.5822 0.7700
vn -0.5092 0.1977 0.8377
vn 0.5060 -0.6287 0.5905
vn -0.6416 0.5725 0.5105
vn -0.0967 -0.2139 0.9721
vn -0.1793 -0.1041 0.9783
vn 0.2621 -0.5794 0.7717
vn -0.5072 0.1985 0.8387
vn 0.0967 -0.2139 0.9721
vn -0.1799 0.0704 0.9812
vn -0.2147 0.4785 0.8514
vn 0.5005 -0.2906 0.8155
vn -0.0753 0.1664 0.9832
vn 0.6009 -0.3541 0.7166
vn 0.4967 -0.2927 0.8171
vn 0.1793 -0.1041 0.9783
vn 0.0753 0.1664 0.9832
vn -0.2168 0.4793 0.8504
vn 0.2160 0.4775 0.8516
vn 0.8693 -0.0000 0.4943
vn 0.6715 0.2607 0.6936
vn 0.2152 0.4795 0.8507
vn 0.1799 0.0704 0.9812
vn 0.2918 -0.6502 0.7015
vn 0.5072 0.1985 0.8387
vn 0.5092 0.1977 0.8377
vn 0.6404 0.5770 0.5069
# 37 vertex normals

vt 0.0946 0.1997 0.0000
vt 0.2735 0.1938 0.0000
vt 0.1796 0.3823 0.0000
vt 0.3330 -0.0210 0.0000
vt 0.5001 0.0767 0.0000
vt 0.0946 0.5864 0.0000
vt 0.3264 0.3823 0.0000
vt 0.6668 -0.0210 0.0000
vt 0.2735 0.6655 0.0000
vt 0.3774 0.2788 0.0000
vt 0.5001 0.2148 0.0000
vt 0.7267 0.1938 0.0000
vt 0.9052 0.1997 0.0000
vt 0.3330 0.8906 0.0000
vt 0.5001 0.3823 0.0000
vt 0.6224 0.2788 0.0000
vt 0.3774 0.5356 0.0000
vt 0.5001 0.7832 0.0000
vt 0.6734 0.3823 0.0000
vt 0.5001 0.5991 0.0000
vt 0.8202 0.3823 0.0000
vt 0.6224 0.5356 0.0000
vt 0.7267 0.6655 0.0000
vt 0.9052 0.5864 0.0000
vt 0.6668 0.8906 0.0000
# 25 texture coords

g body_34B9100B_0_006
usemtl Material__773
s 1
f 153/17/208 154/18/208 155/19/208 
f 154/18/209 153/17/209 156/20/209 
f 156/20/210 157/21/210 154/18/210 
f 155/19/211 158/22/211 153/17/211 
f 154/18/212 159/23/212 155/19/212 
f 157/21/213 156/20/213 160/24/213 
f 158/22/214 155/19/214 161/25/214 
f 157/21/215 162/26/215 154/18/215 
f 157/21/216 163/27/216 162/26/216 
f 154/18/217 162/26/217 159/23/217 
f 164/28/218 163/27/218 157/21/218 
f 159/23/219 161/25/219 155/19/219 
f 164/28/220 160/24/220 165/29/220 
f 161/25/221 166/30/221 158/22/221 
f 167/31/222 162/26/222 163/27/222 
f 167/31/223 159/23/223 162/26/223 
f 164/28/224 168/32/224 163/27/224 
f 159/23/225 169/33/225 161/25/225 
f 167/31/226 163/27/226 168/32/226 
f 167/31/227 169/33/227 159/23/227 
f 169/33/228 170/34/228 161/25/228 
f 164/28/229 171/35/229 168/32/229 
f 167/31/230 172/36/230 169/33/230 
f 165/29/231 173/37/231 164/28/231 
f 164/28/232 173/37/232 171/35/232 
f 167/31/233 168/32/233 171/35/233 
f 167/31/234 174/38/234 172/36/234 
f 169/33/235 172/36/235 170/34/235 
f 172/36/236 174/38/236 175/39/236 
f 173/37/237 165/29/237 176/40/237 
f 176/40/238 175/39/238 173/37/238 
f 172/36/239 175/39/239 170/34/239 
f 167/31/240 171/35/240 174/38/240 
f 160/24/241 164/28/241 157/21/241 
f 171/35/242 175/39/242 174/38/242 
f 171/35/243 173/37/243 175/39/243 
f 175/39/244 176/40/244 177/41/244 
# 0 polygons - 37 triangles

#
# object body_0_0_029
#

v  -0.0000 0.0308 -0.0498
v  -0.0943 0.0562 -0.0498
v  -0.0725 0.0761 -0.0915
v  -0.1314 0.1377 -0.0489
v  -0.0544 0.1377 -0.1205
v  -0.1006 0.1377 -0.0915
v  -0.0390 0.1042 -0.1196
v  -0.0000 0.0498 -0.0915
v  -0.1024 0.0498 0.0000
v  -0.1423 0.1377 0.0009
v  -0.0000 0.1377 -0.1305
v  -0.0000 0.0906 -0.1196
v  -0.0000 0.0217 0.0000
v  -0.1269 0.0888 0.0480
v  0.0390 0.1042 -0.1196
v  -0.0707 0.2148 -0.0915
v  -0.0381 0.1794 -0.1205
v  -0.0526 0.0290 0.0480
v  0.0725 0.0761 -0.0915
v  -0.1006 0.2338 0.0009
v  -0.0825 0.2248 -0.0489
v  0.0544 0.1377 -0.1205
v  -0.0000 0.1967 -0.1205
v  0.0942 0.0562 -0.0498
v  -0.1269 0.1930 0.0480
v  0.0526 0.0290 0.0480
v  0.1006 0.1377 -0.0915
v  0.1024 0.0498 0.0000
v  0.1314 0.1377 -0.0489
v  -0.0526 0.2755 0.0489
v  0.1269 0.0888 0.0480
v  0.1423 0.1377 0.0009
v  0.1006 0.2338 0.0009
v  0.1269 0.1930 0.0480
v  0.0707 0.2148 -0.0915
v  0.0825 0.2248 -0.0489
v  0.0381 0.1794 -0.1205
v  0.0526 0.2755 0.0480
# 38 vertices

vn -0.2232 -0.8289 -0.5129
vn -0.7578 -0.3390 -0.5575
vn -0.5165 -0.2355 -0.8232
vn -0.7600 -0.3465 -0.5498
vn -0.2032 -0.5604 -0.8029
vn -0.4914 -0.2483 -0.8348
vn -0.3132 -0.8639 -0.3944
vn -0.2565 -0.9527 -0.1632
vn -0.8934 -0.4048 -0.1949
vn -0.8935 -0.4033 -0.1975
vn -0.1793 -0.1088 -0.9778
vn -0.1941 -0.5565 -0.8078
vn -0.2606 -0.9499 -0.1727
vn -0.0782 -0.2242 -0.9714
vn -0.9036 -0.4085 -0.1289
vn 0.1941 -0.5565 -0.8078
vn -0.5205 0.2021 -0.8296
vn -0.7729 0.3001 -0.5591
vn -0.1799 0.0704 -0.9812
vn -0.5984 -0.7435 0.2984
vn 0.3132 -0.8639 -0.3944
vn -0.2619 -0.9545 -0.1425
vn -0.5185 0.2029 -0.8306
vn 0.0782 -0.2242 -0.9714
vn -0.8995 0.3904 -0.1963
vn 0.2032 -0.5604 -0.8029
vn -0.8211 0.4619 -0.3352
vn 0.1793 -0.1088 -0.9778
vn -0.0753 0.1664 -0.9832
vn 0.2561 -0.9511 -0.1729
vn 0.2232 -0.8289 -0.5129
vn -0.9505 -0.0000 0.3107
vn 0.0000 -0.9888 0.1493
vn 0.4914 -0.2483 -0.8348
vn -0.9048 0.3926 -0.1648
vn -0.8075 0.4542 -0.3762
vn 0.5165 -0.2355 -0.8232
vn 0.2610 -0.9513 -0.1638
vn 0.7578 -0.3390 -0.5575
vn 0.2619 -0.9545 -0.1425
vn -0.7340 0.6596 0.1615
vn 0.7600 -0.3465 -0.5498
vn 0.5984 -0.7435 0.2984
vn 0.8935 -0.4033 -0.1975
vn 0.8934 -0.4048 -0.1949
vn 0.9048 0.3926 -0.1648
vn 0.9505 -0.0000 0.3107
vn 0.8995 0.3904 -0.1963
vn 0.9036 -0.4085 -0.1289
vn 0.8211 0.4619 -0.3352
vn 0.8075 0.4542 -0.3762
vn 0.5205 0.2021 -0.8296
vn 0.7729 0.3001 -0.5591
vn 0.1799 0.0704 -0.9812
vn 0.5185 0.2029 -0.8306
vn 0.7330 0.6605 0.1628
vn 0.0753 0.1664 -0.9832
# 57 vertex normals

g body_0_0_029
usemtl Material__792
s 1
f 178//245 179//245 180//245 
f 181//246 180//246 179//246 
f 182//247 180//247 183//247 
f 181//248 183//248 180//248 
f 184//249 185//249 180//249 
f 182//250 184//250 180//250 
f 178//251 180//251 185//251 
f 178//252 186//252 179//252 
f 187//253 181//253 179//253 
f 187//254 179//254 186//254 
f 188//255 184//255 182//255 
f 184//256 189//256 185//256 
f 178//257 190//257 186//257 
f 188//258 189//258 184//258 
f 186//259 191//259 187//259 
f 192//260 185//260 189//260 
f 193//261 182//261 183//261 
f 181//262 193//262 183//262 
f 188//263 182//263 194//263 
f 191//264 186//264 195//264 
f 196//265 178//265 185//265 
f 190//266 195//266 186//266 
f 193//267 194//267 182//267 
f 188//268 192//268 189//268 
f 197//269 181//269 187//269 
f 192//270 196//270 185//270 
f 181//271 198//271 193//271 
f 188//272 199//272 192//272 
f 188//273 194//273 200//273 
f 201//274 190//274 178//274 
f 196//275 201//275 178//275 
f 202//276 187//276 191//276 
f 195//277 190//277 203//277 
f 199//278 196//278 192//278 
f 187//279 202//279 197//279 
f 197//280 198//280 181//280 
f 199//281 204//281 196//281 
f 201//282 205//282 190//282 
f 196//283 206//283 201//283 
f 205//284 203//284 190//284 
f 207//285 197//285 202//285 
f 196//286 204//286 206//286 
f 203//287 205//287 208//287 
f 201//288 209//288 205//288 
f 201//289 206//289 209//289 
f 210//290 211//290 209//290 
f 208//291 209//291 211//291 
f 206//292 210//292 209//292 
f 209//293 208//293 205//293 
f 212//294 213//294 206//294 
f 206//295 213//295 210//295 
f 212//296 204//296 199//296 
f 212//297 206//297 204//297 
f 188//298 214//298 199//298 
f 212//299 199//299 214//299 
f 211//300 210//300 215//300 
f 188//301 200//301 214//301 
# 0 polygons - 57 triangles

#
# object body2_118AB4C3_0_032
#

v  0.0788 0.1169 0.1196
v  -0.0000 0.1649 0.1468
v  -0.0789 0.1169 0.1196
v  -0.0698 0.1758 0.1214
v  -0.0000 0.2356 0.1260
v  -0.0616 0.2474 0.0943
v  0.0698 0.1758 0.1214
v  0.0616 0.2474 0.0943
# 8 vertices

vn 0.0000 -0.4926 0.8703
vn -0.3385 0.0231 0.9407
vn -0.3695 0.3664 0.8540
vn -0.2915 0.2706 0.9175
vn 0.2915 0.2706 0.9175
vn 0.3385 0.0231 0.9407
vn 0.3695 0.3664 0.8540
# 7 vertex normals

vt 1.0000 0.0000 0.0000
vt 0.5000 0.3633 0.0000
vt 0.0000 0.0000 0.0000
vt 0.0537 0.4492 0.0000
vt 0.5000 0.9082 0.0000
vt 0.1084 1.0000 0.0000
vt 0.9453 0.4492 0.0000
vt 0.8906 1.0000 0.0000
# 8 texture coords

g body2_118AB4C3_0_032
usemtl Material__777
s 1
f 216/42/302 217/43/302 218/44/302 
f 217/43/303 219/45/303 218/44/303 
f 219/45/304 220/46/304 221/47/304 
f 220/46/305 219/45/305 217/43/305 
f 222/48/306 220/46/306 217/43/306 
f 222/48/307 217/43/307 216/42/307 
f 220/46/308 222/48/308 223/49/308 
# 0 polygons - 7 triangles

#
# object body2_7BEC314D_0_031
#

v  -0.0000 0.1704 0.1097
v  -0.0000 0.0997 0.0000
v  -0.0000 0.0988 0.1088
v  -0.0000 0.1713 0.0009
# 4 vertices

vn -1.0000 0.0000 -0.0000
# 1 vertex normals

vt 0.0000 1.0000 0.0000
vt 1.0000 0.0000 0.0000
vt 0.0000 0.0000 0.0000
vt 1.0000 1.0000 0.0000
# 4 texture coords

g body2_7BEC314D_0_031
usemtl Material__776
s 1
f 224/50/309 225/51/309 226/52/309 
f 224/50/309 227/53/309 225/51/309 
# 0 polygons - 2 triangles

#
# object body2_0_0_044
#

v  -0.0000 0.0947 0.0725
v  0.0417 0.0847 0.0988
v  0.0525 0.1346 0.0943
v  -0.0000 0.0621 0.1060
v  0.0290 0.1817 0.1106
v  -0.0000 0.1373 0.0435
v  -0.0000 0.1862 0.0734
v  -0.0290 0.1817 0.1106
v  -0.0000 0.1944 0.1151
v  -0.0526 0.1346 0.0943
# 10 vertices

vn -0.4921 0.1847 0.8507
vn -0.2591 0.6923 0.6735
vn -0.6095 -0.5138 0.6038
vn -0.6096 0.4461 0.6553
vn 0.7615 -0.3380 0.5531
vn -0.7615 -0.3380 0.5531
vn 0.3709 -0.9114 0.1783
vn 0.6095 -0.5138 0.6038
# 8 vertex normals

g body2_0_0_044
usemtl Material__782
s 1
f 228//310 229//310 230//310 
f 231//311 229//311 228//311 
f 232//312 233//312 230//312 
f 228//313 230//313 233//313 
f 233//314 234//314 235//314 
f 232//315 234//315 233//315 
f 235//316 234//316 236//316 
f 233//317 235//317 237//317 
# 0 polygons - 8 triangles

#
# object body2_0_0_043
#

v  -0.0417 0.0847 0.0988
v  -0.0000 0.0947 0.0725
v  -0.0000 0.1373 0.0435
v  -0.0000 0.0621 0.1060
v  -0.0000 0.1862 0.0734
v  0.0290 0.1817 0.1106
v  -0.0000 0.1944 0.1151
v  -0.0526 0.1346 0.0943
# 8 vertices

vn 0.3605 0.5249 0.7710
vn 0.2591 0.6923 0.6735
vn -0.3709 -0.9114 0.1783
vn 0.6732 0.2113 0.7086
# 4 vertex normals

g body2_0_0_043
usemtl Material__781
s 1
f 238//318 239//318 240//318 
f 238//319 241//319 239//319 
f 242//320 243//320 244//320 
f 238//321 240//321 245//321 
# 0 polygons - 4 triangles

#
# object body2_0_0_042
#

v  -0.0417 0.0847 0.0988
v  -0.0698 0.1522 0.1042
v  -0.0508 0.0888 0.1115
v  -0.0000 0.0589 0.1169
v  0.0507 0.0888 0.1115
v  -0.0000 0.0621 0.1060
v  0.0698 0.1522 0.1042
v  0.0417 0.2247 0.1088
v  0.0290 0.1817 0.1106
v  0.0417 0.0847 0.0988
v  -0.0526 0.1346 0.0943
v  0.0525 0.1346 0.0943
v  -0.0290 0.1817 0.1106
v  -0.0000 0.1944 0.1151
v  -0.0000 0.2420 0.1097
v  -0.0417 0.2247 0.1088
# 16 vertices

vn 0.8190 0.3015 0.4881
vn 0.4997 0.8625 0.0797
vn -0.4722 0.8462 0.2468
vn 0.4276 0.8678 0.2531
vn 0.1516 -0.0031 0.9884
vn -0.4698 0.8812 0.0523
vn 0.6406 0.2070 0.7395
vn -0.1350 -0.3837 0.9135
vn -0.2007 0.1112 0.9733
vn -0.0348 0.0318 0.9989
# 10 vertex normals

g body2_0_0_042
usemtl Material__786
s 1
f 246//322 247//322 248//322 
f 249//323 246//323 248//323 
f 250//324 251//324 249//324 
f 249//325 251//325 246//325 
f 252//326 253//326 254//326 
f 250//327 255//327 251//327 
f 246//328 256//328 247//328 
f 252//329 254//329 257//329 
f 258//330 259//330 260//330 
f 258//331 260//331 261//331 
# 0 polygons - 10 triangles

#
# object body2_0_0_041
#

v  -0.0290 0.1817 0.1106
v  -0.0698 0.1522 0.1042
v  -0.0526 0.1346 0.0943
v  -0.0417 0.2247 0.1088
v  0.0698 0.1522 0.1042
v  0.0525 0.1346 0.0943
v  0.0417 0.0847 0.0988
v  0.0507 0.0888 0.1115
v  -0.0000 0.1944 0.1151
v  0.0290 0.1817 0.1106
v  0.0417 0.2247 0.1088
v  -0.0000 0.2420 0.1097
# 12 vertices

vn 0.1350 -0.3837 0.9135
vn -0.1516 -0.0031 0.9884
vn -0.6406 0.2070 0.7395
vn -0.8190 0.3015 0.4881
vn 0.1529 -0.0035 0.9882
vn 0.0683 0.1133 0.9912
# 6 vertex normals

g body2_0_0_041
usemtl Material__787
s 1
f 262//332 263//332 264//332 
f 262//333 265//333 263//333 
f 266//334 267//334 268//334 
f 266//335 268//335 269//335 
f 270//336 271//336 272//336 
f 270//337 272//337 273//337 
# 0 polygons - 6 triangles

#
# object body2_0_0_040
#

v  -0.1269 0.2148 -0.0870
v  -0.0426 0.1840 -0.1495
v  -0.0589 0.1423 -0.0843
v  -0.0000 0.1151 -0.1223
v  -0.0916 0.1912 -0.0544
v  -0.0435 0.1169 -0.0707
v  -0.0916 0.2864 -0.0879
v  -0.0662 0.2664 -0.0163
v  -0.0000 0.2556 -0.1550
v  -0.0000 0.3272 -0.1087
v  -0.0789 0.3471 -0.0698
v  -0.0916 0.2963 -0.0634
v  0.0897 0.2864 -0.0879
v  0.0580 0.1423 -0.0843
v  0.0408 0.1840 -0.1495
v  0.0906 0.1912 -0.0544
v  0.0426 0.1169 -0.0707
v  0.1259 0.2148 -0.0870
v  -0.0000 0.3471 -0.0924
v  0.0453 0.2664 -0.0163
v  -0.0308 0.3643 -0.0616
v  -0.0046 0.3408 -0.0553
v  0.0308 0.3643 -0.0616
v  0.0643 0.3471 -0.0698
v  0.0906 0.2963 -0.0634
v  -0.1070 0.1840 -0.0779
v  -0.1142 0.2402 0.0825
v  -0.1061 0.3000 0.0544
v  -0.0000 0.2465 -0.1522
v  -0.0635 0.2066 0.0480
v  -0.0635 0.2293 0.0924
v  0.0625 0.2293 0.0924
v  -0.0000 0.2664 0.1314
v  0.0625 0.2066 0.0480
v  0.1133 0.2402 0.0825
v  0.1042 0.3000 0.0544
v  0.1060 0.1840 -0.0779
v  -0.0000 0.3353 0.1015
# 38 vertices

vn -0.6088 -0.5906 -0.5296
vn -0.6127 -0.5876 -0.5286
vn -0.7029 -0.6479 0.2935
vn -0.6054 -0.6289 -0.4878
vn -0.5182 0.2454 -0.8193
vn -0.8434 -0.5355 -0.0438
vn -0.7128 -0.1101 0.6927
vn -0.5177 0.2458 -0.8195
vn -0.3973 0.4977 -0.7710
vn -0.8182 0.4091 0.4039
vn -0.9686 0.2304 -0.0939
vn -0.8733 -0.4513 0.1838
vn 0.4041 0.4961 -0.7685
vn -0.3483 0.3342 -0.8758
vn 0.6197 -0.5769 -0.5321
vn 0.5275 0.2386 -0.8154
vn 0.8434 -0.5355 -0.0438
vn 0.6107 -0.6287 -0.4815
vn 0.7029 -0.6479 0.2935
vn 0.6059 -0.5881 -0.5357
vn -0.2171 0.6181 -0.7555
vn 0.5128 0.2493 -0.8215
vn 0.6684 0.0265 0.7433
vn -0.1746 0.7748 -0.6076
vn 0.6255 0.7528 0.2048
vn 0.3873 0.5838 -0.7136
vn 0.3779 0.4063 -0.8319
vn 0.7352 0.3794 0.5617
vn 0.1954 0.7040 -0.6828
vn -0.5435 0.8359 0.0764
vn 0.8790 0.4293 -0.2074
vn 0.6996 -0.6704 0.2472
vn -0.9920 0.0981 -0.0792
vn -0.6678 0.5620 -0.4881
vn -0.2698 -0.8577 0.4376
vn -0.3828 -0.8772 0.2899
vn 0.0000 -0.7237 0.6901
vn -0.2636 -0.4466 0.8550
vn 0.2698 -0.8577 0.4376
vn 0.2640 -0.4502 0.8530
vn 0.6707 0.5623 -0.4838
vn 0.3828 -0.8772 0.2899
vn 0.4390 0.3578 0.8241
vn 0.9903 0.1108 -0.0836
vn -0.4754 0.3504 0.8070
vn 0.4890 0.4304 0.7587
vn -0.4374 0.4305 0.7895
# 47 vertex normals

g body2_0_0_040
usemtl Material__784
s 1
f 274//338 275//338 276//338 
f 277//339 276//339 275//339 
f 276//340 278//340 274//340 
f 276//341 277//341 279//341 
f 275//342 274//342 280//342 
f 278//343 276//343 279//343 
f 274//344 278//344 281//344 
f 280//345 282//345 275//345 
f 282//346 280//346 283//346 
f 281//347 280//347 274//347 
f 284//348 280//348 285//348 
f 280//349 281//349 285//349 
f 286//350 282//350 283//350 
f 280//351 284//351 283//351 
f 287//352 277//352 288//352 
f 286//353 288//353 282//353 
f 289//354 290//354 287//354 
f 277//355 287//355 290//355 
f 291//356 289//356 287//356 
f 288//357 291//357 287//357 
f 284//358 292//358 283//358 
f 291//359 288//359 286//359 
f 289//360 291//360 293//360 
f 284//361 294//361 292//361 
f 294//362 295//362 292//362 
f 296//363 283//363 292//363 
f 283//364 297//364 286//364 
f 286//365 293//365 291//365 
f 297//366 283//366 296//366 
f 295//367 296//367 292//367 
f 286//368 297//368 298//368 
f 293//369 286//369 298//369 
f 299//370 300//370 301//370 
f 299//371 301//371 302//371 
f 300//372 303//372 304//372 
f 299//373 303//373 300//373 
f 305//374 306//374 304//374 
f 304//375 306//375 300//375 
f 307//376 308//376 305//376 
f 306//377 305//377 308//377 
f 309//378 310//378 302//378 
f 310//379 308//379 307//379 
f 308//380 311//380 306//380 
f 308//381 310//381 309//381 
f 306//382 311//382 301//382 
f 308//383 309//383 311//383 
f 306//384 301//384 300//384 
# 0 polygons - 47 triangles

#
# object body2_0_0_039
#

v  0.0408 0.1840 -0.1495
v  -0.0000 0.1151 -0.1223
v  -0.0000 0.1967 -0.2112
v  -0.0426 0.1840 -0.1495
v  -0.0000 0.2556 -0.1550
# 5 vertices

vn 0.6213 -0.5771 -0.5300
vn -0.6047 -0.5866 -0.5387
vn 0.7945 0.4192 -0.4395
vn -0.7815 0.4306 -0.4515
# 4 vertex normals

g body2_0_0_039
usemtl Material__794
s 1
f 312//385 313//385 314//385 
f 313//386 315//386 314//386 
f 316//387 312//387 314//387 
f 315//388 316//388 314//388 
# 0 polygons - 4 triangles

#
# object body2_3A73D1C_0_010
#

v  0.1042 0.3000 0.0544
v  -0.0000 0.2465 -0.1522
v  -0.0009 0.3616 0.0363
v  -0.1061 0.3000 0.0544
v  -0.0000 0.3353 0.1015
# 5 vertices

vn 0.5085 0.7360 -0.4469
vn -0.5080 0.7341 -0.4506
vn 0.4340 0.8378 0.3314
vn -0.4305 0.8351 0.3424
# 4 vertex normals

vt 0.9128 -0.0273 0.0000
vt 0.1444 0.1855 0.0000
vt 0.9159 1.3945 0.0000
vt 1.1124 0.4141 0.0000
# 4 texture coords

g body2_3A73D1C_0_010
usemtl Material__775
s 1
f 317/54/389 318/55/389 319/56/389 
f 319/56/390 318/55/390 320/54/390 
f 319/56/391 321/57/391 317/54/391 
f 321/57/392 319/56/392 320/54/392 
# 0 polygons - 4 triangles

#
# object body2_7266ACF0_0_013
#

v  -0.0789 0.3471 -0.0698
v  -0.0662 0.2664 -0.0163
v  -0.0308 0.3643 -0.0616
v  -0.0916 0.2963 -0.0634
v  -0.0064 0.3054 -0.0208
v  -0.0046 0.3408 -0.0553
# 6 vertices

vn -0.3137 0.4899 0.8134
vn -0.7688 0.2649 0.5821
vn 0.4025 0.6282 0.6659
vn -0.2486 0.4794 0.8416
# 4 vertex normals

vt 0.7271 0.4346 0.0000
vt 0.6870 -0.0576 0.0000
vt 0.5703 0.5127 0.0000
vt 0.7705 0.1650 0.0000
vt 0.4902 0.1445 0.0000
vt 0.4829 0.3809 0.0000
# 6 texture coords

g body2_7266ACF0_0_013
usemtl Material__778
s 1
f 322/58/393 323/59/393 324/60/393 
f 325/61/394 323/59/394 322/58/394 
f 324/60/395 326/62/395 327/63/395 
f 324/60/396 323/59/396 326/62/396 
# 0 polygons - 4 triangles

#
# object body2_7266ACF0_0_012
#

v  0.0453 0.2664 -0.0163
v  0.0308 0.3643 -0.0616
v  -0.0064 0.3054 -0.0208
v  -0.0046 0.3408 -0.0553
v  0.0906 0.2963 -0.0634
v  0.0643 0.3471 -0.0698
# 6 vertices

vn 0.2540 0.4371 0.8628
vn -0.3255 0.6684 0.6688
vn 0.5388 0.3734 0.7551
vn 0.4164 0.4320 0.7999
# 4 vertex normals

vt 0.6172 -0.0576 0.0000
vt 0.5684 0.5127 0.0000
vt 0.4463 0.1445 0.0000
vt 0.4536 0.3809 0.0000
vt 0.7671 0.1650 0.0000
vt 0.6807 0.4346 0.0000
# 6 texture coords

g body2_7266ACF0_0_012
usemtl Material__778
s 1
f 328/64/397 329/65/397 330/66/397 
f 330/66/398 329/65/398 331/67/398 
f 328/64/399 332/68/399 333/69/399 
f 328/64/400 333/69/400 329/65/400 
# 0 polygons - 4 triangles

#
# object body2_0_0_038
#

v  -0.1251 0.0888 0.0535
v  -0.0508 0.0888 0.1115
v  -0.0698 0.1522 0.1042
v  -0.0517 0.0281 0.0535
v  -0.0000 0.0589 0.1169
v  -0.0490 0.2683 0.0508
v  -0.0417 0.2247 0.1088
v  -0.0000 0.2420 0.1097
v  -0.1196 0.1939 0.0535
v  0.0417 0.2247 0.1088
v  0.1196 0.1939 0.0535
v  0.0489 0.2683 0.0508
v  0.0698 0.1522 0.1042
v  0.1250 0.0888 0.0535
v  0.0979 0.2247 0.0009
v  0.0516 0.0281 0.0535
v  0.1006 0.0498 0.0009
v  0.0507 0.0888 0.1115
v  -0.1423 0.1387 0.0009
v  -0.0979 0.2247 0.0009
v  -0.0000 0.0208 0.0009
v  -0.1006 0.0498 0.0009
v  0.0924 0.0562 -0.0489
v  0.1423 0.1387 0.0009
v  -0.0000 0.0308 -0.0489
v  0.1232 0.1387 -0.0489
v  0.0870 0.2166 -0.0489
v  0.1006 0.1387 -0.0915
v  0.0707 0.2148 -0.0915
v  0.0544 0.1387 -0.1205
v  0.0380 0.1803 -0.1205
v  -0.0000 0.1387 -0.1305
v  0.0344 0.1078 -0.1178
v  -0.0000 0.0906 -0.1205
v  0.0707 0.0761 -0.0915
v  -0.0000 0.0498 -0.0915
v  -0.0345 0.1078 -0.1178
v  -0.0544 0.1387 -0.1205
v  -0.0707 0.2148 -0.0915
v  -0.0381 0.1803 -0.1205
v  -0.0870 0.2166 -0.0489
v  -0.1006 0.1387 -0.0915
v  -0.1233 0.1387 -0.0489
v  -0.0707 0.0761 -0.0915
v  -0.0925 0.0562 -0.0489
# 45 vertices

vn -0.6125 -0.0941 0.7848
vn -0.4347 -0.6187 0.6545
vn -0.3181 0.7389 0.5940
vn -0.6171 0.1914 0.7633
vn 0.6076 0.5971 0.5238
vn 0.0000 0.9132 0.4074
vn 0.6980 0.0361 0.7152
vn 0.7186 0.6874 0.1056
vn 0.6146 -0.7431 0.2648
vn 0.4937 -0.5968 0.6325
vn 0.3181 0.7389 0.5940
vn 0.6171 0.1914 0.7633
vn -0.8844 0.4562 -0.0986
vn -0.7186 0.6874 0.1056
vn -0.2743 -0.9516 -0.1384
vn -0.9002 -0.4225 -0.1058
vn 0.2732 -0.9476 -0.1653
vn -0.6076 0.5971 0.5238
vn 0.9347 0.0483 0.3521
vn 0.2599 -0.9469 -0.1894
vn 0.8761 0.4075 -0.2578
vn 0.8416 0.4341 -0.3213
vn 0.8723 0.3427 -0.3487
vn 0.8167 0.3799 -0.4344
vn 0.5213 0.2040 -0.8287
vn 0.5203 0.2044 -0.8292
vn 0.1799 0.0704 -0.9812
vn 0.1761 -0.2000 -0.9638
vn 0.1767 -0.1994 -0.9639
vn 0.1837 -0.4941 -0.8498
vn 0.3338 -0.5463 -0.7682
vn 0.2283 -0.8318 -0.5059
vn 0.3214 -0.8646 -0.3863
vn 0.8820 -0.3296 -0.3368
vn 0.7882 -0.2945 -0.5403
vn 0.8133 -0.3890 -0.4326
vn 0.8873 -0.4165 -0.1982
vn -0.1767 -0.1994 -0.9639
vn -0.1761 -0.2000 -0.9638
vn -0.5213 0.2040 -0.8287
vn -0.1799 0.0704 -0.9812
vn -0.8723 0.3427 -0.3487
vn -0.5203 0.2044 -0.8292
vn -0.8761 0.4075 -0.2578
vn -0.8167 0.3799 -0.4344
vn -0.5151 -0.2464 -0.8210
vn -0.8416 0.4341 -0.3213
vn -0.7882 -0.2945 -0.5403
vn -0.3631 -0.3124 -0.8778
vn -0.8873 -0.4165 -0.1982
vn -0.8133 -0.3890 -0.4326
vn -0.1837 -0.4941 -0.8498
vn -0.8820 -0.3296 -0.3368
vn -0.3214 -0.8646 -0.3863
vn -0.3338 -0.5463 -0.7682
vn -0.2283 -0.8318 -0.5059
vn -0.2732 -0.9476 -0.1653
vn -0.2599 -0.9469 -0.1894
vn 0.4347 -0.6187 0.6545
vn 0.6125 -0.0941 0.7848
vn -0.6146 -0.7431 0.2648
vn 0.0000 -0.9906 0.1366
vn -0.9347 0.0483 0.3521
vn -0.6980 0.0361 0.7152
vn 0.0000 -0.8995 0.4369
vn -0.4937 -0.5968 0.6325
vn 0.9002 -0.4225 -0.1058
vn 0.2743 -0.9516 -0.1384
vn 0.3631 -0.3124 -0.8778
vn 0.8844 0.4562 -0.0986
vn 0.5151 -0.2464 -0.8210
# 71 vertex normals

g body2_0_0_038
usemtl Material__785
s 1
f 334//401 335//401 336//401 
f 337//402 338//402 335//402 
f 339//403 340//403 341//403 
f 342//404 336//404 340//404 
f 343//405 344//405 345//405 
f 341//406 345//406 339//406 
f 346//407 347//407 344//407 
f 344//408 348//408 345//408 
f 349//409 350//409 347//409 
f 351//410 349//410 347//410 
f 345//411 341//411 343//411 
f 344//412 343//412 346//412 
f 352//413 342//413 353//413 
f 339//414 353//414 342//414 
f 354//415 337//415 355//415 
f 355//416 334//416 352//416 
f 356//417 350//417 354//417 
f 340//418 339//418 342//418 
f 347//419 357//419 344//419 
f 356//420 354//420 358//420 
f 359//421 360//421 348//421 
f 359//422 348//422 357//422 
f 361//423 362//423 360//423 
f 361//424 360//424 359//424 
f 362//425 363//425 364//425 
f 362//426 361//426 363//426 
f 365//427 364//427 363//427 
f 365//428 366//428 367//428 
f 365//429 363//429 366//429 
f 366//430 368//430 369//430 
f 366//431 369//431 367//431 
f 368//432 356//432 358//432 
f 368//433 358//433 369//433 
f 356//434 359//434 357//434 
f 368//435 359//435 356//435 
f 368//436 361//436 359//436 
f 356//437 357//437 350//437 
f 365//438 370//438 371//438 
f 365//439 367//439 370//439 
f 372//440 373//440 371//440 
f 365//441 371//441 373//441 
f 374//442 372//442 375//442 
f 372//443 371//443 375//443 
f 353//444 374//444 376//444 
f 374//445 375//445 376//445 
f 371//446 377//446 375//446 
f 353//447 376//447 352//447 
f 376//448 377//448 378//448 
f 371//449 370//449 377//449 
f 352//450 378//450 355//450 
f 376//451 375//451 377//451 
f 370//452 369//452 377//452 
f 352//453 376//453 378//453 
f 358//454 377//454 369//454 
f 370//455 367//455 369//455 
f 358//456 378//456 377//456 
f 354//457 355//457 378//457 
f 354//458 378//458 358//458 
f 349//459 351//459 338//459 
f 347//460 346//460 351//460 
f 334//461 355//461 337//461 
f 337//462 354//462 349//462 
f 342//463 352//463 334//463 
f 336//464 342//464 334//464 
f 338//465 337//465 349//465 
f 335//466 334//466 337//466 
f 357//467 347//467 350//467 
f 350//468 349//468 354//468 
f 363//469 368//469 366//469 
f 348//470 344//470 357//470 
f 363//471 361//471 368//471 
# 0 polygons - 71 triangles

