# Wavefront OBJ exported by MilkShape 3D

mtllib metalmariostage.mtl

v 57.522705 33.268391 6.875584
v 24.882706 28.708389 -1.724416
v 22.602703 33.028393 5.395584
v 58.162701 34.828392 -14.084415
v 25.202702 29.228394 -10.404417
v 24.882706 28.708389 -1.724416
v 53.722702 41.028393 15.195584
v 22.602703 33.028393 5.395584
v 20.202703 41.988392 4.115584
v 24.882706 28.708389 -1.724416
v 57.522705 33.268391 6.875584
v 58.162701 34.828392 -14.084415
v 22.602703 33.028393 5.395584
v 53.722702 41.028393 15.195584
v 57.522705 33.268391 6.875584
v 49.242706 51.988392 13.235585
v 20.202703 41.988392 4.115584
v 17.922703 45.588394 -4.844415
v 57.522705 33.268391 6.875584
v 74.202705 53.068390 -5.604416
v 58.162701 34.828392 -14.084415
v 17.922703 45.588394 -4.844415
v 47.842705 58.788391 -5.964415
v 49.242706 51.988392 13.235585
v 74.202705 53.068390 -5.604416
v 49.242706 51.988392 13.235585
v 47.842705 58.788391 -5.964415
v 74.202705 53.068390 -5.604416
v 57.522705 33.268391 6.875584
v 53.722702 41.028393 15.195584
v 20.202703 41.988392 4.115584
v 49.242706 51.988392 13.235585
v 53.722702 41.028393 15.195584
v 53.722702 41.028393 15.195584
v 49.242706 51.988392 13.235585
v 74.202705 53.068390 -5.604416
v -35.117298 49.028389 35.355587
v -54.517300 42.188393 51.355587
v -55.557297 50.228394 32.235584
v -55.557297 50.228394 32.235584
v -54.517300 42.188393 51.355587
v -73.957298 46.068390 17.195583
v -15.157297 40.428391 49.355583
v -54.517300 42.188393 51.355587
v -35.117298 49.028389 35.355587
v -73.957298 46.068390 17.195583
v -54.517300 42.188393 51.355587
v -66.517296 21.468391 35.955582
v -66.517296 21.468391 35.955582
v -73.957298 17.268391 17.195583
v -73.957298 46.068390 17.195583
v -54.517300 42.188393 51.355587
v -42.397297 13.508389 50.995579
v -56.117298 20.228386 46.195580
v -54.517300 42.188393 51.355587
v -56.117298 20.228386 46.195580
v -66.517296 21.468391 35.955582
v -54.517300 42.188393 51.355587
v -15.157297 40.428391 49.355583
v -31.317299 19.628387 53.195580
v -31.317299 19.628387 53.195580
v -31.597298 1.868394 41.075577
v -42.397297 13.508389 50.995579
v -42.397297 13.508389 50.995579
v -54.517300 42.188393 51.355587
v -31.317299 19.628387 53.195580
v -15.157297 40.428391 49.355583
v -15.397298 16.588390 56.555580
v -31.317299 19.628387 53.195580
v 16.922703 14.108391 41.755581
v 41.162704 42.348392 17.515583
v 41.162704 14.188389 17.515583
v 16.922703 14.108391 41.755581
v 41.162704 14.188389 17.515583
v 24.522703 3.708390 30.435581
v 16.922703 14.108391 41.755581
v 13.602702 38.588390 37.115585
v 41.162704 42.348392 17.515583
v 16.922703 14.108391 41.755581
v 9.162702 12.908390 48.555580
v 13.602702 38.588390 37.115585
v -15.157297 40.428391 49.355583
v 13.602702 38.588390 37.115585
v 0.962702 19.628387 52.075581
v 13.602702 38.588390 37.115585
v 9.162702 12.908390 48.555580
v 0.962702 19.628387 52.075581
v 0.962702 19.628387 52.075581
v -15.397298 16.588390 56.555580
v -15.157297 40.428391 49.355583
v -34.837299 58.028389 23.155586
v -30.117298 47.428391 21.835585
v -31.877296 48.068390 27.235584
v -34.837299 58.028389 23.155586
v -36.797295 48.468391 26.915585
v -38.917297 48.228394 22.435585
v -34.837299 58.028389 23.155586
v -31.877296 48.068390 27.235584
v -36.797295 48.468391 26.915585
v -55.557297 50.228394 32.235584
v -45.757294 49.668392 17.195585
v -35.117298 49.028389 35.355587
v -75.157295 44.868393 17.195583
v -45.757294 49.668392 17.195585
v -55.557297 50.228394 32.235584
v -15.157297 40.428391 49.355583
v -35.117298 49.028389 35.355587
v -16.957296 44.868393 17.195583
v -35.117298 49.028389 35.355587
v -45.757294 49.668392 17.195585
v -16.957296 44.868393 17.195583
v -16.957296 44.868393 17.195583
v 11.842703 44.868393 17.195583
v 13.602702 38.588390 37.115585
v -16.957296 44.868393 17.195583
v 13.602702 38.588390 37.115585
v -15.157297 40.428391 49.355583
v 11.842703 44.868393 17.195583
v 41.242702 42.468391 17.195583
v 13.602702 38.588390 37.115585
v 41.242702 13.668396 -18.804417
v 41.242702 42.468391 -18.804417
v 23.562702 49.628395 -59.564415
v -73.957298 17.268391 -18.804417
v -58.437298 48.388397 -59.564415
v -73.957298 46.068390 -18.804417
v -11.477297 54.508392 -47.964417
v -45.757294 50.868393 -18.804415
v -73.957298 46.068390 -18.804417
v -73.957298 46.068390 -18.804417
v -58.437298 48.388397 -59.564415
v -11.477297 54.508392 -47.964417
v 11.842703 44.868393 -18.804417
v -16.957296 44.868393 -18.804417
v -11.477297 54.508392 -47.964417
v -58.437298 48.388397 -59.564415
v 23.562702 49.628395 -59.564415
v -11.477297 54.508392 -47.964417
v -11.477297 54.508392 -47.964417
v 23.562702 49.628395 -59.564415
v 41.242702 42.468391 -18.804417
v 41.242702 42.468391 -18.804417
v 11.842703 44.868393 -18.804417
v -11.477297 54.508392 -47.964417
v -16.957296 44.868393 -18.804417
v -45.757294 50.868393 -18.804415
v -11.477297 54.508392 -47.964417
v -39.637295 90.028397 -10.604414
v 9.322702 83.228394 -10.604414
v 9.322702 90.028397 -10.604414
v -39.637295 90.028397 -10.604414
v -39.637295 83.228394 -10.604414
v 9.322702 83.228394 -10.604414
v -39.637295 83.228394 11.395587
v 9.322702 90.028397 11.395587
v 9.322702 83.228394 11.395587
v -39.637295 83.228394 11.395587
v -39.637295 90.028397 11.395587
v 9.322702 90.028397 11.395587
v -39.637295 90.028397 11.395587
v 9.322702 90.028397 -10.604414
v 9.322702 90.028397 11.395587
v -39.637295 90.028397 11.395587
v -39.637295 90.028397 -10.604414
v 9.322702 90.028397 -10.604414
v -39.637295 83.228394 11.395587
v -39.637295 90.028397 -10.604414
v -39.637295 90.028397 11.395587
v -39.637295 83.228394 11.395587
v -39.637295 83.228394 -10.604414
v -39.637295 90.028397 -10.604414
v 9.322702 83.228394 -10.604414
v 9.322702 83.228394 11.395587
v 9.322702 90.028397 11.395587
v 9.322702 83.228394 -10.604414
v 9.322702 90.028397 11.395587
v 9.322702 90.028397 -10.604414
v -75.157295 17.268391 17.195583
v -75.157295 48.468391 -15.804416
v -75.157295 48.468391 17.195585
v -75.157295 17.268391 17.195583
v -75.157295 17.268391 -15.804417
v -75.157295 48.468391 -15.804416
v 11.842703 48.468391 -15.804416
v 38.842705 60.468391 -15.804415
v 38.842705 60.468391 17.195585
v 11.842703 48.468391 -15.804416
v 38.842705 60.468391 17.195585
v 11.842703 48.468391 17.195585
v 38.842705 60.468391 17.195585
v 75.442711 59.268394 -15.804415
v 75.442711 59.268387 17.195585
v 38.842705 60.468391 17.195585
v 38.842705 60.468391 -15.804415
v 75.442711 59.268394 -15.804415
v -75.157295 48.468391 -15.804416
v -45.757294 53.268394 -15.804416
v -45.757294 53.268394 17.195585
v -75.157295 48.468391 -15.804416
v -45.757294 53.268394 17.195585
v -75.157295 48.468391 17.195585
v -45.757294 53.268394 -15.804416
v -16.957296 48.468391 17.195585
v -45.757294 53.268394 17.195585
v -45.757294 53.268394 -15.804416
v -16.957296 48.468391 -15.804416
v -16.957296 48.468391 17.195585
v -16.957296 48.468391 -15.804416
v 11.842703 48.468391 -15.804416
v 11.842703 48.468391 17.195585
v -16.957296 48.468391 -15.804416
v 11.842703 48.468391 17.195585
v -16.957296 48.468391 17.195585
v -75.157295 44.868393 17.195583
v -45.757294 53.268394 17.195585
v -45.757294 49.668392 17.195585
v -75.157295 44.868393 17.195583
v -75.157295 48.468391 17.195585
v -45.757294 53.268394 17.195585
v -45.757294 49.668392 17.195585
v -16.957296 48.468391 17.195585
v -16.957296 44.868393 17.195583
v -45.757294 49.668392 17.195585
v -45.757294 53.268394 17.195585
v -16.957296 48.468391 17.195585
v -16.957296 44.868393 17.195583
v 11.842703 48.468391 17.195585
v 11.842703 44.868393 17.195583
v -16.957296 44.868393 17.195583
v -16.957296 48.468391 17.195585
v 11.842703 48.468391 17.195585
v 11.842703 44.868393 17.195583
v 38.842705 60.468391 17.195585
v 38.842705 57.468391 17.195585
v 11.842703 44.868393 17.195583
v 11.842703 48.468391 17.195585
v 38.842705 60.468391 17.195585
v 75.442711 55.668388 17.195585
v 38.842705 60.468391 17.195585
v 75.442711 59.268387 17.195585
v 75.442711 55.668388 17.195585
v 38.842705 57.468391 17.195585
v 38.842705 60.468391 17.195585
v 75.442711 55.668392 -15.804416
v 75.442711 55.668388 17.195585
v 75.442711 59.268387 17.195585
v 75.442711 55.668392 -15.804416
v 75.442711 59.268387 17.195585
v 75.442711 59.268394 -15.804415
v -33.637299 58.428391 -19.124414
v -33.637299 47.268394 -19.124416
v -69.637299 47.268394 -19.124416
v -69.637299 58.428391 -19.124414
v -33.637299 58.428391 -19.124414
v -69.637299 47.268394 -19.124416
v 0.442702 66.468391 -19.404415
v 35.242702 66.468391 -19.404415
v 35.242702 44.268394 -19.404417
v 35.242702 44.268394 -19.404417
v 0.442702 43.668392 -19.404417
v 0.442702 66.468391 -19.404415
v 13.202703 0.148393 41.355583
v -44.917297 26.348389 41.355583
v 13.202703 26.348389 41.355583
v 13.202703 0.148393 41.355583
v -44.917297 0.148393 41.355583
v -44.917297 26.348389 41.355583
v -73.957298 17.268391 17.195583
v -73.957298 46.068390 -18.804417
v -73.957298 44.868393 17.195583
v -73.957298 17.268391 17.195583
v -73.957298 17.268391 -18.804417
v -73.957298 46.068390 -18.804417
v -73.957298 46.068390 -18.804417
v -45.757294 49.668392 17.195585
v -73.957298 44.868393 17.195583
v -73.957298 46.068390 -18.804417
v -45.757294 50.868393 -18.804415
v -45.757294 49.668392 17.195585
v -45.757294 50.868393 -18.804415
v -16.957296 44.868393 17.195583
v -45.757294 49.668392 17.195585
v -45.757294 50.868393 -18.804415
v -16.957296 44.868393 -18.804417
v -16.957296 44.868393 17.195583
v -16.957296 44.868393 -18.804417
v 11.842703 44.868393 -18.804417
v 10.642702 44.868393 17.195583
v -16.957296 44.868393 -18.804417
v 10.642702 44.868393 17.195583
v -16.957296 44.868393 17.195583
v 11.842703 44.868393 -18.804417
v 41.242702 42.468391 -18.804417
v 40.042702 42.468391 17.195583
v 11.842703 44.868393 -18.804417
v 40.042702 42.468391 17.195583
v 10.642702 44.868393 17.195583
v 41.242702 13.668396 -18.804417
v 40.042702 13.668396 17.195583
v 40.042702 42.468391 17.195583
v 41.242702 13.668396 -18.804417
v 40.042702 42.468391 17.195583
v 41.242702 42.468391 -18.804417
v -37.357300 85.068390 9.995585
v -37.357300 88.068390 -9.204413
v -37.357300 88.068390 9.995585
v -37.357300 85.068390 9.995585
v -37.357300 85.068390 -9.204413
v -37.357300 88.068390 -9.204413
v -37.357300 88.068390 -9.204413
v 7.042702 85.068390 -9.204413
v 7.042702 88.068390 -9.204413
v -37.357300 88.068390 -9.204413
v -37.357300 85.068390 -9.204413
v 7.042702 85.068390 -9.204413
v 7.042702 85.068390 -9.204413
v 7.042702 85.068390 9.995585
v 7.042702 88.068390 9.995585
v 7.042702 85.068390 -9.204413
v 7.042702 88.068390 9.995585
v 7.042702 88.068390 -9.204413
v -37.357300 88.068390 -9.204413
v 7.042702 88.068390 -9.204413
v 7.042702 88.068390 9.995585
v -37.357300 88.068390 -9.204413
v 7.042702 88.068390 9.995585
v -37.357300 88.068390 9.995585
v -37.357300 85.068390 9.995585
v 7.042702 88.068390 9.995585
v 7.042702 85.068390 9.995585
v -37.357300 85.068390 9.995585
v -37.357300 88.068390 9.995585
v 7.042702 88.068390 9.995585
v 24.042706 17.508392 34.675583
v 42.122704 30.028385 49.635582
v 29.922703 24.668392 28.755583
v 16.442703 19.228394 40.675579
v 42.122704 30.028385 49.635582
v 24.042706 17.508392 34.675583
v 42.122704 30.028385 49.635582
v 14.682702 30.668392 38.635586
v 23.442699 33.988392 32.115585
v 42.122704 30.028385 49.635582
v 16.442703 19.228394 40.675579
v 14.682702 30.668392 38.635586
v 42.122704 30.028385 49.635582
v 23.442699 33.988392 32.115585
v 29.922703 24.668392 28.755583
v -25.277298 52.148392 -41.644417
v -19.277298 70.948395 -41.644417
v -14.517298 73.028397 -27.284412
v -14.517298 73.028397 -27.284412
v -23.157299 49.788391 -29.284414
v -25.277298 52.148392 -41.644417
v 5.002702 67.308395 -35.684414
v -4.517298 51.428394 -35.684414
v -10.877297 49.068394 -28.804415
v -10.877297 49.068394 -28.804415
v -23.157299 49.788391 -29.284414
v -1.037298 70.108391 -26.324413
v -0.437298 83.508392 -35.684414
v -14.517298 73.028397 -27.284412
v -19.277298 70.948395 -41.644417
v -23.157299 49.788391 -29.284414
v -14.517298 73.028397 -27.284412
v -1.037298 70.108391 -26.324413
v -0.437298 83.508392 -35.684414
v -1.037298 70.108391 -26.324413
v -14.517298 73.028397 -27.284412
v -10.877297 49.068394 -28.804415
v -1.037298 70.108391 -26.324413
v 5.002702 67.308395 -35.684414
v 5.002702 67.308395 -35.684414
v -1.037298 70.108391 -26.324413
v -0.437298 83.508392 -35.684414
v 26.162704 90.148392 -34.044415
v 12.762703 50.668396 -37.124416
v 6.082703 51.468395 -39.484413
v 16.482702 93.628395 -40.604416
v 6.082703 51.468395 -39.484413
v 3.202702 52.428394 -47.804417
v 3.202702 52.428394 -47.804417
v 13.122704 95.148392 -55.284416
v 16.482702 93.628395 -40.604416
v 41.482704 85.388397 -53.764416
v 25.122704 48.588394 -47.324413
v 21.082705 49.468395 -39.844418
v 21.082705 49.468395 -39.844418
v 36.522705 86.748398 -39.524414
v 41.482704 85.388397 -53.764416
v 6.082703 51.468395 -39.484413
v 16.482702 93.628395 -40.604416
v 26.162704 90.148392 -34.044415
v 36.162704 114.108398 -52.004410
v 16.482702 93.628395 -40.604416
v 13.122704 95.148392 -55.284416
v 12.762703 50.668396 -37.124416
v 26.162704 90.148392 -34.044415
v 36.522705 86.748398 -39.524414
v 36.162704 114.108398 -52.004410
v 41.482704 85.388397 -53.764416
v 36.522705 86.748398 -39.524414
v 36.162704 114.108398 -52.004410
v 26.162704 90.148392 -34.044415
v 16.482702 93.628395 -40.604416
v 36.522705 86.748398 -39.524414
v 21.082705 49.468395 -39.844418
v 12.762703 50.668396 -37.124416
v 36.162704 114.108398 -52.004410
v 36.522705 86.748398 -39.524414
v 26.162704 90.148392 -34.044415
v -96.877296 93.788391 -55.724415
v -92.077293 97.548393 -41.804417
v -60.437294 56.028393 -43.844414
v -41.877296 45.828392 -57.164417
v -64.517296 52.908394 -51.004414
v -60.437294 56.028393 -43.844414
v -60.437294 56.028393 -43.844414
v -64.517296 52.908394 -51.004414
v -96.877296 93.788391 -55.724415
v -41.877296 45.828392 -57.164417
v -60.437294 56.028393 -43.844414
v -51.037300 61.828392 -41.564419
v -41.877296 45.828392 -57.164417
v -42.837296 65.228394 -47.444416
v -38.757298 65.908394 -58.204418
v -92.077293 97.548393 -41.804417
v -96.877296 93.788391 -55.724415
v -99.117302 132.788391 -57.164413
v -60.437294 56.028393 -43.844414
v -92.077293 97.548393 -41.804417
v -81.637299 105.788391 -36.044415
v -41.877296 45.828392 -57.164417
v -51.037300 61.828392 -41.564419
v -42.837296 65.228394 -47.444416
v -81.637299 105.788391 -36.044415
v -92.077293 97.548393 -41.804417
v -99.117302 132.788391 -57.164413
v -81.637299 105.788391 -36.044415
v -51.037300 61.828392 -41.564419
v -60.437294 56.028393 -43.844414
v -68.837296 112.868393 -41.804417
v -42.837296 65.228394 -47.444416
v -51.037300 61.828392 -41.564419
v -63.997292 115.428391 -55.724411
v -38.757298 65.908394 -58.204418
v -42.837296 65.228394 -47.444416
v -42.837296 65.228394 -47.444416
v -68.837296 112.868393 -41.804417
v -63.997292 115.428391 -55.724411
v -51.037300 61.828392 -41.564419
v -81.637299 105.788391 -36.044415
v -68.837296 112.868393 -41.804417
v -68.837296 112.868393 -41.804417
v -81.637299 105.788391 -36.044415
v -99.117302 132.788391 -57.164413
v -63.997292 115.428391 -55.724411
v -68.837296 112.868393 -41.804417
v -99.117302 132.788391 -57.164413
# 459 vertices

vt 1.952603 -5.800025
vt 2.111164 -7.860791
vt 1.588810 7.476845
vt 2.097682 -7.782668
vt 1.960870 -2.800210
vt 1.284838 16.475210
vt 4.093972 1.626578
vt 1.358699 18.465258
vt 2.222890 20.318167
vt 4.495628 5.803560
vt 1.575276 7.434715
vt 3.362472 9.451154
vt 2.120417 14.725279
vt 2.066555 14.953174
vt 1.105446 13.949443
vt 2.204298 14.569221
vt 0.287516 7.908720
vt 0.376832 8.343208
vt 0.212529 7.545573
vt 1.354742 5.578733
vt 0.708896 6.331780
vt 2.281013 8.003345
vt 2.090027 8.638481
vt 2.423697 2.700807
vt 1.873098 6.367451
vt 1.881993 9.219119
vt 3.517237 6.358038
vt 3.534285 7.286465
vt 3.483141 5.375114
vt 3.295490 9.013023
vt 3.222480 8.976856
vt 3.189743 9.358829
vt 3.309820 9.146789
vt 2.735379 9.804713
vt 2.918211 9.594652
vt 2.570952 9.186917
vt 3.832006 10.658331
vt 0.357808 10.146557
vt 2.113252 9.938478
vt 1.893605 16.000504
vt 2.363536 15.797379
vt 2.020477 15.996045
vt 1.661728 15.944521
vt 2.459646 15.565520
vt 2.318445 15.685908
vt 2.166249 15.429278
vt 2.113005 15.305917
vt 2.191450 15.245972
vt 3.767644 8.478954
vt 0.071822 8.319922
vt 1.696442 15.889528
vt 1.658269 15.868225
vt 1.748945 15.857326
vt 2.127335 15.314836
vt 2.263101 15.352983
vt 2.245311 15.142923
vt 1.910900 15.695321
vt 2.265201 15.562549
vt 2.345746 15.712167
vt 2.434939 14.953175
vt 3.988281 0.003906
vt 0.003906 0.003906
vt 0.003906 0.487793
vt 3.988281 0.488281
vt 0.003906 1.988281
vt 3.988281 1.988281
vt 1.987793 0.003906
vt 1.988281 0.488281
vt 1.003418 0.008301
vt 1.003418 0.981934
vt -0.011230 0.981934
vt -0.011230 0.008301
vt -0.011230 1.955078
vt 1.003418 1.127930
vt -0.011230 1.127930
vt 1.003418 1.955078
vt 1.003418 0.006348
vt -0.011230 0.006348
vt -0.011230 2.984375
vt 1.003418 1.961914
vt -0.011230 1.961914
vt 1.003418 2.984375
vt 1.003418 0.960938
vt -0.011230 0.960938
vt 1.003418 -0.040039
vt -0.011230 -0.040039
vt -0.051758 -0.026855
vt 1.937500 -0.034912
vt 1.976563 0.447144
vt -0.012695 0.455200
vt 0.014648 -0.064453
vt 1.997070 0.009399
vt 1.952148 0.448486
vt -0.030273 0.371948
vt -0.001953 0.040283
vt 1.973633 0.040283
vt 1.973633 0.476685
vt -0.001953 0.476685
vt -0.088867 0.005371
vt 1.958984 0.016113
vt 2.044922 0.406860
vt 0.014648 0.473999
vt 1.974609 -0.016113
vt 1.965820 0.429688
vt -0.008789 0.359863
vt -0.000977 -0.010742
vt 0.000000 0.028198
vt 1.967773 0.469971
vt 1.967773 0.028198
vt 0.000000 0.469971
vt 2.988281 0.988281
vt 2.988281 0.003906
vt 0.003906 0.988281
vt 2.988281 0.055664
vt 2.988281 1.988281
vt 5.988281 0.003906
vt 5.988281 2.988281
vt 0.003906 2.988281
vt 0.000000 0.500000
vt 0.000000 0.000000
vt 0.228516 0.500000
vt 0.228516 0.000000
vt 0.462891 0.500000
vt 0.462891 0.000000
vt 0.687500 0.500000
vt 0.697266 0.000000
vt 0.927734 0.500000
vt 0.937500 0.000000
vt 0.937500 0.500000
vt 3.298208 2.580418
vt 2.459399 0.693838
vt 1.837396 15.067617
vt 1.438623 7.857195
vt 3.119698 13.392089
vt 0.209194 9.973653
vt 0.202400 10.265459
vt 3.548738 3.994363
vt 2.094104 6.178694
vt 0.881229 14.388885
vt 2.015659 6.488335
vt 2.266807 11.622429
vt 3.512542 4.237617
vt 3.757514 9.811648
vt 1.504097 7.280520
vt 0.238472 9.390537
vt 0.173739 9.748234
vt 3.745902 5.291387
vt 3.798528 4.829650
vt 1.109894 8.252049
vt 0.767205 13.591746
vt 2.955025 5.441997
vt 3.935653 8.916910
vt 1.622938 12.327915
vt 2.744891 6.000340
vt 3.184308 10.016755
vt 0.547819 3.030760
vt 1.703991 0.565028
vt 0.673208 3.651528
vt 2.428900 2.272264
vt 3.833008 6.689477
vt 0.081966 7.266153
vt 1.484715 4.873743
vt 3.297974 4.793484
vt 0.847023 8.822285
vt 1.855076 5.387995
vt 3.085740 8.575562
vt 3.644739 10.928338
vt 3.631768 10.910997
vt 2.756887 8.026631
vt 2.057798 12.089616
vt 2.773688 14.572192
# 171 texture coordinates

vn -0.015933 -0.857086 0.514928
vn 0.161503 -0.985444 -0.053082
vn -0.312083 0.051926 0.948635
vn 0.155739 -0.985414 -0.068587
vn -0.023593 -0.736437 0.676094
vn -0.411502 0.804656 0.428012
vn 0.756554 -0.653433 -0.025533
vn -0.369964 0.866927 0.334013
vn 0.197197 0.928554 0.314484
vn 0.759362 -0.265197 0.594172
vn -0.312487 0.041979 0.948994
vn 0.552050 0.360141 0.752023
vn -0.005091 0.921706 0.387856
vn -0.477320 0.800450 0.362554
vn 0.062861 0.887869 0.455783
vn -0.856395 0.123340 0.501372
vn -0.929566 0.000000 0.368655
vn -0.402748 -0.181460 0.897143
vn -0.703910 -0.113469 0.701168
vn 0.056442 0.138683 0.988727
vn 0.146832 -0.559152 0.815959
vn -0.153061 -0.077050 0.985208
vn -0.144943 0.287399 0.946780
vn 0.707107 0.000000 0.707107
vn 0.686046 -0.244515 0.685239
vn 0.543697 0.226893 0.808031
vn 0.621895 0.226432 0.749650
vn 0.380056 0.403391 0.832366
vn 0.551805 0.257904 0.793093
vn 0.204522 0.281117 0.937627
vn 0.896010 0.368044 0.248413
vn -0.860130 0.329488 0.389376
vn -0.030183 0.371200 0.928062
vn 0.058467 0.998289 0.000926
vn -0.159537 0.977166 -0.140338
vn 0.326352 0.938670 0.111327
vn 0.164088 0.984530 -0.061443
vn 0.000000 0.953727 0.300673
vn 0.118027 0.984553 0.129321
vn 0.077779 0.952788 0.293505
vn 0.917413 0.000000 -0.397936
vn -0.934546 0.000000 -0.355843
vn -0.167339 0.983118 -0.074000
vn -0.130834 0.991382 0.006611
vn 0.000000 0.949462 0.313882
vn -0.013704 0.906202 -0.422624
vn 0.169284 0.980600 0.098826
vn 0.078659 0.963567 0.255640
vn 0.191777 0.920531 0.340359
vn 0.000000 0.000000 -1.000000
vn 0.000000 0.000000 1.000000
vn 0.000000 1.000000 0.000000
vn -1.000000 0.000000 0.000000
vn 1.000000 0.000000 0.000000
vn -0.406138 0.913812 0.000000
vn 0.032769 0.999463 0.000000
vn -0.161132 0.986933 0.000000
vn 0.164399 0.986394 0.000000
vn -0.167709 0.985289 0.032843
vn 0.164310 0.985861 0.032862
vn 0.203954 0.978980 0.000000
vn 0.081362 0.996681 0.002712
vn 0.999445 0.000000 0.033315
vn 0.666281 -0.716891 -0.205273
vn 0.189760 -0.853637 0.485072
vn -0.110193 0.937724 0.329441
vn -0.367735 0.108127 0.923623
vn 0.608222 0.607198 -0.511250
vn -0.919320 0.293400 0.262235
vn -0.920460 0.323303 0.219609
vn 0.730095 -0.437689 0.524776
vn -0.044518 -0.096384 0.994348
vn -0.568526 0.819705 0.069721
vn -0.082750 -0.054869 0.995059
vn 0.065000 0.569472 0.819437
vn 0.710651 -0.400534 0.578400
vn 0.842265 0.282835 0.458905
vn -0.328826 0.037992 0.943626
vn -0.910191 0.233611 0.342021
vn -0.935250 0.259357 0.240917
vn 0.829149 -0.284386 0.481286
vn 0.868747 -0.362698 0.337237
vn -0.517148 0.149955 0.842658
vn -0.638195 0.737055 0.222388
vn 0.403668 -0.206543 0.891287
vn 0.937499 0.154553 0.311784
vn -0.255373 0.645879 0.719462
vn 0.291320 -0.128791 0.947916
vn 0.525724 0.358743 0.771309
vn -0.718942 -0.567577 0.401222
vn -0.146822 -0.873440 0.464269
vn -0.668740 -0.462116 0.582439
vn 0.200684 -0.622583 0.756384
vn 0.930133 -0.126670 0.344684
vn -0.941032 -0.041652 0.335745
vn -0.293795 -0.268951 0.917251
vn 0.636146 -0.320232 0.701975
vn -0.597346 0.217166 0.772021
vn -0.112386 -0.200439 0.973239
vn 0.520668 0.185499 0.833364
vn 0.842914 0.412316 0.345675
vn 0.834440 0.412083 0.365921
vn 0.348373 0.125861 0.928868
vn 0.010012 0.620102 0.784457
vn 0.412537 0.859591 0.301525
# 105 normals

g diamond
usemtl Material01
s 1
f 37/13/13 39/14/13 38/13/13
f 40/15/14 42/15/14 41/15/14
f 43/16/15 45/13/15 44/13/15
f 46/17/16 48/17/16 47/18/16
f 49/17/17 51/17/17 50/19/17
f 52/20/18 54/20/18 53/20/18
f 55/21/19 57/21/19 56/21/19
f 58/22/20 60/23/20 59/23/20
f 61/24/21 63/24/21 62/24/21
f 64/25/22 66/25/22 65/25/22
f 67/23/23 69/23/23 68/26/23
f 70/27/24 72/27/24 71/28/24
f 73/27/25 75/29/25 74/27/25
f 76/30/26 78/31/26 77/32/26
f 79/30/27 81/32/27 80/33/27
f 82/34/28 84/35/28 83/32/28
f 85/32/29 87/35/29 86/33/29
f 88/35/30 90/34/30 89/36/30
f 91/37/31 93/37/31 92/37/31
f 94/38/32 96/38/32 95/38/32
f 97/39/33 99/39/33 98/39/33
f 100/40/34 102/41/34 101/42/34
f 103/43/35 105/40/35 104/42/35
f 106/44/36 108/45/36 107/41/36
f 109/41/37 111/45/37 110/42/37
f 112/45/38 114/46/38 113/47/38
f 115/45/39 117/44/39 116/46/39
f 118/47/40 120/46/40 119/48/40
f 121/49/41 123/49/41 122/49/41
f 124/50/42 126/50/42 125/50/42
f 127/51/43 129/51/43 128/52/43
f 130/51/44 132/51/44 131/53/44
f 133/54/45 135/55/45 134/56/45
f 136/57/46 138/57/46 137/57/46
f 139/55/47 141/58/47 140/59/47
f 142/58/48 144/55/48 143/54/48
f 145/56/49 147/55/49 146/60/49
# 37 triangles in group

g diamond_2
usemtl Material02
f 1/1/1 3/1/1 2/1/1
f 4/2/2 6/2/2 5/2/2
f 7/3/3 9/3/3 8/3/3
f 10/4/4 12/4/4 11/4/4
f 13/5/5 15/5/5 14/5/5
f 16/6/6 18/6/6 17/6/6
f 19/7/7 21/7/7 20/7/7
f 22/8/8 24/8/8 23/8/8
f 25/9/9 27/9/9 26/9/9
f 28/10/10 30/10/10 29/10/10
f 31/11/11 33/11/11 32/11/11
f 34/12/12 36/12/12 35/12/12
# 12 triangles in group

g diamond_3
usemtl Material03
f 334/130/64 336/130/64 335/130/64
f 337/131/65 339/131/65 338/131/65
f 340/132/66 342/132/66 341/132/66
f 343/133/67 345/133/67 344/133/67
f 346/134/68 348/134/68 347/134/68
f 349/135/69 351/135/69 350/135/69
f 352/136/70 354/136/70 353/136/70
f 355/137/71 357/137/71 356/137/71
f 358/138/72 360/138/72 359/138/72
f 361/139/73 363/139/73 362/139/73
f 364/140/74 366/140/74 365/140/74
f 367/141/75 369/141/75 368/141/75
f 370/142/76 372/142/76 371/142/76
f 373/143/77 375/143/77 374/143/77
f 376/144/78 378/144/78 377/144/78
f 379/145/79 381/145/79 380/145/79
f 382/146/80 384/146/80 383/146/80
f 385/147/81 387/147/81 386/147/81
f 388/148/82 390/148/82 389/148/82
f 391/149/83 393/149/83 392/149/83
f 394/150/84 396/150/84 395/150/84
f 397/151/85 399/151/85 398/151/85
f 400/152/86 402/152/86 401/152/86
f 403/153/87 405/153/87 404/153/87
f 406/154/88 408/154/88 407/154/88
f 409/155/89 411/155/89 410/155/89
f 412/156/90 414/156/90 413/156/90
f 415/157/91 417/157/91 416/157/91
f 418/158/92 420/158/92 419/158/92
f 421/159/93 423/159/93 422/159/93
f 424/160/94 426/160/94 425/160/94
f 427/161/95 429/161/95 428/161/95
f 430/162/96 432/162/96 431/162/96
f 433/163/97 435/163/97 434/163/97
f 436/164/98 438/164/98 437/164/98
f 439/165/99 441/165/99 440/165/99
f 442/166/100 444/166/100 443/166/100
f 445/167/101 447/167/101 446/167/101
f 448/168/102 450/168/102 449/168/102
f 451/169/103 453/169/103 452/169/103
f 454/170/104 456/170/104 455/170/104
f 457/171/105 459/171/105 458/171/105
# 42 triangles in group

g way
usemtl Material04
f 178/69/53 180/70/53 179/71/53
f 181/69/53 183/71/53 182/72/53
f 184/73/55 186/74/55 185/75/55
f 187/73/55 189/76/55 188/74/55
f 190/74/56 192/77/56 191/78/56
f 193/74/56 195/78/56 194/75/56
f 196/79/57 198/80/57 197/81/57
f 199/79/57 201/82/57 200/80/57
f 202/81/58 204/80/58 203/83/58
f 205/81/58 207/83/58 206/84/58
f 208/84/52 210/85/52 209/86/52
f 211/84/52 213/83/52 212/85/52
# 12 triangles in group

g way_side
usemtl Material05
f 214/87/51 216/88/51 215/89/51
f 217/87/51 219/89/51 218/90/51
f 220/91/51 222/92/51 221/93/51
f 223/91/51 225/93/51 224/94/51
f 226/95/51 228/96/51 227/97/51
f 229/95/51 231/97/51 230/98/51
f 232/99/51 234/100/51 233/101/51
f 235/99/51 237/101/51 236/102/51
f 238/103/51 240/104/51 239/105/51
f 241/103/51 243/105/51 242/106/51
f 244/107/54 246/108/54 245/109/54
f 247/107/54 249/110/54 248/108/54
# 12 triangles in group

g metal_wires
usemtl Material06
f 250/111/51 252/62/51 251/112/51
f 253/113/51 255/62/51 254/111/51
f 256/65/51 258/114/51 257/115/51
f 259/114/51 261/65/51 260/62/51
f 262/116/51 264/117/51 263/118/51
f 265/116/51 267/118/51 266/62/51
# 6 triangles in group

g metal_wire_2
usemtl Material07
f 148/61/50 150/62/50 149/63/50
f 151/61/50 153/63/50 152/64/50
f 154/64/51 156/63/51 155/62/51
f 157/64/51 159/62/51 158/61/51
f 160/65/52 162/66/52 161/61/52
f 163/65/52 165/61/52 164/62/52
f 166/63/53 168/62/53 167/67/53
f 169/63/53 171/67/53 170/68/53
f 172/68/54 174/62/54 173/63/54
f 175/68/54 177/67/54 176/62/54
# 10 triangles in group

g yellow
usemtl Material08
f 268/119/53 270/119/53 269/120/53
f 271/119/53 273/120/53 272/120/53
f 274/120/59 276/119/59 275/121/59
f 277/120/59 279/121/59 278/122/59
f 280/122/60 282/121/60 281/123/60
f 283/122/61 285/123/61 284/124/61
f 286/124/52 288/125/52 287/126/52
f 289/124/52 291/123/52 290/125/52
f 292/126/62 294/127/62 293/128/62
f 295/126/62 297/125/62 296/127/62
f 298/128/63 300/127/63 299/127/63
f 301/128/63 303/128/63 302/127/63
f 304/119/53 306/119/53 305/120/53
f 307/119/53 309/120/53 308/120/53
f 310/120/50 312/128/50 311/128/50
f 313/120/50 315/128/50 314/120/50
f 316/128/54 318/129/54 317/129/54
f 319/128/54 321/128/54 320/129/54
f 322/120/52 324/129/52 323/128/52
f 325/120/52 327/119/52 326/129/52
f 328/119/51 330/129/51 329/129/51
f 331/119/51 333/129/51 332/119/51
# 22 triangles in group

# 153 triangles total

