# 3ds Max Wavefront OBJ Exporter v0.97b - (c)2007 guruware
# File Created: 27.10.2016 21:30:19

mtllib fox.mtl

#
# object Nemu_60999451_0_033
#

v  0.0078 0.2547 -0.2485
v  0.0258 0.2547 -0.1565
v  0.0078 0.2247 -0.1645
v  -0.0102 0.2547 -0.1565
v  0.0078 0.2327 -0.1315
# 5 vertices

vn 0.8644 -0.4735 -0.1691
vn -0.8644 -0.4735 -0.1691
vn -0.8346 -0.5354 0.1298
vn 0.0000 1.0000 0.0000
vn 0.8346 -0.5354 0.1298
vn 0.0000 0.7507 0.6606
# 6 vertex normals

vt 0.9632 0.2723 0.0000
vt 0.0691 0.2723 0.0000
vt 0.0853 0.2398 0.0000
vt 0.5161 1.0322 0.0000
vt 0.9469 0.2398 0.0000
vt 0.5161 0.9103 0.0000
# 6 texture coords

g Nemu_60999451_0_033
usemtl Material__32
s 1
f 1/1/1 2/1/1 3/1/1 
f 1/2/2 3/2/2 4/2/2 
f 5/3/3 4/3/3 3/3/3 
f 1/4/4 4/4/4 2/4/4 
f 5/5/5 3/5/5 2/5/5 
f 5/6/6 2/6/6 4/6/6 
# 0 polygons - 6 triangles

#
# object Nemu_60999451_0_032
#

v  0.0078 0.2345 -0.1440
v  0.0258 0.2375 -0.0570
v  0.0078 0.2085 -0.0660
v  -0.0102 0.2375 -0.0570
v  0.0078 0.2165 -0.0130
# 5 vertices

vn 0.8602 -0.4838 -0.1613
vn -0.8602 -0.4838 -0.1613
vn -0.8352 -0.5439 0.0821
vn -0.8352 -0.5438 0.0821
vn 0.0000 0.9994 -0.0345
vn 0.8352 -0.5439 0.0821
vn 0.0000 0.9025 0.4307
# 7 vertex normals

vt 0.9632 0.2723 0.0000
vt 0.0691 0.2723 0.0000
vt 0.0813 0.2398 0.0000
vt 0.5161 1.0322 0.0000
vt 0.9510 0.2438 0.0000
vt 0.5161 0.9835 0.0000
# 6 texture coords

g Nemu_60999451_0_032
usemtl Material__32
s 1
f 6/7/7 7/7/7 8/7/7 
f 6/8/8 8/8/8 9/8/8 
f 10/9/9 9/9/10 8/9/10 
f 6/10/11 9/10/11 7/10/11 
f 10/11/12 8/11/12 7/11/12 
f 10/12/13 7/12/13 9/12/13 
# 0 polygons - 6 triangles

#
# object Nemu_60999451_0_031
#

v  -0.0061 0.0054 -0.0207
v  -0.0333 0.0502 0.0032
v  -0.0238 0.0038 0.0903
v  -0.0933 0.0032 0.0661
v  -0.0702 0.0059 0.1065
# 5 vertices

vn 0.8776 0.4564 0.1467
vn -0.7036 -0.0504 -0.7088
vn 0.0129 -0.9998 -0.0124
vn -0.4610 0.8632 0.2057
vn -0.0182 -0.9969 0.0767
vn 0.1944 0.8745 0.4444
# 6 vertex normals

vt 0.4389 0.2316 0.0000
vt 0.2845 0.6015 0.0000
vt 0.5202 1.0282 0.0000
vt 0.6827 0.0894 0.0000
vt 0.5608 1.0282 0.0000
vt 0.6909 0.0406 0.0000
# 6 texture coords

g Nemu_60999451_0_031
usemtl Material__32
s 1
f 11/13/14 12/13/14 13/13/14 
f 12/14/15 11/14/15 14/14/15 
f 13/15/16 14/15/16 11/15/16 
f 12/16/17 14/16/17 15/16/17 
f 14/17/18 13/17/18 15/17/18 
f 12/18/19 15/18/19 13/18/19 
# 0 polygons - 6 triangles

#
# object Nemu_60999451_0_030
#

v  -0.0308 0.0049 0.0069
v  -0.0111 0.1183 -0.0251
v  -0.0320 0.1249 0.0304
v  -0.0616 0.1179 -0.0175
# 4 vertices

vn 0.9316 -0.0607 0.3584
vn -0.0282 0.9914 -0.1282
vn -0.8380 -0.1129 0.5338
vn -0.1417 -0.2463 -0.9588
# 4 vertex normals

vt 0.5283 0.2845 0.0000
vt 0.0081 0.6096 0.0000
vt 0.5649 0.2845 0.0000
vt 0.6706 1.0119 0.0000
# 4 texture coords

g Nemu_60999451_0_030
usemtl Material__32
s 1
f 16/19/20 17/19/20 18/19/20 
f 17/20/21 19/20/21 18/20/21 
f 16/21/22 18/21/22 19/21/22 
f 16/22/23 19/22/23 17/22/23 
# 0 polygons - 4 triangles

#
# object Nemu_60999451_0_029
#

v  -0.0042 0.1186 0.0386
v  -0.0600 0.2143 0.0075
v  -0.0651 0.1146 0.0218
v  -0.0019 0.2092 0.0291
v  -0.0361 0.1266 -0.0475
v  -0.0311 0.2166 -0.0282
# 6 vertices

vn -0.2724 0.1505 0.9503
vn -0.3377 0.1075 0.9351
vn -0.9222 -0.0086 -0.3865
vn -0.7706 0.1746 -0.6129
vn 0.8921 0.0468 -0.4494
vn 0.9342 -0.0616 -0.3514
vn 0.1009 -0.9866 -0.1285
# 7 vertex normals

vt 0.4267 0.0488 0.0000
vt 0.5121 0.8047 0.0000
vt 0.5242 0.6746 0.0000
vt 1.0282 0.5486 0.0000
# 4 texture coords

g Nemu_60999451_0_029
usemtl Material__32
s 1
f 20/23/24 21/23/24 22/23/24 
f 20/23/25 23/23/25 21/23/25 
f 24/24/26 22/24/26 21/24/26 
f 24/24/27 21/24/27 25/24/27 
f 23/25/28 24/25/28 25/25/28 
f 23/25/29 20/25/29 24/25/29 
f 22/26/30 24/26/30 20/26/30 
# 0 polygons - 7 triangles

#
# object Nemu_60999451_0_028
#

v  0.0058 0.0051 -0.0211
v  0.0327 0.0506 0.0038
v  0.0927 0.0036 0.0661
v  0.0233 0.0032 0.0903
v  0.0687 0.0057 0.1074
# 5 vertices

vn 0.7076 -0.0331 -0.7058
vn -0.8845 0.4430 0.1465
vn -0.2174 0.8660 0.4503
vn -0.0011 -0.9999 -0.0169
vn 0.0290 -0.9972 0.0692
vn 0.4529 0.8647 0.2170
# 6 vertex normals

vt 0.2682 0.5933 0.0000
vt 0.4552 0.2357 0.0000
vt 0.6949 0.0447 0.0000
vt 0.5202 1.0322 0.0000
vt 0.5608 1.0282 0.0000
vt 0.6746 0.0853 0.0000
# 6 texture coords

g Nemu_60999451_0_028
usemtl Material__32
s 1
f 26/27/31 27/27/31 28/27/31 
f 27/28/32 26/28/32 29/28/32 
f 30/29/33 27/29/33 29/29/33 
f 28/30/34 29/30/34 26/30/34 
f 29/31/35 28/31/35 30/31/35 
f 28/32/36 27/32/36 30/32/36 
# 0 polygons - 6 triangles

#
# object Nemu_60999451_0_027
#

v  0.0105 0.1184 -0.0252
v  0.0300 0.0049 0.0069
v  0.0314 0.1249 0.0304
v  0.0610 0.1178 -0.0175
# 4 vertices

vn -0.9322 -0.0592 0.3570
vn 0.0299 0.9913 -0.1281
vn 0.8371 -0.1143 0.5350
vn 0.1427 -0.2465 -0.9586
# 4 vertex normals

vt 0.5283 0.2845 0.0000
vt 0.0081 0.6137 0.0000
vt 0.5649 0.2804 0.0000
vt 0.6706 1.0119 0.0000
# 4 texture coords

g Nemu_60999451_0_027
usemtl Material__32
s 1
f 31/33/37 32/33/37 33/33/37 
f 34/34/38 31/34/38 33/34/38 
f 33/35/39 32/35/39 34/35/39 
f 34/36/40 32/36/40 31/36/40 
# 0 polygons - 4 triangles

#
# object Nemu_60999451_0_026
#

v  0.0036 0.1187 0.0386
v  0.0644 0.1145 0.0219
v  0.0595 0.2143 0.0075
v  0.0014 0.2092 0.0290
v  0.0356 0.1266 -0.0475
v  0.0307 0.2166 -0.0282
# 6 vertices

vn 0.2713 0.1500 0.9507
vn 0.3365 0.1069 0.9356
vn -0.8914 0.0482 -0.4507
vn -0.9338 -0.0601 -0.3527
vn 0.9228 -0.0101 -0.3852
vn 0.7718 0.1733 -0.6118
vn -0.1023 -0.9864 -0.1286
# 7 vertex normals

vt 0.4267 0.0488 0.0000
vt 0.5242 0.6746 0.0000
vt 0.5121 0.8047 0.0000
vt 1.0282 0.5486 0.0000
# 4 texture coords

g Nemu_60999451_0_026
usemtl Material__32
s 1
f 35/37/41 36/37/41 37/37/41 
f 35/37/42 37/37/42 38/37/42 
f 39/38/43 38/38/43 40/38/43 
f 39/38/44 35/38/44 38/38/44 
f 37/39/45 36/39/45 39/39/45 
f 37/39/46 39/39/46 40/39/46 
f 39/40/47 36/40/47 35/40/47 
# 0 polygons - 7 triangles

#
# object Nemu_60999451_0_025
#

v  -0.0767 0.1673 0.0405
v  -0.1107 0.2185 0.0163
v  -0.1254 0.1842 0.0271
v  -0.0864 0.2131 0.0237
v  -0.0836 0.2126 -0.0184
v  -0.1086 0.2175 -0.0119
v  -0.0828 0.1605 -0.0234
v  -0.1212 0.1747 -0.0182
# 8 vertices

vn -0.1333 0.3504 0.9271
vn -0.2189 0.2950 0.9301
vn 0.1878 0.9820 -0.0210
vn 0.2176 0.9760 0.0032
vn 0.9950 0.0258 -0.0966
vn 0.9717 0.2282 0.0618
vn -0.0728 0.1651 -0.9836
vn -0.2330 0.0894 -0.9684
vn -0.9422 0.2994 -0.1507
vn -0.3273 -0.9358 0.1310
vn -0.3617 -0.9186 0.1592
vn -0.9252 0.3704 -0.0827
# 12 vertex normals

vt 0.3292 0.1016 0.0000
vt 0.0041 0.5202 0.0000
vt 0.4186 0.3779 0.0000
vt 0.4795 1.0241 0.0000
vt 0.3942 0.7356 0.0000
vt 1.0119 0.4755 0.0000
vt 1.0038 0.4674 0.0000
# 7 texture coords

g Nemu_60999451_0_025
usemtl Material__32
s 1
f 41/41/48 42/41/48 43/41/48 
f 41/41/49 44/41/49 42/41/49 
f 45/42/50 46/42/50 42/42/50 
f 45/42/51 42/42/51 44/42/51 
f 41/43/52 47/43/52 45/43/52 
f 41/43/53 45/43/53 44/43/53 
f 46/44/54 47/44/54 48/44/54 
f 46/44/55 45/44/55 47/44/55 
f 46/45/56 48/45/56 43/45/56 
f 41/46/57 48/46/57 47/46/57 
f 43/47/58 48/47/58 41/47/58 
f 46/45/59 43/45/59 42/45/59 
# 0 polygons - 12 triangles

#
# object Nemu_60999451_0_024
#

v  -0.1131 0.2745 -0.0191
v  -0.1036 0.1725 0.0001
v  -0.0953 0.2754 0.0184
v  -0.0772 0.2756 -0.0002
# 4 vertices

vn -0.9024 -0.0034 0.4309
vn 0.7064 -0.1785 0.6850
vn 0.4632 -0.1216 -0.8779
# 3 vertex normals

vt 0.5486 0.4430 0.0000
vt 0.5568 0.0569 0.0000
vt 0.5771 0.8737 0.0000
# 3 texture coords

g Nemu_60999451_0_024
usemtl Material__32
s 1
f 49/48/60 50/48/60 51/48/60 
f 51/49/61 50/49/61 52/49/61 
f 52/50/62 50/50/62 49/50/62 
# 0 polygons - 3 triangles

#
# object Nemu_60999451_0_023
#

v  -0.1489 0.3057 0.0313
v  -0.0821 0.2795 0.0314
v  -0.0825 0.3459 0.0318
v  -0.1481 0.3459 0.0312
v  -0.1482 0.3452 -0.0321
v  -0.1489 0.3061 -0.0320
v  -0.0826 0.3453 -0.0315
v  -0.0878 0.3327 0.0251
v  -0.0686 0.3241 0.0022
v  -0.1072 0.3430 -0.0226
v  -0.1246 0.2706 -0.0303
v  -0.0821 0.2799 -0.0318
v  -0.0953 0.2564 0.0349
v  -0.0688 0.2620 -0.0008
# 14 vertices

vn -0.0043 -0.0057 1.0000
vn -0.0089 0.0019 1.0000
vn -0.9998 0.0179 0.0003
vn -0.9998 0.0197 0.0015
vn -0.0004 1.0000 -0.0096
vn 1.0000 0.0048 -0.0017
vn 0.4286 0.9032 0.0218
vn -0.8985 0.1725 0.4036
vn 1.0000 0.0062 -0.0002
vn -0.3649 -0.9310 -0.0056
vn -0.8910 0.1438 0.4307
vn 0.0089 -0.0033 -1.0000
vn 0.0041 0.0049 -1.0000
vn 0.8030 -0.0027 0.5960
vn 0.7588 -0.0345 0.6504
vn 0.5274 -0.0359 -0.8488
vn 0.4726 0.0406 -0.8803
vn -0.0514 -0.9803 -0.1905
# 18 vertex normals

vt 0.4917 0.0244 0.0000
vt 0.5486 0.6787 0.0000
vt 0.0000 0.5568 0.0000
vt 0.4714 0.3576 0.0000
vt 0.0284 0.4836 0.0000
vt 0.4674 0.4633 0.0000
vt 1.0119 0.5324 0.0000
vt 0.5405 1.0079 0.0000
vt 0.4714 0.0853 0.0000
vt 0.5161 0.8616 0.0000
vt 1.0282 0.5690 0.0000
# 11 texture coords

g Nemu_60999451_0_023
usemtl Material__32
s 1
f 53/51/63 54/51/63 55/51/63 
f 53/51/64 55/51/64 56/51/64 
f 57/52/65 58/52/65 53/52/65 
f 57/52/66 53/52/66 56/52/66 
f 59/53/67 57/53/67 56/53/67 
f 59/53/67 56/53/67 55/53/67 
f 54/54/68 59/54/68 55/54/68 
f 60/55/69 61/55/69 62/55/69 
f 63/56/70 60/56/70 62/56/70 
f 54/54/71 64/54/71 59/54/71 
f 53/57/72 64/57/72 54/57/72 
f 63/56/73 65/56/73 60/56/73 
f 59/58/74 58/58/74 57/58/74 
f 53/57/72 58/57/72 64/57/72 
f 59/58/75 64/58/75 58/58/75 
f 66/59/76 60/59/76 65/59/76 
f 66/59/77 61/59/77 60/59/77 
f 61/60/78 63/60/78 62/60/78 
f 61/60/79 66/60/79 63/60/79 
f 63/61/80 66/61/80 65/61/80 
# 0 polygons - 20 triangles

#
# object Nemu_60999451_0_022
#

v  -0.0242 0.3538 -0.0475
v  -0.0542 0.4378 -0.0305
v  -0.0242 0.4638 -0.0475
v  -0.0542 0.3618 -0.0305
v  -0.0242 0.3538 0.0435
v  -0.0542 0.3618 0.0245
v  -0.0542 0.3998 0.0245
v  0.0238 0.3538 -0.0475
v  -0.0542 0.4378 0.0105
v  0.0238 0.3538 0.0435
v  0.0238 0.4638 -0.0475
v  0.0538 0.3618 -0.0305
v  -0.0242 0.4088 0.0435
v  0.0538 0.4378 -0.0305
v  0.0538 0.3618 0.0245
v  -0.0242 0.4638 0.0215
v  0.0238 0.4088 0.0435
v  0.0538 0.3998 0.0245
v  0.0538 0.4378 0.0105
v  0.0238 0.4638 0.0215
# 20 vertices

vn -0.4930 0.0000 -0.8700
vn -0.2577 -0.9662 -0.0000
vn -1.0000 0.0000 -0.0000
vn 0.0000 0.0000 -1.0000
vn 0.0000 -1.0000 -0.0000
vn -0.5351 -0.0000 0.8448
vn 0.2577 -0.9662 -0.0000
vn 0.4930 0.0000 -0.8700
vn -0.6549 0.7557 0.0000
vn 0.0000 -0.0000 1.0000
vn -0.5412 0.2907 0.7890
vn 1.0000 0.0000 -0.0000
vn -0.5732 0.3043 0.7608
vn 0.5351 -0.0000 0.8448
vn 0.0000 1.0000 0.0000
vn 0.0000 0.3714 0.9285
vn 0.6549 0.7557 0.0000
vn 0.5412 0.2907 0.7890
vn 0.5732 0.3043 0.7608
# 19 vertex normals

vt 0.2601 0.5161 0.0000
vt 0.3820 0.0163 0.0000
vt -0.0041 0.5161 0.0000
vt 0.5161 0.5161 0.0000
vt 0.5161 -0.0041 0.0000
vt 0.2398 0.5161 0.0000
vt 0.6502 0.0163 0.0000
vt 0.7721 0.5161 0.0000
vt 0.1747 0.9063 0.0000
vt 0.2479 0.6624 0.0000
vt 1.0322 0.5161 0.0000
vt 0.2195 0.6746 0.0000
vt 0.7925 0.5161 0.0000
vt 0.5161 1.0322 0.0000
vt 0.5161 0.7071 0.0000
vt 0.8575 0.9063 0.0000
vt 0.7843 0.6624 0.0000
vt 0.8128 0.6746 0.0000
# 18 texture coords

g Nemu_60999451_0_022
usemtl Material__32
s 1
f 67/62/81 68/62/81 69/62/81 
f 68/62/81 67/62/81 70/62/81 
f 70/63/82 71/63/82 72/63/82 
f 71/63/82 70/63/82 67/63/82 
f 70/64/83 73/64/83 68/64/83 
f 73/64/83 70/64/83 72/64/83 
f 69/65/84 74/65/84 67/65/84 
f 68/64/83 73/64/83 75/64/83 
f 76/66/85 67/66/85 74/66/85 
f 74/65/84 69/65/84 77/65/84 
f 71/67/86 73/67/86 72/67/86 
f 67/66/85 76/66/85 71/66/85 
f 78/68/87 76/68/87 74/68/87 
f 73/67/86 71/67/86 79/67/86 
f 74/69/88 80/69/88 78/69/88 
f 76/68/87 78/68/87 81/68/87 
f 68/70/89 82/70/89 69/70/89 
f 80/69/88 74/69/88 77/69/88 
f 76/65/90 79/65/90 71/65/90 
f 82/70/89 68/70/89 75/70/89 
f 73/71/91 82/71/91 75/71/91 
f 79/65/90 76/65/90 83/65/90 
f 78/72/92 84/72/92 81/72/92 
f 82/73/93 73/73/93 79/73/93 
f 84/72/92 80/72/92 85/72/92 
f 84/72/92 78/72/92 80/72/92 
f 76/74/94 84/74/94 83/74/94 
f 84/74/94 76/74/94 81/74/94 
f 86/75/95 69/75/95 82/75/95 
f 69/75/95 86/75/95 77/75/95 
f 86/76/96 79/76/96 83/76/96 
f 79/76/96 86/76/96 82/76/96 
f 80/77/97 86/77/97 85/77/97 
f 86/77/97 80/77/97 77/77/97 
f 86/78/98 84/78/98 85/78/98 
f 84/79/99 86/79/99 83/79/99 
# 0 polygons - 36 triangles

#
# object Nemu_60999451_0_021
#

v  -0.0002 0.2810 0.0000
v  -0.0002 0.3680 0.0440
v  -0.0442 0.3900 -0.0330
v  0.0438 0.3900 -0.0330
# 4 vertices

vn -0.8727 -0.2204 0.4357
vn 0.0000 -0.2898 -0.9571
vn 0.8727 -0.2204 0.4357
# 3 vertex normals

vt 0.5161 0.0000 0.0000
vt 0.0650 0.4023 0.0000
vt 0.1179 0.2845 0.0000
vt 0.9144 0.2845 0.0000
vt 0.9672 0.4023 0.0000
# 5 texture coords

g Nemu_60999451_0_021
usemtl Material__32
s 1
f 87/80/100 88/81/100 89/82/100 
f 89/82/101 90/83/101 87/80/101 
f 87/80/102 90/83/102 88/84/102 
# 0 polygons - 3 triangles

#
# object Nemu_60999451_0_020
#

v  0.0832 0.2127 -0.0184
v  0.0823 0.1606 -0.0234
v  0.0762 0.1674 0.0404
v  0.0859 0.2132 0.0237
v  0.1102 0.2186 0.0163
v  0.1081 0.2176 -0.0119
v  0.1249 0.1843 0.0272
v  0.1207 0.1748 -0.0181
# 8 vertices

vn -0.9948 0.0258 -0.0981
vn -0.9717 0.2282 0.0603
vn -0.1878 0.9820 -0.0212
vn -0.2176 0.9760 0.0030
vn 0.1938 0.3707 0.9083
vn 0.1479 0.3125 0.9383
vn 0.1015 0.0939 -0.9904
vn 0.2096 0.2012 -0.9569
vn 0.9424 0.2993 -0.1492
vn 0.3271 -0.9358 0.1314
vn 0.3614 -0.9186 0.1596
vn 0.9253 0.3704 -0.0813
# 12 vertex normals

vt 0.4186 0.3779 0.0000
vt 0.0041 0.5161 0.0000
vt 0.3292 0.1016 0.0000
vt 0.4755 1.0241 0.0000
vt 0.3901 0.7356 0.0000
vt 1.0119 0.4795 0.0000
vt 1.0038 0.4714 0.0000
# 7 texture coords

g Nemu_60999451_0_020
usemtl Material__32
s 1
f 91/85/103 92/85/103 93/85/103 
f 91/85/104 93/85/104 94/85/104 
f 95/86/105 96/86/105 91/86/105 
f 95/86/106 91/86/106 94/86/106 
f 97/87/107 95/87/107 94/87/107 
f 97/87/108 94/87/108 93/87/108 
f 91/88/109 98/88/109 92/88/109 
f 91/88/110 96/88/110 98/88/110 
f 97/89/111 98/89/111 96/89/111 
f 98/90/112 93/90/112 92/90/112 
f 98/91/113 97/91/113 93/91/113 
f 97/89/114 96/89/114 95/89/114 
# 0 polygons - 12 triangles

#
# object Nemu_60999451_0_019
#

v  0.1032 0.1719 0.0001
v  0.1124 0.2749 -0.0180
v  0.0948 0.2749 0.0184
v  0.0768 0.2751 -0.0003
# 4 vertices

vn 0.9011 -0.0038 0.4337
vn -0.7074 -0.1785 0.6839
vn -0.4443 -0.1170 -0.8882
# 3 vertex normals

vt 0.5486 0.4430 0.0000
vt 0.5608 0.0569 0.0000
vt 0.5730 0.8737 0.0000
# 3 texture coords

g Nemu_60999451_0_019
usemtl Material__32
s 1
f 99/92/115 100/92/115 101/92/115 
f 99/93/116 101/93/116 102/93/116 
f 99/94/117 102/94/117 100/94/117 
# 0 polygons - 3 triangles

#
# object Nemu_60999451_0_018
#

v  0.0822 0.3453 -0.0315
v  0.0818 0.2799 -0.0319
v  0.0816 0.2795 0.0314
v  0.0820 0.3459 0.0318
v  0.0948 0.2574 0.0350
v  0.0872 0.3337 0.0251
v  0.0681 0.3241 0.0022
v  0.1069 0.3420 -0.0226
v  0.1477 0.3459 0.0313
v  0.0681 0.2619 0.0001
v  0.1484 0.3057 0.0314
v  0.1479 0.3453 -0.0320
v  0.1486 0.3061 -0.0319
v  0.1243 0.2696 -0.0303
# 14 vertices

vn -1.0000 0.0063 -0.0017
vn -1.0000 0.0049 -0.0032
vn -0.7701 0.0061 0.6379
vn -0.4297 0.9028 -0.0186
vn 0.0004 1.0000 -0.0095
vn -0.7950 -0.0193 0.6063
vn 0.0028 -0.0058 1.0000
vn 0.3649 -0.9310 -0.0052
vn 0.0074 0.0018 1.0000
vn -0.0025 0.0051 -1.0000
vn 0.9998 0.0196 0.0030
vn -0.0074 -0.0032 -1.0000
vn 0.9998 0.0178 0.0018
vn -0.4793 0.0295 -0.8772
vn -0.5267 -0.0359 -0.8493
vn 0.8914 0.1435 0.4299
vn 0.8995 0.1732 0.4010
vn 0.0476 -0.9855 -0.1630
# 18 vertex normals

vt 0.4714 0.3576 0.0000
vt 0.4674 0.0853 0.0000
vt 0.0284 0.4877 0.0000
vt 0.0000 0.5568 0.0000
vt 0.4917 0.0244 0.0000
vt 1.0119 0.5324 0.0000
vt 0.5405 1.0079 0.0000
vt 0.5486 0.6787 0.0000
vt 0.5161 0.8616 0.0000
vt 0.4674 0.4674 0.0000
vt 1.0282 0.5649 0.0000
# 11 texture coords

g Nemu_60999451_0_018
usemtl Material__32
s 1
f 103/95/118 104/95/118 105/95/118 
f 103/95/119 105/95/119 106/95/119 
f 107/96/120 108/96/120 109/96/120 
f 109/97/121 108/97/121 110/97/121 
f 111/98/122 103/98/122 106/98/122 
f 107/96/123 109/96/123 112/96/123 
f 113/99/124 106/99/124 105/99/124 
f 111/98/122 114/98/122 103/98/122 
f 104/100/125 113/100/125 105/100/125 
f 113/99/126 111/99/126 106/99/126 
f 103/101/127 115/101/127 104/101/127 
f 104/100/125 115/100/125 113/100/125 
f 113/102/128 114/102/128 111/102/128 
f 103/101/129 114/101/129 115/101/129 
f 113/102/130 115/102/130 114/102/130 
f 116/103/131 112/103/131 109/103/131 
f 116/103/132 109/103/132 110/103/132 
f 108/104/133 107/104/133 116/104/133 
f 108/104/134 116/104/134 110/104/134 
f 112/105/135 116/105/135 107/105/135 
# 0 polygons - 20 triangles

#
# object Nemu_60999451_0_017
#

v  0.0238 0.2860 -0.1030
v  0.0238 0.2340 -0.0360
v  -0.0392 0.2330 -0.0360
v  -0.0392 0.2850 -0.1030
v  -0.0402 0.3660 -0.0360
v  -0.0402 0.3650 -0.1020
v  -0.0702 0.2490 0.0400
v  0.0518 0.2490 -0.0470
v  0.0678 0.2490 0.0400
v  -0.0552 0.2490 -0.0470
v  0.0628 0.3450 -0.0470
v  -0.0672 0.3450 -0.0470
v  0.0228 0.3660 -0.1020
v  0.0228 0.3670 -0.0360
v  -0.0852 0.3350 0.0400
v  0.0818 0.3350 0.0400
# 16 vertices

vn 0.0125 -0.7899 -0.6131
vn -0.9999 -0.0125 0.0002
vn -1.0000 -0.0075 -0.0058
vn 0.0000 -1.0000 -0.0000
vn 0.0000 0.0000 -1.0000
vn -0.0002 0.0125 -0.9999
vn 0.0000 -0.0000 1.0000
vn 0.9999 0.0125 -0.0002
vn 1.0000 0.0075 0.0058
vn -0.0159 0.9998 -0.0151
vn -0.9712 -0.1694 -0.1675
vn 0.9711 -0.1581 -0.1786
vn -0.9692 -0.1211 -0.2144
vn 0.0000 0.9935 0.1142
vn 0.9682 -0.1109 -0.2242
# 15 vertex normals

vt 0.5202 0.1097 0.0000
vt 0.0000 0.5161 0.0000
vt 0.5161 -0.0041 0.0000
vt 0.5161 0.5161 0.0000
vt 0.5161 0.5202 0.0000
vt 1.0322 0.5161 0.0000
vt 0.5080 1.0322 0.0000
vt 0.0122 0.4308 0.0000
vt 1.0201 0.4308 0.0000
vt 0.0122 0.4592 0.0000
vt 0.5161 1.0322 0.0000
vt 1.0160 0.4592 0.0000
# 12 texture coords

g Nemu_60999451_0_017
usemtl Material__32
s 1
f 117/106/136 118/106/136 119/106/136 
f 117/106/136 119/106/136 120/106/136 
f 121/107/137 122/107/137 120/107/137 
f 121/107/138 120/107/138 119/107/138 
f 123/108/139 124/108/139 125/108/139 
f 124/108/139 123/108/139 126/108/139 
f 127/109/140 124/109/140 128/109/140 
f 128/109/140 124/109/140 126/109/140 
f 129/110/141 120/110/141 122/110/141 
f 129/110/141 117/110/141 120/110/141 
f 119/109/142 130/109/142 121/109/142 
f 119/109/142 118/109/142 130/109/142 
f 117/111/143 129/111/143 130/111/143 
f 117/111/144 130/111/144 118/111/144 
f 121/112/145 130/112/145 129/112/145 
f 121/112/145 129/112/145 122/112/145 
f 131/113/146 126/113/146 123/113/146 
f 124/114/147 132/114/147 125/114/147 
f 123/109/142 132/109/142 131/109/142 
f 128/115/148 126/115/148 131/115/148 
f 131/116/149 132/116/149 128/116/149 
f 123/109/142 125/109/142 132/109/142 
f 132/117/150 124/117/150 127/117/150 
f 132/116/149 127/116/149 128/116/149 
# 0 polygons - 24 triangles

#
# object Nemu_60999451_0_016
#

v  -0.0402 0.1990 0.0300
v  -0.0402 0.2540 0.0300
v  -0.0642 0.2540 -0.0380
v  -0.0642 0.1990 -0.0380
v  0.0638 0.1990 -0.0380
v  0.0398 0.1990 0.0300
v  0.0638 0.2540 -0.0380
v  0.0398 0.2540 0.0300
# 8 vertices

vn -0.9430 -0.0000 0.3328
vn 0.0000 -1.0000 -0.0000
vn 0.0000 0.0000 -1.0000
vn 0.9430 -0.0000 0.3328
vn 0.0000 -0.0000 1.0000
# 5 vertex normals

vt 0.0284 0.5161 0.0000
vt 0.5161 -0.0041 0.0000
vt 0.5161 0.5161 0.0000
vt 1.0038 0.5161 0.0000
# 4 texture coords

g Nemu_60999451_0_016
usemtl Material__32
s 1
f 133/118/151 134/118/151 135/118/151 
f 133/118/151 135/118/151 136/118/151 
f 133/119/152 137/119/152 138/119/152 
f 137/119/152 133/119/152 136/119/152 
f 136/120/153 139/120/153 137/120/153 
f 139/120/153 136/120/153 135/120/153 
f 137/121/154 139/121/154 140/121/154 
f 137/121/154 140/121/154 138/121/154 
f 138/120/155 134/120/155 133/120/155 
f 138/120/155 140/120/155 134/120/155 
# 0 polygons - 10 triangles

