# 3ds Max Wavefront OBJ Exporter v0.97b - (c)2007 guruware
# File Created: 27.04.2019 19:35:43

mtllib kirbylink.mtl

#
# object boomerang_BDD3634_0_021
#

v  0.2133 0.0889 -0.0000
v  0.1093 0.1698 -0.0000
v  0.2006 0.0755 -0.0000
v  0.2172 0.0715 -0.0000
v  0.1552 0.1800 -0.0000
v  0.1683 0.2878 -0.0000
v  0.1524 0.2929 -0.0000
v  0.1647 0.3043 -0.0000
# 8 vertices

vn 0.0000 0.0000 1.0000
# 1 vertex normals

vt 0.4833 -2.7500 0.0000
vt 0.9574 0.0859 0.0000
vt 0.5293 -3.4102 0.0000
vt 0.4575 -3.5000 0.0000
vt 0.7746 0.1016 0.0000
vt 0.4822 3.7930 0.0000
vt 0.5289 4.3867 0.0000
vt 0.7749 0.8633 0.0000
vt 0.4575 4.5000 0.0000
vt 0.9574 0.8789 0.0000
# 10 texture coords

g boomerang_BDD3634_0_021
usemtl Material__208
s 1
f 1/1/1 2/2/1 3/3/1 
f 1/1/1 3/3/1 4/4/1 
f 5/5/1 6/6/1 7/7/1 
f 1/1/1 5/8/1 2/2/1 
f 8/9/1 7/7/1 6/6/1 
f 5/5/1 7/7/1 2/10/1 
# 0 polygons - 6 triangles

#
# object body_0_0_010
#

v  -0.0772 0.0759 -0.0905
v  -0.0809 0.0922 -0.1149
v  -0.0002 0.0813 -0.1213
v  -0.1180 0.1012 -0.0488
v  -0.1443 0.1384 0.0020
v  -0.1525 0.1728 -0.0406
v  -0.1289 0.1873 0.0554
v  -0.1280 0.2344 0.0138
v  -0.0754 0.2172 0.0944
v  -0.0546 0.2888 0.0663
v  -0.0002 0.2281 0.1098
v  0.0542 0.2888 0.0663
v  0.0759 0.2172 0.0944
v  0.1285 0.2344 0.0138
v  0.1511 0.1728 -0.0406
v  0.1303 0.1873 0.0554
v  0.1448 0.1384 0.0020
v  0.1185 0.1012 -0.0488
v  0.0804 0.0922 -0.1149
v  0.0777 0.0759 -0.0905
v  -0.0002 0.0668 -0.1050
# 21 vertices

vn -0.1541 -0.8325 -0.5322
vn -0.7117 -0.6286 -0.3136
vn -0.8963 -0.4127 -0.1620
vn -0.8353 -0.3539 -0.4207
vn -0.9582 0.1997 0.2049
vn -0.9716 0.0545 0.2301
vn -0.7137 0.4260 0.5560
vn -0.6753 0.4959 0.5459
vn 0.0000 0.5824 0.8129
vn -0.2397 0.4143 0.8780
vn 0.7099 0.4335 0.5551
vn 0.2371 0.4164 0.8777
vn 0.9640 0.1960 0.1796
vn 0.6687 0.5069 0.5440
vn 0.9025 -0.3906 -0.1814
vn 0.9770 0.0693 0.2015
vn 0.1541 -0.8299 -0.5362
vn 0.8367 -0.3316 -0.4359
vn -0.2083 -0.7310 -0.6498
vn 0.2060 -0.7314 -0.6501
vn 0.7180 -0.6133 -0.3291
# 21 vertex normals

vt 0.0000 0.0000 0.0000
# 1 texture coords

g body_0_0_010
usemtl Material__287
s 1
f 9/11/2 10/11/2 11/11/2 
f 12/11/3 10/11/3 9/11/3 
f 12/11/4 13/11/4 14/11/4 
f 12/11/5 14/11/5 10/11/5 
f 15/11/6 16/11/6 14/11/6 
f 15/11/7 14/11/7 13/11/7 
f 17/11/8 18/11/8 16/11/8 
f 16/11/9 15/11/9 17/11/9 
f 19/11/10 20/11/10 18/11/10 
f 19/11/11 18/11/11 17/11/11 
f 20/11/12 21/11/12 22/11/12 
f 20/11/13 19/11/13 21/11/13 
f 23/11/14 22/11/14 24/11/14 
f 24/11/15 22/11/15 21/11/15 
f 25/11/16 26/11/16 23/11/16 
f 23/11/17 24/11/17 25/11/17 
f 27/11/18 28/11/18 11/11/18 
f 27/11/19 23/11/19 26/11/19 
f 9/11/20 11/11/20 29/11/20 
f 11/11/21 28/11/21 29/11/21 
f 27/11/22 26/11/22 28/11/22 
# 0 polygons - 21 triangles

#
# object body_2367EECF_0_012
#

v  -0.0990 0.1574 -0.1276
v  -0.0002 0.2109 -0.2037
v  -0.0002 0.0786 -0.2717
v  -0.0002 0.0958 -0.1602
v  -0.0809 0.0922 -0.1149
v  -0.0002 0.0813 -0.1213
v  0.0995 0.1574 -0.1276
v  -0.1525 0.1728 -0.0406
v  -0.1371 0.2136 -0.0841
v  0.0804 0.0922 -0.1149
v  0.1511 0.1728 -0.0406
v  0.1366 0.2136 -0.0841
v  -0.1280 0.2344 0.0138
v  -0.0501 0.3097 0.0138
v  -0.0002 0.3124 -0.1032
v  -0.0546 0.2888 0.0663
v  0.0496 0.3097 0.0138
v  0.1285 0.2344 0.0138
v  0.0542 0.2888 0.0663
# 19 vertices

vn -0.6821 0.3341 -0.6504
vn -0.4927 -0.8600 0.1328
vn -0.1520 -0.9263 -0.3447
vn -0.4587 -0.2907 -0.8397
vn 0.4893 -0.8619 0.1331
vn -0.8315 -0.3194 -0.4545
vn -0.8503 -0.1987 -0.4874
vn -0.6503 0.1378 -0.7471
vn 0.4576 -0.2965 -0.8383
vn 0.6788 0.3355 -0.6532
vn 0.8364 -0.3292 -0.4383
vn 0.6492 0.1483 -0.7460
vn -0.9321 0.3620 0.0092
vn 0.1520 -0.9263 -0.3447
vn -0.5902 0.7727 -0.2337
vn -0.6917 0.7167 -0.0886
vn -0.6774 0.7019 0.2199
vn 0.8576 -0.2004 -0.4737
vn 0.0000 0.9997 0.0232
vn 0.5902 0.7727 -0.2337
vn 0.0000 0.9296 0.3686
vn 0.9402 0.3405 0.0058
vn 0.6871 0.7202 -0.0961
vn 0.6731 0.7055 0.2218
# 24 vertex normals

vt 0.6055 0.2637 0.0000
vt 0.5098 0.4355 0.0000
vt 0.4258 0.0078 0.0000
vt 0.5645 0.0645 0.0000
vt 0.6211 0.0508 0.0000
vt 0.6152 0.0195 0.0000
vt 0.7148 0.3125 0.0000
vt 0.6602 0.4434 0.0000
vt 0.7832 0.5098 0.0000
vt 0.7832 0.7520 0.0000
vt 0.6367 0.7598 0.0000
vt 0.8496 0.6855 0.0000
# 12 texture coords

g body_2367EECF_0_012
usemtl Material__279
s 1
f 30/12/23 31/13/23 32/14/23 
f 30/12/24 32/14/24 33/15/24 
f 34/16/25 33/15/25 35/17/25 
f 33/15/26 34/16/26 30/12/26 
f 32/14/27 36/12/27 33/15/27 
f 37/18/28 30/12/28 34/16/28 
f 37/18/29 38/19/29 30/12/29 
f 30/12/30 38/19/30 31/13/30 
f 39/16/31 33/15/31 36/12/31 
f 31/13/32 36/12/32 32/14/32 
f 36/12/33 40/18/33 39/16/33 
f 31/13/34 41/19/34 36/12/34 
f 37/18/35 42/20/35 38/19/35 
f 33/15/36 39/16/36 35/17/36 
f 43/21/37 44/22/37 38/19/37 
f 43/21/38 38/19/38 42/20/38 
f 45/23/39 43/21/39 42/20/39 
f 36/12/40 41/19/40 40/18/40 
f 44/22/41 43/21/41 46/21/41 
f 44/22/42 46/21/42 41/19/42 
f 45/23/43 46/21/43 43/21/43 
f 40/18/44 41/19/44 47/20/44 
f 45/23/43 48/23/43 46/21/43 
f 41/19/45 46/21/45 47/20/45 
f 46/21/46 48/23/46 47/20/46 
# 0 polygons - 25 triangles

#
# object arml_0_0_012
#

v  0.0970 0.1512 0.0011
v  0.1238 0.1658 -0.0452
v  0.1149 0.0958 0.0011
v  0.0945 0.1502 0.0011
v  0.1580 0.1668 -0.0297
v  0.1415 0.1013 -0.0252
v  0.1238 0.1658 0.0473
v  0.1443 0.0834 0.0011
v  0.1773 0.1674 0.0011
v  0.1672 0.1020 0.0011
v  0.1415 0.1013 0.0273
v  0.1580 0.1668 0.0319
# 12 vertices

vn -0.7980 -0.2585 -0.5443
vn 0.3909 -0.9182 -0.0635
vn 0.4089 -0.1649 -0.8975
vn 0.3909 -0.9182 0.0635
vn -0.7980 -0.2585 0.5443
vn -0.6084 -0.3822 -0.6955
vn -0.3355 -0.7947 -0.5059
vn 0.8234 -0.2425 -0.5130
vn 0.7117 -0.1101 -0.6938
vn -0.6084 -0.3822 0.6955
vn -0.3355 -0.7947 0.5059
vn 0.4089 -0.1649 0.8975
vn 0.7117 -0.1101 0.6938
vn 0.5413 -0.6671 -0.5119
vn 0.8234 -0.2425 0.5130
vn 0.5413 -0.6671 0.5119
# 16 vertex normals

vt 0.0000 0.0000 0.0000
# 1 texture coords

g arml_0_0_012
usemtl Material__280
s 1
f 49/24/47 50/24/47 51/24/47 
f 50/24/48 49/24/48 52/24/48 
f 53/24/49 54/24/49 50/24/49 
f 49/24/50 55/24/50 52/24/50 
f 55/24/51 49/24/51 51/24/51 
f 51/24/52 50/24/52 54/24/52 
f 51/24/53 54/24/53 56/24/53 
f 57/24/54 54/24/54 53/24/54 
f 54/24/55 57/24/55 58/24/55 
f 55/24/56 51/24/56 59/24/56 
f 59/24/57 51/24/57 56/24/57 
f 59/24/58 60/24/58 55/24/58 
f 57/24/59 59/24/59 58/24/59 
f 54/24/60 58/24/60 56/24/60 
f 59/24/61 57/24/61 60/24/61 
f 58/24/62 59/24/62 56/24/62 
# 0 polygons - 16 triangles

#
# object armr_0_0_014
#

v  -0.0979 0.1516 0.0010
v  -0.1247 0.1664 -0.0452
v  -0.0953 0.1509 0.0010
v  -0.1246 0.1663 0.0472
v  -0.1583 0.1679 0.0319
v  -0.1419 0.1018 0.0273
v  -0.1154 0.0962 0.0009
v  -0.1420 0.1019 -0.0253
v  -0.1449 0.0840 0.0010
v  -0.1584 0.1680 -0.0297
v  -0.1770 0.1679 0.0011
v  -0.1677 0.1028 0.0010
# 12 vertices

vn -0.2822 -0.9490 -0.1403
vn -0.2819 -0.9493 0.1392
vn -0.4157 -0.1655 0.8943
vn 0.8010 -0.2529 0.5427
vn 0.7997 -0.2519 -0.5451
vn 0.6097 -0.3792 0.6961
vn 0.6080 -0.3778 -0.6982
vn 0.3300 -0.7977 0.5047
vn -0.4179 -0.1637 -0.8936
vn -0.7118 -0.1027 0.6948
vn -0.5458 -0.6634 0.5119
vn 0.3288 -0.7968 -0.5070
vn -0.7135 -0.1013 -0.6933
vn -0.8306 -0.2397 -0.5027
vn -0.8294 -0.2407 0.5042
vn -0.5470 -0.6624 -0.5119
# 16 vertex normals

vt 0.0000 0.0000 0.0000
# 1 texture coords

g armr_0_0_014
usemtl Material__284
s 1
f 61/25/63 62/25/63 63/25/63 
f 64/25/64 61/25/64 63/25/64 
f 65/25/65 66/25/65 64/25/65 
f 61/25/66 64/25/66 67/25/66 
f 62/25/67 61/25/67 67/25/67 
f 67/25/68 64/25/68 66/25/68 
f 62/25/69 67/25/69 68/25/69 
f 67/25/70 66/25/70 69/25/70 
f 68/25/71 70/25/71 62/25/71 
f 66/25/72 71/25/72 72/25/72 
f 66/25/73 72/25/73 69/25/73 
f 68/25/74 67/25/74 69/25/74 
f 71/25/75 68/25/75 72/25/75 
f 68/25/76 71/25/76 70/25/76 
f 71/25/77 66/25/77 65/25/77 
f 72/25/78 68/25/78 69/25/78 
# 0 polygons - 16 triangles

#
# object legl_0_0_015
#

v  0.0138 0.0112 -0.0777
v  0.0138 0.0500 -0.0648
v  0.0404 0.0320 -0.0973
v  0.0020 0.0486 0.0032
v  0.0723 0.0539 -0.0775
v  0.0558 0.0874 -0.0059
v  0.0759 0.0123 -0.0889
v  0.0586 0.0401 0.0917
v  0.0053 0.0058 0.0052
v  0.0173 0.0151 0.0546
v  0.0205 -0.0035 -0.0256
v  0.0918 -0.0026 -0.0409
v  0.1148 0.0560 -0.0294
v  0.1077 -0.0029 0.0533
v  0.0448 -0.0035 0.0677
v  0.1145 0.0121 -0.0358
v  0.1071 0.0424 0.0832
v  0.0889 0.0018 0.0839
v  0.1307 0.0225 0.0324
v  0.1124 0.0208 0.0920
v  0.0624 0.0175 0.1019
# 21 vertices

vn -0.6881 0.2275 -0.6891
vn -0.9841 0.0543 -0.1690
vn -0.1558 0.8800 -0.4487
vn -0.5932 0.8004 -0.0865
vn -0.1340 -0.5835 -0.8010
vn -0.4950 0.7760 0.3909
vn -0.9909 -0.0820 -0.1069
vn -0.1791 0.7922 -0.5833
vn -0.9671 -0.0639 0.2462
vn -0.6809 -0.7230 -0.1169
vn -0.0308 -0.9628 -0.2685
vn 0.3639 0.2759 -0.8896
vn -0.0485 -0.9579 -0.2829
vn 0.3346 0.8806 -0.3356
vn 0.0087 -1.0000 -0.0016
vn 0.0116 -0.9999 -0.0049
vn 0.8064 0.0798 -0.5859
vn 0.5070 0.8509 0.1378
vn 0.0505 -0.9821 0.1813
vn 0.7856 0.6055 0.1271
vn 0.7219 0.2407 -0.6488
vn 0.4835 -0.7712 0.4141
vn 0.5572 -0.8247 -0.0967
vn 0.9716 0.0269 -0.2350
vn -0.7160 0.1822 0.6740
vn 0.7136 -0.6977 -0.0634
vn -0.7322 0.4502 0.5112
vn -0.6273 -0.7235 0.2881
vn 0.0337 0.8995 0.4356
vn -0.3709 -0.9236 0.0968
vn 0.5596 -0.7203 -0.4099
vn -0.6216 -0.4827 0.6169
vn -0.1075 -0.8219 0.5593
vn 0.1363 0.4260 0.8944
vn 0.1950 -0.5769 0.7932
vn 0.1499 0.4067 0.9012
vn 0.8089 -0.5397 0.2332
vn 0.8980 0.3352 0.2851
# 38 vertex normals

vt 0.0000 0.0000 0.0000
# 1 texture coords

g legl_0_0_015
usemtl Material__286
s 1
f 73/26/79 74/26/79 75/26/79 
f 73/26/80 76/26/80 74/26/80 
f 77/26/81 74/26/81 78/26/81 
f 74/26/82 76/26/82 78/26/82 
f 79/26/83 73/26/83 75/26/83 
f 78/26/84 76/26/84 80/26/84 
f 76/26/85 73/26/85 81/26/85 
f 77/26/86 75/26/86 74/26/86 
f 76/26/87 81/26/87 82/26/87 
f 73/26/88 83/26/88 81/26/88 
f 73/26/89 79/26/89 83/26/89 
f 79/26/90 75/26/90 77/26/90 
f 83/26/91 79/26/91 84/26/91 
f 78/26/92 85/26/92 77/26/92 
f 83/26/93 86/26/93 87/26/93 
f 83/26/94 84/26/94 86/26/94 
f 79/26/95 85/26/95 88/26/95 
f 85/26/96 78/26/96 89/26/96 
f 86/26/97 90/26/97 87/26/97 
f 91/26/98 85/26/98 89/26/98 
f 85/26/99 79/26/99 77/26/99 
f 92/26/100 90/26/100 86/26/100 
f 88/26/101 86/26/101 84/26/101 
f 88/26/102 85/26/102 91/26/102 
f 80/26/103 82/26/103 93/26/103 
f 86/26/104 88/26/104 91/26/104 
f 82/26/105 80/26/105 76/26/105 
f 81/26/106 87/26/106 82/26/106 
f 80/26/107 89/26/107 78/26/107 
f 87/26/108 81/26/108 83/26/108 
f 84/26/109 79/26/109 88/26/109 
f 87/26/110 93/26/110 82/26/110 
f 93/26/111 87/26/111 90/26/111 
f 93/26/112 89/26/112 80/26/112 
f 90/26/113 92/26/113 93/26/113 
f 93/26/114 92/26/114 89/26/114 
f 86/26/115 91/26/115 92/26/115 
f 91/26/116 89/26/116 92/26/116 
# 0 polygons - 38 triangles

#
# object arml_0_0_011
#

v  0.1238 0.1658 -0.0452
v  0.0758 0.2062 -0.0216
v  0.1067 0.2126 -0.0307
v  0.0945 0.1502 0.0011
v  0.0752 0.2069 0.0237
v  0.1044 0.2341 0.0011
v  0.1309 0.2230 -0.0125
v  0.1060 0.2121 0.0328
v  0.1580 0.1668 -0.0297
v  0.1238 0.1658 0.0473
v  0.1309 0.2230 0.0147
v  0.1773 0.1674 0.0011
v  0.1580 0.1668 0.0319
# 13 vertices

vn -0.3107 0.1759 -0.9341
vn -0.6714 -0.4597 -0.5812
vn -0.9475 -0.3196 -0.0070
vn -0.3224 0.7728 -0.5467
vn 0.0611 0.8285 -0.5566
vn -0.6907 0.7229 -0.0199
vn -0.2951 0.7775 0.5554
vn 0.3676 0.3950 -0.8420
vn -0.6709 -0.4606 0.5812
vn 0.4083 0.4414 -0.7990
vn 0.0521 0.8212 0.5682
vn 0.3855 0.9227 -0.0000
vn 0.7310 0.4957 -0.4690
vn 0.7676 0.6410 -0.0000
vn 0.3658 0.4037 0.8386
vn 0.3948 0.4376 0.8079
vn -0.3053 0.1760 0.9359
vn 0.7310 0.4957 0.4690
# 18 vertex normals

vt 0.0000 0.0000 0.0000
# 1 texture coords

g arml_0_0_011
usemtl Material__281
s 1
f 94/27/117 95/27/117 96/27/117 
f 94/27/118 97/27/118 95/27/118 
f 97/27/119 98/27/119 95/27/119 
f 99/27/120 96/27/120 95/27/120 
f 96/27/121 99/27/121 100/27/121 
f 98/27/122 99/27/122 95/27/122 
f 101/27/123 99/27/123 98/27/123 
f 96/27/124 102/27/124 94/27/124 
f 97/27/125 103/27/125 98/27/125 
f 102/27/126 96/27/126 100/27/126 
f 99/27/127 101/27/127 104/27/127 
f 100/27/128 99/27/128 104/27/128 
f 105/27/129 102/27/129 100/27/129 
f 105/27/130 100/27/130 104/27/130 
f 106/27/131 101/27/131 103/27/131 
f 106/27/132 104/27/132 101/27/132 
f 98/27/133 103/27/133 101/27/133 
f 104/27/134 106/27/134 105/27/134 
# 0 polygons - 18 triangles

#
# object legr_0_0_016
#

v  -0.0753 0.0114 -0.0885
v  -0.1156 0.0546 -0.0295
v  -0.0729 0.0531 -0.0775
v  -0.0403 0.0320 -0.0971
v  -0.0574 0.0878 -0.0062
v  -0.0143 0.0509 -0.0647
v  -0.1140 0.0106 -0.0355
v  -0.0909 -0.0035 -0.0404
v  -0.0133 0.0121 -0.0772
v  -0.1077 0.0422 0.0832
v  -0.1306 0.0212 0.0325
v  -0.0027 0.0506 0.0033
v  -0.0197 -0.0023 -0.0250
v  -0.1070 -0.0034 0.0537
v  -0.0591 0.0414 0.0918
v  -0.0048 0.0077 0.0057
v  -0.1124 0.0206 0.0922
v  -0.0171 0.0172 0.0550
v  -0.0441 -0.0020 0.0683
v  -0.0884 0.0022 0.0844
v  -0.0624 0.0187 0.1022
# 21 vertices

vn -0.7269 0.2144 -0.6524
vn -0.3695 0.2572 -0.8929
vn -0.3582 0.8677 -0.3447
vn 0.1582 0.7913 -0.5907
vn -0.8071 0.0517 -0.5882
vn 0.1322 0.8796 -0.4570
vn -0.5385 -0.7395 -0.4039
vn 0.6829 0.2398 -0.6900
vn -0.5307 0.8377 0.1286
vn -0.9715 -0.0023 -0.2370
vn 0.9826 0.0799 -0.1677
vn 0.0581 -0.9641 -0.2591
vn -0.8024 0.5847 0.1198
vn 0.0757 -0.9589 -0.2734
vn -0.6938 -0.7178 -0.0580
vn -0.5339 -0.8408 -0.0897
vn 0.4725 0.7932 0.3842
vn 0.9930 -0.0556 -0.1043
vn 0.0162 -0.9999 0.0048
vn 0.7010 -0.7049 -0.1086
vn -0.9075 0.3129 0.2802
vn -0.0596 0.9024 0.4267
vn 0.9680 -0.0347 0.2486
vn -0.7941 -0.5597 0.2369
vn 0.3962 -0.9120 0.1065
vn 0.7183 0.4752 0.5081
vn -0.4627 -0.7803 0.4207
vn 0.0191 -0.9998 0.0081
vn -0.1500 0.4306 0.8900
vn -0.1630 0.4111 0.8969
vn -0.0235 -0.9814 0.1907
vn 0.6465 -0.7030 0.2962
vn 0.7092 0.2084 0.6735
vn -0.1805 -0.5744 0.7984
vn 0.1291 -0.8132 0.5675
vn 0.6335 -0.4593 0.6227
vn 0.1518 -0.5873 -0.7950
vn 0.5709 0.8157 -0.0932
# 38 vertex normals

vt 0.0000 0.0000 0.0000
# 1 texture coords

g legr_0_0_016
usemtl Material__285
s 1
f 107/28/135 108/28/135 109/28/135 
f 110/28/136 107/28/136 109/28/136 
f 108/28/137 111/28/137 109/28/137 
f 110/28/138 109/28/138 112/28/138 
f 108/28/139 107/28/139 113/28/139 
f 112/28/140 109/28/140 111/28/140 
f 107/28/141 114/28/141 113/28/141 
f 112/28/142 115/28/142 110/28/142 
f 111/28/143 108/28/143 116/28/143 
f 108/28/144 113/28/144 117/28/144 
f 118/28/145 115/28/145 112/28/145 
f 107/28/146 115/28/146 119/28/146 
f 108/28/147 117/28/147 116/28/147 
f 107/28/148 119/28/148 114/28/148 
f 113/28/149 120/28/149 117/28/149 
f 120/28/150 113/28/150 114/28/150 
f 118/28/151 111/28/151 121/28/151 
f 115/28/152 118/28/152 122/28/152 
f 119/28/153 120/28/153 114/28/153 
f 119/28/154 115/28/154 122/28/154 
f 116/28/155 117/28/155 123/28/155 
f 116/28/156 121/28/156 111/28/156 
f 122/28/157 118/28/157 124/28/157 
f 117/28/158 120/28/158 123/28/158 
f 122/28/159 125/28/159 119/28/159 
f 121/28/160 124/28/160 118/28/160 
f 126/28/161 123/28/161 120/28/161 
f 119/28/162 125/28/162 120/28/162 
f 116/28/163 127/28/163 121/28/163 
f 116/28/164 123/28/164 127/28/164 
f 126/28/165 120/28/165 125/28/165 
f 125/28/166 122/28/166 124/28/166 
f 124/28/167 121/28/167 127/28/167 
f 123/28/168 126/28/168 127/28/168 
f 125/28/169 127/28/169 126/28/169 
f 127/28/170 125/28/170 124/28/170 
f 115/28/171 107/28/171 110/28/171 
f 118/28/172 112/28/172 111/28/172 
# 0 polygons - 38 triangles

#
# object body_0_0_009
#

v  -0.0002 0.0314 -0.0488
v  -0.0945 0.0568 -0.0488
v  -0.0727 0.0768 -0.0905
v  -0.1316 0.1384 -0.0479
v  -0.1008 0.1384 -0.0905
v  -0.0392 0.1049 -0.1186
v  -0.1026 0.0505 0.0011
v  -0.0002 0.0505 -0.0905
v  -0.1425 0.1384 0.0020
v  -0.0002 0.0913 -0.1186
v  0.0388 0.1049 -0.1186
v  -0.0002 0.0224 0.0011
v  -0.1271 0.0894 0.0491
v  -0.0528 0.0296 0.0491
v  0.0723 0.0768 -0.0905
v  -0.1008 0.2471 0.0020
v  -0.1271 0.1937 0.0491
v  0.0940 0.0568 -0.0488
v  0.0524 0.0296 0.0491
v  0.1022 0.0505 0.0011
v  0.1004 0.1384 -0.0905
v  0.1312 0.1384 -0.0479
v  0.1267 0.0894 0.0491
v  0.1421 0.1384 0.0020
v  0.1267 0.1937 0.0491
v  0.1004 0.2471 0.0020
# 26 vertices

vn -0.2232 -0.8289 -0.5129
vn -0.7578 -0.3390 -0.5575
vn -0.5045 -0.2300 -0.8322
vn -0.7600 -0.3465 -0.5498
vn -0.2565 -0.9527 -0.1632
vn -0.2032 -0.5604 -0.8029
vn -0.8935 -0.4033 -0.1975
vn -0.3132 -0.8639 -0.3944
vn -0.1941 -0.5565 -0.8078
vn -0.8934 -0.4048 -0.1949
vn 0.1941 -0.5565 -0.8078
vn -0.2606 -0.9499 -0.1727
vn -0.5984 -0.7435 0.2984
vn -0.9036 -0.4085 -0.1289
vn -0.9036 -0.4086 -0.1289
vn 0.3132 -0.8639 -0.3944
vn -0.2619 -0.9545 -0.1425
vn -0.9150 0.3507 -0.1996
vn 0.2032 -0.5604 -0.8029
vn -0.9505 0.0000 0.3107
vn 0.2561 -0.9511 -0.1729
vn 0.0000 -0.9888 0.1493
vn 0.2232 -0.8289 -0.5129
vn 0.2610 -0.9513 -0.1638
vn 0.5045 -0.2300 -0.8322
vn 0.7617 -0.3409 -0.5510
vn 0.2619 -0.9545 -0.1425
vn 0.5984 -0.7435 0.2984
vn 0.8935 -0.4033 -0.1975
vn 0.9505 0.0000 0.3107
vn 0.8934 -0.4048 -0.1949
vn -0.9277 0.3556 -0.1139
vn 0.9277 0.3556 -0.1139
vn 0.9036 -0.4085 -0.1289
vn 0.7548 -0.3441 -0.5584
vn 0.9150 0.3507 -0.1996
# 36 vertex normals

vt 0.0000 0.0000 0.0000
# 1 texture coords

g body_0_0_009
usemtl Material__282
s 1
f 128/29/173 129/29/173 130/29/173 
f 131/29/174 130/29/174 129/29/174 
f 132/29/175 133/29/175 130/29/175 
f 131/29/176 132/29/176 130/29/176 
f 128/29/177 134/29/177 129/29/177 
f 133/29/178 135/29/178 130/29/178 
f 136/29/179 129/29/179 134/29/179 
f 128/29/180 130/29/180 135/29/180 
f 133/29/181 137/29/181 135/29/181 
f 136/29/182 131/29/182 129/29/182 
f 138/29/183 135/29/183 137/29/183 
f 128/29/184 139/29/184 134/29/184 
f 140/29/185 134/29/185 141/29/185 
f 134/29/186 140/29/187 136/29/187 
f 142/29/188 128/29/188 135/29/188 
f 139/29/189 141/29/189 134/29/189 
f 143/29/190 131/29/190 136/29/190 
f 138/29/191 142/29/191 135/29/191 
f 144/29/192 136/29/192 140/29/192 
f 145/29/193 139/29/193 128/29/193 
f 141/29/194 139/29/194 146/29/194 
f 142/29/195 145/29/195 128/29/195 
f 145/29/196 147/29/196 139/29/196 
f 138/29/197 148/29/197 142/29/197 
f 145/29/198 148/29/198 149/29/198 
f 147/29/199 146/29/199 139/29/199 
f 146/29/200 147/29/200 150/29/200 
f 145/29/201 151/29/201 147/29/201 
f 150/29/202 151/29/202 152/29/202 
f 145/29/203 149/29/203 151/29/203 
f 136/29/204 144/29/204 143/29/204 
f 153/29/205 152/29/205 151/29/205 
f 151/29/206 150/29/206 147/29/206 
f 148/29/207 145/29/207 142/29/207 
f 149/29/208 153/29/208 151/29/208 
# 0 polygons - 35 triangles

#
# object armr_0_0_013
#

v  -0.1246 0.1663 0.0472
v  -0.0761 0.2063 0.0237
v  -0.1064 0.2121 0.0328
v  -0.1583 0.1679 0.0319
v  -0.0762 0.2064 -0.0216
v  -0.1049 0.2342 0.0011
v  -0.1314 0.2230 0.0147
v  -0.1064 0.2122 -0.0307
v  -0.1314 0.2230 -0.0125
v  -0.1770 0.1679 0.0011
v  -0.1584 0.1680 -0.0297
v  -0.1247 0.1664 -0.0452
v  -0.0953 0.1509 0.0010
# 13 vertices

vn 0.3138 0.1703 0.9341
vn -0.3630 0.4096 0.8369
vn 0.6956 0.7184 -0.0001
vn 0.3136 0.7722 0.5525
vn -0.3909 0.4431 0.8068
vn 0.3123 0.7733 -0.5518
vn -0.0565 0.8215 -0.5674
vn -0.3898 0.9209 0.0013
vn -0.7396 0.5017 0.4486
vn -0.7704 0.6375 0.0015
vn -0.3649 0.4112 -0.8353
vn -0.3928 0.4446 -0.8050
vn 0.6662 -0.4667 -0.5818
vn -0.7407 0.5026 -0.4459
vn 0.6675 -0.4678 0.5793
vn 0.9452 -0.3264 -0.0014
vn -0.0552 0.8204 0.5691
vn 0.3115 0.1721 -0.9345
# 18 vertex normals

vt 0.0000 0.0000 0.0000
# 1 texture coords

g armr_0_0_013
usemtl Material__283
s 1
f 154/30/209 155/30/209 156/30/209 
f 156/30/210 157/30/210 154/30/210 
f 158/30/211 159/30/211 155/30/211 
f 159/30/212 156/30/212 155/30/212 
f 160/30/213 157/30/213 156/30/213 
f 161/30/214 159/30/214 158/30/214 
f 159/30/215 161/30/215 162/30/215 
f 159/30/216 162/30/216 160/30/216 
f 157/30/217 160/30/217 163/30/217 
f 162/30/218 163/30/218 160/30/218 
f 164/30/219 161/30/219 165/30/219 
f 161/30/220 164/30/220 162/30/220 
f 166/30/221 165/30/221 158/30/221 
f 164/30/222 163/30/222 162/30/222 
f 154/30/223 166/30/223 155/30/223 
f 155/30/224 166/30/224 158/30/224 
f 156/30/225 159/30/225 160/30/225 
f 158/30/226 165/30/226 161/30/226 
# 0 polygons - 18 triangles

#
# object body_2367EECF_0_011
#

v  0.1366 0.2136 -0.0841
v  -0.0002 0.2109 -0.2037
v  -0.0002 0.3124 -0.1032
v  -0.1371 0.2136 -0.0841
# 4 vertices

vn 0.5188 0.6018 -0.6072
vn -0.5188 0.6018 -0.6072
# 2 vertex normals

vt 0.6602 0.4434 0.0000
vt 0.5098 0.4355 0.0000
vt 0.6367 0.7598 0.0000
# 3 texture coords

g body_2367EECF_0_011
usemtl Material__278
s 1
f 167/31/227 168/32/227 169/33/227 
f 168/32/228 170/31/228 169/33/228 
# 0 polygons - 2 triangles

#
# object body_34B84CAB_0_010
#

v  -0.1271 0.0894 0.0491
v  -0.0709 0.0876 0.0953
v  -0.1008 0.1384 0.0953
v  -0.0528 0.0296 0.0491
v  -0.0002 0.0559 0.0953
v  -0.1271 0.1937 0.0491
v  -0.0546 0.1384 0.1234
v  0.0524 0.0296 0.0491
v  -0.0383 0.1103 0.1234
v  -0.0002 0.0931 0.1234
v  0.0705 0.0876 0.0953
v  -0.0709 0.2154 0.0953
v  0.1267 0.0894 0.0491
v  -0.0528 0.2761 0.0500
v  -0.0002 0.1384 0.1334
v  0.0379 0.1103 0.1234
v  -0.0383 0.1801 0.1234
v  -0.0002 0.2471 0.0953
v  0.0542 0.1384 0.1234
v  -0.0002 0.1973 0.1234
v  0.1004 0.1384 0.0953
v  0.0379 0.1801 0.1234
v  0.1267 0.1937 0.0491
v  0.0705 0.2154 0.0953
v  0.0524 0.2761 0.0491
# 25 vertices

vn -0.6009 -0.3541 0.7166
vn -0.5060 -0.6287 0.5905
vn -0.2918 -0.6502 0.7015
vn -0.8693 0.0000 0.4943
vn -0.4967 -0.2927 0.8171
vn 0.0000 -0.8693 0.4943
vn -0.5005 -0.2906 0.8155
vn -0.2606 -0.5809 0.7711
vn -0.2632 -0.5818 0.7695
vn 0.2918 -0.6502 0.7015
vn 0.2612 -0.5822 0.7700
vn -0.5092 0.1977 0.8377
vn 0.5060 -0.6287 0.5905
vn -0.6416 0.5725 0.5105
vn -0.0967 -0.2139 0.9721
vn -0.1793 -0.1041 0.9783
vn 0.2621 -0.5794 0.7717
vn -0.5072 0.1985 0.8387
vn 0.0967 -0.2139 0.9721
vn -0.1799 0.0704 0.9812
vn -0.2147 0.4785 0.8514
vn 0.5005 -0.2906 0.8155
vn -0.0753 0.1664 0.9832
vn -0.2811 0.6265 0.7270
vn 0.4967 -0.2927 0.8171
vn 0.1793 -0.1041 0.9783
vn 0.1799 0.0704 0.9812
vn -0.2168 0.4793 0.8504
vn 0.8693 0.0000 0.4943
vn 0.0753 0.1664 0.9832
vn 0.2152 0.4795 0.8507
vn 0.2160 0.4775 0.8516
vn 0.2840 0.6330 0.7202
vn 0.6715 0.2607 0.6936
vn -0.6715 0.2607 0.6936
vn 0.5092 0.1977 0.8377
vn 0.5072 0.1985 0.8387
vn 0.6009 -0.3541 0.7166
vn 0.6404 0.5770 0.5069
# 39 vertex normals

vt 0.0947 0.2202 0.0000
vt 0.2735 0.2139 0.0000
vt 0.1792 0.4146 0.0000
vt 0.3328 -0.0156 0.0000
vt 0.5001 0.0884 0.0000
vt 0.0947 0.6328 0.0000
vt 0.3266 0.4146 0.0000
vt 0.6670 -0.0156 0.0000
vt 0.3771 0.3042 0.0000
vt 0.5001 0.2363 0.0000
vt 0.7267 0.2139 0.0000
vt 0.2735 0.7173 0.0000
vt 0.9051 0.2202 0.0000
vt 0.3328 0.9570 0.0000
vt 0.5001 0.4146 0.0000
vt 0.6227 0.3042 0.0000
vt 0.3771 0.5786 0.0000
vt 0.5001 0.8423 0.0000
vt 0.6732 0.4146 0.0000
vt 0.5001 0.6460 0.0000
vt 0.8206 0.4146 0.0000
vt 0.6227 0.5786 0.0000
vt 0.9051 0.6328 0.0000
vt 0.7267 0.7173 0.0000
vt 0.6670 0.9570 0.0000
# 25 texture coords

g body_34B84CAB_0_010
usemtl Material__276
s 1
f 171/34/229 172/35/229 173/36/229 
f 172/35/230 171/34/230 174/37/230 
f 174/37/231 175/38/231 172/35/231 
f 173/36/232 176/39/232 171/34/232 
f 172/35/233 177/40/233 173/36/233 
f 175/38/234 174/37/234 178/41/234 
f 172/35/235 179/42/235 177/40/235 
f 175/38/236 179/42/236 172/35/236 
f 175/38/237 180/43/237 179/42/237 
f 178/41/238 181/44/238 175/38/238 
f 181/44/239 180/43/239 175/38/239 
f 177/40/240 182/45/240 173/36/240 
f 181/44/241 178/41/241 183/46/241 
f 182/45/242 184/47/242 176/39/242 
f 185/48/243 179/42/243 180/43/243 
f 185/48/244 177/40/244 179/42/244 
f 181/44/245 186/49/245 180/43/245 
f 177/40/246 187/50/246 182/45/246 
f 185/48/247 180/43/247 186/49/247 
f 185/48/248 187/50/248 177/40/248 
f 187/50/249 188/51/249 182/45/249 
f 181/44/250 189/52/250 186/49/250 
f 185/48/251 190/53/251 187/50/251 
f 184/47/252 182/45/252 188/51/252 
f 181/44/253 191/54/253 189/52/253 
f 185/48/254 186/49/254 189/52/254 
f 185/48/255 189/52/255 192/55/255 
f 187/50/256 190/53/256 188/51/256 
f 191/54/257 183/46/257 193/56/257 
f 185/48/258 192/55/258 190/53/258 
f 190/53/259 194/57/259 188/51/259 
f 190/53/260 192/55/260 194/57/260 
f 195/58/261 188/51/261 194/57/261 
f 193/56/262 194/57/262 191/54/262 
f 176/39/263 173/36/263 182/45/263 
f 189/52/264 191/54/264 194/57/264 
f 189/52/265 194/57/265 192/55/265 
f 183/46/266 191/54/266 181/44/266 
f 194/57/267 193/56/267 195/58/267 
# 0 polygons - 39 triangles

