# 3ds Max Wavefront OBJ Exporter v0.97b - (c)2007 guruware
# File Created: 27.04.2019 23:24:26

mtllib kirbycf.mtl

#
# object legr_0_0_028
#

v  -0.0751 0.0108 -0.0896
v  -0.1154 0.0539 -0.0306
v  -0.0727 0.0525 -0.0786
v  -0.0401 0.0314 -0.0981
v  -0.0572 0.0872 -0.0073
v  -0.0141 0.0503 -0.0658
v  -0.1138 0.0100 -0.0366
v  -0.0907 -0.0042 -0.0415
v  -0.0131 0.0115 -0.0783
v  -0.1075 0.0416 0.0821
v  -0.1304 0.0206 0.0315
v  -0.0024 0.0499 0.0023
v  -0.0195 -0.0030 -0.0261
v  -0.1068 -0.0040 0.0527
v  -0.0589 0.0407 0.0907
v  -0.0046 0.0071 0.0046
v  -0.1122 0.0200 0.0912
v  -0.0169 0.0165 0.0540
v  -0.0439 -0.0027 0.0672
v  -0.0882 0.0015 0.0833
v  -0.0622 0.0181 0.1011
# 21 vertices

vn -0.7269 0.2144 -0.6524
vn -0.3695 0.2572 -0.8929
vn -0.3582 0.8677 -0.3447
vn 0.1582 0.7913 -0.5907
vn -0.8071 0.0517 -0.5882
vn 0.1322 0.8796 -0.4570
vn -0.5385 -0.7395 -0.4039
vn 0.6829 0.2398 -0.6900
vn -0.5307 0.8377 0.1286
vn -0.9715 -0.0023 -0.2370
vn 0.9826 0.0799 -0.1677
vn 0.0581 -0.9641 -0.2591
vn -0.8024 0.5847 0.1198
vn 0.0757 -0.9589 -0.2734
vn -0.6938 -0.7178 -0.0580
vn -0.5339 -0.8408 -0.0897
vn 0.4725 0.7932 0.3842
vn 0.9930 -0.0556 -0.1043
vn 0.0162 -0.9999 0.0048
vn 0.7010 -0.7049 -0.1086
vn -0.9075 0.3129 0.2802
vn -0.0596 0.9024 0.4267
vn 0.9680 -0.0347 0.2486
vn -0.7941 -0.5597 0.2369
vn 0.3962 -0.9120 0.1065
vn 0.7183 0.4752 0.5081
vn -0.4627 -0.7803 0.4207
vn 0.0191 -0.9998 0.0081
vn -0.1500 0.4306 0.8900
vn -0.1630 0.4111 0.8969
vn -0.0235 -0.9814 0.1907
vn 0.6465 -0.7030 0.2962
vn 0.7092 0.2084 0.6735
vn -0.1805 -0.5744 0.7984
vn 0.1291 -0.8132 0.5675
vn 0.6335 -0.4593 0.6227
vn 0.1518 -0.5873 -0.7950
vn 0.5709 0.8157 -0.0932
# 38 vertex normals

g legr_0_0_028
usemtl Material__816
s 1
f 1//1 2//1 3//1 
f 4//2 1//2 3//2 
f 2//3 5//3 3//3 
f 4//4 3//4 6//4 
f 2//5 1//5 7//5 
f 6//6 3//6 5//6 
f 1//7 8//7 7//7 
f 6//8 9//8 4//8 
f 5//9 2//9 10//9 
f 2//10 7//10 11//10 
f 12//11 9//11 6//11 
f 1//12 9//12 13//12 
f 2//13 11//13 10//13 
f 1//14 13//14 8//14 
f 7//15 14//15 11//15 
f 14//16 7//16 8//16 
f 12//17 5//17 15//17 
f 9//18 12//18 16//18 
f 13//19 14//19 8//19 
f 13//20 9//20 16//20 
f 10//21 11//21 17//21 
f 10//22 15//22 5//22 
f 16//23 12//23 18//23 
f 11//24 14//24 17//24 
f 16//25 19//25 13//25 
f 15//26 18//26 12//26 
f 20//27 17//27 14//27 
f 13//28 19//28 14//28 
f 10//29 21//29 15//29 
f 10//30 17//30 21//30 
f 20//31 14//31 19//31 
f 19//32 16//32 18//32 
f 18//33 15//33 21//33 
f 17//34 20//34 21//34 
f 19//35 21//35 20//35 
f 21//36 19//36 18//36 
f 9//37 1//37 4//37 
f 12//38 6//38 5//38 
# 0 polygons - 38 triangles

#
# object legl_0_0_027
#

v  0.0140 0.0106 -0.0787
v  0.0140 0.0493 -0.0659
v  0.0406 0.0314 -0.0984
v  0.0022 0.0480 0.0021
v  0.0725 0.0532 -0.0786
v  0.0560 0.0868 -0.0069
v  0.0761 0.0117 -0.0900
v  0.0588 0.0395 0.0906
v  0.0056 0.0052 0.0041
v  0.0175 0.0145 0.0535
v  0.0207 -0.0042 -0.0267
v  0.0920 -0.0033 -0.0420
v  0.1150 0.0554 -0.0304
v  0.1079 -0.0035 0.0522
v  0.0450 -0.0041 0.0667
v  0.1147 0.0115 -0.0369
v  0.1073 0.0418 0.0821
v  0.0892 0.0012 0.0829
v  0.1309 0.0219 0.0313
v  0.1126 0.0202 0.0910
v  0.0626 0.0168 0.1008
# 21 vertices

vn -0.6881 0.2275 -0.6891
vn -0.9841 0.0543 -0.1690
vn -0.1558 0.8800 -0.4487
vn -0.5932 0.8004 -0.0865
vn -0.1340 -0.5835 -0.8010
vn -0.4950 0.7760 0.3909
vn -0.9909 -0.0820 -0.1069
vn -0.1791 0.7922 -0.5833
vn -0.9671 -0.0639 0.2462
vn -0.6809 -0.7230 -0.1169
vn -0.0308 -0.9628 -0.2685
vn 0.3639 0.2759 -0.8896
vn -0.0485 -0.9579 -0.2829
vn 0.3346 0.8806 -0.3356
vn 0.0087 -1.0000 -0.0016
vn 0.0116 -0.9999 -0.0049
vn 0.8064 0.0798 -0.5859
vn 0.5070 0.8509 0.1378
vn 0.0505 -0.9821 0.1813
vn 0.7856 0.6055 0.1271
vn 0.7219 0.2407 -0.6488
vn 0.4835 -0.7712 0.4141
vn 0.5572 -0.8247 -0.0967
vn 0.9716 0.0269 -0.2350
vn -0.7160 0.1822 0.6740
vn 0.7136 -0.6977 -0.0634
vn -0.7322 0.4502 0.5112
vn -0.6273 -0.7235 0.2881
vn 0.0337 0.8995 0.4356
vn -0.3709 -0.9236 0.0968
vn 0.5596 -0.7203 -0.4099
vn -0.6216 -0.4827 0.6169
vn -0.1075 -0.8219 0.5593
vn 0.1363 0.4260 0.8944
vn 0.1950 -0.5769 0.7932
vn 0.1499 0.4067 0.9012
vn 0.8089 -0.5397 0.2332
vn 0.8980 0.3352 0.2851
# 38 vertex normals

g legl_0_0_027
usemtl Material__815
s 1
f 22//39 23//39 24//39 
f 22//40 25//40 23//40 
f 26//41 23//41 27//41 
f 23//42 25//42 27//42 
f 28//43 22//43 24//43 
f 27//44 25//44 29//44 
f 25//45 22//45 30//45 
f 26//46 24//46 23//46 
f 25//47 30//47 31//47 
f 22//48 32//48 30//48 
f 22//49 28//49 32//49 
f 28//50 24//50 26//50 
f 32//51 28//51 33//51 
f 27//52 34//52 26//52 
f 32//53 35//53 36//53 
f 32//54 33//54 35//54 
f 28//55 34//55 37//55 
f 34//56 27//56 38//56 
f 35//57 39//57 36//57 
f 40//58 34//58 38//58 
f 34//59 28//59 26//59 
f 41//60 39//60 35//60 
f 37//61 35//61 33//61 
f 37//62 34//62 40//62 
f 29//63 31//63 42//63 
f 35//64 37//64 40//64 
f 31//65 29//65 25//65 
f 30//66 36//66 31//66 
f 29//67 38//67 27//67 
f 36//68 30//68 32//68 
f 33//69 28//69 37//69 
f 36//70 42//70 31//70 
f 42//71 36//71 39//71 
f 42//72 38//72 29//72 
f 39//73 41//73 42//73 
f 42//74 41//74 38//74 
f 35//75 40//75 41//75 
f 40//76 38//76 41//76 
# 0 polygons - 38 triangles

#
# object armr_0_0_026
#

v  -0.0977 0.1510 -0.0001
v  -0.1245 0.1658 -0.0463
v  -0.0951 0.1502 -0.0001
v  -0.1244 0.1657 0.0462
v  -0.1581 0.1673 0.0308
v  -0.1417 0.1012 0.0262
v  -0.1152 0.0955 -0.0001
v  -0.1418 0.1013 -0.0264
v  -0.1447 0.0833 -0.0001
v  -0.1582 0.1673 -0.0308
v  -0.1768 0.1672 0.0000
v  -0.1675 0.1021 -0.0000
# 12 vertices

vn -0.2822 -0.9490 -0.1403
vn -0.2819 -0.9493 0.1392
vn -0.4157 -0.1655 0.8943
vn 0.8010 -0.2529 0.5427
vn 0.7997 -0.2519 -0.5451
vn 0.6097 -0.3792 0.6961
vn 0.6080 -0.3778 -0.6982
vn 0.3300 -0.7977 0.5047
vn -0.4179 -0.1637 -0.8936
vn -0.7118 -0.1027 0.6948
vn -0.5458 -0.6634 0.5119
vn 0.3288 -0.7968 -0.5070
vn -0.7135 -0.1013 -0.6933
vn -0.8306 -0.2397 -0.5026
vn -0.8294 -0.2407 0.5042
vn -0.5470 -0.6624 -0.5119
# 16 vertex normals

g armr_0_0_026
usemtl Material__820
s 1
f 43//77 44//77 45//77 
f 46//78 43//78 45//78 
f 47//79 48//79 46//79 
f 43//80 46//80 49//80 
f 44//81 43//81 49//81 
f 49//82 46//82 48//82 
f 44//83 49//83 50//83 
f 49//84 48//84 51//84 
f 50//85 52//85 44//85 
f 48//86 53//86 54//86 
f 48//87 54//87 51//87 
f 50//88 49//88 51//88 
f 53//89 50//89 54//89 
f 50//90 53//90 52//90 
f 53//91 48//91 47//91 
f 54//92 50//92 51//92 
# 0 polygons - 16 triangles

#
# object armr_0_0_025
#

v  -0.1244 0.1657 0.0462
v  -0.0759 0.2057 0.0226
v  -0.1062 0.2115 0.0317
v  -0.1581 0.1673 0.0308
v  -0.0760 0.2057 -0.0227
v  -0.1047 0.2336 0.0000
v  -0.1312 0.2223 0.0136
v  -0.1062 0.2115 -0.0317
v  -0.1312 0.2224 -0.0136
v  -0.1768 0.1672 0.0000
v  -0.1582 0.1673 -0.0308
v  -0.1245 0.1658 -0.0463
v  -0.0951 0.1502 -0.0001
# 13 vertices

vn 0.3138 0.1703 0.9341
vn -0.3630 0.4096 0.8369
vn 0.6956 0.7184 -0.0001
vn 0.3136 0.7722 0.5525
vn -0.3909 0.4431 0.8068
vn 0.3123 0.7733 -0.5518
vn -0.0565 0.8215 -0.5674
vn -0.3898 0.9209 0.0013
vn -0.7396 0.5017 0.4486
vn -0.7704 0.6375 0.0015
vn -0.3649 0.4112 -0.8353
vn -0.3928 0.4446 -0.8050
vn 0.6662 -0.4667 -0.5818
vn -0.7407 0.5026 -0.4459
vn 0.6675 -0.4678 0.5793
vn 0.9452 -0.3264 -0.0014
vn -0.0552 0.8204 0.5691
vn 0.3115 0.1721 -0.9345
# 18 vertex normals

g armr_0_0_025
usemtl Material__819
s 1
f 55//93 56//93 57//93 
f 57//94 58//94 55//94 
f 59//95 60//95 56//95 
f 60//96 57//96 56//96 
f 61//97 58//97 57//97 
f 62//98 60//98 59//98 
f 60//99 62//99 63//99 
f 60//100 63//100 61//100 
f 58//101 61//101 64//101 
f 63//102 64//102 61//102 
f 65//103 62//103 66//103 
f 62//104 65//104 63//104 
f 67//105 66//105 59//105 
f 65//106 64//106 63//106 
f 55//107 67//107 56//107 
f 56//108 67//108 59//108 
f 57//109 60//109 61//109 
f 59//110 66//110 62//110 
# 0 polygons - 18 triangles

#
# object arml_0_0_024
#

v  0.0972 0.1506 0.0000
v  0.1240 0.1652 -0.0462
v  0.1151 0.0952 0.0000
v  0.0947 0.1495 0.0000
v  0.1582 0.1662 -0.0308
v  0.1417 0.1007 -0.0263
v  0.1240 0.1652 0.0462
v  0.1445 0.0828 0.0000
v  0.1776 0.1668 0.0000
v  0.1674 0.1014 0.0000
v  0.1417 0.1007 0.0263
v  0.1582 0.1662 0.0308
# 12 vertices

vn -0.7980 -0.2585 -0.5443
vn 0.3909 -0.9182 -0.0635
vn 0.4089 -0.1649 -0.8975
vn 0.3909 -0.9182 0.0635
vn -0.7980 -0.2585 0.5443
vn -0.6084 -0.3822 -0.6955
vn -0.3355 -0.7947 -0.5059
vn 0.8234 -0.2425 -0.5130
vn 0.7117 -0.1101 -0.6938
vn -0.6084 -0.3822 0.6955
vn -0.3355 -0.7947 0.5059
vn 0.4089 -0.1649 0.8975
vn 0.7117 -0.1101 0.6938
vn 0.5413 -0.6671 -0.5119
vn 0.8234 -0.2425 0.5130
vn 0.5413 -0.6671 0.5119
# 16 vertex normals

g arml_0_0_024
usemtl Material__817
s 1
f 68//111 69//111 70//111 
f 69//112 68//112 71//112 
f 72//113 73//113 69//113 
f 68//114 74//114 71//114 
f 74//115 68//115 70//115 
f 70//116 69//116 73//116 
f 70//117 73//117 75//117 
f 76//118 73//118 72//118 
f 73//119 76//119 77//119 
f 74//120 70//120 78//120 
f 78//121 70//121 75//121 
f 78//122 79//122 74//122 
f 76//123 78//123 77//123 
f 73//124 77//124 75//124 
f 78//125 76//125 79//125 
f 77//126 78//126 75//126 
# 0 polygons - 16 triangles

#
# object arml_0_0_023
#

v  0.1240 0.1652 -0.0462
v  0.0760 0.2055 -0.0227
v  0.1069 0.2120 -0.0317
v  0.0947 0.1495 0.0000
v  0.0754 0.2062 0.0227
v  0.1046 0.2335 0.0000
v  0.1311 0.2224 -0.0136
v  0.1062 0.2114 0.0317
v  0.1582 0.1662 -0.0308
v  0.1240 0.1652 0.0462
v  0.1311 0.2224 0.0136
v  0.1776 0.1668 0.0000
v  0.1582 0.1662 0.0308
# 13 vertices

vn -0.3107 0.1759 -0.9341
vn -0.6714 -0.4597 -0.5812
vn -0.9475 -0.3196 -0.0070
vn -0.3224 0.7728 -0.5467
vn 0.0611 0.8285 -0.5566
vn -0.6907 0.7229 -0.0199
vn -0.2951 0.7775 0.5554
vn 0.3676 0.3950 -0.8420
vn -0.6709 -0.4606 0.5812
vn 0.4083 0.4414 -0.7990
vn 0.0521 0.8212 0.5682
vn 0.3855 0.9227 0.0000
vn 0.7310 0.4957 -0.4690
vn 0.7676 0.6410 0.0000
vn 0.3658 0.4037 0.8386
vn 0.3948 0.4376 0.8079
vn -0.3053 0.1760 0.9359
vn 0.7310 0.4957 0.4690
# 18 vertex normals

g arml_0_0_023
usemtl Material__818
s 1
f 80//127 81//127 82//127 
f 80//128 83//128 81//128 
f 83//129 84//129 81//129 
f 85//130 82//130 81//130 
f 82//131 85//131 86//131 
f 84//132 85//132 81//132 
f 87//133 85//133 84//133 
f 82//134 88//134 80//134 
f 83//135 89//135 84//135 
f 88//136 82//136 86//136 
f 85//137 87//137 90//137 
f 86//138 85//138 90//138 
f 91//139 88//139 86//139 
f 91//140 86//140 90//140 
f 92//141 87//141 89//141 
f 92//142 90//142 87//142 
f 84//143 89//143 87//143 
f 90//144 92//144 91//144 
# 0 polygons - 18 triangles

#
# object body_0_0_022
#

v  -0.0000 0.1523 -0.1568
v  -0.0000 0.0743 -0.1260
v  -0.1006 0.0743 -0.0888
v  -0.1160 0.1523 -0.1106
v  0.1006 0.0743 -0.0888
v  -0.1033 0.2311 -0.0961
v  -0.0643 0.2882 -0.0616
v  -0.0000 0.2311 -0.1350
v  -0.0861 0.2882 0.0000
v  -0.1251 0.2311 0.0000
v  -0.0000 0.3208 0.0000
v  -0.0000 0.2882 -0.0870
v  0.1160 0.1523 -0.1106
v  0.1033 0.2311 -0.0961
v  0.0643 0.2882 -0.0616
v  0.0861 0.2882 0.0000
v  0.1251 0.2311 0.0000
# 17 vertices

vn -0.3249 -0.3477 -0.8795
vn -0.3512 -0.3154 -0.8815
vn 0.3249 -0.3477 -0.8795
vn -0.3607 0.2245 -0.9053
vn -0.2749 0.6272 -0.7288
vn -0.3417 0.2499 -0.9060
vn -0.8119 0.5541 -0.1838
vn -0.7205 0.6452 -0.2543
vn -0.1372 0.9275 -0.3478
vn -0.2889 0.6163 -0.7326
vn 0.3512 -0.3154 -0.8815
vn -0.3516 0.9279 -0.1241
vn 0.3440 0.2231 -0.9121
vn 0.3586 0.2482 -0.8999
vn 0.2889 0.6163 -0.7326
vn 0.2749 0.6272 -0.7288
vn 0.7205 0.6452 -0.2543
vn 0.1372 0.9275 -0.3478
vn 0.3516 0.9279 -0.1241
vn 0.8119 0.5541 -0.1838
# 20 vertex normals

g body_0_0_022
usemtl Material__814
s 1
f 93//145 94//145 95//145 
f 93//146 95//146 96//146 
f 93//147 97//147 94//147 
f 98//148 93//148 96//148 
f 99//149 100//149 98//149 
f 98//150 100//150 93//150 
f 101//151 98//151 102//151 
f 98//152 101//152 99//152 
f 103//153 104//153 99//153 
f 100//154 99//154 104//154 
f 93//155 105//155 97//155 
f 103//156 99//156 101//156 
f 100//157 106//157 105//157 
f 100//158 105//158 93//158 
f 107//159 100//159 104//159 
f 100//160 107//160 106//160 
f 108//161 106//161 107//161 
f 103//162 107//162 104//162 
f 103//163 108//163 107//163 
f 106//164 108//164 109//164 
# 0 polygons - 20 triangles

#
# object body_0_0_021
#

v  -0.0000 0.0743 -0.1260
v  -0.0924 0.0634 -0.0816
v  -0.1006 0.0743 -0.0888
v  -0.1233 0.0634 0.0000
v  -0.0000 0.0634 -0.1151
v  -0.1332 0.0743 0.0000
v  0.0924 0.0634 -0.0816
v  -0.1305 0.0752 0.0444
v  -0.1405 0.0888 0.0498
v  -0.0924 0.0743 0.0281
v  -0.1260 0.0861 0.0589
v  -0.1359 0.1522 0.0825
v  0.1006 0.0743 -0.0888
v  0.1232 0.0634 0.0000
v  -0.1187 0.1522 0.0879
v  0.1332 0.0743 0.0000
v  -0.1024 0.2229 0.0879
v  0.0924 0.0743 0.0281
v  -0.0924 0.2229 0.0281
v  -0.1178 0.2229 0.0816
v  0.1305 0.0752 0.0444
v  -0.0643 0.2229 0.1323
v  0.1405 0.0888 0.0498
v  0.1260 0.0861 0.0589
v  0.1359 0.1522 0.0825
v  -0.0000 0.2229 0.1441
v  0.1187 0.1522 0.0879
v  0.0924 0.2229 0.0281
v  0.1024 0.2229 0.0879
v  0.0643 0.2229 0.1323
v  0.1178 0.2229 0.0816
# 31 vertices

vn -0.2594 -0.6628 -0.7024
vn -0.6826 -0.6838 -0.2579
vn -0.2485 -0.6849 -0.6849
vn -0.7115 -0.6522 -0.2614
vn 0.0000 -1.0000 -0.0000
vn -0.7359 -0.6746 0.0588
vn -0.7931 -0.6060 0.0609
vn 0.2485 -0.6849 -0.6849
vn 0.0927 -0.9586 0.2694
vn 0.2132 -0.8124 0.5427
vn -0.4986 -0.6114 0.6144
vn -0.5426 -0.3532 0.7621
vn 0.2594 -0.6628 -0.7024
vn 0.0000 -0.9326 0.3610
vn 0.5472 -0.3856 0.7429
vn -0.2810 -0.3593 0.8899
vn 0.6860 -0.6825 -0.2520
vn 0.7903 -0.1824 0.5849
vn 0.9864 -0.0000 0.1644
vn -0.2999 0.0891 0.9498
vn 0.7101 -0.6510 -0.2683
vn -0.0927 -0.9586 0.2694
vn -0.3793 0.0875 0.9211
vn 0.7359 -0.6746 0.0588
vn 0.7931 -0.6060 0.0609
vn 0.4986 -0.6114 0.6144
vn -0.2132 -0.8124 0.5427
vn 0.5426 -0.3532 0.7621
vn -0.5472 -0.3856 0.7429
vn 0.2810 -0.3593 0.8899
vn -0.9618 -0.2220 0.1603
vn -0.9155 -0.0000 0.4023
vn 0.2999 0.0891 0.9498
vn 0.3793 0.0875 0.9211
# 34 vertex normals

g body_0_0_021
usemtl Material__822
s 1
f 110//165 111//165 112//165 
f 113//166 112//166 111//166 
f 110//167 114//167 111//167 
f 113//168 115//168 112//168 
f 116//169 113//169 111//169 
f 117//170 115//170 113//170 
f 117//171 118//171 115//171 
f 116//169 111//169 114//169 
f 110//172 116//172 114//172 
f 113//173 119//173 117//173 
f 120//174 117//174 119//174 
f 117//175 120//175 118//175 
f 120//176 121//176 118//176 
f 110//177 122//177 116//177 
f 123//178 119//178 113//178 
f 119//179 124//179 120//179 
f 120//180 124//180 121//180 
f 123//169 113//169 116//169 
f 116//181 122//181 125//181 
f 119//182 126//182 124//182 
f 127//178 119//178 123//178 
f 119//183 128//183 126//183 
f 124//184 129//184 121//184 
f 116//185 125//185 123//185 
f 127//186 123//186 130//186 
f 124//187 126//187 129//187 
f 131//169 126//169 128//169 
f 125//188 130//188 123//188 
f 131//169 129//169 126//169 
f 125//189 132//189 130//189 
f 133//190 130//190 132//190 
f 130//191 133//191 127//191 
f 133//192 132//192 134//192 
f 131//169 128//169 135//169 
f 136//193 127//193 133//193 
f 133//194 134//194 136//194 
f 137//195 136//195 138//195 
f 137//169 135//169 128//169 
f 137//169 139//169 135//169 
f 127//196 136//196 137//196 
f 138//169 139//169 137//169 
f 136//197 134//197 140//197 
f 138//169 140//169 139//169 
f 136//198 140//198 138//198 
# 0 polygons - 44 triangles

#
# object head_3E38C4C2_0_008
#

v  -0.1332 0.0743 0.0000
v  -0.1504 0.1522 0.0000
v  -0.1160 0.1523 -0.1106
v  -0.1006 0.0743 -0.0888
v  -0.1033 0.2311 -0.0961
v  -0.1405 0.0888 0.0498
v  -0.1359 0.1522 0.0825
v  -0.1251 0.2311 0.0000
v  -0.1178 0.2229 0.0816
v  0.1504 0.1522 0.0000
v  0.1359 0.1522 0.0825
v  0.1405 0.0888 0.0498
v  0.1332 0.0743 0.0000
v  0.1251 0.2311 0.0000
v  0.1178 0.2229 0.0816
v  0.1006 0.0743 -0.0888
v  0.1160 0.1523 -0.1106
v  0.1033 0.2311 -0.0961
# 18 vertices

vn -0.9342 -0.2064 -0.2910
vn -0.9035 -0.2712 -0.3319
vn -0.9347 0.2040 -0.2911
vn -0.9734 -0.2151 -0.0790
vn -0.9389 0.3022 0.1651
vn -0.9847 -0.0187 0.1731
vn -0.9305 0.2995 -0.2107
vn -0.9624 0.2482 0.1104
vn 0.9847 -0.0187 0.1731
vn 0.9734 -0.2151 -0.0790
vn 0.9457 0.3043 0.1145
vn 0.9544 0.2469 0.1678
vn 0.9214 -0.2622 -0.2870
vn 0.9191 -0.2031 -0.3376
vn 0.9126 0.2937 -0.2843
vn 0.9568 0.1938 -0.2166
# 16 vertex normals

vt 0.5205 0.1943 0.0000
vt 0.5205 0.4697 0.0000
vt 0.1533 0.4697 0.0000
vt 0.2246 0.1943 0.0000
vt 0.2021 0.7461 0.0000
vt 0.6865 0.2441 0.0000
vt 0.7949 0.4697 0.0000
vt 0.5205 0.7461 0.0000
vt 0.7910 0.7168 0.0000
# 9 texture coords

g head_3E38C4C2_0_008
usemtl Material__810
s 1
f 141/1/199 142/2/199 143/3/199 
f 141/1/200 143/3/200 144/4/200 
f 142/2/201 145/5/201 143/3/201 
f 146/6/202 142/2/202 141/1/202 
f 147/7/203 148/8/203 142/2/203 
f 146/6/204 147/7/204 142/2/204 
f 142/2/205 148/8/205 145/5/205 
f 147/7/206 149/9/206 148/8/206 
f 150/2/207 151/7/207 152/6/207 
f 150/2/208 152/6/208 153/1/208 
f 150/2/209 154/8/209 155/9/209 
f 150/2/210 155/9/210 151/7/210 
f 156/4/211 157/3/211 150/2/211 
f 156/4/212 150/2/212 153/1/212 
f 157/3/213 154/8/213 150/2/213 
f 157/3/214 158/5/214 154/8/214 
# 0 polygons - 16 triangles

#
# object head_7A43A82E_0_007
#

v  -0.1015 0.1586 0.1069
v  -0.0000 0.2238 0.1260
v  -0.0888 0.2238 0.0888
v  -0.1260 0.2238 0.0000
v  -0.0526 0.1423 0.1332
v  -0.0000 0.1686 0.1359
v  0.1033 0.1586 0.1069
v  0.0526 0.1423 0.1332
v  0.0888 0.2238 0.0888
v  0.1260 0.2238 0.0000
# 10 vertices

vn -0.3664 0.3145 0.8757
vn -0.8868 0.2755 0.3710
vn -0.1383 0.1758 0.9747
vn -0.3660 0.3137 0.8762
vn 0.3573 0.3086 0.8815
vn 0.1383 0.1758 0.9747
vn 0.8806 0.2980 0.3684
vn 0.3652 0.3236 0.8729
# 8 vertex normals

vt 0.1322 12.0943 0.0000
vt 0.3109 11.7344 0.0000
vt 0.1004 12.0223 0.0000
vt 0.0343 11.6624 0.0000
vt 0.2325 11.3744 0.0000
vt 0.3109 10.7985 0.0000
vt 0.4871 12.1663 0.0000
vt 0.3867 11.3744 0.0000
vt 0.5189 12.2383 0.0000
vt 0.5850 11.8783 0.0000
# 10 texture coords

g head_7A43A82E_0_007
usemtl Material__811
s 1
f 159/10/215 160/11/215 161/12/215 
f 159/10/216 161/12/216 162/13/216 
f 160/11/217 163/14/217 164/15/217 
f 163/14/218 160/11/218 159/10/218 
f 165/16/219 160/11/219 166/17/219 
f 166/17/220 160/11/220 164/15/220 
f 167/18/221 165/16/221 168/19/221 
f 160/11/222 165/16/222 167/18/222 
# 0 polygons - 8 triangles

#
# object head_2EA5BBF9_0_006
#

v  -0.0861 0.2882 0.0000
v  -0.1178 0.2229 0.0816
v  -0.0616 0.2882 0.0616
v  -0.1251 0.2311 0.0000
v  -0.0643 0.2229 0.1323
v  -0.0000 0.2882 0.0870
v  -0.0000 0.2229 0.1441
v  -0.0000 0.3208 0.0000
v  0.0616 0.2882 0.0616
v  0.0861 0.2882 0.0000
v  0.0643 0.2229 0.1323
v  0.1178 0.2229 0.0816
v  0.1251 0.2311 0.0000
# 13 vertices

vn -0.6863 0.6743 0.2725
vn -0.8191 0.5591 0.1287
vn -0.2669 0.7132 0.6481
vn -0.5338 0.6315 0.5624
vn -0.1365 0.6523 0.7455
vn -0.1431 0.9267 0.3475
vn 0.3509 0.9260 0.1393
vn 0.1431 0.9267 0.3475
vn 0.2669 0.7132 0.6481
vn 0.1365 0.6523 0.7455
vn 0.8191 0.5591 0.1287
vn 0.6863 0.6743 0.2725
vn -0.3509 0.9260 0.1393
vn 0.5338 0.6315 0.5624
# 14 vertex normals

vt 0.0293 0.4482 0.0000
vt -0.1426 0.0078 0.0000
vt 0.1641 0.4482 0.0000
vt -0.1836 0.0625 0.0000
vt 0.1484 0.0078 0.0000
vt 0.5000 0.4482 0.0000
vt 0.5000 0.0078 0.0000
vt 0.5000 0.6699 0.0000
vt 0.8350 0.4482 0.0000
vt 0.9697 0.4482 0.0000
vt 0.8506 0.0078 0.0000
vt 1.1426 0.0078 0.0000
vt 1.1836 0.0625 0.0000
# 13 texture coords

g head_2EA5BBF9_0_006
usemtl Material__812
s 1
f 169/20/223 170/21/223 171/22/223 
f 170/21/224 169/20/224 172/23/224 
f 173/24/225 174/25/225 171/22/225 
f 173/24/226 171/22/226 170/21/226 
f 173/24/227 175/26/227 174/25/227 
f 176/27/228 171/22/228 174/25/228 
f 176/27/229 177/28/229 178/29/229 
f 176/27/230 174/25/230 177/28/230 
f 174/25/231 179/30/231 177/28/231 
f 174/25/232 175/26/232 179/30/232 
f 178/29/233 180/31/233 181/32/233 
f 180/31/234 178/29/234 177/28/234 
f 176/27/235 169/20/235 171/22/235 
f 177/28/236 179/30/236 180/31/236 
# 0 polygons - 14 triangles

#
# object head_34B9100B_0_017
#

v  -0.0526 0.0290 0.0480
v  -0.0000 0.0553 0.0943
v  -0.0707 0.0870 0.0943
v  -0.1269 0.0888 0.0480
v  -0.0381 0.1097 0.1223
v  0.0526 0.0290 0.0480
v  -0.0544 0.1377 0.1223
v  -0.1006 0.1377 0.0943
v  -0.1269 0.1930 0.0480
v  -0.0707 0.2148 0.0943
v  -0.0000 0.0924 0.1223
v  0.0707 0.0870 0.0943
v  0.1269 0.0888 0.0480
v  -0.0526 0.2755 0.0489
v  -0.0000 0.1377 0.1323
v  0.0381 0.1097 0.1223
v  -0.0381 0.1794 0.1223
v  0.0544 0.1377 0.1223
v  0.1006 0.1377 0.0943
v  -0.0000 0.2465 0.0943
v  -0.0000 0.1967 0.1223
v  0.0381 0.1794 0.1223
v  0.0707 0.2148 0.0943
v  0.1269 0.1930 0.0480
v  0.0526 0.2755 0.0480
# 25 vertices

vn -0.2918 -0.6502 0.7015
vn -0.5060 -0.6287 0.5905
vn -0.2606 -0.5809 0.7711
vn 0.0000 -0.8693 0.4943
vn -0.4967 -0.2927 0.8171
vn -0.5005 -0.2906 0.8155
vn -0.6715 0.2607 0.6936
vn -0.8693 -0.0000 0.4943
vn -0.2632 -0.5818 0.7695
vn 0.2918 -0.6502 0.7015
vn 0.2612 -0.5822 0.7700
vn -0.5092 0.1977 0.8377
vn 0.5060 -0.6287 0.5905
vn -0.6416 0.5725 0.5105
vn -0.0967 -0.2139 0.9721
vn -0.1793 -0.1041 0.9783
vn 0.2621 -0.5794 0.7717
vn -0.5072 0.1985 0.8387
vn 0.5005 -0.2906 0.8155
vn -0.1799 0.0704 0.9812
vn 0.6009 -0.3541 0.7166
vn -0.2147 0.4785 0.8514
vn 0.1793 -0.1041 0.9783
vn -0.0753 0.1664 0.9832
vn -0.2168 0.4793 0.8504
vn 0.4967 -0.2927 0.8171
vn 0.0753 0.1664 0.9832
vn 0.1799 0.0704 0.9812
vn 0.5092 0.1977 0.8377
vn 0.8693 -0.0000 0.4943
vn 0.2160 0.4775 0.8516
vn 0.5072 0.1985 0.8387
vn 0.2840 0.6330 0.7202
vn 0.2152 0.4795 0.8507
vn -0.6009 -0.3541 0.7166
vn 0.6404 0.5770 0.5069
vn -0.2811 0.6265 0.7270
vn 0.0967 -0.2139 0.9721
vn 0.6715 0.2607 0.6936
# 39 vertex normals

vt 0.3346 -0.0190 0.0000
vt 0.5023 0.0786 0.0000
vt 0.2749 0.1958 0.0000
vt 0.0958 0.2017 0.0000
vt 0.3791 0.2808 0.0000
vt 0.6696 -0.0190 0.0000
vt 0.3283 0.3843 0.0000
vt 0.1805 0.3843 0.0000
vt 0.0958 0.5884 0.0000
vt 0.2749 0.6675 0.0000
vt 0.5023 0.2168 0.0000
vt 0.7293 0.1958 0.0000
vt 0.9088 0.2017 0.0000
vt 0.3346 0.8926 0.0000
vt 0.5023 0.3843 0.0000
vt 0.6251 0.2808 0.0000
vt 0.3791 0.5376 0.0000
vt 0.6759 0.3843 0.0000
vt 0.8237 0.3843 0.0000
vt 0.5023 0.7852 0.0000
vt 0.5023 0.6011 0.0000
vt 0.6251 0.5376 0.0000
vt 0.7293 0.6675 0.0000
vt 0.9088 0.5884 0.0000
vt 0.6696 0.8926 0.0000
# 25 texture coords

g head_34B9100B_0_017
usemtl Material__813
s 1
f 182/33/237 183/34/237 184/35/237 
f 184/35/238 185/36/238 182/33/238 
f 183/34/239 186/37/239 184/35/239 
f 183/34/240 182/33/240 187/38/240 
f 184/35/241 188/39/241 189/40/241 
f 184/35/242 186/37/242 188/39/242 
f 190/41/243 189/40/243 191/42/243 
f 189/40/244 190/41/244 185/36/244 
f 183/34/245 192/43/245 186/37/245 
f 187/38/246 193/44/246 183/34/246 
f 193/44/247 192/43/247 183/34/247 
f 188/39/248 191/42/248 189/40/248 
f 193/44/249 187/38/249 194/45/249 
f 191/42/250 195/46/250 190/41/250 
f 196/47/251 186/37/251 192/43/251 
f 196/47/252 188/39/252 186/37/252 
f 193/44/253 197/48/253 192/43/253 
f 188/39/254 198/49/254 191/42/254 
f 193/44/255 199/50/255 197/48/255 
f 196/47/256 198/49/256 188/39/256 
f 194/45/257 200/51/257 193/44/257 
f 198/49/258 201/52/258 191/42/258 
f 196/47/259 197/48/259 199/50/259 
f 196/47/260 202/53/260 198/49/260 
f 198/49/261 202/53/261 201/52/261 
f 193/44/262 200/51/262 199/50/262 
f 196/47/263 203/54/263 202/53/263 
f 196/47/264 199/50/264 203/54/264 
f 199/50/265 200/51/265 204/55/265 
f 200/51/266 194/45/266 205/56/266 
f 202/53/267 203/54/267 204/55/267 
f 199/50/268 204/55/268 203/54/268 
f 206/57/269 201/52/269 204/55/269 
f 202/53/270 204/55/270 201/52/270 
f 185/36/271 184/35/271 189/40/271 
f 204/55/272 205/56/272 206/57/272 
f 195/46/273 191/42/273 201/52/273 
f 196/47/274 192/43/274 197/48/274 
f 205/56/275 204/55/275 200/51/275 
# 0 polygons - 39 triangles

#
# object body_0_0_020
#

v  -0.1223 0.0933 0.0009
v  -0.1133 0.0970 -0.0498
v  -0.0943 0.0562 -0.0498
v  -0.0725 0.0761 -0.0915
v  -0.1024 0.0498 0.0000
v  -0.0000 0.0308 -0.0498
v  -0.1269 0.0888 0.0480
v  -0.0000 0.0906 -0.1196
v  -0.0000 0.0498 -0.0915
v  -0.0526 0.0290 0.0480
v  -0.0000 0.0217 0.0000
v  0.0725 0.0761 -0.0915
v  0.1024 0.0498 0.0000
v  0.0526 0.0290 0.0480
v  0.0942 0.0562 -0.0498
v  0.1223 0.0933 0.0009
v  0.1269 0.0888 0.0480
v  0.1133 0.0970 -0.0498
# 18 vertices

vn -0.8899 -0.4153 -0.1886
vn -0.7511 -0.3505 -0.5595
vn -0.8927 -0.4050 -0.1976
vn -0.2232 -0.8289 -0.5129
vn -0.2565 -0.9527 -0.1632
vn -0.9028 -0.4111 -0.1263
vn -0.2014 -0.5557 -0.8066
vn -0.3132 -0.8639 -0.3944
vn -0.5984 -0.7435 0.2984
vn -0.2606 -0.9499 -0.1727
vn -0.2619 -0.9545 -0.1425
vn 0.2014 -0.5557 -0.8066
vn 0.2619 -0.9545 -0.1425
vn 0.0000 -0.9888 0.1493
vn 0.8927 -0.4050 -0.1976
vn 0.2610 -0.9513 -0.1638
vn 0.9028 -0.4111 -0.1263
vn 0.8899 -0.4153 -0.1886
vn 0.7511 -0.3505 -0.5595
vn 0.2561 -0.9511 -0.1729
vn 0.2232 -0.8289 -0.5129
vn 0.3132 -0.8639 -0.3944
vn 0.5984 -0.7435 0.2984
# 23 vertex normals

g body_0_0_020
usemtl Material__821
s 1
f 207//276 208//276 209//276 
f 208//277 210//277 209//277 
f 207//278 209//278 211//278 
f 212//279 209//279 210//279 
f 212//280 211//280 209//280 
f 213//281 207//281 211//281 
f 210//282 214//282 215//282 
f 212//283 210//283 215//283 
f 213//284 211//284 216//284 
f 212//285 217//285 211//285 
f 217//286 216//286 211//286 
f 214//287 218//287 215//287 
f 219//288 220//288 217//288 
f 216//289 217//289 220//289 
f 221//290 222//290 219//290 
f 221//291 219//291 217//291 
f 222//292 223//292 219//292 
f 221//293 224//293 222//293 
f 218//294 224//294 221//294 
f 221//295 217//295 212//295 
f 218//296 221//296 212//296 
f 218//297 212//297 215//297 
f 220//298 219//298 223//298 
# 0 polygons - 23 triangles

