# 3ds Max Wavefront OBJ Exporter v0.97b - (c)2007 guruware
# File Created: 25.07.2018 00:58:19

mtllib samus.mtl

#
# object Nemu_41230451_0_016
#

v  -0.0434 0.0009 -0.0583
v  -0.0934 0.0421 -0.0505
v  -0.0434 0.0423 -0.0474
v  -0.0701 0.0479 0.0065
v  -0.0914 0.0006 -0.0614
v  -0.1102 -0.0003 0.0354
v  -0.0332 0.0005 0.0391
v  -0.0737 0.0215 0.0698
v  -0.0750 -0.0003 0.0812
# 9 vertices

vn 0.0594 0.2544 -0.9653
vn 0.0024 0.9948 -0.1019
vn -0.9815 0.0028 -0.1913
vn 0.0605 0.2557 -0.9649
vn 0.6676 0.6981 0.2586
vn -0.6859 0.6970 0.2091
vn -0.6612 0.7049 0.2567
vn 0.9942 0.0275 -0.1038
vn -0.7439 0.3471 0.5710
vn 0.6198 0.7112 0.3318
vn 0.6708 0.3118 0.6730
vn 0.0103 -0.9999 -0.0092
vn 0.0102 -0.9999 -0.0070
vn 0.0067 -1.0000 -0.0049
# 14 vertex normals

vt 0.0034 1.0167 0.0000
vt 0.0479 0.3455 0.0000
vt 0.0679 0.3460 0.0000
vt 0.3931 0.2528 0.0000
vt -0.0107 1.0176 0.0000
vt 0.5625 1.0302 0.0000
vt 0.5879 1.0284 0.0000
vt 0.7690 0.6732 0.0000
vt 0.8330 1.0339 0.0000
# 9 texture coords

g Nemu_41230451_0_016
usemtl Material__903
s 1
f 1/1/1 2/2/1 3/3/1 
f 2/2/2 4/4/2 3/3/2 
f 2/2/3 5/5/3 6/6/3 
f 1/1/4 5/5/4 2/2/4 
f 4/4/5 7/7/5 3/3/5 
f 6/6/6 4/4/6 2/2/6 
f 4/4/7 6/6/7 8/8/7 
f 3/3/8 7/7/8 1/1/8 
f 8/8/9 6/6/9 9/9/9 
f 8/8/10 7/7/10 4/4/10 
f 7/7/11 8/8/11 9/9/11 
f 6/6/12 7/7/12 9/9/12 
f 5/5/13 7/7/13 6/6/13 
f 5/5/14 1/1/14 7/7/14 
# 0 polygons - 14 triangles

#
# object Nemu_654D17E0_0_023
#

v  -0.0523 0.2665 0.0443
v  -0.0264 0.2213 -0.0177
v  -0.0837 0.2252 -0.0183
v  -0.1094 0.1875 -0.0159
v  -0.0114 0.1806 -0.0189
v  -0.0600 0.1587 0.0077
v  -0.0586 0.1808 -0.0701
v  -0.0873 0.1412 -0.0212
v  -0.0372 0.1371 -0.0218
v  -0.0635 0.1063 -0.0483
v  -0.0685 0.0252 -0.0036
v  -0.0856 0.0254 -0.0208
v  -0.0524 0.0240 -0.0205
v  -0.0689 0.0242 -0.0418
# 14 vertices

vn 0.0615 0.8185 -0.5712
vn -0.8239 0.5653 0.0406
vn 0.9301 0.3390 0.1414
vn -0.5294 -0.2379 0.8143
vn -0.6435 0.3985 -0.6535
vn 0.5584 -0.3022 0.7726
vn 0.7060 0.2800 -0.6505
vn -0.5641 -0.3531 0.7464
vn 0.5703 -0.3871 0.7245
vn -0.8802 -0.3889 -0.2722
vn -0.7235 -0.0124 0.6902
vn -0.7303 -0.1470 -0.6671
vn 0.7128 -0.2400 -0.6590
vn 0.7490 -0.1030 0.6545
vn -0.7100 -0.0081 0.7041
vn 0.8348 -0.4784 -0.2726
vn 0.7172 -0.0880 0.6913
vn 0.7665 -0.1098 -0.6328
vn -0.7824 0.0024 -0.6228
vn 0.7855 -0.0998 -0.6108
vn -0.7598 -0.0130 -0.6500
vn 0.0590 0.7719 -0.6330
# 22 vertex normals

vt 1.0000 1.0000 0.0000
vt 0.4492 0.8213 0.0000
vt 0.4492 0.8232 0.0000
vt 0.4492 0.6221 0.0000
vt 0.7070 0.5195 0.0000
vt 0.0000 0.6113 0.0000
vt 0.4053 0.4355 0.0000
vt 0.1318 0.3018 0.0000
vt 0.5879 0.0000 0.0000
vt 0.4141 0.0000 0.0000
vt 0.1953 0.0000 0.0000
# 11 texture coords

g Nemu_654D17E0_0_023
usemtl Material__901
s 1
f 10/10/15 11/11/15 12/12/15 
f 13/13/16 10/10/16 12/12/16 
f 14/13/17 11/11/17 10/10/17 
f 10/10/18 13/13/18 15/14/18 
f 12/12/19 16/15/19 13/13/19 
f 10/10/20 15/14/20 14/13/20 
f 16/15/21 11/11/21 14/13/21 
f 15/14/22 13/13/22 17/16/22 
f 18/16/23 14/13/23 15/14/23 
f 13/13/24 19/17/24 17/16/24 
f 17/16/25 20/18/25 15/14/25 
f 19/17/26 13/13/26 16/15/26 
f 14/13/27 19/17/27 16/15/27 
f 20/18/28 18/16/28 15/14/28 
f 17/16/29 21/19/29 20/18/29 
f 19/17/30 14/13/30 18/16/30 
f 20/18/31 22/19/31 18/16/31 
f 22/19/32 19/17/32 18/16/32 
f 19/17/33 23/20/33 21/19/33 
f 22/19/34 23/20/34 19/17/34 
f 19/17/35 21/19/35 17/16/35 
f 11/11/36 16/15/36 12/12/36 
# 0 polygons - 22 triangles

#
# object Nemu_0_0_025
#

v  -0.0102 0.3372 -0.0210
v  -0.0359 0.3628 -0.0647
v  -0.0361 0.3631 0.0219
v  -0.0704 0.4037 -0.0214
v  -0.0506 0.2174 -0.0052
v  -0.0503 0.1976 -0.0209
v  -0.0364 0.2173 -0.0219
v  -0.0676 0.2174 -0.0214
v  -0.0504 0.2170 -0.0384
# 9 vertices

vn 0.7065 0.7077 -0.0005
vn 0.7639 0.6454 -0.0001
vn 0.6760 -0.4523 0.5817
vn -0.5970 -0.5043 0.6239
vn -0.5992 -0.5364 -0.5944
vn 0.6653 -0.4983 -0.5559
# 6 vertex normals

g Nemu_0_0_025
usemtl Material__931
s 1
f 24//37 25//37 26//37 
f 26//38 25//38 27//38 
f 28//39 29//39 30//39 
f 31//40 29//40 28//40 
f 32//41 29//41 31//41 
f 30//42 29//42 32//42 
# 0 polygons - 6 triangles

#
# object Nemu_0_0_024
#

v  -0.0440 0.3035 0.0310
v  -0.0105 0.3031 -0.0210
v  -0.0102 0.3372 -0.0210
v  -0.0361 0.3631 0.0219
v  -0.0438 0.3035 -0.0737
v  -0.0364 0.2173 -0.0219
v  -0.0359 0.3628 -0.0647
v  -0.0506 0.2174 -0.0052
v  -0.0504 0.2170 -0.0384
# 9 vertices

vn 0.8407 -0.0092 0.5414
vn 0.8469 -0.0318 0.5307
vn 0.8457 -0.0087 -0.5336
vn 0.8134 -0.2497 0.5254
vn 0.8526 -0.0346 -0.5214
vn 0.7200 -0.3150 0.6184
vn 0.7289 -0.3056 -0.6127
vn 0.8199 -0.2415 -0.5191
# 8 vertex normals

g Nemu_0_0_024
usemtl Material__933
s 1
f 33//43 34//43 35//43 
f 33//44 35//44 36//44 
f 35//45 34//45 37//45 
f 33//46 38//46 34//46 
f 35//47 37//47 39//47 
f 33//48 40//48 38//48 
f 38//49 41//49 37//49 
f 38//50 37//50 34//50 
# 0 polygons - 8 triangles

#
# object Nemu_309F3D51_0_020
#

v  -0.1054 0.3359 -0.0216
v  -0.0440 0.3035 0.0310
v  -0.0361 0.3631 0.0219
v  -0.0704 0.4037 -0.0214
v  -0.0676 0.2174 -0.0214
v  -0.0506 0.2174 -0.0052
v  -0.0438 0.3035 -0.0737
v  -0.0504 0.2170 -0.0384
v  -0.0359 0.3628 -0.0647
# 9 vertices

vn -0.5757 0.1972 0.7935
vn -0.5893 0.3020 0.7494
vn -0.6701 -0.2434 0.7012
vn -0.6994 -0.2221 0.6794
vn -0.5309 0.2776 -0.8007
vn -0.6948 -0.2228 -0.6838
vn -0.6865 -0.2290 -0.6902
vn -0.6670 0.1984 -0.7182
# 8 vertex normals

vt 0.5000 0.6611 0.0000
vt 0.0000 0.5381 0.0000
vt 0.0000 0.8633 0.0000
vt 0.5000 1.0000 0.0000
vt 0.5059 0.1016 0.0000
vt 0.3105 0.1016 0.0000
vt 1.0000 0.5381 0.0000
vt 0.7002 0.1016 0.0000
vt 1.0000 0.8633 0.0000
# 9 texture coords

g Nemu_309F3D51_0_020
usemtl Material__898
s 1
f 42/21/51 43/22/51 44/23/51 
f 42/21/52 44/23/52 45/24/52 
f 46/25/53 47/26/53 43/22/53 
f 46/25/54 43/22/54 42/21/54 
f 45/24/55 48/27/55 42/21/55 
f 48/27/56 46/25/56 42/21/56 
f 48/27/57 49/28/57 46/25/57 
f 45/24/58 50/29/58 48/27/58 
# 0 polygons - 8 triangles

#
# object Nemu_41230451_0_015
#

v  0.0703 0.0479 0.0070
v  0.0935 0.0420 -0.0504
v  0.0435 0.0418 -0.0476
v  0.0436 0.0005 -0.0586
v  0.0915 0.0007 -0.0604
v  0.0332 0.0004 0.0395
v  0.1102 -0.0003 0.0358
v  0.0740 0.0222 0.0703
v  0.0740 -0.0006 0.0807
# 9 vertices

vn -0.0110 0.9944 -0.1053
vn -0.0553 0.2572 -0.9648
vn -0.0375 0.2370 -0.9708
vn -0.9941 0.0262 -0.1051
vn 0.6886 0.6947 0.2078
vn -0.6721 0.6965 0.2515
vn -0.6250 0.7099 0.3247
vn 0.9818 0.0003 -0.1899
vn -0.6724 0.3070 0.6735
vn 0.6701 0.7010 0.2440
vn 0.7485 0.2740 0.6039
vn -0.0090 -0.9999 -0.0138
vn -0.0085 -1.0000 -0.0021
vn 0.0035 -0.9999 -0.0105
# 14 vertex normals

vt 0.3921 0.2528 0.0000
vt 0.0479 0.3460 0.0000
vt 0.0659 0.3460 0.0000
vt 0.0020 1.0176 0.0000
vt -0.0107 1.0189 0.0000
vt 0.5864 1.0284 0.0000
vt 0.5635 1.0307 0.0000
vt 0.7690 0.6727 0.0000
vt 0.8330 1.0339 0.0000
# 9 texture coords

g Nemu_41230451_0_015
usemtl Material__904
s 1
f 51/30/59 52/31/59 53/32/59 
f 52/31/60 54/33/60 53/32/60 
f 52/31/61 55/34/61 54/33/61 
f 56/35/62 53/32/62 54/33/62 
f 51/30/63 57/36/63 52/31/63 
f 56/35/64 51/30/64 53/32/64 
f 56/35/65 58/37/65 51/30/65 
f 55/34/66 52/31/66 57/36/66 
f 58/37/67 56/35/67 59/38/67 
f 57/36/68 51/30/68 58/37/68 
f 57/36/69 58/37/69 59/38/69 
f 56/35/70 57/36/70 59/38/70 
f 54/33/71 57/36/71 56/35/71 
f 54/33/72 55/34/72 57/36/72 
# 0 polygons - 14 triangles

#
# object Nemu_654D17E0_0_022
#

v  0.0278 0.2204 -0.0176
v  0.0526 0.2664 0.0443
v  0.0830 0.2250 -0.0174
v  0.0117 0.1806 -0.0190
v  0.1097 0.1874 -0.0159
v  0.0603 0.1586 0.0077
v  0.0590 0.1808 -0.0701
v  0.0638 0.1063 -0.0483
v  0.0375 0.1371 -0.0218
v  0.0524 0.0239 -0.0205
v  0.0876 0.1411 -0.0211
v  0.0686 0.0251 -0.0036
v  0.0857 0.0253 -0.0208
v  0.0690 0.0242 -0.0418
# 14 vertices

vn -0.0644 0.8131 -0.5786
vn -0.9235 0.3723 0.0928
vn 0.8142 0.5805 0.0104
vn -0.5600 -0.3015 0.7717
vn -0.6991 0.3058 -0.6463
vn 0.5278 -0.2389 0.8151
vn -0.8351 -0.4771 -0.2739
vn -0.5719 -0.3863 0.7236
vn 0.6341 0.4256 -0.6456
vn -0.7122 -0.2388 -0.6601
vn -0.7546 -0.0923 0.6497
vn 0.5625 -0.3541 0.7472
vn 0.7225 -0.0137 0.6913
vn 0.7311 -0.1480 -0.6661
vn -0.7657 -0.1085 -0.6340
vn 0.8800 -0.3902 -0.2710
vn 0.7090 -0.0094 0.7052
vn -0.7167 -0.1029 0.6898
vn 0.7608 -0.0141 -0.6489
vn -0.7847 -0.0984 -0.6119
vn 0.7833 0.0013 -0.6216
vn -0.0613 0.7784 -0.6248
# 22 vertex normals

vt 0.4492 0.8213 0.0000
vt 1.0000 1.0000 0.0000
vt 0.4492 0.8232 0.0000
vt 0.4492 0.6221 0.0000
vt 0.7070 0.5195 0.0000
vt 0.0000 0.6113 0.0000
vt 0.1318 0.3018 0.0000
vt 0.4053 0.4355 0.0000
vt 0.4141 0.0000 0.0000
vt 0.5879 0.0000 0.0000
vt 0.1953 0.0000 0.0000
# 11 texture coords

g Nemu_654D17E0_0_022
usemtl Material__900
s 1
f 60/39/73 61/40/73 62/41/73 
f 60/39/74 63/42/74 61/40/74 
f 61/40/75 64/42/75 62/41/75 
f 65/43/76 61/40/76 63/42/76 
f 60/39/77 66/44/77 63/42/77 
f 64/42/78 61/40/78 65/43/78 
f 63/42/79 67/45/79 68/46/79 
f 63/42/80 68/46/80 65/43/80 
f 66/44/81 62/41/81 64/42/81 
f 67/45/82 63/42/82 66/44/82 
f 69/47/83 65/43/83 68/46/83 
f 64/42/84 65/43/84 70/46/84 
f 71/48/85 70/46/85 65/43/85 
f 64/42/86 67/45/86 66/44/86 
f 67/45/87 69/47/87 68/46/87 
f 67/45/88 64/42/88 70/46/88 
f 71/48/89 72/47/89 70/46/89 
f 69/47/90 71/48/90 65/43/90 
f 67/45/91 70/46/91 72/47/91 
f 67/45/92 73/49/92 69/47/92 
f 67/45/93 72/47/93 73/49/93 
f 66/44/94 60/39/94 62/41/94 
# 0 polygons - 22 triangles

#
# object Nemu_0_0_023
#

v  0.0365 0.3628 -0.0647
v  0.0366 0.3631 0.0219
v  0.0710 0.4036 -0.0213
v  0.0108 0.3373 -0.0211
v  0.0507 0.1976 -0.0209
v  0.0377 0.2174 -0.0218
v  0.0508 0.2170 -0.0384
v  0.0510 0.2174 -0.0052
v  0.0680 0.2174 -0.0214
# 9 vertices

vn -0.7629 0.6466 -0.0011
vn -0.7054 0.7088 -0.0014
vn -0.6963 -0.4778 -0.5356
vn -0.7030 -0.4360 0.5619
vn 0.5992 -0.5372 -0.5935
vn 0.5953 -0.5054 0.6247
# 6 vertex normals

g Nemu_0_0_023
usemtl Material__932
s 1
f 74//95 75//95 76//95 
f 74//96 77//96 75//96 
f 78//97 79//97 80//97 
f 78//98 81//98 79//98 
f 78//99 80//99 82//99 
f 78//100 82//100 81//100 
# 0 polygons - 6 triangles

#
# object Nemu_0_0_022
#

v  0.0108 0.3373 -0.0211
v  0.0111 0.3031 -0.0211
v  0.0445 0.3034 0.0310
v  0.0366 0.3631 0.0219
v  0.0377 0.2174 -0.0218
v  0.0444 0.3035 -0.0737
v  0.0365 0.3628 -0.0647
v  0.0510 0.2174 -0.0052
v  0.0508 0.2170 -0.0384
# 9 vertices

vn -0.8415 -0.0079 0.5402
vn -0.8478 -0.0306 0.5295
vn -0.8127 -0.2569 0.5230
vn -0.8449 -0.0073 -0.5349
vn -0.8519 -0.0332 -0.5227
vn -0.7436 -0.3061 0.5945
vn -0.7550 -0.2949 -0.5857
vn -0.8173 -0.2499 -0.5191
# 8 vertex normals

g Nemu_0_0_022
usemtl Material__934
s 1
f 83//101 84//101 85//101 
f 83//102 85//102 86//102 
f 87//103 85//103 84//103 
f 88//104 84//104 83//104 
f 88//105 83//105 89//105 
f 87//106 90//106 85//106 
f 88//107 91//107 87//107 
f 88//108 87//108 84//108 
# 0 polygons - 8 triangles

#
# object Nemu_309F3D51_0_019
#

v  0.0445 0.3034 0.0310
v  0.1060 0.3358 -0.0215
v  0.0710 0.4036 -0.0213
v  0.0366 0.3631 0.0219
v  0.0510 0.2174 -0.0052
v  0.0680 0.2174 -0.0214
v  0.0508 0.2170 -0.0384
v  0.0444 0.3035 -0.0737
v  0.0365 0.3628 -0.0647
# 9 vertices

vn 0.5368 0.2742 0.7979
vn 0.6691 0.1967 0.7167
vn 0.6687 -0.2446 0.7021
vn 0.6980 -0.2233 0.6804
vn 0.6958 -0.2263 -0.6816
vn 0.6884 -0.2215 -0.6906
vn 0.6684 0.1974 -0.7171
vn 0.5325 0.2769 -0.7999
# 8 vertex normals

vt 1.0000 0.5381 0.0000
vt 0.4990 0.6611 0.0000
vt 0.4990 1.0000 0.0000
vt 1.0000 0.8633 0.0000
vt 0.6875 0.1016 0.0000
vt 0.4922 0.1016 0.0000
vt 0.2969 0.1016 0.0000
vt 0.0000 0.5381 0.0000
vt 0.0000 0.8633 0.0000
# 9 texture coords

g Nemu_309F3D51_0_019
usemtl Material__897
s 1
f 92/50/109 93/51/109 94/52/109 
f 92/50/110 94/52/110 95/53/110 
f 92/50/111 96/54/111 97/55/111 
f 92/50/112 97/55/112 93/51/112 
f 93/51/113 98/56/113 99/57/113 
f 93/51/114 97/55/114 98/56/114 
f 94/52/115 99/57/115 100/58/115 
f 94/52/116 93/51/116 99/57/116 
# 0 polygons - 8 triangles

#
# object Nemu_328C1CEE_0_017
#

v  -0.1204 0.4294 -0.0279
v  -0.1239 0.4088 0.0139
v  -0.0820 0.4023 -0.0278
v  -0.1658 0.4171 -0.0281
v  -0.1519 0.2462 0.0056
v  -0.1241 0.4096 -0.0699
v  -0.1867 0.2530 -0.0303
v  -0.1519 0.2470 -0.0645
v  -0.1174 0.2402 -0.0296
# 9 vertices

vn 0.5247 0.7455 0.4110
vn -0.2412 0.8785 0.4124
vn -0.6982 0.0839 0.7109
vn -0.2385 0.8862 -0.3972
vn 0.6850 -0.1541 0.7121
vn 0.5290 0.7490 -0.3989
vn -0.7083 0.0811 0.7012
vn -0.6949 0.0981 -0.7124
vn -0.6899 0.0948 -0.7177
vn 0.6915 -0.1586 0.7047
vn 0.6910 -0.1415 -0.7088
vn -0.1824 -0.9832 -0.0113
vn -0.1827 -0.9831 -0.0113
vn 0.6877 -0.1424 -0.7119
# 14 vertex normals

vt 0.5000 1.0000 0.0000
vt 1.0000 0.9463 0.0000
vt 0.5000 0.9463 0.0000
vt 0.9160 0.5000 0.0000
vt 0.0000 0.9463 0.0000
vt 0.5000 0.5000 0.0000
vt 0.0830 0.5000 0.0000
# 7 texture coords

g Nemu_328C1CEE_0_017
usemtl Material__899
s 1
f 101/59/117 102/60/117 103/61/117 
f 101/59/118 104/61/118 102/60/118 
f 104/61/119 105/62/119 102/60/119 
f 101/59/120 106/63/120 104/61/120 
f 105/62/121 103/61/121 102/60/121 
f 101/59/122 103/61/122 106/63/122 
f 104/61/123 107/64/123 105/62/123 
f 106/63/124 107/64/124 104/61/124 
f 106/63/125 108/65/125 107/64/125 
f 105/62/126 109/64/126 103/61/126 
f 109/64/127 108/65/127 106/63/127 
f 108/65/128 105/62/128 107/64/128 
f 108/65/129 109/64/129 105/62/129 
f 109/64/130 106/63/130 103/61/130 
# 0 polygons - 14 triangles

#
# object Nemu_5E3E3C26_0_011
#

v  -0.1378 0.4280 -0.0278
v  -0.1172 0.4229 -0.0072
v  -0.1028 0.5006 0.0055
v  -0.1451 0.5090 -0.0281
v  -0.1031 0.5004 -0.0616
v  -0.0763 0.4890 -0.0276
v  -0.1176 0.4228 -0.0480
v  -0.0968 0.4187 -0.0275
v  -0.1204 0.4072 -0.0271
# 9 vertices

vn -0.7049 0.0148 0.7091
vn -0.6272 -0.0538 0.7770
vn -0.6295 -0.0592 -0.7747
vn 0.7140 -0.2400 0.6577
vn 0.7182 -0.2475 -0.6504
vn 0.6698 -0.1945 0.7167
vn -0.6599 -0.5342 0.5283
vn -0.7058 0.0082 -0.7084
vn 0.3781 -0.7540 0.5371
vn 0.6697 -0.1970 -0.7160
vn 0.3684 -0.7671 -0.5253
vn -0.6518 -0.5619 -0.5094
# 12 vertex normals

vt 0.8672 0.1680 0.0000
vt 0.5244 0.1680 0.0000
vt 0.5244 0.9717 0.0000
vt 0.9824 0.9717 0.0000
vt 0.0654 0.9717 0.0000
vt 0.1807 0.1680 0.0000
vt 0.5244 -0.0215 0.0000
# 7 texture coords

g Nemu_5E3E3C26_0_011
usemtl Material__890
s 1
f 110/66/131 111/67/131 112/68/131 
f 110/66/132 112/68/132 113/69/132 
f 114/68/133 110/66/133 113/69/133 
f 111/67/134 115/70/134 112/68/134 
f 115/70/135 116/67/135 114/68/135 
f 111/67/136 117/71/136 115/70/136 
f 110/66/137 118/72/137 111/67/137 
f 114/68/138 116/67/138 110/66/138 
f 111/67/139 118/72/139 117/71/139 
f 115/70/140 117/71/140 116/67/140 
f 117/71/141 118/72/141 116/67/141 
f 116/67/142 118/72/142 110/66/142 
# 0 polygons - 12 triangles

#
# object Nemu_7A5D28B3_0_010
#

v  -0.1541 0.6025 -0.0281
v  -0.1129 0.5445 0.0363
v  -0.1031 0.5935 0.0194
v  -0.0549 0.5908 -0.0282
v  -0.0981 0.6198 -0.0277
v  -0.1026 0.5931 -0.0782
v  -0.1727 0.5512 -0.0275
v  -0.1028 0.5006 0.0055
v  -0.0473 0.5373 -0.0275
v  -0.1451 0.5090 -0.0281
v  -0.1128 0.5441 -0.0958
v  -0.0763 0.4890 -0.0276
v  -0.1031 0.5004 -0.0616
# 13 vertices

vn -0.5999 0.3653 0.7118
vn 0.7019 0.1033 0.7047
vn -0.2635 0.8620 -0.4331
vn 0.4982 0.7330 0.4631
vn -0.2670 0.8532 0.4482
vn 0.4978 0.7468 -0.4410
vn -0.6443 -0.5331 0.5483
vn -0.6904 0.2601 0.6750
vn 0.6356 -0.3415 0.6924
vn 0.6991 0.1095 0.7066
vn -0.6150 -0.4120 0.6723
vn -0.7145 0.2516 -0.6529
vn 0.7222 0.0953 -0.6851
vn -0.6099 0.3768 -0.6972
vn 0.6461 -0.3905 0.6558
vn -0.6952 -0.4466 -0.5632
vn 0.7230 0.0935 -0.6845
vn -0.5765 -0.5799 -0.5757
vn 0.6694 -0.3603 -0.6497
vn 0.6458 -0.3867 -0.6584
# 20 vertex normals

vt 0.5092 0.6707 0.0000
vt 0.3588 0.4378 0.0000
vt 0.3574 0.6770 0.0000
vt 0.2187 0.7086 0.0000
vt 0.3609 0.8046 0.0000
vt 0.3585 0.6775 0.0000
vt 0.5324 0.4134 0.0000
vt 0.3045 0.2417 0.0000
vt 0.1682 0.4689 0.0000
vt 0.4294 0.2427 0.0000
vt 0.3601 0.4383 0.0000
vt 0.2214 0.2126 0.0000
vt 0.3052 0.2422 0.0000
# 13 texture coords

g Nemu_7A5D28B3_0_010
usemtl Material__911
s 1
f 119/73/143 120/74/143 121/75/143 
f 120/74/144 122/76/144 121/75/144 
f 119/73/145 123/77/145 124/78/145 
f 122/76/146 123/77/146 121/75/146 
f 121/75/147 123/77/147 119/73/147 
f 124/78/148 123/77/148 122/76/148 
f 125/79/149 126/80/149 120/74/149 
f 120/74/150 119/73/150 125/79/150 
f 126/80/151 127/81/151 120/74/151 
f 122/76/152 120/74/152 127/81/152 
f 125/79/153 128/82/153 126/80/153 
f 119/73/154 129/83/154 125/79/154 
f 122/76/155 129/83/155 124/78/155 
f 129/83/156 119/73/156 124/78/156 
f 126/80/157 130/84/157 127/81/157 
f 129/83/158 128/82/158 125/79/158 
f 129/83/159 122/76/159 127/81/159 
f 129/83/160 131/85/160 128/82/160 
f 130/84/161 131/85/161 129/83/161 
f 130/84/162 129/83/162 127/81/162 
# 0 polygons - 20 triangles

#
# object Nemu_5ED4FAFA_0_014
#

v  0.0423 0.5937 -0.0020
v  0.0003 0.5507 -0.0690
v  0.0003 0.6047 -0.0400
v  -0.0417 0.5937 -0.0020
v  0.0003 0.6127 -0.0020
v  0.0003 0.5897 0.0370
# 6 vertices

vn 0.6775 0.3480 -0.6480
vn -0.6775 0.3480 -0.6480
vn -0.3631 0.8026 0.4733
vn -0.4048 0.8948 -0.1884
vn 0.3631 0.8026 0.4733
vn 0.4048 0.8948 -0.1884
# 6 vertex normals

vt 1.0977 0.5705 0.0000
vt 0.4980 -0.0000 0.0000
vt 0.4980 0.2475 0.0000
vt -0.1025 0.5705 0.0000
vt 0.4980 0.5705 0.0000
vt 0.4980 0.8935 0.0000
# 6 texture coords

g Nemu_5ED4FAFA_0_014
usemtl Material__891
s 1
f 132/86/163 133/87/163 134/88/163 
f 133/87/164 135/89/164 134/88/164 
f 136/90/165 135/89/165 137/91/165 
f 136/90/166 134/88/166 135/89/166 
f 136/90/167 137/91/167 132/86/167 
f 136/90/168 132/86/168 134/88/168 
# 0 polygons - 6 triangles

#
# object Nemu_1BF7E8CF_0_013
#

v  0.0003 0.5897 0.0370
v  -0.0557 0.5317 0.0030
v  0.0003 0.5167 0.0490
v  -0.0417 0.5937 -0.0020
v  0.0563 0.5317 0.0030
v  0.0423 0.5937 -0.0020
# 6 vertices

vn -0.6086 0.1287 0.7829
vn -0.6551 0.2065 0.7267
vn 0.6551 0.2065 0.7267
vn 0.6086 0.1287 0.7829
# 4 vertex normals

vt 0.5000 0.5127 0.0000
vt 0.0000 0.1099 0.0000
vt 0.5000 0.0000 0.0000
vt 0.1460 0.5420 0.0000
vt 1.0000 0.1099 0.0000
vt 0.8535 0.5420 0.0000
# 6 texture coords

g Nemu_1BF7E8CF_0_013
usemtl Material__885
s 1
f 138/92/169 139/93/169 140/94/169 
f 139/93/170 138/92/170 141/95/170 
f 138/92/171 142/96/171 143/97/171 
f 142/96/172 138/92/172 140/94/172 
# 0 polygons - 4 triangles

#
# object Nemu_70107B35_0_012
#

v  0.0003 0.5507 -0.0690
v  0.0423 0.5937 -0.0020
v  0.0563 0.5317 0.0030
v  -0.0417 0.5937 -0.0020
v  -0.0557 0.5317 0.0030
# 5 vertices

vn 0.7990 0.1331 -0.5863
vn -0.7990 0.1331 -0.5863
# 2 vertex normals

vt 0.2734 0.0889 0.0000
vt 0.7339 0.6211 0.0000
vt 0.7666 -0.1787 0.0000
# 3 texture coords

g Nemu_70107B35_0_012
usemtl Material__902
s 1
f 144/98/173 145/99/173 146/100/173 
f 147/99/174 144/98/174 148/100/174 
# 0 polygons - 2 triangles

#
# object Nemu_41230451_0_014
#

v  0.1517 0.2919 0.0018
v  0.1188 0.3168 -0.0109
v  0.1084 0.2863 0.0019
v  0.1084 0.2859 -0.0548
v  0.1478 0.3213 -0.0488
v  0.1188 0.3166 -0.0423
v  0.1648 0.3179 -0.0158
v  0.1477 0.3217 -0.0042
v  0.1515 0.2925 -0.0550
v  0.1244 0.2585 -0.0489
v  0.1642 0.3176 -0.0372
v  0.1681 0.2941 -0.0128
v  0.1681 0.2949 -0.0391
v  0.1565 0.2629 -0.0488
v  0.1563 0.2632 -0.0033
v  0.1241 0.2588 -0.0034
v  0.1699 0.2822 -0.0158
v  0.1693 0.2819 -0.0372
# 18 vertices

vn -0.0496 0.4009 0.9148
vn -0.9473 0.3205 -0.0026
vn -0.1635 0.9865 -0.0076
vn -0.9475 0.3198 -0.0021
vn 0.2120 0.9772 -0.0068
vn -0.1634 0.9865 -0.0076
vn -0.2407 0.1731 -0.9550
vn -0.0633 0.3941 -0.9169
vn 0.0271 -0.1959 -0.9802
vn 0.2357 0.9716 -0.0196
vn 0.9905 0.1375 0.0035
vn 0.5945 0.1693 -0.7861
vn 0.0308 -0.1987 -0.9796
vn 0.6527 0.2385 -0.7191
vn 0.1361 -0.9907 0.0073
vn 0.9863 0.1622 -0.0299
vn 0.9951 0.0985 0.0023
vn 0.6935 -0.0377 -0.7194
vn 0.8133 -0.5818 0.0081
vn 0.6953 -0.0324 -0.7180
vn 0.8323 -0.5540 -0.0160
vn 0.5798 0.2353 0.7801
vn -0.8683 -0.4960 -0.0011
vn 0.0255 -0.1742 0.9844
vn -0.2482 0.1591 0.9556
vn 0.0198 -0.1696 0.9853
vn -0.8645 -0.5027 0.0037
vn 0.6399 0.1822 0.7465
vn 0.9849 0.1707 -0.0300
vn 0.7208 -0.0629 0.6903
vn 0.6662 -0.0250 0.7454
# 31 vertex normals

vt 0.3525 0.5928 0.0000
vt 0.1260 0.9805 0.0000
vt 0.0098 0.5928 0.0000
vt 0.3525 0.9805 0.0000
vt 0.4785 0.9102 0.0000
vt 0.0996 0.2051 0.0000
vt 0.4785 0.5928 0.0000
vt 0.3525 0.2051 0.0000
vt 0.4785 0.4248 0.0000
# 9 texture coords

g Nemu_41230451_0_014
usemtl Material__905
s 1
f 149/101/175 150/102/175 151/103/175 
f 152/103/176 151/103/176 150/102/176 
f 153/104/177 154/102/177 150/102/177 
f 152/103/178 150/102/178 154/102/178 
f 155/105/179 153/104/179 156/104/179 
f 153/104/180 150/102/180 156/104/180 
f 154/102/181 153/104/181 157/101/181 
f 154/102/182 157/101/182 152/103/182 
f 157/101/183 158/106/183 152/103/183 
f 155/105/184 159/105/184 153/104/184 
f 155/105/185 160/107/185 161/107/185 
f 153/104/186 159/105/186 161/107/186 
f 157/101/187 162/108/187 158/106/187 
f 153/104/188 161/107/188 157/101/188 
f 158/106/189 163/108/189 164/106/189 
f 158/106/189 162/108/189 163/108/189 
f 160/107/190 165/109/190 166/109/190 
f 160/107/191 166/109/191 161/107/191 
f 157/101/192 161/107/192 166/109/192 
f 162/108/193 165/109/193 163/108/193 
f 157/101/194 166/109/194 162/108/194 
f 162/108/195 166/109/195 165/109/195 
f 149/101/196 155/105/196 156/104/196 
f 158/106/197 164/106/197 151/103/197 
f 164/106/198 149/101/198 151/103/198 
f 149/101/199 156/104/199 150/102/199 
f 164/106/200 163/108/200 149/101/200 
f 158/106/201 151/103/201 152/103/201 
f 149/101/202 160/107/202 155/105/202 
f 155/105/203 161/107/203 159/105/203 
f 163/108/204 165/109/204 160/107/204 
f 163/108/205 160/107/205 149/101/205 
# 0 polygons - 32 triangles

#
# object Nemu_41230451_0_013
#

v  0.1260 0.3858 0.0050
v  0.1221 0.4114 -0.0031
v  0.0980 0.4074 -0.0272
v  0.1190 0.4259 -0.0275
v  0.1217 0.4120 -0.0517
v  0.0942 0.3801 -0.0275
v  0.1458 0.4160 -0.0276
v  0.1234 0.3075 -0.0276
v  0.1261 0.3863 -0.0598
v  0.1579 0.3919 -0.0273
v  0.1398 0.3099 -0.0108
v  0.1563 0.3131 -0.0274
v  0.1401 0.3097 -0.0442
v  0.1403 0.3099 -0.0269
# 14 vertices

vn -0.7117 0.1113 0.6936
vn -0.5793 0.6670 0.4686
vn -0.5929 0.6686 -0.4489
vn -0.7196 0.0929 0.6881
vn 0.3098 0.8345 0.4556
vn -0.7244 0.1052 -0.6814
vn 0.3092 0.8384 -0.4489
vn 0.6517 0.3158 0.6896
vn -0.6648 -0.2686 0.6970
vn -0.7172 0.0919 -0.6908
vn -0.6607 -0.2636 -0.7028
vn 0.6398 0.3289 0.6946
vn -0.6708 -0.2664 0.6921
vn 0.7130 -0.0168 0.7009
vn 0.7097 -0.0154 0.7044
vn -0.6613 -0.2634 -0.7024
vn 0.1393 -0.9902 0.0085
vn 0.1395 -0.9902 0.0056
vn 0.7213 -0.0136 -0.6925
vn 0.1970 -0.9804 0.0076
vn 0.6467 0.3267 -0.6893
vn 0.6447 0.3134 -0.6972
vn 0.7156 -0.0111 -0.6984
# 23 vertex normals

vt 0.2500 0.6572 0.0000
vt 0.2495 0.8770 0.0000
vt 0.0620 0.8770 0.0000
vt 0.2500 1.0000 0.0000
vt 0.0000 0.6572 0.0000
vt 0.4370 0.8770 0.0000
vt 0.1187 0.0000 0.0000
vt 0.5000 0.6572 0.0000
vt 0.2500 0.0000 0.0000
vt 0.3809 0.0000 0.0000
# 10 texture coords

g Nemu_41230451_0_013
usemtl Material__906
s 1
f 167/110/206 168/111/206 169/112/206 
f 170/113/207 169/112/207 168/111/207 
f 170/113/208 171/111/208 169/112/208 
f 167/110/209 169/112/209 172/114/209 
f 170/113/210 168/111/210 173/115/210 
f 171/111/211 172/114/211 169/112/211 
f 170/113/212 173/115/212 171/111/212 
f 167/110/213 173/115/213 168/111/213 
f 174/116/214 167/110/214 172/114/214 
f 171/111/215 175/110/215 172/114/215 
f 175/110/216 174/116/216 172/114/216 
f 167/110/217 176/117/217 173/115/217 
f 174/116/218 177/118/218 167/110/218 
f 177/118/219 176/117/219 167/110/219 
f 177/118/220 178/119/220 176/117/220 
f 175/110/221 179/118/221 174/116/221 
f 180/118/222 174/116/222 179/118/222 
f 180/118/223 177/118/223 174/116/223 
f 176/117/224 178/119/224 179/118/224 
f 180/118/225 178/119/225 177/118/225 
f 171/111/226 176/117/226 175/110/226 
f 171/111/227 173/115/227 176/117/227 
f 180/118/225 179/118/225 178/119/225 
f 176/117/228 179/118/228 175/110/228 
# 0 polygons - 24 triangles

#
# object Nemu_5E3E3C26_0_010
#

v  0.0978 0.4188 -0.0279
v  0.1184 0.4230 -0.0074
v  0.1037 0.5006 0.0059
v  0.0764 0.4889 -0.0280
v  0.1180 0.4229 -0.0490
v  0.1034 0.5005 -0.0619
v  0.1384 0.4280 -0.0284
v  0.1452 0.5089 -0.0248
v  0.1219 0.4074 -0.0286
# 9 vertices

vn -0.6591 -0.2471 0.7103
vn -0.7233 -0.2195 0.6547
vn -0.7171 -0.2443 -0.6528
vn -0.6852 -0.2101 -0.6974
vn 0.6038 -0.0862 0.7924
vn 0.7230 0.0190 0.6906
vn -0.3565 -0.7796 0.5150
vn 0.6644 -0.0000 -0.7474
vn -0.3795 -0.7701 -0.5128
vn 0.7132 -0.0286 -0.7004
vn 0.6718 -0.5391 0.5079
vn 0.6661 -0.5253 -0.5295
# 12 vertex normals

vt 0.1807 0.1680 0.0000
vt 0.5244 0.1680 0.0000
vt 0.5244 0.9717 0.0000
vt 0.0654 0.9717 0.0000
vt 0.8672 0.1680 0.0000
vt 0.9824 0.9717 0.0000
vt 0.5244 -0.0215 0.0000
# 7 texture coords

g Nemu_5E3E3C26_0_010
usemtl Material__889
s 1
f 181/120/229 182/121/229 183/122/229 
f 181/120/230 183/122/230 184/123/230 
f 185/121/231 184/123/231 186/122/231 
f 185/121/232 181/120/232 184/123/232 
f 187/124/233 188/125/233 183/122/233 
f 187/124/234 183/122/234 182/121/234 
f 189/126/235 182/121/235 181/120/235 
f 188/125/236 185/121/236 186/122/236 
f 189/126/237 181/120/237 185/121/237 
f 188/125/238 187/124/238 185/121/238 
f 189/126/239 187/124/239 182/121/239 
f 189/126/240 185/121/240 187/124/240 
# 0 polygons - 12 triangles

#
# object Nemu_7A5D28B3_0_009
#

v  0.0547 0.5906 -0.0272
v  0.1135 0.5443 0.0372
v  0.1033 0.5933 0.0199
v  0.0984 0.6198 -0.0276
v  0.1035 0.5944 -0.0782
v  0.0481 0.5372 -0.0279
v  0.0764 0.4889 -0.0280
v  0.1545 0.6026 -0.0274
v  0.1134 0.5443 -0.0954
v  0.1037 0.5006 0.0059
v  0.1731 0.5513 -0.0272
v  0.1452 0.5089 -0.0248
v  0.1034 0.5005 -0.0619
# 13 vertices

vn -0.6956 0.1058 0.7106
vn -0.4902 0.7384 0.4630
vn -0.5047 0.7495 -0.4283
vn -0.7075 0.0790 0.7022
vn -0.6336 -0.3739 0.6774
vn 0.2609 0.8538 0.4505
vn 0.5916 0.3748 0.7138
vn -0.7205 0.0988 -0.6864
vn -0.6849 -0.3154 0.6568
vn 0.2681 0.8711 -0.4114
vn -0.6456 -0.3773 -0.6639
vn -0.7224 0.0945 -0.6850
vn 0.6952 0.2554 0.6719
vn 0.6485 -0.5331 0.5434
vn 0.6013 -0.3564 0.7151
vn -0.6741 -0.3452 -0.6530
vn 0.6277 0.3611 -0.6896
vn 0.7144 0.2554 -0.6515
vn 0.6832 -0.4818 -0.5488
vn 0.6092 -0.5645 -0.5569
# 20 vertex normals

vt 0.2185 0.7086 0.0000
vt 0.3588 0.4368 0.0000
vt 0.3573 0.6759 0.0000
vt 0.3605 0.8046 0.0000
vt 0.3582 0.6785 0.0000
vt 0.1682 0.4684 0.0000
vt 0.2216 0.2121 0.0000
vt 0.5089 0.6713 0.0000
vt 0.3601 0.4399 0.0000
vt 0.3048 0.2407 0.0000
vt 0.5324 0.4139 0.0000
vt 0.4300 0.2433 0.0000
vt 0.3054 0.2422 0.0000
# 13 texture coords

g Nemu_7A5D28B3_0_009
usemtl Material__912
s 1
f 190/127/241 191/128/241 192/129/241 
f 193/130/242 190/127/242 192/129/242 
f 193/130/243 194/131/243 190/127/243 
f 191/128/244 190/127/244 195/132/244 
f 196/133/245 191/128/245 195/132/245 
f 193/130/246 192/129/246 197/134/246 
f 191/128/247 197/134/247 192/129/247 
f 190/127/248 198/135/248 195/132/248 
f 196/133/249 199/136/249 191/128/249 
f 193/130/250 197/134/250 194/131/250 
f 198/135/251 196/133/251 195/132/251 
f 198/135/252 190/127/252 194/131/252 
f 197/134/253 191/128/253 200/137/253 
f 199/136/254 200/137/254 191/128/254 
f 199/136/255 201/138/255 200/137/255 
f 198/135/256 202/139/256 196/133/256 
f 197/134/257 198/135/257 194/131/257 
f 198/135/258 197/134/258 200/137/258 
f 198/135/259 200/137/259 201/138/259 
f 198/135/260 201/138/260 202/139/260 
# 0 polygons - 20 triangles

#
# object Nemu_5ACD9455_0_007
#

v  0.0393 0.4547 -0.0440
v  -0.0237 0.3897 -0.0440
v  -0.0387 0.4547 -0.0440
v  -0.0237 0.3897 0.0130
v  -0.0387 0.4457 0.0130
v  0.0243 0.3897 -0.0440
v  -0.0757 0.4867 0.0040
v  -0.0757 0.4977 -0.0850
v  0.0003 0.4457 0.0290
v  0.0243 0.3897 0.0130
v  0.0393 0.4457 0.0130
v  0.0003 0.4747 0.0660
v  0.0763 0.4977 -0.0850
v  0.0763 0.4867 0.0040
# 14 vertices

vn 0.0000 0.0000 -1.0000
vn -0.9744 -0.2249 -0.0000
vn -0.9651 -0.2585 -0.0408
vn -0.7132 -0.6957 -0.0860
vn -0.7263 -0.6790 -0.1072
vn 0.0000 -0.2747 0.9615
vn -0.3776 -0.1011 0.9204
vn 0.9738 -0.2247 -0.0355
vn 0.9659 -0.2587 -0.0000
vn 0.2453 -0.7630 0.5980
vn 0.3776 -0.1011 0.9204
vn 0.7132 -0.6957 -0.0860
vn 0.6151 -0.4069 0.6753
vn -0.2453 -0.7630 0.5980
vn -0.6151 -0.4069 0.6753
vn 0.7263 -0.6790 -0.1072
# 16 vertex normals

vt 0.7041 0.5967 0.0000
vt 0.3506 -0.1914 0.0000
vt 0.3066 0.5967 0.0000
vt 0.3066 0.4893 0.0000
vt 0.6597 -0.1914 0.0000
vt 0.0171 0.9980 0.0000
vt 0.0171 1.1240 0.0000
vt 0.5054 0.4893 0.0000
vt 0.7041 0.4893 0.0000
vt 0.5054 0.8486 0.0000
vt 0.9932 1.1240 0.0000
vt 0.9932 0.9980 0.0000
# 12 texture coords

g Nemu_5ACD9455_0_007
usemtl Material__888
s 1
f 203/140/261 204/141/261 205/142/261 
f 206/141/262 205/142/262 204/141/262 
f 206/141/263 207/143/263 205/142/263 
f 203/140/261 208/144/261 204/141/261 
f 205/142/264 209/145/264 210/146/264 
f 205/142/265 207/143/265 209/145/265 
f 211/147/266 206/141/266 212/144/266 
f 206/141/267 211/147/267 207/143/267 
f 208/144/268 203/140/268 213/148/268 
f 208/144/269 213/148/269 212/144/269 
f 214/149/270 211/147/270 213/148/270 
f 211/147/271 212/144/271 213/148/271 
f 203/140/272 215/150/272 216/151/272 
f 214/149/273 213/148/273 216/151/273 
f 207/143/274 211/147/274 214/149/274 
f 207/143/275 214/149/275 209/145/275 
f 203/140/276 216/151/276 213/148/276 
# 0 polygons - 17 triangles

#
# object Nemu_77F5FA69_0_006
#

v  -0.0637 0.5347 0.0040
v  -0.0757 0.4977 -0.0850
v  -0.0757 0.4867 0.0040
v  -0.0637 0.5477 -0.0740
v  0.0003 0.5147 0.0570
v  0.0003 0.4747 0.0660
v  0.0643 0.5347 0.0040
v  0.0003 0.5697 -0.0030
v  0.0763 0.4867 0.0040
v  0.0763 0.4977 -0.0850
v  0.0643 0.5477 -0.0740
# 11 vertices

vn -0.9697 0.2424 0.0300
vn -0.9735 0.2254 0.0376
vn -0.5945 0.1765 0.7845
vn -0.6102 0.1525 0.7775
vn 0.5945 0.1765 0.7845
vn -0.3127 0.7002 0.6418
vn 0.3127 0.7002 0.6418
vn 0.6102 0.1525 0.7775
vn 0.9735 0.2254 0.0376
vn 0.9697 0.2424 0.0300
# 10 vertex normals

vt 0.6084 0.4648 0.0000
vt 0.0195 0.9990 0.0000
vt 0.0596 0.4170 0.0000
vt 0.6299 0.9785 0.0000
vt 0.4727 0.0967 0.0000
vt 0.0303 0.0000 0.0000
vt 1.0059 0.5449 0.0000
# 7 texture coords

g Nemu_77F5FA69_0_006
usemtl Material__896
s 1
f 217/152/277 218/153/277 219/154/277 
f 217/152/278 220/155/278 218/153/278 
f 221/156/279 217/152/279 222/157/279 
f 222/157/280 217/152/280 219/154/280 
f 223/152/281 221/156/281 222/157/281 
f 217/152/282 221/156/282 224/158/282 
f 221/156/283 223/152/283 224/158/283 
f 222/157/284 225/154/284 223/152/284 
f 226/153/285 227/155/285 223/152/285 
f 226/153/286 223/152/286 225/154/286 
# 0 polygons - 10 triangles

#
# object Nemu_3D4DCABC_0_005
#

v  -0.0637 0.5477 -0.0740
v  0.0763 0.4977 -0.0850
v  -0.0757 0.4977 -0.0850
v  -0.0387 0.4547 -0.0440
v  0.0643 0.5477 -0.0740
v  0.0393 0.4547 -0.0440
v  0.0003 0.5697 -0.0030
v  -0.0637 0.5347 0.0040
v  0.0643 0.5347 0.0040
# 9 vertices

vn 0.0000 0.2149 -0.9766
vn 0.0000 -0.6901 -0.7237
vn -0.4624 0.8746 0.1458
vn 0.0000 0.9552 -0.2960
vn 0.4624 0.8746 0.1458
# 5 vertex normals

vt 0.0313 0.5142 0.0000
vt 1.0556 0.1611 0.0000
vt -0.0556 0.1611 0.0000
vt 0.2148 -0.1382 0.0000
vt 0.9688 0.5142 0.0000
vt 0.7849 -0.1382 0.0000
vt 0.5000 0.6641 0.0000
vt 0.0313 0.4185 0.0000
vt 0.9688 0.4185 0.0000
# 9 texture coords

g Nemu_3D4DCABC_0_005
usemtl Material__886
s 1
f 228/159/287 229/160/287 230/161/287 
f 229/160/288 231/162/288 230/161/288 
f 228/159/287 232/163/287 229/160/287 
f 229/160/288 233/164/288 231/162/288 
f 234/165/289 228/159/289 235/166/289 
f 228/159/290 234/165/290 232/163/290 
f 232/163/291 234/165/291 236/167/291 
# 0 polygons - 7 triangles

#
# object Nemu_7D128B40_0_004
#

v  0.0423 0.3807 -0.0630
v  0.0273 0.3387 -0.0460
v  -0.0267 0.3387 -0.0460
v  -0.0417 0.3807 -0.0630
v  -0.0417 0.4117 -0.0560
v  -0.0567 0.3807 -0.0030
v  -0.0457 0.4117 -0.0030
v  0.0423 0.4117 -0.0560
v  0.0573 0.3807 -0.0030
v  0.0463 0.4117 -0.0030
# 10 vertices

vn 0.0000 -0.3752 -0.9269
vn -0.9401 0.3336 -0.0709
vn -0.9687 0.0547 -0.2422
vn 0.0000 0.2203 -0.9754
vn 0.9687 0.0547 -0.2422
vn 0.9401 0.3336 -0.0709
# 6 vertex normals

vt 0.9639 0.5701 0.0000
vt 0.8037 -0.0343 0.0000
vt 0.2109 -0.0343 0.0000
vt 0.0508 0.5701 0.0000
vt 0.0508 1.0042 0.0000
vt -0.1172 0.5701 0.0000
vt 0.0078 1.0042 0.0000
vt 0.9639 1.0042 0.0000
vt 1.1328 0.5701 0.0000
vt 1.0068 1.0042 0.0000
# 10 texture coords

g Nemu_7D128B40_0_004
usemtl Material__895
s 1
f 237/168/292 238/169/292 239/170/292 
f 237/168/292 239/170/292 240/171/292 
f 241/172/293 242/173/293 243/174/293 
f 242/173/294 241/172/294 240/171/294 
f 241/172/295 237/168/295 240/171/295 
f 241/172/295 244/175/295 237/168/295 
f 244/175/296 245/176/296 237/168/296 
f 245/176/297 244/175/297 246/177/297 
# 0 polygons - 8 triangles

#
# object Nemu_4C349075_0_003
#

v  0.0003 0.3387 0.0210
v  -0.0267 0.3387 -0.0460
v  0.0273 0.3387 -0.0460
v  -0.0567 0.3807 -0.0030
v  -0.0417 0.3807 -0.0630
v  -0.0137 0.3807 0.0500
v  -0.0137 0.4117 0.0380
v  -0.0457 0.4117 -0.0030
v  0.0143 0.4117 0.0380
v  -0.0417 0.4117 -0.0560
v  0.0573 0.3807 -0.0030
v  0.0423 0.3807 -0.0630
v  0.0423 0.4117 -0.0560
v  0.0143 0.3807 0.0500
v  0.0463 0.4117 -0.0030
# 15 vertices

vn 0.0000 -1.0000 -0.0000
vn -0.8865 -0.4063 -0.2216
vn -0.6380 -0.5701 0.5176
vn -0.6412 -0.7226 0.2584
vn -0.7669 0.2317 0.5985
vn -0.7487 0.2657 0.6074
vn 0.0000 1.0000 0.0000
vn 0.8865 -0.4063 -0.2216
vn 0.0000 -0.5682 0.8229
vn 0.6412 -0.7226 0.2584
vn 0.6380 -0.5701 0.5176
vn 0.0000 0.3610 0.9326
vn 0.7592 0.2694 0.5925
vn 0.7544 0.2369 0.6121
# 14 vertex normals

vt 0.5000 0.0000 0.0000
vt 0.2490 0.0000 0.0000
vt 0.7490 0.0000 0.0000
vt 0.0000 0.5000 0.0000
vt 0.1416 0.5000 0.0000
vt 0.3740 0.5000 0.0000
vt 0.3740 1.0000 0.0000
vt 0.1055 1.0000 0.0000
vt 0.6250 1.0000 0.0000
vt 0.1416 1.0000 0.0000
vt 1.0000 0.5000 0.0000
vt 0.8574 0.5000 0.0000
vt 0.8574 1.0000 0.0000
vt 0.6250 0.5000 0.0000
vt 0.8936 1.0000 0.0000
# 15 texture coords

g Nemu_4C349075_0_003
usemtl Material__894
s 1
f 247/178/298 248/179/298 249/180/298 
f 248/179/299 250/181/299 251/182/299 
f 247/178/300 252/183/300 250/181/300 
f 250/181/301 248/179/301 247/178/301 
f 252/183/302 253/184/302 254/185/302 
f 252/183/303 254/185/303 250/181/303 
f 254/185/304 255/186/304 256/187/304 
f 257/188/305 249/180/305 258/189/305 
f 255/186/304 254/185/304 253/184/304 
f 255/186/304 259/190/304 256/187/304 
f 247/178/306 260/191/306 252/183/306 
f 259/190/304 255/186/304 261/192/304 
f 249/180/307 257/188/307 247/178/307 
f 247/178/308 257/188/308 260/191/308 
f 260/191/309 255/186/309 253/184/309 
f 260/191/309 253/184/309 252/183/309 
f 257/188/310 261/192/310 255/186/310 
f 257/188/311 255/186/311 260/191/311 
# 0 polygons - 18 triangles

#
# object Nemu_72EC6BAB_0_017
#

v  -0.1139 0.4047 -0.0360
v  -0.0429 0.3707 -0.1030
v  -0.0629 0.3597 -0.0430
v  -0.0739 0.4257 -0.1130
v  0.0001 0.3287 -0.0690
v  0.0001 0.3777 -0.1190
v  0.0001 0.4367 -0.1410
v  -0.0459 0.3557 0.0090
v  -0.1509 0.4867 -0.0190
v  0.0421 0.3707 -0.1030
v  -0.1049 0.3527 0.0400
v  0.0001 0.3197 0.0130
v  -0.0889 0.4927 -0.0910
v  0.0001 0.5027 -0.0980
v  -0.0959 0.4157 0.0510
v  0.0631 0.3597 -0.0430
v  -0.1459 0.5547 0.0100
v  0.0741 0.4257 -0.1130
v  0.0461 0.3557 0.0090
v  -0.0859 0.5777 -0.0470
v  0.1131 0.4047 -0.0360
v  0.1021 0.3527 0.0400
v  -0.0539 0.5137 0.1040
v  0.0891 0.4927 -0.0910
v  0.0001 0.5667 -0.0750
v  -0.0459 0.5997 -0.0100
v  0.0001 0.3667 0.0770
v  0.0001 0.4137 0.0800
v  0.0961 0.4157 0.0510
v  0.0001 0.4577 0.0970
v  0.1511 0.4867 -0.0190
v  0.0531 0.5137 0.1040
v  0.0851 0.5777 -0.0470
v  0.1451 0.5547 0.0100
v  0.0001 0.5777 -0.0220
v  0.0001 0.5757 0.0420
v  -0.0689 0.5877 0.0300
v  -0.0459 0.5567 0.0540
v  0.0001 0.5467 0.0690
v  0.0461 0.5997 -0.0100
v  0.0691 0.5877 0.0300
v  0.0461 0.5567 0.0540
# 42 vertices

vn -0.6479 -0.6812 -0.3409
vn -0.7105 -0.4919 -0.5032
vn -0.1427 -0.7069 -0.6928
vn -0.5211 -0.7917 -0.3189
vn -0.2801 -0.3354 -0.8995
vn -0.2914 -0.3276 -0.8988
vn -0.6421 -0.7514 0.1521
vn -0.8232 -0.2677 -0.5007
vn -0.4181 -0.9059 0.0670
vn 0.1460 -0.7066 -0.6924
vn 0.2862 -0.3348 -0.8978
vn -0.2367 -0.8147 -0.5294
vn -0.6093 -0.7882 -0.0865
vn -0.7588 0.0435 -0.6498
vn -0.3660 -0.5510 -0.7499
vn -0.3699 0.5072 -0.7784
vn -0.9763 0.1066 0.1885
vn -0.8668 -0.4398 0.2349
vn -0.1072 0.2884 -0.9515
vn 0.5225 -0.7874 -0.3272
vn -0.7327 0.3119 -0.6049
vn 0.2902 -0.3320 -0.8975
vn 0.6093 -0.7882 -0.0865
vn 0.4181 -0.9059 0.0670
vn -0.1209 0.4597 -0.8798
vn 0.3699 0.5072 -0.7784
vn -0.7128 0.3421 -0.6123
vn 0.6530 -0.6709 -0.3515
vn 0.3769 -0.5633 -0.7353
vn 0.7084 -0.5023 -0.4958
vn 0.6488 -0.7450 0.1548
vn -0.7854 0.0018 0.6190
vn -0.7432 -0.2155 0.6334
vn 0.1072 0.2884 -0.9515
vn 0.2457 -0.8162 -0.5229
vn -0.2545 0.3271 -0.9101
vn -0.4223 0.9029 -0.0803
vn 0.1113 0.3361 -0.9352
vn -0.2898 -0.0610 0.9551
vn -0.2764 -0.3628 0.8899
vn -0.3158 -0.1192 0.9413
vn 0.1035 -0.8017 0.5887
vn -0.1006 -0.8019 0.5889
vn 0.2898 -0.0610 0.9551
vn 0.3218 -0.1330 0.9374
vn -0.2451 -0.3494 0.9043
vn 0.2779 -0.3462 0.8961
vn 0.7828 0.0070 0.6222
vn 0.2677 -0.3648 0.8918
vn 0.8237 -0.2794 -0.4934
vn 0.8652 -0.4477 0.2257
vn 0.9810 0.0613 0.1839
vn 0.7588 0.0435 -0.6498
vn 0.7123 0.3488 -0.6091
vn 0.7306 0.3214 -0.6024
vn -0.0597 0.9774 -0.2029
vn 0.2246 0.4563 -0.8610
vn 0.1871 0.7422 -0.6435
vn 0.0590 0.9774 -0.2029
vn 0.1035 0.9348 0.3399
vn 0.4372 0.8989 0.0281
vn -0.0362 0.5948 0.8030
vn -0.4029 0.9143 0.0426
vn -0.2790 0.7497 0.6001
vn -0.3799 0.3734 0.8463
vn 0.3988 0.2752 0.8748
vn -0.0456 0.7610 0.6472
vn -0.1886 0.7439 -0.6411
vn -0.0902 0.6786 0.7289
vn -0.4051 0.2744 0.8721
vn -0.4372 0.8989 0.0281
vn -0.1035 0.9348 0.3399
vn 0.0902 0.6786 0.7289
vn 0.0362 0.5948 0.8030
vn 0.0459 0.7606 0.6477
vn 0.7428 -0.2061 0.6370
vn 0.4266 0.9004 -0.0857
vn 0.2828 0.7465 0.6024
vn 0.4068 0.9127 0.0399
vn 0.3835 0.3704 0.8460
# 80 vertex normals

vt 0.4538 0.3449 0.0000
vt 0.2308 0.2458 0.0000
vt 0.4375 0.2235 0.0000
vt 0.1836 0.3880 0.0000
vt 0.3545 0.1402 0.0000
vt 0.1738 0.2609 0.0000
vt 0.0859 0.4145 0.0000
vt 0.6190 0.2221 0.0000
vt 0.4994 0.5617 0.0000
vt 0.7248 0.2178 0.0000
vt 0.6385 0.1273 0.0000
vt 0.2503 0.5696 0.0000
vt 0.2235 0.5948 0.0000
vt 0.7525 0.3851 0.0000
vt 0.5856 0.7470 0.0000
vt 0.3870 0.8008 0.0000
vt 0.9193 0.6515 0.0000
vt 0.2918 0.7657 0.0000
vt 0.5083 0.8626 0.0000
vt 0.8509 0.2601 0.0000
vt 0.8517 0.3837 0.0000
vt 0.9046 0.5029 0.0000
vt 0.4725 0.8030 0.0000
vt 0.6914 0.8073 0.0000
vt 0.6499 0.8353 0.0000
vt 0.7370 0.7570 0.0000
vt 0.7899 0.7341 0.0000
# 27 texture coords

g Nemu_72EC6BAB_0_017
usemtl Material__338
s 1
f 262/193/312 263/194/312 264/195/312 
f 262/193/313 265/196/313 263/194/313 
f 266/197/314 263/194/314 267/198/314 
f 266/197/315 264/195/315 263/194/315 
f 268/199/316 267/198/316 263/194/316 
f 268/199/317 263/194/317 265/196/317 
f 269/200/318 262/193/318 264/195/318 
f 270/201/319 265/196/319 262/193/319 
f 266/197/320 269/200/320 264/195/320 
f 266/197/321 267/198/321 271/194/321 
f 268/199/322 271/194/322 267/198/322 
f 269/200/323 272/202/323 262/193/323 
f 266/197/324 273/203/324 269/200/324 
f 270/201/325 274/204/325 265/196/325 
f 273/203/326 272/202/326 269/200/326 
f 275/205/327 268/199/327 265/196/327 
f 276/206/328 262/193/328 272/202/328 
f 262/193/329 276/206/329 270/201/329 
f 275/205/330 265/196/330 274/204/330 
f 266/197/331 271/194/331 277/195/331 
f 278/207/332 274/204/332 270/201/332 
f 268/199/333 279/196/333 271/194/333 
f 266/197/334 280/200/334 273/203/334 
f 266/197/335 277/195/335 280/200/335 
f 281/208/336 275/205/336 274/204/336 
f 275/205/337 279/196/337 268/199/337 
f 278/207/338 281/208/338 274/204/338 
f 282/193/339 277/195/339 271/194/339 
f 283/202/340 273/203/340 280/200/340 
f 282/193/341 271/194/341 279/196/341 
f 282/193/342 280/200/342 277/195/342 
f 284/209/343 270/201/343 276/206/343 
f 284/209/344 278/207/344 270/201/344 
f 275/205/345 285/204/345 279/196/345 
f 282/193/346 283/202/346 280/200/346 
f 281/208/347 286/210/347 275/205/347 
f 278/207/348 287/211/348 281/208/348 
f 286/210/349 285/204/349 275/205/349 
f 276/206/350 288/212/350 289/213/350 
f 289/213/351 284/209/351 276/206/351 
f 288/212/352 276/206/352 272/202/352 
f 273/203/353 283/202/353 288/212/353 
f 272/202/354 273/203/354 288/212/354 
f 288/212/355 290/206/355 289/213/355 
f 290/206/356 288/212/356 283/202/356 
f 289/213/357 291/214/357 284/209/357 
f 290/206/358 291/214/358 289/213/358 
f 292/201/359 293/209/359 290/206/359 
f 290/206/360 293/209/360 291/214/360 
f 279/196/361 292/201/361 282/193/361 
f 290/206/362 282/193/362 292/201/362 
f 282/193/363 290/206/363 283/202/363 
f 279/196/364 285/204/364 292/201/364 
f 285/204/365 294/208/365 295/207/365 
f 285/204/366 295/207/366 292/201/366 
f 296/215/367 294/208/367 286/210/367 
f 286/210/368 294/208/368 285/204/368 
f 281/208/369 287/211/369 296/215/369 
f 281/208/370 296/215/370 286/210/370 
f 297/216/371 287/211/371 298/217/371 
f 297/216/372 296/215/372 287/211/372 
f 297/216/373 298/217/373 299/218/373 
f 278/207/374 298/217/374 287/211/374 
f 299/218/375 278/207/375 284/209/375 
f 278/207/376 299/218/376 298/217/376 
f 300/219/377 284/209/377 291/214/377 
f 300/219/378 299/218/378 284/209/378 
f 296/215/379 301/211/379 294/208/379 
f 297/216/380 299/218/380 300/219/380 
f 293/209/381 300/219/381 291/214/381 
f 297/216/382 301/211/382 296/215/382 
f 297/216/383 302/217/383 301/211/383 
f 297/216/384 300/219/384 303/218/384 
f 297/216/385 303/218/385 302/217/385 
f 293/209/386 303/218/386 300/219/386 
f 292/201/387 295/207/387 293/209/387 
f 301/211/388 295/207/388 294/208/388 
f 295/207/389 303/218/389 293/209/389 
f 301/211/390 302/217/390 295/207/390 
f 303/218/391 295/207/391 302/217/391 
# 0 polygons - 80 triangles

#
# object Nemu_34FEEED9_0_017
#

v  -0.0009 0.3997 -0.0780
v  -0.0329 0.3667 -0.0320
v  -0.0559 0.3997 -0.0550
v  -0.0459 0.3667 -0.0000
v  -0.0789 0.3997 -0.0000
v  -0.0649 0.4447 -0.0640
v  -0.0009 0.4447 -0.0900
v  -0.0009 0.3667 -0.0450
v  -0.0009 0.3547 -0.0000
v  -0.0909 0.4447 -0.0000
v  0.0311 0.3667 -0.0320
v  -0.0329 0.3667 0.0320
v  -0.0559 0.4897 -0.0550
v  0.0541 0.3997 -0.0550
v  -0.0559 0.3997 0.0550
v  0.0441 0.3667 -0.0000
v  -0.0009 0.3667 0.0450
v  -0.0009 0.4897 -0.0780
v  -0.0789 0.4897 -0.0000
v  0.0311 0.3667 0.0320
v  -0.0649 0.4447 0.0640
v  0.0631 0.4447 -0.0640
v  -0.0009 0.3997 0.0780
v  0.0771 0.3997 -0.0000
v  -0.0329 0.5227 -0.0320
v  -0.0009 0.5227 -0.0450
v  -0.0559 0.4897 0.0550
v  0.0541 0.4897 -0.0550
v  0.0541 0.3997 0.0550
v  -0.0459 0.5227 -0.0000
v  0.0891 0.4447 -0.0000
v  -0.0009 0.4447 0.0900
v  -0.0009 0.5347 -0.0000
v  0.0311 0.5227 -0.0320
v  -0.0329 0.5227 0.0320
v  0.0771 0.4897 -0.0000
v  -0.0009 0.5227 0.0450
v  -0.0009 0.4897 0.0780
v  0.0441 0.5227 -0.0000
v  0.0631 0.4447 0.0640
v  0.0311 0.5227 0.0320
v  0.0541 0.4897 0.0550
# 42 vertices

vn -0.2851 -0.6738 -0.6817
vn -0.6859 -0.6722 -0.2786
vn -0.8925 -0.2532 -0.3732
vn -0.6781 -0.6781 -0.2836
vn -0.3642 -0.2521 -0.8965
vn -0.2761 -0.6796 -0.6796
vn -0.1041 -0.9610 -0.2563
vn -0.3746 -0.2389 -0.8959
vn -0.8994 -0.2398 -0.3654
vn -0.2563 -0.9610 -0.1041
vn 0.2761 -0.6796 -0.6796
vn -0.6796 -0.6796 0.2761
vn 0.1041 -0.9610 -0.2563
vn -0.2563 -0.9610 0.1041
vn -0.3642 0.2521 -0.8965
vn -0.8965 0.2521 -0.3642
vn 0.3746 -0.2389 -0.8959
vn -0.8959 -0.2389 0.3746
vn -0.6817 -0.6738 0.2851
vn 0.2851 -0.6738 -0.6817
vn 0.2563 -0.9610 -0.1041
vn -0.1041 -0.9610 0.2563
vn -0.3746 0.2389 -0.8959
vn -0.8959 0.2389 -0.3746
vn 0.1041 -0.9610 0.2563
vn 0.2563 -0.9610 0.1041
vn -0.8965 -0.2521 0.3642
vn 0.3642 -0.2521 -0.8965
vn -0.8994 0.2398 0.3654
vn 0.3654 0.2398 -0.8994
vn -0.2851 -0.6738 0.6817
vn 0.6817 -0.6738 -0.2851
vn 0.6796 -0.6796 -0.2761
vn -0.6817 0.6738 -0.2851
vn -0.2836 0.6781 -0.6781
vn -0.2761 -0.6796 0.6796
vn 0.2761 -0.6796 0.6796
vn -0.2786 0.6722 -0.6859
vn -0.8925 0.2532 0.3732
vn 0.3732 0.2532 -0.8925
vn 0.6859 -0.6722 0.2786
vn -0.6796 0.6796 -0.2761
vn 0.2836 0.6781 -0.6781
vn -0.6781 0.6781 0.2836
vn 0.8965 -0.2521 -0.3642
vn -0.3642 -0.2521 0.8965
vn 0.8959 -0.2389 -0.3746
vn 0.6781 -0.6781 0.2836
vn 0.2851 -0.6738 0.6817
vn -0.3746 -0.2389 0.8959
vn -0.3642 0.2521 0.8965
vn -0.1041 0.9610 -0.2563
vn -0.2563 0.9610 -0.1041
vn 0.2786 0.6722 -0.6859
vn 0.1041 0.9610 -0.2563
vn -0.6859 0.6722 0.2786
vn -0.2563 0.9610 0.1041
vn 0.6817 0.6738 -0.2851
vn -0.2786 0.6722 0.6859
vn 0.8994 0.2398 -0.3654
vn 0.8925 0.2532 -0.3732
vn -0.2836 0.6781 0.6781
vn -0.1041 0.9610 0.2563
vn 0.2563 0.9610 -0.1041
vn -0.3746 0.2389 0.8959
vn 0.3654 0.2398 0.8994
vn 0.6796 0.6796 -0.2761
vn 0.8925 -0.2532 0.3732
vn 0.8994 -0.2398 0.3654
vn 0.3642 -0.2521 0.8965
vn 0.3746 -0.2389 0.8959
vn 0.1041 0.9610 0.2563
vn 0.2563 0.9610 0.1041
vn 0.8965 0.2521 0.3642
vn 0.8959 0.2389 0.3746
vn 0.2836 0.6781 0.6781
vn 0.6781 0.6781 0.2836
vn 0.2786 0.6722 0.6859
vn 0.3732 0.2532 0.8925
vn 0.6859 0.6722 0.2786
# 80 vertex normals

vt 0.7500 0.0664 0.0000
vt 0.4365 0.0361 0.0000
vt 0.6396 0.1299 0.0000
vt 0.2832 0.1250 0.0000
vt 0.3740 0.2832 0.0000
vt 0.8057 0.3223 0.0000
vt 0.9326 0.2500 0.0000
vt 0.5000 0.0000 0.0000
vt 0.2500 0.0664 0.0000
vt 0.4990 0.5000 0.0000
vt 0.1299 0.2129 0.0000
vt 0.8896 0.5625 0.0000
vt 0.1094 0.4365 0.0000
vt 0.0664 0.2500 0.0000
vt 1.0000 0.5000 0.0000
vt 0.6250 0.7158 0.0000
vt 0.1934 0.6768 0.0000
vt 0.0000 0.5000 0.0000
vt 0.3750 0.2832 0.0000
vt 0.8691 0.7861 0.0000
vt 0.9326 0.7500 0.0000
vt 0.3594 0.8691 0.0000
vt 0.7158 0.8750 0.0000
vt 0.5000 0.5000 0.0000
vt 0.0664 0.7500 0.0000
vt 0.7500 0.9326 0.0000
vt 0.5625 0.9629 0.0000
vt 0.5000 1.0000 0.0000
vt 0.2500 0.9326 0.0000
# 29 texture coords

g Nemu_34FEEED9_0_017
usemtl Material__337
s 1
f 304/220/392 305/221/392 306/222/392 
f 307/223/393 306/222/393 305/221/393 
f 308/224/394 309/225/394 306/222/394 
f 307/223/395 308/224/395 306/222/395 
f 310/226/396 306/222/396 309/225/396 
f 304/220/397 311/227/397 305/221/397 
f 312/228/398 305/221/398 311/227/398 
f 310/226/399 304/220/399 306/222/399 
f 308/224/400 313/229/400 309/225/400 
f 312/228/401 307/223/401 305/221/401 
f 304/220/402 314/221/402 311/227/402 
f 315/230/403 308/224/403 307/223/403 
f 312/228/404 311/227/404 314/221/404 
f 312/228/405 315/230/405 307/223/405 
f 316/231/406 310/226/406 309/225/406 
f 313/229/407 316/231/407 309/225/407 
f 310/226/408 317/222/408 304/220/408 
f 318/232/409 313/229/409 308/224/409 
f 315/230/410 318/232/410 308/224/410 
f 304/220/411 317/222/411 314/221/411 
f 312/228/412 314/221/412 319/223/412 
f 312/228/413 320/233/413 315/230/413 
f 316/231/414 321/234/414 310/226/414 
f 313/229/415 322/235/415 316/231/415 
f 312/228/416 323/230/416 320/233/416 
f 312/228/417 319/223/417 323/230/417 
f 318/232/418 324/236/418 313/229/418 
f 310/226/419 325/225/419 317/222/419 
f 324/236/420 322/235/420 313/229/420 
f 321/234/421 325/225/421 310/226/421 
f 315/230/422 326/237/422 318/232/422 
f 327/238/423 314/221/423 317/222/423 
f 327/238/424 319/223/424 314/221/424 
f 322/235/425 328/239/425 316/231/425 
f 316/231/426 329/240/426 321/234/426 
f 315/230/427 320/233/427 326/237/427 
f 323/230/428 326/237/428 320/233/428 
f 316/231/429 328/239/429 329/240/429 
f 324/236/430 330/241/430 322/235/430 
f 321/234/431 331/231/431 325/225/431 
f 319/223/432 332/232/432 323/230/432 
f 322/235/433 333/242/433 328/239/433 
f 329/240/434 331/231/434 321/234/434 
f 330/241/435 333/242/435 322/235/435 
f 317/222/436 325/225/436 334/243/436 
f 318/232/437 335/244/437 324/236/437 
f 317/222/438 334/243/438 327/238/438 
f 319/223/439 327/238/439 332/232/439 
f 323/230/440 332/232/440 326/237/440 
f 318/232/441 326/237/441 335/244/441 
f 335/244/442 330/241/442 324/236/442 
f 336/245/443 329/240/443 328/239/443 
f 336/245/444 328/239/444 333/242/444 
f 329/240/445 337/239/445 331/231/445 
f 336/245/446 337/239/446 329/240/446 
f 330/241/447 338/246/447 333/242/447 
f 336/245/448 333/242/448 338/246/448 
f 337/239/449 339/235/449 331/231/449 
f 330/241/450 340/247/450 338/246/450 
f 325/225/451 339/235/451 334/243/451 
f 325/225/452 331/231/452 339/235/452 
f 330/241/453 341/248/453 340/247/453 
f 336/245/454 338/246/454 340/247/454 
f 336/245/455 342/242/455 337/239/455 
f 335/244/456 341/248/456 330/241/456 
f 343/236/457 341/248/457 335/244/457 
f 337/239/458 342/242/458 339/235/458 
f 327/238/459 343/236/459 332/232/459 
f 327/238/460 334/243/460 343/236/460 
f 332/232/461 343/236/461 335/244/461 
f 332/232/462 335/244/462 326/237/462 
f 336/245/463 340/247/463 344/246/463 
f 336/245/464 344/246/464 342/242/464 
f 334/243/465 345/241/465 343/236/465 
f 334/243/466 339/235/466 345/241/466 
f 340/247/467 341/248/467 345/241/467 
f 342/242/468 345/241/468 339/235/468 
f 340/247/469 345/241/469 344/246/469 
f 343/236/470 345/241/470 341/248/470 
f 342/242/471 344/246/471 345/241/471 
# 0 polygons - 80 triangles

