# 3ds Max Wavefront OBJ Exporter v0.97b - (c)2007 guruware
# File Created: 20.09.2018 23:58:20

mtllib kirby.mtl

#
# object stone_0_0_053
#

v  0.1609 0.1948 -0.0716
v  0.1718 0.0562 0.0725
v  0.1618 0.0634 -0.0643
v  -0.1554 0.1731 0.0834
v  -0.1572 0.0580 0.1033
v  -0.1554 0.1731 0.0997
v  -0.1019 0.0281 0.0924
v  -0.0303 0.0308 0.1060
v  -0.1046 0.0372 0.1088
v  0.0032 0.1803 -0.1305
v  0.1056 0.2157 -0.0924
v  0.1056 0.1695 -0.1269
v  -0.0738 0.2365 0.0825
v  0.0531 0.2365 0.0843
v  -0.0620 0.2302 -0.0961
v  -0.1282 0.0326 -0.0834
v  -0.1010 0.0770 -0.1269
v  -0.1010 0.0308 -0.0924
v  -0.1409 0.1921 0.0870
v  -0.1554 0.1731 -0.0752
v  -0.1382 0.1903 -0.0770
v  0.1346 0.2048 -0.0761
v  0.1292 0.2093 0.0834
v  0.1609 0.1939 0.0870
v  0.0132 0.0653 -0.1142
v  0.1056 0.0770 -0.1269
v  0.1056 0.0308 -0.0924
v  -0.1010 0.1658 -0.1269
v  -0.1146 0.1994 -0.0879
v  0.0023 0.0770 -0.1269
v  -0.0883 0.0734 0.1223
v  -0.1227 0.0643 0.1196
v  -0.1554 0.0535 -0.0743
v  -0.1227 0.2048 0.0861
v  -0.1255 0.1894 0.0861
v  -0.1191 0.1858 -0.0825
v  0.0793 0.0544 0.1097
v  0.0567 0.0308 0.0816
v  0.0938 0.0326 0.0943
v  0.0929 0.2302 0.0843
v  -0.1227 0.0553 0.1088
v  -0.1300 0.0299 0.0888
v  -0.1572 0.0498 0.0852
v  -0.1626 0.0544 0.0933
v  0.0540 0.0308 0.1233
v  -0.0285 0.0317 0.1260
v  0.0540 0.0308 0.0924
v  0.0929 0.0326 0.1097
v  0.1609 0.0517 0.1033
v  0.1591 0.1794 0.1106
# 50 vertices

vn 0.9974 0.0029 -0.0725
vn -0.9999 0.0157 0.0000
vn -0.0574 -0.8767 0.4775
vn 0.0914 0.5950 -0.7985
vn 0.0017 0.9932 -0.1166
vn 0.0868 0.9958 -0.0297
vn -0.2936 -0.5712 -0.7665
vn -0.7954 0.6060 0.0000
vn -0.7080 0.7059 -0.0195
vn 0.3562 0.9344 -0.0103
vn 0.4667 0.5284 -0.7092
vn 0.4364 0.8997 0.0051
vn 0.3568 0.9341 -0.0144
vn 0.0274 -0.5973 -0.8016
vn 0.5989 -0.4785 -0.6422
vn -0.4510 0.5927 -0.6673
vn 0.0000 -0.7328 -0.6805
vn -0.1360 0.0000 -0.9907
vn -0.6887 0.0000 -0.7250
vn 0.7071 0.0000 -0.7071
vn 0.7400 -0.0320 -0.6719
vn 0.0041 -0.3527 0.9357
vn 0.0209 -0.3593 0.9330
vn -0.5121 0.8565 -0.0642
vn -1.0000 0.0000 -0.0000
vn -0.5634 0.4937 -0.6624
vn -0.5459 0.8363 -0.0517
vn -0.9528 0.3007 -0.0423
vn -0.8964 0.1292 -0.4239
vn 0.2283 0.9735 -0.0123
vn -0.9835 0.1736 -0.0515
vn 0.1147 0.9229 -0.3675
vn 0.1733 0.9848 -0.0080
vn -0.2151 -0.6559 0.7236
vn 0.1567 0.9852 -0.0696
vn 0.4983 0.8670 -0.0076
vn 0.3748 0.9258 -0.0491
vn -0.6818 -0.6818 0.2651
vn -0.4465 -0.4705 0.7611
vn -0.1376 -0.9019 0.4093
vn -0.6092 -0.6092 0.5077
vn -0.6615 -0.7496 -0.0246
vn -0.2240 -0.7487 0.6239
vn -0.0623 -0.9979 -0.0164
vn -0.0715 -0.9973 -0.0150
vn -0.0095 -0.9989 0.0463
vn 0.0000 -1.0000 -0.0000
vn 0.0407 -0.9991 -0.0145
vn 0.6144 -0.7739 0.1536
vn 0.0445 -0.9989 0.0125
vn -0.5465 -0.3909 -0.7406
vn -0.8469 -0.5293 -0.0498
vn -0.5890 -0.8077 -0.0251
vn -0.6123 -0.7904 -0.0189
vn 0.9965 0.0095 0.0825
vn -0.1408 -0.5865 0.7976
vn 0.9405 0.0387 0.3376
vn 0.9969 0.0787 0.0004
vn 0.0711 0.6283 -0.7747
vn -0.0967 0.4769 -0.8736
vn 0.0000 -0.5340 -0.8455
vn -0.0339 -0.5971 -0.8014
vn 0.7450 -0.0299 -0.6664
vn 0.0000 0.0000 -1.0000
vn -0.0299 -0.0348 -0.9989
vn 0.0203 -0.1386 -0.9901
vn -0.8879 0.0921 0.4508
vn -0.9974 0.0573 -0.0434
vn -0.6938 -0.0055 -0.7202
# 69 vertex normals

g stone_0_0_053
usemtl Material__320
s 1
f 1//1 2//1 3//1 
f 4//2 5//2 6//2 
f 7//3 8//3 9//3 
f 10//4 11//4 12//4 
f 13//5 14//5 11//5 
f 13//6 11//6 15//6 
f 16//7 17//7 18//7 
f 6//8 19//8 4//8 
f 20//8 4//8 19//8 
f 20//9 19//9 21//9 
f 11//10 22//10 1//10 
f 11//11 1//11 12//11 
f 23//12 24//12 1//12 
f 23//13 1//13 22//13 
f 17//14 25//14 18//14 
f 26//15 3//15 27//15 
f 28//16 29//16 15//16 
f 17//17 30//17 25//17 
f 25//18 12//18 26//18 
f 17//19 20//19 28//19 
f 26//20 12//20 1//20 
f 26//21 1//21 3//21 
f 8//22 31//22 9//22 
f 32//23 9//23 31//23 
f 29//24 13//24 15//24 
f 33//25 4//25 20//25 
f 21//26 28//26 20//26 
f 29//27 34//27 13//27 
f 35//28 29//28 36//28 
f 29//29 28//29 36//29 
f 21//30 35//30 36//30 
f 35//31 34//31 29//31 
f 28//32 21//32 36//32 
f 21//33 19//33 35//33 
f 37//34 38//34 39//34 
f 11//35 14//35 40//35 
f 40//36 23//36 22//36 
f 40//37 22//37 11//37 
f 9//38 41//38 7//38 
f 42//39 41//39 43//39 
f 41//40 44//40 43//40 
f 9//41 32//41 41//41 
f 33//42 43//42 44//42 
f 41//43 32//43 44//43 
f 7//44 42//44 16//44 
f 7//45 16//45 18//45 
f 45//46 46//46 8//46 
f 45//47 8//47 47//47 
f 27//47 8//47 18//47 
f 18//48 8//48 7//48 
f 38//47 47//47 8//47 
f 38//47 8//47 27//47 
f 38//49 37//49 47//49 
f 39//50 38//50 27//50 
f 17//51 16//51 33//51 
f 37//52 39//52 48//52 
f 42//53 43//53 33//53 
f 42//54 33//54 16//54 
f 49//55 24//55 50//55 
f 41//56 42//56 7//56 
f 2//57 24//57 49//57 
f 24//58 2//58 1//58 
f 10//59 15//59 11//59 
f 15//60 10//60 28//60 
f 25//61 27//61 18//61 
f 27//62 25//62 26//62 
f 10//63 25//63 30//63 
f 28//64 30//64 17//64 
f 30//65 28//65 10//65 
f 12//66 25//66 10//66 
f 44//67 5//67 4//67 
f 44//68 4//68 33//68 
f 20//69 17//69 33//69 
# 0 polygons - 73 triangles

#
# object stone_5A160E3F_0_002
#

v  -0.1227 0.0643 0.1196
v  -0.0865 0.0825 0.1387
v  -0.1572 0.0580 0.1033
v  -0.1626 0.0544 0.0933
v  -0.1554 0.1731 0.0997
v  -0.0883 0.0734 0.1223
v  -0.0285 0.0317 0.1260
v  -0.0303 0.0308 0.1060
v  -0.0657 0.1568 0.1432
v  -0.1409 0.1921 0.0870
v  0.1201 0.0344 0.1151
v  0.0938 0.0326 0.0943
v  0.1056 0.0308 -0.0924
v  -0.1255 0.1894 0.0861
v  -0.1227 0.2048 0.0861
v  0.0929 0.0326 0.1097
v  0.0540 0.0308 0.1233
v  0.1056 0.0770 0.1432
v  0.1056 0.0770 0.1269
v  0.0793 0.0544 0.1097
v  0.0540 0.0308 0.0924
v  -0.0738 0.2365 0.0825
v  0.1328 0.0652 0.1151
v  0.1609 0.0517 0.1033
v  0.1056 0.1695 0.1432
v  0.1591 0.1794 0.1106
v  0.0531 0.2365 0.0843
v  0.0485 0.1903 0.1432
v  0.0929 0.2302 0.0843
v  0.0775 0.1803 0.1432
v  0.1292 0.2093 0.0834
v  0.1609 0.1939 0.0870
v  0.1618 0.0634 -0.0643
v  0.1718 0.0562 0.0725
# 34 vertices

vn -0.4012 -0.1469 0.9041
vn 0.0152 -0.9423 0.3344
vn -0.4567 0.0352 0.8889
vn 0.1918 -0.8668 0.4603
vn -0.5731 -0.8146 0.0891
vn -0.4259 0.0644 0.9025
vn -0.2299 0.6550 0.7198
vn -0.5271 -0.7166 0.4567
vn 0.0582 -0.9982 0.0134
vn 0.1828 0.9238 0.3364
vn -0.6523 0.1151 0.7492
vn 0.0657 -0.9978 0.0039
vn 0.0253 -0.4197 0.9073
vn -0.0304 -0.2750 0.9610
vn 0.6678 -0.7432 -0.0415
vn 0.6805 -0.7328 -0.0000
vn -0.3039 0.5572 0.7727
vn 0.6668 -0.7452 -0.0000
vn -0.1659 -0.3150 0.9345
vn -0.3805 -0.2378 0.8937
vn 0.3271 -0.1347 0.9354
vn 0.3417 -0.1407 0.9292
vn 0.7186 -0.0000 0.6954
vn -0.3976 -0.9176 -0.0000
vn 0.5308 -0.0887 0.8428
vn 0.3666 -0.0475 0.9291
vn 0.1235 0.7761 0.6184
vn 0.3901 0.6501 0.6521
vn 0.2434 0.7081 0.6628
vn 0.2894 0.7390 0.6083
vn 0.2872 0.7420 0.6057
vn 0.0000 -0.0000 1.0000
vn 0.1655 0.8342 0.5261
vn 0.5097 -0.8601 -0.0206
vn -0.0251 -0.0538 0.9982
vn -0.0114 0.6050 0.7961
vn 0.3344 -0.9395 -0.0741
vn 0.3895 -0.9210 0.0020
vn -0.2274 0.7745 0.5902
# 39 vertex normals

vt 0.1831 0.3916 0.0000
vt 0.2744 0.4644 0.0000
vt 0.0981 0.3643 0.0000
vt 0.0850 0.3511 0.0000
vt 0.1021 0.8276 0.0000
vt 0.2700 0.4258 0.0000
vt 0.4170 0.2588 0.0000
vt 0.4136 0.2559 0.0000
vt 0.3267 0.7612 0.0000
vt 0.1387 0.9033 0.0000
vt 0.7886 0.2705 0.0000
vt 0.7217 0.2617 0.0000
vt 0.7520 0.2573 0.0000
vt 0.1782 0.8916 0.0000
vt 0.1836 0.9531 0.0000
vt 0.7192 0.2622 0.0000
vt 0.6221 0.2544 0.0000
vt 0.7520 0.4424 0.0000
vt 0.6870 0.3486 0.0000
vt 0.3062 1.0825 0.0000
vt 0.8203 0.3926 0.0000
vt 0.8887 0.3379 0.0000
vt 0.7520 0.8135 0.0000
vt 0.8843 0.8535 0.0000
vt 0.6216 1.0811 0.0000
vt 0.6099 0.8970 0.0000
vt 0.7207 1.0552 0.0000
vt 0.6807 0.8550 0.0000
vt 0.8096 0.9727 0.0000
vt 0.8887 0.9092 0.0000
vt 0.8926 0.3882 0.0000
vt 0.9150 0.3589 0.0000
# 32 texture coords

g stone_5A160E3F_0_002
usemtl Material__319
s 1
f 51/1/70 52/2/70 53/3/70 
f 51/1/71 53/3/71 54/4/71 
f 52/2/72 55/5/72 53/3/72 
f 51/1/73 56/6/73 52/2/73 
f 57/7/74 56/6/74 58/8/74 
f 52/2/75 59/9/75 55/5/75 
f 60/10/76 55/5/76 59/9/76 
f 57/7/77 52/2/77 56/6/77 
f 61/11/78 62/12/78 63/13/78 
f 59/9/79 64/14/79 60/10/79 
f 64/14/80 59/9/80 65/15/80 
f 61/11/81 66/16/81 62/12/81 
f 57/7/82 67/17/82 68/18/82 
f 57/7/83 68/18/83 52/2/83 
f 69/18/84 67/17/84 70/19/84 
f 70/19/85 67/17/85 71/17/85 
f 65/15/86 59/9/86 72/20/86 
f 69/18/87 68/18/87 67/17/87 
f 66/16/88 61/11/88 69/18/88 
f 66/16/89 69/18/89 70/19/89 
f 73/21/90 61/11/90 74/22/90 
f 61/11/91 73/21/91 69/18/91 
f 73/21/92 75/23/92 68/18/92 
f 69/18/93 73/21/93 68/18/93 
f 73/21/94 76/24/94 75/23/94 
f 73/21/95 74/22/95 76/24/95 
f 77/25/96 78/26/96 79/27/96 
f 80/28/97 81/29/97 79/27/97 
f 80/28/98 79/27/98 78/26/98 
f 80/28/99 82/30/99 81/29/99 
f 80/28/100 75/23/100 82/30/100 
f 68/18/101 75/23/101 80/28/101 
f 82/30/102 75/23/102 76/24/102 
f 68/18/101 78/26/101 59/9/101 
f 68/18/101 80/28/101 78/26/101 
f 83/31/103 61/11/103 63/13/103 
f 68/18/104 59/9/104 52/2/104 
f 59/9/105 77/25/105 72/20/105 
f 83/31/106 84/32/106 61/11/106 
f 74/22/107 61/11/107 84/32/107 
f 59/9/108 78/26/108 77/25/108 
# 0 polygons - 41 triangles

#
# object Nemu_775209D4_0_016
#

v  0.0001 -0.3005 -0.2930
v  0.0001 0.2995 -0.2930
v  0.0001 0.2995 0.2930
v  0.0001 -0.3005 0.2930
# 4 vertices

vn 1.0000 0.0000 -0.0000
# 1 vertex normals

vt 0.0000 0.0250 0.0000
vt 0.0000 1.0249 0.0000
vt 1.0000 1.0249 0.0000
vt 1.0000 0.0250 0.0000
# 4 texture coords

g Nemu_775209D4_0_016
usemtl Material__237
s 1
f 85/33/109 86/34/109 87/35/109 
f 85/33/109 87/35/109 88/36/109 
# 0 polygons - 2 triangles

#
# object Nemu_34B9100B_0_010
#

v  -0.1269 0.0888 0.0480
v  -0.0707 0.0870 0.0943
v  -0.1006 0.1377 0.0943
v  -0.0526 0.0290 0.0480
v  -0.0001 0.0553 0.0943
v  -0.1269 0.1930 0.0480
v  -0.0544 0.1377 0.1223
v  0.0525 0.0290 0.0480
v  -0.0707 0.2148 0.0943
v  -0.0381 0.1097 0.1223
v  0.0706 0.0870 0.0943
v  -0.0001 0.0924 0.1223
v  -0.0526 0.2755 0.0489
v  -0.0001 0.1377 0.1323
v  0.1268 0.0888 0.0480
v  -0.0381 0.1794 0.1223
v  0.0380 0.1097 0.1223
v  0.0543 0.1377 0.1223
v  0.1005 0.1377 0.0943
v  -0.0001 0.2465 0.0943
v  -0.0001 0.1967 0.1223
v  0.0380 0.1794 0.1223
v  0.0706 0.2148 0.0943
v  0.1268 0.1930 0.0480
v  0.0525 0.2755 0.0480
# 25 vertices

vn -0.6009 -0.3541 0.7166
vn -0.5060 -0.6287 0.5905
vn -0.2918 -0.6502 0.7015
vn -0.8693 -0.0000 0.4943
vn -0.4967 -0.2927 0.8171
vn 0.0000 -0.8693 0.4943
vn -0.6715 0.2607 0.6936
vn -0.2606 -0.5809 0.7711
vn 0.2918 -0.6502 0.7015
vn -0.5005 -0.2906 0.8155
vn -0.5092 0.1977 0.8377
vn -0.2632 -0.5818 0.7695
vn -0.6416 0.5725 0.5105
vn 0.2612 -0.5822 0.7700
vn -0.1793 -0.1041 0.9783
vn 0.5060 -0.6287 0.5905
vn -0.5072 0.1985 0.8387
vn -0.0967 -0.2139 0.9721
vn -0.1799 0.0704 0.9812
vn 0.2621 -0.5794 0.7717
vn 0.5005 -0.2906 0.8155
vn 0.0967 -0.2139 0.9721
vn 0.6009 -0.3541 0.7166
vn -0.2147 0.4785 0.8514
vn -0.0753 0.1664 0.9832
vn -0.2811 0.6265 0.7270
vn 0.4967 -0.2927 0.8171
vn 0.1793 -0.1041 0.9783
vn 0.0753 0.1664 0.9832
vn -0.2168 0.4793 0.8504
vn 0.2160 0.4775 0.8516
vn 0.8693 -0.0000 0.4943
vn 0.6715 0.2607 0.6936
vn 0.2152 0.4795 0.8507
vn 0.0046 0.8447 0.5352
vn 0.2840 0.6330 0.7202
vn 0.5092 0.1977 0.8377
vn 0.1799 0.0704 0.9812
vn 0.6404 0.5770 0.5069
vn 0.5072 0.1985 0.8387
# 40 vertex normals

vt 0.0947 0.2046 0.0000
vt 0.2735 0.1987 0.0000
vt 0.1792 0.3877 0.0000
vt 0.3328 -0.0171 0.0000
vt 0.5001 0.0806 0.0000
vt 0.0947 0.5928 0.0000
vt 0.3266 0.3877 0.0000
vt 0.6670 -0.0171 0.0000
vt 0.2735 0.6724 0.0000
vt 0.3771 0.2837 0.0000
vt 0.7267 0.1987 0.0000
vt 0.5001 0.2197 0.0000
vt 0.3328 0.8975 0.0000
vt 0.5001 0.3877 0.0000
vt 0.9051 0.2046 0.0000
vt 0.3771 0.5415 0.0000
vt 0.6227 0.2837 0.0000
vt 0.6732 0.3877 0.0000
vt 0.8206 0.3877 0.0000
vt 0.5001 0.7900 0.0000
vt 0.5001 0.6055 0.0000
vt 0.6227 0.5415 0.0000
vt 0.7267 0.6724 0.0000
vt 0.9051 0.5928 0.0000
vt 0.6670 0.8975 0.0000
# 25 texture coords

g Nemu_34B9100B_0_010
usemtl Material__209
s 1
f 89/37/110 90/38/110 91/39/110 
f 90/38/111 89/37/111 92/40/111 
f 92/40/112 93/41/112 90/38/112 
f 91/39/113 94/42/113 89/37/113 
f 90/38/114 95/43/114 91/39/114 
f 93/41/115 92/40/115 96/44/115 
f 94/42/116 91/39/116 97/45/116 
f 93/41/117 98/46/117 90/38/117 
f 96/44/118 99/47/118 93/41/118 
f 90/38/119 98/46/119 95/43/119 
f 95/43/120 97/45/120 91/39/120 
f 93/41/121 100/48/121 98/46/121 
f 97/45/122 101/49/122 94/42/122 
f 99/47/123 100/48/123 93/41/123 
f 102/50/124 95/43/124 98/46/124 
f 99/47/125 96/44/125 103/51/125 
f 95/43/126 104/52/126 97/45/126 
f 102/50/127 98/46/127 100/48/127 
f 102/50/128 104/52/128 95/43/128 
f 99/47/129 105/53/129 100/48/129 
f 99/47/130 106/54/130 105/53/130 
f 102/50/131 100/48/131 105/53/131 
f 103/51/132 107/55/132 99/47/132 
f 104/52/133 108/56/133 97/45/133 
f 102/50/134 109/57/134 104/52/134 
f 101/49/135 97/45/135 108/56/135 
f 99/47/136 107/55/136 106/54/136 
f 102/50/137 105/53/137 106/54/137 
f 102/50/138 110/58/138 109/57/138 
f 104/52/139 109/57/139 108/56/139 
f 109/57/140 110/58/140 111/59/140 
f 107/55/141 103/51/141 112/60/141 
f 112/60/142 111/59/142 107/55/142 
f 109/57/143 111/59/143 108/56/143 
f 108/56/144 113/61/144 101/49/144 
f 113/61/145 108/56/145 111/59/145 
f 106/54/146 107/55/146 111/59/146 
f 102/50/147 106/54/147 110/58/147 
f 111/59/148 112/60/148 113/61/148 
f 106/54/149 111/59/149 110/58/149 
# 0 polygons - 40 triangles

#
# object Nemu_0_0_024
#

v  -0.0752 0.0108 -0.0896
v  -0.1154 0.0539 -0.0306
v  -0.0727 0.0525 -0.0786
v  -0.0402 0.0314 -0.0981
v  -0.0573 0.0872 -0.0073
v  -0.0141 0.0503 -0.0658
v  -0.1138 0.0100 -0.0366
v  -0.0907 -0.0042 -0.0415
v  -0.0131 0.0115 -0.0783
v  -0.1076 0.0416 0.0821
v  -0.1305 0.0206 0.0315
v  -0.0025 0.0499 0.0023
v  -0.0195 -0.0030 -0.0261
v  -0.1068 -0.0040 0.0527
v  -0.0590 0.0407 0.0907
v  -0.0046 0.0071 0.0046
v  -0.1122 0.0200 0.0912
v  -0.0170 0.0165 0.0540
v  -0.0439 -0.0027 0.0672
v  -0.0883 0.0015 0.0833
v  -0.0622 0.0181 0.1011
# 21 vertices

vn -0.7269 0.2144 -0.6524
vn -0.3695 0.2572 -0.8929
vn -0.3582 0.8677 -0.3447
vn 0.1582 0.7913 -0.5907
vn -0.8071 0.0517 -0.5882
vn 0.1322 0.8796 -0.4570
vn -0.5385 -0.7395 -0.4039
vn 0.6829 0.2398 -0.6900
vn -0.5307 0.8377 0.1286
vn -0.9715 -0.0023 -0.2370
vn 0.9826 0.0799 -0.1677
vn 0.0581 -0.9641 -0.2591
vn -0.8024 0.5847 0.1198
vn 0.0757 -0.9589 -0.2734
vn -0.6938 -0.7178 -0.0580
vn -0.5339 -0.8408 -0.0897
vn 0.4725 0.7932 0.3842
vn 0.9930 -0.0556 -0.1043
vn 0.0162 -0.9999 0.0048
vn 0.7010 -0.7049 -0.1086
vn -0.9075 0.3129 0.2802
vn -0.0596 0.9024 0.4267
vn 0.9680 -0.0347 0.2486
vn -0.7941 -0.5597 0.2369
vn 0.3962 -0.9120 0.1065
vn 0.7183 0.4752 0.5081
vn -0.4627 -0.7803 0.4207
vn 0.0191 -0.9998 0.0081
vn -0.1500 0.4306 0.8900
vn -0.1630 0.4111 0.8969
vn -0.0235 -0.9814 0.1907
vn 0.6465 -0.7030 0.2962
vn 0.7092 0.2084 0.6735
vn -0.1805 -0.5744 0.7984
vn 0.1291 -0.8132 0.5675
vn 0.6335 -0.4593 0.6227
vn 0.1518 -0.5873 -0.7950
vn 0.5709 0.8157 -0.0932
# 38 vertex normals

g Nemu_0_0_024
usemtl Material__236
s 1
f 114//150 115//150 116//150 
f 117//151 114//151 116//151 
f 115//152 118//152 116//152 
f 117//153 116//153 119//153 
f 115//154 114//154 120//154 
f 119//155 116//155 118//155 
f 114//156 121//156 120//156 
f 119//157 122//157 117//157 
f 118//158 115//158 123//158 
f 115//159 120//159 124//159 
f 125//160 122//160 119//160 
f 114//161 122//161 126//161 
f 115//162 124//162 123//162 
f 114//163 126//163 121//163 
f 120//164 127//164 124//164 
f 127//165 120//165 121//165 
f 125//166 118//166 128//166 
f 122//167 125//167 129//167 
f 126//168 127//168 121//168 
f 126//169 122//169 129//169 
f 123//170 124//170 130//170 
f 123//171 128//171 118//171 
f 129//172 125//172 131//172 
f 124//173 127//173 130//173 
f 129//174 132//174 126//174 
f 128//175 131//175 125//175 
f 133//176 130//176 127//176 
f 126//177 132//177 127//177 
f 123//178 134//178 128//178 
f 123//179 130//179 134//179 
f 133//180 127//180 132//180 
f 132//181 129//181 131//181 
f 131//182 128//182 134//182 
f 130//183 133//183 134//183 
f 132//184 134//184 133//184 
f 134//185 132//185 131//185 
f 122//186 114//186 117//186 
f 125//187 119//187 118//187 
# 0 polygons - 38 triangles

#
# object Nemu_0_0_023
#

v  0.0140 0.0106 -0.0787
v  0.0139 0.0493 -0.0659
v  0.0405 0.0314 -0.0984
v  0.0022 0.0480 0.0021
v  0.0725 0.0532 -0.0786
v  0.0559 0.0868 -0.0069
v  0.0761 0.0117 -0.0900
v  0.0587 0.0395 0.0906
v  0.0055 0.0052 0.0041
v  0.0175 0.0145 0.0535
v  0.0207 -0.0042 -0.0267
v  0.0919 -0.0033 -0.0420
v  0.1150 0.0554 -0.0304
v  0.1079 -0.0035 0.0522
v  0.0449 -0.0041 0.0667
v  0.1146 0.0115 -0.0369
v  0.1073 0.0418 0.0821
v  0.0891 0.0012 0.0829
v  0.1309 0.0219 0.0313
v  0.1125 0.0202 0.0910
v  0.0626 0.0168 0.1008
# 21 vertices

vn -0.6881 0.2275 -0.6891
vn -0.9841 0.0543 -0.1690
vn -0.1558 0.8800 -0.4487
vn -0.5932 0.8004 -0.0865
vn -0.1340 -0.5835 -0.8010
vn -0.4950 0.7760 0.3909
vn -0.9909 -0.0820 -0.1069
vn -0.1791 0.7922 -0.5833
vn -0.9671 -0.0639 0.2462
vn -0.6809 -0.7230 -0.1169
vn -0.0308 -0.9628 -0.2685
vn 0.3639 0.2759 -0.8896
vn -0.0485 -0.9579 -0.2829
vn 0.3346 0.8806 -0.3356
vn 0.0087 -1.0000 -0.0016
vn 0.0116 -0.9999 -0.0049
vn 0.8064 0.0798 -0.5859
vn 0.5070 0.8509 0.1378
vn 0.0505 -0.9821 0.1813
vn 0.7856 0.6055 0.1271
vn 0.7219 0.2407 -0.6488
vn 0.4835 -0.7712 0.4141
vn 0.5572 -0.8247 -0.0967
vn 0.9716 0.0269 -0.2350
vn -0.7160 0.1822 0.6740
vn 0.7136 -0.6977 -0.0634
vn -0.7322 0.4502 0.5112
vn -0.6273 -0.7235 0.2881
vn 0.0337 0.8995 0.4356
vn -0.3709 -0.9236 0.0968
vn 0.5596 -0.7203 -0.4099
vn -0.6216 -0.4827 0.6169
vn -0.1075 -0.8219 0.5593
vn 0.1363 0.4260 0.8944
vn 0.1950 -0.5769 0.7932
vn 0.1499 0.4067 0.9012
vn 0.8089 -0.5397 0.2332
vn 0.8980 0.3352 0.2851
# 38 vertex normals

g Nemu_0_0_023
usemtl Material__235
s 1
f 135//188 136//188 137//188 
f 135//189 138//189 136//189 
f 139//190 136//190 140//190 
f 136//191 138//191 140//191 
f 141//192 135//192 137//192 
f 140//193 138//193 142//193 
f 138//194 135//194 143//194 
f 139//195 137//195 136//195 
f 138//196 143//196 144//196 
f 135//197 145//197 143//197 
f 135//198 141//198 145//198 
f 141//199 137//199 139//199 
f 145//200 141//200 146//200 
f 140//201 147//201 139//201 
f 145//202 148//202 149//202 
f 145//203 146//203 148//203 
f 141//204 147//204 150//204 
f 147//205 140//205 151//205 
f 148//206 152//206 149//206 
f 153//207 147//207 151//207 
f 147//208 141//208 139//208 
f 154//209 152//209 148//209 
f 150//210 148//210 146//210 
f 150//211 147//211 153//211 
f 142//212 144//212 155//212 
f 148//213 150//213 153//213 
f 144//214 142//214 138//214 
f 143//215 149//215 144//215 
f 142//216 151//216 140//216 
f 149//217 143//217 145//217 
f 146//218 141//218 150//218 
f 149//219 155//219 144//219 
f 155//220 149//220 152//220 
f 155//221 151//221 142//221 
f 152//222 154//222 155//222 
f 155//223 154//223 151//223 
f 148//224 153//224 154//224 
f 153//225 151//225 154//225 
# 0 polygons - 38 triangles

#
# object Nemu_0_0_022
#

v  -0.0978 0.1510 -0.0001
v  -0.1246 0.1658 -0.0463
v  -0.0952 0.1502 -0.0001
v  -0.1245 0.1657 0.0462
v  -0.1581 0.1673 0.0308
v  -0.1418 0.1012 0.0262
v  -0.1153 0.0955 -0.0001
v  -0.1418 0.1013 -0.0264
v  -0.1447 0.0833 -0.0001
v  -0.1582 0.1673 -0.0308
v  -0.1768 0.1672 0.0000
v  -0.1675 0.1021 -0.0000
# 12 vertices

vn -0.2822 -0.9490 -0.1403
vn -0.2819 -0.9493 0.1392
vn -0.4157 -0.1655 0.8943
vn 0.8010 -0.2529 0.5427
vn 0.7997 -0.2519 -0.5451
vn 0.6097 -0.3792 0.6961
vn 0.6080 -0.3778 -0.6982
vn 0.3300 -0.7977 0.5047
vn -0.4179 -0.1637 -0.8936
vn -0.7118 -0.1027 0.6948
vn -0.5458 -0.6634 0.5119
vn 0.3288 -0.7968 -0.5070
vn -0.7135 -0.1013 -0.6933
vn -0.8306 -0.2397 -0.5026
vn -0.8294 -0.2407 0.5042
vn -0.5470 -0.6624 -0.5119
# 16 vertex normals

g Nemu_0_0_022
usemtl Material__234
s 1
f 156//226 157//226 158//226 
f 159//227 156//227 158//227 
f 160//228 161//228 159//228 
f 156//229 159//229 162//229 
f 157//230 156//230 162//230 
f 162//231 159//231 161//231 
f 157//232 162//232 163//232 
f 162//233 161//233 164//233 
f 163//234 165//234 157//234 
f 161//235 166//235 167//235 
f 161//236 167//236 164//236 
f 163//237 162//237 164//237 
f 166//238 163//238 167//238 
f 163//239 166//239 165//239 
f 166//240 161//240 160//240 
f 167//241 163//241 164//241 
# 0 polygons - 16 triangles

#
# object Nemu_0_0_021
#

v  -0.1245 0.1657 0.0462
v  -0.0760 0.2057 0.0226
v  -0.1062 0.2115 0.0317
v  -0.1581 0.1673 0.0308
v  -0.0760 0.2057 -0.0227
v  -0.1047 0.2336 0.0000
v  -0.1312 0.2223 0.0136
v  -0.1063 0.2115 -0.0317
v  -0.1312 0.2224 -0.0136
v  -0.1768 0.1672 0.0000
v  -0.1582 0.1673 -0.0308
v  -0.1246 0.1658 -0.0463
v  -0.0952 0.1502 -0.0001
# 13 vertices

vn 0.3138 0.1703 0.9341
vn -0.3630 0.4096 0.8369
vn 0.6956 0.7184 -0.0001
vn 0.3136 0.7722 0.5525
vn -0.3909 0.4431 0.8068
vn 0.3123 0.7733 -0.5518
vn -0.0565 0.8215 -0.5674
vn -0.3898 0.9209 0.0013
vn -0.7396 0.5017 0.4486
vn -0.7704 0.6375 0.0015
vn -0.3649 0.4112 -0.8353
vn -0.3928 0.4446 -0.8050
vn 0.6662 -0.4667 -0.5818
vn -0.7407 0.5026 -0.4459
vn 0.6675 -0.4678 0.5793
vn 0.9452 -0.3264 -0.0014
vn -0.0552 0.8204 0.5691
vn 0.3115 0.1721 -0.9345
# 18 vertex normals

g Nemu_0_0_021
usemtl Material__233
s 1
f 168//242 169//242 170//242 
f 170//243 171//243 168//243 
f 172//244 173//244 169//244 
f 173//245 170//245 169//245 
f 174//246 171//246 170//246 
f 175//247 173//247 172//247 
f 173//248 175//248 176//248 
f 173//249 176//249 174//249 
f 171//250 174//250 177//250 
f 176//251 177//251 174//251 
f 178//252 175//252 179//252 
f 175//253 178//253 176//253 
f 180//254 179//254 172//254 
f 178//255 177//255 176//255 
f 168//256 180//256 169//256 
f 169//257 180//257 172//257 
f 170//258 173//258 174//258 
f 172//259 179//259 175//259 
# 0 polygons - 18 triangles

#
# object Nemu_0_0_020
#

v  0.0971 0.1506 0.0000
v  0.1239 0.1652 -0.0462
v  0.1151 0.0952 0.0000
v  0.0946 0.1495 0.0000
v  0.1581 0.1662 -0.0308
v  0.1417 0.1007 -0.0263
v  0.1239 0.1652 0.0462
v  0.1444 0.0828 0.0000
v  0.1775 0.1668 0.0000
v  0.1674 0.1014 0.0000
v  0.1417 0.1007 0.0263
v  0.1581 0.1662 0.0308
# 12 vertices

vn -0.7980 -0.2585 -0.5443
vn 0.3909 -0.9182 -0.0635
vn 0.4089 -0.1649 -0.8975
vn 0.3909 -0.9182 0.0635
vn -0.7980 -0.2585 0.5443
vn -0.6084 -0.3822 -0.6955
vn -0.3355 -0.7947 -0.5059
vn 0.8234 -0.2425 -0.5130
vn 0.7117 -0.1101 -0.6938
vn -0.6084 -0.3822 0.6955
vn -0.3355 -0.7947 0.5059
vn 0.4089 -0.1649 0.8975
vn 0.7117 -0.1101 0.6938
vn 0.5413 -0.6671 -0.5119
vn 0.8234 -0.2425 0.5130
vn 0.5413 -0.6671 0.5119
# 16 vertex normals

g Nemu_0_0_020
usemtl Material__232
s 1
f 181//260 182//260 183//260 
f 182//261 181//261 184//261 
f 185//262 186//262 182//262 
f 181//263 187//263 184//263 
f 187//264 181//264 183//264 
f 183//265 182//265 186//265 
f 183//266 186//266 188//266 
f 189//267 186//267 185//267 
f 186//268 189//268 190//268 
f 187//269 183//269 191//269 
f 191//270 183//270 188//270 
f 191//271 192//271 187//271 
f 189//272 191//272 190//272 
f 186//273 190//273 188//273 
f 191//274 189//274 192//274 
f 190//275 191//275 188//275 
# 0 polygons - 16 triangles

#
# object Nemu_0_0_019
#

v  0.1239 0.1652 -0.0462
v  0.0759 0.2055 -0.0227
v  0.1068 0.2120 -0.0317
v  0.0946 0.1495 0.0000
v  0.0753 0.2062 0.0227
v  0.1045 0.2335 0.0000
v  0.1311 0.2224 -0.0136
v  0.1061 0.2114 0.0317
v  0.1581 0.1662 -0.0308
v  0.1239 0.1652 0.0462
v  0.1311 0.2224 0.0136
v  0.1775 0.1668 0.0000
v  0.1581 0.1662 0.0308
# 13 vertices

vn -0.3107 0.1759 -0.9341
vn -0.6714 -0.4597 -0.5812
vn -0.9475 -0.3196 -0.0070
vn -0.3224 0.7728 -0.5467
vn 0.0611 0.8285 -0.5566
vn -0.6907 0.7229 -0.0199
vn -0.2951 0.7775 0.5554
vn 0.3676 0.3950 -0.8420
vn -0.6709 -0.4606 0.5812
vn 0.4083 0.4414 -0.7990
vn 0.0521 0.8212 0.5682
vn 0.3855 0.9227 0.0000
vn 0.7310 0.4957 -0.4690
vn 0.7676 0.6410 0.0000
vn 0.3658 0.4037 0.8386
vn 0.3948 0.4376 0.8079
vn -0.3053 0.1760 0.9359
vn 0.7310 0.4957 0.4690
# 18 vertex normals

g Nemu_0_0_019
usemtl Material__231
s 1
f 193//276 194//276 195//276 
f 193//277 196//277 194//277 
f 196//278 197//278 194//278 
f 198//279 195//279 194//279 
f 195//280 198//280 199//280 
f 197//281 198//281 194//281 
f 200//282 198//282 197//282 
f 195//283 201//283 193//283 
f 196//284 202//284 197//284 
f 201//285 195//285 199//285 
f 198//286 200//286 203//286 
f 199//287 198//287 203//287 
f 204//288 201//288 199//288 
f 204//289 199//289 203//289 
f 205//290 200//290 202//290 
f 205//291 203//291 200//291 
f 197//292 202//292 200//292 
f 203//293 205//293 204//293 
# 0 polygons - 18 triangles

#
# object Nemu_0_0_018
#

v  0.0706 0.2148 -0.0915
v  0.0543 0.1377 -0.1205
v  0.0380 0.1794 -0.1205
v  -0.0001 0.1377 -0.1305
v  0.1314 0.1377 -0.0489
v  0.1005 0.1377 -0.0915
v  0.0924 0.2383 -0.0489
v  0.1005 0.2465 0.0009
v  -0.0001 0.1967 -0.1205
v  0.1422 0.1377 0.0009
v  -0.0001 0.2465 -0.0915
v  -0.0001 0.2791 -0.0489
v  -0.0001 0.2909 0.0009
v  -0.0381 0.1794 -0.1205
v  -0.0707 0.2148 -0.0915
v  -0.0925 0.2383 -0.0489
v  -0.0544 0.1377 -0.1205
v  -0.1006 0.2465 0.0009
v  -0.1006 0.1377 -0.0915
v  -0.1315 0.1377 -0.0489
v  -0.1423 0.1377 0.0009
v  -0.0726 0.0761 -0.0915
v  -0.0390 0.1042 -0.1196
v  -0.0943 0.0562 -0.0498
v  -0.1025 0.0498 0.0000
v  -0.0001 0.0906 -0.1196
v  -0.0001 0.0498 -0.0915
v  -0.0001 0.0308 -0.0498
v  -0.0001 0.0217 0.0000
v  0.0389 0.1042 -0.1196
v  0.0724 0.0761 -0.0915
v  0.0942 0.0562 -0.0498
v  0.1024 0.0498 0.0000
v  -0.0526 0.0290 0.0480
v  0.0525 0.0290 0.0480
v  0.1268 0.0888 0.0480
v  0.1268 0.1930 0.0480
v  -0.1269 0.0888 0.0480
v  -0.1269 0.1930 0.0480
v  -0.0526 0.2755 0.0489
v  0.0525 0.2755 0.0480
# 41 vertices

vn 0.5185 0.2029 -0.8306
vn 0.1799 0.0704 -0.9812
vn 0.7729 0.3001 -0.5591
vn 0.5205 0.2021 -0.8296
vn 0.9123 0.3534 -0.2071
vn 0.7725 0.2993 -0.5600
vn 0.0753 0.1664 -0.9832
vn 0.9150 0.3507 -0.1996
vn 0.2197 0.4896 -0.8438
vn 0.2218 0.4904 -0.8428
vn 0.3306 0.7493 -0.5739
vn 0.3332 0.7426 -0.5810
vn 0.3947 0.8942 -0.2113
vn 0.3946 0.8943 -0.2109
vn -0.2197 0.4896 -0.8438
vn -0.0753 0.1664 -0.9832
vn -0.3356 0.7478 -0.5728
vn -0.2218 0.4904 -0.8428
vn -0.3945 0.8942 -0.2114
vn -0.3288 0.7452 -0.5801
vn -0.1799 0.0704 -0.9812
vn -0.3948 0.8942 -0.2109
vn -0.5185 0.2029 -0.8306
vn -0.5205 0.2021 -0.8296
vn -0.7725 0.2993 -0.5600
vn -0.7729 0.3001 -0.5591
vn -0.9123 0.3534 -0.2071
vn -0.9150 0.3507 -0.1996
vn -0.5165 -0.2355 -0.8232
vn -0.1793 -0.1088 -0.9778
vn -0.7578 -0.3390 -0.5575
vn -0.4914 -0.2483 -0.8348
vn -0.8935 -0.4033 -0.1975
vn -0.7600 -0.3465 -0.5498
vn -0.0782 -0.2242 -0.9714
vn -0.8934 -0.4048 -0.1949
vn -0.1941 -0.5565 -0.8078
vn -0.2032 -0.5604 -0.8029
vn -0.2232 -0.8289 -0.5129
vn -0.3132 -0.8639 -0.3944
vn -0.2606 -0.9499 -0.1727
vn -0.2565 -0.9527 -0.1632
vn 0.1941 -0.5565 -0.8078
vn 0.0782 -0.2242 -0.9714
vn 0.3132 -0.8639 -0.3944
vn 0.2032 -0.5604 -0.8029
vn 0.2561 -0.9511 -0.1729
vn 0.2232 -0.8289 -0.5129
vn 0.8935 -0.4033 -0.1975
vn 0.2610 -0.9513 -0.1638
vn 0.7578 -0.3390 -0.5575
vn 0.8934 -0.4048 -0.1949
vn 0.5165 -0.2355 -0.8232
vn 0.7600 -0.3465 -0.5498
vn 0.1793 -0.1088 -0.9778
vn 0.4914 -0.2483 -0.8348
vn 0.0000 -0.9888 0.1493
vn 0.2619 -0.9545 -0.1425
vn 0.9505 -0.0000 0.3107
vn 0.5984 -0.7435 0.2984
vn -0.5984 -0.7435 0.2984
vn -0.2619 -0.9545 -0.1425
vn -0.9505 -0.0000 0.3107
vn -0.9036 -0.4085 -0.1289
vn -0.7047 0.6315 0.3235
vn -0.9277 0.3556 -0.1139
vn 0.7022 0.6328 0.3263
vn 0.9277 0.3556 -0.1139
vn 0.3993 0.9045 -0.1497
vn 0.0027 0.9514 0.3081
vn 0.9036 -0.4085 -0.1289
vn -0.3995 0.9049 -0.1469
# 72 vertex normals

g Nemu_0_0_018
usemtl Material__230
s 1
f 206//294 207//294 208//294 
f 209//295 208//295 207//295 
f 206//296 210//296 211//296 
f 206//297 211//297 207//297 
f 210//298 212//298 213//298 
f 206//299 212//299 210//299 
f 209//300 214//300 208//300 
f 210//301 213//301 215//301 
f 216//302 206//302 208//302 
f 216//303 208//303 214//303 
f 216//304 217//304 212//304 
f 216//305 212//305 206//305 
f 217//306 218//306 213//306 
f 217//307 213//307 212//307 
f 216//308 219//308 220//308 
f 209//309 219//309 214//309 
f 220//310 217//310 216//310 
f 216//311 214//311 219//311 
f 221//312 218//312 217//312 
f 220//313 221//313 217//313 
f 209//314 222//314 219//314 
f 221//315 223//315 218//315 
f 220//316 219//316 222//316 
f 220//317 222//317 224//317 
f 225//318 221//318 220//318 
f 225//319 220//319 224//319 
f 223//320 221//320 225//320 
f 223//321 225//321 226//321 
f 222//322 227//322 224//322 
f 209//323 228//323 222//323 
f 225//324 227//324 229//324 
f 222//325 228//325 227//325 
f 226//326 229//326 230//326 
f 225//327 224//327 227//327 
f 209//328 231//328 228//328 
f 226//329 225//329 229//329 
f 228//330 231//330 232//330 
f 228//331 232//331 227//331 
f 233//332 229//332 227//332 
f 233//333 227//333 232//333 
f 233//334 234//334 230//334 
f 233//335 230//335 229//335 
f 235//336 232//336 231//336 
f 209//337 235//337 231//337 
f 236//338 233//338 232//338 
f 235//339 236//339 232//339 
f 237//340 234//340 233//340 
f 236//341 237//341 233//341 
f 237//342 215//342 238//342 
f 237//343 238//343 234//343 
f 236//344 210//344 237//344 
f 237//345 210//345 215//345 
f 207//346 211//346 236//346 
f 236//347 211//347 210//347 
f 209//348 207//348 235//348 
f 207//349 236//349 235//349 
f 239//350 234//350 240//350 
f 238//351 240//351 234//351 
f 241//352 215//352 242//352 
f 240//353 238//353 241//353 
f 243//354 230//354 239//354 
f 234//355 239//355 230//355 
f 244//356 226//356 243//356 
f 230//357 243//357 226//357 
f 245//358 223//358 244//358 
f 226//359 244//359 223//359 
f 242//360 213//360 246//360 
f 213//361 242//361 215//361 
f 218//362 246//362 213//362 
f 246//363 218//363 245//363 
f 215//364 241//364 238//364 
f 223//365 245//365 218//365 
# 0 polygons - 72 triangles

#
# object inhale_118AB4C3_0_026
#

v  0.0788 0.1169 0.1196
v  -0.0000 0.1649 0.1468
v  -0.0789 0.1169 0.1196
v  -0.0698 0.1758 0.1214
v  -0.0000 0.2356 0.1260
v  -0.0617 0.2474 0.0943
v  0.0697 0.1758 0.1214
v  0.0616 0.2474 0.0943
# 8 vertices

vn 0.0000 -0.4926 0.8703
vn -0.3385 0.0231 0.9407
vn -0.3695 0.3664 0.8540
vn -0.2915 0.2706 0.9175
vn 0.2915 0.2706 0.9175
vn 0.3385 0.0231 0.9407
vn 0.3695 0.3664 0.8540
# 7 vertex normals

vt 1.0000 0.0000 0.0000
vt 0.5000 0.3633 0.0000
vt 0.0000 0.0000 0.0000
vt 0.0537 0.4492 0.0000
vt 0.5000 0.9082 0.0000
vt 0.1084 1.0000 0.0000
vt 0.9453 0.4492 0.0000
vt 0.8906 1.0000 0.0000
# 8 texture coords

g inhale_118AB4C3_0_026
usemtl Material__251
s 1
f 247/62/366 248/63/366 249/64/366 
f 248/63/367 250/65/367 249/64/367 
f 250/65/368 251/66/368 252/67/368 
f 251/66/369 250/65/369 248/63/369 
f 253/68/370 251/66/370 248/63/370 
f 253/68/371 248/63/371 247/62/371 
f 251/66/372 253/68/372 254/69/372 
# 0 polygons - 7 triangles

#
# object inhale_0_0_029
#

v  -0.0000 0.0947 0.0725
v  0.0416 0.0847 0.0988
v  0.0525 0.1346 0.0943
v  -0.0000 0.0621 0.1060
v  0.0290 0.1817 0.1106
v  -0.0000 0.1373 0.0435
v  -0.0000 0.1862 0.0734
v  -0.0290 0.1817 0.1106
v  -0.0000 0.1944 0.1151
v  -0.0526 0.1346 0.0943
# 10 vertices

vn -0.4921 0.1847 0.8507
vn -0.2591 0.6923 0.6735
vn -0.6095 -0.5138 0.6038
vn -0.6096 0.4461 0.6553
vn 0.7615 -0.3380 0.5531
vn -0.7615 -0.3380 0.5531
vn 0.3709 -0.9114 0.1783
vn 0.6095 -0.5138 0.6038
# 8 vertex normals

g inhale_0_0_029
usemtl Material__266
s 1
f 255//373 256//373 257//373 
f 258//374 256//374 255//374 
f 259//375 260//375 257//375 
f 255//376 257//376 260//376 
f 260//377 261//377 262//377 
f 259//378 261//378 260//378 
f 262//379 261//379 263//379 
f 260//380 262//380 264//380 
# 0 polygons - 8 triangles

#
# object inhale_0_0_028
#

v  -0.0417 0.0847 0.0988
v  -0.0000 0.0947 0.0725
v  -0.0000 0.1373 0.0435
v  -0.0000 0.0621 0.1060
v  -0.0000 0.1862 0.0734
v  0.0290 0.1817 0.1106
v  -0.0000 0.1944 0.1151
v  -0.0526 0.1346 0.0943
# 8 vertices

vn 0.3605 0.5249 0.7710
vn 0.2591 0.6923 0.6735
vn -0.3709 -0.9114 0.1783
vn 0.6732 0.2113 0.7086
# 4 vertex normals

g inhale_0_0_028
usemtl Material__267
s 1
f 265//381 266//381 267//381 
f 265//382 268//382 266//382 
f 269//383 270//383 271//383 
f 265//384 267//384 272//384 
# 0 polygons - 4 triangles

#
# object inhale_0_0_027
#

v  -0.0417 0.0847 0.0988
v  -0.0698 0.1522 0.1042
v  -0.0508 0.0888 0.1115
v  -0.0000 0.0589 0.1169
v  0.0507 0.0888 0.1115
v  -0.0000 0.0621 0.1060
v  0.0697 0.1522 0.1042
v  0.0416 0.2247 0.1088
v  0.0290 0.1817 0.1106
v  0.0416 0.0847 0.0988
v  -0.0526 0.1346 0.0943
v  0.0525 0.1346 0.0943
v  -0.0290 0.1817 0.1106
v  -0.0000 0.1944 0.1151
v  -0.0000 0.2420 0.1097
v  -0.0417 0.2247 0.1088
# 16 vertices

vn 0.8190 0.3015 0.4881
vn 0.4997 0.8625 0.0797
vn -0.4722 0.8462 0.2468
vn 0.4276 0.8678 0.2531
vn 0.1516 -0.0031 0.9884
vn -0.4698 0.8812 0.0523
vn 0.6406 0.2070 0.7395
vn -0.1350 -0.3837 0.9135
vn -0.2007 0.1112 0.9733
vn -0.0348 0.0318 0.9989
# 10 vertex normals

g inhale_0_0_027
usemtl Material__253
s 1
f 273//385 274//385 275//385 
f 276//386 273//386 275//386 
f 277//387 278//387 276//387 
f 276//388 278//388 273//388 
f 279//389 280//389 281//389 
f 277//390 282//390 278//390 
f 273//391 283//391 274//391 
f 279//392 281//392 284//392 
f 285//393 286//393 287//393 
f 285//394 287//394 288//394 
# 0 polygons - 10 triangles

#
# object inhale_0_0_026
#

v  -0.0290 0.1817 0.1106
v  -0.0698 0.1522 0.1042
v  -0.0526 0.1346 0.0943
v  -0.0417 0.2247 0.1088
v  0.0697 0.1522 0.1042
v  0.0525 0.1346 0.0943
v  0.0416 0.0847 0.0988
v  0.0507 0.0888 0.1115
v  -0.0000 0.1944 0.1151
v  0.0290 0.1817 0.1106
v  0.0416 0.2247 0.1088
v  -0.0000 0.2420 0.1097
# 12 vertices

vn 0.1350 -0.3837 0.9135
vn -0.1516 -0.0031 0.9884
vn -0.6406 0.2070 0.7395
vn -0.8190 0.3015 0.4881
vn 0.1529 -0.0035 0.9882
vn 0.0683 0.1133 0.9912
# 6 vertex normals

g inhale_0_0_026
usemtl Material__254
s 1
f 289//395 290//395 291//395 
f 289//396 292//396 290//396 
f 293//397 294//397 295//397 
f 293//398 295//398 296//398 
f 297//399 298//399 299//399 
f 297//400 299//400 300//400 
# 0 polygons - 6 triangles

#
# object inhale_0_0_025
#

v  0.0507 0.0888 0.1115
v  0.0516 0.0281 0.0535
v  0.1250 0.0888 0.0535
v  -0.0000 0.0589 0.1169
v  0.0697 0.1522 0.1042
v  0.1250 0.1939 0.0535
v  0.1006 0.0498 0.0009
v  0.1006 0.2465 0.0009
v  0.0516 0.2764 0.0535
v  0.0416 0.2247 0.1088
v  -0.0000 0.2909 0.0009
v  -0.0517 0.2764 0.0535
v  -0.0000 0.2420 0.1097
v  -0.0000 0.2800 -0.0489
v  0.0924 0.2383 -0.0489
v  0.1006 0.1387 -0.0915
v  0.1314 0.1387 -0.0489
v  0.0706 0.2148 -0.0915
v  0.0543 0.1387 -0.1205
v  -0.0000 0.1387 -0.1305
v  0.0380 0.1803 -0.1205
v  0.0380 0.1051 -0.1205
v  0.1422 0.1387 0.0009
v  -0.0000 0.2465 -0.0915
v  -0.0000 0.1976 -0.1205
v  -0.0381 0.1803 -0.1205
v  -0.0707 0.2148 -0.0915
v  -0.0925 0.2383 -0.0489
v  -0.1006 0.2465 0.0009
v  -0.0417 0.2247 0.1088
v  -0.1251 0.1939 0.0535
v  -0.1423 0.1387 0.0009
v  -0.1251 0.0888 0.0535
v  -0.0698 0.1522 0.1042
v  -0.1314 0.1387 -0.0489
v  -0.1006 0.1387 -0.0915
v  -0.0544 0.1387 -0.1205
v  -0.0381 0.1051 -0.1205
v  -0.0707 0.0761 -0.0915
v  -0.0925 0.0562 -0.0489
v  -0.1006 0.0498 0.0009
v  -0.0508 0.0888 0.1115
v  -0.0517 0.0281 0.0535
v  -0.0000 0.0498 -0.0915
v  -0.0000 0.0906 -0.1205
v  0.0706 0.0761 -0.0915
v  0.0924 0.0562 -0.0489
v  -0.0000 0.0308 -0.0489
v  -0.0000 0.0208 0.0009
# 49 vertices

vn 0.4937 -0.5968 0.6325
vn 0.4347 -0.6187 0.6545
vn 0.6763 -0.0000 0.7367
vn 0.6146 -0.7431 0.2648
vn 0.7120 0.6338 0.3023
vn 0.5959 0.5304 0.6030
vn 0.0000 0.9640 0.2659
vn 0.0000 0.8526 0.5226
vn 0.4018 0.8910 -0.2115
vn 0.3960 0.8971 -0.1957
vn 0.7724 0.3019 -0.5588
vn 0.9111 0.3562 -0.2074
vn 0.5203 0.2044 -0.8292
vn 0.7705 0.3027 -0.5609
vn 0.1799 0.0704 -0.9812
vn 0.5213 0.2040 -0.8287
vn 0.1796 -0.0874 -0.9798
vn 0.9140 0.3533 -0.1994
vn 0.2247 0.4968 -0.8383
vn 0.0753 0.1664 -0.9832
vn 0.3332 0.7426 -0.5810
vn 0.2226 0.4960 -0.8393
vn -0.0753 0.1664 -0.9832
vn 0.3340 0.7406 -0.5830
vn -0.2247 0.4968 -0.8383
vn -0.2226 0.4960 -0.8393
vn -0.3340 0.7406 -0.5830
vn -0.3332 0.7426 -0.5810
vn -0.3960 0.8971 -0.1957
vn -0.4018 0.8910 -0.2115
vn -0.5959 0.5304 0.6030
vn -0.7120 0.6338 0.3023
vn -0.9503 -0.0000 0.3113
vn -0.6763 -0.0000 0.7367
vn -0.9111 0.3562 -0.2074
vn -0.9140 0.3533 -0.1994
vn -0.7705 0.3027 -0.5609
vn -0.7724 0.3019 -0.5588
vn -0.5213 0.2040 -0.8287
vn -0.5203 0.2044 -0.8292
vn -0.1796 -0.0874 -0.9798
vn -0.1799 0.0704 -0.9812
vn -0.5107 -0.2485 -0.8230
vn -0.5151 -0.2464 -0.8210
vn -0.7555 -0.3613 -0.5465
vn -0.7540 -0.3563 -0.5518
vn -0.8870 -0.4192 -0.1935
vn -0.8873 -0.4165 -0.1982
vn -0.4937 -0.5968 0.6325
vn -0.6146 -0.7431 0.2648
vn -0.2095 -0.5635 -0.7991
vn -0.0772 -0.2026 -0.9762
vn 0.2095 -0.5635 -0.7991
vn 0.2156 -0.5659 -0.7958
vn 0.2283 -0.8318 -0.5059
vn 0.3214 -0.8646 -0.3863
vn 0.2599 -0.9469 -0.1894
vn 0.8873 -0.4165 -0.1982
vn 0.2732 -0.9476 -0.1653
vn 0.7540 -0.3563 -0.5518
vn 0.8870 -0.4192 -0.1935
vn 0.5151 -0.2464 -0.8210
vn 0.7555 -0.3613 -0.5465
vn 0.9002 -0.4225 -0.1058
vn 0.5107 -0.2485 -0.8230
vn 0.9302 0.3596 -0.0735
vn 0.9503 -0.0000 0.3113
vn 0.0000 -0.9906 0.1366
vn 0.2743 -0.9516 -0.1384
vn 0.6125 -0.0941 0.7848
vn 0.0000 -0.8995 0.4369
vn 0.3997 0.9054 -0.1430
vn 0.2923 0.6719 0.6805
vn -0.2923 0.6719 0.6805
vn 0.5888 0.1789 0.7883
vn -0.6125 -0.0941 0.7848
vn -0.5888 0.1789 0.7883
vn -0.2743 -0.9516 -0.1384
vn -0.4347 -0.6187 0.6545
vn -0.2599 -0.9469 -0.1894
vn -0.2732 -0.9476 -0.1653
vn -0.3214 -0.8646 -0.3863
vn -0.2283 -0.8318 -0.5059
vn -0.9302 0.3596 -0.0735
vn -0.9002 -0.4225 -0.1058
vn -0.2156 -0.5659 -0.7958
vn -0.3997 0.9054 -0.1430
vn 0.0772 -0.2026 -0.9762
# 88 vertex normals

g inhale_0_0_025
usemtl Material__252
s 1
f 301//401 302//401 303//401 
f 302//402 301//402 304//402 
f 305//403 303//403 306//403 
f 302//404 307//404 303//404 
f 306//405 308//405 309//405 
f 310//406 306//406 309//406 
f 309//407 311//407 312//407 
f 313//408 309//408 312//408 
f 314//409 308//409 315//409 
f 314//410 311//410 308//410 
f 316//411 315//411 317//411 
f 317//412 315//412 308//412 
f 318//413 316//413 319//413 
f 316//414 318//414 315//414 
f 320//415 321//415 319//415 
f 318//416 319//416 321//416 
f 320//417 319//417 322//417 
f 317//418 308//418 323//418 
f 324//419 321//419 325//419 
f 320//420 325//420 321//420 
f 324//421 315//421 318//421 
f 324//422 318//422 321//422 
f 320//423 326//423 325//423 
f 324//424 314//424 315//424 
f 324//425 325//425 326//425 
f 324//426 326//426 327//426 
f 328//427 314//427 324//427 
f 328//428 324//428 327//428 
f 329//429 311//429 314//429 
f 329//430 314//430 328//430 
f 330//431 312//431 331//431 
f 312//432 329//432 331//432 
f 331//433 332//433 333//433 
f 334//434 331//434 333//434 
f 329//435 328//435 335//435 
f 329//436 335//436 332//436 
f 328//437 327//437 336//437 
f 328//438 336//438 335//438 
f 327//439 326//439 337//439 
f 327//440 337//440 336//440 
f 320//441 338//441 337//441 
f 320//442 337//442 326//442 
f 337//443 338//443 339//443 
f 337//444 339//444 336//444 
f 335//445 336//445 339//445 
f 335//446 339//446 340//446 
f 332//447 335//447 340//447 
f 332//448 340//448 341//448 
f 342//449 333//449 343//449 
f 333//450 341//450 343//450 
f 338//451 344//451 339//451 
f 320//452 345//452 338//452 
f 322//453 346//453 344//453 
f 322//454 344//454 345//454 
f 346//455 347//455 348//455 
f 346//456 348//456 344//456 
f 347//457 349//457 348//457 
f 347//458 323//458 307//458 
f 347//459 307//459 349//459 
f 346//460 317//460 347//460 
f 347//461 317//461 323//461 
f 319//462 316//462 346//462 
f 346//463 316//463 317//463 
f 323//464 303//464 307//464 
f 319//465 346//465 322//465 
f 308//466 306//466 323//466 
f 303//467 323//467 306//467 
f 343//468 349//468 302//468 
f 307//469 302//469 349//469 
f 303//470 305//470 301//470 
f 304//471 343//471 302//471 
f 311//472 309//472 308//472 
f 309//473 313//473 310//473 
f 312//474 330//474 313//474 
f 306//475 310//475 305//475 
f 333//476 342//476 334//476 
f 331//477 334//477 330//477 
f 349//478 343//478 341//478 
f 343//479 304//479 342//479 
f 349//480 340//480 348//480 
f 349//481 341//481 340//481 
f 348//482 339//482 344//482 
f 348//483 340//483 339//483 
f 332//484 331//484 329//484 
f 341//485 333//485 332//485 
f 338//486 345//486 344//486 
f 329//487 312//487 311//487 
f 320//488 322//488 345//488 
# 0 polygons - 88 triangles

