# 3ds Max Wavefront OBJ Exporter v0.97b - (c)2007 guruware
# File Created: 27.04.2019 19:02:18

mtllib kirbylp.mtl

#
# object legr_0_0_009
#

v  -0.1162 0.0516 -0.0454
v  -0.0598 0.0844 -0.0170
v  -0.0401 0.0599 -0.0814
v  -0.0702 0.0108 -0.1014
v  -0.0099 0.0111 -0.0849
v  -0.1149 0.0048 -0.0508
v  -0.1353 0.0037 0.0160
v  -0.0053 0.0477 -0.0037
v  -0.0932 0.0495 0.0742
v  -0.0106 -0.0042 -0.0012
v  -0.0235 -0.0001 0.0465
v  -0.1219 0.0031 0.0759
v  -0.0733 0.0009 0.0902
# 13 vertices

vn -0.2909 0.8611 -0.4171
vn -0.4053 0.5479 -0.7319
vn 0.2557 0.2261 -0.9400
vn -0.7512 0.0555 -0.6577
vn -0.9564 0.0075 -0.2919
vn 0.5753 0.8073 -0.1312
vn -0.5434 0.8310 0.1190
vn 0.8074 0.5194 -0.2800
vn 0.0531 -0.9824 -0.1790
vn -0.0210 -0.9905 -0.1362
vn 0.9947 -0.1025 -0.0101
vn -0.0686 -0.9969 -0.0373
vn 0.9598 -0.0857 0.2672
vn -0.8309 0.5227 0.1905
vn -0.0304 -0.9995 -0.0130
vn -0.0462 -0.9989 0.0002
vn 0.5904 0.4594 0.6636
vn -0.2667 0.2014 0.9425
vn -0.8223 0.5438 0.1677
vn 0.5922 0.4651 0.6580
vn -0.0535 -0.9960 0.0719
vn 0.4182 0.7866 0.4543
# 22 vertex normals

g legr_0_0_009
usemtl Material__847
s 1
f 1//1 2//1 3//1 
f 4//2 1//2 3//2 
f 4//3 3//3 5//3 
f 1//4 4//4 6//4 
f 1//5 6//5 7//5 
f 3//6 2//6 8//6 
f 2//7 1//7 9//7 
f 8//8 5//8 3//8 
f 10//9 4//9 5//9 
f 4//10 10//10 6//10 
f 5//11 8//11 10//11 
f 6//12 10//12 7//12 
f 10//13 8//13 11//13 
f 9//14 7//14 12//14 
f 7//15 11//15 13//15 
f 7//16 13//16 12//16 
f 9//17 13//17 11//17 
f 9//18 12//18 13//18 
f 7//19 9//19 1//19 
f 9//20 11//20 8//20 
f 11//21 7//21 10//21 
f 2//22 9//22 8//22 
# 0 polygons - 22 triangles

#
# object legl_0_0_008
#

v  0.0586 0.0842 -0.0167
v  0.0397 0.0598 -0.0813
v  0.0052 0.0459 -0.0038
v  0.0109 0.0102 -0.0854
v  0.0119 -0.0059 -0.0018
v  0.0713 0.0118 -0.1017
v  0.1160 0.0532 -0.0453
v  0.0246 -0.0019 0.0459
v  0.0928 0.0493 0.0742
v  0.1160 0.0065 -0.0512
v  0.0743 0.0001 0.0897
v  0.1363 0.0053 0.0157
v  0.1228 0.0038 0.0756
# 13 vertices

vn -0.5973 0.7923 -0.1245
vn -0.8210 0.4995 -0.2766
vn -0.9914 -0.1299 -0.0132
vn -0.2601 0.2280 -0.9383
vn -0.0254 -0.9817 -0.1886
vn 0.2676 0.8728 -0.4082
vn 0.3912 0.5659 -0.7257
vn -0.9576 -0.1148 0.2644
vn -0.6061 0.4421 0.6612
vn -0.4407 0.7702 0.4610
vn 0.7506 0.0826 -0.6556
vn 0.5199 0.8445 0.1282
vn 0.0488 -0.9881 -0.1457
vn -0.6041 0.4364 0.6668
vn 0.0963 -0.9942 -0.0468
vn 0.0810 -0.9948 0.0624
vn 0.9564 0.0369 -0.2898
vn 0.8066 0.5647 0.1747
vn 0.2593 0.1995 0.9450
vn 0.0582 -0.9980 -0.0226
vn 0.0740 -0.9972 -0.0093
vn 0.8158 0.5437 0.1972
# 22 vertex normals

g legl_0_0_008
usemtl Material__846
s 1
f 14//23 15//23 16//23 
f 17//24 16//24 15//24 
f 16//25 17//25 18//25 
f 15//26 19//26 17//26 
f 19//27 18//27 17//27 
f 14//28 20//28 15//28 
f 20//29 19//29 15//29 
f 16//30 18//30 21//30 
f 21//31 22//31 16//31 
f 22//32 14//32 16//32 
f 19//33 20//33 23//33 
f 20//34 14//34 22//34 
f 18//35 19//35 23//35 
f 21//36 24//36 22//36 
f 18//37 23//37 25//37 
f 25//38 21//38 18//38 
f 23//39 20//39 25//39 
f 22//40 25//40 20//40 
f 26//41 22//41 24//41 
f 21//42 25//42 24//42 
f 24//43 25//43 26//43 
f 25//44 22//44 26//44 
# 0 polygons - 22 triangles

#
# object armr_0_0_007
#

v  -0.0977 0.1510 -0.0001
v  -0.1244 0.1657 0.0462
v  -0.1152 0.0955 -0.0001
v  -0.0951 0.1502 -0.0001
v  -0.1417 0.1012 0.0262
v  -0.1245 0.1658 -0.0463
v  -0.1447 0.0833 -0.0001
v  -0.1768 0.1672 0.0000
v  -0.1675 0.1021 -0.0000
v  -0.1418 0.1013 -0.0264
# 10 vertices

vn 0.8010 -0.2529 0.5427
vn -0.2819 -0.9493 0.1392
vn 0.6097 -0.3792 0.6961
vn -0.2822 -0.9490 -0.1403
vn 0.3300 -0.7977 0.5047
vn 0.7997 -0.2519 -0.5451
vn -0.7118 -0.1027 0.6948
vn 0.6080 -0.3778 -0.6982
vn 0.3288 -0.7968 -0.5070
vn -0.6628 -0.0530 -0.7469
vn -0.7135 -0.1013 -0.6933
vn -0.5458 -0.6634 0.5119
vn -0.6610 -0.0544 0.7484
vn -0.5470 -0.6624 -0.5119
# 14 vertex normals

g armr_0_0_007
usemtl Material__852
s 1
f 27//45 28//45 29//45 
f 28//46 27//46 30//46 
f 29//47 28//47 31//47 
f 27//48 32//48 30//48 
f 29//49 31//49 33//49 
f 32//50 27//50 29//50 
f 31//51 34//51 35//51 
f 32//52 29//52 36//52 
f 36//53 29//53 33//53 
f 34//54 32//54 36//54 
f 34//55 36//55 35//55 
f 31//56 35//56 33//56 
f 34//57 31//57 28//57 
f 35//58 36//58 33//58 
# 0 polygons - 14 triangles

#
# object armr_0_0_006
#

v  -0.0951 0.1502 -0.0001
v  -0.0738 0.2040 -0.0001
v  -0.1067 0.2108 0.0326
v  -0.1244 0.1657 0.0462
v  -0.1324 0.2222 0.0191
v  -0.1047 0.2336 0.0000
v  -0.1325 0.2222 -0.0190
v  -0.1068 0.2108 -0.0326
v  -0.1768 0.1672 0.0000
v  -0.1245 0.1658 -0.0463
# 10 vertices

vn 0.6535 -0.2589 0.7113
vn 0.8121 -0.1490 0.5642
vn -0.2937 0.3796 0.8773
vn 0.6070 0.6331 0.4803
vn -0.3784 0.9257 0.0013
vn 0.6058 0.6340 -0.4806
vn -0.6342 0.2597 0.7282
vn 0.0587 0.8175 -0.5730
vn -0.7784 0.6277 0.0015
vn -0.2958 0.3813 -0.8759
vn 0.0600 0.8164 0.5744
vn -0.6359 0.2611 -0.7262
vn 0.8108 -0.1479 -0.5664
vn 0.6518 -0.2575 -0.7133
# 14 vertex normals

g armr_0_0_006
usemtl Material__851
s 1
f 37//59 38//59 39//59 
f 37//60 39//60 40//60 
f 41//61 40//61 39//61 
f 38//62 42//62 39//62 
f 42//63 43//63 41//63 
f 42//64 38//64 44//64 
f 41//65 45//65 40//65 
f 42//66 44//66 43//66 
f 43//67 45//67 41//67 
f 46//68 43//68 44//68 
f 39//69 42//69 41//69 
f 46//70 45//70 43//70 
f 37//71 46//71 44//71 
f 37//72 44//72 38//72 
# 0 polygons - 14 triangles

#
# object arml_0_0_005
#

v  0.0972 0.1506 0.0000
v  0.1240 0.1652 -0.0462
v  0.1151 0.0952 0.0000
v  0.0941 0.1502 0.0000
v  0.1417 0.1007 -0.0263
v  0.1240 0.1652 0.0462
v  0.1770 0.1675 0.0000
v  0.1417 0.1007 0.0263
v  0.1443 0.0837 0.0000
v  0.1673 0.1023 0.0000
# 10 vertices

vn -0.7980 -0.2585 -0.5443
vn 0.1127 -0.9644 -0.2394
vn -0.6084 -0.3822 -0.6955
vn 0.1127 -0.9644 0.2394
vn -0.7980 -0.2585 0.5443
vn 0.6575 -0.0514 -0.7517
vn -0.6084 -0.3822 0.6955
vn -0.3193 -0.8095 -0.4926
vn -0.3193 -0.8095 0.4926
vn 0.7162 -0.1068 -0.6897
vn 0.7162 -0.1068 0.6897
vn 0.5485 -0.6760 -0.4921
vn 0.6575 -0.0514 0.7517
vn 0.5485 -0.6760 0.4921
# 14 vertex normals

g arml_0_0_005
usemtl Material__850
s 1
f 47//73 48//73 49//73 
f 48//74 47//74 50//74 
f 49//75 48//75 51//75 
f 47//76 52//76 50//76 
f 52//77 47//77 49//77 
f 48//78 53//78 51//78 
f 52//79 49//79 54//79 
f 49//80 51//80 55//80 
f 54//81 49//81 55//81 
f 51//82 53//82 56//82 
f 53//83 54//83 56//83 
f 51//84 56//84 55//84 
f 54//85 53//85 52//85 
f 56//86 54//86 55//86 
# 0 polygons - 14 triangles

#
# object arml_0_0_004
#

v  0.1068 0.2107 -0.0326
v  0.1770 0.1675 0.0000
v  0.1240 0.1652 -0.0462
v  0.1240 0.1652 0.0462
v  0.0739 0.2038 0.0000
v  0.0941 0.1502 0.0000
v  0.1046 0.2335 0.0000
v  0.1324 0.2223 -0.0190
v  0.1324 0.2223 0.0190
v  0.1068 0.2107 0.0326
# 10 vertices

vn 0.5837 0.4269 -0.6907
vn -0.7595 -0.2872 0.5836
vn -0.0631 0.8166 -0.5737
vn -0.6094 0.6308 -0.4805
vn 0.3741 0.9274 0.0000
vn -0.6094 0.6308 0.4805
vn 0.4483 0.0549 -0.8922
vn -0.6979 -0.0506 0.7144
vn 0.7755 0.6313 0.0000
vn 0.2972 0.3746 0.8783
vn -0.0631 0.8166 0.5737
vn 0.6288 0.2568 0.7340
vn -0.8113 -0.1371 -0.5684
vn -0.6554 -0.2478 -0.7134
# 14 vertex normals

g arml_0_0_004
usemtl Material__849
s 1
f 57//87 58//87 59//87 
f 60//88 61//88 62//88 
f 57//89 63//89 64//89 
f 61//90 63//90 57//90 
f 64//91 63//91 65//91 
f 63//92 61//92 66//92 
f 57//93 64//93 58//93 
f 60//94 66//94 61//94 
f 58//95 64//95 65//95 
f 60//96 65//96 66//96 
f 63//97 66//97 65//97 
f 60//98 58//98 65//98 
f 62//99 57//99 59//99 
f 62//100 61//100 57//100 
# 0 polygons - 14 triangles

#
# object body_0_0_003
#

v  0.0000 0.0589 -0.1142
v  -0.0952 0.0544 -0.0698
v  -0.0616 0.0689 -0.1142
v  -0.0879 0.1314 -0.1142
v  0.0000 0.0290 -0.0698
v  -0.1341 0.1341 -0.0698
v  -0.1314 0.0770 0.0535
v  0.0000 0.1314 -0.1396
v  -0.0571 0.0254 0.0526
v  -0.1042 0.2447 -0.0716
v  0.0616 0.0689 -0.1142
v  -0.0616 0.1939 -0.1142
v  0.0961 0.0526 -0.0698
v  -0.1323 0.2003 0.0508
v  0.0000 0.2193 -0.1142
v  0.0879 0.1314 -0.1142
v  0.0571 0.0254 0.0526
v  0.0616 0.1939 -0.1142
v  0.1368 0.1323 -0.0698
v  0.1314 0.0761 0.0535
v  0.1305 0.2003 0.0562
v  0.0000 0.2683 -0.0698
v  0.1069 0.2447 -0.0680
v  0.0000 0.2900 -0.0054
v  -0.0652 0.2728 0.0526
v  0.0653 0.2728 0.0526
# 26 vertices

vn -0.1460 -0.9026 -0.4050
vn -0.7119 -0.2992 -0.6353
vn -0.2160 -0.8099 -0.5454
vn -0.6651 -0.3250 -0.6723
vn -0.8837 -0.4318 -0.1805
vn -0.2755 -0.1158 -0.9543
vn -0.2549 -0.9557 -0.1472
vn -0.0534 -0.3299 -0.9425
vn -0.6773 0.1715 -0.7154
vn -0.5708 -0.8209 -0.0170
vn 0.0534 -0.3299 -0.9425
vn -0.2755 0.1158 -0.9543
vn -0.5400 0.2270 -0.8105
vn 0.1994 -0.8128 -0.5474
vn -0.9998 -0.0069 0.0188
vn 0.1436 -0.8877 -0.4375
vn -0.1135 0.2755 -0.9546
vn 0.2755 -0.1158 -0.9543
vn -0.9581 0.2571 -0.1267
vn 0.0000 -0.9996 -0.0296
vn 0.2755 0.1158 -0.9543
vn 0.2359 -0.9618 -0.1386
vn 0.6758 -0.3456 -0.6510
vn 0.1135 0.2755 -0.9546
vn 0.5640 -0.8258 -0.0039
vn 0.8780 -0.4490 -0.1659
vn 0.9989 0.0063 0.0469
vn 0.6493 -0.2729 -0.7099
vn -0.1169 0.5791 -0.8069
vn 0.9620 0.2575 -0.0905
vn -0.3398 0.9346 -0.1048
vn -0.2042 0.9274 -0.3135
vn 0.3372 0.9359 -0.1015
vn 0.2094 0.9263 -0.3131
vn -0.7329 0.6760 0.0771
vn -0.2667 0.6477 -0.7137
vn 0.2225 0.5404 -0.8115
vn 0.5542 0.2329 -0.7991
vn 0.6582 0.1869 -0.7292
vn 0.1586 0.6635 -0.7312
vn 0.7372 0.6684 0.0992
vn 0.0000 0.9586 0.2846
# 42 vertex normals

g body_0_0_003
usemtl Material__848
s 1
f 67//101 68//101 69//101 
f 70//102 69//102 68//102 
f 67//103 71//103 68//103 
f 70//104 68//104 72//104 
f 68//105 73//105 72//105 
f 74//106 69//106 70//106 
f 71//107 75//107 68//107 
f 74//108 67//108 69//108 
f 76//109 70//109 72//109 
f 73//110 68//110 75//110 
f 74//111 77//111 67//111 
f 74//112 70//112 78//112 
f 76//113 78//113 70//113 
f 79//114 71//114 67//114 
f 80//115 72//115 73//115 
f 79//116 67//116 77//116 
f 74//117 78//117 81//117 
f 74//118 82//118 77//118 
f 72//119 80//119 76//119 
f 75//120 71//120 83//120 
f 74//121 84//121 82//121 
f 79//122 83//122 71//122 
f 77//123 85//123 79//123 
f 74//124 81//124 84//124 
f 83//125 79//125 86//125 
f 85//126 86//126 79//126 
f 86//127 85//127 87//127 
f 77//128 82//128 85//128 
f 88//129 78//129 76//129 
f 89//130 87//130 85//130 
f 90//131 76//131 91//131 
f 76//132 90//132 88//132 
f 89//133 90//133 92//133 
f 90//134 89//134 88//134 
f 91//135 76//135 80//135 
f 88//136 81//136 78//136 
f 89//137 84//137 81//137 
f 89//138 82//138 84//138 
f 89//139 85//139 82//139 
f 89//140 81//140 88//140 
f 87//141 89//141 92//141 
f 92//142 90//142 91//142 
# 0 polygons - 42 triangles

#
# object body_34B9100B_0_002
#

v  -0.1087 0.1314 0.0988
v  -0.1323 0.2003 0.0508
v  -0.1314 0.0770 0.0535
v  -0.0571 0.0254 0.0526
v  0.0000 0.0453 0.0988
v  -0.0770 0.0770 0.0988
v  -0.0480 0.1332 0.1296
v  0.0571 0.0254 0.0526
v  -0.0770 0.2084 0.0988
v  -0.0335 0.0997 0.1296
v  0.0770 0.0770 0.0988
v  0.0000 0.0852 0.1296
v  0.0335 0.0997 0.1296
v  -0.0652 0.2728 0.0526
v  0.1314 0.0761 0.0535
v  0.0000 0.1332 0.1396
v  -0.0335 0.1677 0.1296
v  0.0480 0.1332 0.1296
v  0.0000 0.2411 0.0988
v  0.0000 0.1812 0.1296
v  0.1088 0.1314 0.0988
v  0.0335 0.1677 0.1296
v  0.0770 0.2084 0.0988
v  0.1305 0.2003 0.0562
v  0.0653 0.2728 0.0526
# 25 vertices

vn -0.8960 0.0032 0.4441
vn -0.3459 -0.5114 0.7866
vn -0.2874 -0.6979 0.6560
vn -0.8485 -0.4950 0.1872
vn -0.4319 -0.2520 0.8660
vn 0.0000 -0.9182 0.3961
vn -0.6540 0.2693 0.7070
vn -0.2417 -0.5869 0.7727
vn 0.2874 -0.6979 0.6560
vn -0.4892 -0.2115 0.8461
vn -0.4491 0.1849 0.8741
vn -0.2556 -0.5911 0.7650
vn 0.2556 -0.5911 0.7650
vn -0.5969 0.5373 0.5958
vn 0.2417 -0.5869 0.7727
vn 0.4602 -0.6840 0.5660
vn -0.2024 -0.0875 0.9754
vn -0.0875 -0.2024 0.9754
vn 0.0875 -0.2024 0.9754
vn -0.4448 0.1873 0.8758
vn 0.4892 -0.2115 0.8461
vn -0.2025 0.0853 0.9756
vn -0.1919 0.4531 0.8706
vn -0.2518 0.5946 0.7636
vn -0.0821 0.2025 0.9758
vn 0.2024 -0.0875 0.9754
vn 0.4319 -0.2520 0.8660
vn 0.5967 -0.3481 0.7230
vn 0.0821 0.2025 0.9758
vn -0.1825 0.4503 0.8740
vn 0.1858 0.4584 0.8691
vn 0.8928 -0.0033 0.4505
vn 0.6258 0.2577 0.7362
vn 0.1904 0.4496 0.8727
vn 0.0000 0.8245 0.5658
vn 0.2518 0.5946 0.7636
vn 0.4448 0.1873 0.8758
vn 0.2025 0.0853 0.9756
vn 0.5717 0.5451 0.6132
vn 0.4491 0.1849 0.8741
# 40 vertex normals

vt 0.1758 0.3813 0.0000
vt 0.1063 0.6426 0.0000
vt 0.1086 0.1763 0.0000
vt 0.3293 -0.0195 0.0000
vt 0.4977 0.0552 0.0000
vt 0.2700 0.1758 0.0000
vt 0.3567 0.3887 0.0000
vt 0.6665 -0.0195 0.0000
vt 0.2700 0.6733 0.0000
vt 0.3981 0.2612 0.0000
vt 0.7255 0.1758 0.0000
vt 0.4977 0.2080 0.0000
vt 0.5977 0.2612 0.0000
vt 0.3051 0.9141 0.0000
vt 0.8860 0.1738 0.0000
vt 0.4977 0.3887 0.0000
vt 0.3981 0.5166 0.0000
vt 0.6388 0.3887 0.0000
vt 0.4977 0.7944 0.0000
vt 0.4977 0.5693 0.0000
vt 0.8200 0.3813 0.0000
vt 0.5977 0.5166 0.0000
vt 0.7255 0.6733 0.0000
vt 0.8837 0.6396 0.0000
vt 0.6907 0.9141 0.0000
# 25 texture coords

g body_34B9100B_0_002
usemtl Material__845
s 1
f 93/1/143 94/2/143 95/3/143 
f 96/4/144 93/1/144 95/3/144 
f 96/4/145 97/5/145 98/6/145 
f 96/4/146 98/6/146 93/1/146 
f 98/6/147 99/7/147 93/1/147 
f 97/5/148 96/4/148 100/8/148 
f 94/2/149 93/1/149 101/9/149 
f 97/5/150 102/10/150 98/6/150 
f 100/8/151 103/11/151 97/5/151 
f 98/6/152 102/10/152 99/7/152 
f 99/7/153 101/9/153 93/1/153 
f 97/5/154 104/12/154 102/10/154 
f 97/5/155 105/13/155 104/12/155 
f 101/9/156 106/14/156 94/2/156 
f 97/5/157 103/11/157 105/13/157 
f 103/11/158 100/8/158 107/15/158 
f 108/16/159 99/7/159 102/10/159 
f 108/16/160 102/10/160 104/12/160 
f 108/16/161 104/12/161 105/13/161 
f 99/7/162 109/17/162 101/9/162 
f 103/11/163 110/18/163 105/13/163 
f 108/16/164 109/17/164 99/7/164 
f 109/17/165 111/19/165 101/9/165 
f 106/14/166 101/9/166 111/19/166 
f 108/16/167 112/20/167 109/17/167 
f 108/16/168 105/13/168 110/18/168 
f 103/11/169 113/21/169 110/18/169 
f 107/15/170 113/21/170 103/11/170 
f 108/16/171 114/22/171 112/20/171 
f 109/17/172 112/20/172 111/19/172 
f 112/20/173 114/22/173 115/23/173 
f 113/21/174 107/15/174 116/24/174 
f 116/24/175 115/23/175 113/21/175 
f 112/20/176 115/23/176 111/19/176 
f 111/19/177 117/25/177 106/14/177 
f 117/25/178 111/19/178 115/23/178 
f 110/18/179 115/23/179 114/22/179 
f 108/16/180 110/18/180 114/22/180 
f 115/23/181 116/24/181 117/25/181 
f 110/18/182 113/21/182 115/23/182 
# 0 polygons - 40 triangles

