# 3ds Max Wavefront OBJ Exporter v0.97b - (c)2007 guruware
# File Created: 12.09.2018 18:52:39

mtllib star.mtl

#
# object Nemu_343DF436_0_074
#

v  -0.0000 0.0570 0.0000
v  0.0870 -0.0000 0.0000
v  -0.0000 0.2700 0.0000
v  -0.0870 -0.0000 0.0000
# 4 vertices

vn 0.0000 -0.0000 1.0000
# 1 vertex normals

vt 0.5035 0.4333 0.0000
vt 0.8109 0.2786 0.0000
vt 0.5035 1.0129 0.0000
vt 0.1960 0.2786 0.0000
# 4 texture coords

g Nemu_343DF436_0_074
usemtl Material__177
s 1
f 1/1/1 2/2/1 3/3/1 
f 1/1/1 3/3/1 4/4/1 
# 0 polygons - 2 triangles

#
# object Nemu_343DF436_0_073
#

v  0.1410 0.1650 -0.0010
v  -0.1440 0.1650 -0.0010
v  -0.0000 0.0570 -0.0010
# 3 vertices

vn 0.0000 -0.0000 1.0000
# 1 vertex normals

vt 0.9922 0.7258 0.0000
vt -0.0078 0.7258 0.0000
vt 0.4971 0.4316 0.0000
# 3 texture coords

g Nemu_343DF436_0_073
usemtl Material__178
s 1
f 5/5/2 6/6/2 7/7/2 
# 0 polygons - 1 triangles

