# 3ds Max Wavefront OBJ Exporter v0.97b - (c)2007 guruware
# File Created: 27.10.2016 13:23:08

mtllib flower.mtl

#
# object Nemu_7A6A5F5B_0_061
#

v  0.0891 0.0994 0.0000
v  -0.0889 0.2294 0.0000
v  0.0891 0.2294 0.0000
v  -0.0889 0.0994 0.0000
# 4 vertices

vn 0.0000 0.0000 -1.0000
# 1 vertex normals

vt 0.9922 -0.0234 0.0000
vt -0.0078 0.9766 0.0000
vt 0.9922 0.9766 0.0000
vt -0.0078 -0.0234 0.0000
# 4 texture coords

g Nemu_7A6A5F5B_0_061
usemtl Material__453
s 1
f 1/1/1 2/2/1 3/3/1 
f 2/2/1 1/1/1 4/4/1 
# 0 polygons - 2 triangles

#
# object Nemu_24444D4B_0_060
#

v  -0.0209 -0.0041 -0.0120
v  0.0051 0.0479 0.0030
v  -0.1069 0.1229 -0.0620
v  -0.1329 0.0709 -0.0770
v  0.1071 0.1229 -0.0620
v  0.1331 0.0709 -0.0770
v  0.0211 -0.0041 -0.0120
v  -0.0049 0.0479 0.0030
v  0.0001 0.0479 -0.0060
v  0.0001 0.0709 0.1540
v  0.0001 -0.0041 0.0240
v  0.0001 0.1229 0.1240
# 12 vertices

vn -0.5014 0.0011 0.8652
vn -0.5014 -0.0011 -0.8652
vn 1.0000 0.0000 -0.0000
# 3 vertex normals

vt 1.0000 0.0000 0.0000
vt 0.0000 0.0000 0.0000
vt 0.0000 1.0000 0.0000
vt 0.9990 1.0000 0.0000
vt 1.0000 1.0000 0.0000
# 5 texture coords

g Nemu_24444D4B_0_060
usemtl Material__454
s 1
f 5/5/2 6/6/2 7/7/2 
f 5/5/2 7/7/2 8/8/2 
f 9/7/3 10/8/3 11/5/3 
f 9/7/3 11/5/3 12/6/3 
f 13/6/4 14/9/4 15/5/4 
f 13/6/4 16/7/4 14/9/4 
# 0 polygons - 6 triangles

