# 3ds Max Wavefront OBJ Exporter v0.97b - (c)2007 guruware
# File Created: 27.02.2019 02:08:58

mtllib sectorz.mtl

#
# object Nemu_4D68E1D9_0_012
#

v  1.0800 -2.9100 5.2200
v  1.6200 -2.9100 5.2200
v  1.6200 -2.3700 5.2200
v  1.0800 -2.3700 5.2200
# 4 vertices

vn 0.0000 -0.0000 1.0000
# 1 vertex normals

vt 0.0000 0.0000 0.0000
vt 1.0000 0.0000 0.0000
vt 1.0000 1.0000 0.0000
vt 0.0000 1.0000 0.0000
# 4 texture coords

g Nemu_4D68E1D9_0_012
usemtl Material__82
s 1
f 1/1/1 2/2/1 3/3/1 
f 1/1/1 3/3/1 4/4/1 
# 0 polygons - 2 triangles

#
# object Nemu_4D68E1D9_0_011
#

v  1.0800 1.5600 5.2200
v  1.6200 1.5600 5.2200
v  1.6200 2.1000 5.2200
v  1.0800 2.1000 5.2200
# 4 vertices

vn 0.0000 -0.0000 1.0000
# 1 vertex normals

vt 0.0000 0.0000 0.0000
vt 1.0000 0.0000 0.0000
vt 1.0000 1.0000 0.0000
vt 0.0000 1.0000 0.0000
# 4 texture coords

g Nemu_4D68E1D9_0_011
usemtl Material__82
s 1
f 5/5/2 6/6/2 7/7/2 
f 5/5/2 7/7/2 8/8/2 
# 0 polygons - 2 triangles

#
# object Nemu_60E3B38F_0_016
#

v  4.3800 -0.8250 1.3500
v  5.4450 -0.8250 1.3500
v  5.4450 0.2250 1.3500
v  4.3800 0.2250 1.3500
# 4 vertices

vn 0.0000 -0.0000 1.0000
# 1 vertex normals

vt 0.0000 1.0000 0.0000
vt 0.0000 0.0000 0.0000
vt 1.0000 0.0000 0.0000
vt 1.0000 1.0000 0.0000
# 4 texture coords

g Nemu_60E3B38F_0_016
usemtl Material__83
s 1
f 9/9/3 10/10/3 11/11/3 
f 9/9/3 11/11/3 12/12/3 
# 0 polygons - 2 triangles

#
# object Nemu_60E3B38F_0_015
#

v  4.8900 0.5930 2.2430
v  4.8900 0.5930 0.4570
v  4.8900 -1.1930 0.4570
v  4.8900 -1.1930 2.2430
# 4 vertices

vn -1.0000 0.0000 -0.0000
# 1 vertex normals

vt 1.0000 1.0000 0.0000
vt 0.0000 1.0000 0.0000
vt 0.0000 0.0000 0.0000
vt 1.0000 0.0000 0.0000
# 4 texture coords

g Nemu_60E3B38F_0_015
usemtl Material__83
s 1
f 13/13/4 14/14/4 15/15/4 
f 13/13/4 15/15/4 16/16/4 
# 0 polygons - 2 triangles

#
# object Nemu_60E3B38F_0_014
#

v  8.1900 -0.2100 -0.0000
v  8.8950 0.5250 -0.0000
v  8.1900 0.5250 -0.0000
v  8.8950 -0.2100 -0.0000
# 4 vertices

vn 0.0000 -0.0000 1.0000
# 1 vertex normals

vt 0.0000 1.0000 0.0000
vt 0.9990 0.0000 0.0000
vt 1.0000 0.9990 0.0000
vt 0.0000 0.0000 0.0000
# 4 texture coords

g Nemu_60E3B38F_0_014
usemtl Material__83
s 1
f 17/17/5 18/18/5 19/19/5 
f 17/17/5 20/20/5 18/18/5 
# 0 polygons - 2 triangles

#
# object Nemu_60E3B38F_0_013
#

v  8.5500 0.8170 0.6670
v  8.5500 0.8170 -0.6670
v  8.5500 -0.5170 -0.6670
v  8.5500 -0.5170 0.6670
# 4 vertices

vn -1.0000 0.0000 -0.0000
# 1 vertex normals

vt 1.0000 1.0000 0.0000
vt 0.0000 1.0000 0.0000
vt 0.0000 0.0000 0.0000
vt 1.0000 0.0000 0.0000
# 4 texture coords

g Nemu_60E3B38F_0_013
usemtl Material__83
s 1
f 21/21/6 22/22/6 23/23/6 
f 21/21/6 23/23/6 24/24/6 
# 0 polygons - 2 triangles

#
# object Nemu_5433F688_0_041
#

v  -24.4442 0.1232 5.4736
v  -24.1999 0.5672 4.3256
v  -24.3855 -0.0242 5.4026
v  -24.2586 0.7147 4.3966
v  -24.0007 0.4161 6.1856
v  -23.8666 0.8415 5.4106
v  -23.6061 0.1845 5.0946
v  -23.7402 -0.2410 5.8686
v  -22.9634 0.3439 5.2936
v  -23.2228 1.0012 5.6096
v  -23.3569 0.5758 6.3846
v  -23.0965 -0.0813 6.0676
v  -22.2837 1.0409 4.9176
v  -22.5280 0.5969 6.0656
v  -22.4694 0.4495 5.9946
v  -22.3424 1.1884 4.9886
# 16 vertices

vn -0.9295 -0.2313 -0.2872
vn -0.9297 -0.2303 -0.2873
vn -0.9298 -0.2299 -0.2874
vn 0.9301 0.2293 0.2868
vn 0.9300 0.2304 0.2865
vn -0.3366 0.8488 0.4077
vn -0.1494 -0.4771 0.8661
vn 0.9295 0.2313 0.2872
# 8 vertex normals

vt 0.9639 0.2632 0.0000
vt 0.7451 0.9976 0.0000
vt 0.7476 0.2632 0.0000
vt 0.9639 0.9951 0.0000
vt 0.0000 0.7998 0.0000
vt 1.0000 0.7998 0.0000
vt 1.0000 0.0000 0.0000
vt 0.0000 0.0000 0.0000
vt 1.0000 1.0000 0.0000
vt 0.0000 1.0000 0.0000
# 10 texture coords

g Nemu_5433F688_0_041
usemtl Material__114
s 1
f 25/25/7 26/26/7 27/27/7 
f 25/25/7 28/28/7 26/26/7 
f 29/29/8 30/30/8 31/31/8 
f 29/29/9 31/31/9 32/32/9 
f 33/31/10 34/33/10 35/34/10 
f 33/31/11 35/34/11 36/32/11 
f 29/34/12 35/33/12 34/31/12 
f 29/34/12 34/31/12 30/32/12 
f 32/32/13 35/33/13 29/34/13 
f 32/32/13 36/31/13 35/33/13 
f 37/26/14 38/25/14 39/27/14 
f 37/26/14 40/28/14 38/25/14 
# 0 polygons - 12 triangles

#
# object Nemu_5433F688_0_040
#

v  -24.4442 0.1232 5.4736
v  -22.5280 0.5969 6.0656
v  -22.3424 1.1884 4.9886
v  -24.2586 0.7147 4.3966
# 4 vertices

vn -0.3360 0.8488 0.4082
# 1 vertex normals

vt 0.0000 0.3999 0.0000
vt 2.0000 0.3999 0.0000
vt 2.0000 2.0000 0.0000
vt 0.0000 2.0000 0.0000
# 4 texture coords

g Nemu_5433F688_0_040
usemtl Material__115
s 1
f 41/35/15 42/36/15 43/37/15 
f 41/35/15 43/37/15 44/38/15 
# 0 polygons - 2 triangles

#
# object Nemu_5433F688_0_039
#

v  -24.3855 -0.0242 5.4026
v  -22.4694 0.4495 5.9946
v  -22.5280 0.5969 6.0656
v  -24.4442 0.1232 5.4736
# 4 vertices

vn -0.1497 -0.4768 0.8662
# 1 vertex normals

vt 0.0000 0.1826 0.0000
vt 2.0000 0.1826 0.0000
vt 2.0000 0.5313 0.0000
vt 0.0000 0.5313 0.0000
# 4 texture coords

g Nemu_5433F688_0_039
usemtl Material__116
s 1
f 45/39/16 46/40/16 47/41/16 
f 45/39/16 47/41/16 48/42/16 
# 0 polygons - 2 triangles

#
# object Nemu_4AE7F2F1_0_037
#

v  -24.2304 0.9644 5.0316
v  -24.2075 1.0357 4.9016
v  -23.8388 0.1041 4.4526
v  -23.8608 0.0331 4.5826
v  -23.6993 0.1396 4.4956
v  -24.0686 1.0700 4.9446
v  -24.0906 0.9990 5.0746
v  -23.7219 0.0674 4.6256
# 8 vertices

vn -0.9296 -0.2284 -0.2893
vn -0.9303 -0.2322 -0.2841
vn 0.9303 0.2322 0.2841
vn 0.9296 0.2286 0.2890
vn -0.3351 0.8496 0.4072
vn -0.3356 0.8498 0.4065
# 6 vertex normals

vt 0.9980 3.9980 0.0000
vt 0.0000 3.9980 0.0000
vt 0.0000 0.0000 0.0000
vt 0.9980 0.0000 0.0000
vt 0.0000 4.0000 0.0000
vt 1.0000 3.9980 0.0000
vt 1.0000 0.0000 0.0000
# 7 texture coords

g Nemu_4AE7F2F1_0_037
usemtl Material__86
s 1
f 49/43/17 50/44/17 51/45/17 
f 49/43/18 51/45/18 52/46/18 
f 53/45/19 54/47/19 55/48/19 
f 53/45/20 55/48/20 56/49/20 
f 49/43/21 55/48/21 54/47/21 
f 49/43/22 54/47/22 50/44/22 
# 0 polygons - 6 triangles

#
# object Nemu_4AE7F2F1_0_036
#

v  -23.0498 1.2860 6.1736
v  -23.0278 1.3570 6.0436
v  -22.2895 -0.5060 5.1466
v  -22.3125 -0.5772 5.2766
v  -22.1497 -0.4714 5.1896
v  -22.8879 1.3915 6.0866
v  -22.9109 1.3203 6.2166
v  -22.1726 -0.5427 5.3196
# 8 vertices

vn -0.9304 -0.2320 -0.2840
vn -0.9295 -0.2285 -0.2893
vn 0.9294 0.2289 0.2895
vn -0.3356 0.8498 0.4065
vn -0.3351 0.8496 0.4072
# 5 vertex normals

vt 0.9980 8.0000 0.0000
vt 0.0000 8.0000 0.0000
vt 0.0000 0.0000 0.0000
vt 0.9980 0.0000 0.0000
vt 1.0000 0.0000 0.0000
# 5 texture coords

g Nemu_4AE7F2F1_0_036
usemtl Material__87
s 1
f 57/50/23 58/51/23 59/52/23 
f 57/50/24 59/52/24 60/53/24 
f 61/52/25 62/51/25 63/50/25 
f 61/52/25 63/50/25 64/54/25 
f 57/50/26 63/50/26 62/51/26 
f 57/50/27 62/51/27 58/51/27 
# 0 polygons - 6 triangles

#
# object Nemu_53CA5229_0_035
#

v  -23.8608 0.0331 4.5826
v  -24.0906 0.9990 5.0746
v  -24.2304 0.9644 5.0316
v  -23.7219 0.0674 4.6256
# 4 vertices

vn -0.1486 -0.4767 0.8664
vn -0.1504 -0.4769 0.8660
# 2 vertex normals

vt 0.0000 0.0000 0.0000
vt 0.9961 2.9980 0.0000
vt 0.0000 2.9980 0.0000
vt 0.9961 0.0000 0.0000
# 4 texture coords

g Nemu_53CA5229_0_035
usemtl Material__103
s 1
f 65/55/28 66/56/28 67/57/28 
f 65/55/29 68/58/29 66/56/29 
# 0 polygons - 2 triangles

#
# object Nemu_53CA5229_0_034
#

v  -22.3125 -0.5772 5.2766
v  -22.9109 1.3203 6.2166
v  -23.0498 1.2860 6.1736
v  -22.1726 -0.5427 5.3196
# 4 vertices

vn -0.1505 -0.4766 0.8662
vn -0.1488 -0.4762 0.8666
# 2 vertex normals

vt 0.0000 0.0000 0.0000
vt 0.9961 6.0000 0.0000
vt 0.0000 6.0000 0.0000
vt 1.0000 0.0000 0.0000
# 4 texture coords

g Nemu_53CA5229_0_034
usemtl Material__102
s 1
f 69/59/30 70/60/30 71/61/30 
f 69/59/31 72/62/31 70/60/31 
# 0 polygons - 2 triangles

#
# object Nemu_5433F688_0_038
#

v  -11.3172 -2.2410 6.7000
v  -11.6492 -1.9460 5.5260
v  -11.3132 -2.4010 6.6330
v  -11.6532 -1.7850 5.5940
v  -9.6652 -1.6890 5.0300
v  -9.3332 -1.9840 6.2040
v  -9.3292 -2.1450 6.1360
v  -9.6692 -1.5290 5.0970
# 8 vertices

vn -0.9625 -0.1249 0.2408
vn -0.9625 -0.1255 0.2406
vn 0.9625 0.1255 -0.2406
vn 0.9625 0.1249 -0.2408
# 4 vertex normals

vt 0.9639 0.2632 0.0000
vt 0.7451 0.9976 0.0000
vt 0.7476 0.2632 0.0000
vt 0.9639 0.9951 0.0000
# 4 texture coords

g Nemu_5433F688_0_038
usemtl Material__113
s 1
f 73/63/32 74/64/32 75/65/32 
f 73/63/33 76/66/33 74/64/33 
f 77/64/34 78/63/34 79/65/34 
f 77/64/35 80/66/35 78/63/35 
# 0 polygons - 4 triangles

#
# object Nemu_5433F688_0_037
#

v  -11.6532 -1.7850 5.5940
v  -9.3332 -1.9840 6.2040
v  -9.6692 -1.5290 5.0970
v  -11.3172 -2.2410 6.7000
# 4 vertices

vn -0.0223 0.9223 0.3859
vn -0.0227 0.9218 0.3870
# 2 vertex normals

vt 0.0000 2.0000 0.0000
vt 2.0000 0.3999 0.0000
vt 2.0000 2.0000 0.0000
vt 0.0000 0.3999 0.0000
# 4 texture coords

g Nemu_5433F688_0_037
usemtl Material__112
s 1
f 81/67/36 82/68/36 83/69/36 
f 81/67/37 84/70/37 82/68/37 
# 0 polygons - 2 triangles

#
# object Nemu_5433F688_0_036
#

v  -11.3132 -2.4010 6.6330
v  -9.3292 -2.1450 6.1360
v  -9.3332 -1.9840 6.2040
v  -11.3172 -2.2410 6.7000
# 4 vertices

vn 0.2704 -0.3689 0.8893
vn 0.2701 -0.3661 0.8905
# 2 vertex normals

vt 0.0000 0.1826 0.0000
vt 2.0000 0.1826 0.0000
vt 2.0000 0.5313 0.0000
vt 0.0000 0.5313 0.0000
# 4 texture coords

g Nemu_5433F688_0_036
usemtl Material__111
s 1
f 85/71/38 86/72/38 87/73/38 
f 85/71/39 87/73/39 88/74/39 
# 0 polygons - 2 triangles

#
# object Nemu_4AE7F2F1_0_035
#

v  -11.2942 -0.7650 6.4510
v  -11.3352 -0.7100 6.3180
v  -11.3062 -1.8940 5.8210
v  -11.2652 -1.9490 5.9550
v  -11.1612 -1.8760 5.7850
v  -11.1902 -0.6910 6.2820
v  -11.1502 -0.7460 6.4150
v  -11.1212 -1.9300 5.9190
# 8 vertices

vn -0.9615 -0.1261 0.2443
vn -0.9619 -0.1253 0.2429
vn 0.9632 0.1236 -0.2386
vn 0.9634 0.1233 -0.2379
vn -0.0243 0.9212 0.3883
vn -0.0244 0.9211 0.3885
# 6 vertex normals

vt 0.9980 4.0000 0.0000
vt 0.0000 4.0000 0.0000
vt 0.0000 0.0000 0.0000
vt 0.9980 0.0000 0.0000
vt 0.0000 3.9980 0.0000
vt 1.0000 4.0000 0.0000
# 6 texture coords

g Nemu_4AE7F2F1_0_035
usemtl Material__89
s 1
f 89/75/40 90/76/40 91/77/40 
f 89/75/41 91/77/41 92/78/41 
f 93/77/42 94/79/42 95/80/42 
f 93/77/43 95/80/43 96/78/43 
f 90/76/44 95/80/44 94/79/44 
f 90/76/45 89/75/45 95/80/45 
# 0 polygons - 6 triangles

#
# object Nemu_4AE7F2F1_0_034
#

v  -11.1402 -1.5260 6.6100
v  -11.5582 -1.0920 5.1640
v  -11.1372 -1.6640 6.5520
v  -11.5612 -0.9540 5.2220
v  -11.4442 -1.0770 5.1350
v  -11.0262 -1.5110 6.5810
v  -11.0232 -1.6500 6.5230
v  -11.4472 -0.9390 5.1930
# 8 vertices

vn -0.9626 -0.1224 0.2415
vn 0.9627 0.1217 -0.2418
vn 0.9626 0.1224 -0.2415
vn 0.2744 -0.3675 0.8886
vn 0.2714 -0.3656 0.8903
# 5 vertex normals

vt 0.9980 0.0000 0.0000
vt 0.0000 8.0000 0.0000
vt 0.0000 0.0000 0.0000
vt 1.0000 8.0000 0.0000
vt 0.0000 7.9980 0.0000
vt 0.9980 7.9980 0.0000
# 6 texture coords

g Nemu_4AE7F2F1_0_034
usemtl Material__88
s 1
f 97/81/46 98/82/46 99/83/46 
f 97/81/46 100/84/46 98/82/46 
f 101/85/47 102/81/47 103/83/47 
f 101/85/48 104/86/48 102/81/48 
f 99/83/49 102/81/49 97/81/49 
f 99/83/50 103/83/50 102/81/50 
# 0 polygons - 6 triangles

#
# object Nemu_53CA5229_0_033
#

v  -11.2652 -1.9490 5.9550
v  -11.1502 -0.7460 6.4150
v  -11.2942 -0.7650 6.4510
v  -11.1212 -1.9300 5.9190
# 4 vertices

vn 0.2709 -0.3663 0.8902
# 1 vertex normals

vt 0.0000 0.0000 0.0000
vt 1.0000 3.0000 0.0000
vt 0.0000 3.0000 0.0000
vt 1.0000 0.0000 0.0000
# 4 texture coords

g Nemu_53CA5229_0_033
usemtl Material__105
s 1
f 105/87/51 106/88/51 107/89/51 
f 105/87/51 108/90/51 106/88/51 
# 0 polygons - 2 triangles

#
# object Nemu_53CA5229_0_032
#

v  -11.5612 -0.9540 5.2220
v  -11.1402 -1.5260 6.6100
v  -11.0262 -1.5110 6.5810
v  -11.4472 -0.9390 5.1930
# 4 vertices

vn -0.0229 0.9219 0.3868
# 1 vertex normals

vt 0.0000 6.0000 0.0000
vt 0.0000 0.0000 0.0000
vt 0.9961 0.0000 0.0000
vt 0.9961 5.9980 0.0000
# 4 texture coords

g Nemu_53CA5229_0_032
usemtl Material__104
s 1
f 109/91/52 110/92/52 111/93/52 
f 109/91/52 111/93/52 112/94/52 
# 0 polygons - 2 triangles

#
# object Nemu_0_0_015
#

v  -6.3750 0.8050 0.0000
v  -5.0890 0.8050 0.0330
v  -5.0890 0.8380 0.0000
v  -5.0890 0.8050 -0.0330
v  -5.0890 0.7730 0.0000
# 5 vertices

vn -0.0181 0.7070 0.7070
vn -0.0181 0.7070 -0.7070
vn -0.0179 -0.7178 0.6960
# 3 vertex normals

g Nemu_0_0_015
usemtl Material__53
s 1
f 113//53 114//53 115//53 
f 113//54 115//54 116//54 
f 113//55 117//55 114//55 
# 0 polygons - 3 triangles

#
# object Nemu_0_0_014
#

v  -5.9510 1.8330 0.0000
v  -5.6120 1.7250 -0.3160
v  -6.2910 1.7250 0.0000
v  -5.0980 0.7540 0.1130
v  -5.2480 0.8750 0.0000
v  -5.0980 0.7540 -0.1130
v  -5.6120 1.7250 0.3130
v  -5.4310 1.8110 0.3030
v  -5.4310 1.8110 -0.3220
# 9 vertices

vn -0.2538 0.7989 -0.5453
vn -0.6279 -0.7783 -0.0000
vn -0.3170 0.7366 0.5975
vn -0.2530 0.7966 0.5489
vn -0.3537 0.7012 -0.6191
# 5 vertex normals

g Nemu_0_0_014
usemtl Material__54
s 1
f 118//56 119//56 120//56 
f 121//57 122//57 123//57 
f 118//58 124//58 125//58 
f 124//59 118//59 120//59 
f 119//60 118//60 126//60 
# 0 polygons - 5 triangles

#
# object Nemu_82FA74F_0_029
#

v  3.7230 1.3160 -0.3450
v  3.5290 1.7400 0.2960
v  3.7230 1.3160 0.3450
v  3.5290 1.7400 -0.2960
v  -2.6190 0.2070 -0.3800
v  -3.2250 -0.5000 0.4320
v  -2.6190 0.2070 0.3800
v  -3.2250 -0.5000 -0.4320
# 8 vertices

vn 0.9093 0.4161 0.0000
vn -0.7593 0.6508 0.0000
# 2 vertex normals

vt 0.0000 0.0000 0.0000
vt 1.0000 1.0000 0.0000
vt 1.0000 0.0000 0.0000
vt 0.0000 1.0000 0.0000
# 4 texture coords

g Nemu_82FA74F_0_029
usemtl Material__110
s 1
f 127/95/61 128/96/61 129/97/61 
f 127/95/61 130/98/61 128/96/61 
f 131/98/62 132/97/62 133/96/62 
f 132/97/62 131/98/62 134/95/62 
# 0 polygons - 4 triangles

#
# object Nemu_5CDE3B3D_0_009
#

v  -4.9320 0.9780 0.4500
v  -3.4010 1.0160 0.0000
v  -3.4010 1.3010 0.2940
v  -5.0980 0.7540 0.1130
v  -5.2480 0.8750 0.0000
v  -3.4010 1.3010 -0.2940
v  -2.6190 0.2070 -0.3800
v  -5.5970 1.1360 0.2940
v  -6.8740 1.1330 0.0000
v  -6.8750 1.4300 0.0000
v  -4.9320 1.4300 0.6390
v  -5.6120 1.7250 0.3130
v  -3.4010 1.8430 0.2220
v  -0.7300 0.7790 1.0810
v  -4.9320 1.9130 0.4500
v  3.6300 0.2350 1.4280
v  3.9170 0.7620 1.0870
v  -1.0130 1.5430 0.1950
v  -0.7300 -0.3240 1.5340
v  4.8400 0.3950 0.7290
v  0.6760 1.7570 0.1470
v  3.7230 1.3160 0.3450
v  3.5290 1.7400 0.2960
v  3.9170 0.7620 0.6270
v  5.7720 0.7660 0.3700
v  -2.6190 0.2070 0.3800
v  -3.2250 -0.5000 0.4320
v  -0.7300 -0.8650 1.3070
v  3.6300 -0.8670 1.4280
v  -0.7300 -1.4050 0.5380
v  -3.1700 -0.8680 0.5700
v  4.2490 -1.7120 0.5430
v  -3.1690 -1.0910 0.2770
v  3.7230 -2.5290 -0.0000
v  -0.4100 -2.0870 0.5400
v  0.1640 -2.5380 -0.0000
v  3.6300 -0.5960 2.1330
v  3.6300 -0.0450 2.1330
v  3.7510 -0.0800 0.9460
v  2.6590 1.4950 3.8280
v  2.6590 1.1540 3.9570
v  4.8400 -1.0580 0.7290
v  3.7510 -0.7100 0.9460
v  2.6590 -2.2850 3.8280
v  3.7510 -1.2130 0.7570
v  3.7510 0.4230 0.7570
v  2.6590 -1.9430 3.9570
v  1.3710 -2.6100 5.1990
v  1.8080 -2.1070 3.8570
v  1.3710 1.8200 5.1990
v  1.8080 1.3170 3.8570
v  -1.0720 0.1720 0.8520
v  -1.0720 -0.9620 0.8520
v  -0.2030 -2.0020 -0.4130
v  -0.7300 -1.4050 -0.5380
v  -0.4100 -2.0870 -0.5400
v  -0.4380 -1.4900 -0.4110
v  -3.2250 -0.5000 -0.4320
v  -3.1700 -0.8680 -0.0000
v  -3.1690 -1.0910 -0.2770
# 60 vertices

vn 0.2171 -0.7009 0.6794
vn 0.1648 -0.8569 0.4884
vn -0.7271 -0.3498 0.5907
vn -0.7341 -0.4876 -0.4726
vn -0.1289 -0.8126 0.5683
vn -0.3006 -0.8619 0.4084
vn -0.2967 0.3131 0.9022
vn -0.2244 -0.0008 0.9745
vn 0.2283 0.1282 0.9651
vn -0.2893 -0.3778 0.8795
vn -0.2574 0.1272 0.9579
vn 0.1535 0.3601 0.9202
vn 0.0009 0.5429 0.8398
vn 0.1038 0.7694 0.6303
vn -0.0262 0.3798 0.9247
vn 0.4467 0.3017 0.8423
vn -0.0753 0.7432 0.6649
vn 0.9030 0.4223 0.0792
vn 0.9438 0.3305 0.0000
vn 0.1157 0.5252 0.8431
vn 0.3695 0.9292 0.0000
vn -0.3055 -0.1444 0.9412
vn -0.7341 -0.4876 0.4726
vn -0.3552 -0.3617 0.8620
vn -0.7190 -0.6950 -0.0000
vn -0.0163 -0.8183 0.5746
vn -0.0258 -0.3868 0.9218
vn -0.1701 -0.8065 0.5663
vn -0.2761 0.3010 0.9128
vn -0.0462 -0.7384 0.6727
vn -0.1650 -0.7851 0.5970
vn 0.0019 -0.7665 0.6422
vn -0.0008 0.0025 1.0000
vn -0.1361 -0.0000 0.9907
vn 0.0456 -0.5731 0.8182
vn -0.1069 -0.9281 0.3567
vn -0.1095 0.9238 0.3669
vn 0.9480 0.1126 0.2977
vn 0.3560 -0.5388 0.7635
vn 0.9480 -0.1120 0.2980
vn 0.9480 0.1120 0.2980
vn 0.7353 -0.2392 0.6341
vn 0.9480 -0.1123 0.2978
vn -0.2134 0.9356 0.2812
vn 0.7353 0.2398 0.6339
vn -0.2073 0.9637 -0.1685
vn -0.2201 0.8225 0.5244
vn -0.2192 -0.8232 0.5238
vn -0.2007 0.8941 -0.4005
vn -0.0557 0.9309 0.3610
vn -0.2123 -0.9357 0.2816
vn -0.0556 0.9364 -0.3466
vn -0.0557 -0.9308 0.3613
vn -0.4463 -0.2120 0.8694
vn -0.4400 -0.2054 0.8742
vn -0.9890 -0.1478 -0.0000
vn -1.0000 -0.0045 -0.0000
# 57 vertex normals

vt 0.1250 0.1250 0.0000
vt 0.8748 0.8748 0.0000
vt 0.8748 0.1250 0.0000
vt 0.1250 0.8748 0.0000
# 4 texture coords

g Nemu_5CDE3B3D_0_009
usemtl Material__94
s 1
f 135/99/63 136/100/63 137/101/63 
f 136/100/64 135/99/64 138/102/64 
f 135/101/65 139/102/65 138/100/65 
f 140/101/66 141/102/66 136/100/66 
f 142/100/67 143/99/67 139/102/67 
f 139/102/68 135/101/68 142/99/68 
f 144/100/69 145/99/69 146/102/69 
f 143/99/70 142/100/70 144/101/70 
f 147/100/71 145/99/71 137/102/71 
f 145/99/72 144/100/72 142/101/72 
f 148/100/73 147/99/73 137/101/73 
f 145/99/74 147/100/74 149/101/74 
f 148/100/75 150/99/75 151/101/75 
f 147/99/76 148/100/76 152/102/76 
f 150/99/77 148/100/77 153/102/77 
f 150/99/78 154/100/78 151/101/78 
f 155/99/79 152/100/79 148/101/79 
f 151/99/80 156/100/80 157/102/80 
f 156/100/81 151/99/81 158/101/81 
f 158/100/82 154/99/82 159/102/82 
f 154/99/83 158/100/83 151/101/83 
f 137/100/84 160/99/84 148/102/84 
f 160/99/85 137/100/85 136/101/85 
f 161/102/86 162/101/86 153/100/86 
f 136/99/87 141/100/87 160/101/87 
f 163/102/88 162/101/88 164/99/88 
f 162/101/89 163/102/89 153/100/89 
f 165/100/90 164/99/90 162/102/90 
f 162/101/91 161/102/91 165/99/91 
f 164/100/92 166/99/92 163/102/92 
f 164/99/93 165/100/93 167/101/93 
f 168/100/94 169/99/94 170/102/94 
f 166/99/95 164/100/95 169/101/95 
f 153/99/96 171/100/96 172/101/96 
f 169/99/97 168/100/97 166/101/97 
f 171/99/98 153/100/98 163/101/98 
f 153/99/99 172/100/99 150/101/99 
f 173/99/100 174/100/100 175/100/100 
f 163/99/101 166/100/101 176/101/101 
f 177/100/102 178/99/102 179/102/102 
f 174/100/103 173/99/103 180/102/103 
f 181/99/104 182/100/104 178/101/104 
f 178/99/105 177/100/105 181/101/105 
f 181/102/106 183/101/106 182/99/106 
f 184/99/107 175/100/107 174/101/107 
f 185/101/108 174/102/108 186/100/108 
f 183/101/109 181/102/109 187/100/109 
f 175/100/110 185/99/110 186/102/110 
f 174/102/111 185/101/111 184/99/111 
f 187/99/112 181/100/112 177/101/112 
f 185/99/113 175/100/113 184/101/113 
f 186/99/114 174/100/114 180/101/114 
f 175/99/115 186/100/115 173/101/115 
f 188/102/116 189/101/116 190/99/116 
f 189/101/117 188/102/117 191/100/117 
f 161/99/118 192/100/118 193/101/118 
f 193/101/119 194/100/119 167/101/119 
# 0 polygons - 57 triangles

#
# object Nemu_5CDE3B3D_0_008
#

v  -6.2910 1.7250 0.0000
v  -6.8750 1.4300 0.0000
v  -5.6120 1.7250 0.3130
v  -5.6120 1.7250 -0.3160
v  -5.4310 1.8110 -0.3220
v  -4.9320 2.0690 0.0000
v  -4.9320 1.9130 -0.4500
v  -5.9510 1.8330 0.0000
v  -5.4310 1.8110 0.3030
v  -4.9320 1.9130 0.4500
v  -1.0130 1.5430 0.1950
v  -3.4010 1.8430 -0.2220
v  -3.4010 1.8430 0.2220
v  0.6760 1.7570 -0.1610
v  -1.0130 1.5430 -0.1950
v  4.8400 -1.0580 -0.7290
v  4.2490 -1.7120 0.5430
v  4.2490 -1.7120 -0.5430
v  0.6760 1.7570 0.1470
v  1.7500 2.5850 0.1090
v  4.8400 -1.0580 0.7290
v  5.7720 -0.2080 -0.3700
v  1.7500 2.5850 -0.1010
v  5.7720 -0.2080 0.3700
v  4.3090 3.4400 0.0750
v  3.8030 2.6790 -0.1790
v  4.3090 3.4400 -0.0750
v  3.8030 2.6790 0.1790
# 28 vertices

vn -0.3223 0.6381 0.6992
vn -0.3238 0.6411 -0.6958
vn -0.2671 0.9105 -0.3156
vn -0.2072 0.8947 -0.3957
vn -0.2782 0.9075 0.3146
vn -0.2051 0.8858 0.4164
vn 0.1246 0.9922 0.0000
vn 0.1460 0.9893 0.0000
vn -0.1257 0.9921 0.0000
vn 0.7419 -0.6705 -0.0000
vn -0.6106 0.7920 0.0000
vn 0.6739 -0.7389 -0.0000
vn 0.8327 -0.5537 -0.0000
vn -0.3169 0.9485 0.0000
# 14 vertex normals

vt 0.1250 0.1250 0.0000
vt 0.8748 0.8748 0.0000
vt 0.8748 0.1250 0.0000
vt 0.1250 0.8748 0.0000
# 4 texture coords

g Nemu_5CDE3B3D_0_008
usemtl Material__95
s 1
f 195/103/120 196/104/120 197/105/120 
f 196/104/121 195/103/121 198/106/121 
f 199/103/122 200/104/122 201/105/122 
f 200/104/123 199/103/123 202/106/123 
f 200/103/124 203/104/124 204/105/124 
f 203/104/125 200/103/125 202/106/125 
f 205/105/126 206/106/126 207/104/126 
f 200/103/127 207/104/127 206/105/127 
f 205/106/128 208/105/128 209/104/128 
f 206/106/126 205/105/126 209/103/126 
f 210/103/129 211/104/129 212/105/129 
f 208/105/128 205/106/128 213/103/128 
f 214/104/130 208/103/130 213/106/130 
f 211/104/129 210/103/129 215/106/129 
f 216/106/131 215/105/131 210/104/131 
f 208/103/130 214/104/130 217/105/130 
f 215/105/131 216/106/131 218/103/131 
f 219/103/132 220/104/132 221/106/132 
f 220/104/132 219/103/132 222/105/132 
f 214/105/133 221/103/133 217/104/133 
f 221/103/133 214/105/133 219/105/133 
# 0 polygons - 21 triangles

#
# object Nemu_22DA80AA_0_026
#

v  -3.4010 1.8430 0.2220
v  -4.9320 2.0690 0.0000
v  -4.9320 1.9130 0.4500
v  -3.4010 1.8430 -0.2220
v  -4.9320 1.9130 -0.4500
v  5.7720 0.7660 0.3700
v  3.9170 0.7620 -0.6270
v  3.9170 0.7620 0.6270
v  4.2490 -1.7120 -0.5430
v  4.2490 -1.7120 0.5430
v  3.7230 -2.5290 -0.0000
v  3.5290 1.7400 0.2960
v  3.5290 1.7400 -0.2960
v  3.8030 2.6790 0.1790
v  5.7720 0.7660 -0.3700
v  3.8030 2.6790 -0.1790
# 16 vertices

vn 0.0916 0.9409 0.3262
vn 0.0916 0.9409 -0.3262
vn -0.0022 1.0000 0.0000
vn 0.8408 -0.5413 -0.0000
vn 0.9600 -0.2801 -0.0000
# 5 vertex normals

vt 0.1250 0.1250 0.0000
vt 0.8748 0.8748 0.0000
vt 0.1250 0.8748 0.0000
vt 0.8748 0.1250 0.0000
# 4 texture coords

g Nemu_22DA80AA_0_026
usemtl Material__101
s 1
f 223/107/134 224/108/134 225/109/134 
f 224/108/135 226/107/135 227/110/135 
f 228/107/136 229/108/136 230/110/136 
f 231/107/137 232/108/137 233/110/137 
f 234/107/138 235/110/138 236/109/138 
f 229/108/136 228/107/136 237/109/136 
f 236/109/138 235/110/138 238/108/138 
# 0 polygons - 7 triangles

#
# object Nemu_22DA80AA_0_025
#

v  -3.2250 -0.5000 -0.4320
v  -3.4240 -0.8680 -0.2770
v  -3.1700 -0.8680 -0.0000
v  -3.1700 -0.8680 -0.5700
v  -3.1700 -0.8680 0.5700
v  -3.4240 -0.8680 0.2770
v  -3.1690 -1.0910 0.2770
v  -3.1690 -1.0910 -0.2770
v  -3.2250 -0.5000 0.4320
v  -4.9320 1.4300 0.6390
v  -4.9320 0.9780 0.4500
v  -3.4010 1.3010 0.2940
v  -5.5970 1.1360 0.2940
v  -5.4310 1.8110 0.3030
v  -4.9320 1.9130 0.4500
v  -5.6120 1.7250 0.3130
v  -0.7300 -0.3240 1.5340
v  -2.6190 0.2070 0.3800
v  -0.4100 -2.0870 0.5400
v  -0.4100 -2.0870 -0.5400
v  0.1640 -2.5380 -0.0000
v  -0.7300 0.7790 1.0810
v  4.8400 0.3950 0.7290
v  5.7720 -0.2080 0.3700
v  5.7720 0.7660 0.3700
v  4.8400 -1.0580 0.7290
v  4.3090 3.4400 0.0750
v  1.7500 2.5850 0.1090
v  3.8030 2.6790 0.1790
# 29 vertices

vn -0.6086 0.5641 0.5580
vn -0.7490 0.1316 -0.6493
vn -0.5717 -0.6538 0.4956
vn -0.5636 -0.6445 0.5168
vn -0.7490 0.1316 0.6493
vn -0.6086 0.5641 -0.5580
vn 0.1728 -0.3800 0.9087
vn -0.2944 -0.3687 0.8817
vn -0.3294 0.3441 0.8793
vn -0.1898 0.4978 0.8463
vn -0.3939 0.3986 0.8282
vn -0.6178 -0.7863 -0.0000
vn -0.4166 0.3454 0.8409
vn 0.3594 -0.0000 0.9332
vn -0.0410 0.1620 0.9859
# 15 vertex normals

vt 0.1250 0.1250 0.0000
vt 0.8748 0.8748 0.0000
vt 0.1250 0.8748 0.0000
vt 0.8748 0.1250 0.0000
# 4 texture coords

g Nemu_22DA80AA_0_025
usemtl Material__100
s 1
f 239/111/139 240/112/139 241/113/139 
f 242/111/140 240/112/140 239/113/140 
f 243/111/141 244/112/141 245/114/141 
f 241/111/142 240/112/142 246/113/142 
f 247/111/143 244/112/143 243/114/143 
f 244/112/144 247/111/144 241/114/144 
f 248/111/145 249/112/145 250/114/145 
f 249/112/146 248/111/146 251/113/146 
f 252/112/147 248/111/147 253/113/147 
f 248/111/148 252/112/148 254/114/148 
f 255/111/149 256/112/149 247/114/149 
f 257/111/150 258/112/150 259/113/150 
f 256/112/151 255/111/151 260/113/151 
f 261/111/152 262/112/152 263/113/152 
f 262/112/152 261/111/152 264/114/152 
f 265/111/153 266/112/153 267/114/153 
# 0 polygons - 16 triangles

#
# object Nemu_60CF544A_0_024
#

v  -0.2030 -2.0020 -0.4130
v  1.8500 -2.0040 0.2810
v  1.8500 -2.0040 -0.2800
v  -0.2030 -2.0020 0.4140
# 4 vertices

vn 0.0010 1.0000 0.0000
# 1 vertex normals

vt 0.0010 -0.0928 0.0000
vt 1.8770 0.8857 0.0000
vt 1.8770 0.0938 0.0000
vt 0.0010 1.0742 0.0000
# 4 texture coords

g Nemu_60CF544A_0_024
usemtl Material__107
s 1
f 268/115/154 269/116/154 270/117/154 
f 269/116/154 268/115/154 271/118/154 
# 0 polygons - 2 triangles

#
# object Nemu_60CF544A_0_023
#

v  0.2670 0.7620 0.6300
v  3.9170 0.7620 0.6270
v  3.9170 0.7620 -0.6270
v  0.2780 0.7620 -0.6280
# 4 vertices

vn 0.0000 1.0000 0.0000
# 1 vertex normals

vt -0.0342 0.9980 0.0000
vt 2.0029 0.9971 0.0000
vt 2.0029 0.0020 0.0000
vt -0.0283 0.0020 0.0000
# 4 texture coords

g Nemu_60CF544A_0_023
usemtl Material__106
s 1
f 272/119/155 273/120/155 274/121/155 
f 272/119/155 274/121/155 275/122/155 
# 0 polygons - 2 triangles

#
# object Nemu_7024E6F4_0_011
#

v  3.5310 -0.3350 0.9930
v  4.8390 -0.6320 1.6430
v  4.8400 -0.8490 1.3460
v  4.8400 -1.0580 0.7290
v  3.6300 -0.5960 2.1330
v  3.6300 -0.8670 1.4280
v  4.8400 0.3950 0.7290
v  3.6300 -0.0450 2.1330
v  4.8400 0.1800 1.3460
v  4.8390 -0.0810 1.6430
v  3.6300 0.2350 1.4280
# 11 vertices

vn 0.4299 0.7297 -0.5317
vn 0.4167 0.8610 -0.2916
vn 0.0382 -0.9327 0.3585
vn 0.0358 -0.9465 0.3206
vn 0.1977 -0.0000 0.9803
vn 0.2104 -0.7890 0.5772
vn 0.3756 -0.0000 0.9268
vn 0.4181 -0.8578 -0.2989
vn 0.2786 0.7210 0.6345
vn 0.0651 0.9423 0.3284
vn 0.0671 0.9273 0.3683
# 11 vertex normals

vt 0.8701 0.9844 0.0000
vt 0.0205 0.5703 0.0000
vt 0.0205 0.2666 0.0000
vt 0.0205 -0.0244 0.0000
vt -0.0020 0.2666 0.0000
vt 0.9863 0.6221 0.0000
vt 0.9863 0.2412 0.0000
vt -0.0020 -0.0264 0.0000
vt 0.0205 2.0029 0.0000
vt -0.0020 0.5723 0.0000
vt 0.9863 1.3975 0.0000
vt 0.0205 1.7031 0.0000
vt -0.0020 1.7129 0.0000
vt -0.0020 1.3457 0.0000
vt 0.9863 1.7900 0.0000
vt -0.0020 2.0146 0.0000
# 16 texture coords

g Nemu_7024E6F4_0_011
usemtl Material__119
s 1
f 276/123/156 277/124/156 278/125/156 
f 279/126/157 276/123/157 278/125/157 
f 278/127/158 280/128/158 281/129/158 
f 278/127/159 281/129/159 279/130/159 
f 276/123/160 279/126/160 282/131/160 
f 280/128/161 278/127/161 277/132/161 
f 277/132/162 283/133/162 280/128/162 
f 276/123/163 282/131/163 284/134/163 
f 284/135/164 283/133/164 285/136/164 
f 283/133/162 277/132/162 285/136/162 
f 286/137/165 284/135/165 282/138/165 
f 283/133/166 284/135/166 286/137/166 
# 0 polygons - 12 triangles

#
# object Nemu_7024E6F4_0_010
#

v  5.7720 0.7660 -0.3700
v  7.1540 0.9750 0.0000
v  7.1550 0.9170 -0.5790
v  5.7720 0.7660 0.3700
v  8.5260 0.5150 0.0000
v  7.1550 0.9170 0.5790
v  8.5260 0.4410 0.2530
v  8.5260 0.4410 -0.2530
# 8 vertices

vn -0.1228 0.9875 -0.0991
vn -0.1495 0.9888 0.0000
vn 0.3165 0.9439 -0.0940
vn -0.1228 0.9875 0.0991
vn 0.3714 0.8911 0.2607
vn 0.3714 0.8911 -0.2607
vn 0.3165 0.9439 0.0940
# 7 vertex normals

vt 1.0068 0.8135 0.0000
vt 0.0010 0.5000 0.0000
vt 0.0010 0.9912 0.0000
vt 1.0068 0.1855 0.0000
vt 0.0000 0.4990 0.0000
vt 0.9873 1.0029 0.0000
vt 0.9873 0.4990 0.0000
vt 0.0010 0.0078 0.0000
vt 0.9873 -0.0029 0.0000
vt 0.0000 0.2803 0.0000
vt 0.0000 0.7188 0.0000
# 11 texture coords

g Nemu_7024E6F4_0_010
usemtl Material__117
s 1
f 287/139/167 288/140/167 289/141/167 
f 288/140/168 287/139/168 290/142/168 
f 291/143/169 289/144/169 288/145/169 
f 288/140/170 290/142/170 292/146/170 
f 291/143/171 292/147/171 293/148/171 
f 289/144/172 291/143/172 294/149/172 
f 292/147/173 291/143/173 288/145/173 
# 0 polygons - 7 triangles

#
# object Nemu_70A3EC36_0_020
#

v  7.1540 0.1580 0.8220
v  5.7720 -0.2080 0.3700
v  7.1550 -0.4210 0.5790
v  7.1540 -0.6590 -0.0000
v  5.7720 0.7660 0.3700
v  7.1550 0.9170 0.5790
v  8.5260 -0.0950 0.2530
v  8.5260 -0.1980 -0.0000
v  8.5260 0.1580 0.3590
v  8.5260 0.4410 0.2530
v  8.5260 -0.0950 -0.2530
v  7.1730 0.1580 0.0000
v  8.5260 0.1580 -0.3590
v  8.5260 0.4410 -0.2530
v  8.5260 0.5150 0.0000
# 15 vertices

vn -0.1951 -0.3798 0.9042
vn -0.1960 -0.9068 0.3731
vn -0.1745 0.3004 0.9377
vn -0.3109 -0.0000 0.9505
vn 0.2971 -0.8844 0.3600
vn 0.2963 -0.8835 0.3627
vn 0.2972 -0.3691 0.8806
vn 0.2971 -0.3690 0.8807
vn 0.3257 0.3316 0.8854
vn 0.3060 0.2899 0.9068
vn 0.2368 0.8999 0.3663
vn 0.2377 0.3753 0.8959
vn 0.2411 -0.3404 0.9088
vn 0.2368 0.8999 -0.3663
vn 0.2455 -0.9304 0.2721
# 15 vertex normals

vt 1.1563 0.9971 0.0000
vt 0.6387 -0.0244 0.0000
vt 0.3359 0.9971 0.0000
vt 0.0000 0.9971 0.0000
vt 2.0176 -0.0244 0.0000
vt 2.2324 0.9971 0.0000
vt 0.7461 0.9990 0.0000
vt -0.0605 0.0127 0.0000
vt 0.5977 0.9990 0.0000
vt 0.2783 0.0127 0.0000
vt 1.1084 0.0127 0.0000
vt 1.1084 0.9990 0.0000
vt 2.1953 0.0127 0.0000
vt 1.5127 0.9990 0.0000
vt 0.3877 0.9990 0.0000
vt 0.6768 1.0000 0.0000
vt 1.3828 -0.0156 0.0000
vt 1.3828 0.9990 0.0000
vt 2.1729 1.0000 0.0000
vt 2.3779 0.9990 0.0000
# 20 texture coords

g Nemu_70A3EC36_0_020
usemtl Material__109
s 1
f 295/150/174 296/151/174 297/152/174 
f 296/151/175 298/153/175 297/152/175 
f 299/154/176 295/150/176 300/155/176 
f 296/151/177 295/150/177 299/154/177 
f 301/156/178 298/157/178 302/158/178 
f 297/159/179 298/157/179 301/156/179 
f 295/160/180 297/159/180 303/161/180 
f 303/161/181 297/159/181 301/156/181 
f 300/162/182 303/161/182 304/163/182 
f 303/161/183 300/162/183 295/160/183 
f 302/164/184 305/165/184 306/166/184 
f 305/165/185 307/167/185 306/166/185 
f 307/167/186 308/168/186 306/166/186 
f 301/165/187 302/164/187 306/166/187 
f 308/168/188 309/169/188 306/166/188 
# 0 polygons - 15 triangles

#
# object Nemu_8D9FE2D_0_019
#

v  3.5290 1.7400 0.2960
v  -0.7300 0.7790 1.0810
v  3.9170 0.7620 1.0870
v  0.6760 1.7570 0.1470
# 4 vertices

vn 0.0013 0.6292 0.7773
vn -0.0323 0.7142 0.6992
# 2 vertex normals

vt 0.7698 0.8926 0.0000
vt -0.0115 0.0320 0.0000
vt 0.8408 0.0174 0.0000
vt 0.2463 0.9073 0.0000
# 4 texture coords

g Nemu_8D9FE2D_0_019
usemtl Material__99
s 1
f 310/170/189 311/171/189 312/172/189 
f 311/171/190 310/170/190 313/173/190 
# 0 polygons - 2 triangles

#
# object Nemu_65B06478_0_018
#

v  3.5290 1.7400 0.2960
v  3.8030 2.6790 0.1790
v  1.7500 2.5850 0.1090
v  0.6760 1.7570 0.1470
# 4 vertices

vn -0.0399 0.1350 0.9900
vn -0.0512 0.1119 0.9924
# 2 vertex normals

vt 0.7434 0.1036 0.0000
vt 0.8044 0.9001 0.0000
vt 0.3447 0.8200 0.0000
vt 0.1042 0.1173 0.0000
# 4 texture coords

g Nemu_65B06478_0_018
usemtl Material__108
s 1
f 314/174/191 315/175/191 316/176/191 
f 314/174/192 316/176/192 317/177/192 
# 0 polygons - 2 triangles

#
# object Nemu_6E394EB_0_017
#

v  -0.2030 -2.0020 0.4140
v  -0.4100 -2.0870 -0.5400
v  -0.4100 -2.0870 0.5400
v  -0.2030 -2.0020 -0.4130
# 4 vertices

vn -0.3799 0.9250 0.0000
# 1 vertex normals

vt 0.0000 1.0000 0.0000
vt 1.0000 0.0000 0.0000
vt 1.0000 1.0000 0.0000
vt 0.0000 0.0000 0.0000
# 4 texture coords

g Nemu_6E394EB_0_017
usemtl Material__98
s 1
f 318/178/193 319/179/193 320/180/193 
f 319/179/193 318/178/193 321/181/193 
# 0 polygons - 2 triangles

#
# object Nemu_4DDC42B4_0_010
#

v  1.8500 -2.0040 -0.2800
v  -0.4380 -1.4900 -0.4110
v  -0.2030 -2.0020 -0.4130
# 3 vertices

vn -0.0646 -0.0336 0.9973
# 1 vertex normals

vt -0.7842 -0.0439 0.0000
vt 1.0732 1.0830 0.0000
vt 0.8818 -0.0391 0.0000
# 3 texture coords

g Nemu_4DDC42B4_0_010
usemtl Material__92
s 1
f 322/182/194 323/183/194 324/184/194 
# 0 polygons - 1 triangles

#
# object Nemu_4DDC42B4_0_009
#

v  3.7230 1.3160 0.3450
v  0.2600 1.3090 -0.3450
v  3.7230 1.3160 -0.3450
v  0.2600 1.3090 0.3450
# 4 vertices

vn 0.0020 -1.0000 -0.0000
# 1 vertex normals

vt 3.0000 1.0000 0.0000
vt 0.0000 0.0596 0.0000
vt 3.0000 0.0596 0.0000
vt 0.0000 1.0000 0.0000
# 4 texture coords

g Nemu_4DDC42B4_0_009
usemtl Material__90
s 1
f 325/185/195 326/186/195 327/187/195 
f 325/185/195 328/188/195 326/186/195 
# 0 polygons - 2 triangles

#
# object Nemu_5E8661D0_0_014
#

v  -4.5110 -0.8010 -0.2980
v  -4.5110 -0.8860 -0.3800
v  -4.5110 -0.8860 -0.2160
v  -4.5110 -0.9710 -0.2980
v  -3.8830 -0.8860 -0.1100
v  -3.8830 -1.0750 -0.2980
v  -3.6910 -0.9580 -0.2980
v  -3.6910 -0.8860 -0.2270
v  -3.8830 -0.8860 -0.4870
v  -3.2360 -0.8860 -0.2980
v  -3.6910 -0.8140 -0.2980
v  -3.8830 -0.6970 -0.2980
v  -3.6910 -0.8860 -0.3700
v  -4.5110 -0.9710 0.2980
v  -4.5110 -0.8860 0.3800
v  -4.5110 -0.8860 0.2160
v  -3.8830 -0.8860 0.4870
v  -4.5110 -0.8010 0.2980
v  -3.6910 -0.9580 0.2980
v  -3.8830 -1.0750 0.2980
v  -3.6910 -0.8860 0.3700
v  -3.2360 -0.8860 0.2980
v  -3.8830 -0.8860 0.1100
v  -3.8830 -0.6970 0.2980
v  -3.6910 -0.8140 0.2980
v  -3.6910 -0.8860 0.2270
# 26 vertices

vn -1.0000 0.0000 -0.0000
vn -0.1160 -0.7005 0.7042
vn -0.1206 -0.6892 0.7144
vn 0.3980 -0.6441 0.6532
vn 0.3948 -0.6479 0.6514
vn -0.1217 0.6891 -0.7143
vn 0.1104 -0.6979 0.7077
vn 0.3957 0.6494 -0.6494
vn -0.1163 0.7023 -0.7023
vn 0.1112 0.7027 -0.7027
vn 0.3980 0.6441 0.6532
vn 0.1104 0.6979 0.7077
vn -0.1160 0.7005 0.7042
vn 0.3948 0.6479 0.6514
vn -0.1206 0.6892 0.7144
vn -0.1217 -0.6891 0.7143
vn 0.3957 -0.6494 0.6494
vn -0.1163 -0.7023 0.7023
vn 0.1112 -0.7027 0.7027
vn -0.1160 0.7005 -0.7042
vn -0.1206 0.6892 -0.7144
vn 0.3980 0.6441 -0.6532
vn 0.3948 0.6479 -0.6514
vn 0.3957 0.6494 0.6494
vn 0.1104 0.6979 -0.7077
vn -0.1217 0.6891 0.7143
vn -0.1163 0.7023 0.7023
vn 0.1112 0.7027 0.7027
# 28 vertex normals

vt 0.9980 0.7305 0.0000
vt 0.9980 0.5020 0.0000
vt 0.9980 0.2734 0.0000
vt 0.4648 0.5020 0.0000
vt 0.4648 -0.0039 0.0000
vt 0.3008 0.3086 0.0000
vt 0.3008 0.5020 0.0000
vt -0.0820 0.5020 0.0000
vt 0.3008 0.6953 0.0000
vt 0.4648 1.0117 0.0000
vt 0.4648 -0.0059 0.0000
vt -0.0840 0.5020 0.0000
# 12 texture coords

g Nemu_5E8661D0_0_014
usemtl Material__97
s 1
f 329/189/196 330/190/196 331/190/196 
f 330/190/196 332/191/196 331/190/196 
f 333/192/197 332/191/197 334/193/197 
f 332/191/198 333/192/198 331/190/198 
f 333/192/199 335/194/199 336/195/199 
f 335/194/200 333/192/200 334/193/200 
f 329/189/201 337/192/201 330/190/201 
f 336/195/202 335/194/202 338/196/202 
f 339/197/203 337/192/203 340/198/203 
f 337/192/204 329/189/204 340/198/204 
f 341/195/205 339/197/205 338/196/205 
f 337/192/203 339/197/203 341/195/203 
f 339/197/206 333/192/206 336/195/206 
f 339/197/207 336/195/207 338/196/207 
f 329/189/208 333/192/208 340/198/208 
f 333/192/209 339/197/209 340/198/209 
f 342/191/196 343/190/196 344/190/196 
f 333/192/210 329/189/210 331/190/210 
f 342/191/211 345/192/211 343/190/211 
f 343/190/196 346/189/196 344/190/196 
f 347/194/212 345/192/212 348/199/212 
f 345/192/213 342/191/213 348/199/213 
f 349/195/214 347/194/214 350/200/214 
f 345/192/212 347/194/212 349/195/212 
f 351/192/215 346/189/215 352/198/215 
f 346/189/216 351/192/216 344/190/216 
f 351/192/217 353/197/217 354/195/217 
f 353/197/218 351/192/218 352/198/218 
f 345/192/219 353/197/219 352/198/219 
f 354/195/220 353/197/220 350/200/220 
f 345/192/221 346/189/221 343/190/221 
f 346/189/222 345/192/222 352/198/222 
f 353/197/223 349/195/223 350/200/223 
f 353/197/219 345/192/219 349/195/219 
# 0 polygons - 34 triangles

#
# object Nemu_60E3B38F_0_012
#

v  4.3800 -0.8250 -1.3500
v  5.4450 -0.8250 -1.3500
v  5.4450 0.2250 -1.3500
v  4.3800 0.2250 -1.3500
# 4 vertices

vn 0.0000 -0.0000 1.0000
# 1 vertex normals

vt -0.0039 1.0000 0.0000
vt -0.0039 0.0000 0.0000
vt 0.9951 0.0000 0.0000
vt 0.9951 1.0000 0.0000
# 4 texture coords

g Nemu_60E3B38F_0_012
usemtl Material__83
s 1
f 355/201/224 356/202/224 357/203/224 
f 355/201/224 357/203/224 358/204/224 
# 0 polygons - 2 triangles

#
# object Nemu_60E3B38F_0_011
#

v  4.8900 0.5930 -0.4570
v  4.8900 0.5930 -2.2430
v  4.8900 -1.1930 -2.2430
v  4.8900 -1.1930 -0.4570
# 4 vertices

vn -1.0000 0.0000 -0.0000
# 1 vertex normals

vt 0.9951 1.0000 0.0000
vt -0.0039 1.0000 0.0000
vt -0.0039 0.0000 0.0000
vt 0.9951 0.0000 0.0000
# 4 texture coords

g Nemu_60E3B38F_0_011
usemtl Material__83
s 1
f 359/205/225 360/206/225 361/207/225 
f 359/205/225 361/207/225 362/208/225 
# 0 polygons - 2 triangles

#
# object Nemu_4D68E1D9_0_010
#

v  1.0800 1.5600 -5.2200
v  1.6200 1.5600 -5.2200
v  1.6200 2.1000 -5.2200
v  1.0800 2.1000 -5.2200
# 4 vertices

vn 0.0000 -0.0000 1.0000
# 1 vertex normals

vt -0.0039 0.0000 0.0000
vt 0.9941 0.0000 0.0000
vt 0.9941 1.0000 0.0000
vt -0.0039 1.0000 0.0000
# 4 texture coords

g Nemu_4D68E1D9_0_010
usemtl Material__82
s 1
f 363/209/226 364/210/226 365/211/226 
f 363/209/226 365/211/226 366/212/226 
# 0 polygons - 2 triangles

#
# object Nemu_7024E6F4_0_009
#

v  3.5310 -0.3350 -0.9930
v  4.8390 -0.0810 -1.6430
v  4.8400 0.1800 -1.3460
v  4.8390 -0.6320 -1.6430
v  3.6300 -0.0450 -2.1330
v  3.6300 0.2350 -1.4280
v  4.8400 0.3950 -0.7290
# 7 vertices

vn 0.4280 -0.6796 0.5958
vn 0.4450 -0.0000 0.8955
vn 0.2786 0.7210 -0.6345
vn 0.0671 0.9273 -0.3683
vn 0.0651 0.9423 -0.3284
# 5 vertex normals

vt 1.1221 1.0039 0.0000
vt 0.0225 1.3770 0.0000
vt 0.0225 1.7617 0.0000
vt 0.0225 0.5664 0.0000
vt 1.2832 1.4541 0.0000
vt 0.0283 1.7813 0.0000
vt 0.0283 1.4014 0.0000
vt 1.2832 1.8623 0.0000
vt 0.0283 2.0957 0.0000
# 9 texture coords

g Nemu_7024E6F4_0_009
usemtl Material__118
s 1
f 367/213/227 368/214/227 369/215/227 
f 368/214/228 367/213/228 370/216/228 
f 371/217/229 369/218/229 368/219/229 
f 369/218/230 371/217/230 372/220/230 
f 369/218/231 372/220/231 373/221/231 
# 0 polygons - 5 triangles

#
# object Nemu_4DDC42B4_0_008
#

v  0.2780 0.7620 -0.6280
v  3.9170 0.7620 -0.6270
v  3.7230 1.3160 -0.3450
v  0.2600 1.3090 -0.3450
# 4 vertices

vn -0.0002 -0.4537 0.8912
vn 0.0009 -0.4595 0.8882
# 2 vertex normals

vt 2.9326 -0.0645 0.0000
vt -0.1328 -0.0645 0.0000
vt 0.0293 1.1250 0.0000
vt 2.9473 1.1104 0.0000
# 4 texture coords

g Nemu_4DDC42B4_0_008
usemtl Material__91
s 1
f 374/222/232 375/223/232 376/224/232 
f 374/222/233 376/224/233 377/225/233 
# 0 polygons - 2 triangles

#
# object Nemu_5CDE3B3D_0_007
#

v  3.9170 0.7620 -1.0870
v  4.8400 0.3950 -0.7290
v  3.6300 0.2350 -1.4280
v  3.7230 1.3160 -0.3450
v  3.5290 1.7400 -0.2960
v  3.9170 0.7620 -0.6270
# 6 vertices

vn 0.4467 0.3017 -0.8423
vn 0.9030 0.4223 -0.0792
vn 0.9438 0.3305 0.0000
vn 0.3695 0.9292 0.0000
# 4 vertex normals

vt 0.8748 0.8748 0.0000
vt 0.1250 0.8748 0.0000
vt 0.8748 0.1250 0.0000
vt 0.1250 0.1250 0.0000
# 4 texture coords

g Nemu_5CDE3B3D_0_007
usemtl Material__96
s 1
f 378/226/234 379/227/234 380/228/234 
f 381/226/235 378/229/235 382/228/235 
f 378/229/236 381/226/236 383/227/236 
f 383/226/237 379/229/237 378/227/237 
# 0 polygons - 4 triangles

#
# object Nemu_5CDE3B3D_0_006
#

v  3.7510 -0.0800 -0.9460
v  2.6590 1.4950 -3.8280
v  3.7510 0.4230 -0.7570
v  2.6590 1.1540 -3.9570
v  1.8080 1.3170 -3.8570
v  -1.0720 0.1720 -0.8520
v  1.3710 1.8200 -5.1990
# 7 vertices

vn 0.9480 0.1120 -0.2980
vn 0.9480 0.1126 -0.2977
vn -0.2073 0.9637 0.1685
vn -0.2007 0.8941 0.4005
vn -0.0556 0.9364 0.3466
vn 0.7353 0.2398 -0.6339
# 6 vertex normals

vt 0.8748 0.8748 0.0000
vt 0.1250 0.1250 0.0000
vt 0.1250 0.8748 0.0000
vt 0.8748 0.1250 0.0000
vt 0.8748 0.3818 0.0000
# 5 texture coords

g Nemu_5CDE3B3D_0_006
usemtl Material__93
s 1
f 384/230/238 385/231/238 386/232/238 
f 385/231/239 384/230/239 387/233/239 
f 385/230/240 388/231/240 389/232/240 
f 388/231/241 385/230/241 390/233/241 
f 385/231/242 389/230/242 386/233/242 
f 385/232/243 387/234/243 390/230/243 
# 0 polygons - 6 triangles

#
# object Nemu_7C69A346_0_004
#

v  -1.7829 3.0000 -8.1496
v  1.2171 3.0000 -8.1496
v  1.2171 5.4000 -8.1496
v  -1.7829 5.4000 -8.1496
# 4 vertices

vn 0.0000 -0.0000 1.0000
# 1 vertex normals

vt 0.0000 0.0000 0.0000
vt 1.0000 0.0000 0.0000
vt 1.0000 1.0000 0.0000
vt 0.0000 1.0000 0.0000
# 4 texture coords

g Nemu_7C69A346_0_004
usemtl Material__85
s 1
f 391/235/244 392/236/244 393/237/244 
f 391/235/244 393/237/244 394/238/244 
# 0 polygons - 2 triangles

#
# object Nemu_4BF2F609_0_003
#

v  11.4310 0.7791 -12.4438
v  13.8076 0.4489 -12.4438
v  14.1379 2.8255 -12.4438
v  11.7612 3.1558 -12.4438
# 4 vertices

vn 0.0000 -0.0000 1.0000
# 1 vertex normals

vt 0.0000 0.0000 0.0000
vt 1.0000 0.0000 0.0000
vt 1.0000 1.0000 0.0000
vt 0.0000 1.0000 0.0000
# 4 texture coords

g Nemu_4BF2F609_0_003
usemtl Material__84
s 1
f 395/239/245 396/240/245 397/241/245 
f 395/239/245 397/241/245 398/242/245 
# 0 polygons - 2 triangles

#
# object Nemu_7C69A346_0_003
#

v  -7.5661 1.4555 -14.4675
v  -5.7898 1.9976 -14.4675
v  -6.2234 3.4182 -14.4675
v  -7.9997 2.8761 -14.4675
# 4 vertices

vn 0.0000 -0.0000 1.0000
# 1 vertex normals

vt 0.0000 1.0000 0.0000
vt 1.0000 1.0000 0.0000
vt 1.0000 0.0000 0.0000
vt 0.0000 0.0000 0.0000
# 4 texture coords

g Nemu_7C69A346_0_003
usemtl Material__85
s 1
f 399/243/246 400/244/246 401/245/246 
f 399/243/246 401/245/246 402/246/246 
# 0 polygons - 2 triangles

#
# object Nemu_4BF2F609_0_002
#

v  5.1433 -0.4009 -16.1096
v  6.6023 -0.4009 -16.1096
v  6.6023 1.0571 -16.1096
v  5.1433 1.0571 -16.1096
# 4 vertices

vn 0.0000 -0.0000 1.0000
# 1 vertex normals

vt 0.0000 1.0000 0.0000
vt 1.0000 1.0000 0.0000
vt 1.0000 0.0000 0.0000
vt 0.0000 0.0000 0.0000
# 4 texture coords

g Nemu_4BF2F609_0_002
usemtl Material__84
s 1
f 403/247/247 404/248/247 405/249/247 
f 403/247/247 405/249/247 406/250/247 
# 0 polygons - 2 triangles

