# 3ds Max Wavefront OBJ Exporter v0.97b - (c)2007 guruware
# File Created: 27.04.2019 21:51:30

mtllib kirbyness.mtl

#
# object legr_0_0_009
#

v  -0.0751 0.0108 -0.0896
v  -0.1154 0.0539 -0.0306
v  -0.0727 0.0525 -0.0786
v  -0.0401 0.0314 -0.0981
v  -0.0572 0.0872 -0.0073
v  -0.0141 0.0503 -0.0658
v  -0.1138 0.0100 -0.0366
v  -0.0907 -0.0042 -0.0415
v  -0.0131 0.0115 -0.0783
v  -0.1075 0.0416 0.0821
v  -0.1304 0.0206 0.0315
v  -0.0025 0.0499 0.0023
v  -0.0195 -0.0030 -0.0261
v  -0.1068 -0.0040 0.0527
v  -0.0589 0.0407 0.0907
v  -0.0046 0.0071 0.0046
v  -0.1122 0.0200 0.0912
v  -0.0169 0.0165 0.0540
v  -0.0439 -0.0027 0.0672
v  -0.0882 0.0015 0.0833
v  -0.0622 0.0181 0.1011
# 21 vertices

vn -0.7269 0.2144 -0.6524
vn -0.3695 0.2572 -0.8929
vn -0.3582 0.8677 -0.3447
vn 0.1582 0.7913 -0.5907
vn -0.8071 0.0517 -0.5882
vn 0.1322 0.8796 -0.4570
vn -0.5385 -0.7395 -0.4039
vn 0.6829 0.2398 -0.6900
vn -0.5307 0.8377 0.1286
vn -0.9715 -0.0023 -0.2370
vn 0.9826 0.0799 -0.1677
vn 0.0581 -0.9641 -0.2591
vn -0.8024 0.5847 0.1198
vn 0.0757 -0.9589 -0.2734
vn -0.6938 -0.7178 -0.0580
vn -0.5339 -0.8408 -0.0897
vn 0.4725 0.7932 0.3842
vn 0.9930 -0.0556 -0.1043
vn 0.0162 -0.9999 0.0048
vn 0.7010 -0.7049 -0.1086
vn -0.9075 0.3129 0.2802
vn -0.0596 0.9024 0.4267
vn 0.9680 -0.0347 0.2486
vn -0.7941 -0.5597 0.2369
vn 0.3962 -0.9120 0.1065
vn 0.7183 0.4752 0.5081
vn -0.4627 -0.7803 0.4207
vn 0.0191 -0.9998 0.0081
vn -0.1500 0.4306 0.8900
vn -0.1630 0.4111 0.8969
vn -0.0235 -0.9814 0.1907
vn 0.6465 -0.7030 0.2962
vn 0.7092 0.2084 0.6735
vn -0.1805 -0.5744 0.7984
vn 0.1291 -0.8132 0.5675
vn 0.6335 -0.4593 0.6227
vn 0.1518 -0.5873 -0.7950
vn 0.5709 0.8157 -0.0932
# 38 vertex normals

g legr_0_0_009
usemtl Material__1016
s 1
f 1//1 2//1 3//1 
f 4//2 1//2 3//2 
f 2//3 5//3 3//3 
f 4//4 3//4 6//4 
f 2//5 1//5 7//5 
f 6//6 3//6 5//6 
f 1//7 8//7 7//7 
f 6//8 9//8 4//8 
f 5//9 2//9 10//9 
f 2//10 7//10 11//10 
f 12//11 9//11 6//11 
f 1//12 9//12 13//12 
f 2//13 11//13 10//13 
f 1//14 13//14 8//14 
f 7//15 14//15 11//15 
f 14//16 7//16 8//16 
f 12//17 5//17 15//17 
f 9//18 12//18 16//18 
f 13//19 14//19 8//19 
f 13//20 9//20 16//20 
f 10//21 11//21 17//21 
f 10//22 15//22 5//22 
f 16//23 12//23 18//23 
f 11//24 14//24 17//24 
f 16//25 19//25 13//25 
f 15//26 18//26 12//26 
f 20//27 17//27 14//27 
f 13//28 19//28 14//28 
f 10//29 21//29 15//29 
f 10//30 17//30 21//30 
f 20//31 14//31 19//31 
f 19//32 16//32 18//32 
f 18//33 15//33 21//33 
f 17//34 20//34 21//34 
f 19//35 21//35 20//35 
f 21//36 19//36 18//36 
f 9//37 1//37 4//37 
f 12//38 6//38 5//38 
# 0 polygons - 38 triangles

#
# object legl_0_0_008
#

v  0.0140 0.0106 -0.0787
v  0.0140 0.0493 -0.0659
v  0.0406 0.0314 -0.0984
v  0.0022 0.0480 0.0021
v  0.0725 0.0532 -0.0786
v  0.0560 0.0868 -0.0069
v  0.0761 0.0117 -0.0900
v  0.0588 0.0395 0.0906
v  0.0055 0.0052 0.0041
v  0.0175 0.0145 0.0535
v  0.0207 -0.0042 -0.0267
v  0.0920 -0.0033 -0.0420
v  0.1150 0.0554 -0.0304
v  0.1079 -0.0035 0.0522
v  0.0450 -0.0041 0.0667
v  0.1147 0.0115 -0.0369
v  0.1073 0.0418 0.0821
v  0.0891 0.0012 0.0829
v  0.1309 0.0219 0.0313
v  0.1126 0.0202 0.0910
v  0.0626 0.0168 0.1008
# 21 vertices

vn -0.6881 0.2275 -0.6891
vn -0.9841 0.0543 -0.1690
vn -0.1558 0.8800 -0.4487
vn -0.5932 0.8004 -0.0865
vn -0.1340 -0.5835 -0.8010
vn -0.4950 0.7760 0.3909
vn -0.9909 -0.0820 -0.1069
vn -0.1791 0.7922 -0.5833
vn -0.9671 -0.0639 0.2462
vn -0.6809 -0.7230 -0.1169
vn -0.0308 -0.9628 -0.2685
vn 0.3639 0.2759 -0.8896
vn -0.0485 -0.9579 -0.2829
vn 0.3346 0.8806 -0.3356
vn 0.0087 -1.0000 -0.0016
vn 0.0116 -0.9999 -0.0049
vn 0.8064 0.0798 -0.5859
vn 0.5070 0.8509 0.1378
vn 0.0505 -0.9821 0.1813
vn 0.7856 0.6055 0.1271
vn 0.7219 0.2407 -0.6488
vn 0.4835 -0.7712 0.4141
vn 0.5572 -0.8247 -0.0967
vn 0.9716 0.0269 -0.2350
vn -0.7160 0.1822 0.6740
vn 0.7136 -0.6977 -0.0634
vn -0.7322 0.4502 0.5112
vn -0.6273 -0.7235 0.2881
vn 0.0337 0.8995 0.4356
vn -0.3709 -0.9236 0.0968
vn 0.5596 -0.7203 -0.4099
vn -0.6216 -0.4827 0.6169
vn -0.1075 -0.8219 0.5593
vn 0.1363 0.4260 0.8944
vn 0.1950 -0.5769 0.7932
vn 0.1499 0.4067 0.9012
vn 0.8089 -0.5397 0.2332
vn 0.8980 0.3352 0.2851
# 38 vertex normals

g legl_0_0_008
usemtl Material__1017
s 1
f 22//39 23//39 24//39 
f 22//40 25//40 23//40 
f 26//41 23//41 27//41 
f 23//42 25//42 27//42 
f 28//43 22//43 24//43 
f 27//44 25//44 29//44 
f 25//45 22//45 30//45 
f 26//46 24//46 23//46 
f 25//47 30//47 31//47 
f 22//48 32//48 30//48 
f 22//49 28//49 32//49 
f 28//50 24//50 26//50 
f 32//51 28//51 33//51 
f 27//52 34//52 26//52 
f 32//53 35//53 36//53 
f 32//54 33//54 35//54 
f 28//55 34//55 37//55 
f 34//56 27//56 38//56 
f 35//57 39//57 36//57 
f 40//58 34//58 38//58 
f 34//59 28//59 26//59 
f 41//60 39//60 35//60 
f 37//61 35//61 33//61 
f 37//62 34//62 40//62 
f 29//63 31//63 42//63 
f 35//64 37//64 40//64 
f 31//65 29//65 25//65 
f 30//66 36//66 31//66 
f 29//67 38//67 27//67 
f 36//68 30//68 32//68 
f 33//69 28//69 37//69 
f 36//70 42//70 31//70 
f 42//71 36//71 39//71 
f 42//72 38//72 29//72 
f 39//73 41//73 42//73 
f 42//74 41//74 38//74 
f 35//75 40//75 41//75 
f 40//76 38//76 41//76 
# 0 polygons - 38 triangles

#
# object armr_0_0_007
#

v  -0.0977 0.1510 -0.0001
v  -0.1245 0.1658 -0.0463
v  -0.0951 0.1502 -0.0001
v  -0.1244 0.1657 0.0462
v  -0.1581 0.1673 0.0308
v  -0.1417 0.1012 0.0262
v  -0.1152 0.0955 -0.0001
v  -0.1418 0.1013 -0.0264
v  -0.1447 0.0833 -0.0001
v  -0.1582 0.1673 -0.0308
v  -0.1768 0.1672 0.0000
v  -0.1675 0.1021 -0.0000
# 12 vertices

vn -0.2822 -0.9490 -0.1403
vn -0.2819 -0.9493 0.1392
vn -0.4157 -0.1655 0.8943
vn 0.8010 -0.2529 0.5427
vn 0.7997 -0.2519 -0.5451
vn 0.6097 -0.3792 0.6961
vn 0.6080 -0.3778 -0.6982
vn 0.3300 -0.7977 0.5047
vn -0.4179 -0.1637 -0.8936
vn -0.7118 -0.1027 0.6948
vn -0.5458 -0.6634 0.5119
vn 0.3288 -0.7968 -0.5070
vn -0.7135 -0.1013 -0.6933
vn -0.8306 -0.2397 -0.5026
vn -0.8294 -0.2407 0.5042
vn -0.5470 -0.6624 -0.5119
# 16 vertex normals

g armr_0_0_007
usemtl Material__1019
s 1
f 43//77 44//77 45//77 
f 46//78 43//78 45//78 
f 47//79 48//79 46//79 
f 43//80 46//80 49//80 
f 44//81 43//81 49//81 
f 49//82 46//82 48//82 
f 44//83 49//83 50//83 
f 49//84 48//84 51//84 
f 50//85 52//85 44//85 
f 48//86 53//86 54//86 
f 48//87 54//87 51//87 
f 50//88 49//88 51//88 
f 53//89 50//89 54//89 
f 50//90 53//90 52//90 
f 53//91 48//91 47//91 
f 54//92 50//92 51//92 
# 0 polygons - 16 triangles

#
# object armr_0_0_006
#

v  -0.1244 0.1657 0.0462
v  -0.0759 0.2057 0.0226
v  -0.1062 0.2115 0.0317
v  -0.1581 0.1673 0.0308
v  -0.0760 0.2057 -0.0227
v  -0.1047 0.2336 0.0000
v  -0.1312 0.2223 0.0136
v  -0.1062 0.2115 -0.0317
v  -0.1312 0.2224 -0.0136
v  -0.1768 0.1672 0.0000
v  -0.1582 0.1673 -0.0308
v  -0.1245 0.1658 -0.0463
v  -0.0951 0.1502 -0.0001
# 13 vertices

vn 0.3138 0.1703 0.9341
vn -0.3630 0.4096 0.8369
vn 0.6956 0.7184 -0.0001
vn 0.3136 0.7722 0.5525
vn -0.3909 0.4431 0.8068
vn 0.3123 0.7733 -0.5518
vn -0.0565 0.8215 -0.5674
vn -0.3898 0.9209 0.0013
vn -0.7396 0.5017 0.4486
vn -0.7704 0.6375 0.0015
vn -0.3649 0.4112 -0.8353
vn -0.3928 0.4446 -0.8050
vn 0.6662 -0.4667 -0.5818
vn -0.7407 0.5026 -0.4459
vn 0.6675 -0.4678 0.5793
vn 0.9452 -0.3264 -0.0014
vn -0.0552 0.8204 0.5691
vn 0.3115 0.1721 -0.9345
# 18 vertex normals

g armr_0_0_006
usemtl Material__1018
s 1
f 55//93 56//93 57//93 
f 57//94 58//94 55//94 
f 59//95 60//95 56//95 
f 60//96 57//96 56//96 
f 61//97 58//97 57//97 
f 62//98 60//98 59//98 
f 60//99 62//99 63//99 
f 60//100 63//100 61//100 
f 58//101 61//101 64//101 
f 63//102 64//102 61//102 
f 65//103 62//103 66//103 
f 62//104 65//104 63//104 
f 67//105 66//105 59//105 
f 65//106 64//106 63//106 
f 55//107 67//107 56//107 
f 56//108 67//108 59//108 
f 57//109 60//109 61//109 
f 59//110 66//110 62//110 
# 0 polygons - 18 triangles

#
# object arml_0_0_005
#

v  0.0972 0.1506 0.0000
v  0.1240 0.1652 -0.0462
v  0.1151 0.0952 0.0000
v  0.0947 0.1495 0.0000
v  0.1582 0.1662 -0.0308
v  0.1417 0.1007 -0.0263
v  0.1240 0.1652 0.0462
v  0.1445 0.0828 0.0000
v  0.1775 0.1668 0.0000
v  0.1674 0.1014 0.0000
v  0.1417 0.1007 0.0263
v  0.1582 0.1662 0.0308
# 12 vertices

vn -0.7980 -0.2585 -0.5443
vn 0.3909 -0.9182 -0.0635
vn 0.4089 -0.1649 -0.8975
vn 0.3909 -0.9182 0.0635
vn -0.7980 -0.2585 0.5443
vn -0.6084 -0.3822 -0.6955
vn -0.3355 -0.7947 -0.5059
vn 0.8234 -0.2425 -0.5130
vn 0.7117 -0.1101 -0.6938
vn -0.6084 -0.3822 0.6955
vn -0.3355 -0.7947 0.5059
vn 0.4089 -0.1649 0.8975
vn 0.7117 -0.1101 0.6938
vn 0.5413 -0.6671 -0.5119
vn 0.8234 -0.2425 0.5130
vn 0.5413 -0.6671 0.5119
# 16 vertex normals

g arml_0_0_005
usemtl Material__1020
s 1
f 68//111 69//111 70//111 
f 69//112 68//112 71//112 
f 72//113 73//113 69//113 
f 68//114 74//114 71//114 
f 74//115 68//115 70//115 
f 70//116 69//116 73//116 
f 70//117 73//117 75//117 
f 76//118 73//118 72//118 
f 73//119 76//119 77//119 
f 74//120 70//120 78//120 
f 78//121 70//121 75//121 
f 78//122 79//122 74//122 
f 76//123 78//123 77//123 
f 73//124 77//124 75//124 
f 78//125 76//125 79//125 
f 77//126 78//126 75//126 
# 0 polygons - 16 triangles

#
# object arml_0_0_004
#

v  0.1240 0.1652 -0.0462
v  0.0760 0.2055 -0.0227
v  0.1069 0.2120 -0.0317
v  0.0947 0.1495 0.0000
v  0.0754 0.2062 0.0227
v  0.1046 0.2335 0.0000
v  0.1311 0.2224 -0.0136
v  0.1062 0.2114 0.0317
v  0.1582 0.1662 -0.0308
v  0.1240 0.1652 0.0462
v  0.1311 0.2224 0.0136
v  0.1775 0.1668 0.0000
v  0.1582 0.1662 0.0308
# 13 vertices

vn -0.3107 0.1759 -0.9341
vn -0.6714 -0.4597 -0.5812
vn -0.9475 -0.3196 -0.0070
vn -0.3224 0.7728 -0.5467
vn 0.0611 0.8285 -0.5566
vn -0.6907 0.7229 -0.0199
vn -0.2951 0.7775 0.5554
vn 0.3676 0.3950 -0.8420
vn -0.6709 -0.4606 0.5812
vn 0.4083 0.4414 -0.7990
vn 0.0521 0.8212 0.5682
vn 0.3855 0.9227 0.0000
vn 0.7310 0.4957 -0.4690
vn 0.7676 0.6410 0.0000
vn 0.3658 0.4037 0.8386
vn 0.3948 0.4376 0.8079
vn -0.3053 0.1760 0.9359
vn 0.7310 0.4957 0.4690
# 18 vertex normals

g arml_0_0_004
usemtl Material__1021
s 1
f 80//127 81//127 82//127 
f 80//128 83//128 81//128 
f 83//129 84//129 81//129 
f 85//130 82//130 81//130 
f 82//131 85//131 86//131 
f 84//132 85//132 81//132 
f 87//133 85//133 84//133 
f 82//134 88//134 80//134 
f 83//135 89//135 84//135 
f 88//136 82//136 86//136 
f 85//137 87//137 90//137 
f 86//138 85//138 90//138 
f 91//139 88//139 86//139 
f 91//140 86//140 90//140 
f 92//141 87//141 89//141 
f 92//142 90//142 87//142 
f 84//143 89//143 87//143 
f 90//144 92//144 91//144 
# 0 polygons - 18 triangles

#
# object body_0_0_003
#

v  -0.1749 0.1550 -0.0725
v  -0.0888 0.1912 -0.1142
v  -0.1468 0.1233 -0.1595
v  -0.0499 0.1151 -0.1812
v  -0.1468 0.1794 -0.0118
v  0.0208 0.1287 -0.1387
# 6 vertices

vn -0.5203 0.7345 -0.4358
vn -0.1216 0.6203 -0.7748
vn -0.4445 0.8831 -0.1502
vn 0.2584 0.7097 -0.6554
# 4 vertex normals

g body_0_0_003
usemtl Material__1023
s 1
f 93//145 94//145 95//145 
f 94//146 96//146 95//146 
f 94//147 93//147 97//147 
f 96//148 94//148 98//148 
# 0 polygons - 4 triangles

#
# object body_48E0F28_0_004
#

v  -0.1468 0.1794 -0.0118
v  -0.0725 0.2347 -0.1106
v  -0.0888 0.1912 -0.1142
v  0.0208 0.1287 -0.1387
v  -0.1106 0.2637 -0.0290
v  0.0326 0.2284 -0.1305
v  0.1015 0.1459 -0.0961
v  -0.1278 0.1976 0.0508
v  -0.0018 0.3009 -0.0535
v  0.0979 0.2537 -0.0498
v  -0.0798 0.2837 0.0344
v  -0.0707 0.2157 0.0961
v  0.1232 0.1640 -0.0498
v  0.1341 0.1831 0.0009
v  -0.0018 0.2936 0.0589
v  0.0825 0.2855 0.0272
v  -0.0000 0.2257 0.1124
v  0.1241 0.2012 0.0526
v  0.0761 0.2175 0.0952
# 19 vertices

vn -0.8323 0.3481 -0.4314
vn -0.1419 0.1349 -0.9806
vn -0.8359 0.2609 -0.4829
vn -0.1795 0.1013 -0.9785
vn 0.4640 0.0176 -0.8857
vn -0.8963 0.4166 0.1520
vn -0.0910 0.7046 -0.7038
vn -0.3781 0.8024 -0.4617
vn 0.6916 0.3040 -0.6552
vn -0.8270 0.5073 0.2423
vn -0.3457 0.9300 -0.1244
vn -0.6354 0.4705 0.6124
vn 0.8397 0.2375 -0.4883
vn 0.3755 0.7528 -0.5406
vn 0.9196 0.2601 -0.2946
vn -0.1463 0.9872 0.0637
vn 0.4193 0.8659 -0.2727
vn -0.2595 0.5928 0.7624
vn 0.8920 0.4519 -0.0077
vn 0.1199 0.9907 0.0639
vn 0.8943 0.4471 0.0157
vn 0.2368 0.6046 0.7605
vn 0.6642 0.4967 0.5587
vn 0.3210 0.6546 0.6845
vn -0.3065 0.6166 0.7252
# 25 vertex normals

vt -0.1875 -0.6719 0.0000
vt -0.1953 -0.2695 0.0000
vt -0.3477 -0.4746 0.0000
vt -0.0469 -0.7559 0.0000
vt 0.0156 -0.2441 0.0000
vt 0.1758 -0.2852 0.0000
vt 0.5195 -0.7441 0.0000
vt 0.1836 -0.6748 0.0000
vt 0.4492 -0.0430 0.0000
vt 0.8438 -0.2871 0.0000
vt 0.4531 -0.2422 0.0000
vt 0.6602 -0.6592 0.0000
vt 0.8320 -0.7275 0.0000
vt 1.1289 -0.7090 0.0000
vt 0.9141 -0.2383 0.0000
vt 1.1484 -0.2461 0.0000
vt 1.0547 -0.6445 0.0000
vt 1.3242 -0.6914 0.0000
vt 1.3125 -0.6699 0.0000
# 19 texture coords

g body_48E0F28_0_004
usemtl Material__1015
s 1
f 99/1/149 100/2/149 101/3/149 
f 100/2/150 102/4/150 101/3/150 
f 100/2/151 99/1/151 103/5/151 
f 102/4/152 100/2/152 104/6/152 
f 104/6/153 105/7/153 102/4/153 
f 106/8/154 103/5/154 99/1/154 
f 104/6/155 100/2/155 107/9/155 
f 107/9/156 100/2/156 103/5/156 
f 105/7/157 104/6/157 108/10/157 
f 103/5/158 106/8/158 109/11/158 
f 107/9/159 103/5/159 109/11/159 
f 109/11/160 106/8/160 110/12/160 
f 105/7/161 108/10/161 111/13/161 
f 104/6/162 107/9/162 108/10/162 
f 108/10/163 112/14/163 111/13/163 
f 107/9/164 109/11/164 113/15/164 
f 108/10/165 107/9/165 114/16/165 
f 110/12/166 115/17/166 113/15/166 
f 112/14/167 108/10/167 114/16/167 
f 107/9/168 113/15/168 114/16/168 
f 112/14/169 114/16/169 116/18/169 
f 117/19/170 113/15/170 115/17/170 
f 114/16/171 117/19/171 116/18/171 
f 113/15/172 117/19/172 114/16/172 
f 110/12/173 113/15/173 109/11/173 
# 0 polygons - 25 triangles

#
# object body_34B9100B_0_003
#

v  -0.1269 0.0888 0.0480
v  -0.0707 0.0870 0.0943
v  -0.1006 0.1377 0.0943
v  -0.0526 0.0290 0.0480
v  -0.0000 0.0553 0.0943
v  -0.1269 0.1930 0.0480
v  -0.0544 0.1377 0.1223
v  0.0525 0.0290 0.0480
v  -0.0707 0.2148 0.0943
v  -0.0381 0.1097 0.1223
v  0.0707 0.0870 0.0943
v  -0.0000 0.0924 0.1223
v  -0.0526 0.2755 0.0489
v  -0.0000 0.1377 0.1323
v  0.1269 0.0888 0.0480
v  -0.0381 0.1794 0.1223
v  0.0380 0.1097 0.1223
v  0.0544 0.1377 0.1223
v  0.1006 0.1377 0.0943
v  -0.0000 0.2465 0.0943
v  -0.0000 0.1967 0.1223
v  0.1269 0.1930 0.0480
v  0.0380 0.1794 0.1223
v  0.0707 0.2148 0.0943
v  0.0525 0.2755 0.0480
# 25 vertices

vn -0.6009 -0.3541 0.7166
vn -0.5060 -0.6287 0.5905
vn -0.2918 -0.6502 0.7015
vn -0.8693 -0.0000 0.4943
vn -0.4967 -0.2927 0.8171
vn 0.0000 -0.8693 0.4943
vn -0.6715 0.2607 0.6936
vn -0.2606 -0.5809 0.7711
vn 0.2918 -0.6502 0.7015
vn -0.5005 -0.2906 0.8155
vn -0.5092 0.1977 0.8377
vn -0.2632 -0.5818 0.7695
vn -0.6416 0.5725 0.5105
vn 0.2612 -0.5822 0.7700
vn -0.1793 -0.1041 0.9783
vn 0.5060 -0.6287 0.5905
vn -0.5072 0.1985 0.8387
vn -0.0967 -0.2139 0.9721
vn -0.1799 0.0704 0.9812
vn 0.2621 -0.5794 0.7717
vn 0.5005 -0.2906 0.8155
vn 0.0967 -0.2139 0.9721
vn 0.6009 -0.3541 0.7166
vn -0.2147 0.4785 0.8514
vn 0.1793 -0.1041 0.9783
vn -0.0753 0.1664 0.9832
vn -0.2168 0.4793 0.8504
vn 0.4967 -0.2927 0.8171
vn 0.8693 -0.0000 0.4943
vn 0.0753 0.1664 0.9832
vn 0.2152 0.4795 0.8507
vn 0.2160 0.4775 0.8516
vn 0.2840 0.6330 0.7202
vn 0.6715 0.2607 0.6936
vn 0.1799 0.0704 0.9812
vn -0.2811 0.6265 0.7270
vn 0.5072 0.1985 0.8387
vn 0.5092 0.1977 0.8377
vn 0.6404 0.5770 0.5069
# 39 vertex normals

vt 0.0944 0.2036 0.0000
vt 0.2735 0.1978 0.0000
vt 0.1794 0.3828 0.0000
vt 0.3331 -0.0137 0.0000
vt 0.5001 0.0820 0.0000
vt 0.0944 0.5840 0.0000
vt 0.3263 0.3828 0.0000
vt 0.6667 -0.0137 0.0000
vt 0.2735 0.6616 0.0000
vt 0.3772 0.2808 0.0000
vt 0.7267 0.1978 0.0000
vt 0.5001 0.2183 0.0000
vt 0.3331 0.8828 0.0000
vt 0.5001 0.3828 0.0000
vt 0.9053 0.2036 0.0000
vt 0.3772 0.5337 0.0000
vt 0.6225 0.2808 0.0000
vt 0.6734 0.3828 0.0000
vt 0.8203 0.3828 0.0000
vt 0.5001 0.7773 0.0000
vt 0.5001 0.5962 0.0000
vt 0.9053 0.5840 0.0000
vt 0.6225 0.5337 0.0000
vt 0.7267 0.6616 0.0000
vt 0.6667 0.8828 0.0000
# 25 texture coords

g body_34B9100B_0_003
usemtl Material__1014
s 1
f 118/20/174 119/21/174 120/22/174 
f 119/21/175 118/20/175 121/23/175 
f 121/23/176 122/24/176 119/21/176 
f 120/22/177 123/25/177 118/20/177 
f 119/21/178 124/26/178 120/22/178 
f 122/24/179 121/23/179 125/27/179 
f 123/25/180 120/22/180 126/28/180 
f 122/24/181 127/29/181 119/21/181 
f 125/27/182 128/30/182 122/24/182 
f 119/21/183 127/29/183 124/26/183 
f 124/26/184 126/28/184 120/22/184 
f 122/24/185 129/31/185 127/29/185 
f 126/28/186 130/32/186 123/25/186 
f 128/30/187 129/31/187 122/24/187 
f 131/33/188 124/26/188 127/29/188 
f 128/30/189 125/27/189 132/34/189 
f 124/26/190 133/35/190 126/28/190 
f 131/33/191 127/29/191 129/31/191 
f 131/33/192 133/35/192 124/26/192 
f 128/30/193 134/36/193 129/31/193 
f 128/30/194 135/37/194 134/36/194 
f 131/33/195 129/31/195 134/36/195 
f 132/34/196 136/38/196 128/30/196 
f 133/35/197 137/39/197 126/28/197 
f 131/33/198 134/36/198 135/37/198 
f 131/33/199 138/40/199 133/35/199 
f 133/35/200 138/40/200 137/39/200 
f 128/30/201 136/38/201 135/37/201 
f 136/38/202 132/34/202 139/41/202 
f 131/33/203 140/42/203 138/40/203 
f 138/40/204 141/43/204 137/39/204 
f 138/40/205 140/42/205 141/43/205 
f 142/44/206 137/39/206 141/43/206 
f 139/41/207 141/43/207 136/38/207 
f 131/33/208 135/37/208 140/42/208 
f 130/32/209 126/28/209 137/39/209 
f 135/37/210 141/43/210 140/42/210 
f 135/37/211 136/38/211 141/43/211 
f 141/43/212 139/41/212 142/44/212 
# 0 polygons - 39 triangles

#
# object body_0_0_002
#

v  -0.0000 0.0308 -0.0498
v  -0.0943 0.0562 -0.0498
v  -0.0725 0.0761 -0.0915
v  -0.1314 0.1377 -0.0489
v  -0.0544 0.1377 -0.1205
v  -0.1006 0.1377 -0.0915
v  -0.0390 0.1042 -0.1196
v  -0.0000 0.0498 -0.0915
v  -0.1024 0.0498 0.0000
v  -0.1423 0.1377 0.0009
v  -0.0000 0.1377 -0.1305
v  -0.0000 0.0906 -0.1196
v  -0.0000 0.0217 0.0000
v  -0.1269 0.0888 0.0480
v  0.0390 0.1042 -0.1196
v  -0.0707 0.2148 -0.0915
v  -0.0381 0.1794 -0.1205
v  -0.0526 0.0290 0.0480
v  0.0725 0.0761 -0.0915
v  -0.1006 0.2465 0.0009
v  0.0942 0.0562 -0.0498
v  0.0544 0.1377 -0.1205
v  -0.1269 0.1930 0.0480
v  -0.0925 0.2383 -0.0489
v  0.0525 0.0290 0.0480
v  0.1024 0.0498 0.0000
v  0.1006 0.1377 -0.0915
v  0.1314 0.1377 -0.0489
v  0.1423 0.1377 0.0009
v  -0.0526 0.2755 0.0489
v  0.1269 0.0888 0.0480
v  0.1269 0.1930 0.0480
v  0.1006 0.2465 0.0009
v  0.0707 0.2148 -0.0915
v  0.0924 0.2383 -0.0489
v  0.0380 0.1794 -0.1205
v  0.0525 0.2755 0.0480
# 37 vertices

vn -0.2232 -0.8289 -0.5129
vn -0.7578 -0.3390 -0.5575
vn -0.5165 -0.2355 -0.8232
vn -0.7600 -0.3465 -0.5498
vn -0.2032 -0.5604 -0.8029
vn -0.4914 -0.2483 -0.8348
vn -0.3132 -0.8639 -0.3944
vn -0.2565 -0.9527 -0.1632
vn -0.8934 -0.4048 -0.1949
vn -0.8935 -0.4033 -0.1975
vn -0.1793 -0.1088 -0.9778
vn -0.1941 -0.5565 -0.8078
vn -0.2606 -0.9499 -0.1727
vn -0.0782 -0.2242 -0.9714
vn -0.9036 -0.4085 -0.1289
vn 0.1941 -0.5565 -0.8078
vn -0.5205 0.2021 -0.8296
vn -0.7729 0.3001 -0.5591
vn -0.1799 0.0704 -0.9812
vn -0.5984 -0.7435 0.2984
vn 0.3132 -0.8639 -0.3944
vn -0.2619 -0.9545 -0.1425
vn -0.5185 0.2029 -0.8306
vn 0.0782 -0.2242 -0.9714
vn -0.9150 0.3507 -0.1996
vn 0.2032 -0.5604 -0.8029
vn 0.2561 -0.9511 -0.1729
vn 0.1793 -0.1088 -0.9778
vn -0.9505 -0.0000 0.3107
vn -0.7725 0.2993 -0.5600
vn 0.4914 -0.2483 -0.8348
vn 0.2232 -0.8289 -0.5129
vn -0.9123 0.3534 -0.2071
vn 0.0000 -0.9888 0.1493
vn 0.2610 -0.9513 -0.1638
vn -0.9277 0.3556 -0.1139
vn 0.2619 -0.9545 -0.1425
vn 0.5165 -0.2355 -0.8232
vn 0.7617 -0.3409 -0.5510
vn 0.7548 -0.3441 -0.5584
vn 0.8935 -0.4033 -0.1975
vn -0.7047 0.6315 0.3235
vn 0.8934 -0.4048 -0.1949
vn 0.5984 -0.7435 0.2984
vn 0.9505 -0.0000 0.3107
vn 0.9150 0.3507 -0.1996
vn 0.9277 0.3556 -0.1139
vn 0.7725 0.2993 -0.5600
vn 0.9123 0.3534 -0.2071
vn 0.5205 0.2021 -0.8296
vn 0.7729 0.3001 -0.5591
vn 0.1799 0.0704 -0.9812
vn 0.5185 0.2029 -0.8306
vn 0.9036 -0.4085 -0.1289
vn 0.7022 0.6328 0.3263
# 55 vertex normals

g body_0_0_002
usemtl Material__1022
s 1
f 143//213 144//213 145//213 
f 146//214 145//214 144//214 
f 147//215 145//215 148//215 
f 146//216 148//216 145//216 
f 149//217 150//217 145//217 
f 147//218 149//218 145//218 
f 143//219 145//219 150//219 
f 143//220 151//220 144//220 
f 152//221 146//221 144//221 
f 152//222 144//222 151//222 
f 153//223 149//223 147//223 
f 149//224 154//224 150//224 
f 143//225 155//225 151//225 
f 153//226 154//226 149//226 
f 151//227 156//227 152//227 
f 157//228 150//228 154//228 
f 158//229 147//229 148//229 
f 146//230 158//230 148//230 
f 153//231 147//231 159//231 
f 156//232 151//232 160//232 
f 161//233 143//233 150//233 
f 155//234 160//234 151//234 
f 158//235 159//235 147//235 
f 153//236 157//236 154//236 
f 162//237 146//237 152//237 
f 157//238 161//238 150//238 
f 163//239 155//239 143//239 
f 153//240 164//240 157//240 
f 165//241 152//241 156//241 
f 146//242 166//242 158//242 
f 164//243 161//243 157//243 
f 161//244 163//244 143//244 
f 162//245 166//245 146//245 
f 160//246 155//246 167//246 
f 163//247 168//247 155//247 
f 152//248 165//248 162//248 
f 168//249 167//249 155//249 
f 164//250 169//250 161//250 
f 163//251 169//251 170//251 
f 169//252 163//252 161//252 
f 163//253 171//253 168//253 
f 172//254 162//254 165//254 
f 163//255 170//255 171//255 
f 167//256 168//256 173//256 
f 173//257 171//257 174//257 
f 170//258 175//258 171//258 
f 175//259 174//259 171//259 
f 176//260 177//260 170//260 
f 170//261 177//261 175//261 
f 176//262 169//262 164//262 
f 176//263 170//263 169//263 
f 153//264 178//264 164//264 
f 176//265 164//265 178//265 
f 171//266 173//266 168//266 
f 174//267 175//267 179//267 
# 0 polygons - 55 triangles

