# 3ds Max Wavefront OBJ Exporter v0.97b - (c)2007 guruware
# File Created: 17.10.2018 19:58:01

mtllib yoshipoly.mtl

#
# object Nemu_60999451_0_049
#

v  -0.0746 0.0009 0.1128
v  -0.0648 -0.0022 -0.0373
v  -0.0230 -0.0004 0.0734
v  -0.0713 0.0397 -0.0024
v  -0.1207 0.0006 0.0668
# 5 vertices

vn -0.0106 -0.9997 0.0197
vn 0.8525 0.4071 -0.3278
vn -0.8493 0.2522 -0.4637
vn -0.0137 -0.9997 0.0195
vn -0.3010 0.9064 0.2963
vn 0.2636 0.9120 0.3143
# 6 vertex normals

vt 0.5202 0.0000 0.0000
vt 0.3495 0.7234 0.0000
vt 0.2804 0.6543 0.0000
vt 0.6706 0.9875 0.0000
vt 0.6787 0.9875 0.0000
# 5 texture coords

g Nemu_60999451_0_049
usemtl Material__25
s 1
f 1/1/1 2/1/1 3/1/1 
f 2/2/2 4/2/2 3/2/2 
f 4/3/3 2/3/3 5/3/3 
f 1/1/4 5/1/4 2/1/4 
f 4/4/5 5/4/5 1/4/5 
f 1/5/6 3/5/6 4/5/6 
# 0 polygons - 6 triangles

#
# object Nemu_60999451_0_048
#

v  -0.0779 0.1041 0.0595
v  -0.0670 0.0006 -0.0094
v  -0.0516 0.1040 0.0678
v  -0.0724 0.0696 -0.0007
v  -0.0878 0.1050 0.0187
v  -0.0494 0.0854 -0.0126
v  -0.0549 0.0887 0.0053
v  -0.0659 0.0592 -0.0128
# 8 vertices

vn -0.2533 -0.5542 0.7929
vn -0.8549 -0.4798 0.1971
vn -0.1598 0.9606 -0.2272
vn -0.9961 -0.0730 -0.0490
vn -0.5556 0.2012 -0.8067
vn 0.4314 0.9015 -0.0352
vn -0.6207 0.3948 -0.6774
vn 0.9772 -0.1996 0.0730
vn 0.1031 -0.0591 -0.9929
vn -0.8821 -0.0106 -0.4709
# 10 vertex normals

vt 0.5446 0.0406 0.0000
vt 0.5527 0.2195 0.0000
vt 0.8819 0.5893 0.0000
vt 0.6746 0.2885 0.0000
vt 0.8941 0.7681 0.0000
vt 0.1626 0.8859 0.0000
vt 0.6665 0.9103 0.0000
vt 0.1463 0.8128 0.0000
vt 0.5405 0.9103 0.0000
vt 0.5771 0.4348 0.0000
vt 0.8250 0.9306 0.0000
vt 0.6462 0.7031 0.0000
# 12 texture coords

g Nemu_60999451_0_048
usemtl Material__25
s 1
f 6/6/7 7/7/7 8/8/7 
f 9/9/8 6/6/8 10/10/8 
f 8/8/9 11/11/9 12/8/9 
f 6/6/10 9/7/10 7/7/10 
f 9/12/11 10/10/11 11/12/11 
f 11/13/12 10/10/12 12/8/12 
f 13/14/13 9/14/13 11/14/13 
f 11/15/14 8/8/14 7/15/14 
f 11/16/15 7/16/15 13/16/15 
f 9/17/16 13/17/16 7/17/16 
# 0 polygons - 10 triangles

#
# object Nemu_60999451_0_047
#

v  -0.0779 0.1041 0.0595
v  -0.0516 0.1834 0.0443
v  -0.0779 0.1737 0.0353
v  -0.0516 0.1040 0.0678
v  -0.0549 0.0887 0.0053
v  -0.0209 0.1218 0.0106
v  -0.0746 0.1448 -0.0454
v  -0.0878 0.1050 0.0187
v  -0.0790 0.1113 -0.0374
# 9 vertices

vn -0.4065 0.3002 0.8629
vn 0.6788 -0.7206 0.1410
vn -0.2218 0.9153 -0.3362
vn -0.4924 -0.8529 -0.1735
vn -0.9813 0.1650 -0.0990
vn -0.9682 0.0822 0.2364
vn 0.8514 0.1491 0.5029
vn -0.2901 0.2720 0.9175
vn 0.5976 -0.5176 -0.6124
vn -0.9851 0.0948 -0.1434
vn 0.6416 -0.2568 -0.7227
# 11 vertex normals

vt 0.5446 0.0406 0.0000
vt 0.8819 0.5893 0.0000
vt 0.0163 0.4917 0.0000
vt 0.8941 0.7681 0.0000
vt 0.4186 0.5283 0.0000
vt 0.5242 0.3861 0.0000
vt 0.5446 0.2438 0.0000
vt 0.5690 0.0203 0.0000
vt 0.6421 0.9063 0.0000
vt 0.4511 0.5730 0.0000
vt 0.4958 0.9103 0.0000
# 11 texture coords

g Nemu_60999451_0_047
usemtl Material__25
s 1
f 14/18/17 15/18/17 16/18/17 
f 17/19/18 18/19/18 19/19/18 
f 15/20/19 20/20/19 16/20/19 
f 21/21/20 22/21/20 18/21/20 
f 20/22/21 21/22/21 16/22/21 
f 16/23/22 21/23/22 14/23/22 
f 17/24/23 19/24/23 15/24/23 
f 15/25/24 14/25/24 17/25/24 
f 19/26/25 18/26/25 22/26/25 
f 21/27/26 20/27/26 22/27/26 
f 20/28/27 19/28/27 22/28/27 
# 0 polygons - 11 triangles

#
# object Nemu_60999451_0_046
#

v  0.0746 0.0009 0.1128
v  0.0648 -0.0022 -0.0373
v  0.1207 0.0006 0.0668
v  0.0703 0.0397 -0.0024
v  0.0231 -0.0004 0.0734
# 5 vertices

vn 0.0137 -0.9997 0.0195
vn 0.8440 0.2733 -0.4614
vn -0.8604 0.3879 -0.3305
vn 0.0106 -0.9997 0.0197
vn -0.2653 0.9108 0.3165
vn 0.2987 0.9079 0.2940
# 6 vertex normals

vt 0.5202 0.0000 0.0000
vt 0.2804 0.6584 0.0000
vt 0.3495 0.7234 0.0000
vt 0.6787 0.9875 0.0000
vt 0.6706 0.9875 0.0000
# 5 texture coords

g Nemu_60999451_0_046
usemtl Material__25
s 1
f 23/29/28 24/29/28 25/29/28 
f 24/30/29 26/30/29 25/30/29 
f 26/31/30 24/31/30 27/31/30 
f 23/29/31 27/29/31 24/29/31 
f 27/32/32 23/32/32 26/32/32 
f 25/33/33 26/33/33 23/33/33 
# 0 polygons - 6 triangles

#
# object Nemu_60999451_0_045
#

v  0.0494 0.0854 -0.0126
v  0.0516 0.1040 0.0678
v  0.0549 0.0887 0.0053
v  0.0724 0.0696 -0.0007
v  0.0779 0.1041 0.0595
v  0.0670 0.0006 -0.0094
v  0.0878 0.1050 0.0187
v  0.0659 0.0592 -0.0128
# 8 vertices

vn 0.1598 0.9606 -0.2272
vn 0.1553 -0.8630 0.4807
vn 0.9321 -0.1173 0.3427
vn 0.8549 -0.4798 0.1971
vn -0.9772 -0.1996 0.0730
vn -0.4314 0.9015 -0.0352
vn 0.6207 0.3948 -0.6774
vn 0.5556 0.2012 -0.8067
vn 0.8821 -0.0106 -0.4709
vn -0.1031 -0.0591 -0.9929
# 10 vertex normals

vt 0.1626 0.8859 0.0000
vt 0.8819 0.5893 0.0000
vt 0.5527 0.2195 0.0000
vt 0.5446 0.0406 0.0000
vt 0.6746 0.2885 0.0000
vt 0.8941 0.7681 0.0000
vt 0.5771 0.4348 0.0000
vt 0.1463 0.8128 0.0000
vt 0.5405 0.9103 0.0000
vt 0.6665 0.9103 0.0000
vt 0.6462 0.7031 0.0000
vt 0.8250 0.9306 0.0000
# 12 texture coords

g Nemu_60999451_0_045
usemtl Material__25
s 1
f 28/34/34 29/35/34 30/35/34 
f 31/36/35 32/37/35 29/35/35 
f 31/36/36 29/35/36 33/36/36 
f 32/37/37 31/38/37 34/39/37 
f 29/35/38 28/40/38 33/40/38 
f 34/39/39 28/41/39 30/35/39 
f 31/42/40 35/42/40 28/42/40 
f 34/39/41 31/43/41 28/43/41 
f 35/44/42 31/44/42 33/44/42 
f 33/45/43 28/45/43 35/45/43 
# 0 polygons - 10 triangles

#
# object Nemu_60999451_0_044
#

v  0.0516 0.1834 0.0443
v  0.0779 0.1041 0.0595
v  0.0779 0.1737 0.0353
v  0.0549 0.0887 0.0053
v  0.0516 0.1040 0.0678
v  0.0209 0.1218 0.0106
v  0.0790 0.1113 -0.0374
v  0.0878 0.1050 0.0187
v  0.0746 0.1448 -0.0454
# 9 vertices

vn 0.4065 0.3002 0.8629
vn -0.6788 -0.7206 0.1410
vn -0.8514 0.1491 0.5029
vn 0.4925 -0.8529 -0.1735
vn 0.2901 0.2720 0.9175
vn 0.2218 0.9153 -0.3362
vn 0.9813 0.1650 -0.0990
vn 0.9682 0.0822 0.2364
vn -0.5976 -0.5176 -0.6124
vn 0.9851 0.0948 -0.1434
vn -0.6416 -0.2568 -0.7227
# 11 vertex normals

vt 0.5446 0.0406 0.0000
vt 0.8819 0.5893 0.0000
vt 0.5446 0.2438 0.0000
vt 0.8941 0.7681 0.0000
vt 0.5690 0.0203 0.0000
vt 0.0163 0.4917 0.0000
vt 0.4186 0.5283 0.0000
vt 0.5242 0.3861 0.0000
vt 0.6421 0.9063 0.0000
vt 0.4511 0.5730 0.0000
vt 0.4958 0.9103 0.0000
# 11 texture coords

g Nemu_60999451_0_044
usemtl Material__25
s 1
f 36/46/44 37/46/44 38/46/44 
f 39/47/45 40/47/45 41/47/45 
f 41/48/46 40/48/46 36/48/46 
f 42/49/47 43/49/47 39/49/47 
f 37/50/48 36/50/48 40/50/48 
f 44/51/49 36/51/49 38/51/49 
f 43/52/50 44/52/50 38/52/50 
f 43/53/51 38/53/51 37/53/51 
f 39/54/52 41/54/52 42/54/52 
f 44/55/53 43/55/53 42/55/53 
f 41/56/54 44/56/54 42/56/54 
# 0 polygons - 11 triangles

#
# object Nemu_60999451_0_043
#

v  0.0000 0.2470 -0.1295
v  0.0351 0.2151 -0.1515
v  0.0000 0.2876 -0.2206
v  -0.0362 0.2151 -0.1537
# 4 vertices

vn 0.7345 0.6199 0.2763
vn 0.0224 -0.6846 -0.7286
vn -0.7319 0.6224 0.2774
# 3 vertex normals

vt 0.8331 0.9225 0.0000
vt 1.0119 0.6055 0.0000
vt 0.8941 0.8372 0.0000
vt 0.0163 0.5974 0.0000
vt 0.5202 0.1626 0.0000
vt 0.1382 0.8412 0.0000
# 6 texture coords

g Nemu_60999451_0_043
usemtl Material__25
s 1
f 45/57/55 46/58/55 47/59/55 
f 48/60/56 47/61/56 46/58/56 
f 48/60/57 45/57/57 47/62/57 
# 0 polygons - 3 triangles

#
# object Nemu_60999451_0_042
#

v  -0.0362 0.2151 -0.1537
v  0.0549 0.1745 -0.1021
v  -0.0549 0.1745 -0.1021
v  -0.0659 0.1899 -0.0395
v  0.0659 0.1899 -0.0395
v  0.0351 0.2151 -0.1515
v  0.0000 0.2470 -0.1295
v  0.0000 0.2426 -0.0692
# 8 vertices

vn 0.0000 -0.7857 -0.6186
vn -0.9619 0.1735 -0.2114
vn 0.9553 0.2009 -0.2169
vn -0.6077 0.7921 0.0576
vn -0.6584 0.7526 -0.0045
vn 0.6077 0.7921 0.0576
vn 0.6663 0.7455 -0.0148
vn 0.0197 -0.7684 -0.6397
# 8 vertex normals

vt 0.5161 0.1097 0.0000
vt 0.7234 0.1016 0.0000
vt 0.0081 0.5364 0.0000
vt 0.1707 0.8819 0.0000
vt 0.0163 0.5974 0.0000
vt 1.0241 0.6096 0.0000
vt 1.0119 0.6055 0.0000
vt 0.2032 0.9266 0.0000
vt 0.1788 0.9063 0.0000
vt 0.8331 0.9225 0.0000
vt 0.8616 0.9022 0.0000
vt 0.5161 0.1138 0.0000
# 12 texture coords

g Nemu_60999451_0_042
usemtl Material__25
s 1
f 49/63/58 50/64/58 51/65/58 
f 52/66/59 49/67/59 51/65/59 
f 53/68/60 50/64/60 54/69/60 
f 55/70/61 52/66/61 56/66/61 
f 52/66/62 55/71/62 49/71/62 
f 53/68/63 55/72/63 56/66/63 
f 55/73/64 53/68/64 54/73/64 
f 50/64/65 49/74/65 54/74/65 
# 0 polygons - 8 triangles

#
# object Nemu_60999451_0_041
#

v  -0.0406 0.1820 0.2088
v  -0.0670 0.1876 0.1594
v  -0.1043 0.1435 0.1938
v  -0.0351 0.1411 0.1723
v  -0.0681 0.1553 0.2206
# 5 vertices

vn -0.5434 0.7511 0.3751
vn -0.2815 -0.4296 -0.8580
vn -0.5414 0.7347 0.4088
vn 0.8087 0.4481 -0.3811
vn 0.0682 -0.9438 0.3233
vn 0.6790 -0.4356 0.5909
# 6 vertex normals

vt 0.9022 0.3251 0.0000
vt 0.0284 0.4227 0.0000
vt 0.9103 0.3414 0.0000
vt 0.5039 0.2154 0.0000
vt 0.3576 1.0079 0.0000
vt 0.6218 0.8778 0.0000
# 6 texture coords

g Nemu_60999451_0_041
usemtl Material__25
s 1
f 57/75/66 58/75/66 59/75/66 
f 59/76/67 58/76/67 60/76/67 
f 59/77/68 61/77/68 57/77/68 
f 60/78/69 58/78/69 57/78/69 
f 60/79/70 61/79/70 59/79/70 
f 57/80/71 61/80/71 60/80/71 
# 0 polygons - 6 triangles

#
# object Nemu_60999451_0_040
#

v  -0.1109 0.1590 0.1230
v  -0.0637 0.1826 0.1711
v  -0.0527 0.1817 0.1130
v  -0.0483 0.1428 0.1269
# 4 vertices

vn -0.3738 0.9235 -0.0862
vn -0.0297 -0.3410 -0.9396
vn 0.9682 0.1741 0.1799
vn -0.2354 -0.7610 0.6045
# 4 vertex normals

vt 0.7681 0.1097 0.0000
vt 0.0203 0.3739 0.0000
vt 0.6462 0.4999 0.0000
vt 0.5283 1.0201 0.0000
# 4 texture coords

g Nemu_60999451_0_040
usemtl Material__25
s 1
f 62/81/72 63/81/72 64/81/72 
f 62/82/73 64/82/73 65/82/73 
f 64/83/74 63/83/74 65/83/74 
f 65/84/75 63/84/75 62/84/75 
# 0 polygons - 4 triangles

#
# object Nemu_60999451_0_039
#

v  -0.1120 0.1985 0.1049
v  -0.0845 0.2138 0.0916
v  -0.0790 0.1853 0.0646
v  -0.0472 0.2198 0.1232
v  -0.0637 0.1475 0.1327
# 5 vertices

vn -0.5859 0.4953 -0.6414
vn -0.3677 0.8919 0.2634
vn -0.3267 0.1949 0.9248
vn 0.4171 0.6666 -0.6178
vn 0.9050 -0.2508 -0.3437
vn -0.6226 -0.7351 -0.2681
# 6 vertex normals

vt 0.1300 0.6827 0.0000
vt 0.1747 0.1788 0.0000
vt 0.6543 0.0488 0.0000
vt 0.0569 0.6299 0.0000
vt 0.5405 0.7356 0.0000
vt 0.7884 0.8209 0.0000
# 6 texture coords

g Nemu_60999451_0_039
usemtl Material__25
s 1
f 66/85/76 67/85/76 68/85/76 
f 69/86/77 67/86/77 66/86/77 
f 66/87/78 70/87/78 69/87/78 
f 68/88/79 67/88/79 69/88/79 
f 69/89/80 70/89/80 68/89/80 
f 68/90/81 70/90/81 66/90/81 
# 0 polygons - 6 triangles

#
# object Nemu_60999451_0_038
#

v  0.0670 0.1876 0.1594
v  0.1043 0.1435 0.1938
v  0.0351 0.1411 0.1723
v  0.0406 0.1820 0.2088
v  0.0681 0.1553 0.2206
# 5 vertices

vn 0.2815 -0.4296 -0.8580
vn -0.8087 0.4481 -0.3811
vn 0.5434 0.7511 0.3751
vn -0.6790 -0.4356 0.5909
vn -0.0682 -0.9438 0.3233
vn 0.5414 0.7347 0.4088
# 6 vertex normals

vt 0.0284 0.4227 0.0000
vt 0.5039 0.2154 0.0000
vt 0.9022 0.3251 0.0000
vt 0.6218 0.8778 0.0000
vt 0.3576 1.0079 0.0000
vt 0.9103 0.3414 0.0000
# 6 texture coords

g Nemu_60999451_0_038
usemtl Material__25
s 1
f 71/91/82 72/91/82 73/91/82 
f 71/92/83 73/92/83 74/92/83 
f 71/93/84 74/93/84 72/93/84 
f 75/94/85 74/94/85 73/94/85 
f 75/95/86 73/95/86 72/95/86 
f 75/96/87 72/96/87 74/96/87 
# 0 polygons - 6 triangles

#
# object Nemu_60999451_0_037
#

v  0.0637 0.1826 0.1711
v  0.0527 0.1817 0.1130
v  0.0483 0.1428 0.1269
v  0.1109 0.1590 0.1230
# 4 vertices

vn -0.9682 0.1741 0.1799
vn 0.0297 -0.3410 -0.9396
vn 0.2354 -0.7610 0.6045
vn 0.3738 0.9235 -0.0862
# 4 vertex normals

vt 0.6462 0.4999 0.0000
vt 0.0203 0.3739 0.0000
vt 0.5283 1.0201 0.0000
vt 0.7681 0.1097 0.0000
# 4 texture coords

g Nemu_60999451_0_037
usemtl Material__25
s 1
f 76/97/88 77/97/88 78/97/88 
f 77/98/89 79/98/89 78/98/89 
f 76/99/90 78/99/90 79/99/90 
f 76/100/91 79/100/91 77/100/91 
# 0 polygons - 4 triangles

#
# object Nemu_60999451_0_036
#

v  0.0845 0.2138 0.0916
v  0.0790 0.1853 0.0646
v  0.0472 0.2198 0.1232
v  0.1120 0.1985 0.1049
v  0.0637 0.1475 0.1327
# 5 vertices

vn -0.4171 0.6666 -0.6178
vn 0.3677 0.8919 0.2634
vn -0.9050 -0.2508 -0.3437
vn 0.3267 0.1949 0.9248
vn 0.6226 -0.7351 -0.2681
vn 0.5859 0.4953 -0.6414
# 6 vertex normals

vt 0.0569 0.6299 0.0000
vt 0.1747 0.1788 0.0000
vt 0.5405 0.7356 0.0000
vt 0.6543 0.0488 0.0000
vt 0.7884 0.8209 0.0000
vt 0.1300 0.6827 0.0000
# 6 texture coords

g Nemu_60999451_0_036
usemtl Material__25
s 1
f 80/101/92 81/101/92 82/101/92 
f 80/102/93 82/102/93 83/102/93 
f 84/103/94 82/103/94 81/103/94 
f 84/104/95 83/104/95 82/104/95 
f 84/105/96 81/105/96 83/105/96 
f 80/106/97 83/106/97 81/106/97 
# 0 polygons - 6 triangles

#
# object Nemu_60999451_0_035
#

v  0.0472 0.3586 0.2187
v  -0.0198 0.3225 0.1696
v  -0.0494 0.3597 0.2168
v  0.0198 0.3225 0.1696
v  0.0000 0.2814 0.3527
v  0.0000 0.3454 0.2999
v  -0.0209 0.3280 0.2580
v  0.0000 0.3005 0.3092
v  0.0209 0.3280 0.2580
# 9 vertices

vn 0.0211 0.7916 -0.6107
vn 0.0000 0.8057 -0.5923
vn -0.8081 -0.5873 -0.0446
vn 0.0000 -0.9757 -0.2190
vn 0.0002 0.8665 0.4991
vn 0.8205 -0.5703 -0.0395
vn -0.9059 0.0862 0.4146
vn 0.0000 0.9238 -0.3828
vn 0.9059 0.0862 0.4146
# 9 vertex normals

vt 0.5242 0.7112 0.0000
vt 0.5161 0.7193 0.0000
vt 0.0975 0.2398 0.0000
vt 0.5161 0.0203 0.0000
vt 0.5161 1.0322 0.0000
vt 0.9388 0.2520 0.0000
vt 0.0488 0.6624 0.0000
vt 0.5161 0.8290 0.0000
vt 0.9835 0.6665 0.0000
# 9 texture coords

g Nemu_60999451_0_035
usemtl Material__25
s 1
f 85/107/98 86/107/98 87/107/98 
f 85/108/99 88/108/99 86/108/99 
f 89/109/100 87/109/100 86/109/100 
f 88/110/101 89/110/101 86/110/101 
f 87/111/102 89/111/102 85/111/102 
f 89/112/103 88/112/103 85/112/103 
f 90/113/104 91/113/104 92/113/104 
f 90/114/105 93/114/105 91/114/105 
f 90/115/106 92/115/106 93/115/106 
# 0 polygons - 9 triangles

#
# object Nemu_60999451_0_034
#

v  0.0000 0.3820 0.0922
v  0.0000 0.4577 0.0713
v  0.0000 0.4424 0.1822
# 3 vertices

vn 1.0000 0.0000 -0.0000
# 1 vertex normals

vt 1.0322 0.5161 0.0000
# 1 texture coords

g Nemu_60999451_0_034
usemtl Material__25
s 1
f 94/116/107 95/116/107 96/116/107 
# 0 polygons - 1 triangles

#
# object Nemu_60999451_0_033
#

v  0.0154 0.3282 0.1932
v  -0.0296 0.3194 0.1394
v  0.0296 0.3194 0.1394
v  -0.0154 0.3282 0.1932
v  -0.0198 0.4478 0.1196
v  0.0176 0.4478 0.1196
v  0.0285 0.3776 0.0856
v  -0.0285 0.3776 0.0856
v  -0.0494 0.3831 0.2118
v  0.0494 0.3831 0.2118
v  -0.0187 0.4478 0.2108
v  -0.0011 0.4819 0.1756
v  0.0000 0.3622 0.2590
v  -0.0209 0.4039 0.2305
v  0.0209 0.4039 0.2294
v  0.0187 0.4478 0.2108
v  0.0000 0.4039 0.2788
v  0.0099 0.4292 0.3381
v  -0.0099 0.4292 0.3381
v  0.0000 0.3995 0.3798
v  0.0000 0.3732 0.3238
v  0.0000 0.4105 0.3513
v  -0.0209 0.4105 0.2942
v  0.0209 0.4105 0.2942
# 24 vertices

vn 0.0000 -0.9869 0.1611
vn 0.0000 0.4359 -0.9000
vn 0.0000 -0.6789 -0.7343
vn -0.7634 -0.5740 0.2962
vn -0.9796 -0.1261 -0.1564
vn 0.9796 -0.1261 -0.1564
vn -0.9648 0.2021 -0.1682
vn 0.0000 -0.3219 0.9468
vn 0.7634 -0.5740 0.2962
vn -0.9033 0.4289 0.0109
vn 0.9582 0.2313 -0.1684
vn -0.8840 0.4673 0.0107
vn 0.0000 0.8545 -0.5194
vn -0.0216 -0.5719 -0.8201
vn 0.9034 0.4286 -0.0109
vn 0.9060 -0.1812 0.3825
vn -0.9023 -0.1846 0.3896
vn 0.0000 0.9894 0.1450
vn -0.9589 0.0679 0.2754
vn -0.9107 -0.2447 0.3328
vn 0.0000 -0.6219 -0.7831
vn 0.9589 0.0679 0.2754
vn 0.9107 -0.2447 0.3328
vn -0.8956 0.4271 0.1244
vn 0.8694 0.4940 -0.0105
vn 0.0000 0.7182 0.6958
vn 0.0000 -0.9952 0.0976
vn 0.0000 0.8152 0.5792
vn 0.8956 0.4271 0.1244
# 29 vertex normals

vt 0.5161 0.0041 0.0000
vt 0.5161 0.7437 0.0000
vt 0.5161 0.1626 0.0000
vt 0.1179 0.2195 0.0000
vt 0.0081 0.4470 0.0000
vt 1.0241 0.4470 0.0000
vt 0.0163 0.6177 0.0000
vt 0.5161 0.3536 0.0000
vt 0.9144 0.2195 0.0000
vt 0.0488 0.7356 0.0000
vt 1.0119 0.6340 0.0000
vt 0.0610 0.7600 0.0000
vt 0.5161 0.9591 0.0000
vt 0.5121 0.2235 0.0000
vt 0.9835 0.7356 0.0000
vt 0.9835 0.4186 0.0000
vt 0.0488 0.4186 0.0000
vt 0.5161 1.0282 0.0000
vt 0.0203 0.5568 0.0000
vt 0.0488 0.3901 0.0000
vt 0.5121 0.2032 0.0000
vt 1.0119 0.5568 0.0000
vt 0.9875 0.3901 0.0000
vt 0.0528 0.7356 0.0000
vt 0.9632 0.7762 0.0000
vt 0.5161 0.8900 0.0000
vt 0.5161 0.0000 0.0000
vt 0.5161 0.9388 0.0000
vt 0.9794 0.7356 0.0000
# 29 texture coords

g Nemu_60999451_0_033
usemtl Material__25
s 1
f 97/117/108 98/117/108 99/117/108 
f 97/117/108 100/117/108 98/117/108 
f 101/118/109 102/118/109 103/118/109 
f 101/118/109 103/118/109 104/118/109 
f 104/119/110 103/119/110 99/119/110 
f 104/119/110 99/119/110 98/119/110 
f 105/120/111 98/120/111 100/120/111 
f 98/121/112 105/121/112 104/121/112 
f 106/122/113 99/122/113 103/122/113 
f 105/123/114 101/123/114 104/123/114 
f 100/124/115 97/124/115 106/124/115 
f 99/125/116 106/125/116 97/125/116 
f 100/124/115 106/124/115 105/124/115 
f 101/126/117 105/126/117 107/126/117 
f 102/127/118 106/127/118 103/127/118 
f 107/128/119 108/128/119 101/128/119 
f 108/129/120 102/129/120 101/129/120 
f 109/130/121 110/130/121 111/130/121 
f 106/131/122 102/131/122 112/131/122 
f 109/132/123 111/132/123 113/132/123 
f 109/133/124 113/133/124 110/133/124 
f 107/134/125 114/134/125 112/134/125 
f 115/135/126 105/135/126 116/135/126 
f 107/134/125 115/134/125 114/134/125 
f 117/136/127 118/136/127 119/136/127 
f 117/137/128 119/137/128 120/137/128 
f 106/138/129 114/138/129 116/138/129 
f 117/139/130 120/139/130 118/139/130 
f 105/140/131 115/140/131 107/140/131 
f 102/141/132 108/141/132 112/141/132 
f 108/142/133 107/142/133 112/142/133 
f 116/143/134 105/143/134 106/143/134 
f 114/144/135 115/144/135 116/144/135 
f 114/145/136 106/145/136 112/145/136 
# 0 polygons - 34 triangles

#
# object Nemu_60999451_0_032
#

v  -0.0670 0.1932 0.1078
v  -0.0659 0.1899 0.0296
v  -0.0779 0.1262 0.0077
v  0.0000 0.1614 0.1243
v  0.0000 0.0878 0.0055
v  0.0779 0.1262 0.0077
v  0.0670 0.1932 0.1078
v  0.0000 0.2272 0.0505
v  0.0659 0.1899 0.0296
v  0.0000 0.3963 0.1791
# 10 vertices

vn -0.9808 0.1936 -0.0219
vn -0.3748 -0.7882 0.4881
vn 0.3748 -0.7882 0.4881
vn -0.4672 -0.7104 0.5264
vn 0.4672 -0.7104 0.5264
vn -0.4820 0.8751 -0.0436
vn 0.4820 0.8751 -0.0436
vn 0.9808 0.1936 -0.0219
vn 0.7031 0.4306 -0.5659
vn -0.7031 0.4306 -0.5659
vn 0.3283 -0.2149 0.9198
vn -0.3283 -0.2149 0.9198
# 12 vertex normals

vt 0.0081 0.6137 0.0000
vt 0.0081 0.6096 0.0000
vt 0.3007 0.1260 0.0000
vt 0.7234 0.1016 0.0000
vt 0.7315 0.1260 0.0000
vt 0.2642 0.9672 0.0000
vt 0.7965 0.8575 0.0000
vt 0.7681 0.9672 0.0000
vt 1.0241 0.6096 0.0000
vt 1.0241 0.6137 0.0000
vt 0.8819 0.7396 0.0000
vt 0.1504 0.7396 0.0000
vt 0.6868 0.4064 0.0000
vt 0.3454 0.4064 0.0000
# 14 texture coords

g Nemu_60999451_0_032
usemtl Material__25
s 1
f 121/146/137 122/147/137 123/147/137 
f 124/148/138 123/147/138 125/149/138 
f 126/149/139 124/150/139 125/149/139 
f 124/148/140 121/148/140 123/147/140 
f 126/149/141 127/150/141 124/150/141 
f 121/151/142 128/152/142 122/147/142 
f 128/152/143 127/153/143 129/154/143 
f 129/154/144 127/155/144 126/149/144 
f 127/156/145 128/152/145 130/156/145 
f 128/152/146 121/157/146 130/157/146 
f 130/158/147 124/158/147 127/158/147 
f 124/159/148 130/159/148 121/159/148 
# 0 polygons - 12 triangles

#
# object Nemu_60999451_0_031
#

v  -0.0549 0.1745 -0.1021
v  0.0000 0.0878 0.0055
v  -0.0779 0.1262 0.0077
v  -0.0659 0.1899 -0.0395
v  -0.0659 0.1899 0.0296
v  0.0549 0.1745 -0.1021
v  0.0659 0.1899 -0.0395
v  0.0779 0.1262 0.0077
v  0.0000 0.2656 0.0022
v  0.0000 0.2426 -0.0692
v  0.0659 0.1899 0.0296
v  0.0000 0.2272 0.0505
# 12 vertices

vn -0.4074 -0.8013 -0.4381
vn -0.9816 0.0495 -0.1844
vn -0.9825 0.1863 0.0000
vn 0.0000 -0.7785 -0.6276
vn 0.9816 0.0495 -0.1844
vn 0.4074 -0.8013 -0.4381
vn 0.6688 0.7074 -0.2286
vn -0.7546 0.6562 0.0000
vn 0.7546 0.6562 0.0000
vn -0.5394 0.6590 0.5242
vn -0.6688 0.7074 -0.2286
vn 0.5394 0.6590 0.5242
vn 0.9825 0.1863 0.0000
# 13 vertex normals

vt 0.3089 0.1016 0.0000
vt 0.0081 0.5364 0.0000
vt 0.0081 0.6096 0.0000
vt 0.5161 0.1097 0.0000
vt 1.0241 0.5364 0.0000
vt 0.7234 0.1016 0.0000
vt 0.8656 0.8819 0.0000
vt 0.1260 0.8575 0.0000
vt 0.9063 0.8534 0.0000
vt 0.2357 0.8575 0.0000
vt 0.1707 0.8819 0.0000
vt 0.7965 0.8575 0.0000
vt 1.0241 0.6096 0.0000
# 13 texture coords

g Nemu_60999451_0_031
usemtl Material__25
s 1
f 131/160/149 132/160/149 133/160/149 
f 133/161/150 134/161/150 131/161/150 
f 134/162/151 133/162/151 135/162/151 
f 132/163/152 131/163/152 136/163/152 
f 137/164/153 138/164/153 136/164/153 
f 132/165/154 136/165/154 138/165/154 
f 139/166/155 137/166/155 140/166/155 
f 135/167/156 139/167/156 134/167/156 
f 137/168/157 139/168/157 141/168/157 
f 139/169/158 135/169/158 142/169/158 
f 134/170/159 139/170/159 140/170/159 
f 141/171/160 139/171/160 142/171/160 
f 138/172/161 137/172/161 141/172/161 
# 0 polygons - 13 triangles

