# Wavefront OBJ exported by MilkShape 3D

mtllib pokeball.mtl

v 0.107337 0.110999 0.190923
v 0.061399 0.129661 0.227098
v 0.066367 0.152105 0.227215
v 0.006637 0.151596 0.240120
v 0.066367 0.152105 0.227215
v 0.061399 0.129661 0.227098
v 0.148437 0.153612 0.140304
v 0.107337 0.110999 0.190923
v 0.115253 0.152819 0.191179
v 0.107337 0.110999 0.190923
v 0.066367 0.152105 0.227215
v 0.115253 0.152819 0.191179
v 0.148437 0.153612 0.140304
v 0.115253 0.152819 0.191179
v 0.106884 0.194536 0.191897
v 0.148437 0.153612 0.140304
v 0.137540 0.098529 0.139981
v 0.107337 0.110999 0.190923
v 0.157921 0.154373 0.079912
v 0.148437 0.153612 0.140304
v 0.136943 0.208553 0.141264
v 0.148437 0.153612 0.140304
v 0.106884 0.194536 0.191897
v 0.136943 0.208553 0.141264
v 0.145015 0.154994 0.020156
v 0.157921 0.154373 0.079912
v 0.146400 0.214409 0.080931
v 0.157921 0.154373 0.079912
v 0.136943 0.208553 0.141264
v 0.146400 0.214409 0.080931
v 0.066367 0.152105 0.227215
v 0.061157 0.174486 0.227620
v 0.106884 0.194536 0.191897
v 0.145015 0.154994 0.020156
v 0.146400 0.214409 0.080931
v 0.133522 0.209936 0.021116
v 0.006637 0.151596 0.240120
v 0.061157 0.174486 0.227620
v 0.066367 0.152105 0.227215
v 0.066367 0.152105 0.227215
v 0.106884 0.194536 0.191897
v 0.115253 0.152819 0.191179
v 0.157921 0.154373 0.079912
v 0.137540 0.098529 0.139981
v 0.148437 0.153612 0.140304
v 0.157921 0.154373 0.079912
v 0.147052 0.094198 0.079530
v 0.137540 0.098529 0.139981
v 0.134118 0.099912 0.019833
v 0.157921 0.154373 0.079912
v 0.145015 0.154994 0.020156
v 0.134118 0.099912 0.019833
v 0.147052 0.094198 0.079530
v 0.157921 0.154373 0.079912
v 0.101716 0.256598 0.022558
v 0.133522 0.209936 0.021116
v 0.146400 0.214409 0.080931
v 0.006637 0.151596 0.240120
v 0.061399 0.129661 0.227098
v 0.048274 0.110221 0.227248
v 0.146400 0.214409 0.080931
v 0.136943 0.208553 0.141264
v 0.105138 0.255216 0.142706
v 0.101716 0.256598 0.022558
v 0.146400 0.214409 0.080931
v 0.111525 0.264108 0.082496
v 0.136943 0.208553 0.141264
v 0.106884 0.194536 0.191897
v 0.083276 0.231062 0.192990
v 0.146400 0.214409 0.080931
v 0.105138 0.255216 0.142706
v 0.111525 0.264108 0.082496
v 0.061157 0.174486 0.227620
v 0.047821 0.193758 0.228222
v 0.083276 0.231062 0.192990
v 0.136943 0.208553 0.141264
v 0.083276 0.231062 0.192990
v 0.105138 0.255216 0.142706
v 0.006637 0.151596 0.240120
v 0.047821 0.193758 0.228222
v 0.061157 0.174486 0.227620
v 0.061157 0.174486 0.227620
v 0.083276 0.231062 0.192990
v 0.106884 0.194536 0.191897
v 0.084127 0.074177 0.191161
v 0.061399 0.129661 0.227098
v 0.107337 0.110999 0.190923
v 0.084127 0.074177 0.191161
v 0.048274 0.110221 0.227248
v 0.061399 0.129661 0.227098
v 0.137540 0.098529 0.139981
v 0.084127 0.074177 0.191161
v 0.107337 0.110999 0.190923
v 0.137540 0.098529 0.139981
v 0.106242 0.051468 0.140331
v 0.084127 0.074177 0.191161
v 0.147052 0.094198 0.079530
v 0.106242 0.051468 0.140331
v 0.137540 0.098529 0.139981
v 0.147052 0.094198 0.079530
v 0.112718 0.044060 0.079930
v 0.106242 0.051468 0.140331
v 0.054727 0.287883 0.024256
v 0.111525 0.264108 0.082496
v 0.061465 0.298431 0.084317
v 0.054727 0.287883 0.024256
v 0.101716 0.256598 0.022558
v 0.111525 0.264108 0.082496
v 0.061465 0.298431 0.084317
v 0.105138 0.255216 0.142706
v 0.058148 0.286500 0.144404
v 0.061465 0.298431 0.084317
v 0.111525 0.264108 0.082496
v 0.105138 0.255216 0.142706
v 0.058148 0.286500 0.144404
v 0.083276 0.231062 0.192990
v 0.046509 0.254262 0.194304
v 0.058148 0.286500 0.144404
v 0.105138 0.255216 0.142706
v 0.083276 0.231062 0.192990
v 0.047821 0.193758 0.228222
v 0.046509 0.254262 0.194304
v 0.083276 0.231062 0.192990
v 0.047821 0.193758 0.228222
v 0.028411 0.206879 0.228926
v 0.046509 0.254262 0.194304
v 0.102821 0.052850 0.020183
v 0.112718 0.044060 0.079930
v 0.147052 0.094198 0.079530
v 0.006637 0.151596 0.240120
v 0.028411 0.206879 0.228926
v 0.047821 0.193758 0.228222
v 0.006637 0.151596 0.240120
v 0.048274 0.110221 0.227248
v 0.029008 0.096855 0.227643
v 0.102821 0.052850 0.020183
v 0.147052 0.094198 0.079530
v 0.134118 0.099912 0.019833
v 0.047614 0.050514 0.191928
v 0.048274 0.110221 0.227248
v 0.084127 0.074177 0.191161
v 0.047614 0.050514 0.191928
v 0.029008 0.096855 0.227643
v 0.048274 0.110221 0.227248
v 0.106242 0.051468 0.140331
v 0.059595 0.019591 0.141292
v 0.047614 0.050514 0.191928
v 0.106242 0.051468 0.140331
v 0.047614 0.050514 0.191928
v 0.084127 0.074177 0.191161
v 0.112718 0.044060 0.079930
v 0.063035 0.009108 0.080943
v 0.059595 0.019591 0.141292
v 0.112718 0.044060 0.079930
v 0.059595 0.019591 0.141292
v 0.106242 0.051468 0.140331
v 0.102821 0.052850 0.020183
v 0.056174 0.020973 0.021144
v 0.063035 0.009108 0.080943
v 0.102821 0.052850 0.020183
v 0.063035 0.009108 0.080943
v 0.112718 0.044060 0.079930
v 0.005928 0.042100 0.193018
v 0.006644 0.091620 0.228219
v 0.029008 0.096855 0.227643
v 0.005928 0.042100 0.193018
v 0.029008 0.096855 0.227643
v 0.047614 0.050514 0.191928
v 0.059595 0.019591 0.141292
v 0.004696 0.008037 0.142723
v 0.005928 0.042100 0.193018
v 0.006637 0.151596 0.240120
v 0.029008 0.096855 0.227643
v 0.006644 0.091620 0.228219
v 0.063035 0.009108 0.080943
v 0.003046 -0.002479 0.082518
v 0.004696 0.008037 0.142723
v 0.059595 0.019591 0.141292
v 0.005928 0.042100 0.193018
v 0.047614 0.050514 0.191928
v 0.056174 0.020973 0.021144
v 0.001274 0.009419 0.022575
v 0.003046 -0.002479 0.082518
v 0.063035 0.009108 0.080943
v 0.004696 0.008037 0.142723
v 0.059595 0.019591 0.141292
v 0.006637 0.151596 0.240120
v 0.006644 0.091620 0.228219
v -0.015776 0.096572 0.228915
v 0.056174 0.020973 0.021144
v 0.003046 -0.002479 0.082518
v 0.063035 0.009108 0.080943
v 0.005928 0.042100 0.193018
v -0.015776 0.096572 0.228915
v 0.006644 0.091620 0.228219
v 0.005928 0.042100 0.193018
v -0.035844 0.049985 0.194299
v -0.015776 0.096572 0.228915
v 0.004696 0.008037 0.142723
v -0.035844 0.049985 0.194299
v 0.005928 0.042100 0.193018
v 0.004696 0.008037 0.142723
v -0.050325 0.018895 0.144414
v -0.035844 0.049985 0.194299
v 0.004696 0.008037 0.142723
v -0.057064 0.008348 0.084354
v -0.050325 0.018895 0.144414
v 0.004696 0.008037 0.142723
v 0.003046 -0.002479 0.082518
v -0.057064 0.008348 0.084354
v 0.001274 0.009419 0.022575
v -0.057064 0.008348 0.084354
v 0.003046 -0.002479 0.082518
v 0.001274 0.009419 0.022575
v -0.053747 0.020277 0.024267
v -0.057064 0.008348 0.084354
v -0.035844 0.049985 0.194299
v -0.072612 0.073185 0.195613
v -0.035185 0.109693 0.229619
v 0.006637 0.151596 0.240120
v -0.015776 0.096572 0.228915
v -0.035185 0.109693 0.229619
v -0.035844 0.049985 0.194299
v -0.050325 0.018895 0.144414
v -0.097315 0.050180 0.146113
v -0.035844 0.049985 0.194299
v -0.035185 0.109693 0.229619
v -0.015776 0.096572 0.228915
v -0.050325 0.018895 0.144414
v -0.057064 0.008348 0.084354
v -0.107123 0.042670 0.086175
v -0.035844 0.049985 0.194299
v -0.097315 0.050180 0.146113
v -0.072612 0.073185 0.195613
v -0.057064 0.008348 0.084354
v -0.053747 0.020277 0.024267
v -0.100736 0.051562 0.025965
v -0.050325 0.018895 0.144414
v -0.107123 0.042670 0.086175
v -0.097315 0.050180 0.146113
v -0.141999 0.092369 0.087740
v -0.107123 0.042670 0.086175
v -0.100736 0.051562 0.025965
v -0.057064 0.008348 0.084354
v -0.100736 0.051562 0.025965
v -0.107123 0.042670 0.086175
v -0.153520 0.152404 0.088759
v -0.141999 0.092369 0.087740
v -0.132542 0.098225 0.027407
v -0.141999 0.092369 0.087740
v -0.100736 0.051562 0.025965
v -0.132542 0.098225 0.027407
v -0.142651 0.212580 0.089141
v -0.153520 0.152404 0.088759
v -0.144036 0.153166 0.028367
v -0.153520 0.152404 0.088759
v -0.132542 0.098225 0.027407
v -0.144036 0.153166 0.028367
v -0.142651 0.212580 0.089141
v -0.144036 0.153166 0.028367
v -0.133139 0.208248 0.028690
v -0.142651 0.212580 0.089141
v -0.101841 0.255310 0.028340
v -0.108317 0.262717 0.088741
v -0.142651 0.212580 0.089141
v -0.133139 0.208248 0.028690
v -0.101841 0.255310 0.028340
v -0.108317 0.262717 0.088741
v -0.055194 0.287187 0.027379
v -0.058633 0.297671 0.087728
v -0.108317 0.262717 0.088741
v -0.101841 0.255310 0.028340
v -0.055194 0.287187 0.027379
v -0.055194 0.287187 0.027379
v -0.000294 0.298742 0.025948
v 0.001356 0.309256 0.086153
v -0.055194 0.287187 0.027379
v 0.001356 0.309256 0.086153
v -0.058633 0.297671 0.087728
v -0.000294 0.298742 0.025948
v 0.054727 0.287883 0.024256
v 0.061465 0.298431 0.084317
v -0.000294 0.298742 0.025948
v 0.061465 0.298431 0.084317
v 0.001356 0.309256 0.086153
v 0.001356 0.309256 0.086153
v 0.058148 0.286500 0.144404
v 0.003127 0.297359 0.146096
v 0.001356 0.309256 0.086153
v 0.061465 0.298431 0.084317
v 0.058148 0.286500 0.144404
v 0.003127 0.297359 0.146096
v 0.046509 0.254262 0.194304
v 0.004736 0.262148 0.195584
v 0.003127 0.297359 0.146096
v 0.058148 0.286500 0.144404
v 0.046509 0.254262 0.194304
v 0.005992 0.211831 0.229621
v 0.046509 0.254262 0.194304
v 0.028411 0.206879 0.228926
v 0.005992 0.211831 0.229621
v 0.004736 0.262148 0.195584
v 0.046509 0.254262 0.194304
v -0.051773 0.285805 0.147527
v -0.058633 0.297671 0.087728
v 0.001356 0.309256 0.086153
v 0.006637 0.151596 0.240120
v 0.005992 0.211831 0.229621
v 0.028411 0.206879 0.228926
v -0.051773 0.285805 0.147527
v 0.003127 0.297359 0.146096
v 0.004736 0.262148 0.195584
v -0.051773 0.285805 0.147527
v 0.001356 0.309256 0.086153
v 0.003127 0.297359 0.146096
v -0.016371 0.206595 0.230198
v -0.036950 0.253733 0.196674
v 0.004736 0.262148 0.195584
v -0.051773 0.285805 0.147527
v 0.004736 0.262148 0.195584
v -0.036950 0.253733 0.196674
v 0.006637 0.151596 0.240120
v -0.016371 0.206595 0.230198
v 0.005992 0.211831 0.229621
v -0.016371 0.206595 0.230198
v 0.004736 0.262148 0.195584
v 0.005992 0.211831 0.229621
v -0.098420 0.253928 0.148488
v -0.058633 0.297671 0.087728
v -0.051773 0.285805 0.147527
v -0.098420 0.253928 0.148488
v -0.108317 0.262717 0.088741
v -0.058633 0.297671 0.087728
v -0.073462 0.230071 0.197442
v -0.051773 0.285805 0.147527
v -0.036950 0.253733 0.196674
v -0.073462 0.230071 0.197442
v -0.098420 0.253928 0.148488
v -0.051773 0.285805 0.147527
v -0.035638 0.193230 0.230593
v -0.036950 0.253733 0.196674
v -0.016371 0.206595 0.230198
v -0.035638 0.193230 0.230593
v -0.073462 0.230071 0.197442
v -0.036950 0.253733 0.196674
v -0.098420 0.253928 0.148488
v -0.129716 0.206866 0.148838
v -0.142651 0.212580 0.089141
v 0.006637 0.151596 0.240120
v -0.035638 0.193230 0.230593
v -0.016371 0.206595 0.230198
v -0.073462 0.230071 0.197442
v -0.096673 0.193248 0.197679
v -0.129716 0.206866 0.148838
v -0.098420 0.253928 0.148488
v -0.142651 0.212580 0.089141
v -0.108317 0.262717 0.088741
v -0.048764 0.173790 0.230743
v -0.096673 0.193248 0.197679
v -0.073462 0.230071 0.197442
v -0.073462 0.230071 0.197442
v -0.129716 0.206866 0.148838
v -0.098420 0.253928 0.148488
v 0.006637 0.151596 0.240120
v -0.048764 0.173790 0.230743
v -0.035638 0.193230 0.230593
v -0.048764 0.173790 0.230743
v -0.073462 0.230071 0.197442
v -0.035638 0.193230 0.230593
v -0.129716 0.206866 0.148838
v -0.140614 0.151783 0.148515
v -0.153520 0.152404 0.088759
v -0.129716 0.206866 0.148838
v -0.153520 0.152404 0.088759
v -0.142651 0.212580 0.089141
v -0.096673 0.193248 0.197679
v -0.140614 0.151783 0.148515
v -0.129716 0.206866 0.148838
v -0.096673 0.193248 0.197679
v -0.104589 0.151428 0.197424
v -0.140614 0.151783 0.148515
v -0.053732 0.151346 0.230626
v -0.096673 0.193248 0.197679
v -0.048764 0.173790 0.230743
v -0.053732 0.151346 0.230626
v -0.104589 0.151428 0.197424
v -0.096673 0.193248 0.197679
v -0.129120 0.096843 0.147555
v -0.153520 0.152404 0.088759
v -0.140614 0.151783 0.148515
v 0.006637 0.151596 0.240120
v -0.053732 0.151346 0.230626
v -0.048764 0.173790 0.230743
v -0.129120 0.096843 0.147555
v -0.141999 0.092369 0.087740
v -0.153520 0.152404 0.088759
v -0.096220 0.109711 0.196705
v -0.140614 0.151783 0.148515
v -0.104589 0.151428 0.197424
v -0.096220 0.109711 0.196705
v -0.129120 0.096843 0.147555
v -0.140614 0.151783 0.148515
v -0.096220 0.109711 0.196705
v -0.053732 0.151346 0.230626
v -0.048521 0.128965 0.230220
v -0.096220 0.109711 0.196705
v -0.104589 0.151428 0.197424
v -0.053732 0.151346 0.230626
v -0.072612 0.073185 0.195613
v -0.129120 0.096843 0.147555
v -0.096220 0.109711 0.196705
v 0.006637 0.151596 0.240120
v -0.048521 0.128965 0.230220
v -0.053732 0.151346 0.230626
v -0.097315 0.050180 0.146113
v -0.141999 0.092369 0.087740
v -0.129120 0.096843 0.147555
v -0.072612 0.073185 0.195613
v -0.097315 0.050180 0.146113
v -0.129120 0.096843 0.147555
v -0.072612 0.073185 0.195613
v -0.096220 0.109711 0.196705
v -0.048521 0.128965 0.230220
v -0.097315 0.050180 0.146113
v -0.107123 0.042670 0.086175
v -0.141999 0.092369 0.087740
v 0.006637 0.151596 0.240120
v -0.035185 0.109693 0.229619
v -0.048521 0.128965 0.230220
v -0.072612 0.073185 0.195613
v -0.048521 0.128965 0.230220
v -0.035185 0.109693 0.229619
# 432 vertices

vt 0.815430 0.432129
vt 0.676758 0.500000
vt 0.662109 0.463379
vt 0.484375 0.500000
vt 0.956055 0.500000
vt 0.842773 0.500000
vt 0.815430 0.567383
vt 0.920898 0.411133
vt 1.000000 0.500000
vt 0.920898 0.588379
vt 0.966797 0.500000
vt 0.961914 0.595215
vt 0.662109 0.536133
vt 0.931641 0.588379
vt 0.961914 0.404297
vt 0.931641 0.411133
vt 0.832031 0.663086
vt 0.621094 0.432129
vt 0.820313 0.663086
vt 0.853516 0.676758
vt 0.739258 0.624512
vt 0.621094 0.567383
vt 0.739258 0.375000
vt 0.820313 0.336426
vt 0.853516 0.322754
vt 0.681641 0.713379
vt 0.690430 0.730957
vt 0.670898 0.713379
vt 0.624023 0.663086
vt 0.558594 0.588379
vt 0.832031 0.336426
vt 0.558594 0.411133
vt 0.624023 0.336426
vt 0.670898 0.286133
vt 0.690430 0.268555
vt 0.681641 0.286133
vt 0.489258 0.322754
vt 0.485352 0.404297
vt 0.494141 0.268555
vt 0.500000 0.250000
vt 0.504883 0.268555
vt 0.412109 0.411133
vt 0.353516 0.336426
vt 0.317383 0.286133
vt 0.308594 0.268555
vt 0.328125 0.286133
vt 0.350586 0.432129
vt 0.239258 0.374511
vt 0.166992 0.336426
vt 0.145508 0.322754
vt 0.178711 0.336426
vt 0.037109 0.404297
vt 0.000000 0.499511
vt 0.078125 0.411133
vt 0.037109 0.595215
vt 0.042969 0.499511
vt 0.078125 0.588379
vt 0.145508 0.676758
vt 0.178711 0.663086
vt 0.308594 0.730957
vt 0.328125 0.713379
vt 0.500000 0.750000
vt 0.504883 0.730957
vt 0.494141 0.730957
vt 0.489258 0.676758
vt 0.485352 0.595215
vt 0.317383 0.713379
vt 0.412109 0.588379
vt 0.353516 0.663086
vt 0.166992 0.663086
vt 0.239258 0.624512
vt 0.350586 0.567383
vt 0.067383 0.588379
vt 0.162109 0.567383
vt 0.308594 0.536133
vt 0.032227 0.499511
vt 0.135742 0.499511
vt 0.293945 0.499511
vt 0.067383 0.411133
vt 0.162109 0.432129
vt 0.308594 0.463379
# 81 texture coordinates

vn 0.579464 -0.132442 0.804164
vn 0.211321 -0.051859 0.976040
vn 0.827927 -0.160015 0.537523
vn 0.590406 -0.116652 0.798632
vn 0.826153 0.156423 0.541298
vn 0.829567 -0.167234 0.532777
vn 0.967599 0.199719 0.154484
vn 0.827712 0.163776 0.536722
vn 0.960469 0.187807 -0.205492
vn 0.968389 0.182961 0.169553
vn 0.577985 0.119955 0.807183
vn 0.953919 0.203409 -0.220596
vn 0.210823 0.031402 0.977020
vn 0.589124 0.104397 0.801271
vn 0.969741 -0.192719 0.149873
vn 0.970350 -0.176327 0.165319
vn 0.959515 -0.188591 -0.209197
vn 0.959255 -0.171850 -0.224270
vn 0.803958 0.554625 -0.214575
vn 0.184994 -0.117383 0.975704
vn 0.815232 0.550066 0.181176
vn 0.798740 0.566843 -0.201750
vn 0.711432 0.443503 0.545133
vn 0.809298 0.562578 0.168948
vn 0.485503 0.310424 0.817266
vn 0.707547 0.465846 0.531380
vn 0.183733 0.096581 0.978220
vn 0.502011 0.300191 0.811092
vn 0.505613 -0.313503 0.803786
vn 0.489203 -0.324073 0.809726
vn 0.716525 -0.448185 0.534530
vn 0.712895 -0.470233 0.520252
vn 0.821376 -0.544994 0.168295
vn 0.815587 -0.557269 0.155783
vn 0.548532 0.810874 -0.203951
vn 0.539192 0.820234 -0.191021
vn 0.548686 0.813717 0.191857
vn 0.560772 0.808414 0.178892
vn 0.457897 0.694230 0.555315
vn 0.479693 0.691164 0.540544
vn 0.324594 0.467862 0.822037
vn 0.343835 0.464842 0.815904
vn 0.805040 -0.553002 -0.214708
vn 0.134038 0.145685 0.980209
vn 0.135909 -0.167039 0.976538
vn 0.810113 -0.540443 -0.227239
vn 0.330228 -0.483277 0.810798
vn 0.349440 -0.479899 0.804729
vn 0.483576 -0.691458 0.536693
vn 0.471405 -0.710464 0.522511
vn 0.569145 -0.804025 0.172099
vn 0.559207 -0.813497 0.159718
vn 0.546884 -0.807000 -0.222867
vn 0.559603 -0.801552 -0.210616
vn 0.155058 -0.573861 0.804140
vn 0.136214 -0.569860 0.810374
vn 0.185933 -0.815654 0.547848
vn 0.070650 -0.194138 0.978427
vn 0.191225 -0.967782 0.163801
vn 0.179732 -0.820054 0.543330
vn 0.197017 -0.960511 -0.196477
vn 0.207079 -0.961833 0.178875
vn -0.012539 -0.194618 0.980799
vn 0.180011 -0.960708 -0.211273
vn -0.101900 -0.575386 0.811509
vn -0.082776 -0.571158 0.816656
vn -0.137418 -0.818560 0.557742
vn -0.144872 -0.820293 0.553292
vn -0.184454 -0.964296 0.190028
vn -0.169408 -0.970050 0.174077
vn -0.179672 -0.965903 -0.186412
vn -0.195598 -0.959793 -0.201345
vn -0.277597 -0.486854 0.828199
vn -0.078121 -0.168280 0.982639
vn -0.443718 -0.697051 0.563235
vn -0.297143 -0.483708 0.823246
vn -0.548536 -0.810875 0.203935
vn -0.432133 -0.715919 0.548380
vn -0.548690 -0.813718 -0.191838
vn -0.539192 -0.820238 0.191001
vn -0.809287 -0.562597 -0.168934
vn -0.560775 -0.808415 -0.178874
vn -0.968387 -0.182963 -0.169562
vn -0.815234 -0.550059 -0.181188
vn -0.972692 0.176657 -0.150539
vn -0.967596 -0.199731 -0.154484
vn -0.967197 0.192312 -0.165969
vn -0.815587 0.557270 -0.155780
vn -0.821377 0.544992 -0.168296
vn -0.569155 0.804016 -0.172106
vn -0.559209 0.813496 -0.159715
vn -0.207264 0.964645 -0.162792
vn -0.191090 0.965195 -0.178561
vn 0.184467 0.964290 -0.190045
vn 0.169388 0.970057 -0.174060
vn 0.195753 0.962980 0.185338
vn 0.179571 0.962969 0.201110
vn 0.169467 0.805607 0.567696
vn 0.176667 0.807449 0.562864
vn 0.146290 0.546591 0.824523
vn 0.130402 0.557749 0.819702
vn -0.179988 0.960710 0.211284
vn 0.068460 0.172021 0.982712
vn -0.153924 0.802718 0.576152
vn -0.197031 0.960512 0.196455
vn -0.089521 0.550989 0.829697
vn -0.147995 0.807219 0.571397
vn -0.014744 0.171541 0.985067
vn -0.108684 0.555119 0.824640
vn -0.546885 0.806997 0.222875
vn -0.559614 0.801545 0.210615
vn -0.434202 0.688851 0.580477
vn -0.456779 0.685515 0.566941
vn -0.302745 0.461058 0.834129
vn -0.283242 0.464304 0.839164
vn -0.810120 0.540427 0.227254
vn -0.079996 0.144461 0.986272
vn -0.684660 0.435314 0.584588
vn -0.805040 0.553003 0.214706
vn -0.458855 0.294618 0.838243
vn -0.681836 0.457671 0.570645
vn -0.129099 0.094787 0.987091
vn -0.442141 0.305050 0.843478
vn -0.959512 0.188608 0.209196
vn -0.959252 0.171850 0.224285
vn -0.797799 0.154423 0.582813
vn -0.795892 0.147079 0.587303
vn -0.532692 0.113527 0.838660
vn -0.543926 0.097882 0.833405
vn -0.957369 -0.203866 0.204655
vn -0.155409 0.029249 0.987417
vn -0.957290 -0.187447 0.220137
vn -0.794112 -0.169372 0.583694
vn -0.795939 -0.176635 0.579035
vn -0.531214 -0.138835 0.835785
vn -0.542639 -0.123183 0.830885
vn -0.679559 -0.456389 0.574377
vn -0.154912 -0.053960 0.986453
vn -0.803965 -0.554609 0.214589
vn -0.676481 -0.478388 0.559927
vn -0.455248 -0.319089 0.831223
vn -0.798732 -0.566862 0.201727
vn -0.127829 -0.119164 0.984611
vn -0.438408 -0.329460 0.836215
# 144 normals

g pokeball
usemtl Material07
s 1
f 1/1/1 3/2/1 2/3/1
f 4/4/2 6/3/2 5/2/2
f 7/5/3 9/6/3 8/1/3
f 10/1/4 12/6/4 11/2/4
f 13/5/5 15/7/5 14/6/5
f 16/5/6 18/1/6 17/8/6
f 19/9/7 21/10/7 20/5/7
f 22/5/8 24/10/8 23/7/8
f 25/11/9 27/12/9 26/9/9
f 28/9/10 30/12/10 29/10/10
f 31/2/11 33/7/11 32/13/11
f 34/11/12 36/14/12 35/12/12
f 37/4/13 39/2/13 38/13/13
f 40/2/14 42/6/14 41/7/14
f 43/9/15 45/5/15 44/8/15
f 46/9/16 48/8/16 47/15/16
f 49/16/17 51/11/17 50/9/17
f 52/16/18 54/9/18 53/15/18
f 55/17/19 57/12/19 56/14/19
f 58/4/20 60/18/20 59/3/20
f 61/12/21 63/19/21 62/10/21
f 64/17/22 66/20/22 65/12/22
f 67/10/23 69/21/23 68/7/23
f 70/12/24 72/20/24 71/19/24
f 73/13/25 75/21/25 74/22/25
f 76/10/26 78/19/26 77/21/26
f 79/4/27 81/13/27 80/22/27
f 82/13/28 84/7/28 83/21/28
f 85/23/29 87/1/29 86/3/29
f 88/23/30 90/3/30 89/18/30
f 91/8/31 93/1/31 92/23/31
f 94/8/32 96/23/32 95/24/32
f 97/15/33 99/8/33 98/24/33
f 100/15/34 102/24/34 101/25/34
f 103/26/35 105/27/35 104/20/35
f 106/26/36 108/20/36 107/17/36
f 109/27/37 111/28/37 110/19/37
f 112/27/38 114/19/38 113/20/38
f 115/28/39 117/29/39 116/21/39
f 118/28/40 120/21/40 119/19/40
f 121/22/41 123/21/41 122/29/41
f 124/22/42 126/29/42 125/30/42
f 127/31/43 129/15/43 128/25/43
f 130/4/44 132/22/44 131/30/44
f 133/4/45 135/32/45 134/18/45
f 136/31/46 138/16/46 137/15/46
f 139/33/47 141/23/47 140/18/47
f 142/33/48 144/18/48 143/32/48
f 145/24/49 147/33/49 146/34/49
f 148/24/50 150/23/50 149/33/50
f 151/25/51 153/34/51 152/35/51
f 154/25/52 156/24/52 155/34/52
f 157/31/53 159/35/53 158/36/53
f 160/31/54 162/25/54 161/35/54
f 163/37/55 165/32/55 164/38/55
f 166/37/56 168/33/56 167/32/56
f 169/34/57 171/37/57 170/39/57
f 172/4/58 174/38/58 173/32/58
f 175/35/59 177/39/59 176/40/59
f 178/34/60 180/33/60 179/37/60
f 181/36/61 183/40/61 182/41/61
f 184/35/62 186/34/62 185/39/62
f 187/4/63 189/42/63 188/38/63
f 190/36/64 192/35/64 191/40/64
f 193/37/65 195/38/65 194/42/65
f 196/37/66 198/42/66 197/43/66
f 199/39/67 201/37/67 200/43/67
f 202/39/68 204/43/68 203/44/68
f 205/39/69 207/44/69 206/45/69
f 208/39/70 210/45/70 209/40/70
f 211/41/71 213/40/71 212/45/71
f 214/41/72 216/45/72 215/46/72
f 217/43/73 219/47/73 218/48/73
f 220/4/74 222/47/74 221/42/74
f 223/43/75 225/49/75 224/44/75
f 226/43/76 228/42/76 227/47/76
f 229/44/77 231/50/77 230/45/77
f 232/43/78 234/48/78 233/49/78
f 235/45/79 237/51/79 236/46/79
f 238/44/80 240/49/80 239/50/80
f 241/52/81 243/51/81 242/50/81
f 244/45/82 246/50/82 245/51/82
f 247/53/83 249/54/83 248/52/83
f 250/52/84 252/54/84 251/51/84
f 253/55/85 255/56/85 254/53/85
f 256/53/86 258/56/86 257/54/86
f 259/55/87 261/57/87 260/56/87
f 262/55/88 264/58/88 263/59/88
f 265/55/89 267/59/89 266/57/89
f 268/58/90 270/60/90 269/61/90
f 271/58/91 273/61/91 272/59/91
f 274/61/92 276/62/92 275/63/92
f 277/61/93 279/60/93 278/62/93
f 280/63/94 282/27/94 281/26/94
f 283/63/95 285/62/95 284/27/95
f 286/62/96 288/64/96 287/28/96
f 289/62/97 291/28/97 290/27/97
f 292/64/98 294/65/98 293/29/98
f 295/64/99 297/29/99 296/28/99
f 298/66/100 300/30/100 299/29/100
f 301/66/101 303/29/101 302/65/101
f 304/67/102 306/62/102 305/60/102
f 307/4/103 309/30/103 308/66/103
f 310/67/104 312/65/104 311/64/104
f 313/67/105 315/64/105 314/62/105
f 316/68/106 318/65/106 317/69/106
f 319/67/107 321/69/107 320/65/107
f 322/4/108 324/66/108 323/68/108
f 325/68/109 327/66/109 326/65/109
f 328/70/110 330/67/110 329/60/110
f 331/70/111 333/60/111 332/58/111
f 334/71/112 336/69/112 335/67/112
f 337/71/113 339/67/113 338/70/113
f 340/72/114 342/68/114 341/69/114
f 343/72/115 345/69/115 344/71/115
f 346/70/116 348/55/116 347/73/116
f 349/4/117 351/68/117 350/72/117
f 352/71/118 354/73/118 353/74/118
f 355/70/119 357/58/119 356/55/119
f 358/75/120 360/71/120 359/74/120
f 361/71/121 363/70/121 362/73/121
f 364/4/122 366/72/122 365/75/122
f 367/75/123 369/72/123 368/71/123
f 370/73/124 372/53/124 371/76/124
f 373/73/125 375/55/125 374/53/125
f 376/74/126 378/73/126 377/76/126
f 379/74/127 381/76/127 380/77/127
f 382/78/128 384/75/128 383/74/128
f 385/78/129 387/74/129 386/77/129
f 388/79/130 390/76/130 389/53/130
f 391/4/131 393/75/131 392/78/131
f 394/79/132 396/53/132 395/52/132
f 397/80/133 399/77/133 398/76/133
f 400/80/134 402/76/134 401/79/134
f 403/80/135 405/81/135 404/78/135
f 406/80/136 408/78/136 407/77/136
f 409/48/137 411/80/137 410/79/137
f 412/4/138 414/78/138 413/81/138
f 415/49/139 417/79/139 416/52/139
f 418/48/140 420/79/140 419/49/140
f 421/48/141 423/81/141 422/80/141
f 424/49/142 426/52/142 425/50/142
f 427/4/143 429/81/143 428/47/143
f 430/48/144 432/47/144 431/81/144
# 144 triangles in group

# 144 triangles total

