# 3ds Max Wavefront OBJ Exporter v0.97b - (c)2007 guruware
# File Created: 27.04.2019 19:19:55

mtllib kirbydk.mtl

#
# object legr_0_0_023
#

v  -0.0751 0.0108 -0.0896
v  -0.1153 0.0539 -0.0306
v  -0.0727 0.0525 -0.0786
v  -0.0401 0.0314 -0.0981
v  -0.0572 0.0872 -0.0073
v  -0.0141 0.0503 -0.0658
v  -0.1138 0.0100 -0.0366
v  -0.0906 -0.0042 -0.0415
v  -0.0131 0.0115 -0.0783
v  -0.1075 0.0416 0.0821
v  -0.1304 0.0206 0.0315
v  -0.0024 0.0499 0.0023
v  -0.0195 -0.0030 -0.0261
v  -0.1068 -0.0040 0.0527
v  -0.0589 0.0407 0.0907
v  -0.0046 0.0071 0.0046
v  -0.1122 0.0200 0.0912
v  -0.0169 0.0165 0.0540
v  -0.0439 -0.0027 0.0672
v  -0.0882 0.0015 0.0833
v  -0.0621 0.0181 0.1011
# 21 vertices

vn -0.7269 0.2144 -0.6524
vn -0.3695 0.2572 -0.8929
vn -0.3582 0.8677 -0.3447
vn 0.1582 0.7913 -0.5907
vn -0.8071 0.0517 -0.5882
vn 0.1322 0.8796 -0.4570
vn -0.5385 -0.7395 -0.4039
vn 0.6829 0.2398 -0.6900
vn -0.5307 0.8377 0.1286
vn -0.9715 -0.0023 -0.2370
vn 0.9826 0.0799 -0.1677
vn 0.0581 -0.9641 -0.2591
vn -0.8024 0.5847 0.1198
vn 0.0757 -0.9589 -0.2734
vn -0.6938 -0.7178 -0.0580
vn -0.5339 -0.8408 -0.0897
vn 0.4725 0.7932 0.3842
vn 0.9930 -0.0556 -0.1043
vn 0.0162 -0.9999 0.0048
vn 0.7010 -0.7049 -0.1086
vn -0.9075 0.3129 0.2802
vn -0.0596 0.9024 0.4267
vn 0.9680 -0.0347 0.2486
vn -0.7941 -0.5597 0.2369
vn 0.3962 -0.9120 0.1065
vn 0.7183 0.4752 0.5081
vn -0.4627 -0.7803 0.4207
vn 0.0191 -0.9998 0.0081
vn -0.1500 0.4306 0.8900
vn -0.1630 0.4111 0.8969
vn -0.0235 -0.9814 0.1907
vn 0.6465 -0.7030 0.2962
vn 0.7092 0.2084 0.6735
vn -0.1805 -0.5744 0.7984
vn 0.1291 -0.8132 0.5675
vn 0.6335 -0.4593 0.6227
vn 0.1518 -0.5873 -0.7950
vn 0.5709 0.8157 -0.0932
# 38 vertex normals

g legr_0_0_023
usemtl Material__894
s 1
f 1//1 2//1 3//1 
f 4//2 1//2 3//2 
f 2//3 5//3 3//3 
f 4//4 3//4 6//4 
f 2//5 1//5 7//5 
f 6//6 3//6 5//6 
f 1//7 8//7 7//7 
f 6//8 9//8 4//8 
f 5//9 2//9 10//9 
f 2//10 7//10 11//10 
f 12//11 9//11 6//11 
f 1//12 9//12 13//12 
f 2//13 11//13 10//13 
f 1//14 13//14 8//14 
f 7//15 14//15 11//15 
f 14//16 7//16 8//16 
f 12//17 5//17 15//17 
f 9//18 12//18 16//18 
f 13//19 14//19 8//19 
f 13//20 9//20 16//20 
f 10//21 11//21 17//21 
f 10//22 15//22 5//22 
f 16//23 12//23 18//23 
f 11//24 14//24 17//24 
f 16//25 19//25 13//25 
f 15//26 18//26 12//26 
f 20//27 17//27 14//27 
f 13//28 19//28 14//28 
f 10//29 21//29 15//29 
f 10//30 17//30 21//30 
f 20//31 14//31 19//31 
f 19//32 16//32 18//32 
f 18//33 15//33 21//33 
f 17//34 20//34 21//34 
f 19//35 21//35 20//35 
f 21//36 19//36 18//36 
f 9//37 1//37 4//37 
f 12//38 6//38 5//38 
# 0 polygons - 38 triangles

#
# object legl_0_0_022
#

v  0.0140 0.0106 -0.0787
v  0.0140 0.0493 -0.0659
v  0.0406 0.0314 -0.0984
v  0.0022 0.0480 0.0021
v  0.0725 0.0532 -0.0786
v  0.0560 0.0868 -0.0069
v  0.0761 0.0117 -0.0900
v  0.0588 0.0395 0.0906
v  0.0056 0.0052 0.0041
v  0.0175 0.0145 0.0535
v  0.0208 -0.0042 -0.0267
v  0.0920 -0.0033 -0.0420
v  0.1150 0.0554 -0.0304
v  0.1079 -0.0035 0.0522
v  0.0450 -0.0041 0.0667
v  0.1147 0.0115 -0.0369
v  0.1074 0.0418 0.0821
v  0.0892 0.0012 0.0829
v  0.1309 0.0219 0.0313
v  0.1126 0.0202 0.0910
v  0.0626 0.0168 0.1008
# 21 vertices

vn -0.6881 0.2275 -0.6891
vn -0.9841 0.0543 -0.1690
vn -0.1558 0.8800 -0.4487
vn -0.5932 0.8004 -0.0865
vn -0.1340 -0.5835 -0.8010
vn -0.4950 0.7760 0.3909
vn -0.9909 -0.0820 -0.1069
vn -0.1791 0.7922 -0.5833
vn -0.9671 -0.0639 0.2462
vn -0.6809 -0.7230 -0.1169
vn -0.0308 -0.9628 -0.2685
vn 0.3639 0.2759 -0.8896
vn -0.0485 -0.9579 -0.2829
vn 0.3346 0.8806 -0.3356
vn 0.0087 -1.0000 -0.0016
vn 0.0116 -0.9999 -0.0049
vn 0.8064 0.0798 -0.5859
vn 0.5070 0.8509 0.1378
vn 0.0505 -0.9821 0.1813
vn 0.7856 0.6055 0.1271
vn 0.7219 0.2407 -0.6488
vn 0.4835 -0.7712 0.4141
vn 0.5572 -0.8247 -0.0967
vn 0.9716 0.0269 -0.2350
vn -0.7160 0.1822 0.6740
vn 0.7136 -0.6977 -0.0634
vn -0.7322 0.4502 0.5112
vn -0.6273 -0.7235 0.2881
vn 0.0337 0.8995 0.4356
vn -0.3709 -0.9236 0.0968
vn 0.5596 -0.7203 -0.4099
vn -0.6216 -0.4827 0.6169
vn -0.1075 -0.8219 0.5593
vn 0.1363 0.4260 0.8944
vn 0.1950 -0.5769 0.7932
vn 0.1499 0.4067 0.9012
vn 0.8089 -0.5397 0.2332
vn 0.8980 0.3352 0.2851
# 38 vertex normals

g legl_0_0_022
usemtl Material__893
s 1
f 22//39 23//39 24//39 
f 22//40 25//40 23//40 
f 26//41 23//41 27//41 
f 23//42 25//42 27//42 
f 28//43 22//43 24//43 
f 27//44 25//44 29//44 
f 25//45 22//45 30//45 
f 26//46 24//46 23//46 
f 25//47 30//47 31//47 
f 22//48 32//48 30//48 
f 22//49 28//49 32//49 
f 28//50 24//50 26//50 
f 32//51 28//51 33//51 
f 27//52 34//52 26//52 
f 32//53 35//53 36//53 
f 32//54 33//54 35//54 
f 28//55 34//55 37//55 
f 34//56 27//56 38//56 
f 35//57 39//57 36//57 
f 40//58 34//58 38//58 
f 34//59 28//59 26//59 
f 41//60 39//60 35//60 
f 37//61 35//61 33//61 
f 37//62 34//62 40//62 
f 29//63 31//63 42//63 
f 35//64 37//64 40//64 
f 31//65 29//65 25//65 
f 30//66 36//66 31//66 
f 29//67 38//67 27//67 
f 36//68 30//68 32//68 
f 33//69 28//69 37//69 
f 36//70 42//70 31//70 
f 42//71 36//71 39//71 
f 42//72 38//72 29//72 
f 39//73 41//73 42//73 
f 42//74 41//74 38//74 
f 35//75 40//75 41//75 
f 40//76 38//76 41//76 
# 0 polygons - 38 triangles

#
# object armr_0_0_021
#

v  -0.0977 0.1510 -0.0001
v  -0.1245 0.1658 -0.0463
v  -0.0951 0.1502 -0.0001
v  -0.1244 0.1657 0.0462
v  -0.1581 0.1673 0.0308
v  -0.1417 0.1012 0.0262
v  -0.1152 0.0955 -0.0001
v  -0.1418 0.1013 -0.0264
v  -0.1447 0.0833 -0.0001
v  -0.1582 0.1673 -0.0308
v  -0.1768 0.1672 0.0000
v  -0.1675 0.1021 -0.0000
# 12 vertices

vn -0.2822 -0.9490 -0.1403
vn -0.2819 -0.9493 0.1392
vn -0.4157 -0.1655 0.8943
vn 0.8010 -0.2529 0.5427
vn 0.7997 -0.2519 -0.5451
vn 0.6097 -0.3792 0.6961
vn 0.6080 -0.3778 -0.6982
vn 0.3300 -0.7977 0.5047
vn -0.4179 -0.1637 -0.8936
vn -0.7118 -0.1027 0.6948
vn -0.5458 -0.6634 0.5119
vn 0.3288 -0.7968 -0.5070
vn -0.7135 -0.1013 -0.6933
vn -0.8306 -0.2397 -0.5026
vn -0.8294 -0.2407 0.5042
vn -0.5470 -0.6624 -0.5119
# 16 vertex normals

g armr_0_0_021
usemtl Material__898
s 1
f 43//77 44//77 45//77 
f 46//78 43//78 45//78 
f 47//79 48//79 46//79 
f 43//80 46//80 49//80 
f 44//81 43//81 49//81 
f 49//82 46//82 48//82 
f 44//83 49//83 50//83 
f 49//84 48//84 51//84 
f 50//85 52//85 44//85 
f 48//86 53//86 54//86 
f 48//87 54//87 51//87 
f 50//88 49//88 51//88 
f 53//89 50//89 54//89 
f 50//90 53//90 52//90 
f 53//91 48//91 47//91 
f 54//92 50//92 51//92 
# 0 polygons - 16 triangles

#
# object armr_0_0_020
#

v  -0.1244 0.1657 0.0462
v  -0.0759 0.2057 0.0226
v  -0.1061 0.2115 0.0317
v  -0.1581 0.1673 0.0308
v  -0.0760 0.2057 -0.0227
v  -0.1047 0.2336 0.0000
v  -0.1312 0.2223 0.0136
v  -0.1062 0.2115 -0.0317
v  -0.1312 0.2224 -0.0136
v  -0.1768 0.1672 0.0000
v  -0.1582 0.1673 -0.0308
v  -0.1245 0.1658 -0.0463
v  -0.0951 0.1502 -0.0001
# 13 vertices

vn 0.3138 0.1703 0.9341
vn -0.3630 0.4096 0.8369
vn 0.6956 0.7184 -0.0001
vn 0.3136 0.7722 0.5525
vn -0.3909 0.4431 0.8068
vn 0.3123 0.7733 -0.5518
vn -0.0565 0.8215 -0.5674
vn -0.3898 0.9209 0.0013
vn -0.7396 0.5017 0.4486
vn -0.7704 0.6375 0.0015
vn -0.3649 0.4112 -0.8353
vn -0.3928 0.4446 -0.8050
vn 0.6662 -0.4667 -0.5818
vn -0.7407 0.5026 -0.4459
vn 0.6675 -0.4678 0.5793
vn 0.9452 -0.3264 -0.0014
vn -0.0552 0.8204 0.5691
vn 0.3115 0.1721 -0.9345
# 18 vertex normals

g armr_0_0_020
usemtl Material__897
s 1
f 55//93 56//93 57//93 
f 57//94 58//94 55//94 
f 59//95 60//95 56//95 
f 60//96 57//96 56//96 
f 61//97 58//97 57//97 
f 62//98 60//98 59//98 
f 60//99 62//99 63//99 
f 60//100 63//100 61//100 
f 58//101 61//101 64//101 
f 63//102 64//102 61//102 
f 65//103 62//103 66//103 
f 62//104 65//104 63//104 
f 67//105 66//105 59//105 
f 65//106 64//106 63//106 
f 55//107 67//107 56//107 
f 56//108 67//108 59//108 
f 57//109 60//109 61//109 
f 59//110 66//110 62//110 
# 0 polygons - 18 triangles

#
# object arml_0_0_019
#

v  0.0972 0.1506 0.0000
v  0.1240 0.1652 -0.0462
v  0.1151 0.0952 0.0000
v  0.0947 0.1495 0.0000
v  0.1582 0.1662 -0.0308
v  0.1417 0.1007 -0.0263
v  0.1240 0.1652 0.0462
v  0.1445 0.0828 0.0000
v  0.1776 0.1668 0.0000
v  0.1674 0.1014 0.0000
v  0.1417 0.1007 0.0263
v  0.1582 0.1662 0.0308
# 12 vertices

vn -0.7980 -0.2585 -0.5443
vn 0.3909 -0.9182 -0.0635
vn 0.4089 -0.1649 -0.8975
vn 0.3909 -0.9182 0.0635
vn -0.7980 -0.2585 0.5443
vn -0.6084 -0.3822 -0.6955
vn -0.3355 -0.7947 -0.5059
vn 0.8234 -0.2425 -0.5130
vn 0.7117 -0.1101 -0.6938
vn -0.6084 -0.3822 0.6955
vn -0.3355 -0.7947 0.5059
vn 0.4089 -0.1649 0.8975
vn 0.7117 -0.1101 0.6938
vn 0.5413 -0.6671 -0.5119
vn 0.8234 -0.2425 0.5130
vn 0.5413 -0.6671 0.5119
# 16 vertex normals

g arml_0_0_019
usemtl Material__896
s 1
f 68//111 69//111 70//111 
f 69//112 68//112 71//112 
f 72//113 73//113 69//113 
f 68//114 74//114 71//114 
f 74//115 68//115 70//115 
f 70//116 69//116 73//116 
f 70//117 73//117 75//117 
f 76//118 73//118 72//118 
f 73//119 76//119 77//119 
f 74//120 70//120 78//120 
f 78//121 70//121 75//121 
f 78//122 79//122 74//122 
f 76//123 78//123 77//123 
f 73//124 77//124 75//124 
f 78//125 76//125 79//125 
f 77//126 78//126 75//126 
# 0 polygons - 16 triangles

#
# object arml_0_0_018
#

v  0.1240 0.1652 -0.0462
v  0.0760 0.2055 -0.0227
v  0.1069 0.2120 -0.0317
v  0.0947 0.1495 0.0000
v  0.0754 0.2062 0.0227
v  0.1046 0.2335 0.0000
v  0.1311 0.2224 -0.0136
v  0.1062 0.2114 0.0317
v  0.1582 0.1662 -0.0308
v  0.1240 0.1652 0.0462
v  0.1311 0.2224 0.0136
v  0.1776 0.1668 0.0000
v  0.1582 0.1662 0.0308
# 13 vertices

vn -0.3107 0.1759 -0.9341
vn -0.6714 -0.4597 -0.5812
vn -0.9475 -0.3196 -0.0070
vn -0.3224 0.7728 -0.5467
vn 0.0611 0.8285 -0.5566
vn -0.6907 0.7229 -0.0199
vn -0.2951 0.7775 0.5554
vn 0.3676 0.3950 -0.8420
vn -0.6709 -0.4606 0.5812
vn 0.4083 0.4414 -0.7990
vn 0.0521 0.8212 0.5682
vn 0.3855 0.9227 0.0000
vn 0.7310 0.4957 -0.4690
vn 0.7676 0.6410 0.0000
vn 0.3658 0.4037 0.8386
vn 0.3948 0.4376 0.8079
vn -0.3053 0.1760 0.9359
vn 0.7310 0.4957 0.4690
# 18 vertex normals

g arml_0_0_018
usemtl Material__895
s 1
f 80//127 81//127 82//127 
f 80//128 83//128 81//128 
f 83//129 84//129 81//129 
f 85//130 82//130 81//130 
f 82//131 85//131 86//131 
f 84//132 85//132 81//132 
f 87//133 85//133 84//133 
f 82//134 88//134 80//134 
f 83//135 89//135 84//135 
f 88//136 82//136 86//136 
f 85//137 87//137 90//137 
f 86//138 85//138 90//138 
f 91//139 88//139 86//139 
f 91//140 86//140 90//140 
f 92//141 87//141 89//141 
f 92//142 90//142 87//142 
f 84//143 89//143 87//143 
f 90//144 92//144 91//144 
# 0 polygons - 18 triangles

#
# object body_6D154E5_0_009
#

v  0.0000 0.3099 -0.0571
v  0.0190 0.2900 -0.0326
v  0.0000 0.2764 -0.0707
v  -0.0190 0.2900 -0.0326
v  0.0000 0.3045 -0.0163
# 5 vertices

vn 0.8458 0.2005 -0.4945
vn -0.8458 0.2005 -0.4945
vn 0.6557 0.7484 0.0998
vn -0.6557 0.7484 0.0998
# 4 vertex normals

vt 0.5000 0.2500 0.0000
vt 1.0000 0.6992 0.0000
vt 0.5000 0.0000 0.0000
vt 0.0000 0.6992 0.0000
vt 0.5000 1.0000 0.0000
# 5 texture coords

g body_6D154E5_0_009
usemtl Material__891
s 1
f 93/1/145 94/2/145 95/3/145 
f 96/4/146 93/1/146 95/3/146 
f 94/2/147 93/1/147 97/5/147 
f 93/1/148 96/4/148 97/5/148 
# 0 polygons - 4 triangles

#
# object body_6D154E5_0_008
#

v  0.1278 0.0816 0.0000
v  0.0707 0.0299 0.0000
v  0.0498 0.0299 -0.0498
v  0.0000 0.0109 0.0000
v  0.0897 0.0816 -0.0870
v  0.1423 0.1532 0.0000
v  0.1006 0.1532 -0.1006
v  0.1233 0.2238 0.0000
v  0.0498 0.2764 -0.0498
v  0.0870 0.2238 -0.0870
v  0.0000 0.0299 -0.0707
v  0.0707 0.2764 0.0000
v  0.0000 0.1532 -0.1423
v  0.0000 0.0816 -0.1232
v  0.0000 0.2238 -0.1232
v  0.0000 0.2764 -0.0707
v  -0.0897 0.0816 -0.0870
v  -0.0498 0.0299 -0.0498
v  -0.1006 0.1532 -0.1006
v  -0.0870 0.2238 -0.0870
v  -0.0707 0.0299 0.0000
v  -0.0498 0.2764 -0.0498
v  -0.1278 0.0816 0.0000
v  -0.1423 0.1532 0.0000
v  -0.1232 0.2238 0.0000
v  -0.0707 0.2764 0.0000
v  0.0335 0.2855 -0.0326
v  0.0498 0.2882 0.0000
v  -0.0471 0.2909 0.0000
v  -0.0335 0.2882 -0.0326
v  0.0000 0.2855 -0.0462
v  0.0027 0.3127 -0.0091
v  0.0281 0.3127 -0.0091
v  0.0290 0.3154 0.0208
v  0.0471 0.3027 0.0127
v  0.0136 0.3163 0.0272
v  0.0236 0.3190 0.0508
v  -0.0118 0.3099 0.0082
v  0.0344 0.3163 0.0517
v  0.0082 0.3009 0.0870
v  0.0136 0.3190 0.0489
v  0.0281 0.3036 0.0752
v  0.0444 0.3054 0.0553
v  0.0408 0.2828 0.0417
v  -0.0072 0.3072 0.0245
# 45 vertices

vn 0.6460 -0.7140 -0.2701
vn 0.2585 -0.9600 -0.1081
vn 0.9008 -0.1824 -0.3941
vn 0.6493 -0.7055 -0.2841
vn 0.8965 0.2414 -0.3715
vn 0.9035 -0.2083 -0.3744
vn 0.6778 0.6788 -0.2824
vn 0.8952 0.2439 -0.3730
vn 0.2781 -0.6931 -0.6651
vn 0.6781 0.6781 -0.2836
vn 0.3637 -0.2393 -0.9002
vn 0.2725 -0.6862 -0.6744
vn 0.3715 0.2414 -0.8965
vn 0.3728 -0.2274 -0.8996
vn 0.2826 0.6783 -0.6783
vn 0.3730 0.2439 -0.8952
vn -0.2725 -0.6862 -0.6744
vn 0.2832 0.6790 -0.6773
vn -0.1081 -0.9600 -0.2585
vn -0.2781 -0.6931 -0.6651
vn -0.3728 -0.2274 -0.8996
vn 0.1081 -0.9600 -0.2585
vn -0.3713 0.2437 -0.8960
vn -0.3637 -0.2393 -0.9002
vn -0.2826 0.6783 -0.6783
vn -0.3733 0.2412 -0.8958
vn -0.2585 -0.9600 -0.1081
vn -0.2832 0.6790 -0.6773
vn -0.6460 -0.7140 -0.2701
vn -0.6493 -0.7055 -0.2841
vn -0.9081 -0.1839 -0.3763
vn -0.8956 -0.2104 -0.3918
vn -0.8958 0.2412 -0.3733
vn -0.8960 0.2437 -0.3713
vn -0.6781 0.6781 -0.2836
vn -0.6778 0.6788 -0.2824
vn 0.4688 0.8295 -0.3035
vn 0.3556 0.9227 -0.1487
vn -0.5034 0.8181 -0.2779
vn -0.4403 0.8788 -0.1841
vn -0.1233 0.8696 -0.4781
vn -0.1437 0.9280 -0.3437
vn 0.1426 0.9251 -0.3518
vn 0.1437 0.9280 -0.3437
vn -0.1678 0.8014 -0.5741
vn 0.2823 0.6599 -0.6963
vn 0.5428 0.8348 -0.0923
vn 0.0000 0.9959 -0.0905
vn 0.0156 0.9944 -0.1041
vn 0.7530 0.5076 -0.4188
vn 0.0096 0.9929 -0.1186
vn -0.2202 0.9750 -0.0315
vn 0.1711 0.8502 0.4978
vn 0.2476 0.9662 -0.0721
vn -0.0763 0.9044 0.4198
vn 0.1826 0.8443 0.5038
vn 0.9510 -0.2561 0.1733
vn 0.7365 0.6764 0.0038
vn -0.3835 0.9164 -0.1146
vn 0.0225 0.9920 -0.1240
vn -0.4149 0.8760 -0.2459
vn -0.4369 0.8694 -0.2307
vn -0.4133 0.8726 0.2602
vn -0.5043 0.8181 0.2764
vn 0.5330 0.8377 -0.1187
vn 0.0000 0.8070 -0.5905
vn 0.7485 0.5134 -0.4197
vn 0.9890 0.1379 0.0543
vn 0.5448 0.6683 0.5065
# 69 vertex normals

vt -0.0020 0.4609 0.0000
vt -0.0039 0.1230 0.0000
vt 0.4961 0.1230 0.0000
vt -1.0000 0.0000 0.0000
vt 0.4863 0.4609 0.0000
vt -0.0020 0.9219 0.0000
vt 0.4980 0.9219 0.0000
vt -0.0020 1.3848 0.0000
vt 0.4961 1.7227 0.0000
vt 0.4961 1.3848 0.0000
vt 1.0000 0.1230 0.0000
vt -0.0039 1.7227 0.0000
vt 1.0000 0.9219 0.0000
vt 1.0000 0.4609 0.0000
vt 1.0000 1.3848 0.0000
vt 1.0000 1.7227 0.0000
vt 1.5117 0.4609 0.0000
vt 3.0000 0.0000 0.0000
vt 1.5020 0.1230 0.0000
vt 1.5000 0.9219 0.0000
vt 4.4961 0.1230 0.0000
vt 1.5020 1.3848 0.0000
vt 2.0039 0.1230 0.0000
vt 1.5020 1.7227 0.0000
vt 2.0020 0.4609 0.0000
vt 2.0020 0.9219 0.0000
vt 2.0020 1.3848 0.0000
vt 2.0039 1.7227 0.0000
vt 0.4883 1.7832 0.0000
vt -0.0059 1.8008 0.0000
vt 2.0059 1.8203 0.0000
vt 1.5098 1.8008 0.0000
vt 1.0000 1.7832 0.0000
vt 0.8008 1.9590 0.0000
vt 0.1914 1.9590 0.0000
vt -0.4063 1.9766 0.0000
vt -0.1699 1.8945 0.0000
vt -0.7090 1.9863 0.0000
vt -0.7227 1.9980 0.0000
vt -1.5879 1.9414 0.0000
vt -0.6309 1.9863 0.0000
vt -0.9395 1.8828 0.0000
vt -0.8262 2.0000 0.0000
vt -0.7695 1.8984 0.0000
vt -0.5723 1.9102 0.0000
vt -0.5078 1.7656 0.0000
vt -1.1699 1.9238 0.0000
vt 2.4102 1.9414 0.0000
vt 2.8281 1.9238 0.0000
vt 3.2891 1.9863 0.0000
# 50 texture coords

g body_6D154E5_0_008
usemtl Material__890
s 1
f 98/6/149 99/7/149 100/8/149 
f 101/9/150 100/8/150 99/7/150 
f 102/10/151 103/11/151 98/6/151 
f 98/6/152 100/8/152 102/10/152 
f 104/12/153 105/13/153 103/11/153 
f 102/10/154 104/12/154 103/11/154 
f 106/14/155 105/13/155 107/15/155 
f 104/12/156 107/15/156 105/13/156 
f 102/10/157 100/8/157 108/16/157 
f 106/14/158 109/17/158 105/13/158 
f 110/18/159 102/10/159 111/19/159 
f 102/10/160 108/16/160 111/19/160 
f 112/20/161 104/12/161 110/18/161 
f 110/18/162 104/12/162 102/10/162 
f 113/21/163 107/15/163 112/20/163 
f 112/20/164 107/15/164 104/12/164 
f 108/16/165 114/22/165 111/19/165 
f 113/21/166 106/14/166 107/15/166 
f 101/23/167 115/24/167 108/16/167 
f 108/16/168 115/24/168 114/22/168 
f 110/18/169 114/22/169 116/25/169 
f 101/23/170 108/16/170 100/26/170 
f 117/27/171 110/18/171 116/25/171 
f 110/18/172 111/19/172 114/22/172 
f 117/27/173 113/21/173 112/20/173 
f 117/27/174 112/20/174 110/18/174 
f 101/23/175 118/28/175 115/24/175 
f 117/27/176 119/29/176 113/21/176 
f 115/24/177 118/28/177 120/30/177 
f 115/24/178 120/30/178 114/22/178 
f 120/30/179 121/31/179 116/25/179 
f 120/30/180 116/25/180 114/22/180 
f 121/31/181 122/32/181 117/27/181 
f 121/31/182 117/27/182 116/25/182 
f 122/32/183 123/33/183 119/29/183 
f 122/32/184 119/29/184 117/27/184 
f 124/34/185 125/35/185 109/17/185 
f 124/34/186 109/17/186 106/14/186 
f 123/33/187 126/36/187 127/37/187 
f 123/33/188 127/37/188 119/29/188 
f 119/29/189 127/37/189 128/38/189 
f 119/29/190 128/38/190 113/21/190 
f 128/38/191 124/34/191 106/14/191 
f 128/38/192 106/14/192 113/21/192 
f 127/37/193 129/39/193 128/38/193 
f 128/38/194 130/40/194 124/34/194 
f 130/40/195 131/41/195 132/42/195 
f 131/41/196 130/40/196 129/39/196 
f 129/39/197 133/43/197 131/41/197 
f 124/34/198 132/42/198 125/35/198 
f 134/44/199 131/41/199 133/43/199 
f 133/43/200 129/39/200 135/45/200 
f 136/46/201 134/44/201 137/47/201 
f 131/41/202 134/44/202 136/46/202 
f 134/44/203 138/48/203 137/47/203 
f 139/49/204 136/46/204 137/47/204 
f 125/35/205 140/50/205 141/51/205 
f 140/50/206 132/42/206 136/46/206 
f 138/48/207 133/43/207 142/52/207 
f 133/43/208 138/48/208 134/44/208 
f 126/36/209 135/53/209 127/37/209 
f 129/39/210 127/37/210 135/53/210 
f 142/54/211 133/55/211 135/53/211 
f 135/53/212 126/36/212 142/54/212 
f 136/46/213 132/42/213 131/41/213 
f 130/40/214 128/38/214 129/39/214 
f 132/42/215 124/34/215 130/40/215 
f 132/42/216 140/50/216 125/35/216 
f 136/46/217 139/49/217 140/50/217 
# 0 polygons - 69 triangles

#
# object body_7035DDFB_0_005
#

v  0.0000 0.0109 0.0000
v  -0.0498 0.0299 0.0498
v  -0.0707 0.0299 0.0000
v  -0.1278 0.0816 0.0000
v  0.0000 0.0299 0.0707
v  -0.0897 0.0816 0.0870
v  -0.1006 0.1532 0.1006
v  -0.1423 0.1532 0.0000
v  0.0498 0.0299 0.0498
v  -0.1232 0.2238 0.0000
v  0.0707 0.0299 0.0000
v  -0.0870 0.2238 0.0870
v  0.0000 0.0816 0.1233
v  0.0897 0.0816 0.0870
v  -0.0707 0.2764 0.0000
v  0.0000 0.1532 0.1414
v  0.1278 0.0816 0.0000
v  0.1006 0.1532 0.1006
v  0.1423 0.1532 0.0000
v  0.0870 0.2238 0.0870
v  0.1233 0.2238 0.0000
v  0.0000 0.2238 0.1178
v  0.0000 0.2764 0.0707
v  -0.0498 0.2764 0.0498
v  -0.0335 0.2882 0.0326
v  -0.0471 0.2909 0.0000
v  0.0000 0.2882 0.0544
v  -0.0072 0.3072 0.0245
v  0.0054 0.3054 0.0462
v  0.0073 0.2918 0.0634
v  0.0498 0.2764 0.0498
v  0.0408 0.2828 0.0417
v  0.0498 0.2882 0.0000
v  0.0707 0.2764 0.0000
v  0.0136 0.3190 0.0489
v  0.0082 0.3009 0.0870
v  0.0281 0.3036 0.0752
v  0.0444 0.3054 0.0553
# 38 vertices

vn -0.2585 -0.9600 0.1081
vn -0.6460 -0.7140 0.2701
vn -0.1081 -0.9600 0.2585
vn -0.6493 -0.7055 0.2841
vn -0.9081 -0.1839 0.3763
vn -0.8956 -0.2104 0.3918
vn 0.1081 -0.9600 0.2585
vn -0.2781 -0.6931 0.6651
vn -0.8965 0.2414 0.3715
vn 0.2585 -0.9600 0.1081
vn -0.8952 0.2439 0.3730
vn -0.2725 -0.6862 0.6744
vn 0.2781 -0.6931 0.6651
vn 0.6557 -0.7034 0.2742
vn -0.6783 0.6783 0.2826
vn -0.3659 -0.2270 0.9026
vn -0.3644 0.2430 0.8990
vn 0.6438 -0.7115 0.2816
vn 0.9081 -0.1839 0.3763
vn 0.8956 -0.2104 0.3918
vn 0.8960 0.2437 0.3713
vn 0.3659 -0.2270 0.9026
vn 0.8958 0.2412 0.3733
vn 0.3185 0.2998 0.8993
vn -0.2832 0.6790 0.6773
vn 0.2550 0.6455 0.7200
vn -0.3916 0.8890 0.2373
vn -0.5119 0.8319 0.2141
vn -0.2454 0.8926 0.3783
vn -0.5051 0.8169 0.2785
vn -0.4775 0.8077 0.3459
vn -0.2378 0.7874 0.5687
vn -0.7757 0.4531 0.4393
vn -0.4729 0.4947 0.7291
vn 0.2449 0.8782 0.4109
vn 0.2378 0.7874 0.5687
vn 0.4820 0.8527 0.2015
vn 0.4285 0.8793 0.2078
vn 0.6783 0.6783 0.2826
vn 0.6773 0.6790 0.2832
vn 0.3644 0.2430 0.8990
vn 0.2832 0.6790 0.6773
vn 0.3647 -0.2285 0.9026
vn -0.3647 -0.2285 0.9026
vn -0.3185 0.2998 0.8993
vn 0.2725 -0.6862 0.6744
vn -0.6773 0.6790 0.2832
vn -0.2550 0.6455 0.7200
vn -0.8618 0.4946 0.1124
vn -0.9966 -0.0567 0.0601
vn -0.0066 -0.9266 0.3759
vn -0.7871 0.3742 0.4903
vn 0.4401 -0.6784 0.5883
vn -0.0189 -0.9329 0.3595
vn 0.7140 -0.4407 0.5441
# 55 vertex normals

vt 0.5000 0.0000 0.0000
vt 0.2510 0.0615 0.0000
vt 0.0020 0.0615 0.0000
vt 0.0010 0.2305 0.0000
vt 0.5000 0.0615 0.0000
vt 0.2451 0.2305 0.0000
vt 0.2500 0.4609 0.0000
vt 0.0010 0.4609 0.0000
vt 0.7480 0.0615 0.0000
vt 0.0010 0.6924 0.0000
vt 0.9971 0.0615 0.0000
vt 0.2510 0.6924 0.0000
vt 0.5000 0.2305 0.0000
vt 0.7539 0.2305 0.0000
vt 0.0020 0.8613 0.0000
vt 0.5000 0.4609 0.0000
vt 0.9980 0.2305 0.0000
vt 0.7490 0.4609 0.0000
vt 0.9980 0.4609 0.0000
vt 0.7480 0.6924 0.0000
vt 0.9980 0.6924 0.0000
vt 0.5000 0.6924 0.0000
vt 0.5000 0.8613 0.0000
vt 0.2510 0.8613 0.0000
vt 0.2500 0.9004 0.0000
vt 0.0029 0.9102 0.0000
vt 0.5000 0.9004 0.0000
vt 0.4141 0.9619 0.0000
vt 0.5361 0.9580 0.0000
vt 0.5342 0.9111 0.0000
vt 0.7480 0.8613 0.0000
vt 0.7451 0.8828 0.0000
vt 0.9961 0.9004 0.0000
vt 0.9971 0.8613 0.0000
vt 0.5859 1.0000 0.0000
vt 0.5293 0.9414 0.0000
vt 0.6143 0.9492 0.0000
vt 0.7129 0.9551 0.0000
# 38 texture coords

g body_7035DDFB_0_005
usemtl Material__889
s 1
f 143/56/218 144/57/218 145/58/218 
f 144/57/219 146/59/219 145/58/219 
f 143/56/220 147/60/220 144/57/220 
f 144/57/221 148/61/221 146/59/221 
f 146/59/222 149/62/222 150/63/222 
f 149/62/223 146/59/223 148/61/223 
f 143/56/224 151/64/224 147/60/224 
f 147/60/225 148/61/225 144/57/225 
f 149/62/226 152/65/226 150/63/226 
f 143/56/227 153/66/227 151/64/227 
f 149/62/228 154/67/228 152/65/228 
f 147/60/229 155/68/229 148/61/229 
f 156/69/230 147/60/230 151/64/230 
f 156/69/231 151/64/231 153/66/231 
f 154/67/232 157/70/232 152/65/232 
f 148/61/233 158/71/233 149/62/233 
f 158/71/234 154/67/234 149/62/234 
f 156/69/235 153/66/235 159/72/235 
f 160/73/236 159/72/236 161/74/236 
f 159/72/237 160/73/237 156/69/237 
f 161/74/238 162/75/238 160/73/238 
f 158/71/239 156/69/239 160/73/239 
f 161/74/240 163/76/240 162/75/240 
f 158/71/241 162/75/241 164/77/241 
f 154/67/242 165/78/242 166/79/242 
f 162/75/243 165/78/243 164/77/243 
f 166/79/244 167/80/244 168/81/244 
f 166/79/245 168/81/245 157/70/245 
f 166/79/246 169/82/246 167/80/246 
f 167/80/247 170/83/247 168/81/247 
f 170/83/248 167/80/248 171/84/248 
f 166/79/249 165/78/249 169/82/249 
f 169/82/250 172/85/250 171/84/250 
f 169/82/251 171/84/251 167/80/251 
f 169/82/252 173/86/252 174/87/252 
f 169/82/253 165/78/253 173/86/253 
f 175/88/254 173/86/254 176/89/254 
f 175/88/255 174/87/255 173/86/255 
f 176/89/256 162/75/256 163/76/256 
f 176/89/257 173/86/257 162/75/257 
f 162/75/258 158/71/258 160/73/258 
f 165/78/259 162/75/259 173/86/259 
f 156/69/260 158/71/260 155/68/260 
f 158/71/261 148/61/261 155/68/261 
f 154/67/262 158/71/262 164/77/262 
f 156/69/263 155/68/263 147/60/263 
f 154/67/264 166/79/264 157/70/264 
f 165/78/265 154/67/265 164/77/265 
f 177/90/266 171/84/266 178/91/266 
f 172/85/267 178/91/267 171/84/267 
f 172/85/268 169/82/268 174/87/268 
f 171/84/269 177/90/269 170/83/269 
f 174/87/270 179/92/270 178/91/270 
f 178/91/271 172/85/271 174/87/271 
f 179/92/272 174/87/272 180/93/272 
# 0 polygons - 55 triangles

#
# object body_34B9100B_0_004
#

v  -0.0852 0.0816 0.0852
v  -0.0979 0.1532 0.0979
v  -0.1078 0.1532 0.0734
v  -0.1033 0.0825 0.0471
v  0.0000 0.0825 0.1196
v  -0.0471 0.1214 0.1205
v  -0.0852 0.2238 0.0843
v  0.0000 0.0553 0.0924
v  0.0852 0.0816 0.0852
v  -0.1006 0.2238 0.0471
v  -0.0381 0.1849 0.1205
v  0.0000 0.1532 0.1287
v  -0.0498 0.2755 0.0444
v  0.0471 0.1214 0.1205
v  0.0000 0.2238 0.1142
v  0.0979 0.1532 0.0979
v  0.0381 0.1849 0.1205
v  0.0000 0.2411 0.0979
v  0.1033 0.0825 0.0471
v  0.1078 0.1532 0.0734
v  0.0852 0.2238 0.0843
v  0.0498 0.2755 0.0444
v  0.1006 0.2238 0.0471
# 23 vertices

vn -0.9023 -0.2251 0.3676
vn -0.8844 -0.2114 0.4161
vn -0.3353 -0.4251 0.8407
vn -0.5158 -0.2373 0.8232
vn -0.9008 0.2322 0.3670
vn -0.2681 -0.6812 0.6812
vn 0.2681 -0.6812 0.6812
vn -0.8988 0.2307 0.3727
vn -0.4548 0.2462 0.8559
vn -0.3787 0.0541 0.9240
vn -0.0858 -0.1267 0.9882
vn -0.6772 0.6801 0.2808
vn -0.1880 0.0269 0.9818
vn 0.3353 -0.4251 0.8407
vn -0.2990 0.4306 0.8516
vn 0.0858 -0.1267 0.9882
vn 0.5158 -0.2373 0.8232
vn -0.0424 0.2008 0.9787
vn 0.1880 0.0269 0.9818
vn -0.2470 0.6664 0.7035
vn 0.8844 -0.2114 0.4161
vn 0.9023 -0.2251 0.3676
vn 0.3787 0.0541 0.9240
vn 0.0424 0.2008 0.9787
vn 0.2990 0.4306 0.8516
vn 0.2470 0.6664 0.7035
vn 0.4548 0.2462 0.8559
vn 0.9008 0.2322 0.3670
vn 0.2481 0.6926 0.6773
vn 0.8988 0.2307 0.3727
vn -0.2481 0.6926 0.6773
vn 0.6772 0.6801 0.2808
# 32 vertex normals

vt 0.2261 0.1792 0.0000
vt 0.1853 0.4419 0.0000
vt 0.1543 0.4424 0.0000
vt 0.1704 0.1802 0.0000
vt 0.4980 0.1812 0.0000
vt 0.3472 0.3267 0.0000
vt 0.2261 0.7036 0.0000
vt 0.4980 0.0801 0.0000
vt 0.7693 0.1792 0.0000
vt 0.1766 0.7031 0.0000
vt 0.3753 0.5581 0.0000
vt 0.4980 0.4424 0.0000
vt 0.3385 0.8926 0.0000
vt 0.6483 0.3267 0.0000
vt 0.4980 0.7021 0.0000
vt 0.8082 0.4419 0.0000
vt 0.6202 0.5581 0.0000
vt 0.4980 0.7671 0.0000
vt 0.8251 0.1802 0.0000
vt 0.8416 0.4424 0.0000
vt 0.7693 0.7036 0.0000
vt 0.6570 0.8926 0.0000
vt 0.8189 0.7031 0.0000
# 23 texture coords

g body_34B9100B_0_004
usemtl Material__892
s 1
f 181/94/273 182/95/273 183/96/273 
f 184/97/274 181/94/274 183/96/274 
f 181/94/275 185/98/275 186/99/275 
f 182/95/276 181/94/276 186/99/276 
f 182/95/277 187/100/277 183/96/277 
f 185/98/278 181/94/278 188/101/278 
f 189/102/279 185/98/279 188/101/279 
f 190/103/280 183/96/280 187/100/280 
f 187/100/281 182/95/281 191/104/281 
f 186/99/282 191/104/282 182/95/282 
f 185/98/283 192/105/283 186/99/283 
f 187/100/284 193/106/284 190/103/284 
f 191/104/285 186/99/285 192/105/285 
f 185/98/286 189/102/286 194/107/286 
f 195/108/287 187/100/287 191/104/287 
f 192/105/288 185/98/288 194/107/288 
f 189/102/289 196/109/289 194/107/289 
f 192/105/290 195/108/290 191/104/290 
f 194/107/291 197/110/291 192/105/291 
f 187/100/292 195/108/292 198/111/292 
f 199/112/293 200/113/293 189/102/293 
f 196/109/294 189/102/294 200/113/294 
f 197/110/295 194/107/295 196/109/295 
f 195/108/296 192/105/296 197/110/296 
f 201/114/297 195/108/297 197/110/297 
f 195/108/298 201/114/298 198/111/298 
f 196/109/299 201/114/299 197/110/299 
f 201/114/300 196/109/300 200/113/300 
f 202/115/301 198/111/301 201/114/301 
f 203/116/302 201/114/302 200/113/302 
f 193/106/303 187/100/303 198/111/303 
f 201/114/304 203/116/304 202/115/304 
# 0 polygons - 32 triangles

