# 3ds Max Wavefront OBJ Exporter v0.97b - (c)2007 guruware
# File Created: 17.10.2018 19:57:44

mtllib samuspoly.mtl

#
# object Nemu_60999451_0_030
#

v  -0.0876 0.0428 -0.0513
v  -0.0704 0.0479 0.0065
v  -0.0467 0.0424 -0.0474
v  -0.0708 -0.0007 -0.0590
v  -0.1053 0.0002 0.0255
v  -0.0363 0.0003 0.0290
v  -0.0737 0.0222 0.0598
v  -0.0751 -0.0006 0.0702
# 8 vertices

vn 0.0182 0.9956 -0.0921
vn 0.0944 0.2084 -0.9735
vn -0.7611 0.6254 0.1720
vn -0.8892 -0.2809 -0.3610
vn 0.7247 0.6404 0.2543
vn 0.8585 -0.3912 -0.3316
vn 0.6714 0.6502 0.3558
vn -0.7267 0.6355 0.2607
vn 0.0037 -0.9998 -0.0186
vn -0.7900 0.2947 0.5377
vn 0.0022 -0.9999 0.0105
vn 0.6991 0.2615 0.6655
# 12 vertex normals

vt 0.4308 0.0041 0.0000
vt 0.0041 0.4430 0.0000
vt 0.5893 0.2113 0.0000
vt 0.3495 0.7031 0.0000
vt 0.6096 0.1626 0.0000
vt 0.6746 0.1504 0.0000
vt 0.6340 0.2032 0.0000
vt 0.5446 1.0322 0.0000
vt 0.7884 0.3739 0.0000
vt 0.5527 1.0322 0.0000
vt 0.8372 0.3251 0.0000
# 11 texture coords

g Nemu_60999451_0_030
usemtl Material__25
s 1
f 1/1/1 2/1/1 3/1/1 
f 4/2/2 1/2/2 3/2/2 
f 5/3/3 2/3/3 1/3/3 
f 4/4/4 5/4/4 1/4/4 
f 2/5/5 6/5/5 3/5/5 
f 3/4/6 6/4/6 4/4/6 
f 7/6/7 6/6/7 2/6/7 
f 2/7/8 5/7/8 7/7/8 
f 5/8/9 6/8/9 8/8/9 
f 7/9/10 5/9/10 8/9/10 
f 6/10/11 5/10/11 4/10/11 
f 6/11/12 7/11/12 8/11/12 
# 0 polygons - 12 triangles

#
# object Nemu_60999451_0_029
#

v  -0.0767 0.2164 -0.0174
v  -0.0687 0.0254 -0.0116
v  -0.0529 0.2253 0.0065
v  -0.0337 0.2220 -0.0179
v  -0.0788 0.0256 -0.0206
v  -0.0527 0.1866 -0.0474
v  -0.0576 0.0255 -0.0209
v  -0.0682 0.0249 -0.0339
# 8 vertices

vn -0.7068 -0.0080 0.7074
vn -0.1296 0.9640 -0.2324
vn 0.7730 -0.1177 0.6233
vn -0.6637 -0.0050 0.7480
vn -0.7713 0.0191 -0.6362
vn 0.6390 -0.0894 0.7640
vn 0.7696 -0.1264 -0.6259
vn -0.7816 0.0229 -0.6233
vn -0.0959 0.6665 -0.7394
vn 0.8872 -0.1011 -0.4501
# 10 vertex normals

vt 0.5446 0.1869 0.0000
vt 0.0284 0.6462 0.0000
vt 0.5242 0.1260 0.0000
vt 0.5527 0.8900 0.0000
vt 0.5324 0.7315 0.0000
vt 0.1951 0.9225 0.0000
# 6 texture coords

g Nemu_60999451_0_029
usemtl Material__25
s 1
f 9/12/13 10/12/13 11/12/13 
f 9/13/14 11/13/14 12/13/14 
f 10/14/15 12/14/15 11/14/15 
f 9/12/16 13/12/16 10/12/16 
f 14/15/17 13/15/17 9/15/17 
f 10/14/18 15/14/18 12/14/18 
f 15/16/19 16/16/19 14/16/19 
f 14/15/20 16/15/20 13/15/20 
f 14/17/21 9/17/21 12/17/21 
f 15/16/22 14/16/22 12/16/22 
# 0 polygons - 10 triangles

#
# object Nemu_60999451_0_028
#

v  -0.0590 0.3582 -0.0211
v  -0.1060 0.2816 -0.0213
v  -0.0415 0.3034 0.0206
v  -0.0335 0.3622 0.0034
v  -0.0075 0.3369 -0.0214
v  -0.0332 0.3622 -0.0469
v  -0.0506 0.1976 -0.0209
v  -0.0411 0.3032 -0.0740
# 8 vertices

vn -0.5901 0.3604 0.7224
vn -0.6875 0.2873 0.6669
vn 0.6988 0.7153 0.0043
vn -0.1525 0.9883 -0.0018
vn 0.5828 -0.1779 0.7929
vn 0.9911 -0.1133 0.0702
vn 0.8808 -0.2737 -0.3864
vn 0.7757 0.1747 -0.6064
vn -0.6839 0.3788 -0.6236
vn -0.4489 -0.2926 0.8443
vn -0.5201 -0.3458 -0.7810
vn -0.6544 0.4036 -0.6394
# 12 vertex normals

vt 0.3658 0.1951 0.0000
vt 0.1179 0.4877 0.0000
vt 0.0163 0.5405 0.0000
vt 0.5527 0.1951 0.0000
vt 0.5568 0.6949 0.0000
vt 0.3536 0.8900 0.0000
vt 0.6827 0.1057 0.0000
vt 0.7274 0.9428 0.0000
# 8 texture coords

g Nemu_60999451_0_028
usemtl Material__25
s 1
f 17/18/23 18/18/23 19/18/23 
f 17/18/24 19/18/24 20/18/24 
f 21/19/25 22/19/25 20/19/25 
f 20/20/26 22/20/26 17/20/26 
f 23/21/27 21/21/27 20/21/27 
f 23/21/28 20/21/28 19/21/28 
f 21/22/29 23/22/29 24/22/29 
f 21/22/30 24/22/30 22/22/30 
f 17/23/31 22/23/31 24/23/31 
f 23/24/32 19/24/32 18/24/32 
f 23/25/33 18/25/33 24/25/33 
f 17/23/34 24/23/34 18/23/34 
# 0 polygons - 12 triangles

#
# object Nemu_60999451_0_027
#

v  0.0700 0.0479 0.0070
v  0.0872 0.0420 -0.0504
v  0.0462 0.0418 -0.0476
v  0.0703 -0.0005 -0.0586
v  0.0359 0.0002 0.0285
v  0.1039 -0.0005 0.0247
v  0.0728 0.0220 0.0593
v  0.0737 -0.0008 0.0707
# 8 vertices

vn -0.0133 0.9944 -0.1049
vn -0.0686 0.2143 -0.9743
vn -0.7325 0.6341 0.2480
vn -0.8540 -0.3994 -0.3335
vn 0.7759 0.6073 0.1708
vn 0.8888 -0.2848 -0.3590
vn 0.7408 0.6171 0.2652
vn -0.6783 0.6435 0.3547
vn -0.0104 -0.9998 -0.0147
vn -0.7091 0.2895 0.6429
vn -0.0094 -0.9999 0.0038
vn 0.7977 0.2954 0.5258
# 12 vertex normals

vt 0.4308 0.0041 0.0000
vt 0.0041 0.4470 0.0000
vt 0.6177 0.1788 0.0000
vt 0.3617 0.7274 0.0000
vt 0.5811 0.1910 0.0000
vt 0.3414 0.6827 0.0000
vt 0.6258 0.1829 0.0000
vt 0.6787 0.1707 0.0000
vt 0.5486 1.0322 0.0000
vt 0.8453 0.3414 0.0000
vt 0.5527 1.0322 0.0000
vt 0.7803 0.3495 0.0000
# 12 texture coords

g Nemu_60999451_0_027
usemtl Material__25
s 1
f 25/26/35 26/26/35 27/26/35 
f 26/27/36 28/27/36 27/27/36 
f 29/28/37 25/28/37 27/28/37 
f 29/29/38 27/29/38 28/29/38 
f 25/30/39 30/30/39 26/30/39 
f 28/31/40 26/31/40 30/31/40 
f 30/32/41 25/32/41 31/32/41 
f 29/33/42 31/33/42 25/33/42 
f 29/34/43 30/34/43 32/34/43 
f 31/35/44 29/35/44 32/35/44 
f 30/36/45 29/36/45 28/36/45 
f 30/37/46 31/37/46 32/37/46 
# 0 polygons - 12 triangles

#
# object Nemu_60999451_0_026
#

v  0.0572 0.0245 -0.0209
v  0.0536 0.2254 0.0066
v  0.0335 0.2220 -0.0179
v  0.0765 0.2163 -0.0174
v  0.0693 0.0244 -0.0116
v  0.0535 0.1866 -0.0473
v  0.0784 0.0246 -0.0206
v  0.0687 0.0250 -0.0337
# 8 vertices

vn -0.7624 -0.1012 0.6392
vn 0.1312 0.9620 -0.2397
vn 0.7228 -0.0060 0.6910
vn -0.6102 -0.1183 0.7834
vn -0.8735 -0.0975 -0.4769
vn 0.7046 -0.0048 0.7096
vn 0.8061 0.0180 -0.5915
vn -0.7344 -0.1252 -0.6670
vn 0.0981 0.6677 -0.7379
vn 0.7819 0.0216 -0.6230
# 10 vertex normals

vt 0.5202 0.1219 0.0000
vt 0.0284 0.6543 0.0000
vt 0.5446 0.1991 0.0000
vt 0.5324 0.7437 0.0000
vt 0.5527 0.8819 0.0000
vt 0.1910 0.9185 0.0000
# 6 texture coords

g Nemu_60999451_0_026
usemtl Material__25
s 1
f 33/38/47 34/38/47 35/38/47 
f 35/39/48 34/39/48 36/39/48 
f 37/40/49 36/40/49 34/40/49 
f 33/38/50 37/38/50 34/38/50 
f 38/41/51 33/41/51 35/41/51 
f 37/40/52 39/40/52 36/40/52 
f 36/42/53 39/42/53 40/42/53 
f 38/41/54 40/41/54 33/41/54 
f 38/43/55 35/43/55 36/43/55 
f 36/42/56 40/42/56 38/42/56 
# 0 polygons - 10 triangles

#
# object Nemu_60999451_0_025
#

v  0.0075 0.3370 -0.0214
v  0.0413 0.3034 0.0206
v  0.0335 0.3622 0.0034
v  0.0332 0.3622 -0.0469
v  0.0589 0.3582 -0.0210
v  0.0504 0.1976 -0.0209
v  0.0411 0.3032 -0.0740
v  0.1059 0.2815 -0.0212
# 8 vertices

vn -0.7351 0.0979 0.6708
vn -0.6977 0.7164 0.0034
vn 0.6869 0.2861 0.6680
vn -0.8427 -0.2577 0.4728
vn -0.7745 0.1760 -0.6075
vn 0.1540 0.9881 -0.0014
vn 0.6854 0.3778 -0.6225
vn -0.8807 -0.2722 -0.3877
vn 0.6559 0.4027 -0.6384
vn 0.5895 0.3594 0.7234
vn 0.5207 -0.3465 -0.7803
vn 0.4472 -0.2934 0.8449
# 12 vertex normals

vt 0.5527 0.1951 0.0000
vt 0.1179 0.4877 0.0000
vt 0.3942 0.2195 0.0000
vt 0.5568 0.6949 0.0000
vt 0.0163 0.5405 0.0000
vt 0.3658 0.8819 0.0000
vt 0.3495 0.8900 0.0000
vt 0.3536 0.1869 0.0000
vt 0.7274 0.9428 0.0000
vt 0.6827 0.1057 0.0000
# 10 texture coords

g Nemu_60999451_0_025
usemtl Material__25
s 1
f 41/44/57 42/44/57 43/44/57 
f 44/45/58 41/45/58 43/45/58 
f 42/46/59 45/46/59 43/46/59 
f 41/44/60 46/44/60 42/44/60 
f 47/47/61 41/47/61 44/47/61 
f 44/48/62 43/48/62 45/48/62 
f 45/49/63 47/49/63 44/49/63 
f 47/47/64 46/47/64 41/47/64 
f 47/50/65 45/50/65 48/50/65 
f 42/51/66 48/51/66 45/51/66 
f 48/52/67 46/52/67 47/52/67 
f 48/53/68 42/53/68 46/53/68 
# 0 polygons - 12 triangles

#
# object Nemu_60999451_0_024
#

v  -0.1548 0.4229 -0.0265
v  -0.1566 0.2347 -0.0268
v  -0.0813 0.4075 0.0158
v  -0.0809 0.4068 -0.0692
# 4 vertices

vn -0.4982 0.0034 0.8671
vn 0.2089 0.9779 -0.0072
vn -0.4994 0.0061 -0.8664
vn 0.9160 -0.4011 0.0066
# 4 vertex normals

vt 0.5649 0.1666 0.0000
vt 0.0000 0.5161 0.0000
vt 0.5568 1.0201 0.0000
vt 0.6258 0.3658 0.0000
# 4 texture coords

g Nemu_60999451_0_024
usemtl Material__25
s 1
f 49/54/69 50/54/69 51/54/69 
f 51/55/70 52/55/70 49/55/70 
f 52/56/71 50/56/71 49/56/71 
f 51/57/72 50/57/72 52/57/72 
# 0 polygons - 4 triangles

#
# object Nemu_60999451_0_023
#

v  -0.1174 0.4993 -0.0281
v  -0.0515 0.5462 0.0310
v  -0.1551 0.5457 -0.0282
v  -0.1025 0.6003 -0.0285
v  -0.0512 0.5461 -0.0844
v  -0.0832 0.4914 -0.0098
v  -0.0831 0.4924 -0.0465
v  -0.1326 0.4096 -0.0290
v  -0.1084 0.4047 -0.0137
v  -0.1076 0.4045 -0.0444
# 10 vertices

vn -0.4594 -0.3713 0.8069
vn -0.4481 0.4358 0.7806
vn 0.7276 0.6860 0.0015
vn -0.5030 -0.3099 0.8068
vn 0.8687 -0.4952 -0.0094
vn -0.4343 0.4144 -0.7998
vn -0.4424 -0.3618 -0.8206
vn 0.8613 -0.5080 0.0025
vn -0.4577 0.0688 0.8864
vn -0.4965 -0.2847 -0.8201
vn 0.9596 -0.2801 0.0265
vn -0.5136 0.1108 0.8508
vn -0.4565 0.0863 -0.8855
vn 0.9630 -0.2694 -0.0029
vn -0.1981 -0.9802 -0.0000
vn -0.5023 0.1200 -0.8563
# 16 vertex normals

vt 0.7396 0.1788 0.0000
vt 0.3454 0.2113 0.0000
vt 0.0894 0.4267 0.0000
vt 0.6827 0.3698 0.0000
vt 0.3536 0.9916 0.0000
vt 0.7315 0.9835 0.0000
vt 0.5202 0.1666 0.0000
vt 0.5527 0.3617 0.0000
vt 0.5161 1.0241 0.0000
vt 1.0322 0.5202 0.0000
# 10 texture coords

g Nemu_60999451_0_023
usemtl Material__25
s 1
f 53/58/73 54/58/73 55/58/73 
f 54/59/74 56/59/74 55/59/74 
f 57/60/75 56/60/75 54/60/75 
f 53/58/76 58/58/76 54/58/76 
f 54/61/77 58/61/77 59/61/77 
f 55/62/78 56/62/78 57/62/78 
f 57/63/79 53/63/79 55/63/79 
f 54/61/80 59/61/80 57/61/80 
f 60/64/81 58/64/81 53/64/81 
f 57/63/82 59/63/82 53/63/82 
f 58/65/83 61/65/83 62/65/83 
f 60/64/84 61/64/84 58/64/84 
f 59/66/85 60/66/85 53/66/85 
f 58/65/86 62/65/86 59/65/86 
f 60/67/87 62/67/87 61/67/87 
f 59/66/88 62/66/88 60/66/88 
# 0 polygons - 16 triangles

#
# object Nemu_60999451_0_022
#

v  0.0000 0.5717 0.0120
v  -0.0410 0.5287 0.0030
v  0.0000 0.5247 0.0180
v  -0.0210 0.5827 -0.0090
v  0.0000 0.5437 -0.0500
v  0.0000 0.6207 -0.0100
v  0.0210 0.5827 -0.0090
v  0.0410 0.5287 0.0030
# 8 vertices

vn -0.3308 0.1195 0.9361
vn -0.8021 0.1699 -0.5725
vn -0.6591 0.3467 -0.6674
vn -0.5525 0.3705 0.7466
vn 0.6591 0.3467 -0.6674
vn 0.8021 0.1699 -0.5725
vn -0.5722 0.3359 0.7482
vn 0.3308 0.1195 0.9361
vn 0.5722 0.3359 0.7482
vn 0.5525 0.3705 0.7466
# 10 vertex normals

vt 0.3495 0.5690 0.0000
vt 0.1016 0.6015 0.0000
vt 0.1747 0.6949 0.0000
vt 0.2316 0.7031 0.0000
vt 0.8575 0.6949 0.0000
vt 0.9306 0.6015 0.0000
vt 0.2195 0.6868 0.0000
vt 0.6827 0.5690 0.0000
vt 0.8128 0.6868 0.0000
vt 0.8006 0.7031 0.0000
# 10 texture coords

g Nemu_60999451_0_022
usemtl Material__25
s 1
f 63/68/89 64/68/89 65/68/89 
f 66/69/90 67/69/90 64/69/90 
f 67/70/91 66/70/91 68/70/91 
f 64/71/92 63/71/92 66/71/92 
f 68/72/93 69/72/93 67/72/93 
f 67/73/94 69/73/94 70/73/94 
f 68/74/95 66/74/95 63/74/95 
f 70/75/96 63/75/96 65/75/96 
f 68/76/97 63/76/97 69/76/97 
f 63/77/98 70/77/98 69/77/98 
# 0 polygons - 10 triangles

#
# object Nemu_60999451_0_021
#

v  0.1569 0.3247 0.0034
v  0.1566 0.3242 -0.0513
v  0.1118 0.3111 -0.0516
v  0.1111 0.3114 0.0030
v  0.1636 0.2791 0.0064
v  0.1201 0.2592 0.0062
v  0.1196 0.2586 -0.0537
v  0.1631 0.2786 -0.0534
# 8 vertices

vn -0.2802 0.9599 -0.0069
vn -0.2785 0.9604 -0.0085
vn -0.0277 0.0616 0.9977
vn -0.0312 0.0559 0.9979
vn 0.4173 -0.9088 0.0051
vn -0.0115 0.0372 -0.9992
vn -0.0065 0.0450 -0.9990
vn -0.9855 -0.1693 0.0097
vn -0.9890 -0.1474 -0.0113
vn 0.9900 0.1406 -0.0067
vn 0.9895 0.1440 -0.0095
# 11 vertex normals

vt 0.0000 0.5080 0.0000
vt 0.4917 0.0041 0.0000
vt 1.0201 0.5364 0.0000
vt 0.4877 1.0282 0.0000
vt 0.4958 0.4348 0.0000
vt 0.5405 0.5974 0.0000
# 6 texture coords

g Nemu_60999451_0_021
usemtl Material__25
s 1
f 71/78/99 72/78/99 73/78/99 
f 71/78/100 73/78/100 74/78/100 
f 75/79/101 71/79/101 74/79/101 
f 75/79/102 74/79/102 76/79/102 
f 77/80/103 78/80/103 75/80/103 
f 77/80/103 75/80/103 76/80/103 
f 73/81/104 78/81/104 77/81/104 
f 73/81/105 72/81/105 78/81/105 
f 77/82/106 76/82/106 74/82/106 
f 77/82/107 74/82/107 73/82/107 
f 71/83/108 78/83/108 72/83/108 
f 71/83/109 75/83/109 78/83/109 
# 0 polygons - 12 triangles

#
# object Nemu_60999451_0_020
#

v  0.1176 0.4267 -0.0277
v  0.0944 0.3907 0.0073
v  0.1568 0.4009 -0.0272
v  0.0945 0.3902 -0.0626
v  0.1271 0.3071 -0.0453
v  0.1264 0.3073 -0.0099
v  0.1510 0.3121 -0.0272
# 7 vertices

vn 0.3404 0.5330 0.7746
vn -0.8430 0.5379 -0.0052
vn -0.9311 -0.3647 0.0014
vn 0.3522 0.5205 -0.7778
vn 0.4828 0.0050 0.8757
vn -0.9344 -0.3559 -0.0146
vn 0.6071 -0.0395 -0.7936
vn 0.5799 -0.0378 0.8138
vn 0.4925 0.0116 -0.8702
# 9 vertex normals

vt 0.2885 0.1544 0.0000
vt 0.1504 0.4592 0.0000
vt 0.6055 0.4389 0.0000
vt 0.2804 0.9469 0.0000
vt 0.5690 0.1219 0.0000
vt 0.5649 0.9957 0.0000
# 6 texture coords

g Nemu_60999451_0_020
usemtl Material__25
s 1
f 79/84/110 80/84/110 81/84/110 
f 79/85/111 82/85/111 80/85/111 
f 83/86/112 80/86/112 82/86/112 
f 79/87/113 81/87/113 82/87/113 
f 84/88/114 81/88/114 80/88/114 
f 83/86/115 84/86/115 80/86/115 
f 81/89/116 85/89/116 83/89/116 
f 84/88/117 85/88/117 81/88/117 
f 81/89/118 83/89/118 82/89/118 
# 0 polygons - 9 triangles

#
# object Nemu_60999451_0_019
#

v  0.0835 0.4925 -0.0460
v  0.0509 0.5460 0.0306
v  0.0511 0.5461 -0.0848
v  0.1042 0.6007 -0.0282
v  0.1545 0.5456 -0.0282
v  0.0840 0.4915 -0.0095
v  0.1175 0.4993 -0.0284
v  0.1074 0.4045 -0.0137
v  0.1082 0.4046 -0.0439
v  0.1326 0.4096 -0.0288
# 10 vertices

vn -0.8554 -0.5180 -0.0013
vn -0.7165 0.6975 -0.0008
vn 0.4507 0.4128 0.7915
vn -0.8561 -0.5167 -0.0025
vn 0.5170 -0.4172 0.7474
vn 0.4656 -0.3237 0.8237
vn 0.4527 -0.3267 -0.8297
vn 0.4412 0.4025 -0.8021
vn 0.4729 0.0855 0.8770
vn 0.4861 -0.3869 -0.7836
vn -0.9656 -0.2587 -0.0254
vn 0.5017 0.0800 0.8613
vn 0.4428 0.1031 -0.8907
vn -0.9628 -0.2700 0.0051
vn 0.1981 -0.9802 0.0000
vn 0.5106 0.0905 -0.8550
# 16 vertex normals

vt 0.6827 0.4430 0.0000
vt 0.0853 0.4714 0.0000
vt 0.3495 0.1544 0.0000
vt 0.7396 0.1341 0.0000
vt 0.7315 0.9672 0.0000
vt 0.3576 0.9672 0.0000
vt 0.5202 0.1138 0.0000
vt 0.5527 0.4389 0.0000
vt 0.5161 1.0038 0.0000
vt 1.0322 0.5202 0.0000
# 10 texture coords

g Nemu_60999451_0_019
usemtl Material__25
s 1
f 86/90/119 87/90/119 88/90/119 
f 89/91/120 88/91/120 87/91/120 
f 89/92/121 87/92/121 90/92/121 
f 86/90/122 91/90/122 87/90/122 
f 91/93/123 92/93/123 90/93/123 
f 91/93/124 90/93/124 87/93/124 
f 90/94/125 86/94/125 88/94/125 
f 89/95/126 90/95/126 88/95/126 
f 93/96/127 92/96/127 91/96/127 
f 90/94/128 92/94/128 86/94/128 
f 94/97/129 93/97/129 91/97/129 
f 93/96/130 95/96/130 92/96/130 
f 92/98/131 94/98/131 86/98/131 
f 94/97/132 91/97/132 86/97/132 
f 94/99/133 95/99/133 93/99/133 
f 92/98/134 95/98/134 94/98/134 
# 0 polygons - 16 triangles

#
# object Nemu_60999451_0_018
#

v  0.0300 0.4537 -0.0440
v  0.0000 0.3897 -0.0190
v  -0.0300 0.4537 -0.0440
v  -0.0300 0.4457 0.0120
v  -0.0690 0.4817 -0.0600
v  0.0690 0.4817 -0.0600
v  -0.0620 0.5487 -0.0580
v  -0.0450 0.4817 0.0350
v  -0.0490 0.5257 0.0270
v  0.0620 0.5487 -0.0580
v  0.0300 0.4457 0.0120
v  0.0450 0.4817 0.0350
v  0.0490 0.5257 0.0270
# 13 vertices

vn 0.0000 -0.3639 -0.9315
vn -0.5466 -0.8290 -0.1184
vn 0.0000 -0.4961 -0.8682
vn 0.0000 0.0298 -0.9996
vn -0.8458 -0.4889 0.2137
vn -0.9796 0.0971 0.1761
vn 0.5466 -0.8290 -0.1184
vn -0.9686 -0.0436 0.2447
vn 0.0000 -0.5384 0.8427
vn 0.0000 0.9653 0.2612
vn 0.0000 0.1789 0.9839
vn 0.8458 -0.4889 0.2137
vn 0.9796 0.0971 0.1761
vn 0.8939 -0.4438 -0.0634
vn 0.9686 -0.0436 0.2447
vn 0.0000 -0.4843 0.8749
vn -0.8939 -0.4438 -0.0634
# 17 vertex normals

vt 0.5161 0.3292 0.0000
vt 0.2398 0.0853 0.0000
vt 0.5161 0.2560 0.0000
vt 0.5161 0.5242 0.0000
vt 0.0772 0.2642 0.0000
vt 0.0081 0.5649 0.0000
vt 0.7925 0.0853 0.0000
vt 0.0163 0.4999 0.0000
vt 0.5161 0.2316 0.0000
vt 0.5161 1.0160 0.0000
vt 0.5161 0.6137 0.0000
vt 0.9550 0.2642 0.0000
vt 1.0241 0.5649 0.0000
vt 0.9794 0.2845 0.0000
vt 1.0160 0.4999 0.0000
vt 0.5161 0.2682 0.0000
vt 0.0528 0.2845 0.0000
# 17 texture coords

g Nemu_60999451_0_018
usemtl Material__25
s 1
f 96/100/135 97/100/135 98/100/135 
f 99/101/136 100/101/136 98/101/136 
f 101/102/137 96/102/137 98/102/137 
f 101/102/137 98/102/137 100/102/137 
f 102/103/138 101/103/138 100/103/138 
f 100/104/139 99/104/139 103/104/139 
f 100/105/140 104/105/140 102/105/140 
f 102/103/138 105/103/138 101/103/138 
f 101/106/141 106/106/141 96/106/141 
f 104/107/142 100/107/142 103/107/142 
f 99/108/143 106/108/143 107/108/143 
f 99/108/143 107/108/143 103/108/143 
f 104/109/144 108/109/144 105/109/144 
f 104/109/144 105/109/144 102/109/144 
f 103/110/145 108/110/145 104/110/145 
f 106/111/146 101/111/146 107/111/146 
f 108/112/147 101/112/147 105/112/147 
f 103/110/145 107/110/145 108/110/145 
f 97/113/148 96/113/148 106/113/148 
f 101/114/149 108/114/149 107/114/149 
f 99/115/150 97/115/150 106/115/150 
f 97/116/151 99/116/151 98/116/151 
# 0 polygons - 22 triangles

#
# object Nemu_60999451_0_017
#

v  -0.0380 0.4127 -0.0510
v  0.0510 0.3817 -0.0540
v  -0.0510 0.3817 -0.0540
v  0.0000 0.3347 -0.0400
v  0.0000 0.3347 0.0050
v  -0.0330 0.3817 0.0190
v  0.0380 0.4127 -0.0510
v  -0.0240 0.4127 0.0150
v  0.0330 0.3817 0.0190
v  0.0240 0.4127 0.0150
# 10 vertices

vn 0.0000 0.0963 -0.9954
vn -0.6777 -0.7354 -0.0000
vn -0.7756 -0.6015 0.1912
vn 0.0000 1.0000 0.0000
vn 0.6777 -0.7354 -0.0000
vn 0.0000 -0.2855 0.9584
vn 0.0000 0.1280 0.9918
vn 0.7756 -0.6015 0.1912
vn 0.9113 0.3635 0.1933
vn 0.9267 0.2985 0.2285
vn -0.9064 0.3585 0.2235
vn 0.0000 -0.2855 -0.9584
vn -0.9342 0.2968 0.1982
# 13 vertex normals

vt 0.5161 0.5730 0.0000
vt 0.1666 0.1341 0.0000
vt 0.1138 0.2073 0.0000
vt 0.5161 1.0322 0.0000
vt 0.8656 0.1341 0.0000
vt 0.5161 0.3698 0.0000
vt 0.5161 0.5811 0.0000
vt 0.9185 0.2073 0.0000
vt 0.9916 0.6827 0.0000
vt 0.0406 0.6827 0.0000
vt 0.5161 0.3658 0.0000
# 11 texture coords

g Nemu_60999451_0_017
usemtl Material__25
s 1
f 109/117/152 110/117/152 111/117/152 
f 112/118/153 113/118/153 111/118/153 
f 113/119/154 114/119/154 111/119/154 
f 109/117/152 115/117/152 110/117/152 
f 116/120/155 115/120/155 109/120/155 
f 112/121/156 110/121/156 113/121/156 
f 113/122/157 117/122/157 114/122/157 
f 116/120/155 118/120/155 115/120/155 
f 117/123/158 116/123/158 114/123/158 
f 110/124/159 117/124/159 113/124/159 
f 110/125/160 115/125/160 118/125/160 
f 117/123/158 118/123/158 116/123/158 
f 110/125/161 118/125/161 117/125/161 
f 114/126/162 109/126/162 111/126/162 
f 112/127/163 111/127/163 110/127/163 
f 114/126/164 116/126/164 109/126/164 
# 0 polygons - 16 triangles

