# 3ds Max Wavefront OBJ Exporter v0.97b - (c)2007 guruware
# File Created: 22.09.2018 22:50:08

mtllib city.mtl

#
# object Nemu_0_0_051
#

v  1.9149 0.0080 0.3159
v  1.9149 0.7910 0.3159
v  1.9149 0.7910 -0.3581
v  1.9149 0.0080 -0.3581
v  1.0229 0.7910 0.3159
v  1.0229 0.7910 -0.3581
# 6 vertices

vn -1.0000 0.0000 -0.0000
vn 0.0000 -1.0000 -0.0000
# 2 vertex normals

g Nemu_0_0_051
usemtl Material__289
s 1
f 1//1 2//1 3//1 
f 1//1 3//1 4//1 
f 2//2 5//2 6//2 
f 2//2 6//2 3//2 
# 0 polygons - 4 triangles

#
# object Nemu_0_0_052
#

v  0.5929 0.8678 0.3309
v  1.0249 0.7888 -0.3301
v  0.5929 0.8678 -0.3731
v  1.0249 0.7888 0.2879
# 4 vertices

vn 0.1799 0.9837 0.0000
# 1 vertex normals

g Nemu_0_0_052
usemtl Material__289
s 1
f 7//3 8//3 9//3 
f 7//3 10//3 8//3 
# 0 polygons - 2 triangles

#
# object Nemu_0_0_053
#

v  1.0249 0.7888 0.2879
v  0.5929 0.0088 0.3309
v  1.0249 0.0088 0.2879
# 3 vertices

vn 0.0990 -0.0000 0.9951
# 1 vertex normals

g Nemu_0_0_053
usemtl Material__289
s 1
f 11//4 12//4 13//4 
# 0 polygons - 1 triangles

#
# object Nemu_0_0_054
#

v  1.0249 0.0088 -0.3301
v  0.5929 0.0088 0.3309
v  0.5929 0.0088 -0.3731
v  1.0249 0.0088 0.2879
# 4 vertices

vn 0.0000 -1.0000 -0.0000
# 1 vertex normals

g Nemu_0_0_054
usemtl Material__289
s 1
f 14//5 15//5 16//5 
f 14//5 17//5 15//5 
# 0 polygons - 2 triangles

#
# object Nemu_0_0_055
#

v  1.0249 0.7888 -0.3301
v  0.5929 0.0088 -0.3731
v  0.5929 0.8678 -0.3731
# 3 vertices

vn 0.0990 0.0000 -0.9951
# 1 vertex normals

g Nemu_0_0_055
usemtl Material__289
s 1
f 18//6 19//6 20//6 
# 0 polygons - 1 triangles

#
# object Nemu_0_0_056
#

v  0.5929 0.0088 -0.3731
v  1.0249 0.7888 -0.3301
v  1.0249 0.0088 -0.3301
# 3 vertices

vn 0.0990 0.0000 -0.9951
# 1 vertex normals

g Nemu_0_0_056
usemtl Material__289
s 1
f 21//7 22//7 23//7 
# 0 polygons - 1 triangles

#
# object Nemu_0_0_057
#

v  0.5929 0.0088 0.3309
v  1.0249 0.7888 0.2879
v  0.5929 0.8678 0.3309
# 3 vertices

vn 0.0990 -0.0000 0.9951
# 1 vertex normals

g Nemu_0_0_057
usemtl Material__289
s 1
f 24//8 25//8 26//8 
# 0 polygons - 1 triangles

#
# object Nemu_0_0_058
#

v  1.0249 0.7888 -0.3301
v  1.0249 0.7888 0.2879
v  1.0249 0.0088 -0.3301
# 3 vertices

vn 1.0000 0.0000 -0.0000
# 1 vertex normals

g Nemu_0_0_058
usemtl Material__289
s 1
f 27//9 28//9 29//9 
# 0 polygons - 1 triangles

#
# object Nemu_0_0_059
#

v  1.0249 0.0088 -0.3301
v  1.0249 0.7888 0.2879
v  1.0249 0.0088 0.2879
# 3 vertices

vn 1.0000 0.0000 -0.0000
# 1 vertex normals

g Nemu_0_0_059
usemtl Material__289
s 1
f 30//10 31//10 32//10 
# 0 polygons - 1 triangles

#
# object Nemu_1AC27A58_0_025
#

v  -1.6501 -10.0980 -0.3811
v  -1.6501 -4.3210 0.3379
v  -1.6501 -4.3210 -0.3811
v  -1.6501 -10.0980 0.3379
v  -1.6501 -0.3690 0.3379
v  -1.6501 -0.3690 -0.3811
# 6 vertices

vn -1.0000 0.0000 -0.0000
# 1 vertex normals

vt 0.9834 -0.0684 0.0000
vt -0.0156 12.4434 0.0000
vt 0.9834 12.4434 0.0000
vt -0.0156 -0.0684 0.0000
vt -0.0156 21.0059 0.0000
vt 0.9834 21.0059 0.0000
# 6 texture coords

g Nemu_1AC27A58_0_025
usemtl Material__208
s 1
f 33/1/11 34/2/11 35/3/11 
f 34/2/11 33/1/11 36/4/11 
f 35/3/11 37/5/11 38/6/11 
f 37/5/11 35/3/11 34/2/11 
# 0 polygons - 4 triangles

#
# object Nemu_1AC27A58_0_026
#

v  1.9849 -10.0980 0.3379
v  1.9849 -4.4180 -0.3811
v  1.9849 -4.4180 0.3379
v  1.9849 -10.0980 -0.3811
v  1.9849 0.0000 -0.3811
v  1.9849 -0.0000 0.3379
# 6 vertices

vn 1.0000 0.0000 -0.0000
# 1 vertex normals

vt -0.0137 0.0000 0.0000
vt 0.9854 12.9375 0.0000
vt -0.0137 12.9375 0.0000
vt 0.9854 0.0000 0.0000
vt 0.9854 23.0000 0.0000
vt -0.0137 23.0000 0.0000
# 6 texture coords

g Nemu_1AC27A58_0_026
usemtl Material__206
s 1
f 39/7/12 40/8/12 41/9/12 
f 40/8/12 39/7/12 42/10/12 
f 41/9/12 43/11/12 44/12/12 
f 43/11/12 41/9/12 40/8/12 
# 0 polygons - 4 triangles

#
# object Nemu_1AC27A58_0_027
#

v  1.9849 -10.0970 1.0589
v  0.9919 -3.6940 1.0589
v  0.9919 -4.5980 1.0589
v  0.9919 -10.0970 1.0589
v  1.9849 -0.8220 1.0589
v  0.9919 -0.8220 1.0589
# 6 vertices

vn 0.0000 -0.0000 1.0000
# 1 vertex normals

vt 1.0068 0.0000 0.0000
vt -0.0049 13.7852 0.0000
vt -0.0049 11.8379 0.0000
vt -0.0049 0.0000 0.0000
vt 1.0068 19.9688 0.0000
vt -0.0049 19.9688 0.0000
# 6 texture coords

g Nemu_1AC27A58_0_027
usemtl Material__207
s 1
f 45/13/13 46/14/13 47/15/13 
f 45/13/13 47/15/13 48/16/13 
f 45/13/13 49/17/13 50/18/13 
f 45/13/13 50/18/13 46/14/13 
# 0 polygons - 4 triangles

#
# object Nemu_2B776CCD_0_076
#

v  0.9919 -0.8220 1.0589
v  1.9849 -0.0000 1.0589
v  0.4909 -0.0000 1.0589
v  0.4909 -0.8220 1.0589
v  1.9849 -0.8220 1.0589
# 5 vertices

vn 0.0000 -0.0000 1.0000
# 1 vertex normals

vt 0.3374 0.0029 0.0000
vt 1.0024 0.9990 0.0000
vt 0.0015 0.9990 0.0000
vt 0.0015 0.0029 0.0000
vt 1.0024 0.0029 0.0000
# 5 texture coords

g Nemu_2B776CCD_0_076
usemtl Material__209
s 1
f 51/19/14 52/20/14 53/21/14 
f 51/19/14 53/21/14 54/22/14 
f 51/19/14 55/23/14 52/20/14 
# 0 polygons - 3 triangles

#
# object Nemu_3FB67CDF_0_052
#

v  -2.8547 0.5490 0.4309
v  -1.7987 0.5490 0.4309
v  -1.7987 0.5490 -0.6251
v  -2.8547 0.5490 -0.6251
# 4 vertices

vn 0.0000 1.0000 0.0000
# 1 vertex normals

vt 0.0000 1.0000 0.0000
vt 1.0000 1.0000 0.0000
vt 1.0000 0.0000 0.0000
vt 0.0000 0.0000 0.0000
# 4 texture coords

g Nemu_3FB67CDF_0_052
usemtl Material__288
s 1
f 56/24/15 57/25/15 58/26/15 
f 56/24/15 58/26/15 59/27/15 
# 0 polygons - 2 triangles

#
# object Nemu_3FB67CDF_0_053
#

v  -4.6915 -1.1310 0.4309
v  -3.6875 -1.1310 0.4309
v  -3.6875 -1.1310 -0.6251
v  -4.6915 -1.1310 -0.6251
# 4 vertices

vn 0.0000 1.0000 0.0000
# 1 vertex normals

vt 0.0000 1.0000 0.0000
vt 1.0000 1.0000 0.0000
vt 1.0000 0.0000 0.0000
vt 0.0000 0.0000 0.0000
# 4 texture coords

g Nemu_3FB67CDF_0_053
usemtl Material__288
s 1
f 60/28/16 61/29/16 62/30/16 
f 60/28/16 62/30/16 63/31/16 
# 0 polygons - 2 triangles

#
# object Nemu_4D0A9A92_0_022
#

v  -1.6501 -4.5980 -0.3811
v  -1.6501 -3.6940 -0.3811
v  -1.6501 -3.6940 -1.1011
v  -1.6501 -4.5980 -1.1011
v  1.9849 -3.6960 -1.1011
v  1.9849 -3.6960 -0.3811
v  1.9849 -4.5960 -0.3811
v  1.9849 -4.5960 -1.1011
# 8 vertices

vn -1.0000 0.0000 -0.0000
vn 1.0000 0.0000 -0.0000
# 2 vertex normals

vt 0.9980 -0.0020 0.0000
vt 0.9980 0.9980 0.0000
vt 0.0000 0.9980 0.0000
vt 0.0000 -0.0020 0.0000
vt 0.0000 0.9961 0.0000
vt 0.9980 0.9961 0.0000
vt 0.9980 0.0000 0.0000
vt 0.0000 0.0000 0.0000
# 8 texture coords

g Nemu_4D0A9A92_0_022
usemtl Material__212
s 1
f 64/32/17 65/33/17 66/34/17 
f 64/32/17 66/34/17 67/35/17 
f 68/36/18 69/37/18 70/38/18 
f 68/36/18 70/38/18 71/39/18 
# 0 polygons - 4 triangles

#
# object Nemu_4D0A9A92_0_023
#

v  -1.6501 -3.6940 1.0589
v  -1.6501 -3.6940 0.3379
v  -1.6501 -4.5980 0.3379
v  -1.6501 -4.5980 1.0589
v  1.9849 -3.6960 0.3379
v  1.9849 -3.6960 1.0589
v  1.9849 -4.5960 1.0589
v  1.9849 -4.5960 0.3379
# 8 vertices

vn -1.0000 0.0000 -0.0000
vn 1.0000 0.0000 -0.0000
# 2 vertex normals

vt 1.0000 0.9961 0.0000
vt 0.0000 0.9961 0.0000
vt 0.0000 0.0000 0.0000
vt 1.0000 0.0000 0.0000
vt 0.9980 0.9961 0.0000
vt 0.9980 0.0000 0.0000
# 6 texture coords

g Nemu_4D0A9A92_0_023
usemtl Material__214
s 1
f 72/40/19 73/41/19 74/42/19 
f 72/40/19 74/42/19 75/43/19 
f 76/41/20 77/44/20 78/45/20 
f 76/41/20 78/45/20 79/42/20 
# 0 polygons - 4 triangles

#
# object Nemu_4D0A9A92_0_024
#

v  -1.6501 -4.5980 1.0589
v  0.9919 -4.5980 1.0589
v  0.9919 -3.6940 1.0589
v  -1.6501 -3.6940 1.0589
# 4 vertices

vn 0.0000 -0.0000 1.0000
# 1 vertex normals

vt 0.0000 0.0000 0.0000
vt 5.0000 0.0000 0.0000
vt 5.0000 1.0000 0.0000
vt 0.0000 1.0000 0.0000
# 4 texture coords

g Nemu_4D0A9A92_0_024
usemtl Material__213
s 1
f 80/46/21 81/47/21 82/48/21 
f 80/46/21 82/48/21 83/49/21 
# 0 polygons - 2 triangles

#
# object Nemu_5C6DD728_0_033
#

v  2.6729 -8.1740 -0.6241
v  2.6729 -3.8580 0.3419
v  2.6729 -3.8580 -0.6241
v  2.6729 -8.1740 0.3419
v  2.6729 0.4580 0.3419
v  2.6729 0.4580 -0.6241
v  3.6389 -8.1740 0.3419
v  3.6389 -3.8580 -0.6241
v  3.6389 -3.8580 0.3419
v  3.6389 -8.1740 -0.6241
v  3.6389 0.4580 -0.6241
v  3.6389 0.4580 0.3419
# 12 vertices

vn -1.0000 0.0000 -0.0000
vn 1.0000 0.0000 -0.0000
vn 0.0000 -0.0000 1.0000
# 3 vertex normals

vt 0.0000 0.0000 0.0000
vt 1.0000 7.0000 0.0000
vt 0.0000 7.0000 0.0000
vt 1.0000 0.0000 0.0000
vt 1.0000 14.0000 0.0000
vt 0.0000 14.0000 0.0000
# 6 texture coords

g Nemu_5C6DD728_0_033
usemtl Material__215
s 1
f 84/50/22 85/51/22 86/52/22 
f 85/51/22 84/50/22 87/53/22 
f 86/52/22 88/54/22 89/55/22 
f 88/54/22 86/52/22 85/51/22 
f 90/53/23 91/52/23 92/51/23 
f 91/52/23 90/53/23 93/50/23 
f 92/51/23 94/55/23 95/54/23 
f 94/55/23 92/51/23 91/52/23 
f 87/50/24 92/51/24 85/52/24 
f 92/51/24 87/50/24 90/53/24 
f 85/52/24 95/54/24 88/55/24 
f 95/54/24 85/52/24 92/51/24 
# 0 polygons - 12 triangles

#
# object Nemu_5C014EBC_0_035
#

v  0.9569 0.8020 -0.7341
v  1.9749 0.8020 -0.3501
v  1.9749 0.8020 -0.7341
v  0.9569 0.8020 -0.3501
v  0.9569 0.8020 0.6749
v  1.9749 0.8020 0.6749
v  1.9749 0.8020 0.3079
v  0.9569 0.8020 0.3079
# 8 vertices

vn 0.0000 1.0000 0.0000
# 1 vertex normals

vt 0.0000 0.0000 0.0000
vt 1.0000 0.9961 0.0000
vt 1.0000 0.0000 0.0000
vt 0.0000 0.9961 0.0000
vt 0.0000 1.0000 0.0000
vt 1.0000 1.0000 0.0000
# 6 texture coords

g Nemu_5C014EBC_0_035
usemtl Material__216
s 1
f 96/56/25 97/57/25 98/58/25 
f 96/56/25 99/59/25 97/57/25 
f 100/60/25 101/61/25 102/58/25 
f 100/60/25 102/58/25 103/56/25 
# 0 polygons - 4 triangles

#
# object Nemu_5D9D416B_0_009
#

v  1.9159 0.9630 -3.0371
v  1.9159 1.3790 -2.3531
v  1.9159 0.9630 -2.3531
v  1.9159 1.3790 -3.0371
v  0.7089 0.9630 -2.3531
v  0.7089 1.3790 -2.3531
v  0.7089 1.3790 -3.0371
v  0.7089 0.9630 -3.0371
# 8 vertices

vn 1.0000 0.0000 -0.0000
vn -1.0000 0.0000 -0.0000
# 2 vertex normals

vt 0.0000 0.0000 0.0000
vt 2.0000 1.0000 0.0000
vt 2.0000 0.0000 0.0000
vt 0.0000 1.0000 0.0000
# 4 texture coords

g Nemu_5D9D416B_0_009
usemtl Material__217
s 1
f 104/62/26 105/63/26 106/64/26 
f 104/62/26 107/65/26 105/63/26 
f 108/64/27 109/63/27 110/65/27 
f 108/64/27 110/65/27 111/62/27 
# 0 polygons - 4 triangles

#
# object Nemu_5D9D416B_0_010
#

v  1.9159 0.9630 -2.3531
v  1.9159 1.3790 -2.3531
v  0.7089 1.3790 -2.3531
v  0.7089 0.9630 -2.3531
# 4 vertices

vn 0.0000 -0.0000 1.0000
# 1 vertex normals

vt 4.0000 0.0000 0.0000
vt 4.0000 1.0000 0.0000
vt 0.0000 1.0000 0.0000
vt 0.0000 0.0000 0.0000
# 4 texture coords

g Nemu_5D9D416B_0_010
usemtl Material__218
s 1
f 112/66/28 113/67/28 114/68/28 
f 112/66/28 114/68/28 115/69/28 
# 0 polygons - 2 triangles

#
# object Nemu_6E4CE787_0_040
#

v  -2.8687 1.0000 0.1379
v  -1.7887 1.0000 0.1379
v  -1.7887 1.0000 -0.3421
v  -2.8687 1.0000 -0.3421
# 4 vertices

vn 0.0000 1.0000 0.0000
# 1 vertex normals

vt 0.0000 1.0000 0.0000
vt 2.0000 1.0000 0.0000
vt 2.0000 0.0000 0.0000
vt 0.0000 0.0000 0.0000
# 4 texture coords

g Nemu_6E4CE787_0_040
usemtl Material__219
s 1
f 116/70/29 117/71/29 118/72/29 
f 116/70/29 118/72/29 119/73/29 
# 0 polygons - 2 triangles

#
# object Nemu_6E4CE787_0_041
#

v  -4.7585 -0.8570 0.1379
v  -3.6915 -0.5660 0.1379
v  -3.6915 -0.5660 -0.3421
v  -4.7585 -0.8570 -0.3421
# 4 vertices

vn -0.2631 0.9648 0.0000
# 1 vertex normals

vt 0.0000 1.0000 0.0000
vt 2.0000 1.0000 0.0000
vt 2.0000 0.0000 0.0000
vt 0.0000 0.0000 0.0000
# 4 texture coords

g Nemu_6E4CE787_0_041
usemtl Material__220
s 1
f 120/74/30 121/75/30 122/76/30 
f 120/74/30 122/76/30 123/77/30 
# 0 polygons - 2 triangles

#
# object Nemu_7BED32F4_0_003
#

v  -2.8841 0.1150 -3.4461
v  -2.8841 0.5690 -3.4461
v  -2.8841 0.5690 -4.0361
v  -2.8841 0.1150 -4.0361
v  -2.2941 0.1150 -3.4461
v  -2.2941 0.5690 -3.4461
v  -2.2941 0.1150 -4.0361
v  -2.2941 0.5690 -4.0361
# 8 vertices

vn -1.0000 0.0000 -0.0000
vn 0.0000 -0.0000 1.0000
vn 1.0000 0.0000 -0.0000
# 3 vertex normals

vt 0.0000 0.0000 0.0000
vt 0.0000 1.0000 0.0000
vt 3.0000 1.0000 0.0000
vt 3.0000 0.0000 0.0000
# 4 texture coords

g Nemu_7BED32F4_0_003
usemtl Material__221
s 1
f 124/78/31 125/79/31 126/80/31 
f 124/78/31 126/80/31 127/81/31 
f 128/81/32 129/80/32 125/79/32 
f 128/81/32 125/79/32 124/78/32 
f 130/81/33 129/79/33 128/78/33 
f 130/81/33 131/80/33 129/79/33 
# 0 polygons - 6 triangles

#
# object Nemu_7D5A72E6_0_043
#

v  -2.1937 0.5260 -0.0971
v  -2.1937 0.9460 -0.0971
v  -2.4597 0.9460 -0.0971
v  -2.4597 0.5260 -0.0971
# 4 vertices

vn 0.0000 -0.0000 1.0000
# 1 vertex normals

vt 0.0000 0.0000 0.0000
vt 0.0000 1.0000 0.0000
vt 1.0000 1.0000 0.0000
vt 1.0000 0.0000 0.0000
# 4 texture coords

g Nemu_7D5A72E6_0_043
usemtl Material__275
s 1
f 132/82/34 133/83/34 134/84/34 
f 132/82/34 134/84/34 135/85/34 
# 0 polygons - 2 triangles

#
# object Nemu_7D5A72E6_0_044
#

v  -4.0415 -1.1730 -0.0971
v  -4.0415 -0.7530 -0.0971
v  -4.3075 -0.7530 -0.0971
v  -4.3075 -1.1730 -0.0971
# 4 vertices

vn 0.0000 -0.0000 1.0000
# 1 vertex normals

vt 0.0000 0.0000 0.0000
vt 0.0000 1.0000 0.0000
vt 1.0000 1.0000 0.0000
vt 1.0000 0.0000 0.0000
# 4 texture coords

g Nemu_7D5A72E6_0_044
usemtl Material__275
s 1
f 136/86/35 137/87/35 138/88/35 
f 136/86/35 138/88/35 139/89/35 
# 0 polygons - 2 triangles

#
# object Nemu_7E251D3D_0_041
#

v  -2.8337 0.8800 0.1379
v  -2.8687 1.0000 0.1379
v  -2.8687 1.0000 -0.3421
v  -2.8337 0.8800 -0.3421
v  -1.8387 0.8800 -0.3421
v  -1.7887 1.0000 -0.3421
v  -1.7887 1.0000 0.1379
v  -1.8387 0.8800 0.1379
# 8 vertices

vn -0.9600 -0.2800 -0.0000
vn 0.9231 -0.3846 -0.0000
# 2 vertex normals

vt 0.0000 0.0000 0.0000
vt 0.0000 1.0000 0.0000
vt 3.0000 1.0000 0.0000
vt 3.0000 0.0000 0.0000
# 4 texture coords

g Nemu_7E251D3D_0_041
usemtl Material__276
s 1
f 140/90/36 141/91/36 142/92/36 
f 140/90/36 142/92/36 143/93/36 
f 144/93/37 145/92/37 146/91/37 
f 144/93/37 146/91/37 147/90/37 
# 0 polygons - 4 triangles

#
# object Nemu_7E251D3D_0_042
#

v  -2.8337 0.8800 0.1379
v  -1.8387 0.8800 0.1379
v  -1.7887 1.0000 0.1379
v  -2.8687 1.0000 0.1379
# 4 vertices

vn 0.0000 -0.0000 1.0000
# 1 vertex normals

vt -0.0547 0.0000 0.0000
vt 4.9785 0.0000 0.0000
vt 5.2344 1.0000 0.0000
vt -0.2344 1.0000 0.0000
# 4 texture coords

g Nemu_7E251D3D_0_042
usemtl Material__276
s 1
f 148/94/38 149/95/38 150/96/38 
f 148/94/38 150/96/38 151/97/38 
# 0 polygons - 2 triangles

#
# object Nemu_7E251D3D_0_043
#

v  -4.6535 -0.9750 0.1379
v  -3.7135 -0.7180 0.1379
v  -3.6915 -0.5660 0.1379
v  -4.7585 -0.8570 0.1379
# 4 vertices

vn 0.0000 -0.0000 1.0000
# 1 vertex normals

vt 0.0625 0.0000 0.0000
vt 4.9238 0.0000 0.0000
vt 5.2324 0.9912 0.0000
vt -0.2852 1.0000 0.0000
# 4 texture coords

g Nemu_7E251D3D_0_043
usemtl Material__276
s 1
f 152/98/39 153/99/39 154/100/39 
f 152/98/39 154/100/39 155/101/39 
# 0 polygons - 2 triangles

#
# object Nemu_7E251D3D_0_044
#

v  -4.7585 -0.8570 0.1379
v  -4.6535 -0.9750 -0.3421
v  -4.6535 -0.9750 0.1379
v  -4.7585 -0.8570 -0.3421
v  -3.7135 -0.7180 -0.3421
v  -3.6915 -0.5660 0.1379
v  -3.7135 -0.7180 0.1379
v  -3.6915 -0.5660 -0.3421
# 8 vertices

vn -0.7471 -0.6648 -0.0000
vn 0.9897 -0.1432 -0.0000
# 2 vertex normals

vt 3.0000 1.0000 0.0000
vt 0.0000 0.0000 0.0000
vt 2.9980 0.0000 0.0000
vt 0.0000 1.0000 0.0000
vt 3.0000 0.0000 0.0000
# 5 texture coords

g Nemu_7E251D3D_0_044
usemtl Material__276
s 1
f 156/102/40 157/103/40 158/104/40 
f 156/102/40 159/105/40 157/103/40 
f 160/106/41 161/105/41 162/103/41 
f 160/106/41 163/102/41 161/105/41 
# 0 polygons - 4 triangles

#
# object Nemu_13F1BB78_0_006
#

v  -2.8828 0.5731 -3.2639
v  -2.9998 0.1281 -3.2639
v  -2.8598 0.5731 -3.2639
v  -3.1408 0.5731 -3.2639
v  -3.1178 0.5731 -3.2639
v  -3.0148 2.7551 -3.2639
v  -2.9998 2.6381 -3.2639
v  -2.9858 2.7551 -3.2639
# 8 vertices

vn 0.0000 -0.0000 1.0000
# 1 vertex normals

vt 0.8320 1.0000 0.0000
vt 0.0000 0.0000 0.0000
vt 1.0000 1.0000 0.0000
vt 0.0000 1.0000 0.0000
vt 1.0000 0.0000 0.0000
vt 0.1641 1.0000 0.0000
vt 0.5000 0.0000 0.0000
# 7 texture coords

g Nemu_13F1BB78_0_006
usemtl Material__228
s 1
f 164/107/42 165/108/42 166/109/42 
f 167/110/42 165/111/42 168/112/42 
f 169/110/42 170/113/42 171/109/42 
# 0 polygons - 3 triangles

#
# object Nemu_26D8196C_0_005
#

v  -3.1648 0.5731 -3.2529
v  -2.8358 2.6851 -3.2529
v  -3.1648 2.6851 -3.2529
v  -2.8358 0.5731 -3.2529
# 4 vertices

vn 0.0000 -0.0000 1.0000
# 1 vertex normals

vt 0.0000 0.0000 0.0000
vt 1.0000 1.0000 0.0000
vt 0.0000 1.0000 0.0000
vt 1.0000 0.0000 0.0000
# 4 texture coords

g Nemu_26D8196C_0_005
usemtl Material__281
s 1
f 172/114/43 173/115/43 174/116/43 
f 172/114/43 175/117/43 173/115/43 
# 0 polygons - 2 triangles

#
# object Nemu_40C13459_0_020
#

v  1.9849 0.0000 -1.1011
v  1.9849 0.0000 -0.3811
v  1.9849 -0.8220 -0.3811
v  1.9849 -0.8220 -1.1011
# 4 vertices

vn 1.0000 0.0000 -0.0000
# 1 vertex normals

vt 0.7881 0.8486 0.0000
vt 0.2012 0.8486 0.0000
vt 0.2012 0.1797 0.0000
vt 0.7881 0.1797 0.0000
# 4 texture coords

g Nemu_40C13459_0_020
usemtl Material__291
s 1
f 176/118/44 177/119/44 178/120/44 
f 176/118/44 178/120/44 179/121/44 
# 0 polygons - 2 triangles

#
# object Nemu_40C13459_0_021
#

v  -1.6501 -0.8220 -0.3811
v  -1.6501 -0.3690 -0.3811
v  -1.6501 -0.3690 -1.1011
v  -1.6501 -0.8220 -1.1011
# 4 vertices

vn -1.0000 0.0000 -0.0000
# 1 vertex normals

vt -0.0003 0.1797 0.0000
vt -0.0003 0.5483 0.0000
vt 0.2418 0.5483 0.0000
vt 0.2418 0.1797 0.0000
# 4 texture coords

g Nemu_40C13459_0_021
usemtl Material__232
s 1
f 180/122/45 181/123/45 182/124/45 
f 180/122/45 182/124/45 183/125/45 
# 0 polygons - 2 triangles

#
# object Nemu_40C13459_0_022
#

v  1.9849 -0.8220 0.3379
v  1.9849 -0.0000 0.3379
v  1.9849 -0.0000 1.0589
v  1.9849 -0.8220 1.0589
# 4 vertices

vn 1.0000 0.0000 -0.0000
# 1 vertex normals

vt 0.7930 0.1797 0.0000
vt 0.7930 0.8486 0.0000
vt 0.2051 0.8486 0.0000
vt 0.2051 0.1797 0.0000
# 4 texture coords

g Nemu_40C13459_0_022
usemtl Material__292
s 1
f 184/126/46 185/127/46 186/128/46 
f 184/126/46 186/128/46 187/129/46 
# 0 polygons - 2 triangles

#
# object Nemu_40C13459_0_023
#

v  -1.6501 -0.3690 1.0589
v  -1.6501 -0.8220 0.3379
v  -1.6501 -0.8220 1.0589
v  -1.6501 -0.3690 0.3379
# 4 vertices

vn -1.0000 0.0000 -0.0000
# 1 vertex normals

vt 0.2421 0.5483 0.0000
vt -0.0001 0.1797 0.0000
vt 0.2421 0.1797 0.0000
vt -0.0001 0.5483 0.0000
# 4 texture coords

g Nemu_40C13459_0_023
usemtl Material__233
s 1
f 188/130/47 189/131/47 190/132/47 
f 188/130/47 191/133/47 189/131/47 
# 0 polygons - 2 triangles

#
# object Nemu_40C13459_0_024
#

v  0.4909 -0.8220 1.0589
v  -0.4741 -0.3690 1.0589
v  -1.6501 -0.8220 1.0589
v  -1.6501 -0.3690 1.0589
v  0.4909 -0.0000 1.0589
# 5 vertices

vn 0.0000 -0.0000 1.0000
# 1 vertex normals

vt 0.0120 0.1797 0.0000
vt 0.3626 0.5483 0.0000
vt 0.7901 0.1797 0.0000
vt 0.7901 0.5483 0.0000
vt 0.0120 0.8486 0.0000
# 5 texture coords

g Nemu_40C13459_0_024
usemtl Material__234
s 1
f 192/134/48 193/135/48 194/136/48 
f 194/136/48 193/135/48 195/137/48 
f 192/134/48 196/138/48 193/135/48 
# 0 polygons - 3 triangles

#
# object Nemu_56D61897_0_028
#

v  -1.6501 -0.3690 -0.3811
v  -0.4741 -0.3690 0.3379
v  -0.4741 -0.3690 -0.3811
v  -1.6501 -0.3690 0.3379
v  0.4909 -0.0000 0.3379
v  0.4909 0.0000 -0.3811
v  1.0089 -0.0000 0.3379
v  1.0089 0.0000 -0.3811
# 8 vertices

vn 0.0000 1.0000 0.0000
vn -0.3572 0.9340 0.0000
# 2 vertex normals

vt 0.0000 0.0000 0.0000
vt 4.5273 2.9980 0.0000
vt 4.5273 0.0000 0.0000
vt 0.0000 2.9980 0.0000
vt 8.2441 2.9980 0.0000
vt 8.2441 0.0000 0.0000
vt 10.2402 2.9980 0.0000
vt 10.2402 0.0000 0.0000
# 8 texture coords

g Nemu_56D61897_0_028
usemtl Material__236
s 1
f 197/139/49 198/140/49 199/141/49 
f 197/139/49 200/142/49 198/140/49 
f 199/141/50 201/143/50 202/144/50 
f 199/141/50 198/140/50 201/143/50 
f 202/144/49 201/143/49 203/145/49 
f 202/144/49 203/145/49 204/146/49 
# 0 polygons - 6 triangles

#
# object Nemu_56D61897_0_029
#

v  0.9569 0.8020 0.3079
v  1.9749 0.8020 0.3079
v  1.9749 0.8020 -0.3501
v  0.9569 0.8020 -0.3501
# 4 vertices

vn 0.0000 1.0000 0.0000
# 1 vertex normals

vt 0.0000 3.0000 0.0000
vt 4.0000 3.0000 0.0000
vt 4.0000 0.0000 0.0000
vt 0.0000 0.0000 0.0000
# 4 texture coords

g Nemu_56D61897_0_029
usemtl Material__235
s 1
f 205/147/51 206/148/51 207/149/51 
f 205/147/51 207/149/51 208/150/51 
# 0 polygons - 2 triangles

#
# object Nemu_67E32F8A_0_032
#

v  2.6729 0.4580 0.3419
v  3.6389 0.4580 0.3419
v  3.6389 0.4580 -0.6241
v  2.6729 0.4580 -0.6241
# 4 vertices

vn 0.0000 1.0000 0.0000
# 1 vertex normals

vt 0.0000 1.0000 0.0000
vt 1.0000 1.0000 0.0000
vt 1.0000 0.0000 0.0000
vt 0.0000 0.0000 0.0000
# 4 texture coords

g Nemu_67E32F8A_0_032
usemtl Material__237
s 1
f 209/151/52 210/152/52 211/153/52 
f 209/151/52 211/153/52 212/154/52 
# 0 polygons - 2 triangles

#
# object Nemu_76BC8693_0_002
#

v  -3.1561 0.1150 -3.1741
v  -2.0221 0.1150 -3.1741
v  -2.0221 0.1150 -4.3081
v  -3.1561 0.1150 -4.3081
v  -2.8841 0.5690 -3.4461
v  -2.2941 0.5690 -3.4461
v  -2.2941 0.5690 -4.0361
v  -2.8841 0.5690 -4.0361
# 8 vertices

vn 0.0000 1.0000 0.0000
# 1 vertex normals

vt 0.0000 1.0000 0.0000
vt 1.0000 1.0000 0.0000
vt 1.0000 0.0000 0.0000
vt 0.0000 0.0000 0.0000
# 4 texture coords

g Nemu_76BC8693_0_002
usemtl Material__239
s 1
f 213/155/53 214/156/53 215/157/53 
f 213/155/53 215/157/53 216/158/53 
f 217/155/53 218/156/53 219/157/53 
f 217/155/53 219/157/53 220/158/53 
# 0 polygons - 4 triangles

#
# object Nemu_76BC8693_0_003
#

v  0.4639 0.9820 -2.0591
v  2.6189 0.9820 -2.0591
v  2.6189 0.9820 -3.2621
v  0.4639 0.9820 -3.2621
v  0.7089 1.3790 -2.3531
v  1.9159 1.3790 -2.3531
v  1.9159 1.3790 -3.0371
v  0.7089 1.3790 -3.0371
# 8 vertices

vn 0.0000 1.0000 0.0000
# 1 vertex normals

vt 0.0000 0.9990 0.0000
vt 1.0000 0.9990 0.0000
vt 1.0000 0.0000 0.0000
vt 0.0000 0.0000 0.0000
vt 1.0000 1.0000 0.0000
vt 0.0000 1.0000 0.0000
# 6 texture coords

g Nemu_76BC8693_0_003
usemtl Material__238
s 1
f 221/159/54 222/160/54 223/161/54 
f 221/159/54 223/161/54 224/162/54 
f 225/163/54 226/161/54 227/162/54 
f 225/163/54 227/162/54 228/164/54 
# 0 polygons - 4 triangles

#
# object Nemu_76BC8693_0_004
#

v  -3.6011 -1.6190 0.4259
v  -2.4671 -1.6190 0.4259
v  -2.4671 -1.6190 -0.7081
v  -3.6011 -1.6190 -0.7081
# 4 vertices

vn 0.0000 1.0000 0.0000
# 1 vertex normals

vt 0.0000 1.0000 0.0000
vt 1.0000 1.0000 0.0000
vt 1.0000 0.0000 0.0000
vt 0.0000 0.0000 0.0000
# 4 texture coords

g Nemu_76BC8693_0_004
usemtl Material__240
s 1
f 229/165/55 230/166/55 231/167/55 
f 229/165/55 231/167/55 232/168/55 
# 0 polygons - 2 triangles

#
# object Nemu_78B83659_0_015
#

v  -1.6501 -0.3690 -1.1011
v  -0.4741 -0.3690 -0.3811
v  -0.4741 -0.3690 -1.1011
v  -1.6501 -0.3690 -0.3811
v  0.4909 0.0000 -0.3811
v  0.4909 0.0000 -1.1011
v  1.9849 0.0000 -0.3811
v  1.9849 0.0000 -1.1011
# 8 vertices

vn 0.0000 1.0000 0.0000
vn -0.3572 0.9340 0.0000
# 2 vertex normals

vt 0.0000 0.0000 0.0000
vt 4.5273 3.0000 0.0000
vt 4.5273 0.0000 0.0000
vt 0.0000 2.9980 0.0000
vt 8.2441 2.9980 0.0000
vt 8.2441 0.0000 0.0000
vt 14.0000 2.9980 0.0000
vt 14.0000 0.0000 0.0000
# 8 texture coords

g Nemu_78B83659_0_015
usemtl Material__241
s 1
f 233/169/56 234/170/56 235/171/56 
f 233/169/56 236/172/56 234/170/56 
f 235/171/57 237/173/57 238/174/57 
f 235/171/57 234/170/57 237/173/57 
f 238/174/56 239/175/56 240/176/56 
f 238/174/56 237/173/56 239/175/56 
# 0 polygons - 6 triangles

#
# object Nemu_78B83659_0_016
#

v  -1.6501 -0.3690 0.3379
v  -0.4741 -0.3690 1.0589
v  -0.4741 -0.3690 0.3379
v  -1.6501 -0.3690 1.0589
v  0.4909 -0.0000 1.0589
v  0.4909 -0.0000 0.3379
v  1.9849 -0.0000 1.0589
v  1.9849 -0.0000 0.3379
# 8 vertices

vn 0.0000 1.0000 0.0000
vn -0.3572 0.9340 0.0000
# 2 vertex normals

vt 0.0000 0.0000 0.0000
vt 4.5273 3.0000 0.0000
vt 4.5273 0.0000 0.0000
vt 0.0000 3.0000 0.0000
vt 8.2441 3.0000 0.0000
vt 8.2441 0.0000 0.0000
vt 14.0000 3.0000 0.0000
vt 14.0000 0.0000 0.0000
# 8 texture coords

g Nemu_78B83659_0_016
usemtl Material__242
s 1
f 241/177/58 242/178/58 243/179/58 
f 241/177/58 244/180/58 242/178/58 
f 243/179/59 245/181/59 246/182/59 
f 243/179/59 242/178/59 245/181/59 
f 246/182/58 247/183/58 248/184/58 
f 246/182/58 245/181/58 247/183/58 
# 0 polygons - 6 triangles

#
# object Nemu_460DA628_0_004
#

v  -3.1561 -8.6720 -4.3081
v  -3.1561 -4.2790 -3.1741
v  -3.1561 -4.2790 -4.3081
v  -3.1561 -8.6720 -3.1741
v  -3.1561 0.1150 -3.1741
v  -3.1561 0.1150 -4.3081
v  -2.0221 -4.2790 -3.1741
v  -2.0221 -8.6720 -3.1741
v  -2.0221 0.1150 -3.1741
v  -2.0221 -4.2790 -4.3081
v  -2.0221 -8.6720 -4.3081
v  -2.0221 0.1150 -4.3081
# 12 vertices

vn -1.0000 0.0000 -0.0000
vn 0.0000 -0.0000 1.0000
vn 1.0000 0.0000 -0.0000
# 3 vertex normals

vt 0.0000 0.0000 0.0000
vt 3.0000 8.5000 0.0000
vt 0.0000 8.5000 0.0000
vt 3.0000 0.0000 0.0000
vt 3.0000 17.0000 0.0000
vt 0.0000 17.0000 0.0000
vt 2.9980 0.0000 0.0000
vt 2.9980 8.5000 0.0000
vt 2.9980 17.0000 0.0000
# 9 texture coords

g Nemu_460DA628_0_004
usemtl Material__243
s 1
f 249/185/60 250/186/60 251/187/60 
f 250/186/60 249/185/60 252/188/60 
f 251/187/60 253/189/60 254/190/60 
f 253/189/60 251/187/60 250/186/60 
f 252/185/61 255/186/61 250/187/61 
f 255/186/61 252/185/61 256/188/61 
f 250/187/61 257/189/61 253/190/61 
f 257/189/61 250/187/61 255/186/61 
f 256/191/62 258/187/62 255/192/62 
f 258/187/62 256/191/62 259/185/62 
f 255/192/62 260/190/62 257/193/62 
f 260/190/62 255/192/62 258/187/62 
# 0 polygons - 12 triangles

#
# object Nemu_628A5A01_0_007
#

v  -3.4198 2.7508 -3.2493
v  -2.5798 2.7508 -3.2493
v  -2.5798 3.5908 -3.2493
v  -3.4198 3.5908 -3.2493
# 4 vertices

vn 0.0000 -0.0000 1.0000
# 1 vertex normals

vt 0.0000 0.0000 0.0000
vt 1.0000 0.0000 0.0000
vt 1.0000 1.0000 0.0000
vt 0.0000 1.0000 0.0000
# 4 texture coords

g Nemu_628A5A01_0_007
usemtl Material__278
s 1
f 261/194/63 262/195/63 263/196/63 
f 261/194/63 263/196/63 264/197/63 
# 0 polygons - 2 triangles

#
# object Nemu_4009B47A_0_014
#

v  1.0173 1.3788 -2.4620
v  1.0173 2.1318 -2.4620
v  0.8253 2.1318 -2.4620
v  0.8253 1.3788 -2.4620
# 4 vertices

vn 0.0000 -0.0000 1.0000
# 1 vertex normals

vt 1.0000 0.0000 0.0000
vt 1.0000 1.0000 0.0000
vt 0.0000 1.0000 0.0000
vt 0.0000 0.0000 0.0000
# 4 texture coords

g Nemu_4009B47A_0_014
usemtl Material__277
s 1
f 265/198/64 266/199/64 267/200/64 
f 265/198/64 267/200/64 268/201/64 
# 0 polygons - 2 triangles

#
# object Nemu_4009B47A_0_015
#

v  1.9143 0.8021 -0.4478
v  1.9143 2.1391 -0.4478
v  1.6383 2.1391 -0.4478
v  1.6383 0.8021 -0.4478
# 4 vertices

vn 0.0000 -0.0000 1.0000
# 1 vertex normals

vt 1.0000 0.0000 0.0000
vt 1.0000 1.0000 0.0000
vt 0.0000 1.0000 0.0000
vt 0.0000 0.0000 0.0000
# 4 texture coords

g Nemu_4009B47A_0_015
usemtl Material__277
s 1
f 269/202/65 270/203/65 271/204/65 
f 269/202/65 271/204/65 272/205/65 
# 0 polygons - 2 triangles

#
# object Nemu_7084AD7D_0_038
#

v  0.9569 0.8020 -0.3501
v  0.9569 0.8020 -0.7341
v  0.9569 0.0000 -0.7341
v  0.9569 0.0000 -0.3501
v  1.9749 0.0000 -0.7341
v  1.9749 0.8020 -0.7341
v  1.9749 0.8020 -0.3501
v  1.9749 0.0000 -0.3501
# 8 vertices

vn -1.0000 0.0000 -0.0000
vn 1.0000 0.0000 -0.0000
# 2 vertex normals

vt 0.0127 0.9375 0.0000
vt 0.0039 0.9346 0.0000
vt 0.0039 0.0713 0.0000
vt 0.0176 0.0684 0.0000
vt 0.0039 0.6025 0.0000
vt 0.0176 0.6025 0.0000
vt 0.0176 0.0693 0.0000
# 7 texture coords

g Nemu_7084AD7D_0_038
usemtl Material__248
s 1
f 273/206/66 274/207/66 275/208/66 
f 273/206/66 275/208/66 276/209/66 
f 277/208/67 278/210/67 279/211/67 
f 277/208/67 279/211/67 280/212/67 
# 0 polygons - 4 triangles

#
# object Nemu_7084AD7D_0_039
#

v  1.0233 0.7991 0.3079
v  1.0233 0.3981 -0.0211
v  1.0233 -0.0029 0.3079
v  1.0233 0.7991 -0.0211
# 4 vertices

vn -1.0000 0.0000 -0.0000
# 1 vertex normals

vt 1.0000 1.0000 0.0000
vt 0.5000 0.5000 0.0000
vt 1.0000 0.0000 0.0000
vt 0.5000 1.0000 0.0000
# 4 texture coords

g Nemu_7084AD7D_0_039
usemtl Material__250
s 1
f 281/213/68 282/214/68 283/215/68 
f 281/213/68 284/216/68 282/214/68 
# 0 polygons - 2 triangles

#
# object Nemu_7084AD7D_0_040
#

v  1.0233 -0.0000 0.3079
v  1.0233 0.4010 -0.0211
v  1.0233 0.0000 -0.3501
# 3 vertices

vn -1.0000 0.0000 -0.0000
# 1 vertex normals

vt 1.0000 0.0000 0.0000
vt 0.5000 0.5000 0.0000
vt 0.0000 0.0000 0.0000
# 3 texture coords

g Nemu_7084AD7D_0_040
usemtl Material__251
s 1
f 285/217/69 286/218/69 287/219/69 
# 0 polygons - 1 triangles

#
# object Nemu_7084AD7D_0_041
#

v  1.0233 0.3981 -0.0211
v  1.0233 0.7991 -0.3501
v  1.0233 -0.0029 -0.3501
v  1.0233 0.7991 -0.0211
# 4 vertices

vn -1.0000 0.0000 -0.0000
# 1 vertex normals

vt 0.5000 0.5000 0.0000
vt 0.0000 1.0000 0.0000
vt 0.0000 0.0000 0.0000
vt 0.5000 1.0000 0.0000
# 4 texture coords

g Nemu_7084AD7D_0_041
usemtl Material__249
s 1
f 288/220/70 289/221/70 290/222/70 
f 288/220/70 291/223/70 289/221/70 
# 0 polygons - 2 triangles

#
# object Nemu_7084AD7D_0_042
#

v  0.9569 0.8020 0.6749
v  0.9569 0.8020 0.3079
v  0.9569 -0.0000 0.3079
v  0.9569 -0.0000 0.6749
v  1.9749 -0.0000 0.3079
v  1.9749 0.8020 0.3079
v  1.9749 0.8020 0.6749
v  1.9749 -0.0000 0.6749
# 8 vertices

vn -1.0000 0.0000 -0.0000
vn 1.0000 0.0000 -0.0000
# 2 vertex normals

vt 0.0264 0.9307 0.0000
vt 0.0088 0.9326 0.0000
vt 0.0000 0.0625 0.0000
vt 0.0264 0.0625 0.0000
vt 0.0039 0.6025 0.0000
vt 0.0264 0.6025 0.0000
# 6 texture coords

g Nemu_7084AD7D_0_042
usemtl Material__247
s 1
f 292/224/71 293/225/71 294/226/71 
f 292/224/71 294/226/71 295/227/71 
f 296/226/72 297/228/72 298/229/72 
f 296/226/72 298/229/72 299/227/72 
# 0 polygons - 4 triangles

#
# object Nemu_101904F9_0_027
#

v  1.9749 0.0000 -0.3501
v  1.9749 0.8020 -0.3501
v  1.9749 0.8020 0.3079
v  1.9749 -0.0000 0.3079
# 4 vertices

vn 1.0000 0.0000 -0.0000
# 1 vertex normals

vt 1.0000 0.0000 0.0000
vt 1.0000 1.0000 0.0000
vt 0.0000 1.0000 0.0000
vt 0.0000 0.0000 0.0000
# 4 texture coords

g Nemu_101904F9_0_027
usemtl Material__253
s 1
f 300/230/73 301/231/73 302/232/73 
f 300/230/73 302/232/73 303/233/73 
# 0 polygons - 2 triangles

#
# object Nemu_101904F9_0_028
#

v  0.9569 -0.0000 0.6749
v  1.9749 -0.0000 0.6749
v  1.9749 0.8020 0.6749
v  0.9569 0.8020 0.6749
# 4 vertices

vn 0.0000 -0.0000 1.0000
# 1 vertex normals

vt 0.0000 0.0000 0.0000
vt 1.0000 0.0000 0.0000
vt 1.0000 1.0000 0.0000
vt 0.0000 1.0000 0.0000
# 4 texture coords

g Nemu_101904F9_0_028
usemtl Material__254
s 1
f 304/234/74 305/235/74 306/236/74 
f 304/234/74 306/236/74 307/237/74 
# 0 polygons - 2 triangles

#
# object Nemu_227262A9_0_021
#

v  -1.6501 -3.6940 -0.3811
v  -1.6501 -0.8220 -0.3811
v  -1.6501 -0.8220 -1.1011
v  -1.6501 -3.6940 -1.1011
v  1.9849 -0.8220 -1.1011
v  1.9849 -0.8220 -0.3811
v  1.9849 -3.6960 -0.3811
v  1.9849 -3.6960 -1.1011
# 8 vertices

vn -1.0000 0.0000 -0.0000
vn 1.0000 0.0000 -0.0000
# 2 vertex normals

vt 0.9980 0.0059 0.0000
vt 0.9980 4.0039 0.0000
vt 0.0000 4.0039 0.0000
vt 0.0000 0.0059 0.0000
vt 0.9980 0.0039 0.0000
vt 0.0000 0.0039 0.0000
# 6 texture coords

g Nemu_227262A9_0_021
usemtl Material__255
s 1
f 308/238/75 309/239/75 310/240/75 
f 308/238/75 310/240/75 311/241/75 
f 312/240/76 313/239/76 314/242/76 
f 312/240/76 314/242/76 315/243/76 
# 0 polygons - 4 triangles

#
# object Nemu_227262A9_0_022
#

v  -1.6501 -10.0980 -0.3811
v  -1.6501 -4.5980 -0.3811
v  -1.6501 -4.5980 -1.1011
v  -1.6501 -10.0980 -1.1011
v  1.9849 -4.5960 -1.1011
v  1.9849 -4.5960 -0.3811
v  1.9849 -10.0980 -0.3811
v  1.9849 -10.0980 -1.1011
# 8 vertices

vn -1.0000 0.0000 -0.0000
vn 1.0000 0.0000 -0.0000
# 2 vertex normals

vt 0.9980 -0.0078 0.0000
vt 0.9980 5.9980 0.0000
vt 0.0000 5.9980 0.0000
vt 0.0000 -0.0078 0.0000
vt 0.0000 6.0000 0.0000
vt 0.9980 6.0000 0.0000
# 6 texture coords

g Nemu_227262A9_0_022
usemtl Material__257
s 1
f 316/244/77 317/245/77 318/246/77 
f 316/244/77 318/246/77 319/247/77 
f 320/248/78 321/249/78 322/244/78 
f 320/248/78 322/244/78 323/247/78 
# 0 polygons - 4 triangles

#
# object Nemu_227262A9_0_023
#

v  -1.6501 -0.8220 1.0589
v  -1.6501 -0.8220 0.3379
v  -1.6501 -3.6940 0.3379
v  -1.6501 -3.6940 1.0589
v  1.9849 -3.6960 0.3379
v  1.9849 -0.8220 0.3379
v  1.9849 -0.8220 1.0589
v  1.9849 -3.6960 1.0589
# 8 vertices

vn -1.0000 0.0000 -0.0000
vn 1.0000 0.0000 -0.0000
# 2 vertex normals

vt 1.0000 3.9863 0.0000
vt 0.0000 3.9863 0.0000
vt 0.0000 -0.0020 0.0000
vt 1.0000 -0.0020 0.0000
vt 0.0000 -0.0039 0.0000
vt 0.9980 3.9863 0.0000
vt 0.9980 -0.0039 0.0000
# 7 texture coords

g Nemu_227262A9_0_023
usemtl Material__256
s 1
f 324/250/79 325/251/79 326/252/79 
f 324/250/79 326/252/79 327/253/79 
f 328/254/80 329/251/80 330/255/80 
f 328/254/80 330/255/80 331/256/80 
# 0 polygons - 4 triangles

#
# object Nemu_227262A9_0_024
#

v  -1.6501 -10.0980 1.0589
v  -1.6501 -4.5980 1.0589
v  -1.6501 -4.5980 0.3379
v  -1.6501 -10.0980 0.3379
v  1.9849 -10.0980 0.3379
v  1.9849 -4.5960 0.3379
v  1.9849 -4.5960 1.0589
v  1.9849 -10.0980 1.0589
# 8 vertices

vn -1.0000 0.0000 -0.0000
vn 1.0000 0.0000 -0.0000
# 2 vertex normals

vt 1.0000 0.0000 0.0000
vt 1.0000 6.0000 0.0000
vt 0.0000 6.0000 0.0000
vt 0.0000 0.0000 0.0000
vt 0.9961 5.9844 0.0000
vt 0.9980 0.0000 0.0000
# 6 texture coords

g Nemu_227262A9_0_024
usemtl Material__258
s 1
f 332/257/81 333/258/81 334/259/81 
f 332/257/81 334/259/81 335/260/81 
f 336/260/82 337/259/82 338/261/82 
f 336/260/82 338/261/82 339/262/82 
# 0 polygons - 4 triangles

#
# object Nemu_227262A9_0_025
#

v  -1.6501 -3.6940 1.0589
v  0.4909 -0.8220 1.0589
v  -1.6501 -0.8220 1.0589
v  0.9919 -3.6940 1.0589
v  0.9919 -0.8220 1.0589
# 5 vertices

vn 0.0000 -0.0000 1.0000
# 1 vertex normals

vt 0.0059 0.0020 0.0000
vt 4.0391 3.9844 0.0000
vt 0.0059 3.9844 0.0000
vt 4.9844 0.0020 0.0000
vt 4.9844 3.9844 0.0000
# 5 texture coords

g Nemu_227262A9_0_025
usemtl Material__259
s 1
f 340/263/83 341/264/83 342/265/83 
f 343/266/83 341/264/83 340/263/83 
f 343/266/83 344/267/83 341/264/83 
# 0 polygons - 3 triangles

#
# object Nemu_227262A9_0_026
#

v  -1.6501 -10.0970 1.0589
v  0.9919 -4.5980 1.0589
v  -1.6501 -4.5980 1.0589
v  0.9919 -10.0970 1.0589
# 4 vertices

vn 0.0000 -0.0000 1.0000
# 1 vertex normals

vt 0.0000 -0.0293 0.0000
vt 5.0352 6.0000 0.0000
vt 0.0000 6.0000 0.0000
vt 5.0352 -0.0293 0.0000
# 4 texture coords

g Nemu_227262A9_0_026
usemtl Material__260
s 1
f 345/268/84 346/269/84 347/270/84 
f 345/268/84 348/271/84 346/269/84 
# 0 polygons - 2 triangles

#
# object Nemu_1340946F_0_011
#

v  2.6189 -7.7300 -2.0591
v  2.6189 -3.3740 -3.2621
v  2.6189 -3.3740 -2.0591
v  2.6189 -7.7300 -3.2621
v  2.6189 0.9820 -3.2621
v  2.6189 0.9820 -2.0591
# 6 vertices

vn 1.0000 0.0000 -0.0000
# 1 vertex normals

vt 4.0000 0.0000 0.0000
vt 0.0000 8.0000 0.0000
vt 4.0000 7.9980 0.0000
vt 0.0000 0.0000 0.0000
vt 0.0000 16.0000 0.0000
vt 4.0000 16.0000 0.0000
# 6 texture coords

g Nemu_1340946F_0_011
usemtl Material__262
s 1
f 349/272/85 350/273/85 351/274/85 
f 350/273/85 349/272/85 352/275/85 
f 351/274/85 353/276/85 354/277/85 
f 353/276/85 351/274/85 350/273/85 
# 0 polygons - 4 triangles

#
# object Nemu_1340946F_0_012
#

v  0.4639 -7.7300 -2.0591
v  2.6189 -3.3740 -2.0591
v  0.4639 -3.3740 -2.0591
v  2.6189 -7.7300 -2.0591
v  2.6189 0.9820 -2.0591
v  0.4639 0.9820 -2.0591
# 6 vertices

vn 0.0000 -0.0000 1.0000
# 1 vertex normals

vt 0.0000 0.0000 0.0000
vt 8.0000 8.0000 0.0000
vt 0.0000 8.0000 0.0000
vt 8.0000 0.0000 0.0000
vt 8.0000 16.0000 0.0000
vt 0.0000 16.0000 0.0000
# 6 texture coords

g Nemu_1340946F_0_012
usemtl Material__263
s 1
f 355/278/86 356/279/86 357/280/86 
f 356/279/86 355/278/86 358/281/86 
f 357/280/86 359/282/86 360/283/86 
f 359/282/86 357/280/86 356/279/86 
# 0 polygons - 4 triangles

#
# object Nemu_1340946F_0_013
#

v  0.4639 -7.7300 -3.2621
v  0.4639 -3.3740 -2.0591
v  0.4639 -3.3740 -3.2621
v  0.4639 -7.7300 -2.0591
v  0.4639 0.9820 -2.0591
v  0.4639 0.9820 -3.2621
# 6 vertices

vn -1.0000 0.0000 -0.0000
# 1 vertex normals

vt 0.0000 0.0000 0.0000
vt 4.0000 8.0000 0.0000
vt 0.0000 7.9980 0.0000
vt 4.0000 0.0000 0.0000
vt 4.0000 16.0000 0.0000
vt 0.0000 16.0000 0.0000
# 6 texture coords

g Nemu_1340946F_0_013
usemtl Material__261
s 1
f 361/284/87 362/285/87 363/286/87 
f 362/285/87 361/284/87 364/287/87 
f 363/286/87 365/288/87 366/289/87 
f 365/288/87 363/286/87 362/285/87 
# 0 polygons - 4 triangles

#
# object Nemu_B7ED861_0_016
#

v  -1.6021 -0.3690 -1.0051
v  -0.4751 -0.3690 -1.0051
v  -0.4751 -0.1960 -1.0051
v  -1.6021 -0.1960 -1.0051
v  0.4899 0.0000 -1.0051
v  0.4899 0.1730 -1.0051
# 6 vertices

vn 0.0000 -0.0000 1.0000
# 1 vertex normals

vt 0.0000 0.0000 0.0000
vt 6.0000 0.0000 0.0000
vt 6.0000 1.0000 0.0000
vt 0.0000 1.0000 0.0000
# 4 texture coords

g Nemu_B7ED861_0_016
usemtl Material__279
s 1
f 367/290/88 368/291/88 369/292/88 
f 367/290/88 369/292/88 370/293/88 
f 368/290/88 371/291/88 372/292/88 
f 368/290/88 372/292/88 369/293/88 
# 0 polygons - 4 triangles

#
# object Nemu_B7ED861_0_017
#

v  1.9369 0.0000 -1.0051
v  1.9369 0.1730 -1.0051
v  0.4899 0.1730 -1.0051
v  0.4899 0.0000 -1.0051
# 4 vertices

vn 0.0000 -0.0000 1.0000
# 1 vertex normals

vt 7.0000 0.0000 0.0000
vt 7.0000 1.0000 0.0000
vt 0.0000 1.0000 0.0000
vt 0.0000 0.0000 0.0000
# 4 texture coords

g Nemu_B7ED861_0_017
usemtl Material__279
s 1
f 373/294/89 374/295/89 375/296/89 
f 373/294/89 375/296/89 376/297/89 
# 0 polygons - 2 triangles

#
# object Nemu_B7ED861_0_018
#

v  -1.6021 -0.3690 -1.0051
v  -1.6021 -0.1960 -0.3801
v  -1.6021 -0.3690 -0.3801
v  -1.6021 -0.1960 -1.0051
# 4 vertices

vn 1.0000 0.0000 -0.0000
# 1 vertex normals

vt 0.0000 0.0000 0.0000
vt 3.0000 1.0000 0.0000
vt 3.0000 0.0000 0.0000
vt 0.0000 1.0000 0.0000
# 4 texture coords

g Nemu_B7ED861_0_018
usemtl Material__279
s 1
f 377/298/90 378/299/90 379/300/90 
f 377/298/90 380/301/90 378/299/90 
# 0 polygons - 2 triangles

#
# object Nemu_B7ED861_0_019
#

v  1.9369 0.1730 -0.7341
v  1.9369 0.0000 -1.0051
v  1.9369 0.0000 -0.7341
v  1.9369 0.1730 -1.0051
# 4 vertices

vn -1.0000 0.0000 -0.0000
# 1 vertex normals

vt 2.0000 1.0000 0.0000
vt 0.0000 0.0000 0.0000
vt 2.0000 0.0000 0.0000
vt 0.0000 1.0000 0.0000
# 4 texture coords

g Nemu_B7ED861_0_019
usemtl Material__279
s 1
f 381/302/91 382/303/91 383/304/91 
f 381/302/91 384/305/91 382/303/91 
# 0 polygons - 2 triangles

#
# object Nemu_B7ED861_0_020
#

v  1.9369 -0.0000 1.0009
v  1.9369 0.1730 1.0009
v  1.9369 0.1730 0.6749
v  1.9369 -0.0000 0.6749
# 4 vertices

vn -1.0000 0.0000 -0.0000
# 1 vertex normals

vt 2.0000 0.0000 0.0000
vt 2.0000 1.0000 0.0000
vt 0.0000 1.0000 0.0000
vt 0.0000 0.0000 0.0000
# 4 texture coords

g Nemu_B7ED861_0_020
usemtl Material__279
s 1
f 385/306/92 386/307/92 387/308/92 
f 385/306/92 387/308/92 388/309/92 
# 0 polygons - 2 triangles

#
# object Nemu_B7ED861_0_021
#

v  -1.6021 -0.3690 0.3379
v  -1.6021 -0.1960 1.0009
v  -1.6021 -0.3690 1.0009
v  -1.6021 -0.1960 0.3379
# 4 vertices

vn 1.0000 0.0000 -0.0000
# 1 vertex normals

vt 0.0000 0.0000 0.0000
vt 3.0000 1.0000 0.0000
vt 3.0000 0.0000 0.0000
vt 0.0000 1.0000 0.0000
# 4 texture coords

g Nemu_B7ED861_0_021
usemtl Material__279
s 1
f 389/310/93 390/311/93 391/312/93 
f 389/310/93 392/313/93 390/311/93 
# 0 polygons - 2 triangles

#
# object Nemu_B7ED861_0_022
#

v  -1.6021 -0.3690 1.0009
v  -0.4751 -0.3690 1.0009
v  -0.4751 -0.1960 1.0009
v  -1.6021 -0.1960 1.0009
v  0.4899 -0.0000 1.0009
v  0.4899 0.1730 1.0009
# 6 vertices

vn 0.0000 -0.0000 1.0000
# 1 vertex normals

vt 0.0000 0.0000 0.0000
vt 6.0000 0.0000 0.0000
vt 6.0000 1.0000 0.0000
vt 0.0000 1.0000 0.0000
# 4 texture coords

g Nemu_B7ED861_0_022
usemtl Material__279
s 1
f 393/314/94 394/315/94 395/316/94 
f 393/314/94 395/316/94 396/317/94 
f 394/314/94 397/315/94 398/316/94 
f 394/314/94 398/316/94 395/317/94 
# 0 polygons - 4 triangles

#
# object Nemu_B7ED861_0_023
#

v  1.9369 -0.0000 1.0009
v  1.9369 0.1730 1.0009
v  0.4899 0.1730 1.0009
v  0.4899 -0.0000 1.0009
# 4 vertices

vn 0.0000 -0.0000 1.0000
# 1 vertex normals

vt 7.0000 0.0000 0.0000
vt 7.0000 1.0000 0.0000
vt 0.0000 1.0000 0.0000
vt 0.0000 0.0000 0.0000
# 4 texture coords

g Nemu_B7ED861_0_023
usemtl Material__279
s 1
f 399/318/95 400/319/95 401/320/95 
f 399/318/95 401/320/95 402/321/95 
# 0 polygons - 2 triangles

#
# object Nemu_B8DD00D_0_036
#

v  1.0089 0.0000 -0.3811
v  1.9849 -0.0000 0.3379
v  1.9849 0.0000 -0.3811
v  1.0089 -0.0000 0.3379
# 4 vertices

vn 0.0000 1.0000 0.0000
# 1 vertex normals

vt 0.0518 0.0000 0.0000
vt 0.8188 4.9961 0.0000
vt 0.8188 0.0000 0.0000
vt 0.0518 4.9961 0.0000
# 4 texture coords

g Nemu_B8DD00D_0_036
usemtl Material__273
s 1
f 403/322/96 404/323/96 405/324/96 
f 403/322/96 406/325/96 404/323/96 
# 0 polygons - 2 triangles

#
# object Nemu_B8DD00D_0_037
#

v  1.9749 0.8020 -0.3501
v  0.9569 0.0000 -0.3501
v  1.9749 0.0000 -0.3501
v  0.9569 0.8020 -0.3501
# 4 vertices

vn 0.0000 -0.0000 1.0000
# 1 vertex normals

vt 1.0000 7.0000 0.0000
vt 0.0000 0.0000 0.0000
vt 1.0000 0.0000 0.0000
vt 0.0000 7.0000 0.0000
# 4 texture coords

g Nemu_B8DD00D_0_037
usemtl Material__272
s 1
f 407/326/97 408/327/97 409/328/97 
f 410/329/97 408/327/97 407/326/97 
# 0 polygons - 2 triangles

#
# object Nemu_C5B8FA9_0_031
#

v  -3.6011 -10.0180 -0.7081
v  -3.6011 -5.8180 0.4259
v  -3.6011 -5.8180 -0.7081
v  -3.6011 -10.0180 0.4259
v  -3.6011 -1.6190 0.4259
v  -3.6011 -1.6190 -0.7081
v  -2.4671 -10.0180 0.4259
v  -2.4671 -5.8180 -0.7081
v  -2.4671 -5.8180 0.4259
v  -2.4671 -10.0180 -0.7081
v  -2.4671 -1.6190 -0.7081
v  -2.4671 -1.6190 0.4259
# 12 vertices

vn -1.0000 0.0000 -0.0000
vn 1.0000 0.0000 -0.0000
vn 0.0000 -0.0000 1.0000
# 3 vertex normals

vt 0.0000 0.0000 0.0000
vt 3.0000 9.0000 0.0000
vt 0.0000 9.0000 0.0000
vt 3.0000 0.0000 0.0000
vt 3.0000 18.0000 0.0000
vt 0.0000 18.0000 0.0000
vt 2.9980 0.0000 0.0000
vt 2.9980 9.0000 0.0000
vt 2.9980 18.0000 0.0000
# 9 texture coords

g Nemu_C5B8FA9_0_031
usemtl Material__274
s 1
f 411/330/98 412/331/98 413/332/98 
f 412/331/98 411/330/98 414/333/98 
f 413/332/98 415/334/98 416/335/98 
f 415/334/98 413/332/98 412/331/98 
f 417/336/99 418/332/99 419/337/99 
f 418/332/99 417/336/99 420/330/99 
f 419/337/99 421/335/99 422/338/99 
f 421/335/99 419/337/99 418/332/99 
f 414/330/100 419/331/100 412/332/100 
f 419/331/100 414/330/100 417/333/100 
f 412/332/100 422/334/100 415/335/100 
f 422/334/100 412/332/100 419/331/100 
# 0 polygons - 12 triangles

