# 3ds Max Wavefront OBJ Exporter v0.97b - (c)2007 guruware
# File Created: 02.11.2016 07:30:49

mtllib mk.mtl

#
# object Nemu_29ADBB9B_0_018
#

v  -0.8780 -6.1810 0.2040
v  -0.8780 -0.0000 0.2040
v  -0.8780 -0.0000 0.6200
v  -0.8780 -6.1810 0.6200
# 4 vertices

vn 1.0000 0.0000 -0.0000
# 1 vertex normals

vt 0.0000 0.0000 0.0000
vt 0.0000 15.9375 0.0000
vt 0.8945 15.9375 0.0000
vt 0.8945 0.0000 0.0000
# 4 texture coords

g Nemu_29ADBB9B_0_018
usemtl Material__294
s 1
f 1/1/1 2/2/1 3/3/1 
f 1/1/1 3/3/1 4/4/1 
# 0 polygons - 2 triangles

#
# object Nemu_29ADBB9B_0_017
#

v  -0.8780 -6.1810 0.6200
v  -0.8780 -0.0000 0.6200
v  -7.6420 -0.0000 0.6120
v  -7.6420 -6.1200 0.6120
# 4 vertices

vn -0.0012 -0.0000 1.0000
# 1 vertex normals

vt 16.8828 0.0000 0.0000
vt 16.8828 15.9375 0.0000
vt -0.0527 15.9375 0.0000
vt -0.0527 0.1563 0.0000
# 4 texture coords

g Nemu_29ADBB9B_0_017
usemtl Material__293
s 1
f 5/5/2 6/6/2 7/7/2 
f 5/5/2 7/7/2 8/8/2 
# 0 polygons - 2 triangles

#
# object Nemu_29ADBB9B_0_016
#

v  0.8630 -6.1810 0.6200
v  0.8630 -0.0000 0.6200
v  0.8630 -0.0000 0.2040
v  0.8630 -6.1810 0.2040
# 4 vertices

vn -1.0000 0.0000 -0.0000
# 1 vertex normals

vt 0.9375 0.0000 0.0000
vt 0.9375 15.9375 0.0000
vt 0.0000 15.9375 0.0000
vt 0.0000 0.0000 0.0000
# 4 texture coords

g Nemu_29ADBB9B_0_016
usemtl Material__292
s 1
f 9/9/3 10/10/3 11/11/3 
f 9/9/3 11/11/3 12/12/3 
# 0 polygons - 2 triangles

#
# object Nemu_29ADBB9B_0_015
#

v  0.8630 -6.1810 0.6200
v  7.6330 -6.1810 0.6200
v  7.6330 -0.0000 0.6200
v  0.8630 -0.0000 0.6200
# 4 vertices

vn 0.0000 -0.0000 1.0000
# 1 vertex normals

vt 0.0000 0.0000 0.0000
vt 16.9375 0.0000 0.0000
vt 16.9375 15.9375 0.0000
vt 0.0000 15.9375 0.0000
# 4 texture coords

g Nemu_29ADBB9B_0_015
usemtl Material__291
s 1
f 13/13/4 14/14/4 15/15/4 
f 13/13/4 15/15/4 16/16/4 
# 0 polygons - 2 triangles

#
# object Nemu_6AEFB822_0_053
#

v  -1.3300 -0.0040 0.5130
v  -1.3300 0.2280 0.5130
v  -2.4010 0.2280 0.5130
v  -2.4010 -0.0040 0.5130
# 4 vertices

vn 0.0000 -0.0000 1.0000
# 1 vertex normals

vt 5.9375 0.0000 0.0000
vt 5.9375 0.5391 0.0000
vt 0.0000 0.5391 0.0000
vt 0.0000 0.0000 0.0000
# 4 texture coords

g Nemu_6AEFB822_0_053
usemtl Material__272
s 1
f 17/17/5 18/18/5 19/19/5 
f 17/17/5 19/19/5 20/20/5 
# 0 polygons - 2 triangles

#
# object Nemu_6AEFB822_0_052
#

v  2.9100 -0.0000 0.5100
v  2.9100 0.2250 0.5100
v  1.2000 0.2250 0.5100
v  1.2000 -0.0000 0.5100
# 4 vertices

vn 0.0000 -0.0000 1.0000
# 1 vertex normals

vt 9.9375 0.0000 0.0000
vt 9.9375 0.5391 0.0000
vt 0.0000 0.5391 0.0000
vt 0.0000 0.0000 0.0000
# 4 texture coords

g Nemu_6AEFB822_0_052
usemtl Material__272
s 1
f 21/21/6 22/22/6 23/23/6 
f 21/21/6 23/23/6 24/24/6 
# 0 polygons - 2 triangles

#
# object Nemu_29ADBB9B_0_014
#

v  0.8630 -0.0000 0.6200
v  7.6330 -0.0000 0.6200
v  7.6330 -0.0000 0.2040
v  0.8630 -0.0000 0.2040
v  -7.6420 -0.0000 0.2040
v  -0.8780 -0.0000 0.6200
v  -0.8780 -0.0000 0.2040
v  -7.6420 -0.0000 0.6120
# 8 vertices

vn 0.0000 1.0000 0.0000
# 1 vertex normals

vt 0.0000 0.9375 0.0000
vt 16.9375 0.9375 0.0000
vt 16.9355 0.0000 0.0000
vt 0.0000 0.0000 0.0000
vt -0.0527 0.0000 0.0000
vt 16.8828 0.9375 0.0000
vt 16.8828 0.0000 0.0000
vt -0.0527 0.9199 0.0000
# 8 texture coords

g Nemu_29ADBB9B_0_014
usemtl Material__290
s 1
f 25/25/7 26/26/7 27/27/7 
f 25/25/7 27/27/7 28/28/7 
f 29/29/7 30/30/7 31/31/7 
f 29/29/7 32/32/7 30/30/7 
# 0 polygons - 4 triangles

#
# object Nemu_2E5E08CE_0_050
#

v  3.0900 -0.3600 -0.0240
v  3.0900 0.0600 -0.0240
v  2.7300 0.0600 -0.0240
v  2.7300 -0.3600 -0.0240
# 4 vertices

vn 0.0000 -0.0000 1.0000
# 1 vertex normals

vt 1.0078 0.0000 0.0000
vt 1.0078 1.0000 0.0000
vt 0.0078 1.0000 0.0000
vt 0.0078 0.0000 0.0000
# 4 texture coords

g Nemu_2E5E08CE_0_050
usemtl Material__270
s 1
f 33/33/8 34/34/8 35/35/8 
f 33/33/8 35/35/8 36/36/8 
# 0 polygons - 2 triangles

#
# object Nemu_2E5E08CE_0_049
#

v  -2.5760 1.6050 -0.0240
v  -2.5760 2.0250 -0.0240
v  -2.9360 2.0250 -0.0240
v  -2.9360 1.6050 -0.0240
# 4 vertices

vn 0.0000 -0.0000 1.0000
# 1 vertex normals

vt 1.0078 0.0000 0.0000
vt 1.0078 1.0000 0.0000
vt 0.0078 1.0000 0.0000
vt 0.0078 0.0000 0.0000
# 4 texture coords

g Nemu_2E5E08CE_0_049
usemtl Material__270
s 1
f 37/37/9 38/38/9 39/39/9 
f 37/37/9 39/39/9 40/40/9 
# 0 polygons - 2 triangles

#
# object Nemu_C27387_0_047
#

v  0.0470 0.4260 0.2550
v  0.7930 0.4260 0.2550
v  0.7930 0.4260 -0.2550
v  0.0470 0.4260 -0.2550
# 4 vertices

vn 0.0000 1.0000 0.0000
# 1 vertex normals

vt 0.0000 0.4844 0.0000
vt 0.9375 0.4844 0.0000
vt 0.9375 0.5000 0.0000
# 3 texture coords

g Nemu_C27387_0_047
usemtl Material__311
s 1
f 41/41/10 42/42/10 43/43/10 
f 41/41/10 43/43/10 44/41/10 
# 0 polygons - 2 triangles

#
# object Nemu_230348DA_0_046
#

v  0.0470 0.4260 0.2550
v  0.0470 0.2980 -0.2550
v  0.0470 0.2980 0.2550
v  0.0470 0.4260 -0.2550
v  0.7930 0.2980 -0.2550
v  0.7930 0.4260 0.2550
v  0.7930 0.2980 0.2550
v  0.7930 0.4260 -0.2550
# 8 vertices

vn -1.0000 0.0000 -0.0000
vn 1.0000 0.0000 -0.0000
vn 0.0000 -0.0000 1.0000
# 3 vertex normals

vt 0.0000 0.9355 0.0000
vt 0.0000 0.0000 0.0000
vt 5.9375 0.0000 0.0000
vt 5.9375 0.9355 0.0000
vt 5.9375 0.9375 0.0000
# 5 texture coords

g Nemu_230348DA_0_046
usemtl Material__305
s 1
f 45/44/11 46/45/11 47/45/11 
f 45/44/11 48/44/11 46/45/11 
f 49/46/12 50/47/12 51/46/12 
f 49/46/12 52/48/12 50/47/12 
f 51/46/13 45/44/13 47/45/13 
f 51/46/13 50/47/13 45/44/13 
# 0 polygons - 6 triangles

#
# object Nemu_C27387_0_046
#

v  -0.7900 0.4270 0.2550
v  -0.0440 0.4270 0.2550
v  -0.0440 0.4270 -0.2550
v  -0.7900 0.4270 -0.2550
# 4 vertices

vn 0.0000 1.0000 0.0000
# 1 vertex normals

vt 0.0000 0.4844 0.0000
vt 0.9375 0.4844 0.0000
vt 0.9375 0.5000 0.0000
# 3 texture coords

g Nemu_C27387_0_046
usemtl Material__310
s 1
f 53/49/14 54/50/14 55/51/14 
f 53/49/14 55/51/14 56/49/14 
# 0 polygons - 2 triangles

#
# object Nemu_230348DA_0_045
#

v  -0.7900 0.4270 0.2550
v  -0.7900 0.2990 -0.2550
v  -0.7900 0.2990 0.2550
v  -0.7900 0.4270 -0.2550
v  -0.0440 0.2990 -0.2550
v  -0.0440 0.4270 0.2550
v  -0.0440 0.2990 0.2550
v  -0.0440 0.4270 -0.2550
# 8 vertices

vn -1.0000 0.0000 -0.0000
vn 1.0000 0.0000 -0.0000
vn 0.0000 -0.0000 1.0000
# 3 vertex normals

vt 0.0000 0.9355 0.0000
vt 0.0000 0.0000 0.0000
vt 5.9375 0.0000 0.0000
vt 5.9375 0.9355 0.0000
vt 5.9375 0.9375 0.0000
# 5 texture coords

g Nemu_230348DA_0_045
usemtl Material__304
s 1
f 57/52/15 58/53/15 59/53/15 
f 57/52/15 60/52/15 58/53/15 
f 61/54/16 62/55/16 63/54/16 
f 61/54/16 64/56/16 62/55/16 
f 63/54/17 57/52/17 59/53/17 
f 63/54/17 62/55/17 57/52/17 
# 0 polygons - 6 triangles

#
# object Nemu_0_0_044
#

v  -0.4300 0.4220 0.0000
v  -0.4110 0.4220 0.0000
v  -0.4110 1.7562 0.0000
v  -0.4300 1.7562 0.0000
# 4 vertices

vn 0.0000 -0.0000 1.0000
# 1 vertex normals

g Nemu_0_0_044
usemtl Material__315
s 1
f 65//18 66//18 67//18 
f 65//18 67//18 68//18 
# 0 polygons - 2 triangles

#
# object Nemu_0_0_043
#

v  -0.4300 1.7562 0.0000
v  -0.4110 1.9523 0.0000
v  -0.4300 1.9523 0.0000
v  -0.4110 1.7562 0.0000
# 4 vertices

vn 0.0000 -0.0000 1.0000
# 1 vertex normals

g Nemu_0_0_043
usemtl Material__314
s 1
f 69//19 70//19 71//19 
f 69//19 72//19 70//19 
# 0 polygons - 2 triangles

#
# object Nemu_0_0_042
#

v  0.4080 0.4190 0.0000
v  0.4270 0.4190 0.0000
v  0.4270 1.7542 0.0000
v  0.4080 1.7542 0.0000
# 4 vertices

vn 0.0000 -0.0000 1.0000
# 1 vertex normals

g Nemu_0_0_042
usemtl Material__317
s 1
f 73//20 74//20 75//20 
f 73//20 75//20 76//20 
# 0 polygons - 2 triangles

#
# object Nemu_0_0_041
#

v  0.4080 1.7542 0.0000
v  0.4270 1.9522 0.0000
v  0.4080 1.9522 0.0000
v  0.4270 1.7542 0.0000
# 4 vertices

vn 0.0000 -0.0000 1.0000
# 1 vertex normals

g Nemu_0_0_041
usemtl Material__316
s 1
f 77//21 78//21 79//21 
f 77//21 80//21 78//21 
# 0 polygons - 2 triangles

#
# object Nemu_0_0_040
#

v  -0.3560 2.0060 0.0000
v  0.3560 2.0060 0.0000
v  0.3560 2.0260 0.0000
v  -0.3560 2.0260 0.0000
# 4 vertices

vn 0.0000 -0.0000 1.0000
# 1 vertex normals

g Nemu_0_0_040
usemtl Material__318
s 1
f 81//22 82//22 83//22 
f 81//22 83//22 84//22 
# 0 polygons - 2 triangles

#
# object Nemu_127E1E19_0_039
#

v  -0.2890 1.8890 0.0000
v  -0.2890 2.0160 0.0000
v  -0.4160 2.0160 0.0000
v  -0.4160 1.8890 0.0000
v  0.4160 1.8890 0.0000
v  0.4160 2.0160 0.0000
v  0.2890 2.0160 0.0000
v  0.2890 1.8890 0.0000
# 8 vertices

vn 0.0000 -0.0000 1.0000
# 1 vertex normals

vt 0.9375 0.0000 0.0000
vt 0.9375 0.8750 0.0000
vt 0.0000 0.8750 0.0000
vt 0.0000 0.0000 0.0000
# 4 texture coords

g Nemu_127E1E19_0_039
usemtl Material__279
s 1
f 85/57/23 86/58/23 87/59/23 
f 85/57/23 87/59/23 88/60/23 
f 89/57/23 90/58/23 91/59/23 
f 89/57/23 91/59/23 92/60/23 
# 0 polygons - 4 triangles

#
# object Nemu_4401DF8A_0_038
#

v  -7.6420 0.0000 -0.2040
v  -0.8780 -0.0000 0.2040
v  -0.8780 0.0000 -0.2040
v  -7.6420 -0.0000 0.2040
v  0.8630 0.0000 -0.2040
v  7.6330 -0.0000 0.2040
v  7.6330 0.0000 -0.2040
v  0.8630 -0.0000 0.2040
# 8 vertices

vn 0.0000 1.0000 0.0000
# 1 vertex normals

vt 0.0000 0.0000 0.0000
vt 13.9375 0.8750 0.0000
vt 13.9375 0.0000 0.0000
vt 0.0000 0.8750 0.0000
# 4 texture coords

g Nemu_4401DF8A_0_038
usemtl Material__298
s 1
f 93/61/24 94/62/24 95/63/24 
f 93/61/24 96/64/24 94/62/24 
f 97/61/24 98/62/24 99/63/24 
f 97/61/24 100/64/24 98/62/24 
# 0 polygons - 4 triangles

#
# object Nemu_4401DF8A_0_037
#

v  1.6000 1.6160 0.2300
v  2.5970 1.6160 0.2300
v  2.5970 1.6160 -0.2300
v  1.6000 1.6160 -0.2300
# 4 vertices

vn 0.0000 1.0000 0.0000
# 1 vertex normals

vt 0.0000 2.8750 0.0000
vt 6.9375 2.8750 0.0000
vt 6.9375 0.0000 0.0000
vt 0.0000 0.0000 0.0000
# 4 texture coords

g Nemu_4401DF8A_0_037
usemtl Material__297
s 1
f 101/65/25 102/66/25 103/67/25 
f 101/65/25 103/67/25 104/68/25 
# 0 polygons - 2 triangles

#
# object Nemu_4401DF8A_0_036
#

v  -2.0250 1.1660 0.2300
v  -2.0250 1.0380 -0.2290
v  -2.0250 1.0380 0.2300
v  -2.0250 1.1660 -0.2300
v  -0.8750 1.0380 -0.2290
v  -0.8750 1.1660 0.2300
v  -0.8750 1.0380 0.2300
v  -0.8750 1.1660 -0.2300
v  1.1500 0.7910 0.2300
v  1.1500 0.6630 -0.2290
v  1.1500 0.6630 0.2300
v  1.1500 0.7910 -0.2300
v  2.2970 0.6630 -0.2290
v  2.2970 0.7910 0.2300
v  2.2970 0.6630 0.2300
v  2.2970 0.7910 -0.2300
v  1.6000 1.6160 0.2300
v  1.6000 1.4880 -0.2290
v  1.6000 1.4880 0.2300
v  1.6000 1.6160 -0.2300
v  2.5970 1.4880 -0.2290
v  2.5970 1.6160 0.2300
v  2.5970 1.4880 0.2300
v  2.5970 1.6160 -0.2300
# 24 vertices

vn -1.0000 0.0000 -0.0000
vn 1.0000 0.0000 -0.0000
# 2 vertex normals

vt 2.9375 0.8750 0.0000
vt 0.0000 0.0000 0.0000
vt 2.9375 0.0000 0.0000
vt 0.0000 0.8750 0.0000
vt 2.9355 0.8750 0.0000
vt 2.9355 0.0000 0.0000
# 6 texture coords

g Nemu_4401DF8A_0_036
usemtl Material__296
s 1
f 105/69/26 106/70/26 107/71/26 
f 105/69/26 108/72/26 106/70/26 
f 109/70/27 110/73/27 111/74/27 
f 109/70/27 112/72/27 110/73/27 
f 113/69/26 114/70/26 115/71/26 
f 113/69/26 116/72/26 114/70/26 
f 117/70/27 118/73/27 119/74/27 
f 117/70/27 120/72/27 118/73/27 
f 121/69/26 122/70/26 123/71/26 
f 121/69/26 124/72/26 122/70/26 
f 125/70/27 126/73/27 127/74/27 
f 125/70/27 128/72/27 126/73/27 
# 0 polygons - 12 triangles

#
# object Nemu_4401DF8A_0_035
#

v  -2.0250 1.1660 0.2300
v  -0.8750 1.1660 0.2300
v  -0.8750 1.1660 -0.2300
v  -2.0250 1.1660 -0.2300
v  1.1500 0.7910 0.2300
v  2.2970 0.7910 0.2300
v  2.2970 0.7910 -0.2300
v  1.1500 0.7910 -0.2300
# 8 vertices

vn 0.0000 1.0000 0.0000
# 1 vertex normals

vt 0.0000 2.8711 0.0000
vt 7.9375 2.8711 0.0000
vt 7.9375 0.0000 0.0000
vt 0.0000 0.0000 0.0000
vt 0.0000 2.8750 0.0000
vt 7.9375 2.8750 0.0000
# 6 texture coords

g Nemu_4401DF8A_0_035
usemtl Material__295
s 1
f 129/75/28 130/76/28 131/77/28 
f 129/75/28 131/77/28 132/78/28 
f 133/79/28 134/80/28 135/77/28 
f 133/79/28 135/77/28 136/78/28 
# 0 polygons - 4 triangles

#
# object Nemu_641669EA_0_034
#

v  -0.8750 1.0380 0.2300
v  -0.8750 1.1660 0.2300
v  -2.0250 1.1660 0.2300
v  -2.0250 1.0380 0.2300
v  2.2970 0.6630 0.2300
v  2.2970 0.7910 0.2300
v  1.1500 0.7910 0.2300
v  1.1500 0.6630 0.2300
# 8 vertices

vn 0.0000 -0.0000 1.0000
# 1 vertex normals

vt 7.9375 0.0000 0.0000
vt 7.9375 0.8750 0.0000
vt 0.0000 0.8750 0.0000
vt 0.0000 0.0000 0.0000
# 4 texture coords

g Nemu_641669EA_0_034
usemtl Material__309
s 1
f 137/81/29 138/82/29 139/83/29 
f 137/81/29 139/83/29 140/84/29 
f 141/81/29 142/82/29 143/83/29 
f 141/81/29 143/83/29 144/84/29 
# 0 polygons - 4 triangles

#
# object Nemu_641669EA_0_033
#

v  2.5970 1.4880 0.2300
v  2.5970 1.6160 0.2300
v  1.6000 1.6160 0.2300
v  1.6000 1.4880 0.2300
# 4 vertices

vn 0.0000 -0.0000 1.0000
# 1 vertex normals

vt 6.9375 0.0000 0.0000
vt 6.9375 0.8750 0.0000
vt 0.0000 0.8750 0.0000
vt 0.0000 0.0000 0.0000
# 4 texture coords

g Nemu_641669EA_0_033
usemtl Material__308
s 1
f 145/85/30 146/86/30 147/87/30 
f 145/85/30 147/87/30 148/88/30 
# 0 polygons - 2 triangles

#
# object Nemu_33041B5F_0_025
#

v  -0.8560 -1.3840 -0.2880
v  -0.8560 -0.8740 0.2280
v  -0.8560 -1.3840 0.2280
v  -0.8560 -0.8740 -0.2880
# 4 vertices

vn 1.0000 0.0000 -0.0000
# 1 vertex normals

vt 0.0000 0.9839 0.0000
vt 0.9844 0.0000 0.0000
vt 0.0000 0.0000 0.0000
vt 0.9839 0.9844 0.0000
# 4 texture coords

g Nemu_33041B5F_0_025
usemtl Material__283
s 1
f 149/89/31 150/90/31 151/91/31 
f 149/89/31 152/92/31 150/90/31 
# 0 polygons - 2 triangles

#
# object Nemu_29ADBB9B_0_013
#

v  -0.8780 -6.1810 -1.4150
v  -0.8780 0.0000 -1.4150
v  -0.8780 -0.0000 0.2040
v  -0.8780 -6.1810 0.2040
v  0.8630 -6.1810 0.2040
v  0.8630 -0.0000 0.2040
v  0.8630 0.0000 -1.4150
v  0.8630 -6.1810 -1.4150
# 8 vertices

vn 1.0000 0.0000 -0.0000
vn -1.0000 0.0000 -0.0000
# 2 vertex normals

vt -0.0313 0.0000 0.0000
vt -0.0313 15.9375 0.0000
vt 3.9043 15.9375 0.0000
vt 3.9043 0.0000 0.0000
vt 3.9375 0.0000 0.0000
vt 3.9375 15.9375 0.0000
vt 0.0000 15.9375 0.0000
vt 0.0000 0.0000 0.0000
# 8 texture coords

g Nemu_29ADBB9B_0_013
usemtl Material__289
s 1
f 153/93/32 154/94/32 155/95/32 
f 153/93/32 155/95/32 156/96/32 
f 157/97/33 158/98/33 159/99/33 
f 157/97/33 159/99/33 160/100/33 
# 0 polygons - 4 triangles

#
# object Nemu_29ADBB9B_0_012
#

v  -7.6400 0.0000 -0.6080
v  -0.8780 0.0000 -0.2040
v  -0.8780 0.0000 -0.6100
v  -7.6420 0.0000 -0.2040
v  0.8630 0.0000 -0.2040
v  7.6330 0.0000 -0.2040
v  7.6330 0.0000 -0.6080
v  0.8630 0.0000 -0.6100
# 8 vertices

vn 0.0000 1.0000 0.0000
# 1 vertex normals

vt 0.0039 0.0020 0.0000
vt 16.9375 0.9375 0.0000
vt 16.9375 0.0000 0.0000
vt 0.0000 0.9375 0.0000
vt 16.9375 0.9355 0.0000
vt 16.9355 0.0020 0.0000
vt 0.0000 0.0000 0.0000
# 7 texture coords

g Nemu_29ADBB9B_0_012
usemtl Material__288
s 1
f 161/101/34 162/102/34 163/103/34 
f 161/101/34 164/104/34 162/102/34 
f 165/104/34 166/105/34 167/106/34 
f 165/104/34 167/106/34 168/107/34 
# 0 polygons - 4 triangles

#
# object Nemu_477783F5_0_029
#

v  -2.5050 1.3050 0.2400
v  -7.6200 1.3050 -0.2400
v  -2.5050 1.3050 -0.2400
v  -7.6200 1.3050 0.2400
v  -7.6200 1.6050 0.2400
v  -2.5050 1.6050 0.2400
v  -2.5050 1.6050 -0.2400
v  -7.6200 1.6050 -0.2400
# 8 vertices

vn 0.0000 -1.0000 -0.0000
vn 0.0000 1.0000 0.0000
vn 0.0000 -0.0000 1.0000
# 3 vertex normals

vt 0.0000 0.0000 0.0000
vt 17.8750 1.8711 0.0000
vt 0.0000 1.8750 0.0000
vt 17.8750 0.0000 0.0000
vt 17.8750 1.8750 0.0000
# 5 texture coords

g Nemu_477783F5_0_029
usemtl Material__307
s 1
f 169/108/35 170/109/35 171/110/35 
f 169/108/35 172/111/35 170/109/35 
f 173/111/36 174/108/36 175/110/36 
f 173/111/36 175/110/36 176/109/36 
f 169/111/37 174/112/37 173/110/37 
f 169/111/37 173/110/37 172/108/37 
# 0 polygons - 6 triangles

#
# object Nemu_477783F5_0_028
#

v  -2.5050 1.3050 -0.2400
v  -2.5050 1.6050 0.2400
v  -2.5050 1.3050 0.2400
v  -2.5050 1.6050 -0.2400
# 4 vertices

vn 1.0000 0.0000 -0.0000
# 1 vertex normals

vt 0.0000 0.0000 0.0000
vt 2.8711 1.8750 0.0000
vt 2.8711 0.0000 0.0000
vt 0.0000 1.8750 0.0000
# 4 texture coords

g Nemu_477783F5_0_028
usemtl Material__306
s 1
f 177/113/38 178/114/38 179/115/38 
f 177/113/38 180/116/38 178/114/38 
# 0 polygons - 2 triangles

#
# object Nemu_7943BD05_0_025
#

v  -2.9200 1.5900 0.1610
v  -2.9200 2.1450 0.1610
v  -2.9940 2.1450 0.0000
v  -2.9940 1.5900 0.0000
v  -2.7600 1.5900 0.2340
v  -2.7600 2.1450 0.2340
v  -2.5990 1.5900 0.1610
v  -2.5990 2.1450 0.1610
v  -2.5260 2.1450 0.0000
v  -2.5260 1.5900 0.0000
# 10 vertices

vn -0.9086 -0.0000 0.4176
vn -0.4151 -0.0000 0.9098
vn 0.4130 -0.0000 0.9108
vn 0.9108 -0.0000 0.4130
# 4 vertex normals

vt 0.1367 0.1200 0.0000
vt 0.1367 0.9950 0.0000
vt 0.0000 0.9950 0.0000
vt 0.0000 0.1200 0.0000
vt 0.4375 0.1200 0.0000
vt 0.4375 0.9950 0.0000
vt 0.7344 0.1200 0.0000
vt 0.7344 0.9950 0.0000
vt 0.8750 0.9950 0.0000
vt 0.8750 0.1200 0.0000
# 10 texture coords

g Nemu_7943BD05_0_025
usemtl Material__303
s 1
f 181/117/39 182/118/39 183/119/39 
f 181/117/39 183/119/39 184/120/39 
f 185/121/40 186/122/40 182/118/40 
f 185/121/40 182/118/40 181/117/40 
f 187/123/41 188/124/41 186/122/41 
f 187/123/41 186/122/41 185/121/41 
f 189/125/42 187/123/42 190/126/42 
f 189/125/42 188/124/42 187/123/42 
# 0 polygons - 8 triangles

#
# object Nemu_33041B5F_0_024
#

v  -3.0940 2.2050 -0.1400
v  -2.8970 2.2050 0.3350
v  -2.4260 2.2050 0.1400
v  -2.6230 2.2050 -0.3350
# 4 vertices

vn 0.0000 1.0000 0.0000
# 1 vertex normals

vt 0.0015 0.0000 0.0000
vt 0.0015 0.9844 0.0000
vt 0.9824 0.9839 0.0000
vt 0.9824 0.0000 0.0000
# 4 texture coords

g Nemu_33041B5F_0_024
usemtl Material__283
s 1
f 191/127/43 192/128/43 193/129/43 
f 191/127/43 193/129/43 194/130/43 
# 0 polygons - 2 triangles

#
# object Nemu_7943BD05_0_024
#

v  -2.9560 2.2050 0.1960
v  -3.0370 2.0700 0.0000
v  -2.9560 2.0700 0.1960
v  -3.0370 2.2050 0.0000
v  -2.7600 2.2050 0.2770
v  -2.7600 2.0700 0.2770
v  -2.5640 2.2050 0.1960
v  -2.5640 2.0700 0.1960
v  -2.4830 2.2050 0.0000
v  -2.4830 2.0700 0.0000
# 10 vertices

vn -0.9242 -0.0000 0.3819
vn -0.3819 -0.0000 0.9242
vn 0.3819 -0.0000 0.9242
vn 0.9242 -0.0000 0.3819
# 4 vertex normals

vt 0.1211 0.8469 0.0000
vt -0.0078 -0.0242 0.0000
vt 0.1211 -0.0242 0.0000
vt -0.0078 0.8469 0.0000
vt 0.4414 0.8469 0.0000
vt 0.4414 -0.0242 0.0000
vt 0.7617 0.8469 0.0000
vt 0.7617 -0.0242 0.0000
vt 0.8945 0.8469 0.0000
vt 0.8945 -0.0242 0.0000
# 10 texture coords

g Nemu_7943BD05_0_024
usemtl Material__302
s 1
f 195/131/44 196/132/44 197/133/44 
f 198/134/44 196/132/44 195/131/44 
f 199/135/45 197/133/45 200/136/45 
f 195/131/45 197/133/45 199/135/45 
f 201/137/46 200/136/46 202/138/46 
f 199/135/46 200/136/46 201/137/46 
f 203/139/47 202/138/47 204/140/47 
f 201/137/47 202/138/47 203/139/47 
# 0 polygons - 8 triangles

#
# object Nemu_7943BD05_0_023
#

v  2.7500 -0.0000 0.1610
v  2.7500 0.1800 0.1610
v  2.6760 0.1800 0.0000
v  2.6760 0.0000 -0.0000
v  2.9100 -0.0000 0.2340
v  2.9100 0.1800 0.2340
v  3.0710 -0.0000 0.1610
v  3.0710 0.1800 0.1610
v  3.1440 0.1800 0.0000
v  3.1440 0.0000 -0.0000
# 10 vertices

vn -0.9086 -0.0000 0.4176
vn -0.4151 -0.0000 0.9098
vn 0.4130 -0.0000 0.9108
vn 0.9108 -0.0000 0.4130
# 4 vertex normals

vt 0.1367 0.7177 0.0000
vt 0.1367 0.9950 0.0000
vt 0.0000 0.9950 0.0000
vt 0.0000 0.7177 0.0000
vt 0.4375 0.7177 0.0000
vt 0.4375 0.9950 0.0000
vt 0.7344 0.7177 0.0000
vt 0.7344 0.9950 0.0000
vt 0.8750 0.9950 0.0000
vt 0.8750 0.7177 0.0000
# 10 texture coords

g Nemu_7943BD05_0_023
usemtl Material__301
s 1
f 205/141/48 206/142/48 207/143/48 
f 205/141/48 207/143/48 208/144/48 
f 209/145/49 210/146/49 206/142/49 
f 209/145/49 206/142/49 205/141/49 
f 211/147/50 212/148/50 210/146/50 
f 211/147/50 210/146/50 209/145/50 
f 213/149/51 211/147/51 214/150/51 
f 213/149/51 212/148/51 211/147/51 
# 0 polygons - 8 triangles

#
# object Nemu_33041B5F_0_023
#

v  2.5760 0.2400 -0.1400
v  2.7730 0.2400 0.3350
v  3.2440 0.2400 0.1400
v  3.0470 0.2400 -0.3350
# 4 vertices

vn 0.0000 1.0000 0.0000
# 1 vertex normals

vt 0.0015 0.0000 0.0000
vt 0.0015 0.9844 0.0000
vt 0.9824 0.9839 0.0000
vt 0.9824 0.0000 0.0000
# 4 texture coords

g Nemu_33041B5F_0_023
usemtl Material__283
s 1
f 215/151/52 216/152/52 217/153/52 
f 215/151/52 217/153/52 218/154/52 
# 0 polygons - 2 triangles

#
# object Nemu_7943BD05_0_022
#

v  2.7140 0.2400 0.1960
v  2.6330 0.1050 0.0000
v  2.7140 0.1050 0.1960
v  2.6330 0.2400 0.0000
v  2.9100 0.2400 0.2770
v  2.9100 0.1050 0.2770
v  3.1060 0.2400 0.1960
v  3.1060 0.1050 0.1960
v  3.1870 0.2400 0.0000
v  3.1870 0.1050 0.0000
# 10 vertices

vn -0.9242 -0.0000 0.3819
vn -0.3819 -0.0000 0.9242
vn 0.3819 -0.0000 0.9242
vn 0.9242 -0.0000 0.3819
# 4 vertex normals

vt 0.1211 0.8469 0.0000
vt -0.0078 -0.0242 0.0000
vt 0.1211 -0.0242 0.0000
vt -0.0078 0.8469 0.0000
vt 0.4414 0.8469 0.0000
vt 0.4414 -0.0242 0.0000
vt 0.7617 0.8469 0.0000
vt 0.7617 -0.0242 0.0000
vt 0.8945 0.8469 0.0000
vt 0.8945 -0.0242 0.0000
# 10 texture coords

g Nemu_7943BD05_0_022
usemtl Material__300
s 1
f 219/155/53 220/156/53 221/157/53 
f 222/158/53 220/156/53 219/155/53 
f 223/159/54 221/157/54 224/160/54 
f 219/155/54 221/157/54 223/159/54 
f 225/161/55 224/160/55 226/162/55 
f 223/159/55 224/160/55 225/161/55 
f 227/163/56 226/162/56 228/164/56 
f 225/161/56 226/162/56 227/163/56 
# 0 polygons - 8 triangles

#
# object Nemu_6B74DCC3_0_015
#

v  4.5990 -0.0020 -0.6310
v  4.5990 0.5340 -0.6310
v  3.9970 0.5340 -0.6310
v  3.9970 -0.0020 -0.6310
# 4 vertices

vn 0.0000 -0.0000 1.0000
# 1 vertex normals

vt 0.9844 0.0000 0.0000
vt 0.9844 0.9961 0.0000
vt 0.0000 0.9961 0.0000
vt 0.0000 0.0000 0.0000
# 4 texture coords

g Nemu_6B74DCC3_0_015
usemtl Material__273
s 1
f 229/165/57 230/166/57 231/167/57 
f 229/165/57 231/167/57 232/168/57 
# 0 polygons - 2 triangles

#
# object Nemu_58B021E4_0_020
#

v  4.6600 0.0000 -1.0990
v  4.6600 2.2380 -1.0990
v  2.4220 2.2380 -1.0990
v  2.4220 0.0000 -1.0990
# 4 vertices

vn 0.0000 -0.0000 1.0000
# 1 vertex normals

vt 0.9844 0.0000 0.0000
vt 0.9844 0.9865 0.0000
vt 0.0000 0.9865 0.0000
vt 0.0000 0.0000 0.0000
# 4 texture coords

g Nemu_58B021E4_0_020
usemtl Material__277
s 1
f 233/169/58 234/170/58 235/171/58 
f 233/169/58 235/171/58 236/172/58 
# 0 polygons - 2 triangles

#
# object Nemu_399AAB79_0_019
#

v  -1.1250 0.0000 -1.1700
v  -1.1250 1.9200 -1.1700
v  -3.0450 1.9200 -1.1700
v  -3.0450 0.0000 -1.1700
# 4 vertices

vn 0.0000 -0.0000 1.0000
# 1 vertex normals

vt 0.9944 0.0000 0.0000
vt 0.9944 0.9918 0.0000
vt 0.0100 0.9918 0.0000
vt 0.0100 0.0000 0.0000
# 4 texture coords

g Nemu_399AAB79_0_019
usemtl Material__280
s 1
f 237/173/59 238/174/59 239/175/59 
f 237/173/59 239/175/59 240/176/59 
# 0 polygons - 2 triangles

#
# object Nemu_780D90D2_0_018
#

v  3.8170 2.2380 -1.1620
v  3.8170 2.6110 -1.1620
v  3.4440 2.6110 -1.1620
v  3.4440 2.2380 -1.1620
# 4 vertices

vn 0.0000 -0.0000 1.0000
# 1 vertex normals

vt 0.9831 -0.1087 0.0000
vt 0.9831 0.9844 0.0000
vt 0.0175 0.9844 0.0000
vt 0.0175 -0.1087 0.0000
# 4 texture coords

g Nemu_780D90D2_0_018
usemtl Material__281
s 1
f 241/177/60 242/178/60 243/179/60 
f 241/177/60 243/179/60 244/180/60 
# 0 polygons - 2 triangles

#
# object Nemu_27A8F4F4_0_017
#

v  1.1490 -0.0190 -1.2520
v  1.7170 2.7150 -1.2520
v  1.1490 2.7150 -1.2520
v  1.7170 -0.0190 -1.2520
# 4 vertices

vn 0.0000 -0.0000 1.0000
# 1 vertex normals

vt 0.0000 0.0000 0.0000
vt 0.9678 0.9938 0.0000
vt 0.0000 0.9938 0.0000
vt 0.9688 0.0000 0.0000
# 4 texture coords

g Nemu_27A8F4F4_0_017
usemtl Material__275
s 1
f 245/181/61 246/182/61 247/183/61 
f 245/181/61 248/184/61 246/182/61 
# 0 polygons - 2 triangles

#
# object Nemu_3CD30334_0_016
#

v  3.5340 4.3990 -6.5920
v  3.5340 4.9400 -6.5920
v  -3.8540 4.9400 -6.5920
v  -3.8540 4.3990 -6.5920
# 4 vertices

vn 0.0000 -0.0000 1.0000
# 1 vertex normals

vt 11.9688 0.0000 0.0000
vt 11.9688 0.9688 0.0000
vt 0.0000 0.9688 0.0000
vt 0.0000 0.0000 0.0000
# 4 texture coords

g Nemu_3CD30334_0_016
usemtl Material__271
s 1
f 249/185/62 250/186/62 251/187/62 
f 249/185/62 251/187/62 252/188/62 
# 0 polygons - 2 triangles

#
# object Nemu_6F0D2E46_0_015
#

v  7.6200 -0.0000 0.6000
v  7.6200 1.4460 0.6000
v  7.6200 1.4460 -1.2540
v  7.6200 0.0000 -1.2540
v  -7.6200 0.0000 -1.2960
v  -7.6200 1.4460 0.6000
v  -7.6200 -0.0000 0.6000
v  -7.6200 1.4460 -1.2960
# 8 vertices

vn -1.0000 0.0000 -0.0000
vn 1.0000 0.0000 -0.0000
# 2 vertex normals

vt 0.8891 0.2123 0.0000
vt 0.8891 0.7631 0.0000
vt 0.1263 0.7631 0.0000
vt 0.1263 0.2123 0.0000
# 4 texture coords

g Nemu_6F0D2E46_0_015
usemtl Material__286
s 1
f 253/189/63 254/190/63 255/191/63 
f 253/189/63 255/191/63 256/192/63 
f 257/189/64 258/191/64 259/192/64 
f 257/189/64 260/190/64 258/191/64 
# 0 polygons - 4 triangles

#
# object Nemu_6B74DCC3_0_014
#

v  -4.4310 -0.0040 -0.9860
v  -4.4310 0.5320 -0.9860
v  -5.0190 0.5320 -0.9860
v  -5.0190 -0.0040 -0.9860
# 4 vertices

vn 0.0000 -0.0000 1.0000
# 1 vertex normals

vt 0.9844 0.0000 0.0000
vt 0.9844 0.9961 0.0000
vt 0.0000 0.9961 0.0000
vt 0.0000 0.0000 0.0000
# 4 texture coords

g Nemu_6B74DCC3_0_014
usemtl Material__273
s 1
f 261/193/65 262/194/65 263/195/65 
f 261/193/65 263/195/65 264/196/65 
# 0 polygons - 2 triangles

#
# object Nemu_3893348C_0_013
#

v  -2.8270 -0.0060 -1.2650
v  -2.8270 0.4270 -1.2650
v  -4.0540 0.4270 -1.2650
v  -4.0540 -0.0060 -1.2650
v  2.4750 -0.0060 -1.2890
v  2.4750 0.4270 -1.2890
v  1.2360 0.4270 -1.2890
v  1.2360 -0.0060 -1.2890
# 8 vertices

vn 0.0000 -0.0000 1.0000
# 1 vertex normals

vt 1.0151 0.0000 0.0000
vt 1.0151 0.9375 0.0000
vt 0.0000 0.9375 0.0000
vt 0.0000 0.0000 0.0000
# 4 texture coords

g Nemu_3893348C_0_013
usemtl Material__284
s 1
f 265/197/66 266/198/66 267/199/66 
f 265/197/66 267/199/66 268/200/66 
f 269/197/66 270/198/66 271/199/66 
f 269/197/66 271/199/66 272/200/66 
# 0 polygons - 4 triangles

#
# object Nemu_7897A038_0_012
#

v  -7.6200 0.0000 -1.2900
v  -4.4610 0.0000 -1.2960
v  -4.4610 1.4460 -1.2960
v  -7.6200 1.4460 -1.2900
v  7.6200 0.0000 -1.2540
v  7.6200 1.4460 -1.2540
v  5.1060 1.4460 -1.2540
v  5.1060 0.0000 -1.2540
# 8 vertices

vn 0.0019 -0.0000 1.0000
vn 0.0000 -0.0000 1.0000
# 2 vertex normals

vt 19.9375 0.0000 0.0000
vt 0.0000 0.0000 0.0000
vt 0.0000 6.7422 0.0000
vt 19.9375 6.7500 0.0000
# 4 texture coords

g Nemu_7897A038_0_012
usemtl Material__299
s 1
f 273/201/67 274/202/67 275/203/67 
f 273/201/67 275/203/67 276/204/67 
f 277/201/68 278/204/68 279/203/68 
f 277/201/68 279/203/68 280/202/68 
# 0 polygons - 4 triangles

#
# object Nemu_29ADBB9B_0_011
#

v  -7.6350 0.0000 -1.4100
v  -0.8780 0.0000 -0.6100
v  -0.8780 0.0000 -1.4150
v  -7.6400 0.0000 -0.6080
v  0.8630 0.0000 -0.6100
v  7.6330 0.0000 -0.6080
v  7.6320 0.0000 -1.4100
v  0.8630 0.0000 -1.4150
# 8 vertices

vn 0.0000 1.0000 0.0000
# 1 vertex normals

vt 0.0098 0.0117 0.0000
vt 16.9375 1.9316 0.0000
vt 16.9375 0.0000 0.0000
vt 0.0000 1.9375 0.0000
vt 0.0000 1.9316 0.0000
vt 16.9375 1.9375 0.0000
vt 16.9355 0.0117 0.0000
vt 0.0000 0.0000 0.0000
# 8 texture coords

g Nemu_29ADBB9B_0_011
usemtl Material__287
s 1
f 281/205/69 282/206/69 283/207/69 
f 281/205/69 284/208/69 282/206/69 
f 285/209/69 286/210/69 287/211/69 
f 285/209/69 287/211/69 288/212/69 
# 0 polygons - 4 triangles

#
# object Nemu_67B9801A_0_010
#

v  3.2432 2.2500 -4.9500
v  3.2432 2.7300 -4.9500
v  3.7232 2.7300 -4.9500
v  3.7232 2.2500 -4.9500
# 4 vertices

vn 0.0000 0.0000 -1.0000
# 1 vertex normals

vt 1.0431 0.0000 0.0000
vt 1.0431 0.9814 0.0000
vt -0.0350 0.9814 0.0000
vt -0.0350 0.0000 0.0000
# 4 texture coords

g Nemu_67B9801A_0_010
usemtl Material__278
s 1
f 289/213/70 290/214/70 291/215/70 
f 289/213/70 291/215/70 292/216/70 
# 0 polygons - 2 triangles

#
# object Nemu_17813733_0_003
#

v  0.1520 -6.7800 -4.9500
v  5.5560 2.2500 -4.9500
v  0.1520 2.2500 -4.9500
v  5.5560 -6.7800 -4.9500
# 4 vertices

vn 0.0000 -0.0000 1.0000
# 1 vertex normals

vt 0.0000 -0.9930 0.0000
vt 1.9844 -0.0062 0.0000
vt 0.0000 -0.0062 0.0000
vt 1.9844 -0.9930 0.0000
# 4 texture coords

g Nemu_17813733_0_003
usemtl Material__285
s 1
f 293/217/71 294/218/71 295/219/71 
f 293/217/71 296/220/71 294/218/71 
# 0 polygons - 2 triangles

#
# object Nemu_7D725BBE_0_008
#

v  1.1135 0.1050 -5.7300
v  1.1135 0.5850 -5.7300
v  0.6335 0.5850 -5.7300
v  0.6335 0.1050 -5.7300
# 4 vertices

vn 0.0000 -0.0000 1.0000
# 1 vertex normals

vt 1.0431 0.0000 0.0000
vt 1.0431 0.9814 0.0000
vt -0.0350 0.9814 0.0000
vt -0.0350 0.0000 0.0000
# 4 texture coords

g Nemu_7D725BBE_0_008
usemtl Material__274
s 1
f 297/221/72 298/222/72 299/223/72 
f 297/221/72 299/223/72 300/224/72 
# 0 polygons - 2 triangles

#
# object Nemu_5B6CDA5D_0_007
#

v  -1.2530 -7.0950 -5.7300
v  1.4430 0.1050 -5.7300
v  -1.2530 0.1050 -5.7300
v  1.4430 -7.0950 -5.7300
# 4 vertices

vn 0.0000 -0.0000 1.0000
# 1 vertex normals

vt 0.0000 -0.9453 0.0000
vt 0.9844 -0.0078 0.0000
vt 0.0000 -0.0078 0.0000
vt 0.9844 -0.9453 0.0000
# 4 texture coords

g Nemu_5B6CDA5D_0_007
usemtl Material__269
s 1
f 301/225/73 302/226/73 303/227/73 
f 301/225/73 304/228/73 302/226/73 
# 0 polygons - 2 triangles

#
# object Nemu_4EB41F11_0_006
#

v  -2.5650 3.1293 -6.6000
v  -2.5650 3.6093 -6.6000
v  -2.9850 3.6093 -6.6000
v  -2.9850 3.1293 -6.6000
# 4 vertices

vn 0.0000 -0.0000 1.0000
# 1 vertex normals

vt 1.0305 0.0000 0.0000
vt 1.0305 0.9838 0.0000
vt 0.0200 0.9838 0.0000
vt 0.0200 0.0000 0.0000
# 4 texture coords

g Nemu_4EB41F11_0_006
usemtl Material__268
s 1
f 305/229/74 306/230/74 307/231/74 
f 305/229/74 307/231/74 308/232/74 
# 0 polygons - 2 triangles

#
# object Nemu_3767D6D1_0_005
#

v  -2.9850 1.0050 -6.6000
v  -2.9850 1.4850 -6.6000
v  -2.5650 1.4850 -6.6000
v  -2.5650 1.0050 -6.6000
# 4 vertices

vn 0.0000 0.0000 -1.0000
# 1 vertex normals

vt 0.9688 0.0000 0.0000
vt 0.9688 1.0052 0.0000
vt 0.0000 1.0052 0.0000
vt 0.0000 0.0000 0.0000
# 4 texture coords

g Nemu_3767D6D1_0_005
usemtl Material__282
s 1
f 309/233/75 310/234/75 311/235/75 
f 309/233/75 311/235/75 312/236/75 
# 0 polygons - 2 triangles

#
# object Nemu_3A73DE8B_0_004
#

v  -4.6410 -2.1110 -6.2920
v  -4.2080 2.4450 -6.2920
v  -4.6410 2.4450 -6.2920
v  -4.2080 -2.1110 -6.2920
# 4 vertices

vn 0.0000 -0.0000 1.0000
# 1 vertex normals

vt 0.0200 0.0102 0.0000
vt 0.9743 0.9949 0.0000
vt 0.0200 0.9949 0.0000
vt 0.9762 0.0102 0.0000
# 4 texture coords

g Nemu_3A73DE8B_0_004
usemtl Material__266
s 1
f 313/237/76 314/238/76 315/239/76 
f 313/237/76 316/240/76 314/238/76 
# 0 polygons - 2 triangles

#
# object Nemu_39F72420_0_003
#

v  -4.7730 1.0240 -6.6300
v  -4.7730 1.6050 -6.6300
v  -5.2450 1.6050 -6.6300
v  -5.2450 1.0240 -6.6300
# 4 vertices

vn 0.0000 -0.0000 1.0000
# 1 vertex normals

vt 1.0377 0.0000 0.0000
vt 1.0377 0.9688 0.0000
vt 0.0000 0.9688 0.0000
vt 0.0000 0.0000 0.0000
# 4 texture coords

g Nemu_39F72420_0_003
usemtl Material__276
s 1
f 317/241/77 318/242/77 319/243/77 
f 317/241/77 319/243/77 320/244/77 
# 0 polygons - 2 triangles

#
# object Nemu_17813733_0_002
#

v  -6.3490 -7.4740 -6.6000
v  -0.8410 1.0200 -6.6000
v  -6.3490 1.0200 -6.6000
v  -0.8410 -7.4740 -6.6000
# 4 vertices

vn 0.0000 -0.0000 1.0000
# 1 vertex normals

vt 0.0000 -0.8584 0.0000
vt 1.9844 -0.0062 0.0000
vt 0.0000 -0.0062 0.0000
vt 1.9844 -0.8584 0.0000
# 4 texture coords

g Nemu_17813733_0_002
usemtl Material__285
s 1
f 321/245/78 322/246/78 323/247/78 
f 321/245/78 324/248/78 322/246/78 
# 0 polygons - 2 triangles

#
# object Nemu_1FAB819C_0_062
#

v  2.2400 2.3020 0.1220
v  2.2400 2.5220 0.1220
v  1.9220 2.5220 0.1220
v  1.9220 2.3020 0.1220
# 4 vertices

vn 0.0000 -0.0000 1.0000
# 1 vertex normals

vt 0.9959 0.0109 0.0000
vt 0.9959 0.9875 0.0000
vt -0.0021 0.9875 0.0000
vt -0.0021 0.0109 0.0000
# 4 texture coords

g Nemu_1FAB819C_0_062
usemtl Material__331
s 1
f 325/249/79 326/250/79 327/251/79 
f 325/249/79 327/251/79 328/252/79 
# 0 polygons - 2 triangles

#
# object Nemu_344EAD0A_0_061
#

v  1.9220 2.5220 0.1220
v  1.9220 2.3020 -0.1220
v  1.9220 2.3020 0.1220
v  1.9220 2.5220 -0.1220
v  2.2400 2.5220 0.1220
v  2.2400 2.5220 -0.1220
v  2.2400 2.3020 -0.1220
v  2.2400 2.3020 0.1220
# 8 vertices

vn -1.0000 0.0000 -0.0000
vn 0.0000 1.0000 0.0000
vn 1.0000 0.0000 -0.0000
vn 0.0000 -1.0000 -0.0000
# 4 vertex normals

vt 1.0313 1.0031 0.0000
vt -0.0316 -0.0025 0.0000
vt 1.0313 -0.0025 0.0000
vt -0.0316 1.0031 0.0000
vt 0.0054 0.0327 0.0000
vt 0.9943 0.9679 0.0000
vt 0.9943 0.0327 0.0000
vt 0.0054 0.9679 0.0000
vt 0.9697 0.9456 0.0000
vt 0.0300 0.0550 0.0000
vt 0.9697 0.0550 0.0000
vt 0.0300 0.9456 0.0000
# 12 texture coords

g Nemu_344EAD0A_0_061
usemtl Material__440
s 1
f 329/253/80 330/254/80 331/255/80 
f 329/253/80 332/256/80 330/254/80 
f 332/257/81 333/258/81 334/259/81 
f 332/257/81 329/260/81 333/258/81 
f 335/254/82 333/253/82 336/255/82 
f 335/254/82 334/256/82 333/253/82 
f 336/261/83 330/262/83 335/263/83 
f 336/261/83 331/264/83 330/262/83 
# 0 polygons - 8 triangles

#
# object Nemu_1FAB819C_0_063
#

v  -1.3260 1.8210 0.1220
v  -1.3260 2.0410 0.1220
v  -1.6440 2.0410 0.1220
v  -1.6440 1.8210 0.1220
# 4 vertices

vn 0.0000 -0.0000 1.0000
# 1 vertex normals

vt 0.9959 0.0109 0.0000
vt 0.9959 0.9875 0.0000
vt -0.0021 0.9875 0.0000
vt -0.0021 0.0109 0.0000
# 4 texture coords

g Nemu_1FAB819C_0_063
usemtl Material__346
s 1
f 337/265/84 338/266/84 339/267/84 
f 337/265/84 339/267/84 340/268/84 
# 0 polygons - 2 triangles

#
# object Nemu_344EAD0A_0_062
#

v  -1.6440 2.0410 0.1220
v  -1.6440 1.8210 -0.1220
v  -1.6440 1.8210 0.1220
v  -1.6440 2.0410 -0.1220
v  -1.3260 2.0410 0.1220
v  -1.3260 2.0410 -0.1220
v  -1.3260 1.8210 -0.1220
v  -1.3260 1.8210 0.1220
# 8 vertices

vn -1.0000 0.0000 -0.0000
vn 0.0000 1.0000 0.0000
vn 1.0000 0.0000 -0.0000
vn 0.0000 -1.0000 -0.0000
# 4 vertex normals

vt 1.0313 1.0031 0.0000
vt -0.0316 -0.0025 0.0000
vt 1.0313 -0.0025 0.0000
vt -0.0316 1.0031 0.0000
vt 0.0054 0.0327 0.0000
vt 0.9943 0.9679 0.0000
vt 0.9943 0.0327 0.0000
vt 0.0054 0.9679 0.0000
vt 0.9697 0.9456 0.0000
vt 0.0300 0.0550 0.0000
vt 0.9697 0.0550 0.0000
vt 0.0300 0.9456 0.0000
# 12 texture coords

g Nemu_344EAD0A_0_062
usemtl Material__442
s 1
f 341/269/85 342/270/85 343/271/85 
f 341/269/85 344/272/85 342/270/85 
f 344/273/86 345/274/86 346/275/86 
f 344/273/86 341/276/86 345/274/86 
f 347/270/87 345/269/87 348/271/87 
f 347/270/87 346/272/87 345/269/87 
f 348/277/88 342/278/88 347/279/88 
f 348/277/88 343/280/88 342/278/88 
# 0 polygons - 8 triangles

#
# object Nemu_1FAB819C_0_064
#

v  -2.6190 2.8530 0.1220
v  -2.6190 3.0730 0.1220
v  -2.9370 3.0730 0.1220
v  -2.9370 2.8530 0.1220
# 4 vertices

vn 0.0000 -0.0000 1.0000
# 1 vertex normals

vt 0.9959 0.0109 0.0000
vt 0.9959 0.9875 0.0000
vt -0.0021 0.9875 0.0000
vt -0.0021 0.0109 0.0000
# 4 texture coords

g Nemu_1FAB819C_0_064
usemtl Material__393
s 1
f 349/281/89 350/282/89 351/283/89 
f 349/281/89 351/283/89 352/284/89 
# 0 polygons - 2 triangles

#
# object Nemu_344EAD0A_0_063
#

v  -2.9370 3.0730 0.1220
v  -2.9370 2.8530 -0.1220
v  -2.9370 2.8530 0.1220
v  -2.9370 3.0730 -0.1220
v  -2.6190 3.0730 0.1220
v  -2.6190 3.0730 -0.1220
v  -2.6190 2.8530 -0.1220
v  -2.6190 2.8530 0.1220
# 8 vertices

vn -1.0000 0.0000 -0.0000
vn 0.0000 1.0000 0.0000
vn 1.0000 0.0000 -0.0000
vn 0.0000 -1.0000 -0.0000
# 4 vertex normals

vt 1.0313 1.0031 0.0000
vt -0.0316 -0.0025 0.0000
vt 1.0313 -0.0025 0.0000
vt -0.0316 1.0031 0.0000
vt 0.0054 0.0327 0.0000
vt 0.9943 0.9679 0.0000
vt 0.9943 0.0327 0.0000
vt 0.0054 0.9679 0.0000
vt 0.9697 0.9456 0.0000
vt 0.0300 0.0550 0.0000
vt 0.9697 0.0550 0.0000
vt 0.0300 0.9456 0.0000
# 12 texture coords

g Nemu_344EAD0A_0_063
usemtl Material__443
s 1
f 353/285/90 354/286/90 355/287/90 
f 353/285/90 356/288/90 354/286/90 
f 356/289/91 357/290/91 358/291/91 
f 356/289/91 353/292/91 357/290/91 
f 359/286/92 357/285/92 360/287/92 
f 359/286/92 358/288/92 357/285/92 
f 360/293/93 354/294/93 359/295/93 
f 360/293/93 355/296/93 354/294/93 
# 0 polygons - 8 triangles

#
# object Nemu_1FAB819C_0_065
#

v  0.1890 1.7640 0.1220
v  0.1890 1.9840 0.1220
v  -0.1290 1.9840 0.1220
v  -0.1290 1.7640 0.1220
# 4 vertices

vn 0.0000 -0.0000 1.0000
# 1 vertex normals

vt 0.9959 0.0109 0.0000
vt 0.9959 0.9875 0.0000
vt -0.0021 0.9875 0.0000
vt -0.0021 0.0109 0.0000
# 4 texture coords

g Nemu_1FAB819C_0_065
usemtl Material__438
s 1
f 361/297/94 362/298/94 363/299/94 
f 361/297/94 363/299/94 364/300/94 
# 0 polygons - 2 triangles

#
# object Nemu_344EAD0A_0_064
#

v  -0.1290 1.9840 0.1220
v  -0.1290 1.7640 -0.1220
v  -0.1290 1.7640 0.1220
v  -0.1290 1.9840 -0.1220
v  0.1890 1.9840 0.1220
v  0.1890 1.9840 -0.1220
v  0.1890 1.7640 -0.1220
v  0.1890 1.7640 0.1220
# 8 vertices

vn -1.0000 0.0000 -0.0000
vn 0.0000 1.0000 0.0000
vn 1.0000 0.0000 -0.0000
vn 0.0000 -1.0000 -0.0000
# 4 vertex normals

vt 1.0313 1.0031 0.0000
vt -0.0316 -0.0025 0.0000
vt 1.0313 -0.0025 0.0000
vt -0.0316 1.0031 0.0000
vt 0.0054 0.0327 0.0000
vt 0.9943 0.9679 0.0000
vt 0.9943 0.0327 0.0000
vt 0.0054 0.9679 0.0000
vt 0.9697 0.9456 0.0000
vt 0.0300 0.0550 0.0000
vt 0.9697 0.0550 0.0000
vt 0.0300 0.9456 0.0000
# 12 texture coords

g Nemu_344EAD0A_0_064
usemtl Material__441
s 1
f 365/301/95 366/302/95 367/303/95 
f 365/301/95 368/304/95 366/302/95 
f 368/305/96 369/306/96 370/307/96 
f 368/305/96 365/308/96 369/306/96 
f 371/302/97 369/301/97 372/303/97 
f 371/302/97 370/304/97 369/301/97 
f 372/309/98 366/310/98 371/311/98 
f 372/309/98 367/312/98 366/310/98 
# 0 polygons - 8 triangles

