# 3ds Max Wavefront OBJ Exporter v0.97b - (c)2007 guruware
# File Created: 27.10.2016 21:35:57

mtllib mario.mtl

#
# object Nemu_60999451_0_066
#

v  -0.0675 0.0745 -0.0334
v  -0.0721 0.0345 -0.0390
v  -0.0393 0.0346 0.0348
v  -0.0392 0.0746 0.0285
v  -0.0023 0.0349 -0.0256
v  -0.0078 0.0748 -0.0217
# 6 vertices

vn -0.9128 0.0478 0.4057
vn -0.9072 0.0681 0.4152
vn 0.1870 0.1143 -0.9757
vn 0.1906 0.1204 -0.9743
vn 0.8500 0.0795 0.5207
vn 0.8467 0.0665 0.5279
# 6 vertex normals

vt 0.5161 0.3170 0.0000
vt 0.5242 0.3211 0.0000
vt 0.4592 1.0241 0.0000
vt 0.4470 1.0160 0.0000
vt 0.4430 0.2357 0.0000
vt 0.4430 0.2316 0.0000
# 6 texture coords

g Nemu_60999451_0_066
usemtl Material__32
s 1
f 1/1/1 2/2/1 3/2/1 
f 1/1/2 3/2/2 4/1/2 
f 1/3/3 5/4/3 2/4/3 
f 1/3/4 6/3/4 5/4/4 
f 4/5/5 3/6/5 5/6/5 
f 4/5/6 5/6/6 6/5/6 
# 0 polygons - 6 triangles

#
# object Nemu_60999451_0_065
#

v  -0.0583 0.1321 -0.0240
v  -0.0392 0.0746 0.0285
v  -0.0376 0.1325 0.0192
v  -0.0675 0.0745 -0.0334
v  -0.0078 0.0748 -0.0217
v  -0.0151 0.1316 -0.0217
# 6 vertices

vn -0.8986 0.0924 0.4290
vn -0.9066 0.0768 0.4150
vn 0.8713 0.1111 0.4779
vn 0.8469 0.0628 0.5281
vn 0.0547 0.0081 -0.9985
vn 0.1903 0.1287 -0.9732
# 6 vertex normals

vt 0.5161 0.3170 0.0000
vt 0.4430 0.2357 0.0000
vt 0.4592 1.0241 0.0000
# 3 texture coords

g Nemu_60999451_0_065
usemtl Material__32
s 1
f 7/7/7 8/7/7 9/7/7 
f 7/7/8 10/7/8 8/7/8 
f 9/8/9 11/8/9 12/8/9 
f 9/8/10 8/8/10 11/8/10 
f 7/9/11 12/9/11 11/9/11 
f 7/9/12 11/9/12 10/9/12 
# 0 polygons - 6 triangles

#
# object Nemu_60999451_0_064
#

v  0.0105 -0.0010 0.0870
v  0.0088 0.0366 0.0573
v  0.0093 0.0297 -0.0377
v  0.0066 0.0021 -0.0430
v  0.1327 -0.0023 0.0426
v  0.0928 0.0356 0.0252
v  0.0674 0.0630 0.0830
v  0.0869 -0.0009 0.1126
# 8 vertices

vn -0.9988 -0.0482 -0.0017
vn -0.9956 0.0880 0.0318
vn 0.5612 0.1052 -0.8210
vn -0.0160 0.9973 -0.0719
vn -0.1750 0.8573 -0.4842
vn 0.5724 0.2425 -0.7833
vn -0.2561 0.5930 0.7634
vn -0.4796 0.2448 0.8427
vn 0.5602 0.7500 0.3516
vn 0.9009 0.3751 0.2182
vn -0.0192 -0.9995 -0.0231
vn -0.0047 -0.9999 0.0165
# 12 vertex normals

vt 0.3414 0.5568 0.0000
vt 0.2276 0.4267 0.0000
vt 0.4430 0.0041 0.0000
vt 0.2235 0.0894 0.0000
vt 0.8169 0.2032 0.0000
vt 0.8250 0.3942 0.0000
vt 0.7600 0.0975 0.0000
vt 0.7721 0.2804 0.0000
vt 0.5364 1.0322 0.0000
vt 0.5527 1.0322 0.0000
# 10 texture coords

g Nemu_60999451_0_064
usemtl Material__32
s 1
f 13/10/13 14/10/13 15/10/13 
f 13/10/14 15/10/14 16/10/14 
f 15/11/15 17/11/15 16/11/15 
f 18/12/16 15/12/16 14/12/16 
f 14/13/17 19/13/17 18/13/17 
f 15/11/18 18/11/18 17/11/18 
f 20/14/19 14/14/19 13/14/19 
f 19/15/20 14/15/20 20/15/20 
f 18/16/21 20/16/21 17/16/21 
f 18/17/22 19/17/22 20/17/22 
f 17/18/23 13/18/23 16/18/23 
f 13/19/24 17/19/24 20/19/24 
# 0 polygons - 12 triangles

#
# object Nemu_60999451_0_063
#

v  0.0042 0.0344 -0.0254
v  0.0411 0.0343 0.0351
v  0.0410 0.0748 0.0279
v  0.0098 0.0747 -0.0223
v  0.0740 0.0346 -0.0397
v  0.0695 0.0741 -0.0340
# 6 vertices

vn -0.8503 0.0905 0.5184
vn -0.8470 0.0776 0.5259
vn -0.1993 0.1017 -0.9746
vn -0.1888 0.1187 -0.9748
vn 0.9144 0.0460 0.4023
vn 0.9063 0.0753 0.4159
# 6 vertex normals

vt 0.4470 0.2276 0.0000
vt 0.4470 0.2357 0.0000
vt 0.4511 1.0241 0.0000
vt 0.4389 1.0160 0.0000
vt 0.5283 0.3211 0.0000
vt 0.5202 0.3170 0.0000
# 6 texture coords

g Nemu_60999451_0_063
usemtl Material__32
s 1
f 21/20/25 22/20/25 23/21/25 
f 21/20/26 23/21/26 24/21/26 
f 24/22/27 25/23/27 21/23/27 
f 24/22/28 26/22/28 25/23/28 
f 22/24/29 25/24/29 26/25/29 
f 22/24/30 26/25/30 23/25/30 
# 0 polygons - 6 triangles

#
# object Nemu_60999451_0_062
#

v  0.0098 0.0747 -0.0223
v  0.0397 0.1316 0.0192
v  0.0170 0.1325 -0.0217
v  0.0410 0.0748 0.0279
v  0.0603 0.1319 -0.0240
v  0.0695 0.0741 -0.0340
# 6 vertices

vn -0.8697 0.1038 0.4826
vn -0.8480 0.0603 0.5265
vn -0.0495 0.1622 -0.9855
vn -0.1907 0.0343 -0.9810
vn 0.8985 0.0875 0.4301
vn 0.9065 0.0720 0.4160
# 6 vertex normals

vt 0.4470 0.2357 0.0000
vt 0.4511 1.0241 0.0000
vt 0.5202 0.3170 0.0000
# 3 texture coords

g Nemu_60999451_0_062
usemtl Material__32
s 1
f 27/26/31 28/26/31 29/26/31 
f 27/26/32 30/26/32 28/26/32 
f 29/27/33 31/27/33 32/27/33 
f 29/27/34 32/27/34 27/27/34 
f 30/28/35 31/28/35 28/28/35 
f 30/28/36 32/28/36 31/28/36 
# 0 polygons - 6 triangles

#
# object Nemu_60999451_0_061
#

v  -0.0874 0.1498 -0.0009
v  -0.1072 0.1412 0.0009
v  -0.0888 0.1381 0.0148
v  -0.0741 0.1345 0.0001
v  -0.0889 0.1379 -0.0144
v  -0.0641 0.1101 0.0455
v  -0.1329 0.1131 0.0013
v  -0.1047 0.0865 0.0172
v  -0.0831 0.1039 -0.0271
# 9 vertices

vn -0.2864 0.7785 0.5585
vn 1.0000 0.0000 -0.0000
vn 0.6519 0.5346 -0.5378
vn 0.6385 0.5893 0.4950
vn -0.3651 0.7200 -0.5901
vn -0.4721 0.4409 0.7634
vn -0.5066 0.3964 0.7656
vn -0.5423 -0.0728 0.8370
vn 0.5117 0.7984 0.3173
vn 0.6962 0.3519 -0.6256
vn 0.9669 -0.0640 -0.2471
vn 0.5384 -0.8399 -0.0694
vn -0.6120 0.1832 -0.7693
vn -0.4097 0.3641 -0.8364
vn -0.4263 -0.7516 -0.5033
# 15 vertex normals

vt 0.2520 0.1829 0.0000
vt 0.1179 0.8128 0.0000
vt 0.1016 0.2682 0.0000
vt 0.2845 0.8006 0.0000
vt 0.4430 0.0935 0.0000
vt 0.6909 0.0650 0.0000
vt 0.0244 0.3617 0.0000
vt 0.1747 0.8534 0.0000
vt 0.2967 0.6827 0.0000
vt 0.7640 0.5933 0.0000
vt 0.4836 0.9144 0.0000
vt 0.9672 0.7721 0.0000
# 12 texture coords

g Nemu_60999451_0_061
usemtl Material__32
s 1
f 33/29/37 34/29/37 35/29/37 
f 33/29/38 33/29/38 34/29/38 
f 33/30/39 36/30/39 37/30/39 
f 33/30/38 37/30/38 33/30/38 
f 33/31/40 35/31/40 36/31/40 
f 33/32/41 37/32/41 34/32/41 
f 38/33/42 34/33/42 39/33/42 
f 38/33/43 35/33/43 34/33/43 
f 39/34/44 40/34/44 38/34/44 
f 38/35/45 36/35/45 35/35/45 
f 36/36/46 41/36/46 37/36/46 
f 36/37/47 38/37/47 41/37/47 
f 38/38/48 40/38/48 41/38/48 
f 41/39/49 34/39/49 37/39/49 
f 41/39/50 39/39/50 34/39/50 
f 41/40/51 40/40/51 39/40/51 
# 0 polygons - 16 triangles

#
# object Nemu_60999451_0_060
#

v  -0.1425 0.1501 -0.0277
v  -0.1149 0.1378 0.0417
v  -0.0767 0.1748 0.0239
v  -0.0874 0.1867 -0.0148
v  -0.0702 0.1252 -0.0382
v  -0.0530 0.1669 -0.0198
# 6 vertices

vn -0.5588 0.7496 0.3548
vn -0.5716 0.7260 0.3824
vn 0.7147 -0.5085 0.4802
vn 0.7165 -0.5070 0.4792
vn -0.0151 0.3519 -0.9359
vn 0.0812 0.3743 -0.9237
vn -0.3291 -0.9436 -0.0357
# 7 vertex normals

vt 0.3251 0.2804 0.0000
vt 0.3983 0.2479 0.0000
vt 0.5324 0.3251 0.0000
vt 0.5649 0.3211 0.0000
vt 0.4389 1.0160 0.0000
vt 0.3536 0.9875 0.0000
vt 1.0282 0.5446 0.0000
# 7 texture coords

g Nemu_60999451_0_060
usemtl Material__32
s 1
f 42/41/52 43/41/52 44/42/52 
f 42/41/53 44/42/53 45/42/53 
f 44/43/54 43/44/54 46/44/54 
f 44/43/55 46/44/55 47/43/55 
f 45/45/56 46/46/56 42/46/56 
f 45/45/57 47/45/57 46/46/57 
f 42/47/58 46/47/58 43/47/58 
# 0 polygons - 7 triangles

#
# object Nemu_60999451_0_059
#

v  -0.0874 0.1867 -0.0148
v  -0.0509 0.2052 0.0139
v  -0.0594 0.2180 -0.0105
v  -0.0767 0.1748 0.0239
v  -0.0530 0.1669 -0.0198
v  -0.0419 0.1926 -0.0148
v  -0.0398 0.2141 -0.0005
# 7 vertices

vn -0.6737 0.5322 0.5128
vn -0.6396 0.6665 0.3830
vn 0.7614 -0.4258 0.4888
vn -0.0720 0.8729 0.4826
vn 0.8332 -0.3604 0.4195
vn 0.7487 -0.4878 0.4488
vn 0.0206 0.1820 -0.9831
vn -0.0429 0.1742 -0.9838
vn 0.4766 0.4564 -0.7514
# 9 vertex normals

vt 0.3983 0.2479 0.0000
vt 0.2601 0.2316 0.0000
vt 0.5324 0.3251 0.0000
vt 0.5080 0.3332 0.0000
vt 0.1422 0.2479 0.0000
vt 0.4795 0.3414 0.0000
vt 0.3089 0.9916 0.0000
vt 0.4389 1.0160 0.0000
vt 0.1991 0.9185 0.0000
# 9 texture coords

g Nemu_60999451_0_059
usemtl Material__32
s 1
f 48/48/59 49/49/59 50/49/59 
f 48/48/60 51/48/60 49/49/60 
f 51/50/61 52/50/61 53/51/61 
f 49/49/62 54/52/62 50/49/62 
f 53/51/63 54/53/63 49/51/63 
f 51/50/64 53/51/64 49/51/64 
f 50/54/65 53/54/65 52/55/65 
f 50/54/66 52/55/66 48/55/66 
f 50/54/67 54/56/67 53/54/67 
# 0 polygons - 9 triangles

#
# object Nemu_60999451_0_058
#

v  0.0890 0.2526 -0.0005
v  0.1170 0.3436 -0.0165
v  0.0740 0.3156 0.0185
v  -0.1150 0.3436 -0.0165
v  -0.0870 0.2526 -0.0005
v  -0.0720 0.3156 0.0185
# 6 vertices

vn 0.6568 -0.0701 0.7508
vn -0.6568 -0.0701 0.7508
# 2 vertex normals

vt 0.8575 0.4836 0.0000
vt 0.1747 0.4836 0.0000
# 2 texture coords

g Nemu_60999451_0_058
usemtl Material__32
s 1
f 55/57/68 56/57/68 57/57/68 
f 58/58/69 59/58/69 60/58/69 
# 0 polygons - 2 triangles

#
# object Nemu_60999451_0_057
#

v  -0.0640 0.2276 0.0005
v  0.0010 0.2276 -0.0595
v  0.0010 0.2146 0.0645
v  -0.0880 0.2526 0.0005
v  -0.0010 0.2866 -0.0725
v  -0.0480 0.2496 0.0745
v  -0.0840 0.3156 0.0005
v  -0.0680 0.2846 0.0615
v  -0.0590 0.3426 0.0605
v  -0.0670 0.3656 0.0005
v  0.0010 0.3286 -0.0945
v  0.0900 0.2526 0.0005
v  0.0660 0.2276 0.0005
v  0.0860 0.3156 0.0005
v  -0.0000 0.4086 -0.1035
v  0.0690 0.3656 0.0005
v  0.0010 0.2846 0.0895
v  0.0010 0.2496 0.0965
v  0.0500 0.2496 0.0745
v  0.0010 0.3476 0.0805
v  -0.0330 0.3026 0.0975
v  0.0010 0.2756 0.0635
v  -0.0280 0.2536 0.0975
v  0.0700 0.2846 0.0615
v  0.0300 0.2536 0.0975
v  0.0010 0.3846 0.0535
v  0.0010 0.2626 0.1765
v  0.0350 0.3026 0.0975
v  0.0610 0.3426 0.0605
# 29 vertices

vn -0.0958 -0.9900 -0.1038
vn -0.5852 -0.1934 -0.7875
vn -0.6783 -0.6512 0.3403
vn -0.5684 -0.5457 -0.6158
vn -0.6517 0.0414 -0.7574
vn -0.8399 -0.3161 0.4412
vn -0.9348 0.1506 0.3217
vn -0.9575 0.0608 0.2820
vn -0.7382 0.2510 -0.6262
vn -0.7382 0.2510 -0.6261
vn -0.6866 -0.3114 -0.6570
vn 0.5819 -0.1561 -0.7981
vn -0.4982 -0.7958 0.3443
vn 0.5684 -0.5457 -0.6158
vn 0.0958 -0.9900 -0.1038
vn 0.6664 -0.3706 -0.6470
vn -0.8243 -0.0735 -0.5614
vn -0.9186 0.3123 0.2422
vn 0.7382 0.2510 -0.6261
vn 0.7382 0.2510 -0.6262
vn -0.3729 0.1282 0.9190
vn -0.3145 -0.6405 0.7006
vn 0.4982 -0.7958 0.3443
vn -0.4029 0.1795 0.8975
vn 0.8217 -0.0536 -0.5673
vn 0.6343 0.0403 -0.7720
vn -0.3234 0.1338 0.9368
vn -0.3750 0.0741 0.9241
vn 0.6783 -0.6512 0.3403
vn 0.3145 -0.6405 0.7006
vn -0.7342 -0.0749 -0.6747
vn 0.8399 -0.3161 0.4412
vn 0.0000 -0.8396 -0.5433
vn -0.3680 0.9188 0.1428
vn 0.4029 0.1795 0.8975
vn -0.5044 0.7817 0.3669
vn -0.9310 -0.0950 0.3526
vn 0.3729 0.1282 0.9190
vn 0.0000 -0.9936 0.1132
vn 0.0000 0.7831 -0.6219
vn 0.9575 0.0608 0.2820
vn 0.7342 -0.0749 -0.6747
vn 0.3651 0.9206 0.1384
vn 0.9348 0.1506 0.3217
vn 0.3728 0.1312 0.9186
vn 0.0000 0.8922 0.4517
vn 0.9310 -0.0950 0.3526
vn 0.3205 0.0660 0.9449
vn 0.5044 0.7817 0.3669
vn 0.9186 0.3123 0.2422
vn 0.3034 0.5617 0.7697
vn -0.3034 0.5617 0.7697
# 52 vertex normals

vt 0.4714 0.0041 0.0000
vt 0.2154 0.4186 0.0000
vt 0.1097 0.2682 0.0000
vt 0.2195 0.2438 0.0000
vt 0.1829 0.5364 0.0000
vt 0.0244 0.5690 0.0000
vt 0.1300 0.5080 0.0000
vt 0.8169 0.4389 0.0000
vt 0.2601 0.1057 0.0000
vt 0.8128 0.2438 0.0000
vt 0.5608 0.0041 0.0000
vt 0.8981 0.4917 0.0000
vt 0.0894 0.4836 0.0000
vt 0.0406 0.6746 0.0000
vt 0.3170 0.5933 0.0000
vt 0.3536 0.1829 0.0000
vt 0.7721 0.1057 0.0000
vt 0.9388 0.4917 0.0000
vt 0.8412 0.5364 0.0000
vt 0.3332 0.5690 0.0000
vt 0.9225 0.2682 0.0000
vt 0.6787 0.1829 0.0000
vt 0.1341 0.4714 0.0000
vt 0.5161 0.0772 0.0000
vt 0.3251 0.9916 0.0000
vt 0.7153 0.5933 0.0000
vt 0.2560 0.9225 0.0000
vt 0.0325 0.4592 0.0000
vt 0.5161 0.0000 0.0000
vt 0.5161 0.9225 0.0000
vt 1.0079 0.5690 0.0000
vt 0.8981 0.4714 0.0000
vt 0.7071 0.9916 0.0000
vt 0.6990 0.5690 0.0000
vt 0.5161 0.9794 0.0000
vt 0.9997 0.4592 0.0000
vt 0.7762 0.9225 0.0000
vt 0.9916 0.6746 0.0000
vt 0.6706 0.8047 0.0000
vt 0.3617 0.8047 0.0000
# 40 texture coords

g Nemu_60999451_0_057
usemtl Material__32
s 1
f 61/59/70 62/59/70 63/59/70 
f 62/60/71 64/60/71 65/60/71 
f 66/61/72 64/61/72 61/61/72 
f 64/62/73 62/62/73 61/62/73 
f 65/63/74 64/63/74 67/63/74 
f 66/61/75 68/61/75 64/61/75 
f 68/64/76 69/64/76 67/64/76 
f 68/64/77 67/64/77 64/64/77 
f 67/65/78 70/65/79 71/65/78 
f 67/65/80 71/65/80 65/65/80 
f 72/66/81 62/66/81 65/66/81 
f 61/67/82 63/67/82 66/67/82 
f 73/68/83 62/68/83 72/68/83 
f 62/69/84 73/69/84 63/69/84 
f 71/70/85 74/70/85 65/70/85 
f 71/71/86 70/71/86 75/71/86 
f 69/72/87 70/72/87 67/72/87 
f 71/70/88 76/70/88 74/70/89 
f 66/73/90 77/73/90 68/73/90 
f 66/74/91 63/74/91 78/74/91 
f 79/75/92 63/75/92 73/75/92 
f 66/73/93 78/73/93 77/73/93 
f 76/76/94 71/76/94 75/76/94 
f 65/77/95 74/77/95 72/77/95 
f 77/78/96 80/78/96 69/78/96 
f 77/78/97 69/78/97 68/78/97 
f 72/79/98 79/79/98 73/79/98 
f 78/80/99 63/80/99 79/80/99 
f 81/81/100 82/81/100 83/81/100 
f 72/79/101 84/79/101 79/79/101 
f 83/82/102 82/82/102 85/82/102 
f 75/83/103 70/83/103 86/83/103 
f 79/84/104 77/84/104 78/84/104 
f 69/85/105 86/85/105 70/85/105 
f 87/86/106 81/86/106 83/86/106 
f 79/84/107 84/84/107 77/84/107 
f 87/87/108 83/87/108 85/87/108 
f 88/88/109 82/88/109 81/88/109 
f 74/89/110 84/89/110 72/89/110 
f 85/90/111 82/90/111 88/90/111 
f 76/91/112 75/91/112 86/91/112 
f 74/89/113 89/89/113 84/89/113 
f 84/92/114 80/92/114 77/92/114 
f 87/93/115 88/93/115 81/93/115 
f 87/94/116 85/94/116 88/94/116 
f 84/92/117 89/92/117 80/92/117 
f 89/95/118 76/95/118 86/95/118 
f 76/96/119 89/96/119 74/96/119 
f 89/97/120 86/97/120 80/97/120 
f 86/98/121 69/98/121 80/98/121 
# 0 polygons - 50 triangles

#
# object Nemu_60999451_0_056
#

v  0.0659 0.1100 0.0455
v  0.0760 0.1345 0.0001
v  0.0850 0.1039 -0.0271
v  0.0906 0.1380 0.0148
v  0.1347 0.1130 0.0013
v  0.0893 0.1497 -0.0008
v  0.0908 0.1379 -0.0144
v  0.1091 0.1412 0.0010
v  0.1064 0.0864 0.0172
# 9 vertices

vn -0.9666 -0.0623 -0.2485
vn -0.5110 0.7989 0.3172
vn 0.4759 0.4254 0.7698
vn -0.6383 0.5899 0.4946
vn -0.6504 0.5360 -0.5383
vn 0.4842 0.4508 0.7498
vn -0.5395 -0.8390 -0.0707
vn 1.0000 0.0000 -0.0000
vn 0.2868 0.7777 0.5594
vn 0.3670 0.7199 -0.5891
vn 0.5411 -0.0742 0.8377
vn -0.6949 0.3535 -0.6263
vn 0.4471 0.2456 -0.8601
vn 0.5199 0.4644 -0.7169
vn 0.4259 -0.7519 -0.5033
# 15 vertex normals

vt 0.2967 0.6827 0.0000
vt 0.0244 0.3617 0.0000
vt 0.4430 0.0935 0.0000
vt 0.1016 0.2682 0.0000
vt 0.1179 0.8128 0.0000
vt 0.7640 0.5933 0.0000
vt 0.2520 0.1829 0.0000
vt 0.2845 0.8006 0.0000
vt 0.6909 0.0650 0.0000
vt 0.1747 0.8534 0.0000
vt 0.4836 0.9144 0.0000
vt 0.9672 0.7721 0.0000
# 12 texture coords

g Nemu_60999451_0_056
usemtl Material__32
s 1
f 90/99/122 91/99/122 92/99/122 
f 91/100/123 90/100/123 93/100/123 
f 94/101/124 93/101/124 90/101/124 
f 93/102/125 95/102/125 91/102/125 
f 96/103/126 91/103/126 95/103/126 
f 94/101/127 97/101/127 93/101/127 
f 98/104/128 90/104/128 92/104/128 
f 96/103/129 95/103/129 95/103/129 
f 97/105/129 95/105/129 95/105/129 
f 97/105/130 95/105/130 93/105/130 
f 96/106/131 95/106/131 97/106/131 
f 98/107/132 94/107/132 90/107/132 
f 92/108/133 91/108/133 96/108/133 
f 96/109/134 94/109/134 92/109/134 
f 96/109/135 97/109/135 94/109/135 
f 98/110/136 92/110/136 94/110/136 
# 0 polygons - 16 triangles

#
# object Nemu_60999451_0_055
#

v  0.0721 0.1252 -0.0382
v  0.1168 0.1377 0.0417
v  0.0786 0.1747 0.0239
v  0.0549 0.1668 -0.0209
v  0.1445 0.1499 -0.0276
v  0.0894 0.1866 -0.0148
# 6 vertices

vn -0.7162 -0.5077 0.4790
vn -0.7269 -0.4983 0.4726
vn 0.5596 0.7484 0.3561
vn 0.5723 0.7248 0.3837
vn 0.0032 0.3867 -0.9222
vn -0.0127 0.3130 -0.9497
vn 0.3278 -0.9441 -0.0359
# 7 vertex normals

vt 0.5649 0.3211 0.0000
vt 0.5324 0.3251 0.0000
vt 0.3983 0.2438 0.0000
vt 0.3251 0.2804 0.0000
vt 0.4348 1.0160 0.0000
vt 0.3536 0.9875 0.0000
vt 1.0282 0.5446 0.0000
# 7 texture coords

g Nemu_60999451_0_055
usemtl Material__32
s 1
f 99/111/137 100/111/137 101/112/137 
f 99/111/138 101/112/138 102/112/138 
f 101/113/139 100/114/139 103/114/139 
f 101/113/140 103/114/140 104/113/140 
f 102/115/141 103/116/141 99/116/141 
f 102/115/142 104/115/142 103/116/142 
f 99/117/143 103/117/143 100/117/143 
# 0 polygons - 7 triangles

#
# object Nemu_60999451_0_054
#

v  0.0438 0.1926 -0.0149
v  0.0786 0.1747 0.0239
v  0.0529 0.2052 0.0139
v  0.0549 0.1668 -0.0209
v  0.0894 0.1866 -0.0148
v  0.0614 0.2180 -0.0105
v  0.0419 0.2141 0.0005
# 7 vertices

vn -0.7501 -0.4870 0.4475
vn -0.7605 -0.4376 0.4797
vn 0.6738 0.5308 0.5141
vn 0.6401 0.6652 0.3843
vn 0.0219 0.1553 -0.9876
vn 0.0330 0.2397 -0.9703
vn -0.5021 0.4718 -0.7247
vn -0.8243 -0.3767 0.4226
vn 0.1051 0.8649 0.4907
# 9 vertex normals

vt 0.5324 0.3251 0.0000
vt 0.3983 0.2438 0.0000
vt 0.4348 1.0160 0.0000
vt 0.1951 0.9144 0.0000
vt 0.4795 0.3414 0.0000
vt 0.1463 0.2438 0.0000
# 6 texture coords

g Nemu_60999451_0_054
usemtl Material__32
s 1
f 105/118/144 106/118/144 107/118/144 
f 105/118/145 108/118/145 106/118/145 
f 107/119/146 109/119/146 110/119/146 
f 107/119/147 106/119/147 109/119/147 
f 105/120/148 110/120/148 109/120/148 
f 105/120/149 109/120/149 108/120/149 
f 111/121/150 110/121/150 105/121/150 
f 111/122/151 105/122/151 107/122/151 
f 111/123/152 107/123/152 110/123/152 
# 0 polygons - 9 triangles

#
# object Nemu_60999451_0_053
#

v  0.0010 0.1490 -0.0580
v  0.0010 0.0980 -0.0420
v  -0.0530 0.0980 0.0000
v  0.0010 0.0760 0.0000
v  0.0010 0.0980 0.0540
v  -0.0730 0.1500 0.0000
v  -0.0430 0.2190 0.0000
v  0.0010 0.2190 -0.0450
v  0.0010 0.1500 0.0720
v  0.0550 0.0980 0.0000
v  0.0750 0.1500 0.0000
v  0.0010 0.2410 0.0000
v  0.0450 0.2190 0.0000
v  0.0010 0.2190 0.0440
# 14 vertices

vn -0.5959 -0.2404 -0.7662
vn -0.3395 -0.8332 -0.4365
vn -0.3530 -0.8665 0.3530
vn -0.6021 -0.2316 -0.7641
vn -0.7091 0.1288 -0.6933
vn -0.5938 0.2582 -0.7621
vn -0.6868 -0.2377 0.6868
vn -0.6735 -0.2591 0.6923
vn -0.6674 0.2902 0.6859
vn 0.3530 -0.8665 0.3530
vn 0.6735 -0.2591 0.6923
vn 0.6868 -0.2377 0.6868
vn -0.4098 0.8195 -0.4006
vn 0.6828 0.2969 -0.6676
vn -0.6797 0.2758 0.6797
vn 0.4098 0.8195 -0.4006
vn 0.6092 0.1448 -0.7797
vn 0.6674 0.2902 0.6859
vn -0.4082 0.8165 0.4082
vn 0.4082 0.8165 0.4082
vn 0.6797 0.2758 0.6797
vn 0.6010 -0.2393 -0.7626
vn 0.3395 -0.8332 -0.4365
vn 0.5975 -0.2298 -0.7682
# 24 vertex normals

vt 0.2113 0.3942 0.0000
vt 0.3454 0.0853 0.0000
vt 0.3373 0.0650 0.0000
vt 0.1869 0.6218 0.0000
vt 0.1666 0.3861 0.0000
vt 0.1707 0.6665 0.0000
vt 0.6949 0.0650 0.0000
vt 0.8656 0.3861 0.0000
vt 0.3129 0.9469 0.0000
vt 0.8453 0.6218 0.0000
vt 0.1666 0.6584 0.0000
vt 0.7193 0.9469 0.0000
vt 0.8656 0.6624 0.0000
vt 0.3129 0.9428 0.0000
vt 0.7193 0.9428 0.0000
vt 0.8209 0.3942 0.0000
vt 0.6868 0.0853 0.0000
# 17 texture coords

g Nemu_60999451_0_053
usemtl Material__32
s 1
f 112/124/153 113/124/153 114/124/153 
f 115/125/154 114/125/154 113/125/154 
f 115/126/155 116/126/155 114/126/155 
f 112/124/156 114/124/156 117/124/156 
f 118/127/157 119/127/157 112/127/157 
f 118/127/158 112/127/158 117/127/158 
f 114/128/159 116/128/159 120/128/159 
f 114/128/160 120/128/160 117/128/160 
f 120/129/161 118/129/161 117/129/161 
f 115/130/162 121/130/162 116/130/162 
f 121/131/163 122/131/163 120/131/163 
f 121/131/164 120/131/164 116/131/164 
f 123/132/165 119/132/165 118/132/165 
f 119/133/166 124/133/166 122/133/166 
f 118/134/167 120/134/167 125/134/167 
f 123/135/168 124/135/168 119/135/168 
f 119/133/169 122/133/169 112/133/169 
f 120/136/170 122/136/170 124/136/170 
f 123/137/171 118/137/171 125/137/171 
f 123/138/172 125/138/172 124/138/172 
f 120/136/173 124/136/173 125/136/173 
f 122/139/174 113/139/174 112/139/174 
f 115/140/175 113/140/175 121/140/175 
f 122/139/176 121/139/176 113/139/176 
# 0 polygons - 24 triangles

#
# object Nemu_60999451_0_067
#

v  -0.1332 -0.0015 0.0432
v  -0.0076 0.0294 -0.0377
v  -0.0052 0.0018 -0.0432
v  -0.0935 0.0362 0.0203
v  -0.0687 0.0620 0.0825
v  -0.0092 0.0356 0.0543
v  -0.0110 -0.0017 0.0875
v  -0.0868 -0.0016 0.1135
# 8 vertices

vn -0.5576 0.1143 -0.8222
vn -0.5535 0.0797 -0.8290
vn 0.1831 0.8798 -0.4386
vn 0.0336 0.9973 -0.0658
vn 0.9993 -0.0318 0.0195
vn 0.9960 0.0766 0.0464
vn -0.9079 0.3617 0.2120
vn -0.5306 0.7716 0.3509
vn 0.5052 0.2576 0.8237
vn 0.0086 -0.9996 -0.0262
vn -0.0008 -1.0000 -0.0002
vn 0.2497 0.6385 0.7280
# 12 vertex normals

vt 0.2316 0.4917 0.0000
vt 0.2357 0.0813 0.0000
vt 0.4470 0.0041 0.0000
vt 0.3373 0.5161 0.0000
vt 0.7843 0.3089 0.0000
vt 0.7600 0.0975 0.0000
vt 0.8006 0.3617 0.0000
vt 0.5364 1.0322 0.0000
vt 0.5527 1.0322 0.0000
vt 0.7884 0.1626 0.0000
# 10 texture coords

g Nemu_60999451_0_067
usemtl Material__32
s 1
f 126/141/177 127/141/177 128/141/177 
f 126/141/178 129/141/178 127/141/178 
f 129/142/179 130/142/179 131/142/179 
f 127/143/180 129/143/180 131/143/180 
f 127/144/181 131/144/181 132/144/181 
f 127/144/182 132/144/182 128/144/182 
f 130/145/183 129/145/183 133/145/183 
f 133/146/184 129/146/184 126/146/184 
f 131/147/185 130/147/185 133/147/185 
f 132/148/186 126/148/186 128/148/186 
f 126/149/187 132/149/187 133/149/187 
f 131/150/188 133/150/188 132/150/188 
# 0 polygons - 12 triangles

